%TF.GenerationSoftware,KiCad,Pcbnew,9.0.0*%
%TF.CreationDate,2025-09-20T16:18:57+02:00*%
%TF.ProjectId,ecap5-bcarrier-xlite,65636170-352d-4626-9361-72726965722d,rev?*%
%TF.SameCoordinates,Original*%
%TF.FileFunction,Copper,L3,Inr*%
%TF.FilePolarity,Positive*%
%FSLAX46Y46*%
G04 Gerber Fmt 4.6, Leading zero omitted, Abs format (unit mm)*
G04 Created by KiCad (PCBNEW 9.0.0) date 2025-09-20 16:18:57*
%MOMM*%
%LPD*%
G01*
G04 APERTURE LIST*
G04 Aperture macros list*
%AMRoundRect*
0 Rectangle with rounded corners*
0 $1 Rounding radius*
0 $2 $3 $4 $5 $6 $7 $8 $9 X,Y pos of 4 corners*
0 Add a 4 corners polygon primitive as box body*
4,1,4,$2,$3,$4,$5,$6,$7,$8,$9,$2,$3,0*
0 Add four circle primitives for the rounded corners*
1,1,$1+$1,$2,$3*
1,1,$1+$1,$4,$5*
1,1,$1+$1,$6,$7*
1,1,$1+$1,$8,$9*
0 Add four rect primitives between the rounded corners*
20,1,$1+$1,$2,$3,$4,$5,0*
20,1,$1+$1,$4,$5,$6,$7,0*
20,1,$1+$1,$6,$7,$8,$9,0*
20,1,$1+$1,$8,$9,$2,$3,0*%
G04 Aperture macros list end*
%TA.AperFunction,ComponentPad*%
%ADD10R,1.700000X1.700000*%
%TD*%
%TA.AperFunction,ComponentPad*%
%ADD11C,1.700000*%
%TD*%
%TA.AperFunction,HeatsinkPad*%
%ADD12O,2.100000X1.000000*%
%TD*%
%TA.AperFunction,HeatsinkPad*%
%ADD13O,1.800000X1.000000*%
%TD*%
%TA.AperFunction,ComponentPad*%
%ADD14RoundRect,0.250000X-1.050000X1.050000X-1.050000X-1.050000X1.050000X-1.050000X1.050000X1.050000X0*%
%TD*%
%TA.AperFunction,ComponentPad*%
%ADD15C,2.600000*%
%TD*%
%TA.AperFunction,ViaPad*%
%ADD16C,0.600000*%
%TD*%
G04 APERTURE END LIST*
D10*
%TO.N,/SOM2.JTAC_TCK*%
%TO.C,J3*%
X155960000Y-105375000D03*
D11*
%TO.N,/SOM2.JTAC_TDI*%
X155960000Y-102835000D03*
%TO.N,/SOM2.JTAC_TDO*%
X155960000Y-100295000D03*
%TO.N,/SOM2.JTAC_TMS*%
X155960000Y-97755000D03*
%TD*%
D12*
%TO.N,GND*%
%TO.C,J5*%
X229530000Y-118985000D03*
D13*
X233710000Y-118985000D03*
D12*
X229530000Y-110345000D03*
D13*
X233710000Y-110345000D03*
%TD*%
D10*
%TO.N,/SOM1.JTAC_TCK*%
%TO.C,J4*%
X77260000Y-105400000D03*
D11*
%TO.N,/SOM1.JTAC_TDI*%
X77260000Y-102860000D03*
%TO.N,/SOM1.JTAC_TDO*%
X77260000Y-100320000D03*
%TO.N,/SOM1.JTAC_TMS*%
X77260000Y-97780000D03*
%TD*%
D10*
%TO.N,/SOM2.UART_TX*%
%TO.C,JP2*%
X208535000Y-113705000D03*
D11*
%TO.N,/UART.TX*%
X205995000Y-113705000D03*
%TO.N,/SOM1.UART_TX*%
X203455000Y-113705000D03*
%TD*%
D14*
%TO.N,GND*%
%TO.C,J9*%
X80890000Y-111965000D03*
D15*
%TO.N,Net-(D1-A)*%
X80890000Y-116965000D03*
%TD*%
D10*
%TO.N,/SOM2.UART_RX*%
%TO.C,JP1*%
X208525000Y-117240000D03*
D11*
%TO.N,/UART.RX*%
X205985000Y-117240000D03*
%TO.N,/SOM1.UART_RX*%
X203445000Y-117240000D03*
%TD*%
D16*
%TO.N,GND*%
X95887381Y-75990000D03*
X235810000Y-116915000D03*
X224485000Y-113165000D03*
X128785000Y-98740000D03*
X219160000Y-117665000D03*
X136592143Y-124590000D03*
X207825476Y-124590000D03*
X221435000Y-98739999D03*
X140985000Y-119790000D03*
X224760000Y-113865000D03*
X230721905Y-70390000D03*
X235810000Y-93890000D03*
X139136190Y-70390000D03*
X224435000Y-98739999D03*
X120785000Y-121040000D03*
X143535000Y-104540000D03*
X179840952Y-124590000D03*
X212360000Y-116580000D03*
X183185000Y-104539999D03*
X75535000Y-104123333D03*
X118783810Y-124590000D03*
X197935000Y-98739999D03*
X96785000Y-111831667D03*
X92035000Y-104540000D03*
X95887381Y-70390000D03*
X202737381Y-124590000D03*
X85711190Y-124590000D03*
X163685000Y-104539999D03*
X193185000Y-104539999D03*
X235810000Y-101570000D03*
X114785000Y-98740000D03*
X219685000Y-104539999D03*
X86285000Y-98740000D03*
X116239762Y-124590000D03*
X88255238Y-75990000D03*
X75535000Y-114356667D03*
X212913571Y-70390000D03*
X92285000Y-98740000D03*
X183435000Y-98739999D03*
X235810000Y-91331667D03*
X201685000Y-104539999D03*
X126415952Y-70390000D03*
X218910000Y-109590000D03*
X235810000Y-122031667D03*
X144224286Y-70390000D03*
X136592143Y-70390000D03*
X165435000Y-98739999D03*
X233265952Y-70390000D03*
X84535000Y-104540000D03*
X154400476Y-70390000D03*
X212435000Y-98739999D03*
X124710000Y-115440000D03*
X218435000Y-98739999D03*
X218001667Y-70390000D03*
X202737381Y-70390000D03*
X156944524Y-124590000D03*
X124035000Y-104540000D03*
X225652857Y-91340000D03*
X75535000Y-101565000D03*
X89035000Y-104540000D03*
X108607619Y-70390000D03*
X143860000Y-119640000D03*
X206185000Y-104539999D03*
X111142143Y-101740000D03*
X75535000Y-124590000D03*
X139035000Y-104540000D03*
X219935000Y-98739999D03*
X83167143Y-124590000D03*
X102785000Y-98740000D03*
X75535000Y-75981667D03*
X200193333Y-70390000D03*
X215555000Y-111340000D03*
X200193333Y-124590000D03*
X134048095Y-124590000D03*
X75535000Y-109240000D03*
X211610000Y-116580000D03*
X98285000Y-98740000D03*
X159704048Y-101740000D03*
X83035000Y-104540000D03*
X174435000Y-98739999D03*
X75535000Y-119473333D03*
X96785000Y-113315000D03*
X127035000Y-104540000D03*
X142035000Y-104540000D03*
X107715000Y-121035000D03*
X103519524Y-101740000D03*
X111151667Y-75990000D03*
X113695714Y-70390000D03*
X162435000Y-98739999D03*
X107715000Y-115460000D03*
X95035000Y-104540000D03*
X154400476Y-124590000D03*
X222935000Y-98739999D03*
X182385000Y-124590000D03*
X235810000Y-86215000D03*
X205281429Y-124590000D03*
X134785000Y-98740000D03*
X93343333Y-124590000D03*
X212185000Y-104539999D03*
X142285000Y-98740000D03*
X229885000Y-104540000D03*
X223089762Y-70390000D03*
X190229048Y-101740000D03*
X235810000Y-114356667D03*
X186435000Y-98739999D03*
X172208810Y-124590000D03*
X136035000Y-104540000D03*
X218185000Y-104539999D03*
X123871905Y-70390000D03*
X216935000Y-98739999D03*
X131785000Y-98740000D03*
X121327857Y-124590000D03*
X103519524Y-70390000D03*
X89285000Y-98740000D03*
X99785000Y-98740000D03*
X117685000Y-122215000D03*
X201935000Y-98739999D03*
X179840952Y-70390000D03*
X126685000Y-119790000D03*
X223089762Y-124590000D03*
X146785000Y-98740000D03*
X235810000Y-124590000D03*
X235810000Y-75981667D03*
X163935000Y-98739999D03*
X78079048Y-70390000D03*
X235810000Y-83656667D03*
X75535000Y-70390000D03*
X197876667Y-101740000D03*
X116285000Y-98740000D03*
X75535000Y-122031667D03*
X169935000Y-98739999D03*
X225633810Y-70390000D03*
X116239762Y-70390000D03*
X100975476Y-70390000D03*
X86035000Y-104540000D03*
X130035000Y-104540000D03*
X192561190Y-70390000D03*
X235810000Y-106681667D03*
X221185000Y-104539999D03*
X106035000Y-104540000D03*
X235810000Y-96448333D03*
X149312381Y-70390000D03*
X220767143Y-101740000D03*
X169685000Y-104539999D03*
X181935000Y-98739999D03*
X78079048Y-124590000D03*
X96785000Y-98740000D03*
X207935000Y-98739999D03*
X159488571Y-124590000D03*
X113695714Y-124590000D03*
X198590000Y-117490000D03*
X225935000Y-98739999D03*
X75535000Y-91331667D03*
X105785000Y-98740000D03*
X96785000Y-112573333D03*
X218001667Y-124590000D03*
X136807619Y-101740000D03*
X124285000Y-98740000D03*
X191185000Y-104539999D03*
X192561190Y-124590000D03*
X108785000Y-98740000D03*
X122785000Y-98740000D03*
X222135000Y-109590000D03*
X152071905Y-101740000D03*
X143785000Y-98740000D03*
X111785000Y-98740000D03*
X175685000Y-104539999D03*
X96035000Y-111090000D03*
X233285000Y-75990000D03*
X224185000Y-104539999D03*
X235810000Y-119473333D03*
X177435000Y-98739999D03*
X103519524Y-124590000D03*
X233285000Y-91340000D03*
X96035000Y-112573333D03*
X131504048Y-70390000D03*
X117785000Y-98740000D03*
X75535000Y-78540000D03*
X195105238Y-124590000D03*
X230721905Y-124590000D03*
X235810000Y-88773333D03*
X214530000Y-108890000D03*
X225633810Y-124590000D03*
X140535000Y-104540000D03*
X212913571Y-124590000D03*
X118785000Y-98740000D03*
X88255238Y-101740000D03*
X95887381Y-124590000D03*
X121035000Y-104540000D03*
X178935000Y-98739999D03*
X103519524Y-83665000D03*
X75535000Y-106681667D03*
X114035000Y-104540000D03*
X104035000Y-104540000D03*
X87785000Y-98740000D03*
X235810000Y-109240000D03*
X213685000Y-104539999D03*
X144224286Y-124590000D03*
X200185000Y-104539999D03*
X139285000Y-98740000D03*
X195185000Y-104539999D03*
X187473095Y-124590000D03*
X163485000Y-108915000D03*
X162185000Y-104539999D03*
X209185000Y-104539999D03*
X219160000Y-115665000D03*
X106063571Y-124590000D03*
X204685000Y-104539999D03*
X98035000Y-104540000D03*
X96035000Y-113315000D03*
X75535000Y-111798333D03*
X225135000Y-119740000D03*
X156944524Y-70390000D03*
X167342143Y-101740000D03*
X134048095Y-70390000D03*
X108607619Y-124590000D03*
X118774286Y-101740000D03*
X93535000Y-104540000D03*
X101285000Y-98740000D03*
X88255238Y-91315000D03*
X98431429Y-124590000D03*
X95877857Y-101740000D03*
X131535000Y-104540000D03*
X99615000Y-118190000D03*
X216685000Y-104539999D03*
X225260000Y-113340000D03*
X146768333Y-124590000D03*
X169664762Y-124590000D03*
X210685000Y-104539999D03*
X190017143Y-70390000D03*
X133035000Y-104540000D03*
X227935000Y-117865000D03*
X192435000Y-98739999D03*
X112035000Y-104540000D03*
X182385000Y-70390000D03*
X149312381Y-124590000D03*
X123871905Y-124590000D03*
X210369524Y-124590000D03*
X210935000Y-98739999D03*
X151856429Y-70390000D03*
X88255238Y-124590000D03*
X137785000Y-98740000D03*
X181185000Y-104539999D03*
X110035000Y-104540000D03*
X190017143Y-124590000D03*
X162032619Y-124590000D03*
X126415952Y-124590000D03*
X140785000Y-98740000D03*
X104285000Y-98740000D03*
X128960000Y-70390000D03*
X217435000Y-109590000D03*
X225210000Y-117615000D03*
X131504048Y-124590000D03*
X137535000Y-104540000D03*
X80623095Y-75990000D03*
X111151667Y-70390000D03*
X99635000Y-122115000D03*
X193935000Y-98739999D03*
X235810000Y-78540000D03*
X167120714Y-124590000D03*
X165185000Y-104539999D03*
X105210000Y-122115000D03*
X105210000Y-114165000D03*
X118035000Y-104540000D03*
X235810000Y-81098333D03*
X172208810Y-70390000D03*
X75535000Y-86215000D03*
X95887381Y-83665000D03*
X75535000Y-99006667D03*
X196935000Y-98739999D03*
X177296905Y-70390000D03*
X171185000Y-104539999D03*
X213935000Y-98739999D03*
X215435000Y-98739999D03*
X184929048Y-70390000D03*
X220545714Y-124590000D03*
X158160000Y-119840000D03*
X205281429Y-70390000D03*
X177296905Y-124590000D03*
X184935000Y-98739999D03*
X185185000Y-104539999D03*
X228160000Y-111015000D03*
X75535000Y-96448333D03*
X207825476Y-70390000D03*
X75535000Y-83656667D03*
X189435000Y-98739999D03*
X144449286Y-101740000D03*
X120785000Y-115440000D03*
X84785000Y-98740000D03*
X164576667Y-70390000D03*
X88255238Y-70390000D03*
X129185000Y-101740000D03*
X93343333Y-70390000D03*
X180435000Y-98739999D03*
X235810000Y-70390000D03*
X80623095Y-124590000D03*
X118783810Y-70390000D03*
X213131429Y-101740000D03*
X174974286Y-101740000D03*
X172935000Y-98739999D03*
X90785000Y-98740000D03*
X162032619Y-70390000D03*
X195435000Y-98739999D03*
X117685000Y-114315000D03*
X177185000Y-104539999D03*
X90535000Y-104540000D03*
X111615000Y-121040000D03*
X111151667Y-124590000D03*
X235810000Y-73423333D03*
X210369524Y-70390000D03*
X75535000Y-93890000D03*
X139136190Y-124590000D03*
X197649286Y-124590000D03*
X75535000Y-73423333D03*
X75535000Y-81098333D03*
X182596905Y-101740000D03*
X145035000Y-104540000D03*
X225652857Y-83665000D03*
X141680238Y-124590000D03*
X106063571Y-70390000D03*
X172685000Y-104539999D03*
X225685000Y-104539999D03*
X136285000Y-98740000D03*
X85711190Y-70390000D03*
X226185000Y-123890000D03*
X75535000Y-116915000D03*
X113285000Y-98740000D03*
X128535000Y-104540000D03*
X235810000Y-111798333D03*
X174752857Y-124590000D03*
X179185000Y-104539999D03*
X90799286Y-124590000D03*
X209435000Y-98739999D03*
X96785000Y-111090000D03*
X146535000Y-104540000D03*
X128960000Y-124590000D03*
X107285000Y-98740000D03*
X96035000Y-111831667D03*
X134535000Y-104540000D03*
X187185000Y-104539999D03*
X190935000Y-98739999D03*
X218160000Y-116690000D03*
X187935000Y-98739999D03*
X203435000Y-98739999D03*
X121285000Y-98740000D03*
X214530000Y-113815000D03*
X98431429Y-70390000D03*
X87535000Y-104540000D03*
X110285000Y-98740000D03*
X197649286Y-70390000D03*
X125535000Y-104540000D03*
X189185000Y-104539999D03*
X116035000Y-104540000D03*
X166935000Y-98739999D03*
X124685000Y-121040000D03*
X102035000Y-104540000D03*
X122535000Y-104540000D03*
X215457619Y-124590000D03*
X204935000Y-98739999D03*
X233285000Y-104540000D03*
X195105238Y-70390000D03*
X233285000Y-99015000D03*
X220545714Y-70390000D03*
X180635000Y-108940000D03*
X95887381Y-91315000D03*
X166685000Y-104539999D03*
X88255238Y-83665000D03*
X235810000Y-99006667D03*
X80623095Y-70390000D03*
X217160000Y-117665000D03*
X146768333Y-70390000D03*
X83285000Y-98740000D03*
X235810000Y-104123333D03*
X203185000Y-104539999D03*
X133285000Y-98740000D03*
X233265952Y-124590000D03*
X127285000Y-98740000D03*
X194927500Y-117490000D03*
X96535000Y-104540000D03*
X197185000Y-104539999D03*
X220660000Y-109590000D03*
X174752857Y-70390000D03*
X103519524Y-75990000D03*
X93785000Y-98740000D03*
X171435000Y-98739999D03*
X228177857Y-124590000D03*
X174185000Y-104539999D03*
X168435000Y-98739999D03*
X200435000Y-98739999D03*
X125785000Y-98740000D03*
X215185000Y-104539999D03*
X164576667Y-124590000D03*
X100975476Y-124590000D03*
X145285000Y-98740000D03*
X207685000Y-104539999D03*
X206435000Y-98739999D03*
X225652857Y-75990000D03*
X114710000Y-122215000D03*
X111615000Y-115440000D03*
X215457619Y-70390000D03*
X141680238Y-70390000D03*
X75535000Y-88773333D03*
X159488571Y-70390000D03*
X222685000Y-104539999D03*
X169664762Y-70390000D03*
X217160000Y-115665000D03*
X80623095Y-101740000D03*
X95285000Y-98740000D03*
X83167143Y-70390000D03*
X80623095Y-83665000D03*
X99610000Y-114165000D03*
X184929048Y-124590000D03*
X105215000Y-118190000D03*
X233285000Y-83665000D03*
X151856429Y-124590000D03*
X108035000Y-104540000D03*
X90799286Y-70390000D03*
X175935000Y-98739999D03*
X167120714Y-70390000D03*
X121327857Y-70390000D03*
X114710000Y-114315000D03*
X223610000Y-118740000D03*
X228177857Y-70390000D03*
X168185000Y-104539999D03*
X187473095Y-70390000D03*
X130285000Y-98740000D03*
X100035000Y-104540000D03*
%TO.N,VIN9_15*%
X149093333Y-106940000D03*
X228243333Y-106940000D03*
X226760000Y-107690000D03*
X211105000Y-108865000D03*
X228985000Y-107690000D03*
X228985000Y-106940000D03*
X96785000Y-116331667D03*
X211105000Y-109640000D03*
X149835000Y-106940000D03*
X96785000Y-117073333D03*
X148351667Y-107690000D03*
X96035000Y-116331667D03*
X149835000Y-107690000D03*
X147610000Y-106940000D03*
X96035000Y-117073333D03*
X147610000Y-107690000D03*
X149093333Y-107690000D03*
X96785000Y-115590000D03*
X211105000Y-110415000D03*
X227501667Y-107690000D03*
X226760000Y-106940000D03*
X96785000Y-117815000D03*
X228243333Y-107690000D03*
X148351667Y-106940000D03*
X227501667Y-106940000D03*
X96035000Y-115590000D03*
X96035000Y-117815000D03*
%TO.N,+3V3*%
X178260000Y-119840000D03*
X222685000Y-120940000D03*
X194952500Y-111915000D03*
X198702500Y-111915000D03*
X213935000Y-116590000D03*
X230010000Y-121540000D03*
X192560000Y-119790000D03*
X211105000Y-113065000D03*
X211105000Y-112290000D03*
X216535000Y-111640000D03*
X213185000Y-116590000D03*
X211105000Y-113840000D03*
X216535000Y-112365000D03*
X175385000Y-119765000D03*
X161085000Y-119765000D03*
X213585000Y-120915000D03*
%TO.N,/UART.~{RXLED}*%
X217410000Y-124040000D03*
X216710000Y-113265000D03*
%TO.N,/UART.~{TXLED}*%
X218885000Y-124040000D03*
X217618414Y-113156586D03*
%TO.N,/SOM1/SE17*%
X192935000Y-96090000D03*
X97285000Y-96115000D03*
%TO.N,/SOM1/SE27*%
X104785000Y-96115000D03*
X185435000Y-96090000D03*
%TO.N,/SOM1/SE39*%
X176435000Y-96090000D03*
X113785000Y-96115000D03*
%TO.N,/SOM1/SE43*%
X116785000Y-96115000D03*
X173435000Y-96090000D03*
%TO.N,/SOM1/SE37*%
X177935000Y-96090000D03*
X112285000Y-96115000D03*
%TO.N,/SOM1/SE21*%
X100285000Y-96115000D03*
X189935000Y-96090000D03*
%TO.N,/SOM1/SE25*%
X186935000Y-96090000D03*
X103285000Y-96115000D03*
%TO.N,/SOM1/SE19*%
X191435000Y-96090000D03*
X98785000Y-96115000D03*
%TO.N,/SOM1/SE13*%
X195935000Y-96090000D03*
X94285000Y-96115000D03*
%TO.N,/SOM1/SE29*%
X106285000Y-96115000D03*
X183935000Y-96090000D03*
%TO.N,/SOM1/SE31*%
X107785000Y-96115000D03*
X182435000Y-96090000D03*
%TO.N,/SOM1/SE33*%
X109285000Y-96115000D03*
X180935000Y-96090000D03*
%TO.N,/SOM1/SE15*%
X95785000Y-96115000D03*
X194435000Y-96090000D03*
%TO.N,/SOM1/SE35*%
X179435000Y-96090000D03*
X110785000Y-96115000D03*
%TO.N,/SOM1/SE23*%
X188435000Y-96090000D03*
X101785000Y-96115000D03*
%TO.N,/SOM1/SE41*%
X174935000Y-96090000D03*
X115285000Y-96115000D03*
%TO.N,/LED1*%
X122035000Y-99090000D03*
X200552500Y-111915000D03*
%TO.N,/LED2*%
X196802500Y-111915000D03*
X121785000Y-96190000D03*
%TO.N,/BUTTON1*%
X123285000Y-96165000D03*
X160060000Y-108915000D03*
%TO.N,/BUTTON2*%
X177060000Y-108940000D03*
X123569456Y-99097772D03*
%TO.N,/SOM1.RESET_IN*%
X84035000Y-99265000D03*
X124485000Y-113540000D03*
%TO.N,/UART.RX*%
X215210000Y-120090000D03*
%TO.N,/UART.TX*%
X214860000Y-117415000D03*
%TO.N,/SOM1.UART_TX*%
X118285000Y-96165000D03*
%TO.N,/SOM1.UART_RX*%
X117035000Y-99115000D03*
%TO.N,/SOM2.UART_RX*%
X202935000Y-96190000D03*
%TO.N,/SOM2.UART_TX*%
X202685000Y-99340000D03*
%TD*%
%TA.AperFunction,Conductor*%
%TO.N,VIN9_15*%
G36*
X154886984Y-106258907D02*
G01*
X154915596Y-106295203D01*
X154915716Y-106295124D01*
X154916728Y-106296639D01*
X154920259Y-106301118D01*
X154921135Y-106303235D01*
X154945033Y-106339000D01*
X154965448Y-106369552D01*
X155031769Y-106413867D01*
X155076231Y-106422711D01*
X155090241Y-106425498D01*
X155090246Y-106425498D01*
X155090252Y-106425500D01*
X155090253Y-106425500D01*
X156829747Y-106425500D01*
X156829748Y-106425500D01*
X156888231Y-106413867D01*
X156954552Y-106369552D01*
X156998867Y-106303231D01*
X156998868Y-106303224D01*
X156999741Y-106301118D01*
X157002212Y-106298223D01*
X157004284Y-106295124D01*
X157004650Y-106295369D01*
X157039476Y-106254591D01*
X157091207Y-106240000D01*
X230786000Y-106240000D01*
X230844191Y-106258907D01*
X230880155Y-106308407D01*
X230885000Y-106339000D01*
X230885000Y-109962618D01*
X230866093Y-110020809D01*
X230816593Y-110056773D01*
X230755407Y-110056773D01*
X230705907Y-110020809D01*
X230703610Y-110017144D01*
X230703478Y-110017233D01*
X230624114Y-109898458D01*
X230526541Y-109800885D01*
X230411817Y-109724228D01*
X230411806Y-109724222D01*
X230284328Y-109671420D01*
X230148995Y-109644500D01*
X230148993Y-109644500D01*
X228911007Y-109644500D01*
X228911004Y-109644500D01*
X228775672Y-109671420D01*
X228775670Y-109671420D01*
X228648193Y-109724222D01*
X228648182Y-109724228D01*
X228533458Y-109800885D01*
X228435885Y-109898458D01*
X228359228Y-110013182D01*
X228359222Y-110013193D01*
X228306420Y-110140670D01*
X228306420Y-110140672D01*
X228279500Y-110276004D01*
X228279500Y-110415500D01*
X228260593Y-110473691D01*
X228211093Y-110509655D01*
X228180500Y-110514500D01*
X228094108Y-110514500D01*
X228016365Y-110535331D01*
X227966809Y-110548609D01*
X227852690Y-110614496D01*
X227759496Y-110707690D01*
X227693609Y-110821809D01*
X227674903Y-110891623D01*
X227641579Y-110942938D01*
X227584457Y-110964864D01*
X227579276Y-110965000D01*
X215928821Y-110965000D01*
X215870630Y-110946093D01*
X215867489Y-110943410D01*
X215867460Y-110943449D01*
X215862309Y-110939496D01*
X215748189Y-110873609D01*
X215748191Y-110873609D01*
X215698799Y-110860375D01*
X215620892Y-110839500D01*
X215489108Y-110839500D01*
X215411200Y-110860375D01*
X215361809Y-110873609D01*
X215247690Y-110939496D01*
X215242540Y-110943449D01*
X215240862Y-110941262D01*
X215196666Y-110963781D01*
X215181179Y-110965000D01*
X186508417Y-110965000D01*
X186450226Y-110946093D01*
X186428326Y-110924193D01*
X186325690Y-110782927D01*
X186192073Y-110649310D01*
X186039199Y-110538240D01*
X186039198Y-110538239D01*
X186039196Y-110538238D01*
X185870832Y-110452453D01*
X185691113Y-110394058D01*
X185504484Y-110364500D01*
X185504481Y-110364500D01*
X185315519Y-110364500D01*
X185315516Y-110364500D01*
X185128886Y-110394058D01*
X184949167Y-110452453D01*
X184780803Y-110538238D01*
X184662336Y-110624310D01*
X184627927Y-110649310D01*
X184494310Y-110782927D01*
X184391674Y-110924192D01*
X184342176Y-110960155D01*
X184311583Y-110965000D01*
X169350043Y-110965000D01*
X169291852Y-110946093D01*
X169264288Y-110913816D01*
X169263794Y-110914120D01*
X169261879Y-110910995D01*
X169261830Y-110910938D01*
X169261811Y-110910901D01*
X169261760Y-110910801D01*
X169150690Y-110757927D01*
X169017073Y-110624310D01*
X168864199Y-110513240D01*
X168864198Y-110513239D01*
X168864196Y-110513238D01*
X168695832Y-110427453D01*
X168516113Y-110369058D01*
X168329484Y-110339500D01*
X168329481Y-110339500D01*
X168140519Y-110339500D01*
X168140516Y-110339500D01*
X167953886Y-110369058D01*
X167774167Y-110427453D01*
X167605803Y-110513238D01*
X167452928Y-110624309D01*
X167319309Y-110757928D01*
X167208238Y-110910804D01*
X167208170Y-110910938D01*
X167208134Y-110910973D01*
X167206206Y-110914120D01*
X167205451Y-110913657D01*
X167164910Y-110954206D01*
X167119957Y-110965000D01*
X152125043Y-110965000D01*
X152066852Y-110946093D01*
X152039288Y-110913816D01*
X152038794Y-110914120D01*
X152036879Y-110910995D01*
X152036830Y-110910938D01*
X152036811Y-110910901D01*
X152036760Y-110910801D01*
X151925690Y-110757927D01*
X151792073Y-110624310D01*
X151639199Y-110513240D01*
X151639198Y-110513239D01*
X151639196Y-110513238D01*
X151470832Y-110427453D01*
X151291113Y-110369058D01*
X151104484Y-110339500D01*
X151104481Y-110339500D01*
X150915519Y-110339500D01*
X150915516Y-110339500D01*
X150728886Y-110369058D01*
X150549167Y-110427453D01*
X150380803Y-110513238D01*
X150227928Y-110624309D01*
X150094309Y-110757928D01*
X149983238Y-110910804D01*
X149983170Y-110910938D01*
X149983134Y-110910973D01*
X149981206Y-110914120D01*
X149980451Y-110913657D01*
X149939910Y-110954206D01*
X149894957Y-110965000D01*
X134950043Y-110965000D01*
X134891852Y-110946093D01*
X134864288Y-110913816D01*
X134863794Y-110914120D01*
X134861879Y-110910995D01*
X134861830Y-110910938D01*
X134861811Y-110910901D01*
X134861760Y-110910801D01*
X134750690Y-110757927D01*
X134617073Y-110624310D01*
X134464199Y-110513240D01*
X134464198Y-110513239D01*
X134464196Y-110513238D01*
X134295832Y-110427453D01*
X134116113Y-110369058D01*
X133929484Y-110339500D01*
X133929481Y-110339500D01*
X133740519Y-110339500D01*
X133740516Y-110339500D01*
X133553886Y-110369058D01*
X133374167Y-110427453D01*
X133205803Y-110513238D01*
X133052928Y-110624309D01*
X132919309Y-110757928D01*
X132808238Y-110910804D01*
X132808170Y-110910938D01*
X132808134Y-110910973D01*
X132806206Y-110914120D01*
X132805451Y-110913657D01*
X132764910Y-110954206D01*
X132719957Y-110965000D01*
X114343992Y-110965000D01*
X100942844Y-118507245D01*
X100907254Y-118527275D01*
X100858698Y-118540000D01*
X100162329Y-118540000D01*
X100104138Y-118521093D01*
X100068174Y-118471593D01*
X100068174Y-118410407D01*
X100076592Y-118391501D01*
X100081390Y-118383189D01*
X100081389Y-118383189D01*
X100081392Y-118383186D01*
X100115500Y-118255892D01*
X100115500Y-118124108D01*
X100081392Y-117996814D01*
X100081390Y-117996811D01*
X100081390Y-117996809D01*
X100015503Y-117882690D01*
X100015501Y-117882688D01*
X100015500Y-117882686D01*
X99922314Y-117789500D01*
X99922311Y-117789498D01*
X99922309Y-117789496D01*
X99808189Y-117723609D01*
X99808191Y-117723609D01*
X99758799Y-117710375D01*
X99680892Y-117689500D01*
X99549108Y-117689500D01*
X99471200Y-117710375D01*
X99421809Y-117723609D01*
X99307690Y-117789496D01*
X99214496Y-117882690D01*
X99148609Y-117996809D01*
X99148608Y-117996814D01*
X99114500Y-118124108D01*
X99114500Y-118255892D01*
X99143869Y-118365500D01*
X99148609Y-118383189D01*
X99153408Y-118391501D01*
X99166129Y-118451349D01*
X99141242Y-118507245D01*
X99088253Y-118537837D01*
X99067671Y-118540000D01*
X95559000Y-118540000D01*
X95500809Y-118521093D01*
X95464845Y-118471593D01*
X95460000Y-118441000D01*
X95460000Y-114099108D01*
X99109500Y-114099108D01*
X99109500Y-114230892D01*
X99136429Y-114331392D01*
X99143609Y-114358190D01*
X99209496Y-114472309D01*
X99209498Y-114472311D01*
X99209500Y-114472314D01*
X99302686Y-114565500D01*
X99302688Y-114565501D01*
X99302690Y-114565503D01*
X99416810Y-114631390D01*
X99416808Y-114631390D01*
X99416812Y-114631391D01*
X99416814Y-114631392D01*
X99544108Y-114665500D01*
X99544110Y-114665500D01*
X99675890Y-114665500D01*
X99675892Y-114665500D01*
X99803186Y-114631392D01*
X99803188Y-114631390D01*
X99803190Y-114631390D01*
X99917309Y-114565503D01*
X99917309Y-114565502D01*
X99917314Y-114565500D01*
X100010500Y-114472314D01*
X100066884Y-114374655D01*
X100076390Y-114358190D01*
X100076390Y-114358188D01*
X100076392Y-114358186D01*
X100110500Y-114230892D01*
X100110500Y-114099108D01*
X104709500Y-114099108D01*
X104709500Y-114230892D01*
X104736429Y-114331392D01*
X104743609Y-114358190D01*
X104809496Y-114472309D01*
X104809498Y-114472311D01*
X104809500Y-114472314D01*
X104902686Y-114565500D01*
X104902688Y-114565501D01*
X104902690Y-114565503D01*
X105016810Y-114631390D01*
X105016808Y-114631390D01*
X105016812Y-114631391D01*
X105016814Y-114631392D01*
X105144108Y-114665500D01*
X105144110Y-114665500D01*
X105275890Y-114665500D01*
X105275892Y-114665500D01*
X105403186Y-114631392D01*
X105403188Y-114631390D01*
X105403190Y-114631390D01*
X105517309Y-114565503D01*
X105517309Y-114565502D01*
X105517314Y-114565500D01*
X105610500Y-114472314D01*
X105666884Y-114374655D01*
X105676390Y-114358190D01*
X105676390Y-114358188D01*
X105676392Y-114358186D01*
X105710500Y-114230892D01*
X105710500Y-114099108D01*
X105676392Y-113971814D01*
X105676390Y-113971811D01*
X105676390Y-113971809D01*
X105610503Y-113857690D01*
X105610501Y-113857688D01*
X105610500Y-113857686D01*
X105517314Y-113764500D01*
X105517311Y-113764498D01*
X105517309Y-113764496D01*
X105403189Y-113698609D01*
X105403191Y-113698609D01*
X105353799Y-113685375D01*
X105275892Y-113664500D01*
X105144108Y-113664500D01*
X105066200Y-113685375D01*
X105016809Y-113698609D01*
X104902690Y-113764496D01*
X104809496Y-113857690D01*
X104743609Y-113971809D01*
X104743608Y-113971814D01*
X104709500Y-114099108D01*
X100110500Y-114099108D01*
X100076392Y-113971814D01*
X100076390Y-113971811D01*
X100076390Y-113971809D01*
X100010503Y-113857690D01*
X100010501Y-113857688D01*
X100010500Y-113857686D01*
X99917314Y-113764500D01*
X99917311Y-113764498D01*
X99917309Y-113764496D01*
X99803189Y-113698609D01*
X99803191Y-113698609D01*
X99753799Y-113685375D01*
X99675892Y-113664500D01*
X99544108Y-113664500D01*
X99466200Y-113685375D01*
X99416809Y-113698609D01*
X99302690Y-113764496D01*
X99209496Y-113857690D01*
X99143609Y-113971809D01*
X99143608Y-113971814D01*
X99109500Y-114099108D01*
X95460000Y-114099108D01*
X95460000Y-114014000D01*
X95478907Y-113955809D01*
X95528407Y-113919845D01*
X95559000Y-113915000D01*
X97525872Y-113915000D01*
X97525874Y-113915000D01*
X105327662Y-109524108D01*
X216934500Y-109524108D01*
X216934500Y-109655892D01*
X216964579Y-109768151D01*
X216968609Y-109783190D01*
X217034496Y-109897309D01*
X217034498Y-109897311D01*
X217034500Y-109897314D01*
X217127686Y-109990500D01*
X217127688Y-109990501D01*
X217127690Y-109990503D01*
X217241810Y-110056390D01*
X217241808Y-110056390D01*
X217241812Y-110056391D01*
X217241814Y-110056392D01*
X217369108Y-110090500D01*
X217369110Y-110090500D01*
X217500890Y-110090500D01*
X217500892Y-110090500D01*
X217628186Y-110056392D01*
X217628188Y-110056390D01*
X217628190Y-110056390D01*
X217742309Y-109990503D01*
X217742309Y-109990502D01*
X217742314Y-109990500D01*
X217835500Y-109897314D01*
X217891173Y-109800886D01*
X217901390Y-109783190D01*
X217901390Y-109783188D01*
X217901392Y-109783186D01*
X217935500Y-109655892D01*
X217935500Y-109524108D01*
X218409500Y-109524108D01*
X218409500Y-109655892D01*
X218439579Y-109768151D01*
X218443609Y-109783190D01*
X218509496Y-109897309D01*
X218509498Y-109897311D01*
X218509500Y-109897314D01*
X218602686Y-109990500D01*
X218602688Y-109990501D01*
X218602690Y-109990503D01*
X218716810Y-110056390D01*
X218716808Y-110056390D01*
X218716812Y-110056391D01*
X218716814Y-110056392D01*
X218844108Y-110090500D01*
X218844110Y-110090500D01*
X218975890Y-110090500D01*
X218975892Y-110090500D01*
X219103186Y-110056392D01*
X219103188Y-110056390D01*
X219103190Y-110056390D01*
X219217309Y-109990503D01*
X219217309Y-109990502D01*
X219217314Y-109990500D01*
X219310500Y-109897314D01*
X219366173Y-109800886D01*
X219376390Y-109783190D01*
X219376390Y-109783188D01*
X219376392Y-109783186D01*
X219410500Y-109655892D01*
X219410500Y-109524108D01*
X220159500Y-109524108D01*
X220159500Y-109655892D01*
X220189579Y-109768151D01*
X220193609Y-109783190D01*
X220259496Y-109897309D01*
X220259498Y-109897311D01*
X220259500Y-109897314D01*
X220352686Y-109990500D01*
X220352688Y-109990501D01*
X220352690Y-109990503D01*
X220466810Y-110056390D01*
X220466808Y-110056390D01*
X220466812Y-110056391D01*
X220466814Y-110056392D01*
X220594108Y-110090500D01*
X220594110Y-110090500D01*
X220725890Y-110090500D01*
X220725892Y-110090500D01*
X220853186Y-110056392D01*
X220853188Y-110056390D01*
X220853190Y-110056390D01*
X220967309Y-109990503D01*
X220967309Y-109990502D01*
X220967314Y-109990500D01*
X221060500Y-109897314D01*
X221116173Y-109800886D01*
X221126390Y-109783190D01*
X221126390Y-109783188D01*
X221126392Y-109783186D01*
X221160500Y-109655892D01*
X221160500Y-109524108D01*
X221634500Y-109524108D01*
X221634500Y-109655892D01*
X221664579Y-109768151D01*
X221668609Y-109783190D01*
X221734496Y-109897309D01*
X221734498Y-109897311D01*
X221734500Y-109897314D01*
X221827686Y-109990500D01*
X221827688Y-109990501D01*
X221827690Y-109990503D01*
X221941810Y-110056390D01*
X221941808Y-110056390D01*
X221941812Y-110056391D01*
X221941814Y-110056392D01*
X222069108Y-110090500D01*
X222069110Y-110090500D01*
X222200890Y-110090500D01*
X222200892Y-110090500D01*
X222328186Y-110056392D01*
X222328188Y-110056390D01*
X222328190Y-110056390D01*
X222442309Y-109990503D01*
X222442309Y-109990502D01*
X222442314Y-109990500D01*
X222535500Y-109897314D01*
X222591173Y-109800886D01*
X222601390Y-109783190D01*
X222601390Y-109783188D01*
X222601392Y-109783186D01*
X222635500Y-109655892D01*
X222635500Y-109524108D01*
X222601392Y-109396814D01*
X222601390Y-109396811D01*
X222601390Y-109396809D01*
X222535503Y-109282690D01*
X222535501Y-109282688D01*
X222535500Y-109282686D01*
X222442314Y-109189500D01*
X222442311Y-109189498D01*
X222442309Y-109189496D01*
X222328189Y-109123609D01*
X222328191Y-109123609D01*
X222278799Y-109110375D01*
X222200892Y-109089500D01*
X222069108Y-109089500D01*
X221991200Y-109110375D01*
X221941809Y-109123609D01*
X221827690Y-109189496D01*
X221734496Y-109282690D01*
X221668609Y-109396809D01*
X221656902Y-109440500D01*
X221634500Y-109524108D01*
X221160500Y-109524108D01*
X221126392Y-109396814D01*
X221126390Y-109396811D01*
X221126390Y-109396809D01*
X221060503Y-109282690D01*
X221060501Y-109282688D01*
X221060500Y-109282686D01*
X220967314Y-109189500D01*
X220967311Y-109189498D01*
X220967309Y-109189496D01*
X220853189Y-109123609D01*
X220853191Y-109123609D01*
X220803799Y-109110375D01*
X220725892Y-109089500D01*
X220594108Y-109089500D01*
X220516200Y-109110375D01*
X220466809Y-109123609D01*
X220352690Y-109189496D01*
X220259496Y-109282690D01*
X220193609Y-109396809D01*
X220181902Y-109440500D01*
X220159500Y-109524108D01*
X219410500Y-109524108D01*
X219376392Y-109396814D01*
X219376390Y-109396811D01*
X219376390Y-109396809D01*
X219310503Y-109282690D01*
X219310501Y-109282688D01*
X219310500Y-109282686D01*
X219217314Y-109189500D01*
X219217311Y-109189498D01*
X219217309Y-109189496D01*
X219103189Y-109123609D01*
X219103191Y-109123609D01*
X219053799Y-109110375D01*
X218975892Y-109089500D01*
X218844108Y-109089500D01*
X218766200Y-109110375D01*
X218716809Y-109123609D01*
X218602690Y-109189496D01*
X218509496Y-109282690D01*
X218443609Y-109396809D01*
X218431902Y-109440500D01*
X218409500Y-109524108D01*
X217935500Y-109524108D01*
X217901392Y-109396814D01*
X217901390Y-109396811D01*
X217901390Y-109396809D01*
X217835503Y-109282690D01*
X217835501Y-109282688D01*
X217835500Y-109282686D01*
X217742314Y-109189500D01*
X217742311Y-109189498D01*
X217742309Y-109189496D01*
X217628189Y-109123609D01*
X217628191Y-109123609D01*
X217578799Y-109110375D01*
X217500892Y-109089500D01*
X217369108Y-109089500D01*
X217291200Y-109110375D01*
X217241809Y-109123609D01*
X217127690Y-109189496D01*
X217034496Y-109282690D01*
X216968609Y-109396809D01*
X216956902Y-109440500D01*
X216934500Y-109524108D01*
X105327662Y-109524108D01*
X106527008Y-108849109D01*
X106527010Y-108849108D01*
X159559500Y-108849108D01*
X159559500Y-108980892D01*
X159566199Y-109005892D01*
X159593609Y-109108190D01*
X159659496Y-109222309D01*
X159659498Y-109222311D01*
X159659500Y-109222314D01*
X159752686Y-109315500D01*
X159752688Y-109315501D01*
X159752690Y-109315503D01*
X159866810Y-109381390D01*
X159866808Y-109381390D01*
X159866812Y-109381391D01*
X159866814Y-109381392D01*
X159994108Y-109415500D01*
X159994110Y-109415500D01*
X160125890Y-109415500D01*
X160125892Y-109415500D01*
X160253186Y-109381392D01*
X160253188Y-109381390D01*
X160253190Y-109381390D01*
X160367309Y-109315503D01*
X160367309Y-109315502D01*
X160367314Y-109315500D01*
X160460500Y-109222314D01*
X160526392Y-109108186D01*
X160560500Y-108980892D01*
X160560500Y-108849108D01*
X162984500Y-108849108D01*
X162984500Y-108980892D01*
X162991199Y-109005892D01*
X163018609Y-109108190D01*
X163084496Y-109222309D01*
X163084498Y-109222311D01*
X163084500Y-109222314D01*
X163177686Y-109315500D01*
X163177688Y-109315501D01*
X163177690Y-109315503D01*
X163291810Y-109381390D01*
X163291808Y-109381390D01*
X163291812Y-109381391D01*
X163291814Y-109381392D01*
X163419108Y-109415500D01*
X163419110Y-109415500D01*
X163550890Y-109415500D01*
X163550892Y-109415500D01*
X163678186Y-109381392D01*
X163678188Y-109381390D01*
X163678190Y-109381390D01*
X163792309Y-109315503D01*
X163792309Y-109315502D01*
X163792314Y-109315500D01*
X163885500Y-109222314D01*
X163951392Y-109108186D01*
X163985500Y-108980892D01*
X163985500Y-108874108D01*
X176559500Y-108874108D01*
X176559500Y-109005892D01*
X176586909Y-109108186D01*
X176593609Y-109133190D01*
X176659496Y-109247309D01*
X176659498Y-109247311D01*
X176659500Y-109247314D01*
X176752686Y-109340500D01*
X176752688Y-109340501D01*
X176752690Y-109340503D01*
X176866810Y-109406390D01*
X176866808Y-109406390D01*
X176866812Y-109406391D01*
X176866814Y-109406392D01*
X176994108Y-109440500D01*
X176994110Y-109440500D01*
X177125890Y-109440500D01*
X177125892Y-109440500D01*
X177253186Y-109406392D01*
X177253188Y-109406390D01*
X177253190Y-109406390D01*
X177367309Y-109340503D01*
X177367309Y-109340502D01*
X177367314Y-109340500D01*
X177460500Y-109247314D01*
X177489368Y-109197314D01*
X177526390Y-109133190D01*
X177526390Y-109133188D01*
X177526392Y-109133186D01*
X177560500Y-109005892D01*
X177560500Y-108874108D01*
X180134500Y-108874108D01*
X180134500Y-109005892D01*
X180161909Y-109108186D01*
X180168609Y-109133190D01*
X180234496Y-109247309D01*
X180234498Y-109247311D01*
X180234500Y-109247314D01*
X180327686Y-109340500D01*
X180327688Y-109340501D01*
X180327690Y-109340503D01*
X180441810Y-109406390D01*
X180441808Y-109406390D01*
X180441812Y-109406391D01*
X180441814Y-109406392D01*
X180569108Y-109440500D01*
X180569110Y-109440500D01*
X180700890Y-109440500D01*
X180700892Y-109440500D01*
X180828186Y-109406392D01*
X180828188Y-109406390D01*
X180828190Y-109406390D01*
X180942309Y-109340503D01*
X180942309Y-109340502D01*
X180942314Y-109340500D01*
X181035500Y-109247314D01*
X181064368Y-109197314D01*
X181101390Y-109133190D01*
X181101390Y-109133188D01*
X181101392Y-109133186D01*
X181135500Y-109005892D01*
X181135500Y-108874108D01*
X181122103Y-108824108D01*
X214029500Y-108824108D01*
X214029500Y-108955892D01*
X214059579Y-109068151D01*
X214063609Y-109083190D01*
X214129496Y-109197309D01*
X214129498Y-109197311D01*
X214129500Y-109197314D01*
X214222686Y-109290500D01*
X214222688Y-109290501D01*
X214222690Y-109290503D01*
X214336810Y-109356390D01*
X214336808Y-109356390D01*
X214336812Y-109356391D01*
X214336814Y-109356392D01*
X214464108Y-109390500D01*
X214464110Y-109390500D01*
X214595890Y-109390500D01*
X214595892Y-109390500D01*
X214723186Y-109356392D01*
X214723188Y-109356390D01*
X214723190Y-109356390D01*
X214837309Y-109290503D01*
X214837309Y-109290502D01*
X214837314Y-109290500D01*
X214930500Y-109197314D01*
X214930503Y-109197309D01*
X214996390Y-109083190D01*
X214996390Y-109083188D01*
X214996392Y-109083186D01*
X215030500Y-108955892D01*
X215030500Y-108824108D01*
X214996392Y-108696814D01*
X214996390Y-108696811D01*
X214996390Y-108696809D01*
X214930503Y-108582690D01*
X214930501Y-108582688D01*
X214930500Y-108582686D01*
X214837314Y-108489500D01*
X214837311Y-108489498D01*
X214837309Y-108489496D01*
X214723189Y-108423609D01*
X214723191Y-108423609D01*
X214673799Y-108410375D01*
X214595892Y-108389500D01*
X214464108Y-108389500D01*
X214386200Y-108410375D01*
X214336809Y-108423609D01*
X214222690Y-108489496D01*
X214129496Y-108582690D01*
X214063609Y-108696809D01*
X214056909Y-108721814D01*
X214029500Y-108824108D01*
X181122103Y-108824108D01*
X181101392Y-108746814D01*
X181101390Y-108746811D01*
X181101390Y-108746809D01*
X181035503Y-108632690D01*
X181035501Y-108632688D01*
X181035500Y-108632686D01*
X180942314Y-108539500D01*
X180942311Y-108539498D01*
X180942309Y-108539496D01*
X180828189Y-108473609D01*
X180828191Y-108473609D01*
X180778799Y-108460375D01*
X180700892Y-108439500D01*
X180569108Y-108439500D01*
X180491200Y-108460375D01*
X180441809Y-108473609D01*
X180327690Y-108539496D01*
X180234496Y-108632690D01*
X180168609Y-108746809D01*
X180168608Y-108746814D01*
X180134500Y-108874108D01*
X177560500Y-108874108D01*
X177526392Y-108746814D01*
X177526390Y-108746811D01*
X177526390Y-108746809D01*
X177460503Y-108632690D01*
X177460501Y-108632688D01*
X177460500Y-108632686D01*
X177367314Y-108539500D01*
X177367311Y-108539498D01*
X177367309Y-108539496D01*
X177253189Y-108473609D01*
X177253191Y-108473609D01*
X177203799Y-108460375D01*
X177125892Y-108439500D01*
X176994108Y-108439500D01*
X176916200Y-108460375D01*
X176866809Y-108473609D01*
X176752690Y-108539496D01*
X176659496Y-108632690D01*
X176593609Y-108746809D01*
X176593608Y-108746814D01*
X176559500Y-108874108D01*
X163985500Y-108874108D01*
X163985500Y-108849108D01*
X163951392Y-108721814D01*
X163951390Y-108721811D01*
X163951390Y-108721809D01*
X163885503Y-108607690D01*
X163885501Y-108607688D01*
X163885500Y-108607686D01*
X163792314Y-108514500D01*
X163792311Y-108514498D01*
X163792309Y-108514496D01*
X163678189Y-108448609D01*
X163678191Y-108448609D01*
X163628799Y-108435375D01*
X163550892Y-108414500D01*
X163419108Y-108414500D01*
X163341200Y-108435375D01*
X163291809Y-108448609D01*
X163177690Y-108514496D01*
X163084496Y-108607690D01*
X163018609Y-108721809D01*
X163011909Y-108746814D01*
X162984500Y-108849108D01*
X160560500Y-108849108D01*
X160526392Y-108721814D01*
X160526390Y-108721811D01*
X160526390Y-108721809D01*
X160460503Y-108607690D01*
X160460501Y-108607688D01*
X160460500Y-108607686D01*
X160367314Y-108514500D01*
X160367311Y-108514498D01*
X160367309Y-108514496D01*
X160253189Y-108448609D01*
X160253191Y-108448609D01*
X160203799Y-108435375D01*
X160125892Y-108414500D01*
X159994108Y-108414500D01*
X159916200Y-108435375D01*
X159866809Y-108448609D01*
X159752690Y-108514496D01*
X159659496Y-108607690D01*
X159593609Y-108721809D01*
X159586909Y-108746814D01*
X159559500Y-108849108D01*
X106527010Y-108849108D01*
X106691834Y-108756344D01*
X111129309Y-106258907D01*
X111140293Y-106252724D01*
X111188849Y-106240000D01*
X154828793Y-106240000D01*
X154886984Y-106258907D01*
G37*
%TD.AperFunction*%
%TD*%
%TA.AperFunction,Conductor*%
%TO.N,+3V3*%
G36*
X149784327Y-111258907D02*
G01*
X149820291Y-111308407D01*
X149823917Y-111354486D01*
X149809500Y-111445514D01*
X149809500Y-111634484D01*
X149839058Y-111821113D01*
X149897453Y-112000832D01*
X149946791Y-112097665D01*
X149983240Y-112169199D01*
X150094310Y-112322073D01*
X150227927Y-112455690D01*
X150380801Y-112566760D01*
X150549168Y-112652547D01*
X150728882Y-112710940D01*
X150728883Y-112710940D01*
X150728886Y-112710941D01*
X150915516Y-112740500D01*
X150915519Y-112740500D01*
X151104484Y-112740500D01*
X151291113Y-112710941D01*
X151291114Y-112710940D01*
X151291118Y-112710940D01*
X151470832Y-112652547D01*
X151639199Y-112566760D01*
X151792073Y-112455690D01*
X151925690Y-112322073D01*
X152036760Y-112169199D01*
X152122547Y-112000832D01*
X152180940Y-111821118D01*
X152180941Y-111821113D01*
X152210500Y-111634484D01*
X152210500Y-111445514D01*
X152196083Y-111354486D01*
X152205655Y-111294054D01*
X152248919Y-111250790D01*
X152293864Y-111240000D01*
X166951136Y-111240000D01*
X167009327Y-111258907D01*
X167045291Y-111308407D01*
X167048917Y-111354486D01*
X167034500Y-111445514D01*
X167034500Y-111634484D01*
X167064058Y-111821113D01*
X167122453Y-112000832D01*
X167171791Y-112097665D01*
X167208240Y-112169199D01*
X167319310Y-112322073D01*
X167452927Y-112455690D01*
X167605801Y-112566760D01*
X167774168Y-112652547D01*
X167953882Y-112710940D01*
X167953883Y-112710940D01*
X167953886Y-112710941D01*
X168140516Y-112740500D01*
X168140519Y-112740500D01*
X168329484Y-112740500D01*
X168516113Y-112710941D01*
X168516114Y-112710940D01*
X168516118Y-112710940D01*
X168695832Y-112652547D01*
X168864199Y-112566760D01*
X169017073Y-112455690D01*
X169150690Y-112322073D01*
X169261760Y-112169199D01*
X169347547Y-112000832D01*
X169405940Y-111821118D01*
X169405941Y-111821113D01*
X169435500Y-111634484D01*
X169435500Y-111445514D01*
X169421083Y-111354486D01*
X169430655Y-111294054D01*
X169473919Y-111250790D01*
X169518864Y-111240000D01*
X184130096Y-111240000D01*
X184188287Y-111258907D01*
X184224251Y-111308407D01*
X184227877Y-111354487D01*
X184209500Y-111470515D01*
X184209500Y-111659484D01*
X184239058Y-111846113D01*
X184297453Y-112025832D01*
X184334053Y-112097665D01*
X184383240Y-112194199D01*
X184494310Y-112347073D01*
X184627927Y-112480690D01*
X184780801Y-112591760D01*
X184949168Y-112677547D01*
X185128882Y-112735940D01*
X185128883Y-112735940D01*
X185128886Y-112735941D01*
X185315516Y-112765500D01*
X185315519Y-112765500D01*
X185504484Y-112765500D01*
X185691113Y-112735941D01*
X185691114Y-112735940D01*
X185691118Y-112735940D01*
X185870832Y-112677547D01*
X186039199Y-112591760D01*
X186192073Y-112480690D01*
X186325690Y-112347073D01*
X186436760Y-112194199D01*
X186522547Y-112025832D01*
X186580940Y-111846118D01*
X186580941Y-111846113D01*
X186610500Y-111659484D01*
X186610500Y-111470515D01*
X186592123Y-111354487D01*
X186601694Y-111294055D01*
X186644959Y-111250790D01*
X186689904Y-111240000D01*
X196635871Y-111240000D01*
X196694062Y-111258907D01*
X196730026Y-111308407D01*
X196730026Y-111369593D01*
X196694062Y-111419093D01*
X196661496Y-111434625D01*
X196631593Y-111442638D01*
X196609309Y-111448609D01*
X196495190Y-111514496D01*
X196401996Y-111607690D01*
X196336109Y-111721809D01*
X196336108Y-111721814D01*
X196302000Y-111849108D01*
X196302000Y-111980892D01*
X196307343Y-112000832D01*
X196336109Y-112108190D01*
X196401996Y-112222309D01*
X196401998Y-112222311D01*
X196402000Y-112222314D01*
X196495186Y-112315500D01*
X196495188Y-112315501D01*
X196495190Y-112315503D01*
X196609310Y-112381390D01*
X196609308Y-112381390D01*
X196609312Y-112381391D01*
X196609314Y-112381392D01*
X196736608Y-112415500D01*
X196736610Y-112415500D01*
X196868390Y-112415500D01*
X196868392Y-112415500D01*
X196995686Y-112381392D01*
X196995688Y-112381390D01*
X196995690Y-112381390D01*
X197109809Y-112315503D01*
X197109809Y-112315502D01*
X197109814Y-112315500D01*
X197203000Y-112222314D01*
X197268892Y-112108186D01*
X197303000Y-111980892D01*
X197303000Y-111849108D01*
X197268892Y-111721814D01*
X197268890Y-111721811D01*
X197268890Y-111721809D01*
X197203003Y-111607690D01*
X197203001Y-111607688D01*
X197203000Y-111607686D01*
X197109814Y-111514500D01*
X197109811Y-111514498D01*
X197109809Y-111514496D01*
X196995689Y-111448609D01*
X196995691Y-111448609D01*
X196973406Y-111442638D01*
X196943504Y-111434626D01*
X196892192Y-111401303D01*
X196870265Y-111344181D01*
X196886101Y-111285081D01*
X196933650Y-111246576D01*
X196969129Y-111240000D01*
X200385871Y-111240000D01*
X200444062Y-111258907D01*
X200480026Y-111308407D01*
X200480026Y-111369593D01*
X200444062Y-111419093D01*
X200411496Y-111434625D01*
X200381593Y-111442638D01*
X200359309Y-111448609D01*
X200245190Y-111514496D01*
X200151996Y-111607690D01*
X200086109Y-111721809D01*
X200086108Y-111721814D01*
X200052000Y-111849108D01*
X200052000Y-111980892D01*
X200057343Y-112000832D01*
X200086109Y-112108190D01*
X200151996Y-112222309D01*
X200151998Y-112222311D01*
X200152000Y-112222314D01*
X200245186Y-112315500D01*
X200245188Y-112315501D01*
X200245190Y-112315503D01*
X200359310Y-112381390D01*
X200359308Y-112381390D01*
X200359312Y-112381391D01*
X200359314Y-112381392D01*
X200486608Y-112415500D01*
X200486610Y-112415500D01*
X200618390Y-112415500D01*
X200618392Y-112415500D01*
X200745686Y-112381392D01*
X200745688Y-112381390D01*
X200745690Y-112381390D01*
X200859809Y-112315503D01*
X200859809Y-112315502D01*
X200859814Y-112315500D01*
X200953000Y-112222314D01*
X201018892Y-112108186D01*
X201053000Y-111980892D01*
X201053000Y-111849108D01*
X201018892Y-111721814D01*
X201018890Y-111721811D01*
X201018890Y-111721809D01*
X200953003Y-111607690D01*
X200953001Y-111607688D01*
X200953000Y-111607686D01*
X200859814Y-111514500D01*
X200859811Y-111514498D01*
X200859809Y-111514496D01*
X200745689Y-111448609D01*
X200745691Y-111448609D01*
X200723406Y-111442638D01*
X200693504Y-111434626D01*
X200642192Y-111401303D01*
X200620265Y-111344181D01*
X200636101Y-111285081D01*
X200683650Y-111246576D01*
X200719129Y-111240000D01*
X214955500Y-111240000D01*
X215013691Y-111258907D01*
X215049655Y-111308407D01*
X215054500Y-111339000D01*
X215054500Y-111405892D01*
X215074730Y-111481392D01*
X215088609Y-111533190D01*
X215154496Y-111647309D01*
X215154498Y-111647311D01*
X215154500Y-111647314D01*
X215247686Y-111740500D01*
X215247688Y-111740501D01*
X215247690Y-111740503D01*
X215361810Y-111806390D01*
X215361808Y-111806390D01*
X215361812Y-111806391D01*
X215361814Y-111806392D01*
X215489108Y-111840500D01*
X215489110Y-111840500D01*
X215620890Y-111840500D01*
X215620892Y-111840500D01*
X215748186Y-111806392D01*
X215748188Y-111806390D01*
X215748190Y-111806390D01*
X215862309Y-111740503D01*
X215862309Y-111740502D01*
X215862314Y-111740500D01*
X215955500Y-111647314D01*
X215955503Y-111647309D01*
X216021390Y-111533190D01*
X216021390Y-111533188D01*
X216021392Y-111533186D01*
X216055500Y-111405892D01*
X216055500Y-111339000D01*
X216074407Y-111280809D01*
X216123907Y-111244845D01*
X216154500Y-111240000D01*
X227654818Y-111240000D01*
X227713009Y-111258907D01*
X227740554Y-111289499D01*
X227751293Y-111308099D01*
X227759500Y-111322314D01*
X227852686Y-111415500D01*
X227852688Y-111415501D01*
X227852690Y-111415503D01*
X227966810Y-111481390D01*
X227966808Y-111481390D01*
X227966812Y-111481391D01*
X227966814Y-111481392D01*
X228094108Y-111515500D01*
X228094110Y-111515500D01*
X228225890Y-111515500D01*
X228225892Y-111515500D01*
X228353186Y-111481392D01*
X228353188Y-111481390D01*
X228353190Y-111481390D01*
X228467309Y-111415503D01*
X228467309Y-111415502D01*
X228467314Y-111415500D01*
X228560500Y-111322314D01*
X228579446Y-111289499D01*
X228624916Y-111248558D01*
X228665182Y-111240000D01*
X229582823Y-111240000D01*
X229641014Y-111258907D01*
X229676978Y-111308407D01*
X229676978Y-111369593D01*
X229652828Y-111409001D01*
X229609495Y-111452335D01*
X229540312Y-111572164D01*
X229504500Y-111705817D01*
X229504500Y-111844183D01*
X229540312Y-111977836D01*
X229609495Y-112097665D01*
X229707335Y-112195505D01*
X229827164Y-112264688D01*
X229960817Y-112300500D01*
X229960819Y-112300500D01*
X230099181Y-112300500D01*
X230099183Y-112300500D01*
X230232836Y-112264688D01*
X230352665Y-112195505D01*
X230450505Y-112097665D01*
X230519688Y-111977836D01*
X230555500Y-111844183D01*
X230555500Y-111705817D01*
X230519688Y-111572164D01*
X230450505Y-111452335D01*
X230407171Y-111409001D01*
X230379396Y-111354487D01*
X230388967Y-111294055D01*
X230432232Y-111250790D01*
X230477177Y-111240000D01*
X230786000Y-111240000D01*
X230844191Y-111258907D01*
X230880155Y-111308407D01*
X230885000Y-111339000D01*
X230885000Y-118602618D01*
X230866093Y-118660809D01*
X230816593Y-118696773D01*
X230755407Y-118696773D01*
X230705907Y-118660809D01*
X230703610Y-118657144D01*
X230703478Y-118657233D01*
X230624114Y-118538458D01*
X230526541Y-118440885D01*
X230411817Y-118364228D01*
X230411806Y-118364222D01*
X230284328Y-118311420D01*
X230148995Y-118284500D01*
X230148993Y-118284500D01*
X228911007Y-118284500D01*
X228911004Y-118284500D01*
X228775672Y-118311420D01*
X228775670Y-118311420D01*
X228648193Y-118364222D01*
X228648182Y-118364228D01*
X228533458Y-118440885D01*
X228435885Y-118538458D01*
X228359228Y-118653182D01*
X228359222Y-118653193D01*
X228306420Y-118780670D01*
X228306420Y-118780672D01*
X228279500Y-118916004D01*
X228279500Y-119053995D01*
X228306420Y-119189327D01*
X228306420Y-119189329D01*
X228359222Y-119316806D01*
X228359228Y-119316817D01*
X228435885Y-119431541D01*
X228533458Y-119529114D01*
X228648182Y-119605771D01*
X228648193Y-119605777D01*
X228691242Y-119623608D01*
X228775672Y-119658580D01*
X228911007Y-119685500D01*
X228911008Y-119685500D01*
X230148992Y-119685500D01*
X230148993Y-119685500D01*
X230284328Y-119658580D01*
X230411811Y-119605775D01*
X230526542Y-119529114D01*
X230624114Y-119431542D01*
X230685615Y-119339500D01*
X230703478Y-119312767D01*
X230705542Y-119314146D01*
X230742726Y-119278340D01*
X230803328Y-119269909D01*
X230857311Y-119298710D01*
X230884056Y-119353740D01*
X230885000Y-119367381D01*
X230885000Y-123990500D01*
X230866093Y-124048691D01*
X230816593Y-124084655D01*
X230786000Y-124089500D01*
X230656013Y-124089500D01*
X230594837Y-124105892D01*
X230528714Y-124123609D01*
X230414595Y-124189496D01*
X230321401Y-124282690D01*
X230255514Y-124396809D01*
X230221405Y-124524109D01*
X230221405Y-124566000D01*
X230202498Y-124624191D01*
X230152998Y-124660155D01*
X230122405Y-124665000D01*
X228777357Y-124665000D01*
X228719166Y-124646093D01*
X228683202Y-124596593D01*
X228678357Y-124566000D01*
X228678357Y-124524109D01*
X228673610Y-124506392D01*
X228644249Y-124396814D01*
X228644247Y-124396811D01*
X228644247Y-124396809D01*
X228578360Y-124282690D01*
X228578358Y-124282688D01*
X228578357Y-124282686D01*
X228485171Y-124189500D01*
X228485168Y-124189498D01*
X228485166Y-124189496D01*
X228371046Y-124123609D01*
X228371048Y-124123609D01*
X228304925Y-124105892D01*
X228243749Y-124089500D01*
X228111965Y-124089500D01*
X228050789Y-124105892D01*
X227984666Y-124123609D01*
X227870547Y-124189496D01*
X227777353Y-124282690D01*
X227711466Y-124396809D01*
X227677357Y-124524109D01*
X227677357Y-124566000D01*
X227658450Y-124624191D01*
X227608950Y-124660155D01*
X227578357Y-124665000D01*
X226233310Y-124665000D01*
X226221881Y-124661286D01*
X226209899Y-124662192D01*
X226193475Y-124652057D01*
X226175119Y-124646093D01*
X226168055Y-124636371D01*
X226157830Y-124630061D01*
X226152067Y-124614365D01*
X226139155Y-124596593D01*
X226134591Y-124573460D01*
X226134310Y-124569741D01*
X226134310Y-124524108D01*
X226129506Y-124506182D01*
X226128810Y-124496960D01*
X226133964Y-124475782D01*
X226135105Y-124454021D01*
X226141046Y-124446684D01*
X226143279Y-124437510D01*
X226159896Y-124423406D01*
X226173610Y-124406472D01*
X226183194Y-124403632D01*
X226189928Y-124397918D01*
X226206787Y-124396644D01*
X226227529Y-124390500D01*
X226250890Y-124390500D01*
X226250892Y-124390500D01*
X226378186Y-124356392D01*
X226378188Y-124356390D01*
X226378190Y-124356390D01*
X226492309Y-124290503D01*
X226492309Y-124290502D01*
X226492314Y-124290500D01*
X226585500Y-124197314D01*
X226585503Y-124197309D01*
X226651390Y-124083190D01*
X226651390Y-124083188D01*
X226651392Y-124083186D01*
X226685500Y-123955892D01*
X226685500Y-123824108D01*
X226651392Y-123696814D01*
X226651390Y-123696811D01*
X226651390Y-123696809D01*
X226585503Y-123582690D01*
X226585501Y-123582688D01*
X226585500Y-123582686D01*
X226492314Y-123489500D01*
X226492311Y-123489498D01*
X226492309Y-123489496D01*
X226378189Y-123423609D01*
X226378191Y-123423609D01*
X226328799Y-123410375D01*
X226250892Y-123389500D01*
X226119108Y-123389500D01*
X226041200Y-123410375D01*
X225991809Y-123423609D01*
X225877690Y-123489496D01*
X225784496Y-123582690D01*
X225718609Y-123696809D01*
X225718608Y-123696814D01*
X225684500Y-123824108D01*
X225684500Y-123955892D01*
X225686908Y-123964877D01*
X225683705Y-124025979D01*
X225645200Y-124073528D01*
X225591281Y-124089500D01*
X225567918Y-124089500D01*
X225506742Y-124105892D01*
X225440619Y-124123609D01*
X225326500Y-124189496D01*
X225233306Y-124282690D01*
X225167419Y-124396809D01*
X225133310Y-124524109D01*
X225133310Y-124566000D01*
X225114403Y-124624191D01*
X225064903Y-124660155D01*
X225034310Y-124665000D01*
X223689262Y-124665000D01*
X223631071Y-124646093D01*
X223595107Y-124596593D01*
X223590262Y-124566000D01*
X223590262Y-124524109D01*
X223585515Y-124506392D01*
X223556154Y-124396814D01*
X223556152Y-124396811D01*
X223556152Y-124396809D01*
X223490265Y-124282690D01*
X223490263Y-124282688D01*
X223490262Y-124282686D01*
X223397076Y-124189500D01*
X223397073Y-124189498D01*
X223397071Y-124189496D01*
X223282951Y-124123609D01*
X223282953Y-124123609D01*
X223216830Y-124105892D01*
X223155654Y-124089500D01*
X223023870Y-124089500D01*
X222962694Y-124105892D01*
X222896571Y-124123609D01*
X222782452Y-124189496D01*
X222689258Y-124282690D01*
X222623371Y-124396809D01*
X222589262Y-124524109D01*
X222589262Y-124566000D01*
X222570355Y-124624191D01*
X222520855Y-124660155D01*
X222490262Y-124665000D01*
X221145214Y-124665000D01*
X221087023Y-124646093D01*
X221051059Y-124596593D01*
X221046214Y-124566000D01*
X221046214Y-124524109D01*
X221041467Y-124506392D01*
X221012106Y-124396814D01*
X221012104Y-124396811D01*
X221012104Y-124396809D01*
X220946217Y-124282690D01*
X220946215Y-124282688D01*
X220946214Y-124282686D01*
X220853028Y-124189500D01*
X220853025Y-124189498D01*
X220853023Y-124189496D01*
X220738903Y-124123609D01*
X220738905Y-124123609D01*
X220672782Y-124105892D01*
X220611606Y-124089500D01*
X220479822Y-124089500D01*
X220418646Y-124105892D01*
X220352523Y-124123609D01*
X220238404Y-124189496D01*
X220145210Y-124282690D01*
X220079323Y-124396809D01*
X220045214Y-124524109D01*
X220045214Y-124566000D01*
X220026307Y-124624191D01*
X219976807Y-124660155D01*
X219946214Y-124665000D01*
X219172942Y-124665000D01*
X219114751Y-124646093D01*
X219078787Y-124596593D01*
X219078787Y-124535407D01*
X219114751Y-124485907D01*
X219123436Y-124480266D01*
X219192314Y-124440500D01*
X219285500Y-124347314D01*
X219351392Y-124233186D01*
X219385500Y-124105892D01*
X219385500Y-123974108D01*
X219351392Y-123846814D01*
X219351390Y-123846811D01*
X219351390Y-123846809D01*
X219285503Y-123732690D01*
X219285501Y-123732688D01*
X219285500Y-123732686D01*
X219192314Y-123639500D01*
X219192311Y-123639498D01*
X219192309Y-123639496D01*
X219078189Y-123573609D01*
X219078191Y-123573609D01*
X219028799Y-123560375D01*
X218950892Y-123539500D01*
X218819108Y-123539500D01*
X218741200Y-123560375D01*
X218691809Y-123573609D01*
X218577690Y-123639496D01*
X218484496Y-123732690D01*
X218418609Y-123846809D01*
X218418608Y-123846814D01*
X218386974Y-123964877D01*
X218384500Y-123974109D01*
X218384500Y-124061627D01*
X218365593Y-124119818D01*
X218316093Y-124155782D01*
X218254907Y-124155782D01*
X218236000Y-124147364D01*
X218194854Y-124123608D01*
X218128735Y-124105892D01*
X218067559Y-124089500D01*
X218009500Y-124089500D01*
X217951309Y-124070593D01*
X217915345Y-124021093D01*
X217910500Y-123990500D01*
X217910500Y-123974109D01*
X217910500Y-123974108D01*
X217876392Y-123846814D01*
X217876390Y-123846811D01*
X217876390Y-123846809D01*
X217810503Y-123732690D01*
X217810501Y-123732688D01*
X217810500Y-123732686D01*
X217717314Y-123639500D01*
X217717311Y-123639498D01*
X217717309Y-123639496D01*
X217603189Y-123573609D01*
X217603191Y-123573609D01*
X217553799Y-123560375D01*
X217475892Y-123539500D01*
X217344108Y-123539500D01*
X217266200Y-123560375D01*
X217216809Y-123573609D01*
X217102690Y-123639496D01*
X217009496Y-123732690D01*
X216943609Y-123846809D01*
X216943608Y-123846814D01*
X216909500Y-123974108D01*
X216909500Y-124105892D01*
X216933995Y-124197309D01*
X216943609Y-124233190D01*
X217009496Y-124347309D01*
X217009498Y-124347311D01*
X217009500Y-124347314D01*
X217102686Y-124440500D01*
X217171558Y-124480263D01*
X217212499Y-124525733D01*
X217218895Y-124586583D01*
X217188302Y-124639571D01*
X217132406Y-124664458D01*
X217122058Y-124665000D01*
X216057119Y-124665000D01*
X215998928Y-124646093D01*
X215962964Y-124596593D01*
X215958119Y-124566000D01*
X215958119Y-124524109D01*
X215953372Y-124506392D01*
X215924011Y-124396814D01*
X215924009Y-124396811D01*
X215924009Y-124396809D01*
X215858122Y-124282690D01*
X215858120Y-124282688D01*
X215858119Y-124282686D01*
X215764933Y-124189500D01*
X215764930Y-124189498D01*
X215764928Y-124189496D01*
X215650808Y-124123609D01*
X215650810Y-124123609D01*
X215584687Y-124105892D01*
X215523511Y-124089500D01*
X215391727Y-124089500D01*
X215330551Y-124105892D01*
X215264428Y-124123609D01*
X215150309Y-124189496D01*
X215057115Y-124282690D01*
X214991228Y-124396809D01*
X214957119Y-124524109D01*
X214957119Y-124566000D01*
X214938212Y-124624191D01*
X214888712Y-124660155D01*
X214858119Y-124665000D01*
X213513071Y-124665000D01*
X213454880Y-124646093D01*
X213418916Y-124596593D01*
X213414071Y-124566000D01*
X213414071Y-124524109D01*
X213409324Y-124506392D01*
X213379963Y-124396814D01*
X213379961Y-124396811D01*
X213379961Y-124396809D01*
X213314074Y-124282690D01*
X213314072Y-124282688D01*
X213314071Y-124282686D01*
X213220885Y-124189500D01*
X213220882Y-124189498D01*
X213220880Y-124189496D01*
X213106760Y-124123609D01*
X213106762Y-124123609D01*
X213040639Y-124105892D01*
X212979463Y-124089500D01*
X212847679Y-124089500D01*
X212786503Y-124105892D01*
X212720380Y-124123609D01*
X212606261Y-124189496D01*
X212513067Y-124282690D01*
X212447180Y-124396809D01*
X212413071Y-124524109D01*
X212413071Y-124566000D01*
X212394164Y-124624191D01*
X212344664Y-124660155D01*
X212314071Y-124665000D01*
X210969024Y-124665000D01*
X210910833Y-124646093D01*
X210874869Y-124596593D01*
X210870024Y-124566000D01*
X210870024Y-124524109D01*
X210865277Y-124506392D01*
X210835916Y-124396814D01*
X210835914Y-124396811D01*
X210835914Y-124396809D01*
X210770027Y-124282690D01*
X210770025Y-124282688D01*
X210770024Y-124282686D01*
X210676838Y-124189500D01*
X210676835Y-124189498D01*
X210676833Y-124189496D01*
X210562713Y-124123609D01*
X210562715Y-124123609D01*
X210496592Y-124105892D01*
X210435416Y-124089500D01*
X210303632Y-124089500D01*
X210242456Y-124105892D01*
X210176333Y-124123609D01*
X210062214Y-124189496D01*
X209969020Y-124282690D01*
X209903133Y-124396809D01*
X209869024Y-124524109D01*
X209869024Y-124566000D01*
X209850117Y-124624191D01*
X209800617Y-124660155D01*
X209770024Y-124665000D01*
X208424976Y-124665000D01*
X208366785Y-124646093D01*
X208330821Y-124596593D01*
X208325976Y-124566000D01*
X208325976Y-124524109D01*
X208321229Y-124506392D01*
X208291868Y-124396814D01*
X208291866Y-124396811D01*
X208291866Y-124396809D01*
X208225979Y-124282690D01*
X208225977Y-124282688D01*
X208225976Y-124282686D01*
X208132790Y-124189500D01*
X208132787Y-124189498D01*
X208132785Y-124189496D01*
X208018665Y-124123609D01*
X208018667Y-124123609D01*
X207952544Y-124105892D01*
X207891368Y-124089500D01*
X207759584Y-124089500D01*
X207698408Y-124105892D01*
X207632285Y-124123609D01*
X207518166Y-124189496D01*
X207424972Y-124282690D01*
X207359085Y-124396809D01*
X207324976Y-124524109D01*
X207324976Y-124566000D01*
X207306069Y-124624191D01*
X207256569Y-124660155D01*
X207225976Y-124665000D01*
X205880929Y-124665000D01*
X205822738Y-124646093D01*
X205786774Y-124596593D01*
X205781929Y-124566000D01*
X205781929Y-124524109D01*
X205777182Y-124506392D01*
X205747821Y-124396814D01*
X205747819Y-124396811D01*
X205747819Y-124396809D01*
X205681932Y-124282690D01*
X205681930Y-124282688D01*
X205681929Y-124282686D01*
X205588743Y-124189500D01*
X205588740Y-124189498D01*
X205588738Y-124189496D01*
X205474618Y-124123609D01*
X205474620Y-124123609D01*
X205408497Y-124105892D01*
X205347321Y-124089500D01*
X205215537Y-124089500D01*
X205154361Y-124105892D01*
X205088238Y-124123609D01*
X204974119Y-124189496D01*
X204880925Y-124282690D01*
X204815038Y-124396809D01*
X204780929Y-124524109D01*
X204780929Y-124566000D01*
X204762022Y-124624191D01*
X204712522Y-124660155D01*
X204681929Y-124665000D01*
X203336881Y-124665000D01*
X203278690Y-124646093D01*
X203242726Y-124596593D01*
X203237881Y-124566000D01*
X203237881Y-124524109D01*
X203233134Y-124506392D01*
X203203773Y-124396814D01*
X203203771Y-124396811D01*
X203203771Y-124396809D01*
X203137884Y-124282690D01*
X203137882Y-124282688D01*
X203137881Y-124282686D01*
X203044695Y-124189500D01*
X203044692Y-124189498D01*
X203044690Y-124189496D01*
X202930570Y-124123609D01*
X202930572Y-124123609D01*
X202864449Y-124105892D01*
X202803273Y-124089500D01*
X202671489Y-124089500D01*
X202610313Y-124105892D01*
X202544190Y-124123609D01*
X202430071Y-124189496D01*
X202336877Y-124282690D01*
X202270990Y-124396809D01*
X202236881Y-124524109D01*
X202236881Y-124566000D01*
X202217974Y-124624191D01*
X202168474Y-124660155D01*
X202137881Y-124665000D01*
X200792833Y-124665000D01*
X200734642Y-124646093D01*
X200698678Y-124596593D01*
X200693833Y-124566000D01*
X200693833Y-124524109D01*
X200689086Y-124506392D01*
X200659725Y-124396814D01*
X200659723Y-124396811D01*
X200659723Y-124396809D01*
X200593836Y-124282690D01*
X200593834Y-124282688D01*
X200593833Y-124282686D01*
X200500647Y-124189500D01*
X200500644Y-124189498D01*
X200500642Y-124189496D01*
X200386522Y-124123609D01*
X200386524Y-124123609D01*
X200320401Y-124105892D01*
X200259225Y-124089500D01*
X200127441Y-124089500D01*
X200066265Y-124105892D01*
X200000142Y-124123609D01*
X199886023Y-124189496D01*
X199792829Y-124282690D01*
X199726942Y-124396809D01*
X199692833Y-124524109D01*
X199692833Y-124566000D01*
X199673926Y-124624191D01*
X199624426Y-124660155D01*
X199593833Y-124665000D01*
X198248786Y-124665000D01*
X198190595Y-124646093D01*
X198154631Y-124596593D01*
X198149786Y-124566000D01*
X198149786Y-124524109D01*
X198145039Y-124506392D01*
X198115678Y-124396814D01*
X198115676Y-124396811D01*
X198115676Y-124396809D01*
X198049789Y-124282690D01*
X198049787Y-124282688D01*
X198049786Y-124282686D01*
X197956600Y-124189500D01*
X197956597Y-124189498D01*
X197956595Y-124189496D01*
X197842475Y-124123609D01*
X197842477Y-124123609D01*
X197776354Y-124105892D01*
X197715178Y-124089500D01*
X197583394Y-124089500D01*
X197522218Y-124105892D01*
X197456095Y-124123609D01*
X197341976Y-124189496D01*
X197248782Y-124282690D01*
X197182895Y-124396809D01*
X197148786Y-124524109D01*
X197148786Y-124566000D01*
X197129879Y-124624191D01*
X197080379Y-124660155D01*
X197049786Y-124665000D01*
X195704738Y-124665000D01*
X195646547Y-124646093D01*
X195610583Y-124596593D01*
X195605738Y-124566000D01*
X195605738Y-124524109D01*
X195600991Y-124506392D01*
X195571630Y-124396814D01*
X195571628Y-124396811D01*
X195571628Y-124396809D01*
X195505741Y-124282690D01*
X195505739Y-124282688D01*
X195505738Y-124282686D01*
X195412552Y-124189500D01*
X195412549Y-124189498D01*
X195412547Y-124189496D01*
X195298427Y-124123609D01*
X195298429Y-124123609D01*
X195232306Y-124105892D01*
X195171130Y-124089500D01*
X195039346Y-124089500D01*
X194978170Y-124105892D01*
X194912047Y-124123609D01*
X194797928Y-124189496D01*
X194704734Y-124282690D01*
X194638847Y-124396809D01*
X194604738Y-124524109D01*
X194604738Y-124566000D01*
X194585831Y-124624191D01*
X194536331Y-124660155D01*
X194505738Y-124665000D01*
X193160690Y-124665000D01*
X193102499Y-124646093D01*
X193066535Y-124596593D01*
X193061690Y-124566000D01*
X193061690Y-124524109D01*
X193056943Y-124506392D01*
X193027582Y-124396814D01*
X193027580Y-124396811D01*
X193027580Y-124396809D01*
X192961693Y-124282690D01*
X192961691Y-124282688D01*
X192961690Y-124282686D01*
X192868504Y-124189500D01*
X192868501Y-124189498D01*
X192868499Y-124189496D01*
X192754379Y-124123609D01*
X192754381Y-124123609D01*
X192688258Y-124105892D01*
X192627082Y-124089500D01*
X192495298Y-124089500D01*
X192434122Y-124105892D01*
X192367999Y-124123609D01*
X192253880Y-124189496D01*
X192160686Y-124282690D01*
X192094799Y-124396809D01*
X192060690Y-124524109D01*
X192060690Y-124566000D01*
X192041783Y-124624191D01*
X191992283Y-124660155D01*
X191961690Y-124665000D01*
X190616643Y-124665000D01*
X190558452Y-124646093D01*
X190522488Y-124596593D01*
X190517643Y-124566000D01*
X190517643Y-124524109D01*
X190512896Y-124506392D01*
X190483535Y-124396814D01*
X190483533Y-124396811D01*
X190483533Y-124396809D01*
X190417646Y-124282690D01*
X190417644Y-124282688D01*
X190417643Y-124282686D01*
X190324457Y-124189500D01*
X190324454Y-124189498D01*
X190324452Y-124189496D01*
X190210332Y-124123609D01*
X190210334Y-124123609D01*
X190144211Y-124105892D01*
X190083035Y-124089500D01*
X189951251Y-124089500D01*
X189890075Y-124105892D01*
X189823952Y-124123609D01*
X189709833Y-124189496D01*
X189616639Y-124282690D01*
X189550752Y-124396809D01*
X189516643Y-124524109D01*
X189516643Y-124566000D01*
X189497736Y-124624191D01*
X189448236Y-124660155D01*
X189417643Y-124665000D01*
X188072595Y-124665000D01*
X188014404Y-124646093D01*
X187978440Y-124596593D01*
X187973595Y-124566000D01*
X187973595Y-124524109D01*
X187968848Y-124506392D01*
X187939487Y-124396814D01*
X187939485Y-124396811D01*
X187939485Y-124396809D01*
X187873598Y-124282690D01*
X187873596Y-124282688D01*
X187873595Y-124282686D01*
X187780409Y-124189500D01*
X187780406Y-124189498D01*
X187780404Y-124189496D01*
X187666284Y-124123609D01*
X187666286Y-124123609D01*
X187600163Y-124105892D01*
X187538987Y-124089500D01*
X187407203Y-124089500D01*
X187346027Y-124105892D01*
X187279904Y-124123609D01*
X187165785Y-124189496D01*
X187072591Y-124282690D01*
X187006704Y-124396809D01*
X186972595Y-124524109D01*
X186972595Y-124566000D01*
X186953688Y-124624191D01*
X186904188Y-124660155D01*
X186873595Y-124665000D01*
X185528548Y-124665000D01*
X185470357Y-124646093D01*
X185434393Y-124596593D01*
X185429548Y-124566000D01*
X185429548Y-124524109D01*
X185424801Y-124506392D01*
X185395440Y-124396814D01*
X185395438Y-124396811D01*
X185395438Y-124396809D01*
X185329551Y-124282690D01*
X185329549Y-124282688D01*
X185329548Y-124282686D01*
X185236362Y-124189500D01*
X185236359Y-124189498D01*
X185236357Y-124189496D01*
X185122237Y-124123609D01*
X185122239Y-124123609D01*
X185056116Y-124105892D01*
X184994940Y-124089500D01*
X184863156Y-124089500D01*
X184801980Y-124105892D01*
X184735857Y-124123609D01*
X184621738Y-124189496D01*
X184528544Y-124282690D01*
X184462657Y-124396809D01*
X184428548Y-124524109D01*
X184428548Y-124566000D01*
X184409641Y-124624191D01*
X184360141Y-124660155D01*
X184329548Y-124665000D01*
X182984500Y-124665000D01*
X182926309Y-124646093D01*
X182890345Y-124596593D01*
X182885500Y-124566000D01*
X182885500Y-124524109D01*
X182880753Y-124506392D01*
X182851392Y-124396814D01*
X182851390Y-124396811D01*
X182851390Y-124396809D01*
X182785503Y-124282690D01*
X182785501Y-124282688D01*
X182785500Y-124282686D01*
X182692314Y-124189500D01*
X182692311Y-124189498D01*
X182692309Y-124189496D01*
X182578189Y-124123609D01*
X182578191Y-124123609D01*
X182512068Y-124105892D01*
X182450892Y-124089500D01*
X182319108Y-124089500D01*
X182257932Y-124105892D01*
X182191809Y-124123609D01*
X182077690Y-124189496D01*
X181984496Y-124282690D01*
X181918609Y-124396809D01*
X181884500Y-124524109D01*
X181884500Y-124566000D01*
X181865593Y-124624191D01*
X181816093Y-124660155D01*
X181785500Y-124665000D01*
X180440452Y-124665000D01*
X180382261Y-124646093D01*
X180346297Y-124596593D01*
X180341452Y-124566000D01*
X180341452Y-124524109D01*
X180336705Y-124506392D01*
X180307344Y-124396814D01*
X180307342Y-124396811D01*
X180307342Y-124396809D01*
X180241455Y-124282690D01*
X180241453Y-124282688D01*
X180241452Y-124282686D01*
X180148266Y-124189500D01*
X180148263Y-124189498D01*
X180148261Y-124189496D01*
X180034141Y-124123609D01*
X180034143Y-124123609D01*
X179968020Y-124105892D01*
X179906844Y-124089500D01*
X179775060Y-124089500D01*
X179713884Y-124105892D01*
X179647761Y-124123609D01*
X179533642Y-124189496D01*
X179440448Y-124282690D01*
X179374561Y-124396809D01*
X179340452Y-124524109D01*
X179340452Y-124566000D01*
X179321545Y-124624191D01*
X179272045Y-124660155D01*
X179241452Y-124665000D01*
X177896405Y-124665000D01*
X177838214Y-124646093D01*
X177802250Y-124596593D01*
X177797405Y-124566000D01*
X177797405Y-124524109D01*
X177792658Y-124506392D01*
X177763297Y-124396814D01*
X177763295Y-124396811D01*
X177763295Y-124396809D01*
X177697408Y-124282690D01*
X177697406Y-124282688D01*
X177697405Y-124282686D01*
X177604219Y-124189500D01*
X177604216Y-124189498D01*
X177604214Y-124189496D01*
X177490094Y-124123609D01*
X177490096Y-124123609D01*
X177423973Y-124105892D01*
X177362797Y-124089500D01*
X177231013Y-124089500D01*
X177169837Y-124105892D01*
X177103714Y-124123609D01*
X176989595Y-124189496D01*
X176896401Y-124282690D01*
X176830514Y-124396809D01*
X176796405Y-124524109D01*
X176796405Y-124566000D01*
X176777498Y-124624191D01*
X176727998Y-124660155D01*
X176697405Y-124665000D01*
X175352357Y-124665000D01*
X175294166Y-124646093D01*
X175258202Y-124596593D01*
X175253357Y-124566000D01*
X175253357Y-124524109D01*
X175248610Y-124506392D01*
X175219249Y-124396814D01*
X175219247Y-124396811D01*
X175219247Y-124396809D01*
X175153360Y-124282690D01*
X175153358Y-124282688D01*
X175153357Y-124282686D01*
X175060171Y-124189500D01*
X175060168Y-124189498D01*
X175060166Y-124189496D01*
X174946046Y-124123609D01*
X174946048Y-124123609D01*
X174879925Y-124105892D01*
X174818749Y-124089500D01*
X174686965Y-124089500D01*
X174625789Y-124105892D01*
X174559666Y-124123609D01*
X174445547Y-124189496D01*
X174352353Y-124282690D01*
X174286466Y-124396809D01*
X174252357Y-124524109D01*
X174252357Y-124566000D01*
X174233450Y-124624191D01*
X174183950Y-124660155D01*
X174153357Y-124665000D01*
X172808310Y-124665000D01*
X172750119Y-124646093D01*
X172714155Y-124596593D01*
X172709310Y-124566000D01*
X172709310Y-124524109D01*
X172704563Y-124506392D01*
X172675202Y-124396814D01*
X172675200Y-124396811D01*
X172675200Y-124396809D01*
X172609313Y-124282690D01*
X172609311Y-124282688D01*
X172609310Y-124282686D01*
X172516124Y-124189500D01*
X172516121Y-124189498D01*
X172516119Y-124189496D01*
X172401999Y-124123609D01*
X172402001Y-124123609D01*
X172335878Y-124105892D01*
X172274702Y-124089500D01*
X172142918Y-124089500D01*
X172081742Y-124105892D01*
X172015619Y-124123609D01*
X171901500Y-124189496D01*
X171808306Y-124282690D01*
X171742419Y-124396809D01*
X171708310Y-124524109D01*
X171708310Y-124566000D01*
X171689403Y-124624191D01*
X171639903Y-124660155D01*
X171609310Y-124665000D01*
X170264262Y-124665000D01*
X170206071Y-124646093D01*
X170170107Y-124596593D01*
X170165262Y-124566000D01*
X170165262Y-124524109D01*
X170160515Y-124506392D01*
X170131154Y-124396814D01*
X170131152Y-124396811D01*
X170131152Y-124396809D01*
X170065265Y-124282690D01*
X170065263Y-124282688D01*
X170065262Y-124282686D01*
X169972076Y-124189500D01*
X169972073Y-124189498D01*
X169972071Y-124189496D01*
X169857951Y-124123609D01*
X169857953Y-124123609D01*
X169791830Y-124105892D01*
X169730654Y-124089500D01*
X169598870Y-124089500D01*
X169537694Y-124105892D01*
X169471571Y-124123609D01*
X169357452Y-124189496D01*
X169264258Y-124282690D01*
X169198371Y-124396809D01*
X169164262Y-124524109D01*
X169164262Y-124566000D01*
X169145355Y-124624191D01*
X169095855Y-124660155D01*
X169065262Y-124665000D01*
X167720214Y-124665000D01*
X167662023Y-124646093D01*
X167626059Y-124596593D01*
X167621214Y-124566000D01*
X167621214Y-124524109D01*
X167616467Y-124506392D01*
X167587106Y-124396814D01*
X167587104Y-124396811D01*
X167587104Y-124396809D01*
X167521217Y-124282690D01*
X167521215Y-124282688D01*
X167521214Y-124282686D01*
X167428028Y-124189500D01*
X167428025Y-124189498D01*
X167428023Y-124189496D01*
X167313903Y-124123609D01*
X167313905Y-124123609D01*
X167247782Y-124105892D01*
X167186606Y-124089500D01*
X167054822Y-124089500D01*
X166993646Y-124105892D01*
X166927523Y-124123609D01*
X166813404Y-124189496D01*
X166720210Y-124282690D01*
X166654323Y-124396809D01*
X166620214Y-124524109D01*
X166620214Y-124566000D01*
X166601307Y-124624191D01*
X166551807Y-124660155D01*
X166521214Y-124665000D01*
X165176167Y-124665000D01*
X165117976Y-124646093D01*
X165082012Y-124596593D01*
X165077167Y-124566000D01*
X165077167Y-124524109D01*
X165072420Y-124506392D01*
X165043059Y-124396814D01*
X165043057Y-124396811D01*
X165043057Y-124396809D01*
X164977170Y-124282690D01*
X164977168Y-124282688D01*
X164977167Y-124282686D01*
X164883981Y-124189500D01*
X164883978Y-124189498D01*
X164883976Y-124189496D01*
X164769856Y-124123609D01*
X164769858Y-124123609D01*
X164703735Y-124105892D01*
X164642559Y-124089500D01*
X164510775Y-124089500D01*
X164449599Y-124105892D01*
X164383476Y-124123609D01*
X164269357Y-124189496D01*
X164176163Y-124282690D01*
X164110276Y-124396809D01*
X164076167Y-124524109D01*
X164076167Y-124566000D01*
X164057260Y-124624191D01*
X164007760Y-124660155D01*
X163977167Y-124665000D01*
X162632119Y-124665000D01*
X162573928Y-124646093D01*
X162537964Y-124596593D01*
X162533119Y-124566000D01*
X162533119Y-124524109D01*
X162528372Y-124506392D01*
X162499011Y-124396814D01*
X162499009Y-124396811D01*
X162499009Y-124396809D01*
X162433122Y-124282690D01*
X162433120Y-124282688D01*
X162433119Y-124282686D01*
X162339933Y-124189500D01*
X162339930Y-124189498D01*
X162339928Y-124189496D01*
X162225808Y-124123609D01*
X162225810Y-124123609D01*
X162159687Y-124105892D01*
X162098511Y-124089500D01*
X161966727Y-124089500D01*
X161905551Y-124105892D01*
X161839428Y-124123609D01*
X161725309Y-124189496D01*
X161632115Y-124282690D01*
X161566228Y-124396809D01*
X161532119Y-124524109D01*
X161532119Y-124566000D01*
X161513212Y-124624191D01*
X161463712Y-124660155D01*
X161433119Y-124665000D01*
X160088071Y-124665000D01*
X160029880Y-124646093D01*
X159993916Y-124596593D01*
X159989071Y-124566000D01*
X159989071Y-124524109D01*
X159984324Y-124506392D01*
X159954963Y-124396814D01*
X159954961Y-124396811D01*
X159954961Y-124396809D01*
X159889074Y-124282690D01*
X159889072Y-124282688D01*
X159889071Y-124282686D01*
X159795885Y-124189500D01*
X159795882Y-124189498D01*
X159795880Y-124189496D01*
X159681760Y-124123609D01*
X159681762Y-124123609D01*
X159615639Y-124105892D01*
X159554463Y-124089500D01*
X159422679Y-124089500D01*
X159361503Y-124105892D01*
X159295380Y-124123609D01*
X159181261Y-124189496D01*
X159088067Y-124282690D01*
X159022180Y-124396809D01*
X158988071Y-124524109D01*
X158988071Y-124566000D01*
X158969164Y-124624191D01*
X158919664Y-124660155D01*
X158889071Y-124665000D01*
X157544024Y-124665000D01*
X157485833Y-124646093D01*
X157449869Y-124596593D01*
X157445024Y-124566000D01*
X157445024Y-124524109D01*
X157440277Y-124506392D01*
X157410916Y-124396814D01*
X157410914Y-124396811D01*
X157410914Y-124396809D01*
X157345027Y-124282690D01*
X157345025Y-124282688D01*
X157345024Y-124282686D01*
X157251838Y-124189500D01*
X157251835Y-124189498D01*
X157251833Y-124189496D01*
X157137713Y-124123609D01*
X157137715Y-124123609D01*
X157071592Y-124105892D01*
X157010416Y-124089500D01*
X156878632Y-124089500D01*
X156817456Y-124105892D01*
X156751333Y-124123609D01*
X156637214Y-124189496D01*
X156544020Y-124282690D01*
X156478133Y-124396809D01*
X156444024Y-124524109D01*
X156444024Y-124566000D01*
X156425117Y-124624191D01*
X156375617Y-124660155D01*
X156345024Y-124665000D01*
X154999976Y-124665000D01*
X154941785Y-124646093D01*
X154905821Y-124596593D01*
X154900976Y-124566000D01*
X154900976Y-124524109D01*
X154896229Y-124506392D01*
X154866868Y-124396814D01*
X154866866Y-124396811D01*
X154866866Y-124396809D01*
X154800979Y-124282690D01*
X154800977Y-124282688D01*
X154800976Y-124282686D01*
X154707790Y-124189500D01*
X154707787Y-124189498D01*
X154707785Y-124189496D01*
X154593665Y-124123609D01*
X154593667Y-124123609D01*
X154527544Y-124105892D01*
X154466368Y-124089500D01*
X154334584Y-124089500D01*
X154273408Y-124105892D01*
X154207285Y-124123609D01*
X154093166Y-124189496D01*
X153999972Y-124282690D01*
X153934085Y-124396809D01*
X153899976Y-124524109D01*
X153899976Y-124566000D01*
X153881069Y-124624191D01*
X153831569Y-124660155D01*
X153800976Y-124665000D01*
X152455929Y-124665000D01*
X152397738Y-124646093D01*
X152361774Y-124596593D01*
X152356929Y-124566000D01*
X152356929Y-124524109D01*
X152352182Y-124506392D01*
X152322821Y-124396814D01*
X152322819Y-124396811D01*
X152322819Y-124396809D01*
X152256932Y-124282690D01*
X152256930Y-124282688D01*
X152256929Y-124282686D01*
X152163743Y-124189500D01*
X152163740Y-124189498D01*
X152163738Y-124189496D01*
X152049618Y-124123609D01*
X152049620Y-124123609D01*
X151983497Y-124105892D01*
X151922321Y-124089500D01*
X151790537Y-124089500D01*
X151729361Y-124105892D01*
X151663238Y-124123609D01*
X151549119Y-124189496D01*
X151455925Y-124282690D01*
X151390038Y-124396809D01*
X151355929Y-124524109D01*
X151355929Y-124566000D01*
X151337022Y-124624191D01*
X151287522Y-124660155D01*
X151256929Y-124665000D01*
X149911881Y-124665000D01*
X149853690Y-124646093D01*
X149817726Y-124596593D01*
X149812881Y-124566000D01*
X149812881Y-124524109D01*
X149808134Y-124506392D01*
X149778773Y-124396814D01*
X149778771Y-124396811D01*
X149778771Y-124396809D01*
X149712884Y-124282690D01*
X149712882Y-124282688D01*
X149712881Y-124282686D01*
X149619695Y-124189500D01*
X149619692Y-124189498D01*
X149619690Y-124189496D01*
X149505570Y-124123609D01*
X149505572Y-124123609D01*
X149439449Y-124105892D01*
X149378273Y-124089500D01*
X149246489Y-124089500D01*
X149185313Y-124105892D01*
X149119190Y-124123609D01*
X149005071Y-124189496D01*
X148911877Y-124282690D01*
X148845990Y-124396809D01*
X148811881Y-124524109D01*
X148811881Y-124566000D01*
X148807036Y-124580911D01*
X148807036Y-124596593D01*
X148797819Y-124609278D01*
X148792974Y-124624191D01*
X148780288Y-124633407D01*
X148771072Y-124646093D01*
X148756159Y-124650938D01*
X148743474Y-124660155D01*
X148712881Y-124665000D01*
X148659000Y-124665000D01*
X148600809Y-124646093D01*
X148564845Y-124596593D01*
X148560000Y-124566000D01*
X148560000Y-120445515D01*
X149809500Y-120445515D01*
X149809500Y-120634484D01*
X149839058Y-120821113D01*
X149839060Y-120821118D01*
X149897453Y-121000832D01*
X149983240Y-121169199D01*
X150094310Y-121322073D01*
X150227927Y-121455690D01*
X150380801Y-121566760D01*
X150549168Y-121652547D01*
X150728882Y-121710940D01*
X150728883Y-121710940D01*
X150728886Y-121710941D01*
X150915516Y-121740500D01*
X150915519Y-121740500D01*
X151104484Y-121740500D01*
X151291113Y-121710941D01*
X151291114Y-121710940D01*
X151291118Y-121710940D01*
X151470832Y-121652547D01*
X151639199Y-121566760D01*
X151792073Y-121455690D01*
X151925690Y-121322073D01*
X152036760Y-121169199D01*
X152122547Y-121000832D01*
X152180940Y-120821118D01*
X152206540Y-120659484D01*
X152210500Y-120634484D01*
X152210500Y-120445515D01*
X167034500Y-120445515D01*
X167034500Y-120634484D01*
X167064058Y-120821113D01*
X167064060Y-120821118D01*
X167122453Y-121000832D01*
X167208240Y-121169199D01*
X167319310Y-121322073D01*
X167452927Y-121455690D01*
X167605801Y-121566760D01*
X167774168Y-121652547D01*
X167953882Y-121710940D01*
X167953883Y-121710940D01*
X167953886Y-121710941D01*
X168140516Y-121740500D01*
X168140519Y-121740500D01*
X168329484Y-121740500D01*
X168516113Y-121710941D01*
X168516114Y-121710940D01*
X168516118Y-121710940D01*
X168695832Y-121652547D01*
X168864199Y-121566760D01*
X169017073Y-121455690D01*
X169150690Y-121322073D01*
X169261760Y-121169199D01*
X169347547Y-121000832D01*
X169405940Y-120821118D01*
X169431540Y-120659484D01*
X169435500Y-120634484D01*
X169435500Y-120470515D01*
X184209500Y-120470515D01*
X184209500Y-120659484D01*
X184239058Y-120846113D01*
X184239060Y-120846118D01*
X184297453Y-121025832D01*
X184383240Y-121194199D01*
X184494310Y-121347073D01*
X184627927Y-121480690D01*
X184780801Y-121591760D01*
X184949168Y-121677547D01*
X185128882Y-121735940D01*
X185128883Y-121735940D01*
X185128886Y-121735941D01*
X185315516Y-121765500D01*
X185315519Y-121765500D01*
X185504484Y-121765500D01*
X185691113Y-121735941D01*
X185691114Y-121735940D01*
X185691118Y-121735940D01*
X185870832Y-121677547D01*
X186039199Y-121591760D01*
X186192073Y-121480690D01*
X186325690Y-121347073D01*
X186436760Y-121194199D01*
X186522547Y-121025832D01*
X186580940Y-120846118D01*
X186584900Y-120821118D01*
X186610500Y-120659484D01*
X186610500Y-120470515D01*
X186580941Y-120283886D01*
X186566844Y-120240500D01*
X186522547Y-120104168D01*
X186481755Y-120024108D01*
X214709500Y-120024108D01*
X214709500Y-120155892D01*
X214732171Y-120240503D01*
X214743609Y-120283190D01*
X214809496Y-120397309D01*
X214809498Y-120397311D01*
X214809500Y-120397314D01*
X214902686Y-120490500D01*
X214902688Y-120490501D01*
X214902690Y-120490503D01*
X215016810Y-120556390D01*
X215016808Y-120556390D01*
X215016812Y-120556391D01*
X215016814Y-120556392D01*
X215144108Y-120590500D01*
X215144110Y-120590500D01*
X215275890Y-120590500D01*
X215275892Y-120590500D01*
X215403186Y-120556392D01*
X215403188Y-120556390D01*
X215403190Y-120556390D01*
X215517309Y-120490503D01*
X215517309Y-120490502D01*
X215517314Y-120490500D01*
X215610500Y-120397314D01*
X215676392Y-120283186D01*
X215710500Y-120155892D01*
X215710500Y-120024108D01*
X215676392Y-119896814D01*
X215676390Y-119896811D01*
X215676390Y-119896809D01*
X215610503Y-119782690D01*
X215610501Y-119782688D01*
X215610500Y-119782686D01*
X215517314Y-119689500D01*
X215517311Y-119689498D01*
X215517309Y-119689496D01*
X215490656Y-119674108D01*
X224634500Y-119674108D01*
X224634500Y-119805892D01*
X224639837Y-119825810D01*
X224668609Y-119933190D01*
X224734496Y-120047309D01*
X224734498Y-120047311D01*
X224734500Y-120047314D01*
X224827686Y-120140500D01*
X224827688Y-120140501D01*
X224827690Y-120140503D01*
X224941810Y-120206390D01*
X224941808Y-120206390D01*
X224941812Y-120206391D01*
X224941814Y-120206392D01*
X225069108Y-120240500D01*
X225069110Y-120240500D01*
X225200890Y-120240500D01*
X225200892Y-120240500D01*
X225328186Y-120206392D01*
X225328188Y-120206390D01*
X225328190Y-120206390D01*
X225442309Y-120140503D01*
X225442309Y-120140502D01*
X225442314Y-120140500D01*
X225535500Y-120047314D01*
X225543657Y-120033186D01*
X225601390Y-119933190D01*
X225601390Y-119933188D01*
X225601392Y-119933186D01*
X225635500Y-119805892D01*
X225635500Y-119674108D01*
X225601392Y-119546814D01*
X225601390Y-119546811D01*
X225601390Y-119546809D01*
X225535503Y-119432690D01*
X225535501Y-119432688D01*
X225535500Y-119432686D01*
X225442314Y-119339500D01*
X225442311Y-119339498D01*
X225442309Y-119339496D01*
X225328189Y-119273609D01*
X225328191Y-119273609D01*
X225278799Y-119260375D01*
X225200892Y-119239500D01*
X225069108Y-119239500D01*
X224991200Y-119260375D01*
X224941809Y-119273609D01*
X224827690Y-119339496D01*
X224734496Y-119432690D01*
X224668609Y-119546809D01*
X224668608Y-119546814D01*
X224634500Y-119674108D01*
X215490656Y-119674108D01*
X215403189Y-119623609D01*
X215403191Y-119623609D01*
X215336639Y-119605777D01*
X215275892Y-119589500D01*
X215144108Y-119589500D01*
X215083361Y-119605777D01*
X215016809Y-119623609D01*
X214902690Y-119689496D01*
X214809496Y-119782690D01*
X214743609Y-119896809D01*
X214733161Y-119935803D01*
X214709500Y-120024108D01*
X186481755Y-120024108D01*
X186436760Y-119935801D01*
X186325690Y-119782927D01*
X186192073Y-119649310D01*
X186039199Y-119538240D01*
X186039198Y-119538239D01*
X186039196Y-119538238D01*
X185870832Y-119452453D01*
X185691113Y-119394058D01*
X185504484Y-119364500D01*
X185504481Y-119364500D01*
X185315519Y-119364500D01*
X185315516Y-119364500D01*
X185128886Y-119394058D01*
X184949167Y-119452453D01*
X184780803Y-119538238D01*
X184627928Y-119649309D01*
X184494309Y-119782928D01*
X184383238Y-119935803D01*
X184297453Y-120104167D01*
X184239058Y-120283886D01*
X184209500Y-120470515D01*
X169435500Y-120470515D01*
X169435500Y-120445515D01*
X169405941Y-120258886D01*
X169399967Y-120240500D01*
X169347547Y-120079168D01*
X169261760Y-119910801D01*
X169150690Y-119757927D01*
X169017073Y-119624310D01*
X168864199Y-119513240D01*
X168864198Y-119513239D01*
X168864196Y-119513238D01*
X168695832Y-119427453D01*
X168516113Y-119369058D01*
X168329484Y-119339500D01*
X168329481Y-119339500D01*
X168140519Y-119339500D01*
X168140516Y-119339500D01*
X167953886Y-119369058D01*
X167774167Y-119427453D01*
X167605803Y-119513238D01*
X167452928Y-119624309D01*
X167319309Y-119757928D01*
X167208238Y-119910803D01*
X167122453Y-120079167D01*
X167064058Y-120258886D01*
X167034500Y-120445515D01*
X152210500Y-120445515D01*
X152180941Y-120258886D01*
X152174967Y-120240500D01*
X152122547Y-120079168D01*
X152036760Y-119910801D01*
X151975009Y-119825809D01*
X151975009Y-119825807D01*
X151937447Y-119774108D01*
X157659500Y-119774108D01*
X157659500Y-119905892D01*
X157667514Y-119935801D01*
X157693609Y-120033190D01*
X157759496Y-120147309D01*
X157759498Y-120147311D01*
X157759500Y-120147314D01*
X157852686Y-120240500D01*
X157852688Y-120240501D01*
X157852690Y-120240503D01*
X157966810Y-120306390D01*
X157966808Y-120306390D01*
X157966812Y-120306391D01*
X157966814Y-120306392D01*
X158094108Y-120340500D01*
X158094110Y-120340500D01*
X158225890Y-120340500D01*
X158225892Y-120340500D01*
X158353186Y-120306392D01*
X158353188Y-120306390D01*
X158353190Y-120306390D01*
X158467309Y-120240503D01*
X158467309Y-120240502D01*
X158467314Y-120240500D01*
X158560500Y-120147314D01*
X158564434Y-120140500D01*
X158626390Y-120033190D01*
X158626390Y-120033188D01*
X158626392Y-120033186D01*
X158660500Y-119905892D01*
X158660500Y-119774108D01*
X158626392Y-119646814D01*
X158626390Y-119646811D01*
X158626390Y-119646809D01*
X158560503Y-119532690D01*
X158560501Y-119532688D01*
X158560500Y-119532686D01*
X158467314Y-119439500D01*
X158467311Y-119439498D01*
X158467309Y-119439496D01*
X158353189Y-119373609D01*
X158353191Y-119373609D01*
X158303799Y-119360375D01*
X158225892Y-119339500D01*
X158094108Y-119339500D01*
X158016200Y-119360375D01*
X157966809Y-119373609D01*
X157852690Y-119439496D01*
X157759496Y-119532690D01*
X157693609Y-119646809D01*
X157682170Y-119689500D01*
X157659500Y-119774108D01*
X151937447Y-119774108D01*
X151925694Y-119757932D01*
X151925692Y-119757930D01*
X151925690Y-119757927D01*
X151792073Y-119624310D01*
X151639199Y-119513240D01*
X151639198Y-119513239D01*
X151639196Y-119513238D01*
X151470832Y-119427453D01*
X151291113Y-119369058D01*
X151104484Y-119339500D01*
X151104481Y-119339500D01*
X150915519Y-119339500D01*
X150915516Y-119339500D01*
X150728886Y-119369058D01*
X150549167Y-119427453D01*
X150380803Y-119513238D01*
X150227928Y-119624309D01*
X150094309Y-119757928D01*
X149983238Y-119910803D01*
X149897453Y-120079167D01*
X149839058Y-120258886D01*
X149809500Y-120445515D01*
X148560000Y-120445515D01*
X148560000Y-118674108D01*
X223109500Y-118674108D01*
X223109500Y-118805892D01*
X223139004Y-118916004D01*
X223143609Y-118933190D01*
X223209496Y-119047309D01*
X223209498Y-119047311D01*
X223209500Y-119047314D01*
X223302686Y-119140500D01*
X223302688Y-119140501D01*
X223302690Y-119140503D01*
X223416810Y-119206390D01*
X223416808Y-119206390D01*
X223416812Y-119206391D01*
X223416814Y-119206392D01*
X223544108Y-119240500D01*
X223544110Y-119240500D01*
X223675890Y-119240500D01*
X223675892Y-119240500D01*
X223803186Y-119206392D01*
X223803188Y-119206390D01*
X223803190Y-119206390D01*
X223917309Y-119140503D01*
X223917309Y-119140502D01*
X223917314Y-119140500D01*
X224010500Y-119047314D01*
X224076392Y-118933186D01*
X224110500Y-118805892D01*
X224110500Y-118674108D01*
X224076392Y-118546814D01*
X224076390Y-118546811D01*
X224076390Y-118546809D01*
X224010503Y-118432690D01*
X224010501Y-118432688D01*
X224010500Y-118432686D01*
X223917314Y-118339500D01*
X223917311Y-118339498D01*
X223917309Y-118339496D01*
X223803189Y-118273609D01*
X223803191Y-118273609D01*
X223753799Y-118260375D01*
X223675892Y-118239500D01*
X223544108Y-118239500D01*
X223466200Y-118260375D01*
X223416809Y-118273609D01*
X223302690Y-118339496D01*
X223209496Y-118432690D01*
X223143609Y-118546809D01*
X223124539Y-118617978D01*
X223109500Y-118674108D01*
X148560000Y-118674108D01*
X148560000Y-117424108D01*
X194427000Y-117424108D01*
X194427000Y-117555892D01*
X194457079Y-117668151D01*
X194461109Y-117683190D01*
X194526996Y-117797309D01*
X194526998Y-117797311D01*
X194527000Y-117797314D01*
X194620186Y-117890500D01*
X194620188Y-117890501D01*
X194620190Y-117890503D01*
X194734310Y-117956390D01*
X194734308Y-117956390D01*
X194734312Y-117956391D01*
X194734314Y-117956392D01*
X194861608Y-117990500D01*
X194861610Y-117990500D01*
X194993390Y-117990500D01*
X194993392Y-117990500D01*
X195120686Y-117956392D01*
X195120688Y-117956390D01*
X195120690Y-117956390D01*
X195234809Y-117890503D01*
X195234809Y-117890502D01*
X195234814Y-117890500D01*
X195328000Y-117797314D01*
X195366350Y-117730890D01*
X195393890Y-117683190D01*
X195393890Y-117683188D01*
X195393892Y-117683186D01*
X195428000Y-117555892D01*
X195428000Y-117424108D01*
X198089500Y-117424108D01*
X198089500Y-117555892D01*
X198119579Y-117668151D01*
X198123609Y-117683190D01*
X198189496Y-117797309D01*
X198189498Y-117797311D01*
X198189500Y-117797314D01*
X198282686Y-117890500D01*
X198282688Y-117890501D01*
X198282690Y-117890503D01*
X198396810Y-117956390D01*
X198396808Y-117956390D01*
X198396812Y-117956391D01*
X198396814Y-117956392D01*
X198524108Y-117990500D01*
X198524110Y-117990500D01*
X198655890Y-117990500D01*
X198655892Y-117990500D01*
X198783186Y-117956392D01*
X198783188Y-117956390D01*
X198783190Y-117956390D01*
X198897309Y-117890503D01*
X198897309Y-117890502D01*
X198897314Y-117890500D01*
X198990500Y-117797314D01*
X199028850Y-117730890D01*
X199056390Y-117683190D01*
X199056390Y-117683188D01*
X199056392Y-117683186D01*
X199090500Y-117555892D01*
X199090500Y-117424108D01*
X199056392Y-117296814D01*
X199056390Y-117296811D01*
X199056390Y-117296809D01*
X198990503Y-117182690D01*
X198990501Y-117182688D01*
X198990500Y-117182686D01*
X198944346Y-117136532D01*
X202394500Y-117136532D01*
X202394500Y-117343467D01*
X202434869Y-117546418D01*
X202514058Y-117737597D01*
X202594635Y-117858190D01*
X202629023Y-117909655D01*
X202775345Y-118055977D01*
X202947402Y-118170941D01*
X203138580Y-118250130D01*
X203341535Y-118290500D01*
X203341536Y-118290500D01*
X203548464Y-118290500D01*
X203548465Y-118290500D01*
X203751420Y-118250130D01*
X203942598Y-118170941D01*
X204114655Y-118055977D01*
X204260977Y-117909655D01*
X204375941Y-117737598D01*
X204455130Y-117546420D01*
X204495500Y-117343465D01*
X204495500Y-117136535D01*
X204495499Y-117136532D01*
X204934500Y-117136532D01*
X204934500Y-117343467D01*
X204974869Y-117546418D01*
X205054058Y-117737597D01*
X205134635Y-117858190D01*
X205169023Y-117909655D01*
X205315345Y-118055977D01*
X205487402Y-118170941D01*
X205678580Y-118250130D01*
X205881535Y-118290500D01*
X205881536Y-118290500D01*
X206088464Y-118290500D01*
X206088465Y-118290500D01*
X206291420Y-118250130D01*
X206482598Y-118170941D01*
X206654655Y-118055977D01*
X206800977Y-117909655D01*
X206915941Y-117737598D01*
X206995130Y-117546420D01*
X207035500Y-117343465D01*
X207035500Y-117136535D01*
X206995130Y-116933580D01*
X206915941Y-116742402D01*
X206800977Y-116570345D01*
X206654655Y-116424023D01*
X206654651Y-116424020D01*
X206574182Y-116370253D01*
X207474500Y-116370253D01*
X207474500Y-118109746D01*
X207474501Y-118109758D01*
X207486132Y-118168227D01*
X207486134Y-118168233D01*
X207488858Y-118172309D01*
X207530448Y-118234552D01*
X207596769Y-118278867D01*
X207641231Y-118287711D01*
X207655241Y-118290498D01*
X207655246Y-118290498D01*
X207655252Y-118290500D01*
X207655253Y-118290500D01*
X209394747Y-118290500D01*
X209394748Y-118290500D01*
X209453231Y-118278867D01*
X209519552Y-118234552D01*
X209563867Y-118168231D01*
X209575500Y-118109748D01*
X209575500Y-117349108D01*
X214359500Y-117349108D01*
X214359500Y-117480892D01*
X214379596Y-117555892D01*
X214393609Y-117608190D01*
X214459496Y-117722309D01*
X214459498Y-117722311D01*
X214459500Y-117722314D01*
X214552686Y-117815500D01*
X214552688Y-117815501D01*
X214552690Y-117815503D01*
X214666810Y-117881390D01*
X214666808Y-117881390D01*
X214666812Y-117881391D01*
X214666814Y-117881392D01*
X214794108Y-117915500D01*
X214794110Y-117915500D01*
X214925890Y-117915500D01*
X214925892Y-117915500D01*
X215053186Y-117881392D01*
X215053188Y-117881390D01*
X215053190Y-117881390D01*
X215167309Y-117815503D01*
X215167309Y-117815502D01*
X215167314Y-117815500D01*
X215260500Y-117722314D01*
X215326392Y-117608186D01*
X215328824Y-117599108D01*
X216659500Y-117599108D01*
X216659500Y-117730892D01*
X216682171Y-117815503D01*
X216693609Y-117858190D01*
X216759496Y-117972309D01*
X216759498Y-117972311D01*
X216759500Y-117972314D01*
X216852686Y-118065500D01*
X216852688Y-118065501D01*
X216852690Y-118065503D01*
X216966810Y-118131390D01*
X216966808Y-118131390D01*
X216966812Y-118131391D01*
X216966814Y-118131392D01*
X217094108Y-118165500D01*
X217094110Y-118165500D01*
X217225890Y-118165500D01*
X217225892Y-118165500D01*
X217353186Y-118131392D01*
X217353188Y-118131390D01*
X217353190Y-118131390D01*
X217467309Y-118065503D01*
X217467309Y-118065502D01*
X217467314Y-118065500D01*
X217560500Y-117972314D01*
X217589368Y-117922314D01*
X217626390Y-117858190D01*
X217626390Y-117858188D01*
X217626392Y-117858186D01*
X217660500Y-117730892D01*
X217660500Y-117599108D01*
X218659500Y-117599108D01*
X218659500Y-117730892D01*
X218682171Y-117815503D01*
X218693609Y-117858190D01*
X218759496Y-117972309D01*
X218759498Y-117972311D01*
X218759500Y-117972314D01*
X218852686Y-118065500D01*
X218852688Y-118065501D01*
X218852690Y-118065503D01*
X218966810Y-118131390D01*
X218966808Y-118131390D01*
X218966812Y-118131391D01*
X218966814Y-118131392D01*
X219094108Y-118165500D01*
X219094110Y-118165500D01*
X219225890Y-118165500D01*
X219225892Y-118165500D01*
X219353186Y-118131392D01*
X219353188Y-118131390D01*
X219353190Y-118131390D01*
X219467309Y-118065503D01*
X219467309Y-118065502D01*
X219467314Y-118065500D01*
X219560500Y-117972314D01*
X219589368Y-117922314D01*
X219626390Y-117858190D01*
X219626390Y-117858188D01*
X219626392Y-117858186D01*
X219660500Y-117730892D01*
X219660500Y-117599108D01*
X219647103Y-117549108D01*
X224709500Y-117549108D01*
X224709500Y-117680892D01*
X224724694Y-117737597D01*
X224743609Y-117808190D01*
X224809496Y-117922309D01*
X224809498Y-117922311D01*
X224809500Y-117922314D01*
X224902686Y-118015500D01*
X224902688Y-118015501D01*
X224902690Y-118015503D01*
X225016810Y-118081390D01*
X225016808Y-118081390D01*
X225016812Y-118081391D01*
X225016814Y-118081392D01*
X225144108Y-118115500D01*
X225144110Y-118115500D01*
X225275890Y-118115500D01*
X225275892Y-118115500D01*
X225403186Y-118081392D01*
X225403188Y-118081390D01*
X225403190Y-118081390D01*
X225517309Y-118015503D01*
X225517309Y-118015502D01*
X225517314Y-118015500D01*
X225610500Y-117922314D01*
X225676392Y-117808186D01*
X225678824Y-117799108D01*
X227434500Y-117799108D01*
X227434500Y-117930892D01*
X227457171Y-118015503D01*
X227468609Y-118058190D01*
X227534496Y-118172309D01*
X227534498Y-118172311D01*
X227534500Y-118172314D01*
X227627686Y-118265500D01*
X227627688Y-118265501D01*
X227627690Y-118265503D01*
X227741810Y-118331390D01*
X227741808Y-118331390D01*
X227741812Y-118331391D01*
X227741814Y-118331392D01*
X227869108Y-118365500D01*
X227869110Y-118365500D01*
X228000890Y-118365500D01*
X228000892Y-118365500D01*
X228128186Y-118331392D01*
X228128188Y-118331390D01*
X228128190Y-118331390D01*
X228242309Y-118265503D01*
X228242309Y-118265502D01*
X228242314Y-118265500D01*
X228335500Y-118172314D01*
X228339434Y-118165500D01*
X228401390Y-118058190D01*
X228401390Y-118058188D01*
X228401392Y-118058186D01*
X228435500Y-117930892D01*
X228435500Y-117799108D01*
X228401392Y-117671814D01*
X228401390Y-117671811D01*
X228401390Y-117671809D01*
X228335503Y-117557690D01*
X228335501Y-117557688D01*
X228335500Y-117557686D01*
X228263631Y-117485817D01*
X229504500Y-117485817D01*
X229504500Y-117624183D01*
X229540312Y-117757836D01*
X229609495Y-117877665D01*
X229707335Y-117975505D01*
X229827164Y-118044688D01*
X229960817Y-118080500D01*
X229960819Y-118080500D01*
X230099181Y-118080500D01*
X230099183Y-118080500D01*
X230232836Y-118044688D01*
X230352665Y-117975505D01*
X230450505Y-117877665D01*
X230519688Y-117757836D01*
X230555500Y-117624183D01*
X230555500Y-117485817D01*
X230519688Y-117352164D01*
X230450505Y-117232335D01*
X230352665Y-117134495D01*
X230232836Y-117065312D01*
X230099183Y-117029500D01*
X229960817Y-117029500D01*
X229827164Y-117065312D01*
X229707335Y-117134495D01*
X229609495Y-117232335D01*
X229540312Y-117352164D01*
X229504500Y-117485817D01*
X228263631Y-117485817D01*
X228242314Y-117464500D01*
X228242311Y-117464498D01*
X228242309Y-117464496D01*
X228128189Y-117398609D01*
X228128191Y-117398609D01*
X228078799Y-117385375D01*
X228000892Y-117364500D01*
X227869108Y-117364500D01*
X227791200Y-117385375D01*
X227741809Y-117398609D01*
X227627690Y-117464496D01*
X227534496Y-117557690D01*
X227468609Y-117671809D01*
X227465561Y-117683186D01*
X227434500Y-117799108D01*
X225678824Y-117799108D01*
X225710500Y-117680892D01*
X225710500Y-117549108D01*
X225676392Y-117421814D01*
X225676390Y-117421811D01*
X225676390Y-117421809D01*
X225610503Y-117307690D01*
X225610501Y-117307688D01*
X225610500Y-117307686D01*
X225517314Y-117214500D01*
X225517311Y-117214498D01*
X225517309Y-117214496D01*
X225403189Y-117148609D01*
X225403191Y-117148609D01*
X225350515Y-117134495D01*
X225275892Y-117114500D01*
X225144108Y-117114500D01*
X225069485Y-117134495D01*
X225016809Y-117148609D01*
X224902690Y-117214496D01*
X224809496Y-117307690D01*
X224743609Y-117421809D01*
X224732170Y-117464500D01*
X224709500Y-117549108D01*
X219647103Y-117549108D01*
X219626392Y-117471814D01*
X219626390Y-117471811D01*
X219626390Y-117471809D01*
X219560503Y-117357690D01*
X219560501Y-117357688D01*
X219560500Y-117357686D01*
X219467314Y-117264500D01*
X219467311Y-117264498D01*
X219467309Y-117264496D01*
X219353189Y-117198609D01*
X219353191Y-117198609D01*
X219303799Y-117185375D01*
X219225892Y-117164500D01*
X219094108Y-117164500D01*
X219016200Y-117185375D01*
X218966809Y-117198609D01*
X218852690Y-117264496D01*
X218759496Y-117357690D01*
X218693609Y-117471809D01*
X218674539Y-117542978D01*
X218659500Y-117599108D01*
X217660500Y-117599108D01*
X217626392Y-117471814D01*
X217626390Y-117471811D01*
X217626390Y-117471809D01*
X217560503Y-117357690D01*
X217560501Y-117357688D01*
X217560500Y-117357686D01*
X217467314Y-117264500D01*
X217467311Y-117264498D01*
X217467309Y-117264496D01*
X217353189Y-117198609D01*
X217353191Y-117198609D01*
X217303799Y-117185375D01*
X217225892Y-117164500D01*
X217094108Y-117164500D01*
X217016200Y-117185375D01*
X216966809Y-117198609D01*
X216852690Y-117264496D01*
X216759496Y-117357690D01*
X216693609Y-117471809D01*
X216674539Y-117542978D01*
X216659500Y-117599108D01*
X215328824Y-117599108D01*
X215360500Y-117480892D01*
X215360500Y-117349108D01*
X215326392Y-117221814D01*
X215326390Y-117221811D01*
X215326390Y-117221809D01*
X215260503Y-117107690D01*
X215260501Y-117107688D01*
X215260500Y-117107686D01*
X215167314Y-117014500D01*
X215167311Y-117014498D01*
X215167309Y-117014496D01*
X215053189Y-116948609D01*
X215053191Y-116948609D01*
X214997100Y-116933580D01*
X214925892Y-116914500D01*
X214794108Y-116914500D01*
X214722900Y-116933580D01*
X214666809Y-116948609D01*
X214552690Y-117014496D01*
X214459496Y-117107690D01*
X214393609Y-117221809D01*
X214382170Y-117264500D01*
X214359500Y-117349108D01*
X209575500Y-117349108D01*
X209575500Y-116514108D01*
X211109500Y-116514108D01*
X211109500Y-116645892D01*
X211135360Y-116742402D01*
X211143609Y-116773190D01*
X211209496Y-116887309D01*
X211209498Y-116887311D01*
X211209500Y-116887314D01*
X211302686Y-116980500D01*
X211302688Y-116980501D01*
X211302690Y-116980503D01*
X211416810Y-117046390D01*
X211416808Y-117046390D01*
X211416812Y-117046391D01*
X211416814Y-117046392D01*
X211544108Y-117080500D01*
X211544110Y-117080500D01*
X211675890Y-117080500D01*
X211675892Y-117080500D01*
X211803186Y-117046392D01*
X211803188Y-117046390D01*
X211803190Y-117046390D01*
X211917309Y-116980503D01*
X211917309Y-116980502D01*
X211917314Y-116980500D01*
X211917317Y-116980496D01*
X211922460Y-116976551D01*
X211923818Y-116978321D01*
X211969513Y-116955040D01*
X212029945Y-116964611D01*
X212047124Y-116977092D01*
X212047540Y-116976551D01*
X212052690Y-116980503D01*
X212166810Y-117046390D01*
X212166808Y-117046390D01*
X212166812Y-117046391D01*
X212166814Y-117046392D01*
X212294108Y-117080500D01*
X212294110Y-117080500D01*
X212425890Y-117080500D01*
X212425892Y-117080500D01*
X212553186Y-117046392D01*
X212553188Y-117046390D01*
X212553190Y-117046390D01*
X212667309Y-116980503D01*
X212667309Y-116980502D01*
X212667314Y-116980500D01*
X212760500Y-116887314D01*
X212826392Y-116773186D01*
X212860500Y-116645892D01*
X212860500Y-116624108D01*
X217659500Y-116624108D01*
X217659500Y-116755892D01*
X217664134Y-116773186D01*
X217693609Y-116883190D01*
X217759496Y-116997309D01*
X217759498Y-116997311D01*
X217759500Y-116997314D01*
X217852686Y-117090500D01*
X217852688Y-117090501D01*
X217852690Y-117090503D01*
X217966810Y-117156390D01*
X217966808Y-117156390D01*
X217966812Y-117156391D01*
X217966814Y-117156392D01*
X218094108Y-117190500D01*
X218094110Y-117190500D01*
X218225890Y-117190500D01*
X218225892Y-117190500D01*
X218353186Y-117156392D01*
X218353188Y-117156390D01*
X218353190Y-117156390D01*
X218467309Y-117090503D01*
X218467309Y-117090502D01*
X218467314Y-117090500D01*
X218560500Y-116997314D01*
X218560503Y-116997309D01*
X218626390Y-116883190D01*
X218626390Y-116883188D01*
X218626392Y-116883186D01*
X218660500Y-116755892D01*
X218660500Y-116624108D01*
X218626392Y-116496814D01*
X218626390Y-116496811D01*
X218626390Y-116496809D01*
X218560503Y-116382690D01*
X218560501Y-116382688D01*
X218560500Y-116382686D01*
X218467314Y-116289500D01*
X218467311Y-116289498D01*
X218467309Y-116289496D01*
X218353189Y-116223609D01*
X218353191Y-116223609D01*
X218283601Y-116204963D01*
X218225892Y-116189500D01*
X218094108Y-116189500D01*
X218036399Y-116204963D01*
X217966809Y-116223609D01*
X217852690Y-116289496D01*
X217759496Y-116382690D01*
X217693609Y-116496809D01*
X217693608Y-116496814D01*
X217659500Y-116624108D01*
X212860500Y-116624108D01*
X212860500Y-116514108D01*
X212826392Y-116386814D01*
X212826390Y-116386811D01*
X212826390Y-116386809D01*
X212760503Y-116272690D01*
X212760501Y-116272688D01*
X212760500Y-116272686D01*
X212667314Y-116179500D01*
X212667311Y-116179498D01*
X212667309Y-116179496D01*
X212553189Y-116113609D01*
X212553191Y-116113609D01*
X212503799Y-116100375D01*
X212425892Y-116079500D01*
X212294108Y-116079500D01*
X212216200Y-116100375D01*
X212166809Y-116113609D01*
X212052690Y-116179496D01*
X212047540Y-116183449D01*
X212046183Y-116181680D01*
X212000465Y-116204963D01*
X211940036Y-116195378D01*
X211922874Y-116182909D01*
X211922460Y-116183449D01*
X211917309Y-116179496D01*
X211803189Y-116113609D01*
X211803191Y-116113609D01*
X211753799Y-116100375D01*
X211675892Y-116079500D01*
X211544108Y-116079500D01*
X211466200Y-116100375D01*
X211416809Y-116113609D01*
X211302690Y-116179496D01*
X211209496Y-116272690D01*
X211143609Y-116386809D01*
X211143608Y-116386814D01*
X211109500Y-116514108D01*
X209575500Y-116514108D01*
X209575500Y-116370252D01*
X209563867Y-116311769D01*
X209519552Y-116245448D01*
X209519548Y-116245445D01*
X209453233Y-116201134D01*
X209453231Y-116201133D01*
X209453228Y-116201132D01*
X209453227Y-116201132D01*
X209394758Y-116189501D01*
X209394748Y-116189500D01*
X207655252Y-116189500D01*
X207655251Y-116189500D01*
X207655241Y-116189501D01*
X207596772Y-116201132D01*
X207596766Y-116201134D01*
X207530451Y-116245445D01*
X207530445Y-116245451D01*
X207486134Y-116311766D01*
X207486132Y-116311772D01*
X207474501Y-116370241D01*
X207474500Y-116370253D01*
X206574182Y-116370253D01*
X206482597Y-116309058D01*
X206291418Y-116229869D01*
X206088467Y-116189500D01*
X206088465Y-116189500D01*
X205881535Y-116189500D01*
X205881532Y-116189500D01*
X205678581Y-116229869D01*
X205487402Y-116309058D01*
X205315348Y-116424020D01*
X205169020Y-116570348D01*
X205054058Y-116742402D01*
X204974869Y-116933581D01*
X204934500Y-117136532D01*
X204495499Y-117136532D01*
X204455130Y-116933580D01*
X204375941Y-116742402D01*
X204260977Y-116570345D01*
X204114655Y-116424023D01*
X204114651Y-116424020D01*
X203942597Y-116309058D01*
X203751418Y-116229869D01*
X203548467Y-116189500D01*
X203548465Y-116189500D01*
X203341535Y-116189500D01*
X203341532Y-116189500D01*
X203138581Y-116229869D01*
X202947402Y-116309058D01*
X202775348Y-116424020D01*
X202629020Y-116570348D01*
X202514058Y-116742402D01*
X202434869Y-116933581D01*
X202394500Y-117136532D01*
X198944346Y-117136532D01*
X198897314Y-117089500D01*
X198897311Y-117089498D01*
X198897309Y-117089496D01*
X198783189Y-117023609D01*
X198783191Y-117023609D01*
X198733799Y-117010375D01*
X198655892Y-116989500D01*
X198524108Y-116989500D01*
X198446200Y-117010375D01*
X198396809Y-117023609D01*
X198282690Y-117089496D01*
X198189496Y-117182690D01*
X198123609Y-117296809D01*
X198111108Y-117343465D01*
X198089500Y-117424108D01*
X195428000Y-117424108D01*
X195393892Y-117296814D01*
X195393890Y-117296811D01*
X195393890Y-117296809D01*
X195328003Y-117182690D01*
X195328001Y-117182688D01*
X195328000Y-117182686D01*
X195234814Y-117089500D01*
X195234811Y-117089498D01*
X195234809Y-117089496D01*
X195120689Y-117023609D01*
X195120691Y-117023609D01*
X195071299Y-117010375D01*
X194993392Y-116989500D01*
X194861608Y-116989500D01*
X194783700Y-117010375D01*
X194734309Y-117023609D01*
X194620190Y-117089496D01*
X194526996Y-117182690D01*
X194461109Y-117296809D01*
X194448608Y-117343465D01*
X194427000Y-117424108D01*
X148560000Y-117424108D01*
X148560000Y-115599108D01*
X216659500Y-115599108D01*
X216659500Y-115730892D01*
X216689579Y-115843151D01*
X216693609Y-115858190D01*
X216759496Y-115972309D01*
X216759498Y-115972311D01*
X216759500Y-115972314D01*
X216852686Y-116065500D01*
X216852688Y-116065501D01*
X216852690Y-116065503D01*
X216966810Y-116131390D01*
X216966808Y-116131390D01*
X216966812Y-116131391D01*
X216966814Y-116131392D01*
X217094108Y-116165500D01*
X217094110Y-116165500D01*
X217225890Y-116165500D01*
X217225892Y-116165500D01*
X217353186Y-116131392D01*
X217353188Y-116131390D01*
X217353190Y-116131390D01*
X217467309Y-116065503D01*
X217467309Y-116065502D01*
X217467314Y-116065500D01*
X217560500Y-115972314D01*
X217626392Y-115858186D01*
X217660500Y-115730892D01*
X217660500Y-115599108D01*
X218659500Y-115599108D01*
X218659500Y-115730892D01*
X218689579Y-115843151D01*
X218693609Y-115858190D01*
X218759496Y-115972309D01*
X218759498Y-115972311D01*
X218759500Y-115972314D01*
X218852686Y-116065500D01*
X218852688Y-116065501D01*
X218852690Y-116065503D01*
X218966810Y-116131390D01*
X218966808Y-116131390D01*
X218966812Y-116131391D01*
X218966814Y-116131392D01*
X219094108Y-116165500D01*
X219094110Y-116165500D01*
X219225890Y-116165500D01*
X219225892Y-116165500D01*
X219353186Y-116131392D01*
X219353188Y-116131390D01*
X219353190Y-116131390D01*
X219467309Y-116065503D01*
X219467309Y-116065502D01*
X219467314Y-116065500D01*
X219560500Y-115972314D01*
X219626392Y-115858186D01*
X219660500Y-115730892D01*
X219660500Y-115599108D01*
X219626392Y-115471814D01*
X219626390Y-115471811D01*
X219626390Y-115471809D01*
X219560503Y-115357690D01*
X219560501Y-115357688D01*
X219560500Y-115357686D01*
X219467314Y-115264500D01*
X219467311Y-115264498D01*
X219467309Y-115264496D01*
X219353189Y-115198609D01*
X219353191Y-115198609D01*
X219303799Y-115185375D01*
X219225892Y-115164500D01*
X219094108Y-115164500D01*
X219016200Y-115185375D01*
X218966809Y-115198609D01*
X218852690Y-115264496D01*
X218759496Y-115357690D01*
X218693609Y-115471809D01*
X218693608Y-115471814D01*
X218659500Y-115599108D01*
X217660500Y-115599108D01*
X217626392Y-115471814D01*
X217626390Y-115471811D01*
X217626390Y-115471809D01*
X217560503Y-115357690D01*
X217560501Y-115357688D01*
X217560500Y-115357686D01*
X217467314Y-115264500D01*
X217467311Y-115264498D01*
X217467309Y-115264496D01*
X217353189Y-115198609D01*
X217353191Y-115198609D01*
X217303799Y-115185375D01*
X217225892Y-115164500D01*
X217094108Y-115164500D01*
X217016200Y-115185375D01*
X216966809Y-115198609D01*
X216852690Y-115264496D01*
X216759496Y-115357690D01*
X216693609Y-115471809D01*
X216693608Y-115471814D01*
X216659500Y-115599108D01*
X148560000Y-115599108D01*
X148560000Y-113601532D01*
X202404500Y-113601532D01*
X202404500Y-113808467D01*
X202444869Y-114011418D01*
X202524058Y-114202597D01*
X202632906Y-114365500D01*
X202639023Y-114374655D01*
X202785345Y-114520977D01*
X202957402Y-114635941D01*
X203148580Y-114715130D01*
X203351535Y-114755500D01*
X203351536Y-114755500D01*
X203558464Y-114755500D01*
X203558465Y-114755500D01*
X203761420Y-114715130D01*
X203952598Y-114635941D01*
X204124655Y-114520977D01*
X204270977Y-114374655D01*
X204385941Y-114202598D01*
X204465130Y-114011420D01*
X204505500Y-113808465D01*
X204505500Y-113601535D01*
X204505499Y-113601532D01*
X204944500Y-113601532D01*
X204944500Y-113808467D01*
X204984869Y-114011418D01*
X205064058Y-114202597D01*
X205172906Y-114365500D01*
X205179023Y-114374655D01*
X205325345Y-114520977D01*
X205497402Y-114635941D01*
X205688580Y-114715130D01*
X205891535Y-114755500D01*
X205891536Y-114755500D01*
X206098464Y-114755500D01*
X206098465Y-114755500D01*
X206301420Y-114715130D01*
X206492598Y-114635941D01*
X206664655Y-114520977D01*
X206810977Y-114374655D01*
X206925941Y-114202598D01*
X207005130Y-114011420D01*
X207045500Y-113808465D01*
X207045500Y-113601535D01*
X207005130Y-113398580D01*
X206925941Y-113207402D01*
X206810977Y-113035345D01*
X206664655Y-112889023D01*
X206660839Y-112886473D01*
X206584182Y-112835253D01*
X207484500Y-112835253D01*
X207484500Y-114574746D01*
X207484501Y-114574758D01*
X207496132Y-114633227D01*
X207496134Y-114633233D01*
X207540445Y-114699548D01*
X207540448Y-114699552D01*
X207606769Y-114743867D01*
X207651231Y-114752711D01*
X207665241Y-114755498D01*
X207665246Y-114755498D01*
X207665252Y-114755500D01*
X207665253Y-114755500D01*
X209404747Y-114755500D01*
X209404748Y-114755500D01*
X209463231Y-114743867D01*
X209529552Y-114699552D01*
X209573867Y-114633231D01*
X209585500Y-114574748D01*
X209585500Y-113749108D01*
X214029500Y-113749108D01*
X214029500Y-113880892D01*
X214059579Y-113993151D01*
X214063609Y-114008190D01*
X214129496Y-114122309D01*
X214129498Y-114122311D01*
X214129500Y-114122314D01*
X214222686Y-114215500D01*
X214222688Y-114215501D01*
X214222690Y-114215503D01*
X214336810Y-114281390D01*
X214336808Y-114281390D01*
X214336812Y-114281391D01*
X214336814Y-114281392D01*
X214464108Y-114315500D01*
X214464110Y-114315500D01*
X214595890Y-114315500D01*
X214595892Y-114315500D01*
X214723186Y-114281392D01*
X214723188Y-114281390D01*
X214723190Y-114281390D01*
X214837309Y-114215503D01*
X214837309Y-114215502D01*
X214837314Y-114215500D01*
X214930500Y-114122314D01*
X214967522Y-114058190D01*
X214996390Y-114008190D01*
X214996390Y-114008188D01*
X214996392Y-114008186D01*
X215030500Y-113880892D01*
X215030500Y-113749108D01*
X214996392Y-113621814D01*
X214996390Y-113621811D01*
X214996390Y-113621809D01*
X214930503Y-113507690D01*
X214930501Y-113507688D01*
X214930500Y-113507686D01*
X214837314Y-113414500D01*
X214837311Y-113414498D01*
X214837309Y-113414496D01*
X214723189Y-113348609D01*
X214723191Y-113348609D01*
X214657068Y-113330892D01*
X214595892Y-113314500D01*
X214464108Y-113314500D01*
X214402932Y-113330892D01*
X214336809Y-113348609D01*
X214222690Y-113414496D01*
X214129496Y-113507690D01*
X214063609Y-113621809D01*
X214056775Y-113647314D01*
X214029500Y-113749108D01*
X209585500Y-113749108D01*
X209585500Y-113199108D01*
X216209500Y-113199108D01*
X216209500Y-113330892D01*
X216239579Y-113443151D01*
X216243609Y-113458190D01*
X216309496Y-113572309D01*
X216309498Y-113572311D01*
X216309500Y-113572314D01*
X216402686Y-113665500D01*
X216402688Y-113665501D01*
X216402690Y-113665503D01*
X216516810Y-113731390D01*
X216516808Y-113731390D01*
X216516812Y-113731391D01*
X216516814Y-113731392D01*
X216644108Y-113765500D01*
X216644110Y-113765500D01*
X216775890Y-113765500D01*
X216775892Y-113765500D01*
X216903186Y-113731392D01*
X216903188Y-113731390D01*
X216903190Y-113731390D01*
X217017309Y-113665503D01*
X217017309Y-113665502D01*
X217017314Y-113665500D01*
X217110500Y-113572314D01*
X217124989Y-113547218D01*
X217170456Y-113506278D01*
X217231306Y-113499881D01*
X217280726Y-113526712D01*
X217311100Y-113557086D01*
X217311102Y-113557087D01*
X217311104Y-113557089D01*
X217425224Y-113622976D01*
X217425222Y-113622976D01*
X217425226Y-113622977D01*
X217425228Y-113622978D01*
X217552522Y-113657086D01*
X217552524Y-113657086D01*
X217684304Y-113657086D01*
X217684306Y-113657086D01*
X217811600Y-113622978D01*
X217811602Y-113622976D01*
X217811604Y-113622976D01*
X217925723Y-113557089D01*
X217925723Y-113557088D01*
X217925728Y-113557086D01*
X218018914Y-113463900D01*
X218047435Y-113414500D01*
X218084804Y-113349776D01*
X218084804Y-113349774D01*
X218084806Y-113349772D01*
X218118914Y-113222478D01*
X218118914Y-113099108D01*
X223984500Y-113099108D01*
X223984500Y-113230892D01*
X224011294Y-113330890D01*
X224018609Y-113358190D01*
X224084496Y-113472309D01*
X224084498Y-113472311D01*
X224084500Y-113472314D01*
X224177686Y-113565500D01*
X224236959Y-113599721D01*
X224277901Y-113645190D01*
X224284297Y-113706041D01*
X224283090Y-113711064D01*
X224259500Y-113799108D01*
X224259500Y-113930892D01*
X224280211Y-114008186D01*
X224293609Y-114058190D01*
X224359496Y-114172309D01*
X224359498Y-114172311D01*
X224359500Y-114172314D01*
X224452686Y-114265500D01*
X224452688Y-114265501D01*
X224452690Y-114265503D01*
X224566810Y-114331390D01*
X224566808Y-114331390D01*
X224566812Y-114331391D01*
X224566814Y-114331392D01*
X224694108Y-114365500D01*
X224694110Y-114365500D01*
X224825890Y-114365500D01*
X224825892Y-114365500D01*
X224953186Y-114331392D01*
X224953188Y-114331390D01*
X224953190Y-114331390D01*
X225067309Y-114265503D01*
X225067309Y-114265502D01*
X225067314Y-114265500D01*
X225160500Y-114172314D01*
X225189368Y-114122314D01*
X225226390Y-114058190D01*
X225226390Y-114058188D01*
X225226392Y-114058186D01*
X225260500Y-113930892D01*
X225260500Y-113930889D01*
X225261347Y-113924458D01*
X225263503Y-113924741D01*
X225279407Y-113875795D01*
X225328907Y-113839831D01*
X225333836Y-113838371D01*
X225453186Y-113806392D01*
X225567314Y-113740500D01*
X225660500Y-113647314D01*
X225669693Y-113631392D01*
X225726390Y-113533190D01*
X225726390Y-113533188D01*
X225726392Y-113533186D01*
X225760500Y-113405892D01*
X225760500Y-113274108D01*
X225726392Y-113146814D01*
X225726390Y-113146811D01*
X225726390Y-113146809D01*
X225660503Y-113032690D01*
X225660501Y-113032688D01*
X225660500Y-113032686D01*
X225567314Y-112939500D01*
X225567311Y-112939498D01*
X225567309Y-112939496D01*
X225453189Y-112873609D01*
X225453191Y-112873609D01*
X225403799Y-112860375D01*
X225325892Y-112839500D01*
X225194108Y-112839500D01*
X225130461Y-112856554D01*
X225066812Y-112873608D01*
X225023459Y-112898639D01*
X224963610Y-112911360D01*
X224907715Y-112886473D01*
X224888223Y-112862403D01*
X224885502Y-112857690D01*
X224885500Y-112857686D01*
X224792314Y-112764500D01*
X224792311Y-112764498D01*
X224792309Y-112764496D01*
X224678189Y-112698609D01*
X224678191Y-112698609D01*
X224628799Y-112685375D01*
X224550892Y-112664500D01*
X224419108Y-112664500D01*
X224341200Y-112685375D01*
X224291809Y-112698609D01*
X224177690Y-112764496D01*
X224084496Y-112857690D01*
X224018609Y-112971809D01*
X224018608Y-112971814D01*
X223984500Y-113099108D01*
X218118914Y-113099108D01*
X218118914Y-113090694D01*
X218084806Y-112963400D01*
X218084804Y-112963397D01*
X218084804Y-112963395D01*
X218018917Y-112849276D01*
X218018915Y-112849274D01*
X218018914Y-112849272D01*
X217925728Y-112756086D01*
X217925725Y-112756084D01*
X217925723Y-112756082D01*
X217811603Y-112690195D01*
X217811605Y-112690195D01*
X217762213Y-112676961D01*
X217684306Y-112656086D01*
X217552522Y-112656086D01*
X217474614Y-112676961D01*
X217425223Y-112690195D01*
X217311104Y-112756082D01*
X217217912Y-112849274D01*
X217203424Y-112874368D01*
X217157953Y-112915309D01*
X217097103Y-112921703D01*
X217047686Y-112894872D01*
X217017314Y-112864500D01*
X217017311Y-112864498D01*
X217017309Y-112864496D01*
X216903189Y-112798609D01*
X216903191Y-112798609D01*
X216853799Y-112785375D01*
X216775892Y-112764500D01*
X216644108Y-112764500D01*
X216566200Y-112785375D01*
X216516809Y-112798609D01*
X216402690Y-112864496D01*
X216309496Y-112957690D01*
X216243609Y-113071809D01*
X216236294Y-113099109D01*
X216209500Y-113199108D01*
X209585500Y-113199108D01*
X209585500Y-112835252D01*
X209573867Y-112776769D01*
X209529552Y-112710448D01*
X209511834Y-112698609D01*
X209463233Y-112666134D01*
X209463231Y-112666133D01*
X209463228Y-112666132D01*
X209463227Y-112666132D01*
X209404758Y-112654501D01*
X209404748Y-112654500D01*
X207665252Y-112654500D01*
X207665251Y-112654500D01*
X207665241Y-112654501D01*
X207606772Y-112666132D01*
X207606766Y-112666134D01*
X207540451Y-112710445D01*
X207540445Y-112710451D01*
X207496134Y-112776766D01*
X207496132Y-112776772D01*
X207484501Y-112835241D01*
X207484500Y-112835253D01*
X206584182Y-112835253D01*
X206492597Y-112774058D01*
X206301418Y-112694869D01*
X206098467Y-112654500D01*
X206098465Y-112654500D01*
X205891535Y-112654500D01*
X205891532Y-112654500D01*
X205688581Y-112694869D01*
X205497402Y-112774058D01*
X205325348Y-112889020D01*
X205179020Y-113035348D01*
X205064058Y-113207402D01*
X204984869Y-113398581D01*
X204944500Y-113601532D01*
X204505499Y-113601532D01*
X204465130Y-113398580D01*
X204385941Y-113207402D01*
X204270977Y-113035345D01*
X204124655Y-112889023D01*
X204120839Y-112886473D01*
X203952597Y-112774058D01*
X203761418Y-112694869D01*
X203558467Y-112654500D01*
X203558465Y-112654500D01*
X203351535Y-112654500D01*
X203351532Y-112654500D01*
X203148581Y-112694869D01*
X202957402Y-112774058D01*
X202785348Y-112889020D01*
X202639020Y-113035348D01*
X202524058Y-113207402D01*
X202444869Y-113398581D01*
X202404500Y-113601532D01*
X148560000Y-113601532D01*
X148560000Y-111339000D01*
X148578907Y-111280809D01*
X148628407Y-111244845D01*
X148659000Y-111240000D01*
X149726136Y-111240000D01*
X149784327Y-111258907D01*
G37*
%TD.AperFunction*%
%TD*%
%TA.AperFunction,Conductor*%
%TO.N,GND*%
G36*
X236068691Y-70109407D02*
G01*
X236104655Y-70158907D01*
X236109500Y-70189500D01*
X236109500Y-105491000D01*
X236090593Y-105549191D01*
X236041093Y-105585155D01*
X236010500Y-105590000D01*
X157109500Y-105590000D01*
X157051309Y-105571093D01*
X157015345Y-105521593D01*
X157010500Y-105491000D01*
X157010500Y-104505253D01*
X157010498Y-104505241D01*
X157003839Y-104471766D01*
X156998867Y-104446769D01*
X156954552Y-104380448D01*
X156954548Y-104380445D01*
X156888233Y-104336134D01*
X156888231Y-104336133D01*
X156888228Y-104336132D01*
X156888227Y-104336132D01*
X156829758Y-104324501D01*
X156829748Y-104324500D01*
X155090252Y-104324500D01*
X155090251Y-104324500D01*
X155090241Y-104324501D01*
X155031772Y-104336132D01*
X155031766Y-104336134D01*
X154965451Y-104380445D01*
X154965445Y-104380451D01*
X154921134Y-104446766D01*
X154921132Y-104446772D01*
X154909501Y-104505241D01*
X154909500Y-104505253D01*
X154909500Y-105491000D01*
X154890593Y-105549191D01*
X154841093Y-105585155D01*
X154810500Y-105590000D01*
X78409500Y-105590000D01*
X78351309Y-105571093D01*
X78315345Y-105521593D01*
X78310500Y-105491000D01*
X78310500Y-104530253D01*
X78310498Y-104530241D01*
X78305525Y-104505241D01*
X78298867Y-104471769D01*
X78254552Y-104405448D01*
X78217142Y-104380451D01*
X78188233Y-104361134D01*
X78188231Y-104361133D01*
X78188228Y-104361132D01*
X78188227Y-104361132D01*
X78129758Y-104349501D01*
X78129748Y-104349500D01*
X76390252Y-104349500D01*
X76390251Y-104349500D01*
X76390241Y-104349501D01*
X76331772Y-104361132D01*
X76331766Y-104361134D01*
X76265451Y-104405445D01*
X76265445Y-104405451D01*
X76221134Y-104471766D01*
X76221132Y-104471772D01*
X76209501Y-104530241D01*
X76209500Y-104530253D01*
X76209500Y-105491000D01*
X76190593Y-105549191D01*
X76141093Y-105585155D01*
X76110500Y-105590000D01*
X75309500Y-105590000D01*
X75251309Y-105571093D01*
X75215345Y-105521593D01*
X75210500Y-105491000D01*
X75210500Y-102756532D01*
X76209500Y-102756532D01*
X76209500Y-102963467D01*
X76249869Y-103166418D01*
X76329058Y-103357597D01*
X76444020Y-103529651D01*
X76444023Y-103529655D01*
X76590345Y-103675977D01*
X76762402Y-103790941D01*
X76953580Y-103870130D01*
X77156535Y-103910500D01*
X77156536Y-103910500D01*
X77363464Y-103910500D01*
X77363465Y-103910500D01*
X77566420Y-103870130D01*
X77757598Y-103790941D01*
X77929655Y-103675977D01*
X78075977Y-103529655D01*
X78190941Y-103357598D01*
X78270130Y-103166420D01*
X78310500Y-102963465D01*
X78310500Y-102756535D01*
X78305527Y-102731532D01*
X154909500Y-102731532D01*
X154909500Y-102938467D01*
X154949869Y-103141418D01*
X155029058Y-103332597D01*
X155045763Y-103357598D01*
X155144023Y-103504655D01*
X155290345Y-103650977D01*
X155462402Y-103765941D01*
X155653580Y-103845130D01*
X155856535Y-103885500D01*
X155856536Y-103885500D01*
X156063464Y-103885500D01*
X156063465Y-103885500D01*
X156266420Y-103845130D01*
X156457598Y-103765941D01*
X156629655Y-103650977D01*
X156775977Y-103504655D01*
X156890941Y-103332598D01*
X156970130Y-103141420D01*
X157010500Y-102938465D01*
X157010500Y-102731535D01*
X156970130Y-102528580D01*
X156890941Y-102337402D01*
X156775977Y-102165345D01*
X156629655Y-102019023D01*
X156499170Y-101931836D01*
X156457597Y-101904058D01*
X156266418Y-101824869D01*
X156063467Y-101784500D01*
X156063465Y-101784500D01*
X155856535Y-101784500D01*
X155856532Y-101784500D01*
X155653581Y-101824869D01*
X155462402Y-101904058D01*
X155290348Y-102019020D01*
X155144020Y-102165348D01*
X155029058Y-102337402D01*
X154949869Y-102528581D01*
X154909500Y-102731532D01*
X78305527Y-102731532D01*
X78270130Y-102553580D01*
X78190941Y-102362402D01*
X78075977Y-102190345D01*
X77929655Y-102044023D01*
X77892240Y-102019023D01*
X77757597Y-101929058D01*
X77566418Y-101849869D01*
X77363467Y-101809500D01*
X77363465Y-101809500D01*
X77156535Y-101809500D01*
X77156532Y-101809500D01*
X76953581Y-101849869D01*
X76762402Y-101929058D01*
X76590348Y-102044020D01*
X76444020Y-102190348D01*
X76329058Y-102362402D01*
X76249869Y-102553581D01*
X76209500Y-102756532D01*
X75210500Y-102756532D01*
X75210500Y-101541456D01*
X81009500Y-101541456D01*
X81009500Y-101738543D01*
X81047949Y-101931834D01*
X81047949Y-101931836D01*
X81123367Y-102113913D01*
X81126376Y-102118416D01*
X81232861Y-102277782D01*
X81372218Y-102417139D01*
X81536086Y-102526632D01*
X81718165Y-102602051D01*
X81911459Y-102640500D01*
X81911460Y-102640500D01*
X82108540Y-102640500D01*
X82108541Y-102640500D01*
X82301835Y-102602051D01*
X82483914Y-102526632D01*
X82647782Y-102417139D01*
X82787139Y-102277782D01*
X82896632Y-102113914D01*
X82972051Y-101931835D01*
X83010500Y-101738541D01*
X83010500Y-101566081D01*
X150059500Y-101566081D01*
X150059500Y-101713918D01*
X150088342Y-101858914D01*
X150144915Y-101995493D01*
X150144916Y-101995495D01*
X150227049Y-102118416D01*
X150331584Y-102222951D01*
X150454505Y-102305084D01*
X150591087Y-102361658D01*
X150736082Y-102390500D01*
X150736083Y-102390500D01*
X150883917Y-102390500D01*
X150883918Y-102390500D01*
X151028913Y-102361658D01*
X151165495Y-102305084D01*
X151288416Y-102222951D01*
X151392951Y-102118416D01*
X151475084Y-101995495D01*
X151531658Y-101858913D01*
X151560500Y-101713918D01*
X151560500Y-101566082D01*
X151560499Y-101566080D01*
X151560499Y-101566074D01*
X151558479Y-101555919D01*
X151558477Y-101555910D01*
X151555602Y-101541456D01*
X160159500Y-101541456D01*
X160159500Y-101738543D01*
X160197949Y-101931834D01*
X160197949Y-101931836D01*
X160273367Y-102113913D01*
X160276376Y-102118416D01*
X160382861Y-102277782D01*
X160522218Y-102417139D01*
X160686086Y-102526632D01*
X160868165Y-102602051D01*
X161061459Y-102640500D01*
X161061460Y-102640500D01*
X161258540Y-102640500D01*
X161258541Y-102640500D01*
X161451835Y-102602051D01*
X161633914Y-102526632D01*
X161797782Y-102417139D01*
X161937139Y-102277782D01*
X162046632Y-102113914D01*
X162122051Y-101931835D01*
X162160500Y-101738541D01*
X162160500Y-101566081D01*
X229209500Y-101566081D01*
X229209500Y-101713918D01*
X229238342Y-101858914D01*
X229294915Y-101995493D01*
X229294916Y-101995495D01*
X229377049Y-102118416D01*
X229481584Y-102222951D01*
X229604505Y-102305084D01*
X229741087Y-102361658D01*
X229886082Y-102390500D01*
X229886083Y-102390500D01*
X230033917Y-102390500D01*
X230033918Y-102390500D01*
X230178913Y-102361658D01*
X230315495Y-102305084D01*
X230438416Y-102222951D01*
X230542951Y-102118416D01*
X230625084Y-101995495D01*
X230681658Y-101858913D01*
X230710500Y-101713918D01*
X230710500Y-101566082D01*
X230681658Y-101421087D01*
X230625084Y-101284505D01*
X230542951Y-101161584D01*
X230438416Y-101057049D01*
X230315495Y-100974916D01*
X230290723Y-100964655D01*
X230178914Y-100918342D01*
X230033918Y-100889500D01*
X229886082Y-100889500D01*
X229886081Y-100889500D01*
X229741085Y-100918342D01*
X229604506Y-100974915D01*
X229481585Y-101057048D01*
X229377048Y-101161585D01*
X229294915Y-101284506D01*
X229238342Y-101421085D01*
X229209500Y-101566081D01*
X162160500Y-101566081D01*
X162160500Y-101541459D01*
X162122051Y-101348165D01*
X162046632Y-101166086D01*
X161937139Y-101002218D01*
X161797782Y-100862861D01*
X161633914Y-100753368D01*
X161633915Y-100753368D01*
X161633913Y-100753367D01*
X161451835Y-100677949D01*
X161258543Y-100639500D01*
X161258541Y-100639500D01*
X161061459Y-100639500D01*
X161061456Y-100639500D01*
X160868165Y-100677949D01*
X160868163Y-100677949D01*
X160686086Y-100753367D01*
X160522218Y-100862861D01*
X160522214Y-100862864D01*
X160382864Y-101002214D01*
X160382861Y-101002218D01*
X160273367Y-101166086D01*
X160197949Y-101348163D01*
X160197949Y-101348165D01*
X160159500Y-101541456D01*
X151555602Y-101541456D01*
X151548003Y-101503260D01*
X151531658Y-101421087D01*
X151475084Y-101284505D01*
X151392951Y-101161584D01*
X151288416Y-101057049D01*
X151165495Y-100974916D01*
X151140723Y-100964655D01*
X151028914Y-100918342D01*
X150883918Y-100889500D01*
X150736082Y-100889500D01*
X150736081Y-100889500D01*
X150591085Y-100918342D01*
X150454506Y-100974915D01*
X150331585Y-101057048D01*
X150227048Y-101161585D01*
X150144915Y-101284506D01*
X150088342Y-101421085D01*
X150059500Y-101566081D01*
X83010500Y-101566081D01*
X83010500Y-101541459D01*
X82972051Y-101348165D01*
X82896632Y-101166086D01*
X82787139Y-101002218D01*
X82647782Y-100862861D01*
X82483914Y-100753368D01*
X82483915Y-100753368D01*
X82483913Y-100753367D01*
X82301835Y-100677949D01*
X82108543Y-100639500D01*
X82108541Y-100639500D01*
X81911459Y-100639500D01*
X81911456Y-100639500D01*
X81718165Y-100677949D01*
X81718163Y-100677949D01*
X81536086Y-100753367D01*
X81372218Y-100862861D01*
X81372214Y-100862864D01*
X81232864Y-101002214D01*
X81232861Y-101002218D01*
X81123367Y-101166086D01*
X81047949Y-101348163D01*
X81047949Y-101348165D01*
X81009500Y-101541456D01*
X75210500Y-101541456D01*
X75210500Y-100216532D01*
X76209500Y-100216532D01*
X76209500Y-100423467D01*
X76249869Y-100626418D01*
X76329058Y-100817597D01*
X76444020Y-100989651D01*
X76444023Y-100989655D01*
X76590345Y-101135977D01*
X76762402Y-101250941D01*
X76953580Y-101330130D01*
X77156535Y-101370500D01*
X77156536Y-101370500D01*
X77363464Y-101370500D01*
X77363465Y-101370500D01*
X77566420Y-101330130D01*
X77757598Y-101250941D01*
X77929655Y-101135977D01*
X78075977Y-100989655D01*
X78190941Y-100817598D01*
X78270130Y-100626420D01*
X78310500Y-100423465D01*
X78310500Y-100216535D01*
X78310499Y-100216533D01*
X78310499Y-100216527D01*
X78308402Y-100205983D01*
X78305527Y-100191532D01*
X154909500Y-100191532D01*
X154909500Y-100398467D01*
X154949869Y-100601418D01*
X155029058Y-100792597D01*
X155045763Y-100817598D01*
X155144023Y-100964655D01*
X155290345Y-101110977D01*
X155462402Y-101225941D01*
X155653580Y-101305130D01*
X155856535Y-101345500D01*
X155856536Y-101345500D01*
X156063464Y-101345500D01*
X156063465Y-101345500D01*
X156266420Y-101305130D01*
X156457598Y-101225941D01*
X156629655Y-101110977D01*
X156775977Y-100964655D01*
X156890941Y-100792598D01*
X156970130Y-100601420D01*
X157010500Y-100398465D01*
X157010500Y-100191535D01*
X156970130Y-99988580D01*
X156890941Y-99797402D01*
X156775977Y-99625345D01*
X156629655Y-99479023D01*
X156598470Y-99458186D01*
X156457597Y-99364058D01*
X156445585Y-99359083D01*
X156266418Y-99284869D01*
X156212318Y-99274108D01*
X202184500Y-99274108D01*
X202184500Y-99405892D01*
X202207171Y-99490503D01*
X202218609Y-99533190D01*
X202284496Y-99647309D01*
X202284498Y-99647311D01*
X202284500Y-99647314D01*
X202377686Y-99740500D01*
X202377688Y-99740501D01*
X202377690Y-99740503D01*
X202491810Y-99806390D01*
X202491808Y-99806390D01*
X202491812Y-99806391D01*
X202491814Y-99806392D01*
X202619108Y-99840500D01*
X202619110Y-99840500D01*
X202750890Y-99840500D01*
X202750892Y-99840500D01*
X202878186Y-99806392D01*
X202878188Y-99806390D01*
X202878190Y-99806390D01*
X202992309Y-99740503D01*
X202992309Y-99740502D01*
X202992314Y-99740500D01*
X203085500Y-99647314D01*
X203103868Y-99615500D01*
X203151390Y-99533190D01*
X203151390Y-99533188D01*
X203151392Y-99533186D01*
X203185500Y-99405892D01*
X203185500Y-99274108D01*
X203151392Y-99146814D01*
X203151390Y-99146811D01*
X203151390Y-99146809D01*
X203085503Y-99032690D01*
X203085501Y-99032688D01*
X203085500Y-99032686D01*
X202992314Y-98939500D01*
X202992311Y-98939498D01*
X202992309Y-98939496D01*
X202878189Y-98873609D01*
X202878191Y-98873609D01*
X202828799Y-98860375D01*
X202750892Y-98839500D01*
X202619108Y-98839500D01*
X202541200Y-98860375D01*
X202491809Y-98873609D01*
X202377690Y-98939496D01*
X202284496Y-99032690D01*
X202218609Y-99146809D01*
X202214093Y-99163664D01*
X202184500Y-99274108D01*
X156212318Y-99274108D01*
X156063467Y-99244500D01*
X156063465Y-99244500D01*
X155856535Y-99244500D01*
X155856532Y-99244500D01*
X155653581Y-99284869D01*
X155462402Y-99364058D01*
X155290348Y-99479020D01*
X155144020Y-99625348D01*
X155029058Y-99797402D01*
X154949869Y-99988581D01*
X154909500Y-100191532D01*
X78305527Y-100191532D01*
X78270130Y-100013581D01*
X78259774Y-99988580D01*
X78190941Y-99822402D01*
X78075977Y-99650345D01*
X77929655Y-99504023D01*
X77929651Y-99504020D01*
X77757597Y-99389058D01*
X77566418Y-99309869D01*
X77465103Y-99289717D01*
X77363467Y-99269500D01*
X77363465Y-99269500D01*
X77156535Y-99269500D01*
X77156532Y-99269500D01*
X76953581Y-99309869D01*
X76762402Y-99389058D01*
X76590348Y-99504020D01*
X76444020Y-99650348D01*
X76329058Y-99822402D01*
X76249869Y-100013581D01*
X76209500Y-100216532D01*
X75210500Y-100216532D01*
X75210500Y-99199108D01*
X83534500Y-99199108D01*
X83534500Y-99330892D01*
X83554596Y-99405892D01*
X83568609Y-99458190D01*
X83634496Y-99572309D01*
X83634498Y-99572311D01*
X83634500Y-99572314D01*
X83727686Y-99665500D01*
X83727688Y-99665501D01*
X83727690Y-99665503D01*
X83841810Y-99731390D01*
X83841808Y-99731390D01*
X83841812Y-99731391D01*
X83841814Y-99731392D01*
X83969108Y-99765500D01*
X83969110Y-99765500D01*
X84100890Y-99765500D01*
X84100892Y-99765500D01*
X84228186Y-99731392D01*
X84228188Y-99731390D01*
X84228190Y-99731390D01*
X84342309Y-99665503D01*
X84342309Y-99665502D01*
X84342314Y-99665500D01*
X84435500Y-99572314D01*
X84435503Y-99572309D01*
X84501390Y-99458190D01*
X84501390Y-99458188D01*
X84501392Y-99458186D01*
X84535500Y-99330892D01*
X84535500Y-99199108D01*
X84501392Y-99071814D01*
X84501389Y-99071808D01*
X84488283Y-99049108D01*
X116534500Y-99049108D01*
X116534500Y-99180892D01*
X116551544Y-99244500D01*
X116568609Y-99308190D01*
X116634496Y-99422309D01*
X116634498Y-99422311D01*
X116634500Y-99422314D01*
X116727686Y-99515500D01*
X116727688Y-99515501D01*
X116727690Y-99515503D01*
X116841810Y-99581390D01*
X116841808Y-99581390D01*
X116841812Y-99581391D01*
X116841814Y-99581392D01*
X116969108Y-99615500D01*
X116969110Y-99615500D01*
X117100890Y-99615500D01*
X117100892Y-99615500D01*
X117228186Y-99581392D01*
X117228188Y-99581390D01*
X117228190Y-99581390D01*
X117342309Y-99515503D01*
X117342309Y-99515502D01*
X117342314Y-99515500D01*
X117435500Y-99422314D01*
X117444981Y-99405892D01*
X117501390Y-99308190D01*
X117501390Y-99308188D01*
X117501392Y-99308186D01*
X117535500Y-99180892D01*
X117535500Y-99049108D01*
X117528801Y-99024108D01*
X121534500Y-99024108D01*
X121534500Y-99155892D01*
X121541199Y-99180892D01*
X121568609Y-99283190D01*
X121634496Y-99397309D01*
X121634498Y-99397311D01*
X121634500Y-99397314D01*
X121727686Y-99490500D01*
X121727688Y-99490501D01*
X121727690Y-99490503D01*
X121841810Y-99556390D01*
X121841808Y-99556390D01*
X121841812Y-99556391D01*
X121841814Y-99556392D01*
X121969108Y-99590500D01*
X121969110Y-99590500D01*
X122100890Y-99590500D01*
X122100892Y-99590500D01*
X122228186Y-99556392D01*
X122228188Y-99556390D01*
X122228190Y-99556390D01*
X122342309Y-99490503D01*
X122342309Y-99490502D01*
X122342314Y-99490500D01*
X122435500Y-99397314D01*
X122454700Y-99364059D01*
X122501390Y-99283190D01*
X122501390Y-99283188D01*
X122501392Y-99283186D01*
X122535500Y-99155892D01*
X122535500Y-99031880D01*
X123068956Y-99031880D01*
X123068956Y-99163664D01*
X123090616Y-99244500D01*
X123103065Y-99290962D01*
X123168952Y-99405081D01*
X123168954Y-99405083D01*
X123168956Y-99405086D01*
X123262142Y-99498272D01*
X123262144Y-99498273D01*
X123262146Y-99498275D01*
X123376266Y-99564162D01*
X123376264Y-99564162D01*
X123376268Y-99564163D01*
X123376270Y-99564164D01*
X123503564Y-99598272D01*
X123503566Y-99598272D01*
X123635346Y-99598272D01*
X123635348Y-99598272D01*
X123762642Y-99564164D01*
X123762644Y-99564162D01*
X123762646Y-99564162D01*
X123876765Y-99498275D01*
X123876765Y-99498274D01*
X123876770Y-99498272D01*
X123969956Y-99405086D01*
X124025899Y-99308190D01*
X124035846Y-99290962D01*
X124035846Y-99290960D01*
X124035848Y-99290958D01*
X124069956Y-99163664D01*
X124069956Y-99031880D01*
X124035848Y-98904586D01*
X124035846Y-98904583D01*
X124035846Y-98904581D01*
X123969959Y-98790462D01*
X123969957Y-98790460D01*
X123969956Y-98790458D01*
X123876770Y-98697272D01*
X123876767Y-98697270D01*
X123876765Y-98697268D01*
X123762645Y-98631381D01*
X123762647Y-98631381D01*
X123699644Y-98614500D01*
X123635348Y-98597272D01*
X123503564Y-98597272D01*
X123439268Y-98614500D01*
X123376265Y-98631381D01*
X123262146Y-98697268D01*
X123168952Y-98790462D01*
X123103065Y-98904581D01*
X123103064Y-98904586D01*
X123068956Y-99031880D01*
X122535500Y-99031880D01*
X122535500Y-99024108D01*
X122501392Y-98896814D01*
X122501390Y-98896811D01*
X122501390Y-98896809D01*
X122435503Y-98782690D01*
X122435501Y-98782688D01*
X122435500Y-98782686D01*
X122342314Y-98689500D01*
X122342311Y-98689498D01*
X122342309Y-98689496D01*
X122228189Y-98623609D01*
X122228191Y-98623609D01*
X122178799Y-98610375D01*
X122100892Y-98589500D01*
X121969108Y-98589500D01*
X121891200Y-98610375D01*
X121841809Y-98623609D01*
X121727690Y-98689496D01*
X121634496Y-98782690D01*
X121568609Y-98896809D01*
X121557170Y-98939500D01*
X121534500Y-99024108D01*
X117528801Y-99024108D01*
X117501392Y-98921814D01*
X117501390Y-98921811D01*
X117501390Y-98921809D01*
X117435503Y-98807690D01*
X117435501Y-98807688D01*
X117435500Y-98807686D01*
X117342314Y-98714500D01*
X117342311Y-98714498D01*
X117342309Y-98714496D01*
X117228189Y-98648609D01*
X117228191Y-98648609D01*
X117163893Y-98631381D01*
X117100892Y-98614500D01*
X116969108Y-98614500D01*
X116906107Y-98631381D01*
X116841809Y-98648609D01*
X116727690Y-98714496D01*
X116634496Y-98807690D01*
X116568609Y-98921809D01*
X116568608Y-98921814D01*
X116534500Y-99049108D01*
X84488283Y-99049108D01*
X84435503Y-98957690D01*
X84435501Y-98957688D01*
X84435500Y-98957686D01*
X84342314Y-98864500D01*
X84342311Y-98864498D01*
X84342309Y-98864496D01*
X84228189Y-98798609D01*
X84228191Y-98798609D01*
X84178799Y-98785375D01*
X84100892Y-98764500D01*
X83969108Y-98764500D01*
X83891200Y-98785375D01*
X83841809Y-98798609D01*
X83727690Y-98864496D01*
X83634496Y-98957690D01*
X83568609Y-99071809D01*
X83568608Y-99071814D01*
X83534500Y-99199108D01*
X75210500Y-99199108D01*
X75210500Y-97676532D01*
X76209500Y-97676532D01*
X76209500Y-97883467D01*
X76249869Y-98086418D01*
X76329058Y-98277597D01*
X76444020Y-98449651D01*
X76444023Y-98449655D01*
X76590345Y-98595977D01*
X76762402Y-98710941D01*
X76953580Y-98790130D01*
X77156535Y-98830500D01*
X77156536Y-98830500D01*
X77363464Y-98830500D01*
X77363465Y-98830500D01*
X77566420Y-98790130D01*
X77757598Y-98710941D01*
X77929655Y-98595977D01*
X78075977Y-98449655D01*
X78190941Y-98277598D01*
X78270130Y-98086420D01*
X78310500Y-97883465D01*
X78310500Y-97676535D01*
X78310499Y-97676533D01*
X78310499Y-97676527D01*
X78308402Y-97665983D01*
X78305527Y-97651532D01*
X154909500Y-97651532D01*
X154909500Y-97858467D01*
X154949869Y-98061418D01*
X155029058Y-98252597D01*
X155045763Y-98277598D01*
X155144023Y-98424655D01*
X155290345Y-98570977D01*
X155462402Y-98685941D01*
X155653580Y-98765130D01*
X155856535Y-98805500D01*
X155856536Y-98805500D01*
X156063464Y-98805500D01*
X156063465Y-98805500D01*
X156266420Y-98765130D01*
X156457598Y-98685941D01*
X156629655Y-98570977D01*
X156775977Y-98424655D01*
X156890941Y-98252598D01*
X156970130Y-98061420D01*
X157010500Y-97858465D01*
X157010500Y-97651535D01*
X156970130Y-97448580D01*
X156890941Y-97257402D01*
X156775977Y-97085345D01*
X156629655Y-96939023D01*
X156629651Y-96939020D01*
X156457597Y-96824058D01*
X156266418Y-96744869D01*
X156063467Y-96704500D01*
X156063465Y-96704500D01*
X155856535Y-96704500D01*
X155856532Y-96704500D01*
X155653581Y-96744869D01*
X155462402Y-96824058D01*
X155290348Y-96939020D01*
X155144020Y-97085348D01*
X155029058Y-97257402D01*
X154949869Y-97448581D01*
X154909500Y-97651532D01*
X78305527Y-97651532D01*
X78270130Y-97473581D01*
X78259774Y-97448580D01*
X78190941Y-97282402D01*
X78075977Y-97110345D01*
X77929655Y-96964023D01*
X77892240Y-96939023D01*
X77757597Y-96849058D01*
X77566418Y-96769869D01*
X77363467Y-96729500D01*
X77363465Y-96729500D01*
X77156535Y-96729500D01*
X77156532Y-96729500D01*
X76953581Y-96769869D01*
X76762402Y-96849058D01*
X76590348Y-96964020D01*
X76444020Y-97110348D01*
X76329058Y-97282402D01*
X76249869Y-97473581D01*
X76209500Y-97676532D01*
X75210500Y-97676532D01*
X75210500Y-96049108D01*
X93784500Y-96049108D01*
X93784500Y-96180892D01*
X93804596Y-96255892D01*
X93818609Y-96308190D01*
X93884496Y-96422309D01*
X93884498Y-96422311D01*
X93884500Y-96422314D01*
X93977686Y-96515500D01*
X93977688Y-96515501D01*
X93977690Y-96515503D01*
X94091810Y-96581390D01*
X94091808Y-96581390D01*
X94091812Y-96581391D01*
X94091814Y-96581392D01*
X94219108Y-96615500D01*
X94219110Y-96615500D01*
X94350890Y-96615500D01*
X94350892Y-96615500D01*
X94478186Y-96581392D01*
X94478188Y-96581390D01*
X94478190Y-96581390D01*
X94592309Y-96515503D01*
X94592309Y-96515502D01*
X94592314Y-96515500D01*
X94685500Y-96422314D01*
X94722522Y-96358190D01*
X94751390Y-96308190D01*
X94751390Y-96308188D01*
X94751392Y-96308186D01*
X94785500Y-96180892D01*
X94785500Y-96049108D01*
X95284500Y-96049108D01*
X95284500Y-96180892D01*
X95304596Y-96255892D01*
X95318609Y-96308190D01*
X95384496Y-96422309D01*
X95384498Y-96422311D01*
X95384500Y-96422314D01*
X95477686Y-96515500D01*
X95477688Y-96515501D01*
X95477690Y-96515503D01*
X95591810Y-96581390D01*
X95591808Y-96581390D01*
X95591812Y-96581391D01*
X95591814Y-96581392D01*
X95719108Y-96615500D01*
X95719110Y-96615500D01*
X95850890Y-96615500D01*
X95850892Y-96615500D01*
X95978186Y-96581392D01*
X95978188Y-96581390D01*
X95978190Y-96581390D01*
X96092309Y-96515503D01*
X96092309Y-96515502D01*
X96092314Y-96515500D01*
X96185500Y-96422314D01*
X96222522Y-96358190D01*
X96251390Y-96308190D01*
X96251390Y-96308188D01*
X96251392Y-96308186D01*
X96285500Y-96180892D01*
X96285500Y-96049108D01*
X96784500Y-96049108D01*
X96784500Y-96180892D01*
X96804596Y-96255892D01*
X96818609Y-96308190D01*
X96884496Y-96422309D01*
X96884498Y-96422311D01*
X96884500Y-96422314D01*
X96977686Y-96515500D01*
X96977688Y-96515501D01*
X96977690Y-96515503D01*
X97091810Y-96581390D01*
X97091808Y-96581390D01*
X97091812Y-96581391D01*
X97091814Y-96581392D01*
X97219108Y-96615500D01*
X97219110Y-96615500D01*
X97350890Y-96615500D01*
X97350892Y-96615500D01*
X97478186Y-96581392D01*
X97478188Y-96581390D01*
X97478190Y-96581390D01*
X97592309Y-96515503D01*
X97592309Y-96515502D01*
X97592314Y-96515500D01*
X97685500Y-96422314D01*
X97722522Y-96358190D01*
X97751390Y-96308190D01*
X97751390Y-96308188D01*
X97751392Y-96308186D01*
X97785500Y-96180892D01*
X97785500Y-96049108D01*
X98284500Y-96049108D01*
X98284500Y-96180892D01*
X98304596Y-96255892D01*
X98318609Y-96308190D01*
X98384496Y-96422309D01*
X98384498Y-96422311D01*
X98384500Y-96422314D01*
X98477686Y-96515500D01*
X98477688Y-96515501D01*
X98477690Y-96515503D01*
X98591810Y-96581390D01*
X98591808Y-96581390D01*
X98591812Y-96581391D01*
X98591814Y-96581392D01*
X98719108Y-96615500D01*
X98719110Y-96615500D01*
X98850890Y-96615500D01*
X98850892Y-96615500D01*
X98978186Y-96581392D01*
X98978188Y-96581390D01*
X98978190Y-96581390D01*
X99092309Y-96515503D01*
X99092309Y-96515502D01*
X99092314Y-96515500D01*
X99185500Y-96422314D01*
X99222522Y-96358190D01*
X99251390Y-96308190D01*
X99251390Y-96308188D01*
X99251392Y-96308186D01*
X99285500Y-96180892D01*
X99285500Y-96049108D01*
X99784500Y-96049108D01*
X99784500Y-96180892D01*
X99804596Y-96255892D01*
X99818609Y-96308190D01*
X99884496Y-96422309D01*
X99884498Y-96422311D01*
X99884500Y-96422314D01*
X99977686Y-96515500D01*
X99977688Y-96515501D01*
X99977690Y-96515503D01*
X100091810Y-96581390D01*
X100091808Y-96581390D01*
X100091812Y-96581391D01*
X100091814Y-96581392D01*
X100219108Y-96615500D01*
X100219110Y-96615500D01*
X100350890Y-96615500D01*
X100350892Y-96615500D01*
X100478186Y-96581392D01*
X100478188Y-96581390D01*
X100478190Y-96581390D01*
X100592309Y-96515503D01*
X100592309Y-96515502D01*
X100592314Y-96515500D01*
X100685500Y-96422314D01*
X100722522Y-96358190D01*
X100751390Y-96308190D01*
X100751390Y-96308188D01*
X100751392Y-96308186D01*
X100785500Y-96180892D01*
X100785500Y-96049108D01*
X101284500Y-96049108D01*
X101284500Y-96180892D01*
X101304596Y-96255892D01*
X101318609Y-96308190D01*
X101384496Y-96422309D01*
X101384498Y-96422311D01*
X101384500Y-96422314D01*
X101477686Y-96515500D01*
X101477688Y-96515501D01*
X101477690Y-96515503D01*
X101591810Y-96581390D01*
X101591808Y-96581390D01*
X101591812Y-96581391D01*
X101591814Y-96581392D01*
X101719108Y-96615500D01*
X101719110Y-96615500D01*
X101850890Y-96615500D01*
X101850892Y-96615500D01*
X101978186Y-96581392D01*
X101978188Y-96581390D01*
X101978190Y-96581390D01*
X102092309Y-96515503D01*
X102092309Y-96515502D01*
X102092314Y-96515500D01*
X102185500Y-96422314D01*
X102222522Y-96358190D01*
X102251390Y-96308190D01*
X102251390Y-96308188D01*
X102251392Y-96308186D01*
X102285500Y-96180892D01*
X102285500Y-96049108D01*
X102784500Y-96049108D01*
X102784500Y-96180892D01*
X102804596Y-96255892D01*
X102818609Y-96308190D01*
X102884496Y-96422309D01*
X102884498Y-96422311D01*
X102884500Y-96422314D01*
X102977686Y-96515500D01*
X102977688Y-96515501D01*
X102977690Y-96515503D01*
X103091810Y-96581390D01*
X103091808Y-96581390D01*
X103091812Y-96581391D01*
X103091814Y-96581392D01*
X103219108Y-96615500D01*
X103219110Y-96615500D01*
X103350890Y-96615500D01*
X103350892Y-96615500D01*
X103478186Y-96581392D01*
X103478188Y-96581390D01*
X103478190Y-96581390D01*
X103592309Y-96515503D01*
X103592309Y-96515502D01*
X103592314Y-96515500D01*
X103685500Y-96422314D01*
X103722522Y-96358190D01*
X103751390Y-96308190D01*
X103751390Y-96308188D01*
X103751392Y-96308186D01*
X103785500Y-96180892D01*
X103785500Y-96049108D01*
X104284500Y-96049108D01*
X104284500Y-96180892D01*
X104304596Y-96255892D01*
X104318609Y-96308190D01*
X104384496Y-96422309D01*
X104384498Y-96422311D01*
X104384500Y-96422314D01*
X104477686Y-96515500D01*
X104477688Y-96515501D01*
X104477690Y-96515503D01*
X104591810Y-96581390D01*
X104591808Y-96581390D01*
X104591812Y-96581391D01*
X104591814Y-96581392D01*
X104719108Y-96615500D01*
X104719110Y-96615500D01*
X104850890Y-96615500D01*
X104850892Y-96615500D01*
X104978186Y-96581392D01*
X104978188Y-96581390D01*
X104978190Y-96581390D01*
X105092309Y-96515503D01*
X105092309Y-96515502D01*
X105092314Y-96515500D01*
X105185500Y-96422314D01*
X105222522Y-96358190D01*
X105251390Y-96308190D01*
X105251390Y-96308188D01*
X105251392Y-96308186D01*
X105285500Y-96180892D01*
X105285500Y-96049108D01*
X105784500Y-96049108D01*
X105784500Y-96180892D01*
X105804596Y-96255892D01*
X105818609Y-96308190D01*
X105884496Y-96422309D01*
X105884498Y-96422311D01*
X105884500Y-96422314D01*
X105977686Y-96515500D01*
X105977688Y-96515501D01*
X105977690Y-96515503D01*
X106091810Y-96581390D01*
X106091808Y-96581390D01*
X106091812Y-96581391D01*
X106091814Y-96581392D01*
X106219108Y-96615500D01*
X106219110Y-96615500D01*
X106350890Y-96615500D01*
X106350892Y-96615500D01*
X106478186Y-96581392D01*
X106478188Y-96581390D01*
X106478190Y-96581390D01*
X106592309Y-96515503D01*
X106592309Y-96515502D01*
X106592314Y-96515500D01*
X106685500Y-96422314D01*
X106722522Y-96358190D01*
X106751390Y-96308190D01*
X106751390Y-96308188D01*
X106751392Y-96308186D01*
X106785500Y-96180892D01*
X106785500Y-96049108D01*
X107284500Y-96049108D01*
X107284500Y-96180892D01*
X107304596Y-96255892D01*
X107318609Y-96308190D01*
X107384496Y-96422309D01*
X107384498Y-96422311D01*
X107384500Y-96422314D01*
X107477686Y-96515500D01*
X107477688Y-96515501D01*
X107477690Y-96515503D01*
X107591810Y-96581390D01*
X107591808Y-96581390D01*
X107591812Y-96581391D01*
X107591814Y-96581392D01*
X107719108Y-96615500D01*
X107719110Y-96615500D01*
X107850890Y-96615500D01*
X107850892Y-96615500D01*
X107978186Y-96581392D01*
X107978188Y-96581390D01*
X107978190Y-96581390D01*
X108092309Y-96515503D01*
X108092309Y-96515502D01*
X108092314Y-96515500D01*
X108185500Y-96422314D01*
X108222522Y-96358190D01*
X108251390Y-96308190D01*
X108251390Y-96308188D01*
X108251392Y-96308186D01*
X108285500Y-96180892D01*
X108285500Y-96049108D01*
X108784500Y-96049108D01*
X108784500Y-96180892D01*
X108804596Y-96255892D01*
X108818609Y-96308190D01*
X108884496Y-96422309D01*
X108884498Y-96422311D01*
X108884500Y-96422314D01*
X108977686Y-96515500D01*
X108977688Y-96515501D01*
X108977690Y-96515503D01*
X109091810Y-96581390D01*
X109091808Y-96581390D01*
X109091812Y-96581391D01*
X109091814Y-96581392D01*
X109219108Y-96615500D01*
X109219110Y-96615500D01*
X109350890Y-96615500D01*
X109350892Y-96615500D01*
X109478186Y-96581392D01*
X109478188Y-96581390D01*
X109478190Y-96581390D01*
X109592309Y-96515503D01*
X109592309Y-96515502D01*
X109592314Y-96515500D01*
X109685500Y-96422314D01*
X109722522Y-96358190D01*
X109751390Y-96308190D01*
X109751390Y-96308188D01*
X109751392Y-96308186D01*
X109785500Y-96180892D01*
X109785500Y-96049108D01*
X110284500Y-96049108D01*
X110284500Y-96180892D01*
X110304596Y-96255892D01*
X110318609Y-96308190D01*
X110384496Y-96422309D01*
X110384498Y-96422311D01*
X110384500Y-96422314D01*
X110477686Y-96515500D01*
X110477688Y-96515501D01*
X110477690Y-96515503D01*
X110591810Y-96581390D01*
X110591808Y-96581390D01*
X110591812Y-96581391D01*
X110591814Y-96581392D01*
X110719108Y-96615500D01*
X110719110Y-96615500D01*
X110850890Y-96615500D01*
X110850892Y-96615500D01*
X110978186Y-96581392D01*
X110978188Y-96581390D01*
X110978190Y-96581390D01*
X111092309Y-96515503D01*
X111092309Y-96515502D01*
X111092314Y-96515500D01*
X111185500Y-96422314D01*
X111222522Y-96358190D01*
X111251390Y-96308190D01*
X111251390Y-96308188D01*
X111251392Y-96308186D01*
X111285500Y-96180892D01*
X111285500Y-96049108D01*
X111784500Y-96049108D01*
X111784500Y-96180892D01*
X111804596Y-96255892D01*
X111818609Y-96308190D01*
X111884496Y-96422309D01*
X111884498Y-96422311D01*
X111884500Y-96422314D01*
X111977686Y-96515500D01*
X111977688Y-96515501D01*
X111977690Y-96515503D01*
X112091810Y-96581390D01*
X112091808Y-96581390D01*
X112091812Y-96581391D01*
X112091814Y-96581392D01*
X112219108Y-96615500D01*
X112219110Y-96615500D01*
X112350890Y-96615500D01*
X112350892Y-96615500D01*
X112478186Y-96581392D01*
X112478188Y-96581390D01*
X112478190Y-96581390D01*
X112592309Y-96515503D01*
X112592309Y-96515502D01*
X112592314Y-96515500D01*
X112685500Y-96422314D01*
X112722522Y-96358190D01*
X112751390Y-96308190D01*
X112751390Y-96308188D01*
X112751392Y-96308186D01*
X112785500Y-96180892D01*
X112785500Y-96049108D01*
X113284500Y-96049108D01*
X113284500Y-96180892D01*
X113304596Y-96255892D01*
X113318609Y-96308190D01*
X113384496Y-96422309D01*
X113384498Y-96422311D01*
X113384500Y-96422314D01*
X113477686Y-96515500D01*
X113477688Y-96515501D01*
X113477690Y-96515503D01*
X113591810Y-96581390D01*
X113591808Y-96581390D01*
X113591812Y-96581391D01*
X113591814Y-96581392D01*
X113719108Y-96615500D01*
X113719110Y-96615500D01*
X113850890Y-96615500D01*
X113850892Y-96615500D01*
X113978186Y-96581392D01*
X113978188Y-96581390D01*
X113978190Y-96581390D01*
X114092309Y-96515503D01*
X114092309Y-96515502D01*
X114092314Y-96515500D01*
X114185500Y-96422314D01*
X114222522Y-96358190D01*
X114251390Y-96308190D01*
X114251390Y-96308188D01*
X114251392Y-96308186D01*
X114285500Y-96180892D01*
X114285500Y-96049108D01*
X114784500Y-96049108D01*
X114784500Y-96180892D01*
X114804596Y-96255892D01*
X114818609Y-96308190D01*
X114884496Y-96422309D01*
X114884498Y-96422311D01*
X114884500Y-96422314D01*
X114977686Y-96515500D01*
X114977688Y-96515501D01*
X114977690Y-96515503D01*
X115091810Y-96581390D01*
X115091808Y-96581390D01*
X115091812Y-96581391D01*
X115091814Y-96581392D01*
X115219108Y-96615500D01*
X115219110Y-96615500D01*
X115350890Y-96615500D01*
X115350892Y-96615500D01*
X115478186Y-96581392D01*
X115478188Y-96581390D01*
X115478190Y-96581390D01*
X115592309Y-96515503D01*
X115592309Y-96515502D01*
X115592314Y-96515500D01*
X115685500Y-96422314D01*
X115722522Y-96358190D01*
X115751390Y-96308190D01*
X115751390Y-96308188D01*
X115751392Y-96308186D01*
X115785500Y-96180892D01*
X115785500Y-96049108D01*
X116284500Y-96049108D01*
X116284500Y-96180892D01*
X116304596Y-96255892D01*
X116318609Y-96308190D01*
X116384496Y-96422309D01*
X116384498Y-96422311D01*
X116384500Y-96422314D01*
X116477686Y-96515500D01*
X116477688Y-96515501D01*
X116477690Y-96515503D01*
X116591810Y-96581390D01*
X116591808Y-96581390D01*
X116591812Y-96581391D01*
X116591814Y-96581392D01*
X116719108Y-96615500D01*
X116719110Y-96615500D01*
X116850890Y-96615500D01*
X116850892Y-96615500D01*
X116978186Y-96581392D01*
X116978188Y-96581390D01*
X116978190Y-96581390D01*
X117092309Y-96515503D01*
X117092309Y-96515502D01*
X117092314Y-96515500D01*
X117185500Y-96422314D01*
X117222522Y-96358190D01*
X117251390Y-96308190D01*
X117251390Y-96308188D01*
X117251392Y-96308186D01*
X117285500Y-96180892D01*
X117285500Y-96099108D01*
X117784500Y-96099108D01*
X117784500Y-96230892D01*
X117791199Y-96255892D01*
X117818609Y-96358190D01*
X117884496Y-96472309D01*
X117884498Y-96472311D01*
X117884500Y-96472314D01*
X117977686Y-96565500D01*
X117977688Y-96565501D01*
X117977690Y-96565503D01*
X118091810Y-96631390D01*
X118091808Y-96631390D01*
X118091812Y-96631391D01*
X118091814Y-96631392D01*
X118219108Y-96665500D01*
X118219110Y-96665500D01*
X118350890Y-96665500D01*
X118350892Y-96665500D01*
X118478186Y-96631392D01*
X118478188Y-96631390D01*
X118478190Y-96631390D01*
X118592309Y-96565503D01*
X118592309Y-96565502D01*
X118592314Y-96565500D01*
X118685500Y-96472314D01*
X118714368Y-96422314D01*
X118751390Y-96358190D01*
X118751390Y-96358188D01*
X118751392Y-96358186D01*
X118785500Y-96230892D01*
X118785500Y-96124108D01*
X121284500Y-96124108D01*
X121284500Y-96255892D01*
X121298512Y-96308186D01*
X121318609Y-96383190D01*
X121384496Y-96497309D01*
X121384498Y-96497311D01*
X121384500Y-96497314D01*
X121477686Y-96590500D01*
X121477688Y-96590501D01*
X121477690Y-96590503D01*
X121591810Y-96656390D01*
X121591808Y-96656390D01*
X121591812Y-96656391D01*
X121591814Y-96656392D01*
X121719108Y-96690500D01*
X121719110Y-96690500D01*
X121850890Y-96690500D01*
X121850892Y-96690500D01*
X121978186Y-96656392D01*
X121978188Y-96656390D01*
X121978190Y-96656390D01*
X122092309Y-96590503D01*
X122092309Y-96590502D01*
X122092314Y-96590500D01*
X122185500Y-96497314D01*
X122199937Y-96472309D01*
X122251390Y-96383190D01*
X122251390Y-96383188D01*
X122251392Y-96383186D01*
X122285500Y-96255892D01*
X122285500Y-96124108D01*
X122278801Y-96099108D01*
X122784500Y-96099108D01*
X122784500Y-96230892D01*
X122791199Y-96255892D01*
X122818609Y-96358190D01*
X122884496Y-96472309D01*
X122884498Y-96472311D01*
X122884500Y-96472314D01*
X122977686Y-96565500D01*
X122977688Y-96565501D01*
X122977690Y-96565503D01*
X123091810Y-96631390D01*
X123091808Y-96631390D01*
X123091812Y-96631391D01*
X123091814Y-96631392D01*
X123219108Y-96665500D01*
X123219110Y-96665500D01*
X123350890Y-96665500D01*
X123350892Y-96665500D01*
X123478186Y-96631392D01*
X123478188Y-96631390D01*
X123478190Y-96631390D01*
X123592309Y-96565503D01*
X123592309Y-96565502D01*
X123592314Y-96565500D01*
X123685500Y-96472314D01*
X123714368Y-96422314D01*
X123751390Y-96358190D01*
X123751390Y-96358188D01*
X123751392Y-96358186D01*
X123785500Y-96230892D01*
X123785500Y-96099108D01*
X123765404Y-96024108D01*
X172934500Y-96024108D01*
X172934500Y-96155892D01*
X172954596Y-96230892D01*
X172968609Y-96283190D01*
X173034496Y-96397309D01*
X173034498Y-96397311D01*
X173034500Y-96397314D01*
X173127686Y-96490500D01*
X173127688Y-96490501D01*
X173127690Y-96490503D01*
X173241810Y-96556390D01*
X173241808Y-96556390D01*
X173241812Y-96556391D01*
X173241814Y-96556392D01*
X173369108Y-96590500D01*
X173369110Y-96590500D01*
X173500890Y-96590500D01*
X173500892Y-96590500D01*
X173628186Y-96556392D01*
X173628188Y-96556390D01*
X173628190Y-96556390D01*
X173742309Y-96490503D01*
X173742309Y-96490502D01*
X173742314Y-96490500D01*
X173835500Y-96397314D01*
X173901392Y-96283186D01*
X173935500Y-96155892D01*
X173935500Y-96024108D01*
X174434500Y-96024108D01*
X174434500Y-96155892D01*
X174454596Y-96230892D01*
X174468609Y-96283190D01*
X174534496Y-96397309D01*
X174534498Y-96397311D01*
X174534500Y-96397314D01*
X174627686Y-96490500D01*
X174627688Y-96490501D01*
X174627690Y-96490503D01*
X174741810Y-96556390D01*
X174741808Y-96556390D01*
X174741812Y-96556391D01*
X174741814Y-96556392D01*
X174869108Y-96590500D01*
X174869110Y-96590500D01*
X175000890Y-96590500D01*
X175000892Y-96590500D01*
X175128186Y-96556392D01*
X175128188Y-96556390D01*
X175128190Y-96556390D01*
X175242309Y-96490503D01*
X175242309Y-96490502D01*
X175242314Y-96490500D01*
X175335500Y-96397314D01*
X175401392Y-96283186D01*
X175435500Y-96155892D01*
X175435500Y-96024108D01*
X175934500Y-96024108D01*
X175934500Y-96155892D01*
X175954596Y-96230892D01*
X175968609Y-96283190D01*
X176034496Y-96397309D01*
X176034498Y-96397311D01*
X176034500Y-96397314D01*
X176127686Y-96490500D01*
X176127688Y-96490501D01*
X176127690Y-96490503D01*
X176241810Y-96556390D01*
X176241808Y-96556390D01*
X176241812Y-96556391D01*
X176241814Y-96556392D01*
X176369108Y-96590500D01*
X176369110Y-96590500D01*
X176500890Y-96590500D01*
X176500892Y-96590500D01*
X176628186Y-96556392D01*
X176628188Y-96556390D01*
X176628190Y-96556390D01*
X176742309Y-96490503D01*
X176742309Y-96490502D01*
X176742314Y-96490500D01*
X176835500Y-96397314D01*
X176901392Y-96283186D01*
X176935500Y-96155892D01*
X176935500Y-96024108D01*
X177434500Y-96024108D01*
X177434500Y-96155892D01*
X177454596Y-96230892D01*
X177468609Y-96283190D01*
X177534496Y-96397309D01*
X177534498Y-96397311D01*
X177534500Y-96397314D01*
X177627686Y-96490500D01*
X177627688Y-96490501D01*
X177627690Y-96490503D01*
X177741810Y-96556390D01*
X177741808Y-96556390D01*
X177741812Y-96556391D01*
X177741814Y-96556392D01*
X177869108Y-96590500D01*
X177869110Y-96590500D01*
X178000890Y-96590500D01*
X178000892Y-96590500D01*
X178128186Y-96556392D01*
X178128188Y-96556390D01*
X178128190Y-96556390D01*
X178242309Y-96490503D01*
X178242309Y-96490502D01*
X178242314Y-96490500D01*
X178335500Y-96397314D01*
X178401392Y-96283186D01*
X178435500Y-96155892D01*
X178435500Y-96024108D01*
X178934500Y-96024108D01*
X178934500Y-96155892D01*
X178954596Y-96230892D01*
X178968609Y-96283190D01*
X179034496Y-96397309D01*
X179034498Y-96397311D01*
X179034500Y-96397314D01*
X179127686Y-96490500D01*
X179127688Y-96490501D01*
X179127690Y-96490503D01*
X179241810Y-96556390D01*
X179241808Y-96556390D01*
X179241812Y-96556391D01*
X179241814Y-96556392D01*
X179369108Y-96590500D01*
X179369110Y-96590500D01*
X179500890Y-96590500D01*
X179500892Y-96590500D01*
X179628186Y-96556392D01*
X179628188Y-96556390D01*
X179628190Y-96556390D01*
X179742309Y-96490503D01*
X179742309Y-96490502D01*
X179742314Y-96490500D01*
X179835500Y-96397314D01*
X179901392Y-96283186D01*
X179935500Y-96155892D01*
X179935500Y-96024108D01*
X180434500Y-96024108D01*
X180434500Y-96155892D01*
X180454596Y-96230892D01*
X180468609Y-96283190D01*
X180534496Y-96397309D01*
X180534498Y-96397311D01*
X180534500Y-96397314D01*
X180627686Y-96490500D01*
X180627688Y-96490501D01*
X180627690Y-96490503D01*
X180741810Y-96556390D01*
X180741808Y-96556390D01*
X180741812Y-96556391D01*
X180741814Y-96556392D01*
X180869108Y-96590500D01*
X180869110Y-96590500D01*
X181000890Y-96590500D01*
X181000892Y-96590500D01*
X181128186Y-96556392D01*
X181128188Y-96556390D01*
X181128190Y-96556390D01*
X181242309Y-96490503D01*
X181242309Y-96490502D01*
X181242314Y-96490500D01*
X181335500Y-96397314D01*
X181401392Y-96283186D01*
X181435500Y-96155892D01*
X181435500Y-96024108D01*
X181934500Y-96024108D01*
X181934500Y-96155892D01*
X181954596Y-96230892D01*
X181968609Y-96283190D01*
X182034496Y-96397309D01*
X182034498Y-96397311D01*
X182034500Y-96397314D01*
X182127686Y-96490500D01*
X182127688Y-96490501D01*
X182127690Y-96490503D01*
X182241810Y-96556390D01*
X182241808Y-96556390D01*
X182241812Y-96556391D01*
X182241814Y-96556392D01*
X182369108Y-96590500D01*
X182369110Y-96590500D01*
X182500890Y-96590500D01*
X182500892Y-96590500D01*
X182628186Y-96556392D01*
X182628188Y-96556390D01*
X182628190Y-96556390D01*
X182742309Y-96490503D01*
X182742309Y-96490502D01*
X182742314Y-96490500D01*
X182835500Y-96397314D01*
X182901392Y-96283186D01*
X182935500Y-96155892D01*
X182935500Y-96024108D01*
X183434500Y-96024108D01*
X183434500Y-96155892D01*
X183454596Y-96230892D01*
X183468609Y-96283190D01*
X183534496Y-96397309D01*
X183534498Y-96397311D01*
X183534500Y-96397314D01*
X183627686Y-96490500D01*
X183627688Y-96490501D01*
X183627690Y-96490503D01*
X183741810Y-96556390D01*
X183741808Y-96556390D01*
X183741812Y-96556391D01*
X183741814Y-96556392D01*
X183869108Y-96590500D01*
X183869110Y-96590500D01*
X184000890Y-96590500D01*
X184000892Y-96590500D01*
X184128186Y-96556392D01*
X184128188Y-96556390D01*
X184128190Y-96556390D01*
X184242309Y-96490503D01*
X184242309Y-96490502D01*
X184242314Y-96490500D01*
X184335500Y-96397314D01*
X184401392Y-96283186D01*
X184435500Y-96155892D01*
X184435500Y-96024108D01*
X184934500Y-96024108D01*
X184934500Y-96155892D01*
X184954596Y-96230892D01*
X184968609Y-96283190D01*
X185034496Y-96397309D01*
X185034498Y-96397311D01*
X185034500Y-96397314D01*
X185127686Y-96490500D01*
X185127688Y-96490501D01*
X185127690Y-96490503D01*
X185241810Y-96556390D01*
X185241808Y-96556390D01*
X185241812Y-96556391D01*
X185241814Y-96556392D01*
X185369108Y-96590500D01*
X185369110Y-96590500D01*
X185500890Y-96590500D01*
X185500892Y-96590500D01*
X185628186Y-96556392D01*
X185628188Y-96556390D01*
X185628190Y-96556390D01*
X185742309Y-96490503D01*
X185742309Y-96490502D01*
X185742314Y-96490500D01*
X185835500Y-96397314D01*
X185901392Y-96283186D01*
X185935500Y-96155892D01*
X185935500Y-96024108D01*
X186434500Y-96024108D01*
X186434500Y-96155892D01*
X186454596Y-96230892D01*
X186468609Y-96283190D01*
X186534496Y-96397309D01*
X186534498Y-96397311D01*
X186534500Y-96397314D01*
X186627686Y-96490500D01*
X186627688Y-96490501D01*
X186627690Y-96490503D01*
X186741810Y-96556390D01*
X186741808Y-96556390D01*
X186741812Y-96556391D01*
X186741814Y-96556392D01*
X186869108Y-96590500D01*
X186869110Y-96590500D01*
X187000890Y-96590500D01*
X187000892Y-96590500D01*
X187128186Y-96556392D01*
X187128188Y-96556390D01*
X187128190Y-96556390D01*
X187242309Y-96490503D01*
X187242309Y-96490502D01*
X187242314Y-96490500D01*
X187335500Y-96397314D01*
X187401392Y-96283186D01*
X187435500Y-96155892D01*
X187435500Y-96024108D01*
X187934500Y-96024108D01*
X187934500Y-96155892D01*
X187954596Y-96230892D01*
X187968609Y-96283190D01*
X188034496Y-96397309D01*
X188034498Y-96397311D01*
X188034500Y-96397314D01*
X188127686Y-96490500D01*
X188127688Y-96490501D01*
X188127690Y-96490503D01*
X188241810Y-96556390D01*
X188241808Y-96556390D01*
X188241812Y-96556391D01*
X188241814Y-96556392D01*
X188369108Y-96590500D01*
X188369110Y-96590500D01*
X188500890Y-96590500D01*
X188500892Y-96590500D01*
X188628186Y-96556392D01*
X188628188Y-96556390D01*
X188628190Y-96556390D01*
X188742309Y-96490503D01*
X188742309Y-96490502D01*
X188742314Y-96490500D01*
X188835500Y-96397314D01*
X188901392Y-96283186D01*
X188935500Y-96155892D01*
X188935500Y-96024108D01*
X189434500Y-96024108D01*
X189434500Y-96155892D01*
X189454596Y-96230892D01*
X189468609Y-96283190D01*
X189534496Y-96397309D01*
X189534498Y-96397311D01*
X189534500Y-96397314D01*
X189627686Y-96490500D01*
X189627688Y-96490501D01*
X189627690Y-96490503D01*
X189741810Y-96556390D01*
X189741808Y-96556390D01*
X189741812Y-96556391D01*
X189741814Y-96556392D01*
X189869108Y-96590500D01*
X189869110Y-96590500D01*
X190000890Y-96590500D01*
X190000892Y-96590500D01*
X190128186Y-96556392D01*
X190128188Y-96556390D01*
X190128190Y-96556390D01*
X190242309Y-96490503D01*
X190242309Y-96490502D01*
X190242314Y-96490500D01*
X190335500Y-96397314D01*
X190401392Y-96283186D01*
X190435500Y-96155892D01*
X190435500Y-96024108D01*
X190934500Y-96024108D01*
X190934500Y-96155892D01*
X190954596Y-96230892D01*
X190968609Y-96283190D01*
X191034496Y-96397309D01*
X191034498Y-96397311D01*
X191034500Y-96397314D01*
X191127686Y-96490500D01*
X191127688Y-96490501D01*
X191127690Y-96490503D01*
X191241810Y-96556390D01*
X191241808Y-96556390D01*
X191241812Y-96556391D01*
X191241814Y-96556392D01*
X191369108Y-96590500D01*
X191369110Y-96590500D01*
X191500890Y-96590500D01*
X191500892Y-96590500D01*
X191628186Y-96556392D01*
X191628188Y-96556390D01*
X191628190Y-96556390D01*
X191742309Y-96490503D01*
X191742309Y-96490502D01*
X191742314Y-96490500D01*
X191835500Y-96397314D01*
X191901392Y-96283186D01*
X191935500Y-96155892D01*
X191935500Y-96024108D01*
X192434500Y-96024108D01*
X192434500Y-96155892D01*
X192454596Y-96230892D01*
X192468609Y-96283190D01*
X192534496Y-96397309D01*
X192534498Y-96397311D01*
X192534500Y-96397314D01*
X192627686Y-96490500D01*
X192627688Y-96490501D01*
X192627690Y-96490503D01*
X192741810Y-96556390D01*
X192741808Y-96556390D01*
X192741812Y-96556391D01*
X192741814Y-96556392D01*
X192869108Y-96590500D01*
X192869110Y-96590500D01*
X193000890Y-96590500D01*
X193000892Y-96590500D01*
X193128186Y-96556392D01*
X193128188Y-96556390D01*
X193128190Y-96556390D01*
X193242309Y-96490503D01*
X193242309Y-96490502D01*
X193242314Y-96490500D01*
X193335500Y-96397314D01*
X193401392Y-96283186D01*
X193435500Y-96155892D01*
X193435500Y-96024108D01*
X193934500Y-96024108D01*
X193934500Y-96155892D01*
X193954596Y-96230892D01*
X193968609Y-96283190D01*
X194034496Y-96397309D01*
X194034498Y-96397311D01*
X194034500Y-96397314D01*
X194127686Y-96490500D01*
X194127688Y-96490501D01*
X194127690Y-96490503D01*
X194241810Y-96556390D01*
X194241808Y-96556390D01*
X194241812Y-96556391D01*
X194241814Y-96556392D01*
X194369108Y-96590500D01*
X194369110Y-96590500D01*
X194500890Y-96590500D01*
X194500892Y-96590500D01*
X194628186Y-96556392D01*
X194628188Y-96556390D01*
X194628190Y-96556390D01*
X194742309Y-96490503D01*
X194742309Y-96490502D01*
X194742314Y-96490500D01*
X194835500Y-96397314D01*
X194901392Y-96283186D01*
X194935500Y-96155892D01*
X194935500Y-96024108D01*
X195434500Y-96024108D01*
X195434500Y-96155892D01*
X195454596Y-96230892D01*
X195468609Y-96283190D01*
X195534496Y-96397309D01*
X195534498Y-96397311D01*
X195534500Y-96397314D01*
X195627686Y-96490500D01*
X195627688Y-96490501D01*
X195627690Y-96490503D01*
X195741810Y-96556390D01*
X195741808Y-96556390D01*
X195741812Y-96556391D01*
X195741814Y-96556392D01*
X195869108Y-96590500D01*
X195869110Y-96590500D01*
X196000890Y-96590500D01*
X196000892Y-96590500D01*
X196128186Y-96556392D01*
X196128188Y-96556390D01*
X196128190Y-96556390D01*
X196242309Y-96490503D01*
X196242309Y-96490502D01*
X196242314Y-96490500D01*
X196335500Y-96397314D01*
X196401392Y-96283186D01*
X196435500Y-96155892D01*
X196435500Y-96124108D01*
X202434500Y-96124108D01*
X202434500Y-96255892D01*
X202448512Y-96308186D01*
X202468609Y-96383190D01*
X202534496Y-96497309D01*
X202534498Y-96497311D01*
X202534500Y-96497314D01*
X202627686Y-96590500D01*
X202627688Y-96590501D01*
X202627690Y-96590503D01*
X202741810Y-96656390D01*
X202741808Y-96656390D01*
X202741812Y-96656391D01*
X202741814Y-96656392D01*
X202869108Y-96690500D01*
X202869110Y-96690500D01*
X203000890Y-96690500D01*
X203000892Y-96690500D01*
X203128186Y-96656392D01*
X203128188Y-96656390D01*
X203128190Y-96656390D01*
X203242309Y-96590503D01*
X203242309Y-96590502D01*
X203242314Y-96590500D01*
X203335500Y-96497314D01*
X203349937Y-96472309D01*
X203401390Y-96383190D01*
X203401390Y-96383188D01*
X203401392Y-96383186D01*
X203435500Y-96255892D01*
X203435500Y-96124108D01*
X203401392Y-95996814D01*
X203401390Y-95996811D01*
X203401390Y-95996809D01*
X203335503Y-95882690D01*
X203335501Y-95882688D01*
X203335500Y-95882686D01*
X203242314Y-95789500D01*
X203242311Y-95789498D01*
X203242309Y-95789496D01*
X203128189Y-95723609D01*
X203128191Y-95723609D01*
X203078799Y-95710375D01*
X203000892Y-95689500D01*
X202869108Y-95689500D01*
X202791200Y-95710375D01*
X202741809Y-95723609D01*
X202627690Y-95789496D01*
X202534496Y-95882690D01*
X202468609Y-95996809D01*
X202461294Y-96024109D01*
X202434500Y-96124108D01*
X196435500Y-96124108D01*
X196435500Y-96024108D01*
X196401392Y-95896814D01*
X196401390Y-95896811D01*
X196401390Y-95896809D01*
X196335503Y-95782690D01*
X196335501Y-95782688D01*
X196335500Y-95782686D01*
X196242314Y-95689500D01*
X196242311Y-95689498D01*
X196242309Y-95689496D01*
X196128189Y-95623609D01*
X196128191Y-95623609D01*
X196078799Y-95610375D01*
X196000892Y-95589500D01*
X195869108Y-95589500D01*
X195791200Y-95610375D01*
X195741809Y-95623609D01*
X195627690Y-95689496D01*
X195534496Y-95782690D01*
X195468609Y-95896809D01*
X195461909Y-95921814D01*
X195434500Y-96024108D01*
X194935500Y-96024108D01*
X194901392Y-95896814D01*
X194901390Y-95896811D01*
X194901390Y-95896809D01*
X194835503Y-95782690D01*
X194835501Y-95782688D01*
X194835500Y-95782686D01*
X194742314Y-95689500D01*
X194742311Y-95689498D01*
X194742309Y-95689496D01*
X194628189Y-95623609D01*
X194628191Y-95623609D01*
X194578799Y-95610375D01*
X194500892Y-95589500D01*
X194369108Y-95589500D01*
X194291200Y-95610375D01*
X194241809Y-95623609D01*
X194127690Y-95689496D01*
X194034496Y-95782690D01*
X193968609Y-95896809D01*
X193961909Y-95921814D01*
X193934500Y-96024108D01*
X193435500Y-96024108D01*
X193401392Y-95896814D01*
X193401390Y-95896811D01*
X193401390Y-95896809D01*
X193335503Y-95782690D01*
X193335501Y-95782688D01*
X193335500Y-95782686D01*
X193242314Y-95689500D01*
X193242311Y-95689498D01*
X193242309Y-95689496D01*
X193128189Y-95623609D01*
X193128191Y-95623609D01*
X193078799Y-95610375D01*
X193000892Y-95589500D01*
X192869108Y-95589500D01*
X192791200Y-95610375D01*
X192741809Y-95623609D01*
X192627690Y-95689496D01*
X192534496Y-95782690D01*
X192468609Y-95896809D01*
X192461909Y-95921814D01*
X192434500Y-96024108D01*
X191935500Y-96024108D01*
X191901392Y-95896814D01*
X191901390Y-95896811D01*
X191901390Y-95896809D01*
X191835503Y-95782690D01*
X191835501Y-95782688D01*
X191835500Y-95782686D01*
X191742314Y-95689500D01*
X191742311Y-95689498D01*
X191742309Y-95689496D01*
X191628189Y-95623609D01*
X191628191Y-95623609D01*
X191578799Y-95610375D01*
X191500892Y-95589500D01*
X191369108Y-95589500D01*
X191291200Y-95610375D01*
X191241809Y-95623609D01*
X191127690Y-95689496D01*
X191034496Y-95782690D01*
X190968609Y-95896809D01*
X190961909Y-95921814D01*
X190934500Y-96024108D01*
X190435500Y-96024108D01*
X190401392Y-95896814D01*
X190401390Y-95896811D01*
X190401390Y-95896809D01*
X190335503Y-95782690D01*
X190335501Y-95782688D01*
X190335500Y-95782686D01*
X190242314Y-95689500D01*
X190242311Y-95689498D01*
X190242309Y-95689496D01*
X190128189Y-95623609D01*
X190128191Y-95623609D01*
X190078799Y-95610375D01*
X190000892Y-95589500D01*
X189869108Y-95589500D01*
X189791200Y-95610375D01*
X189741809Y-95623609D01*
X189627690Y-95689496D01*
X189534496Y-95782690D01*
X189468609Y-95896809D01*
X189461909Y-95921814D01*
X189434500Y-96024108D01*
X188935500Y-96024108D01*
X188901392Y-95896814D01*
X188901390Y-95896811D01*
X188901390Y-95896809D01*
X188835503Y-95782690D01*
X188835501Y-95782688D01*
X188835500Y-95782686D01*
X188742314Y-95689500D01*
X188742311Y-95689498D01*
X188742309Y-95689496D01*
X188628189Y-95623609D01*
X188628191Y-95623609D01*
X188578799Y-95610375D01*
X188500892Y-95589500D01*
X188369108Y-95589500D01*
X188291200Y-95610375D01*
X188241809Y-95623609D01*
X188127690Y-95689496D01*
X188034496Y-95782690D01*
X187968609Y-95896809D01*
X187961909Y-95921814D01*
X187934500Y-96024108D01*
X187435500Y-96024108D01*
X187401392Y-95896814D01*
X187401390Y-95896811D01*
X187401390Y-95896809D01*
X187335503Y-95782690D01*
X187335501Y-95782688D01*
X187335500Y-95782686D01*
X187242314Y-95689500D01*
X187242311Y-95689498D01*
X187242309Y-95689496D01*
X187128189Y-95623609D01*
X187128191Y-95623609D01*
X187078799Y-95610375D01*
X187000892Y-95589500D01*
X186869108Y-95589500D01*
X186791200Y-95610375D01*
X186741809Y-95623609D01*
X186627690Y-95689496D01*
X186534496Y-95782690D01*
X186468609Y-95896809D01*
X186461909Y-95921814D01*
X186434500Y-96024108D01*
X185935500Y-96024108D01*
X185901392Y-95896814D01*
X185901390Y-95896811D01*
X185901390Y-95896809D01*
X185835503Y-95782690D01*
X185835501Y-95782688D01*
X185835500Y-95782686D01*
X185742314Y-95689500D01*
X185742311Y-95689498D01*
X185742309Y-95689496D01*
X185628189Y-95623609D01*
X185628191Y-95623609D01*
X185578799Y-95610375D01*
X185500892Y-95589500D01*
X185369108Y-95589500D01*
X185291200Y-95610375D01*
X185241809Y-95623609D01*
X185127690Y-95689496D01*
X185034496Y-95782690D01*
X184968609Y-95896809D01*
X184961909Y-95921814D01*
X184934500Y-96024108D01*
X184435500Y-96024108D01*
X184401392Y-95896814D01*
X184401390Y-95896811D01*
X184401390Y-95896809D01*
X184335503Y-95782690D01*
X184335501Y-95782688D01*
X184335500Y-95782686D01*
X184242314Y-95689500D01*
X184242311Y-95689498D01*
X184242309Y-95689496D01*
X184128189Y-95623609D01*
X184128191Y-95623609D01*
X184078799Y-95610375D01*
X184000892Y-95589500D01*
X183869108Y-95589500D01*
X183791200Y-95610375D01*
X183741809Y-95623609D01*
X183627690Y-95689496D01*
X183534496Y-95782690D01*
X183468609Y-95896809D01*
X183461909Y-95921814D01*
X183434500Y-96024108D01*
X182935500Y-96024108D01*
X182901392Y-95896814D01*
X182901390Y-95896811D01*
X182901390Y-95896809D01*
X182835503Y-95782690D01*
X182835501Y-95782688D01*
X182835500Y-95782686D01*
X182742314Y-95689500D01*
X182742311Y-95689498D01*
X182742309Y-95689496D01*
X182628189Y-95623609D01*
X182628191Y-95623609D01*
X182578799Y-95610375D01*
X182500892Y-95589500D01*
X182369108Y-95589500D01*
X182291200Y-95610375D01*
X182241809Y-95623609D01*
X182127690Y-95689496D01*
X182034496Y-95782690D01*
X181968609Y-95896809D01*
X181961909Y-95921814D01*
X181934500Y-96024108D01*
X181435500Y-96024108D01*
X181401392Y-95896814D01*
X181401390Y-95896811D01*
X181401390Y-95896809D01*
X181335503Y-95782690D01*
X181335501Y-95782688D01*
X181335500Y-95782686D01*
X181242314Y-95689500D01*
X181242311Y-95689498D01*
X181242309Y-95689496D01*
X181128189Y-95623609D01*
X181128191Y-95623609D01*
X181078799Y-95610375D01*
X181000892Y-95589500D01*
X180869108Y-95589500D01*
X180791200Y-95610375D01*
X180741809Y-95623609D01*
X180627690Y-95689496D01*
X180534496Y-95782690D01*
X180468609Y-95896809D01*
X180461909Y-95921814D01*
X180434500Y-96024108D01*
X179935500Y-96024108D01*
X179901392Y-95896814D01*
X179901390Y-95896811D01*
X179901390Y-95896809D01*
X179835503Y-95782690D01*
X179835501Y-95782688D01*
X179835500Y-95782686D01*
X179742314Y-95689500D01*
X179742311Y-95689498D01*
X179742309Y-95689496D01*
X179628189Y-95623609D01*
X179628191Y-95623609D01*
X179578799Y-95610375D01*
X179500892Y-95589500D01*
X179369108Y-95589500D01*
X179291200Y-95610375D01*
X179241809Y-95623609D01*
X179127690Y-95689496D01*
X179034496Y-95782690D01*
X178968609Y-95896809D01*
X178961909Y-95921814D01*
X178934500Y-96024108D01*
X178435500Y-96024108D01*
X178401392Y-95896814D01*
X178401390Y-95896811D01*
X178401390Y-95896809D01*
X178335503Y-95782690D01*
X178335501Y-95782688D01*
X178335500Y-95782686D01*
X178242314Y-95689500D01*
X178242311Y-95689498D01*
X178242309Y-95689496D01*
X178128189Y-95623609D01*
X178128191Y-95623609D01*
X178078799Y-95610375D01*
X178000892Y-95589500D01*
X177869108Y-95589500D01*
X177791200Y-95610375D01*
X177741809Y-95623609D01*
X177627690Y-95689496D01*
X177534496Y-95782690D01*
X177468609Y-95896809D01*
X177461909Y-95921814D01*
X177434500Y-96024108D01*
X176935500Y-96024108D01*
X176901392Y-95896814D01*
X176901390Y-95896811D01*
X176901390Y-95896809D01*
X176835503Y-95782690D01*
X176835501Y-95782688D01*
X176835500Y-95782686D01*
X176742314Y-95689500D01*
X176742311Y-95689498D01*
X176742309Y-95689496D01*
X176628189Y-95623609D01*
X176628191Y-95623609D01*
X176578799Y-95610375D01*
X176500892Y-95589500D01*
X176369108Y-95589500D01*
X176291200Y-95610375D01*
X176241809Y-95623609D01*
X176127690Y-95689496D01*
X176034496Y-95782690D01*
X175968609Y-95896809D01*
X175961909Y-95921814D01*
X175934500Y-96024108D01*
X175435500Y-96024108D01*
X175401392Y-95896814D01*
X175401390Y-95896811D01*
X175401390Y-95896809D01*
X175335503Y-95782690D01*
X175335501Y-95782688D01*
X175335500Y-95782686D01*
X175242314Y-95689500D01*
X175242311Y-95689498D01*
X175242309Y-95689496D01*
X175128189Y-95623609D01*
X175128191Y-95623609D01*
X175078799Y-95610375D01*
X175000892Y-95589500D01*
X174869108Y-95589500D01*
X174791200Y-95610375D01*
X174741809Y-95623609D01*
X174627690Y-95689496D01*
X174534496Y-95782690D01*
X174468609Y-95896809D01*
X174461909Y-95921814D01*
X174434500Y-96024108D01*
X173935500Y-96024108D01*
X173901392Y-95896814D01*
X173901390Y-95896811D01*
X173901390Y-95896809D01*
X173835503Y-95782690D01*
X173835501Y-95782688D01*
X173835500Y-95782686D01*
X173742314Y-95689500D01*
X173742311Y-95689498D01*
X173742309Y-95689496D01*
X173628189Y-95623609D01*
X173628191Y-95623609D01*
X173578799Y-95610375D01*
X173500892Y-95589500D01*
X173369108Y-95589500D01*
X173291200Y-95610375D01*
X173241809Y-95623609D01*
X173127690Y-95689496D01*
X173034496Y-95782690D01*
X172968609Y-95896809D01*
X172961909Y-95921814D01*
X172934500Y-96024108D01*
X123765404Y-96024108D01*
X123751392Y-95971814D01*
X123751389Y-95971809D01*
X123685503Y-95857690D01*
X123685501Y-95857688D01*
X123685500Y-95857686D01*
X123592314Y-95764500D01*
X123592311Y-95764498D01*
X123592309Y-95764496D01*
X123478189Y-95698609D01*
X123478191Y-95698609D01*
X123428799Y-95685375D01*
X123350892Y-95664500D01*
X123219108Y-95664500D01*
X123141200Y-95685375D01*
X123091809Y-95698609D01*
X122977690Y-95764496D01*
X122884496Y-95857690D01*
X122818609Y-95971809D01*
X122811909Y-95996814D01*
X122784500Y-96099108D01*
X122278801Y-96099108D01*
X122251392Y-95996814D01*
X122251390Y-95996811D01*
X122251390Y-95996809D01*
X122185503Y-95882690D01*
X122185501Y-95882688D01*
X122185500Y-95882686D01*
X122092314Y-95789500D01*
X122092311Y-95789498D01*
X122092309Y-95789496D01*
X121978189Y-95723609D01*
X121978191Y-95723609D01*
X121928799Y-95710375D01*
X121850892Y-95689500D01*
X121719108Y-95689500D01*
X121641200Y-95710375D01*
X121591809Y-95723609D01*
X121477690Y-95789496D01*
X121384496Y-95882690D01*
X121318609Y-95996809D01*
X121311294Y-96024109D01*
X121284500Y-96124108D01*
X118785500Y-96124108D01*
X118785500Y-96099108D01*
X118751392Y-95971814D01*
X118751390Y-95971810D01*
X118751390Y-95971809D01*
X118685503Y-95857690D01*
X118685501Y-95857688D01*
X118685500Y-95857686D01*
X118592314Y-95764500D01*
X118592311Y-95764498D01*
X118592309Y-95764496D01*
X118478189Y-95698609D01*
X118478191Y-95698609D01*
X118428799Y-95685375D01*
X118350892Y-95664500D01*
X118219108Y-95664500D01*
X118141200Y-95685375D01*
X118091809Y-95698609D01*
X117977690Y-95764496D01*
X117884496Y-95857690D01*
X117818609Y-95971809D01*
X117811909Y-95996814D01*
X117784500Y-96099108D01*
X117285500Y-96099108D01*
X117285500Y-96049108D01*
X117251392Y-95921814D01*
X117251390Y-95921811D01*
X117251390Y-95921809D01*
X117185503Y-95807690D01*
X117185501Y-95807688D01*
X117185500Y-95807686D01*
X117092314Y-95714500D01*
X117092311Y-95714498D01*
X117092309Y-95714496D01*
X116978189Y-95648609D01*
X116978191Y-95648609D01*
X116928799Y-95635375D01*
X116850892Y-95614500D01*
X116719108Y-95614500D01*
X116641200Y-95635375D01*
X116591809Y-95648609D01*
X116477690Y-95714496D01*
X116384496Y-95807690D01*
X116318609Y-95921809D01*
X116318608Y-95921814D01*
X116284500Y-96049108D01*
X115785500Y-96049108D01*
X115751392Y-95921814D01*
X115751390Y-95921811D01*
X115751390Y-95921809D01*
X115685503Y-95807690D01*
X115685501Y-95807688D01*
X115685500Y-95807686D01*
X115592314Y-95714500D01*
X115592311Y-95714498D01*
X115592309Y-95714496D01*
X115478189Y-95648609D01*
X115478191Y-95648609D01*
X115428799Y-95635375D01*
X115350892Y-95614500D01*
X115219108Y-95614500D01*
X115141200Y-95635375D01*
X115091809Y-95648609D01*
X114977690Y-95714496D01*
X114884496Y-95807690D01*
X114818609Y-95921809D01*
X114818608Y-95921814D01*
X114784500Y-96049108D01*
X114285500Y-96049108D01*
X114251392Y-95921814D01*
X114251390Y-95921811D01*
X114251390Y-95921809D01*
X114185503Y-95807690D01*
X114185501Y-95807688D01*
X114185500Y-95807686D01*
X114092314Y-95714500D01*
X114092311Y-95714498D01*
X114092309Y-95714496D01*
X113978189Y-95648609D01*
X113978191Y-95648609D01*
X113928799Y-95635375D01*
X113850892Y-95614500D01*
X113719108Y-95614500D01*
X113641200Y-95635375D01*
X113591809Y-95648609D01*
X113477690Y-95714496D01*
X113384496Y-95807690D01*
X113318609Y-95921809D01*
X113318608Y-95921814D01*
X113284500Y-96049108D01*
X112785500Y-96049108D01*
X112751392Y-95921814D01*
X112751390Y-95921811D01*
X112751390Y-95921809D01*
X112685503Y-95807690D01*
X112685501Y-95807688D01*
X112685500Y-95807686D01*
X112592314Y-95714500D01*
X112592311Y-95714498D01*
X112592309Y-95714496D01*
X112478189Y-95648609D01*
X112478191Y-95648609D01*
X112428799Y-95635375D01*
X112350892Y-95614500D01*
X112219108Y-95614500D01*
X112141200Y-95635375D01*
X112091809Y-95648609D01*
X111977690Y-95714496D01*
X111884496Y-95807690D01*
X111818609Y-95921809D01*
X111818608Y-95921814D01*
X111784500Y-96049108D01*
X111285500Y-96049108D01*
X111251392Y-95921814D01*
X111251390Y-95921811D01*
X111251390Y-95921809D01*
X111185503Y-95807690D01*
X111185501Y-95807688D01*
X111185500Y-95807686D01*
X111092314Y-95714500D01*
X111092311Y-95714498D01*
X111092309Y-95714496D01*
X110978189Y-95648609D01*
X110978191Y-95648609D01*
X110928799Y-95635375D01*
X110850892Y-95614500D01*
X110719108Y-95614500D01*
X110641200Y-95635375D01*
X110591809Y-95648609D01*
X110477690Y-95714496D01*
X110384496Y-95807690D01*
X110318609Y-95921809D01*
X110318608Y-95921814D01*
X110284500Y-96049108D01*
X109785500Y-96049108D01*
X109751392Y-95921814D01*
X109751390Y-95921811D01*
X109751390Y-95921809D01*
X109685503Y-95807690D01*
X109685501Y-95807688D01*
X109685500Y-95807686D01*
X109592314Y-95714500D01*
X109592311Y-95714498D01*
X109592309Y-95714496D01*
X109478189Y-95648609D01*
X109478191Y-95648609D01*
X109428799Y-95635375D01*
X109350892Y-95614500D01*
X109219108Y-95614500D01*
X109141200Y-95635375D01*
X109091809Y-95648609D01*
X108977690Y-95714496D01*
X108884496Y-95807690D01*
X108818609Y-95921809D01*
X108818608Y-95921814D01*
X108784500Y-96049108D01*
X108285500Y-96049108D01*
X108251392Y-95921814D01*
X108251390Y-95921811D01*
X108251390Y-95921809D01*
X108185503Y-95807690D01*
X108185501Y-95807688D01*
X108185500Y-95807686D01*
X108092314Y-95714500D01*
X108092311Y-95714498D01*
X108092309Y-95714496D01*
X107978189Y-95648609D01*
X107978191Y-95648609D01*
X107928799Y-95635375D01*
X107850892Y-95614500D01*
X107719108Y-95614500D01*
X107641200Y-95635375D01*
X107591809Y-95648609D01*
X107477690Y-95714496D01*
X107384496Y-95807690D01*
X107318609Y-95921809D01*
X107318608Y-95921814D01*
X107284500Y-96049108D01*
X106785500Y-96049108D01*
X106751392Y-95921814D01*
X106751390Y-95921811D01*
X106751390Y-95921809D01*
X106685503Y-95807690D01*
X106685501Y-95807688D01*
X106685500Y-95807686D01*
X106592314Y-95714500D01*
X106592311Y-95714498D01*
X106592309Y-95714496D01*
X106478189Y-95648609D01*
X106478191Y-95648609D01*
X106428799Y-95635375D01*
X106350892Y-95614500D01*
X106219108Y-95614500D01*
X106141200Y-95635375D01*
X106091809Y-95648609D01*
X105977690Y-95714496D01*
X105884496Y-95807690D01*
X105818609Y-95921809D01*
X105818608Y-95921814D01*
X105784500Y-96049108D01*
X105285500Y-96049108D01*
X105251392Y-95921814D01*
X105251390Y-95921811D01*
X105251390Y-95921809D01*
X105185503Y-95807690D01*
X105185501Y-95807688D01*
X105185500Y-95807686D01*
X105092314Y-95714500D01*
X105092311Y-95714498D01*
X105092309Y-95714496D01*
X104978189Y-95648609D01*
X104978191Y-95648609D01*
X104928799Y-95635375D01*
X104850892Y-95614500D01*
X104719108Y-95614500D01*
X104641200Y-95635375D01*
X104591809Y-95648609D01*
X104477690Y-95714496D01*
X104384496Y-95807690D01*
X104318609Y-95921809D01*
X104318608Y-95921814D01*
X104284500Y-96049108D01*
X103785500Y-96049108D01*
X103751392Y-95921814D01*
X103751390Y-95921811D01*
X103751390Y-95921809D01*
X103685503Y-95807690D01*
X103685501Y-95807688D01*
X103685500Y-95807686D01*
X103592314Y-95714500D01*
X103592311Y-95714498D01*
X103592309Y-95714496D01*
X103478189Y-95648609D01*
X103478191Y-95648609D01*
X103428799Y-95635375D01*
X103350892Y-95614500D01*
X103219108Y-95614500D01*
X103141200Y-95635375D01*
X103091809Y-95648609D01*
X102977690Y-95714496D01*
X102884496Y-95807690D01*
X102818609Y-95921809D01*
X102818608Y-95921814D01*
X102784500Y-96049108D01*
X102285500Y-96049108D01*
X102251392Y-95921814D01*
X102251390Y-95921811D01*
X102251390Y-95921809D01*
X102185503Y-95807690D01*
X102185501Y-95807688D01*
X102185500Y-95807686D01*
X102092314Y-95714500D01*
X102092311Y-95714498D01*
X102092309Y-95714496D01*
X101978189Y-95648609D01*
X101978191Y-95648609D01*
X101928799Y-95635375D01*
X101850892Y-95614500D01*
X101719108Y-95614500D01*
X101641200Y-95635375D01*
X101591809Y-95648609D01*
X101477690Y-95714496D01*
X101384496Y-95807690D01*
X101318609Y-95921809D01*
X101318608Y-95921814D01*
X101284500Y-96049108D01*
X100785500Y-96049108D01*
X100751392Y-95921814D01*
X100751390Y-95921811D01*
X100751390Y-95921809D01*
X100685503Y-95807690D01*
X100685501Y-95807688D01*
X100685500Y-95807686D01*
X100592314Y-95714500D01*
X100592311Y-95714498D01*
X100592309Y-95714496D01*
X100478189Y-95648609D01*
X100478191Y-95648609D01*
X100428799Y-95635375D01*
X100350892Y-95614500D01*
X100219108Y-95614500D01*
X100141200Y-95635375D01*
X100091809Y-95648609D01*
X99977690Y-95714496D01*
X99884496Y-95807690D01*
X99818609Y-95921809D01*
X99818608Y-95921814D01*
X99784500Y-96049108D01*
X99285500Y-96049108D01*
X99251392Y-95921814D01*
X99251390Y-95921811D01*
X99251390Y-95921809D01*
X99185503Y-95807690D01*
X99185501Y-95807688D01*
X99185500Y-95807686D01*
X99092314Y-95714500D01*
X99092311Y-95714498D01*
X99092309Y-95714496D01*
X98978189Y-95648609D01*
X98978191Y-95648609D01*
X98928799Y-95635375D01*
X98850892Y-95614500D01*
X98719108Y-95614500D01*
X98641200Y-95635375D01*
X98591809Y-95648609D01*
X98477690Y-95714496D01*
X98384496Y-95807690D01*
X98318609Y-95921809D01*
X98318608Y-95921814D01*
X98284500Y-96049108D01*
X97785500Y-96049108D01*
X97751392Y-95921814D01*
X97751390Y-95921811D01*
X97751390Y-95921809D01*
X97685503Y-95807690D01*
X97685501Y-95807688D01*
X97685500Y-95807686D01*
X97592314Y-95714500D01*
X97592311Y-95714498D01*
X97592309Y-95714496D01*
X97478189Y-95648609D01*
X97478191Y-95648609D01*
X97428799Y-95635375D01*
X97350892Y-95614500D01*
X97219108Y-95614500D01*
X97141200Y-95635375D01*
X97091809Y-95648609D01*
X96977690Y-95714496D01*
X96884496Y-95807690D01*
X96818609Y-95921809D01*
X96818608Y-95921814D01*
X96784500Y-96049108D01*
X96285500Y-96049108D01*
X96251392Y-95921814D01*
X96251390Y-95921811D01*
X96251390Y-95921809D01*
X96185503Y-95807690D01*
X96185501Y-95807688D01*
X96185500Y-95807686D01*
X96092314Y-95714500D01*
X96092311Y-95714498D01*
X96092309Y-95714496D01*
X95978189Y-95648609D01*
X95978191Y-95648609D01*
X95928799Y-95635375D01*
X95850892Y-95614500D01*
X95719108Y-95614500D01*
X95641200Y-95635375D01*
X95591809Y-95648609D01*
X95477690Y-95714496D01*
X95384496Y-95807690D01*
X95318609Y-95921809D01*
X95318608Y-95921814D01*
X95284500Y-96049108D01*
X94785500Y-96049108D01*
X94751392Y-95921814D01*
X94751390Y-95921811D01*
X94751390Y-95921809D01*
X94685503Y-95807690D01*
X94685501Y-95807688D01*
X94685500Y-95807686D01*
X94592314Y-95714500D01*
X94592311Y-95714498D01*
X94592309Y-95714496D01*
X94478189Y-95648609D01*
X94478191Y-95648609D01*
X94428799Y-95635375D01*
X94350892Y-95614500D01*
X94219108Y-95614500D01*
X94141200Y-95635375D01*
X94091809Y-95648609D01*
X93977690Y-95714496D01*
X93884496Y-95807690D01*
X93818609Y-95921809D01*
X93818608Y-95921814D01*
X93784500Y-96049108D01*
X75210500Y-96049108D01*
X75210500Y-72287644D01*
X76209500Y-72287644D01*
X76209500Y-72492355D01*
X76241521Y-72694529D01*
X76304780Y-72889219D01*
X76397712Y-73071609D01*
X76397714Y-73071613D01*
X76518029Y-73237213D01*
X76518031Y-73237215D01*
X76518034Y-73237219D01*
X76662781Y-73381966D01*
X76662784Y-73381968D01*
X76662786Y-73381970D01*
X76828386Y-73502285D01*
X76828390Y-73502287D01*
X77010781Y-73595220D01*
X77205466Y-73658477D01*
X77205467Y-73658477D01*
X77205470Y-73658478D01*
X77407645Y-73690500D01*
X77407648Y-73690500D01*
X77612355Y-73690500D01*
X77814529Y-73658478D01*
X77814530Y-73658477D01*
X77814534Y-73658477D01*
X78009219Y-73595220D01*
X78191610Y-73502287D01*
X78357219Y-73381966D01*
X78501966Y-73237219D01*
X78622287Y-73071610D01*
X78715220Y-72889219D01*
X78778477Y-72694534D01*
X78782437Y-72669534D01*
X78810500Y-72492355D01*
X78810500Y-72287643D01*
X78810499Y-72287641D01*
X78808378Y-72274243D01*
X78806541Y-72262644D01*
X232534500Y-72262644D01*
X232534500Y-72467355D01*
X232566521Y-72669529D01*
X232629780Y-72864219D01*
X232722712Y-73046609D01*
X232722714Y-73046613D01*
X232843029Y-73212213D01*
X232843031Y-73212215D01*
X232843034Y-73212219D01*
X232987781Y-73356966D01*
X232987784Y-73356968D01*
X232987786Y-73356970D01*
X233153386Y-73477285D01*
X233153390Y-73477287D01*
X233335781Y-73570220D01*
X233530466Y-73633477D01*
X233530467Y-73633477D01*
X233530470Y-73633478D01*
X233732645Y-73665500D01*
X233732648Y-73665500D01*
X233937355Y-73665500D01*
X234139529Y-73633478D01*
X234139530Y-73633477D01*
X234139534Y-73633477D01*
X234334219Y-73570220D01*
X234516610Y-73477287D01*
X234682219Y-73356966D01*
X234826966Y-73212219D01*
X234907180Y-73101813D01*
X234947285Y-73046613D01*
X234947287Y-73046610D01*
X235040220Y-72864219D01*
X235103477Y-72669534D01*
X235131540Y-72492355D01*
X235135500Y-72467355D01*
X235135500Y-72262644D01*
X235103478Y-72060470D01*
X235103477Y-72060466D01*
X235040220Y-71865781D01*
X234947287Y-71683390D01*
X234947285Y-71683386D01*
X234826970Y-71517786D01*
X234826968Y-71517784D01*
X234826966Y-71517781D01*
X234682219Y-71373034D01*
X234682215Y-71373031D01*
X234682213Y-71373029D01*
X234516613Y-71252714D01*
X234516609Y-71252712D01*
X234334219Y-71159780D01*
X234139529Y-71096521D01*
X233937355Y-71064500D01*
X233937352Y-71064500D01*
X233732648Y-71064500D01*
X233732645Y-71064500D01*
X233530470Y-71096521D01*
X233335780Y-71159780D01*
X233153390Y-71252712D01*
X233153386Y-71252714D01*
X232987786Y-71373029D01*
X232843029Y-71517786D01*
X232722714Y-71683386D01*
X232722712Y-71683390D01*
X232629780Y-71865780D01*
X232566521Y-72060470D01*
X232534500Y-72262644D01*
X78806541Y-72262644D01*
X78778478Y-72085470D01*
X78770354Y-72060466D01*
X78715220Y-71890781D01*
X78622287Y-71708390D01*
X78622285Y-71708386D01*
X78501970Y-71542786D01*
X78501968Y-71542784D01*
X78501966Y-71542781D01*
X78357219Y-71398034D01*
X78357215Y-71398031D01*
X78357213Y-71398029D01*
X78191613Y-71277714D01*
X78191609Y-71277712D01*
X78009219Y-71184780D01*
X77814529Y-71121521D01*
X77612355Y-71089500D01*
X77612352Y-71089500D01*
X77407648Y-71089500D01*
X77407645Y-71089500D01*
X77205470Y-71121521D01*
X77010780Y-71184780D01*
X76828390Y-71277712D01*
X76828386Y-71277714D01*
X76662786Y-71398029D01*
X76518029Y-71542786D01*
X76397714Y-71708386D01*
X76397712Y-71708390D01*
X76304780Y-71890780D01*
X76241521Y-72085470D01*
X76209500Y-72287644D01*
X75210500Y-72287644D01*
X75210500Y-70189500D01*
X75229407Y-70131309D01*
X75278907Y-70095345D01*
X75309500Y-70090500D01*
X236010500Y-70090500D01*
X236068691Y-70109407D01*
G37*
%TD.AperFunction*%
%TD*%
M02*
