%TF.GenerationSoftware,KiCad,Pcbnew,9.0.0*%
%TF.CreationDate,2025-09-20T16:18:57+02:00*%
%TF.ProjectId,ecap5-bcarrier-xlite,65636170-352d-4626-9361-72726965722d,rev?*%
%TF.SameCoordinates,Original*%
%TF.FileFunction,Copper,L4,Bot*%
%TF.FilePolarity,Positive*%
%FSLAX46Y46*%
G04 Gerber Fmt 4.6, Leading zero omitted, Abs format (unit mm)*
G04 Created by KiCad (PCBNEW 9.0.0) date 2025-09-20 16:18:57*
%MOMM*%
%LPD*%
G01*
G04 APERTURE LIST*
G04 Aperture macros list*
%AMRoundRect*
0 Rectangle with rounded corners*
0 $1 Rounding radius*
0 $2 $3 $4 $5 $6 $7 $8 $9 X,Y pos of 4 corners*
0 Add a 4 corners polygon primitive as box body*
4,1,4,$2,$3,$4,$5,$6,$7,$8,$9,$2,$3,0*
0 Add four circle primitives for the rounded corners*
1,1,$1+$1,$2,$3*
1,1,$1+$1,$4,$5*
1,1,$1+$1,$6,$7*
1,1,$1+$1,$8,$9*
0 Add four rect primitives between the rounded corners*
20,1,$1+$1,$2,$3,$4,$5,0*
20,1,$1+$1,$4,$5,$6,$7,0*
20,1,$1+$1,$6,$7,$8,$9,0*
20,1,$1+$1,$8,$9,$2,$3,0*%
G04 Aperture macros list end*
%TA.AperFunction,ComponentPad*%
%ADD10R,1.700000X1.700000*%
%TD*%
%TA.AperFunction,ComponentPad*%
%ADD11C,1.700000*%
%TD*%
%TA.AperFunction,HeatsinkPad*%
%ADD12O,2.100000X1.000000*%
%TD*%
%TA.AperFunction,HeatsinkPad*%
%ADD13O,1.800000X1.000000*%
%TD*%
%TA.AperFunction,ComponentPad*%
%ADD14RoundRect,0.250000X-1.050000X1.050000X-1.050000X-1.050000X1.050000X-1.050000X1.050000X1.050000X0*%
%TD*%
%TA.AperFunction,ComponentPad*%
%ADD15C,2.600000*%
%TD*%
%TA.AperFunction,ViaPad*%
%ADD16C,0.600000*%
%TD*%
%TA.AperFunction,Conductor*%
%ADD17C,0.200000*%
%TD*%
%TA.AperFunction,Conductor*%
%ADD18C,0.156464*%
%TD*%
%TA.AperFunction,Conductor*%
%ADD19C,0.150000*%
%TD*%
G04 APERTURE END LIST*
D10*
%TO.P,J3,1,Pin_1*%
%TO.N,/SOM2.JTAC_TCK*%
X155960000Y-105375000D03*
D11*
%TO.P,J3,2,Pin_2*%
%TO.N,/SOM2.JTAC_TDI*%
X155960000Y-102835000D03*
%TO.P,J3,3,Pin_3*%
%TO.N,/SOM2.JTAC_TDO*%
X155960000Y-100295000D03*
%TO.P,J3,4,Pin_4*%
%TO.N,/SOM2.JTAC_TMS*%
X155960000Y-97755000D03*
%TD*%
D12*
%TO.P,J5,S1,SHIELD*%
%TO.N,GND*%
X229530000Y-118985000D03*
D13*
X233710000Y-118985000D03*
D12*
X229530000Y-110345000D03*
D13*
X233710000Y-110345000D03*
%TD*%
D10*
%TO.P,J4,1,Pin_1*%
%TO.N,/SOM1.JTAC_TCK*%
X77260000Y-105400000D03*
D11*
%TO.P,J4,2,Pin_2*%
%TO.N,/SOM1.JTAC_TDI*%
X77260000Y-102860000D03*
%TO.P,J4,3,Pin_3*%
%TO.N,/SOM1.JTAC_TDO*%
X77260000Y-100320000D03*
%TO.P,J4,4,Pin_4*%
%TO.N,/SOM1.JTAC_TMS*%
X77260000Y-97780000D03*
%TD*%
D10*
%TO.P,JP2,1,A*%
%TO.N,/SOM2.UART_TX*%
X208535000Y-113705000D03*
D11*
%TO.P,JP2,2,C*%
%TO.N,/UART.TX*%
X205995000Y-113705000D03*
%TO.P,JP2,3,B*%
%TO.N,/SOM1.UART_TX*%
X203455000Y-113705000D03*
%TD*%
D14*
%TO.P,J9,1,Pin_1*%
%TO.N,GND*%
X80890000Y-111965000D03*
D15*
%TO.P,J9,2,Pin_2*%
%TO.N,Net-(D1-A)*%
X80890000Y-116965000D03*
%TD*%
D10*
%TO.P,JP1,1,A*%
%TO.N,/SOM2.UART_RX*%
X208525000Y-117240000D03*
D11*
%TO.P,JP1,2,C*%
%TO.N,/UART.RX*%
X205985000Y-117240000D03*
%TO.P,JP1,3,B*%
%TO.N,/SOM1.UART_RX*%
X203445000Y-117240000D03*
%TD*%
D16*
%TO.N,GND*%
X95887381Y-75990000D03*
X235810000Y-116915000D03*
X224485000Y-113165000D03*
X128785000Y-98740000D03*
X219160000Y-117665000D03*
X136592143Y-124590000D03*
X207825476Y-124590000D03*
X221435000Y-98739999D03*
X140985000Y-119790000D03*
X224760000Y-113865000D03*
X230721905Y-70390000D03*
X235810000Y-93890000D03*
X139136190Y-70390000D03*
X224435000Y-98739999D03*
X120785000Y-121040000D03*
X143535000Y-104540000D03*
X179840952Y-124590000D03*
X212360000Y-116580000D03*
X183185000Y-104539999D03*
X75535000Y-104123333D03*
X118783810Y-124590000D03*
X197935000Y-98739999D03*
X96785000Y-111831667D03*
X92035000Y-104540000D03*
X95887381Y-70390000D03*
X202737381Y-124590000D03*
X85711190Y-124590000D03*
X163685000Y-104539999D03*
X193185000Y-104539999D03*
X235810000Y-101570000D03*
X114785000Y-98740000D03*
X219685000Y-104539999D03*
X86285000Y-98740000D03*
X116239762Y-124590000D03*
X88255238Y-75990000D03*
X75535000Y-114356667D03*
X212913571Y-70390000D03*
X92285000Y-98740000D03*
X183435000Y-98739999D03*
X235810000Y-91331667D03*
X201685000Y-104539999D03*
X126415952Y-70390000D03*
X218910000Y-109590000D03*
X235810000Y-122031667D03*
X144224286Y-70390000D03*
X136592143Y-70390000D03*
X165435000Y-98739999D03*
X233265952Y-70390000D03*
X84535000Y-104540000D03*
X154400476Y-70390000D03*
X212435000Y-98739999D03*
X124710000Y-115440000D03*
X218435000Y-98739999D03*
X218001667Y-70390000D03*
X202737381Y-70390000D03*
X156944524Y-124590000D03*
X124035000Y-104540000D03*
X225652857Y-91340000D03*
X75535000Y-101565000D03*
X89035000Y-104540000D03*
X108607619Y-70390000D03*
X143860000Y-119640000D03*
X206185000Y-104539999D03*
X111142143Y-101740000D03*
X75535000Y-124590000D03*
X139035000Y-104540000D03*
X219935000Y-98739999D03*
X83167143Y-124590000D03*
X102785000Y-98740000D03*
X75535000Y-75981667D03*
X200193333Y-70390000D03*
X215555000Y-111340000D03*
X200193333Y-124590000D03*
X134048095Y-124590000D03*
X75535000Y-109240000D03*
X211610000Y-116580000D03*
X98285000Y-98740000D03*
X159704048Y-101740000D03*
X83035000Y-104540000D03*
X174435000Y-98739999D03*
X75535000Y-119473333D03*
X96785000Y-113315000D03*
X127035000Y-104540000D03*
X142035000Y-104540000D03*
X107715000Y-121035000D03*
X103519524Y-101740000D03*
X111151667Y-75990000D03*
X113695714Y-70390000D03*
X162435000Y-98739999D03*
X107715000Y-115460000D03*
X95035000Y-104540000D03*
X154400476Y-124590000D03*
X222935000Y-98739999D03*
X182385000Y-124590000D03*
X235810000Y-86215000D03*
X205281429Y-124590000D03*
X134785000Y-98740000D03*
X93343333Y-124590000D03*
X212185000Y-104539999D03*
X142285000Y-98740000D03*
X229885000Y-104540000D03*
X223089762Y-70390000D03*
X190229048Y-101740000D03*
X235810000Y-114356667D03*
X186435000Y-98739999D03*
X172208810Y-124590000D03*
X136035000Y-104540000D03*
X218185000Y-104539999D03*
X123871905Y-70390000D03*
X216935000Y-98739999D03*
X131785000Y-98740000D03*
X121327857Y-124590000D03*
X103519524Y-70390000D03*
X89285000Y-98740000D03*
X99785000Y-98740000D03*
X117685000Y-122215000D03*
X201935000Y-98739999D03*
X179840952Y-70390000D03*
X126685000Y-119790000D03*
X223089762Y-124590000D03*
X146785000Y-98740000D03*
X235810000Y-124590000D03*
X235810000Y-75981667D03*
X163935000Y-98739999D03*
X78079048Y-70390000D03*
X235810000Y-83656667D03*
X75535000Y-70390000D03*
X197876667Y-101740000D03*
X116285000Y-98740000D03*
X75535000Y-122031667D03*
X169935000Y-98739999D03*
X225633810Y-70390000D03*
X116239762Y-70390000D03*
X100975476Y-70390000D03*
X86035000Y-104540000D03*
X130035000Y-104540000D03*
X192561190Y-70390000D03*
X235810000Y-106681667D03*
X221185000Y-104539999D03*
X106035000Y-104540000D03*
X235810000Y-96448333D03*
X149312381Y-70390000D03*
X220767143Y-101740000D03*
X169685000Y-104539999D03*
X181935000Y-98739999D03*
X78079048Y-124590000D03*
X96785000Y-98740000D03*
X207935000Y-98739999D03*
X159488571Y-124590000D03*
X113695714Y-124590000D03*
X198590000Y-117490000D03*
X225935000Y-98739999D03*
X75535000Y-91331667D03*
X105785000Y-98740000D03*
X96785000Y-112573333D03*
X218001667Y-124590000D03*
X136807619Y-101740000D03*
X124285000Y-98740000D03*
X191185000Y-104539999D03*
X192561190Y-124590000D03*
X108785000Y-98740000D03*
X122785000Y-98740000D03*
X222135000Y-109590000D03*
X152071905Y-101740000D03*
X143785000Y-98740000D03*
X111785000Y-98740000D03*
X175685000Y-104539999D03*
X96035000Y-111090000D03*
X233285000Y-75990000D03*
X224185000Y-104539999D03*
X235810000Y-119473333D03*
X177435000Y-98739999D03*
X103519524Y-124590000D03*
X233285000Y-91340000D03*
X96035000Y-112573333D03*
X131504048Y-70390000D03*
X117785000Y-98740000D03*
X75535000Y-78540000D03*
X195105238Y-124590000D03*
X230721905Y-124590000D03*
X235810000Y-88773333D03*
X214530000Y-108890000D03*
X225633810Y-124590000D03*
X140535000Y-104540000D03*
X212913571Y-124590000D03*
X118785000Y-98740000D03*
X88255238Y-101740000D03*
X95887381Y-124590000D03*
X121035000Y-104540000D03*
X178935000Y-98739999D03*
X103519524Y-83665000D03*
X75535000Y-106681667D03*
X114035000Y-104540000D03*
X104035000Y-104540000D03*
X87785000Y-98740000D03*
X235810000Y-109240000D03*
X213685000Y-104539999D03*
X144224286Y-124590000D03*
X200185000Y-104539999D03*
X139285000Y-98740000D03*
X195185000Y-104539999D03*
X187473095Y-124590000D03*
X163485000Y-108915000D03*
X162185000Y-104539999D03*
X209185000Y-104539999D03*
X219160000Y-115665000D03*
X106063571Y-124590000D03*
X204685000Y-104539999D03*
X98035000Y-104540000D03*
X96035000Y-113315000D03*
X75535000Y-111798333D03*
X225135000Y-119740000D03*
X156944524Y-70390000D03*
X167342143Y-101740000D03*
X134048095Y-70390000D03*
X108607619Y-124590000D03*
X118774286Y-101740000D03*
X93535000Y-104540000D03*
X101285000Y-98740000D03*
X88255238Y-91315000D03*
X98431429Y-124590000D03*
X95877857Y-101740000D03*
X131535000Y-104540000D03*
X99615000Y-118190000D03*
X216685000Y-104539999D03*
X225260000Y-113340000D03*
X146768333Y-124590000D03*
X169664762Y-124590000D03*
X210685000Y-104539999D03*
X190017143Y-70390000D03*
X133035000Y-104540000D03*
X227935000Y-117865000D03*
X192435000Y-98739999D03*
X112035000Y-104540000D03*
X182385000Y-70390000D03*
X149312381Y-124590000D03*
X123871905Y-124590000D03*
X210369524Y-124590000D03*
X210935000Y-98739999D03*
X151856429Y-70390000D03*
X88255238Y-124590000D03*
X137785000Y-98740000D03*
X181185000Y-104539999D03*
X110035000Y-104540000D03*
X190017143Y-124590000D03*
X162032619Y-124590000D03*
X126415952Y-124590000D03*
X140785000Y-98740000D03*
X104285000Y-98740000D03*
X128960000Y-70390000D03*
X217435000Y-109590000D03*
X225210000Y-117615000D03*
X131504048Y-124590000D03*
X137535000Y-104540000D03*
X80623095Y-75990000D03*
X111151667Y-70390000D03*
X99635000Y-122115000D03*
X193935000Y-98739999D03*
X235810000Y-78540000D03*
X167120714Y-124590000D03*
X165185000Y-104539999D03*
X105210000Y-122115000D03*
X105210000Y-114165000D03*
X118035000Y-104540000D03*
X235810000Y-81098333D03*
X172208810Y-70390000D03*
X75535000Y-86215000D03*
X95887381Y-83665000D03*
X75535000Y-99006667D03*
X196935000Y-98739999D03*
X177296905Y-70390000D03*
X171185000Y-104539999D03*
X213935000Y-98739999D03*
X215435000Y-98739999D03*
X184929048Y-70390000D03*
X220545714Y-124590000D03*
X158160000Y-119840000D03*
X205281429Y-70390000D03*
X177296905Y-124590000D03*
X184935000Y-98739999D03*
X185185000Y-104539999D03*
X228160000Y-111015000D03*
X75535000Y-96448333D03*
X207825476Y-70390000D03*
X75535000Y-83656667D03*
X189435000Y-98739999D03*
X144449286Y-101740000D03*
X120785000Y-115440000D03*
X84785000Y-98740000D03*
X164576667Y-70390000D03*
X88255238Y-70390000D03*
X129185000Y-101740000D03*
X93343333Y-70390000D03*
X180435000Y-98739999D03*
X235810000Y-70390000D03*
X80623095Y-124590000D03*
X118783810Y-70390000D03*
X213131429Y-101740000D03*
X174974286Y-101740000D03*
X172935000Y-98739999D03*
X90785000Y-98740000D03*
X162032619Y-70390000D03*
X195435000Y-98739999D03*
X117685000Y-114315000D03*
X177185000Y-104539999D03*
X90535000Y-104540000D03*
X111615000Y-121040000D03*
X111151667Y-124590000D03*
X235810000Y-73423333D03*
X210369524Y-70390000D03*
X75535000Y-93890000D03*
X139136190Y-124590000D03*
X197649286Y-124590000D03*
X75535000Y-73423333D03*
X75535000Y-81098333D03*
X182596905Y-101740000D03*
X145035000Y-104540000D03*
X225652857Y-83665000D03*
X141680238Y-124590000D03*
X106063571Y-70390000D03*
X172685000Y-104539999D03*
X225685000Y-104539999D03*
X136285000Y-98740000D03*
X85711190Y-70390000D03*
X226185000Y-123890000D03*
X75535000Y-116915000D03*
X113285000Y-98740000D03*
X128535000Y-104540000D03*
X235810000Y-111798333D03*
X174752857Y-124590000D03*
X179185000Y-104539999D03*
X90799286Y-124590000D03*
X209435000Y-98739999D03*
X96785000Y-111090000D03*
X146535000Y-104540000D03*
X128960000Y-124590000D03*
X107285000Y-98740000D03*
X96035000Y-111831667D03*
X134535000Y-104540000D03*
X187185000Y-104539999D03*
X190935000Y-98739999D03*
X218160000Y-116690000D03*
X187935000Y-98739999D03*
X203435000Y-98739999D03*
X121285000Y-98740000D03*
X214530000Y-113815000D03*
X98431429Y-70390000D03*
X87535000Y-104540000D03*
X110285000Y-98740000D03*
X197649286Y-70390000D03*
X125535000Y-104540000D03*
X189185000Y-104539999D03*
X116035000Y-104540000D03*
X166935000Y-98739999D03*
X124685000Y-121040000D03*
X102035000Y-104540000D03*
X122535000Y-104540000D03*
X215457619Y-124590000D03*
X204935000Y-98739999D03*
X233285000Y-104540000D03*
X195105238Y-70390000D03*
X233285000Y-99015000D03*
X220545714Y-70390000D03*
X180635000Y-108940000D03*
X95887381Y-91315000D03*
X166685000Y-104539999D03*
X88255238Y-83665000D03*
X235810000Y-99006667D03*
X80623095Y-70390000D03*
X217160000Y-117665000D03*
X146768333Y-70390000D03*
X83285000Y-98740000D03*
X235810000Y-104123333D03*
X203185000Y-104539999D03*
X133285000Y-98740000D03*
X233265952Y-124590000D03*
X127285000Y-98740000D03*
X194927500Y-117490000D03*
X96535000Y-104540000D03*
X197185000Y-104539999D03*
X220660000Y-109590000D03*
X174752857Y-70390000D03*
X103519524Y-75990000D03*
X93785000Y-98740000D03*
X171435000Y-98739999D03*
X228177857Y-124590000D03*
X174185000Y-104539999D03*
X168435000Y-98739999D03*
X200435000Y-98739999D03*
X125785000Y-98740000D03*
X215185000Y-104539999D03*
X164576667Y-124590000D03*
X100975476Y-124590000D03*
X145285000Y-98740000D03*
X207685000Y-104539999D03*
X206435000Y-98739999D03*
X225652857Y-75990000D03*
X114710000Y-122215000D03*
X111615000Y-115440000D03*
X215457619Y-70390000D03*
X141680238Y-70390000D03*
X75535000Y-88773333D03*
X159488571Y-70390000D03*
X222685000Y-104539999D03*
X169664762Y-70390000D03*
X217160000Y-115665000D03*
X80623095Y-101740000D03*
X95285000Y-98740000D03*
X83167143Y-70390000D03*
X80623095Y-83665000D03*
X99610000Y-114165000D03*
X184929048Y-124590000D03*
X105215000Y-118190000D03*
X233285000Y-83665000D03*
X151856429Y-124590000D03*
X108035000Y-104540000D03*
X90799286Y-70390000D03*
X175935000Y-98739999D03*
X167120714Y-70390000D03*
X121327857Y-70390000D03*
X114710000Y-114315000D03*
X223610000Y-118740000D03*
X228177857Y-70390000D03*
X168185000Y-104539999D03*
X187473095Y-70390000D03*
X130285000Y-98740000D03*
X100035000Y-104540000D03*
%TO.N,VIN9_15*%
X149093333Y-106940000D03*
X228243333Y-106940000D03*
X226760000Y-107690000D03*
X211105000Y-108865000D03*
X228985000Y-107690000D03*
X228985000Y-106940000D03*
X96785000Y-116331667D03*
X211105000Y-109640000D03*
X149835000Y-106940000D03*
X96785000Y-117073333D03*
X148351667Y-107690000D03*
X96035000Y-116331667D03*
X149835000Y-107690000D03*
X147610000Y-106940000D03*
X96035000Y-117073333D03*
X147610000Y-107690000D03*
X149093333Y-107690000D03*
X96785000Y-115590000D03*
X211105000Y-110415000D03*
X227501667Y-107690000D03*
X226760000Y-106940000D03*
X96785000Y-117815000D03*
X228243333Y-107690000D03*
X148351667Y-106940000D03*
X227501667Y-106940000D03*
X96035000Y-115590000D03*
X96035000Y-117815000D03*
%TO.N,+3V3*%
X178260000Y-119840000D03*
X222685000Y-120940000D03*
X194952500Y-111915000D03*
X198702500Y-111915000D03*
X213935000Y-116590000D03*
X230010000Y-121540000D03*
X192560000Y-119790000D03*
X211105000Y-113065000D03*
X211105000Y-112290000D03*
X216535000Y-111640000D03*
X213185000Y-116590000D03*
X211105000Y-113840000D03*
X216535000Y-112365000D03*
X175385000Y-119765000D03*
X161085000Y-119765000D03*
X213585000Y-120915000D03*
%TO.N,/UART.~{RXLED}*%
X217410000Y-124040000D03*
X216710000Y-113265000D03*
%TO.N,/UART.~{TXLED}*%
X218885000Y-124040000D03*
X217618414Y-113156586D03*
%TO.N,/SOM1/SE17*%
X192935000Y-96090000D03*
X97285000Y-96115000D03*
%TO.N,/SOM1/SE27*%
X104785000Y-96115000D03*
X185435000Y-96090000D03*
%TO.N,/SOM1/SE39*%
X176435000Y-96090000D03*
X113785000Y-96115000D03*
%TO.N,/SOM1/SE43*%
X116785000Y-96115000D03*
X173435000Y-96090000D03*
%TO.N,/SOM1/SE37*%
X177935000Y-96090000D03*
X112285000Y-96115000D03*
%TO.N,/SOM1/SE21*%
X100285000Y-96115000D03*
X189935000Y-96090000D03*
%TO.N,/SOM1/SE25*%
X186935000Y-96090000D03*
X103285000Y-96115000D03*
%TO.N,/SOM1/SE19*%
X191435000Y-96090000D03*
X98785000Y-96115000D03*
%TO.N,/SOM1/SE13*%
X195935000Y-96090000D03*
X94285000Y-96115000D03*
%TO.N,/SOM1/SE29*%
X106285000Y-96115000D03*
X183935000Y-96090000D03*
%TO.N,/SOM1/SE31*%
X107785000Y-96115000D03*
X182435000Y-96090000D03*
%TO.N,/SOM1/SE33*%
X109285000Y-96115000D03*
X180935000Y-96090000D03*
%TO.N,/SOM1/SE15*%
X95785000Y-96115000D03*
X194435000Y-96090000D03*
%TO.N,/SOM1/SE35*%
X179435000Y-96090000D03*
X110785000Y-96115000D03*
%TO.N,/SOM1/SE23*%
X188435000Y-96090000D03*
X101785000Y-96115000D03*
%TO.N,/SOM1/SE41*%
X174935000Y-96090000D03*
X115285000Y-96115000D03*
%TO.N,/LED1*%
X122035000Y-99090000D03*
X200552500Y-111915000D03*
%TO.N,/LED2*%
X196802500Y-111915000D03*
X121785000Y-96190000D03*
%TO.N,/BUTTON1*%
X123285000Y-96165000D03*
X160060000Y-108915000D03*
%TO.N,/BUTTON2*%
X177060000Y-108940000D03*
X123569456Y-99097772D03*
%TO.N,/SOM1.RESET_IN*%
X84035000Y-99265000D03*
X124485000Y-113540000D03*
%TO.N,/UART.RX*%
X215210000Y-120090000D03*
%TO.N,/UART.TX*%
X214860000Y-117415000D03*
%TO.N,/SOM1.UART_TX*%
X118285000Y-96165000D03*
%TO.N,/SOM1.UART_RX*%
X117035000Y-99115000D03*
%TO.N,/SOM2.UART_RX*%
X202935000Y-96190000D03*
%TO.N,/SOM2.UART_TX*%
X202685000Y-99340000D03*
%TD*%
D17*
%TO.N,/UART.~{RXLED}*%
X217410000Y-124040000D02*
X217385000Y-124040000D01*
X217385000Y-124040000D02*
X215835000Y-122490000D01*
X215835000Y-114140000D02*
X216710000Y-113265000D01*
X215835000Y-122490000D02*
X215835000Y-114140000D01*
%TO.N,/UART.~{TXLED}*%
X218885000Y-124040000D02*
X218885000Y-124027500D01*
X216535000Y-121677500D02*
X216535000Y-114525172D01*
X217618414Y-113441758D02*
X217618414Y-113156586D01*
X218885000Y-124027500D02*
X216535000Y-121677500D01*
X216535000Y-114525172D02*
X217618414Y-113441758D01*
D18*
%TO.N,/SOM1/SE17*%
X126890155Y-74221935D02*
X127030155Y-74221935D01*
X125910155Y-73590000D02*
X125910155Y-73390153D01*
X125210155Y-73402051D02*
X125210155Y-73590000D01*
X126610155Y-73870000D02*
X126610155Y-73941935D01*
X134304885Y-73590000D02*
X170435000Y-73590000D01*
X125210155Y-73590000D02*
X125210155Y-73941902D01*
X127730155Y-73590000D02*
X134304885Y-73590000D01*
X125910155Y-73941902D02*
X125910155Y-73590000D01*
X126610155Y-73390153D02*
X126610155Y-73590000D01*
X127590155Y-73590000D02*
X127730155Y-73590000D01*
X97285000Y-96115000D02*
X119810000Y-73590000D01*
X124611053Y-73214102D02*
X125022206Y-73214102D01*
X126110002Y-73190306D02*
X126410308Y-73190306D01*
X119810000Y-73590000D02*
X124235155Y-73590000D01*
X127310155Y-73941935D02*
X127310155Y-73870000D01*
X125490155Y-74221902D02*
X125630155Y-74221902D01*
X170435000Y-73590000D02*
X192935000Y-96090000D01*
X126610155Y-73590000D02*
X126610155Y-73870000D01*
X126410308Y-73190306D02*
G75*
G02*
X126610194Y-73390153I-8J-199894D01*
G01*
X125630155Y-74221902D02*
G75*
G03*
X125910202Y-73941902I45J280002D01*
G01*
X125022206Y-73214102D02*
G75*
G02*
X125210198Y-73402051I-6J-187998D01*
G01*
X124235155Y-73590000D02*
G75*
G03*
X124423100Y-73402051I45J187900D01*
G01*
X127030155Y-74221935D02*
G75*
G03*
X127310235Y-73941935I45J280035D01*
G01*
X124423104Y-73402051D02*
G75*
G02*
X124611053Y-73214104I187996J-49D01*
G01*
X125910155Y-73390153D02*
G75*
G02*
X126110002Y-73190355I199845J-47D01*
G01*
X127310155Y-73870000D02*
G75*
G02*
X127590155Y-73589955I280045J0D01*
G01*
X125210155Y-73941902D02*
G75*
G03*
X125490155Y-74221945I280045J2D01*
G01*
X126610155Y-73941935D02*
G75*
G03*
X126890155Y-74221945I280045J35D01*
G01*
%TO.N,/SOM1/SE27*%
X130973542Y-82043304D02*
X131120238Y-82043304D01*
X131396890Y-81490000D02*
X131396890Y-81213917D01*
X126773536Y-82043292D02*
X126920244Y-82043292D01*
X122573536Y-82043292D02*
X122720244Y-82043292D01*
X126073536Y-80936708D02*
X126220244Y-80936708D01*
X127896890Y-81213354D02*
X127896890Y-81490000D01*
X124396890Y-81490000D02*
X124396890Y-81213354D01*
X130273540Y-80936700D02*
X130420240Y-80936700D01*
X122996890Y-81766646D02*
X122996890Y-81490000D01*
X127196890Y-81766646D02*
X127196890Y-81490000D01*
X132516890Y-81490000D02*
X133181823Y-81490000D01*
X131396890Y-81766652D02*
X131396890Y-81490000D01*
X129573539Y-82043298D02*
X129720241Y-82043298D01*
X121596890Y-81490000D02*
X121596890Y-81213354D01*
X122296890Y-81213354D02*
X122296890Y-81490000D01*
X170835000Y-81490000D02*
X185435000Y-96090000D01*
X120896890Y-81213920D02*
X120896890Y-81490000D01*
X125096890Y-81213354D02*
X125096890Y-81490000D01*
X123973536Y-82043292D02*
X124120244Y-82043292D01*
X131672973Y-80937834D02*
X131820807Y-80937834D01*
X120896890Y-81490000D02*
X120896890Y-81766646D01*
X123696890Y-81490000D02*
X123696890Y-81766646D01*
X121873536Y-80936708D02*
X122020244Y-80936708D01*
X127896890Y-81490000D02*
X127896890Y-81766649D01*
X130696890Y-81213350D02*
X130696890Y-81490000D01*
X124396890Y-81766646D02*
X124396890Y-81490000D01*
X129296890Y-81490000D02*
X129296890Y-81766649D01*
X119410000Y-81490000D02*
X119916890Y-81490000D01*
X132372973Y-81490000D02*
X132516890Y-81490000D01*
X121596890Y-81766646D02*
X121596890Y-81490000D01*
X125796890Y-81490000D02*
X125796890Y-81213354D01*
X125096890Y-81490000D02*
X125096890Y-81766646D01*
X120469050Y-80937840D02*
X120620810Y-80937840D01*
X128596890Y-81490000D02*
X128596890Y-81213351D01*
X126496890Y-81490000D02*
X126496890Y-81766646D01*
X104785000Y-96115000D02*
X119410000Y-81490000D01*
X126496890Y-81213354D02*
X126496890Y-81490000D01*
X130696890Y-81490000D02*
X130696890Y-81766652D01*
X128173539Y-82043298D02*
X128320241Y-82043298D01*
X123273536Y-80936708D02*
X123420244Y-80936708D01*
X133181823Y-81490000D02*
X170835000Y-81490000D01*
X127196890Y-81490000D02*
X127196890Y-81213354D01*
X122996890Y-81490000D02*
X122996890Y-81213354D01*
X128596890Y-81766649D02*
X128596890Y-81490000D01*
X124673536Y-80936708D02*
X124820244Y-80936708D01*
X128873539Y-80936702D02*
X129020241Y-80936702D01*
X125373536Y-82043292D02*
X125520244Y-82043292D01*
X129996890Y-81490000D02*
X129996890Y-81213350D01*
X127473536Y-80936708D02*
X127620244Y-80936708D01*
X121173536Y-82043292D02*
X121320244Y-82043292D01*
X122296890Y-81490000D02*
X122296890Y-81766646D01*
X125796890Y-81766646D02*
X125796890Y-81490000D01*
X129296890Y-81213351D02*
X129296890Y-81490000D01*
X129996890Y-81766649D02*
X129996890Y-81490000D01*
X123696890Y-81213354D02*
X123696890Y-81490000D01*
X120896890Y-81766646D02*
G75*
G03*
X121173536Y-82043210I276610J46D01*
G01*
X129296890Y-81766649D02*
G75*
G03*
X129573539Y-82043210I276610J49D01*
G01*
X128596890Y-81213351D02*
G75*
G02*
X128873539Y-80936790I276610J-49D01*
G01*
X119916890Y-81490000D02*
G75*
G03*
X120193000Y-81213920I10J276100D01*
G01*
X121596890Y-81213354D02*
G75*
G02*
X121873536Y-80936790I276610J-46D01*
G01*
X124120244Y-82043292D02*
G75*
G03*
X124396892Y-81766646I-44J276692D01*
G01*
X129720241Y-82043298D02*
G75*
G03*
X129996898Y-81766649I-41J276698D01*
G01*
X120192970Y-81213920D02*
G75*
G02*
X120469050Y-80937770I276130J20D01*
G01*
X131120238Y-82043304D02*
G75*
G03*
X131396804Y-81766652I-38J276604D01*
G01*
X127620244Y-80936708D02*
G75*
G02*
X127896892Y-81213354I-44J-276692D01*
G01*
X129996890Y-81213350D02*
G75*
G02*
X130273540Y-80936790I276610J-50D01*
G01*
X129020241Y-80936702D02*
G75*
G02*
X129296898Y-81213351I-41J-276698D01*
G01*
X126920244Y-82043292D02*
G75*
G03*
X127196892Y-81766646I-44J276692D01*
G01*
X128320241Y-82043298D02*
G75*
G03*
X128596898Y-81766649I-41J276698D01*
G01*
X121320244Y-82043292D02*
G75*
G03*
X121596892Y-81766646I-44J276692D01*
G01*
X122996890Y-81213354D02*
G75*
G02*
X123273536Y-80936790I276610J-46D01*
G01*
X123696890Y-81766646D02*
G75*
G03*
X123973536Y-82043210I276610J46D01*
G01*
X120620810Y-80937840D02*
G75*
G02*
X120896860Y-81213920I-10J-276060D01*
G01*
X125520244Y-82043292D02*
G75*
G03*
X125796892Y-81766646I-44J276692D01*
G01*
X122020244Y-80936708D02*
G75*
G02*
X122296892Y-81213354I-44J-276692D01*
G01*
X123420244Y-80936708D02*
G75*
G02*
X123696892Y-81213354I-44J-276692D01*
G01*
X130420240Y-80936700D02*
G75*
G02*
X130696900Y-81213350I-40J-276700D01*
G01*
X125796890Y-81213354D02*
G75*
G02*
X126073536Y-80936790I276610J-46D01*
G01*
X127196890Y-81213354D02*
G75*
G02*
X127473536Y-80936790I276610J-46D01*
G01*
X130696890Y-81766652D02*
G75*
G03*
X130973542Y-82043310I276610J-48D01*
G01*
X125096890Y-81766646D02*
G75*
G03*
X125373536Y-82043210I276610J46D01*
G01*
X127896890Y-81766649D02*
G75*
G03*
X128173539Y-82043210I276610J49D01*
G01*
X124820244Y-80936708D02*
G75*
G02*
X125096892Y-81213354I-44J-276692D01*
G01*
X122296890Y-81766646D02*
G75*
G03*
X122573536Y-82043210I276610J46D01*
G01*
X124396890Y-81213354D02*
G75*
G02*
X124673536Y-80936790I276610J-46D01*
G01*
X126220244Y-80936708D02*
G75*
G02*
X126496892Y-81213354I-44J-276692D01*
G01*
X131396890Y-81213917D02*
G75*
G02*
X131672973Y-80937790I276110J17D01*
G01*
X131820807Y-80937834D02*
G75*
G02*
X132096866Y-81213917I-7J-276066D01*
G01*
X132096890Y-81213917D02*
G75*
G03*
X132372973Y-81490010I276110J17D01*
G01*
X122720244Y-82043292D02*
G75*
G03*
X122996892Y-81766646I-44J276692D01*
G01*
X126496890Y-81766646D02*
G75*
G03*
X126773536Y-82043210I276610J46D01*
G01*
%TO.N,/SOM1/SE39*%
X154115000Y-91391108D02*
X154115000Y-92115000D01*
X163215000Y-92115000D02*
X163215000Y-91391108D01*
X153415000Y-92115000D02*
X153415000Y-91391108D01*
X150615000Y-91835000D02*
X150615000Y-91391108D01*
X172772500Y-92427500D02*
X176435000Y-96090000D01*
X166995000Y-93118868D02*
X167135000Y-93118868D01*
X155095000Y-91111108D02*
X155235000Y-91111108D01*
X166015000Y-92115000D02*
X166015000Y-91391108D01*
X164615000Y-92115000D02*
X164615000Y-91391108D01*
X160695000Y-91111108D02*
X160835000Y-91111108D01*
X156215000Y-92115000D02*
X156215000Y-91391108D01*
X158315000Y-91391108D02*
X158315000Y-92115000D01*
X152295000Y-91111108D02*
X152435000Y-91111108D01*
X166715000Y-91391108D02*
X166715000Y-92115000D01*
X169795000Y-93118868D02*
X169935000Y-93118868D01*
X155515000Y-91391108D02*
X155515000Y-92115000D01*
X163915000Y-91391108D02*
X163915000Y-92115000D01*
X158595000Y-93118892D02*
X158735000Y-93118892D01*
X152015000Y-92115000D02*
X152015000Y-91391108D01*
X168395000Y-93118868D02*
X168535000Y-93118868D01*
X158315000Y-92115000D02*
X158315000Y-92838892D01*
X166015000Y-92838868D02*
X166015000Y-92115000D01*
X164195000Y-93118868D02*
X164335000Y-93118868D01*
X170915000Y-91391108D02*
X170915000Y-92115000D01*
X162795000Y-93118892D02*
X162935000Y-93118892D01*
X167415000Y-92115000D02*
X167415000Y-91391108D01*
X162515000Y-91391108D02*
X162515000Y-92115000D01*
X171195000Y-93118868D02*
X171335000Y-93118868D01*
X161395000Y-93118892D02*
X161535000Y-93118892D01*
X162095000Y-91111108D02*
X162235000Y-91111108D01*
X161815000Y-92838892D02*
X161815000Y-92115000D01*
X168115000Y-91391108D02*
X168115000Y-92115000D01*
X160415000Y-92115000D02*
X160415000Y-91391108D01*
X113785000Y-96115000D02*
X117785000Y-92115000D01*
X151315000Y-91391108D02*
X151315000Y-91835000D01*
X170915000Y-92395000D02*
X170915000Y-92838868D01*
X151315000Y-91835000D02*
X151315000Y-92115000D01*
X165315000Y-91391108D02*
X165315000Y-92115000D01*
X155795000Y-93118892D02*
X155935000Y-93118892D01*
X159295000Y-91111108D02*
X159435000Y-91111108D01*
X117785000Y-92115000D02*
X150335000Y-92115000D01*
X157895000Y-91111108D02*
X158035000Y-91111108D01*
X164895000Y-91111108D02*
X165035000Y-91111108D01*
X164615000Y-92838868D02*
X164615000Y-92115000D01*
X154815000Y-92838892D02*
X154815000Y-92115000D01*
X154395000Y-93118892D02*
X154535000Y-93118892D01*
X163215000Y-92838892D02*
X163215000Y-92115000D01*
X156915000Y-92115000D02*
X156915000Y-92838892D01*
X159715000Y-92115000D02*
X159715000Y-92838892D01*
X152715000Y-91391108D02*
X152715000Y-92115000D01*
X159995000Y-93118892D02*
X160135000Y-93118892D01*
X153415000Y-92838892D02*
X153415000Y-92115000D01*
X157195000Y-93118892D02*
X157335000Y-93118892D01*
X162515000Y-92115000D02*
X162515000Y-92838892D01*
X153695000Y-91111108D02*
X153835000Y-91111108D01*
X168815000Y-92838868D02*
X168815000Y-92115000D01*
X161815000Y-92115000D02*
X161815000Y-91391108D01*
X157615000Y-92838892D02*
X157615000Y-92115000D01*
X171615000Y-92838868D02*
X171615000Y-92395000D01*
X156495000Y-91111108D02*
X156635000Y-91111108D01*
X152995000Y-93118892D02*
X153135000Y-93118892D01*
X172035000Y-92115000D02*
X172460000Y-92115000D01*
X170215000Y-92115000D02*
X170215000Y-91391108D01*
X167415000Y-92838868D02*
X167415000Y-92115000D01*
X154815000Y-92115000D02*
X154815000Y-91391108D01*
X167695000Y-91111108D02*
X167835000Y-91111108D01*
X160415000Y-92838892D02*
X160415000Y-92115000D01*
X159715000Y-91391108D02*
X159715000Y-92115000D01*
X169095000Y-91111108D02*
X169235000Y-91111108D01*
X170915000Y-92115000D02*
X170915000Y-92395000D01*
X156215000Y-92838892D02*
X156215000Y-92115000D01*
X170215000Y-92838868D02*
X170215000Y-92115000D01*
X161115000Y-91391108D02*
X161115000Y-92115000D01*
X163495000Y-91111108D02*
X163635000Y-91111108D01*
X168815000Y-92115000D02*
X168815000Y-91391108D01*
X165595000Y-93118868D02*
X165735000Y-93118868D01*
X155515000Y-92115000D02*
X155515000Y-92838892D01*
X169515000Y-92115000D02*
X169515000Y-92838868D01*
X150895000Y-91111108D02*
X151035000Y-91111108D01*
X163915000Y-92115000D02*
X163915000Y-92838868D01*
X169515000Y-91391108D02*
X169515000Y-92115000D01*
X170495000Y-91111108D02*
X170635000Y-91111108D01*
X159015000Y-92115000D02*
X159015000Y-91391108D01*
X151441110Y-92367220D02*
X151888890Y-92367220D01*
X168115000Y-92115000D02*
X168115000Y-92838868D01*
X165315000Y-92115000D02*
X165315000Y-92838868D01*
X152715000Y-92115000D02*
X152715000Y-92838892D01*
X166715000Y-92115000D02*
X166715000Y-92838868D01*
X159015000Y-92838892D02*
X159015000Y-92115000D01*
X156915000Y-91391108D02*
X156915000Y-92115000D01*
X157615000Y-92115000D02*
X157615000Y-91391108D01*
X154115000Y-92115000D02*
X154115000Y-92838892D01*
X161115000Y-92115000D02*
X161115000Y-92838892D01*
X151315000Y-92115000D02*
X151315000Y-92241110D01*
X172460000Y-92115000D02*
X172772500Y-92427500D01*
X152015000Y-92241110D02*
X152015000Y-92115000D01*
X166295000Y-91111108D02*
X166435000Y-91111108D01*
X171895000Y-92115000D02*
X172035000Y-92115000D01*
X152435000Y-91111108D02*
G75*
G02*
X152714992Y-91391108I0J-279992D01*
G01*
X158315000Y-92838892D02*
G75*
G03*
X158595000Y-93118900I280000J-8D01*
G01*
X153135000Y-93118892D02*
G75*
G03*
X153414992Y-92838892I0J279992D01*
G01*
X156215000Y-91391108D02*
G75*
G02*
X156495000Y-91111100I280000J8D01*
G01*
X171335000Y-93118868D02*
G75*
G03*
X171614968Y-92838868I0J279968D01*
G01*
X163635000Y-91111108D02*
G75*
G02*
X163914992Y-91391108I0J-279992D01*
G01*
X156635000Y-91111108D02*
G75*
G02*
X156914992Y-91391108I0J-279992D01*
G01*
X168115000Y-92838868D02*
G75*
G03*
X168395000Y-93118900I280000J-32D01*
G01*
X169935000Y-93118868D02*
G75*
G03*
X170214968Y-92838868I0J279968D01*
G01*
X151888890Y-92367220D02*
G75*
G03*
X152015020Y-92241110I10J126120D01*
G01*
X159715000Y-92838892D02*
G75*
G03*
X159995000Y-93118900I280000J-8D01*
G01*
X157615000Y-91391108D02*
G75*
G02*
X157895000Y-91111100I280000J8D01*
G01*
X155935000Y-93118892D02*
G75*
G03*
X156214992Y-92838892I0J279992D01*
G01*
X162235000Y-91111108D02*
G75*
G02*
X162514992Y-91391108I0J-279992D01*
G01*
X154535000Y-93118892D02*
G75*
G03*
X154814992Y-92838892I0J279992D01*
G01*
X169515000Y-92838868D02*
G75*
G03*
X169795000Y-93118900I280000J-32D01*
G01*
X160835000Y-91111108D02*
G75*
G02*
X161114992Y-91391108I0J-279992D01*
G01*
X161115000Y-92838892D02*
G75*
G03*
X161395000Y-93118900I280000J-8D01*
G01*
X150615000Y-91391108D02*
G75*
G02*
X150895000Y-91111100I280000J8D01*
G01*
X167415000Y-91391108D02*
G75*
G02*
X167695000Y-91111100I280000J8D01*
G01*
X169235000Y-91111108D02*
G75*
G02*
X169514992Y-91391108I0J-279992D01*
G01*
X166715000Y-92838868D02*
G75*
G03*
X166995000Y-93118900I280000J-32D01*
G01*
X150335000Y-92115000D02*
G75*
G03*
X150615000Y-91835000I0J280000D01*
G01*
X161535000Y-93118892D02*
G75*
G03*
X161814992Y-92838892I0J279992D01*
G01*
X157335000Y-93118892D02*
G75*
G03*
X157614992Y-92838892I0J279992D01*
G01*
X161815000Y-91391108D02*
G75*
G02*
X162095000Y-91111100I280000J8D01*
G01*
X158735000Y-93118892D02*
G75*
G03*
X159014992Y-92838892I0J279992D01*
G01*
X164615000Y-91391108D02*
G75*
G02*
X164895000Y-91111100I280000J8D01*
G01*
X153835000Y-91111108D02*
G75*
G02*
X154114992Y-91391108I0J-279992D01*
G01*
X164335000Y-93118868D02*
G75*
G03*
X164614968Y-92838868I0J279968D01*
G01*
X162935000Y-93118892D02*
G75*
G03*
X163214992Y-92838892I0J279992D01*
G01*
X155235000Y-91111108D02*
G75*
G02*
X155514992Y-91391108I0J-279992D01*
G01*
X166435000Y-91111108D02*
G75*
G02*
X166714992Y-91391108I0J-279992D01*
G01*
X156915000Y-92838892D02*
G75*
G03*
X157195000Y-93118900I280000J-8D01*
G01*
X152715000Y-92838892D02*
G75*
G03*
X152995000Y-93118900I280000J-8D01*
G01*
X159015000Y-91391108D02*
G75*
G02*
X159295000Y-91111100I280000J8D01*
G01*
X165315000Y-92838868D02*
G75*
G03*
X165595000Y-93118900I280000J-32D01*
G01*
X167135000Y-93118868D02*
G75*
G03*
X167414968Y-92838868I0J279968D01*
G01*
X171615000Y-92395000D02*
G75*
G02*
X171895000Y-92115000I280000J0D01*
G01*
X170635000Y-91111108D02*
G75*
G02*
X170914992Y-91391108I0J-279992D01*
G01*
X155515000Y-92838892D02*
G75*
G03*
X155795000Y-93118900I280000J-8D01*
G01*
X154815000Y-91391108D02*
G75*
G02*
X155095000Y-91111100I280000J8D01*
G01*
X160135000Y-93118892D02*
G75*
G03*
X160414992Y-92838892I0J279992D01*
G01*
X165735000Y-93118868D02*
G75*
G03*
X166014968Y-92838868I0J279968D01*
G01*
X165035000Y-91111108D02*
G75*
G02*
X165314992Y-91391108I0J-279992D01*
G01*
X163915000Y-92838868D02*
G75*
G03*
X164195000Y-93118900I280000J-32D01*
G01*
X168815000Y-91391108D02*
G75*
G02*
X169095000Y-91111100I280000J8D01*
G01*
X152015000Y-91391108D02*
G75*
G02*
X152295000Y-91111100I280000J8D01*
G01*
X153415000Y-91391108D02*
G75*
G02*
X153695000Y-91111100I280000J8D01*
G01*
X170215000Y-91391108D02*
G75*
G02*
X170495000Y-91111100I280000J8D01*
G01*
X160415000Y-91391108D02*
G75*
G02*
X160695000Y-91111100I280000J8D01*
G01*
X154115000Y-92838892D02*
G75*
G03*
X154395000Y-93118900I280000J-8D01*
G01*
X166015000Y-91391108D02*
G75*
G02*
X166295000Y-91111100I280000J8D01*
G01*
X162515000Y-92838892D02*
G75*
G03*
X162795000Y-93118900I280000J-8D01*
G01*
X151035000Y-91111108D02*
G75*
G02*
X151314992Y-91391108I0J-279992D01*
G01*
X163215000Y-91391108D02*
G75*
G02*
X163495000Y-91111100I280000J8D01*
G01*
X151315000Y-92241110D02*
G75*
G03*
X151441110Y-92367200I126100J10D01*
G01*
X170915000Y-92838868D02*
G75*
G03*
X171195000Y-93118900I280000J-32D01*
G01*
X167835000Y-91111108D02*
G75*
G02*
X168114992Y-91391108I0J-279992D01*
G01*
X159435000Y-91111108D02*
G75*
G02*
X159714992Y-91391108I0J-279992D01*
G01*
X168535000Y-93118868D02*
G75*
G03*
X168814968Y-92838868I0J279968D01*
G01*
X158035000Y-91111108D02*
G75*
G02*
X158314992Y-91391108I0J-279992D01*
G01*
%TO.N,/SOM1/SE43*%
X135120000Y-95365000D02*
X135260000Y-95365000D01*
X165220000Y-96693454D02*
X165360000Y-96693454D01*
X172985000Y-95640000D02*
X173435000Y-96090000D01*
X128820000Y-96693451D02*
X128960000Y-96693451D01*
X167040000Y-96413445D02*
X167040000Y-95645000D01*
X133440000Y-96413451D02*
X133440000Y-95645000D01*
X147440000Y-96413450D02*
X147440000Y-95645000D01*
X146320000Y-95365000D02*
X146460000Y-95365000D01*
X163540000Y-95645000D02*
X163540000Y-96413449D01*
X148840000Y-96413449D02*
X148840000Y-95645000D01*
X162420000Y-96693451D02*
X162560000Y-96693451D01*
X154440000Y-96413449D02*
X154440000Y-95645000D01*
X125740000Y-95645000D02*
X125740000Y-96413451D01*
X140720000Y-95365000D02*
X140860000Y-95365000D01*
X140020000Y-96693450D02*
X140160000Y-96693450D01*
X134140000Y-95645000D02*
X134140000Y-96413450D01*
X159340000Y-95645000D02*
X159340000Y-96413450D01*
X150240000Y-96413450D02*
X150240000Y-95645000D01*
X127840000Y-96413451D02*
X127840000Y-95645000D01*
X139740000Y-95645000D02*
X139740000Y-96413450D01*
X155140000Y-95645000D02*
X155140000Y-96263450D01*
X130640000Y-96413451D02*
X130640000Y-95645000D01*
X128540000Y-95645000D02*
X128540000Y-96413451D01*
X145620000Y-96693449D02*
X145760000Y-96693449D01*
X129240000Y-96413451D02*
X129240000Y-95645000D01*
X151220000Y-96693449D02*
X151360000Y-96693449D01*
X161440000Y-96413449D02*
X161440000Y-95645000D01*
X162840000Y-96413451D02*
X162840000Y-95645000D01*
X158640000Y-96413451D02*
X158640000Y-95645000D01*
X117535000Y-95365000D02*
X125460000Y-95365000D01*
X150940000Y-95645000D02*
X150940000Y-96413449D01*
X126020000Y-96693451D02*
X126160000Y-96693451D01*
X161020000Y-96693449D02*
X161160000Y-96693449D01*
X157940000Y-95645000D02*
X157940000Y-96413451D01*
X172710000Y-95365000D02*
X172985000Y-95640000D01*
X130920000Y-95365000D02*
X131060000Y-95365000D01*
X153740000Y-95645000D02*
X153740000Y-96413449D01*
X142120000Y-95365000D02*
X142260000Y-95365000D01*
X151920000Y-95365000D02*
X152060000Y-95365000D01*
X144920000Y-95365000D02*
X145060000Y-95365000D01*
X162140000Y-95645000D02*
X162140000Y-96413451D01*
X159620000Y-96693450D02*
X159760000Y-96693450D01*
X167320000Y-95365000D02*
X167460000Y-95365000D01*
X139040000Y-96413449D02*
X139040000Y-95645000D01*
X140440000Y-96413450D02*
X140440000Y-95645000D01*
X134840000Y-96413450D02*
X134840000Y-95645000D01*
X155840000Y-96263450D02*
X155840000Y-95645000D01*
X143240000Y-96413451D02*
X143240000Y-95645000D01*
X142820000Y-96693451D02*
X142960000Y-96693451D01*
X143520000Y-95365000D02*
X143660000Y-95365000D01*
X150520000Y-95365000D02*
X150660000Y-95365000D01*
X136240000Y-96413449D02*
X136240000Y-95645000D01*
X153320000Y-95365000D02*
X153460000Y-95365000D01*
X134420000Y-96693450D02*
X134560000Y-96693450D01*
X166620000Y-96693445D02*
X166760000Y-96693445D01*
X131340000Y-95645000D02*
X131340000Y-96413451D01*
X133020000Y-96693451D02*
X133160000Y-96693451D01*
X142540000Y-95645000D02*
X142540000Y-96413451D01*
X127420000Y-96693451D02*
X127560000Y-96693451D01*
X165640000Y-96413454D02*
X165640000Y-95645000D01*
X160320000Y-95365000D02*
X160460000Y-95365000D01*
X138340000Y-95645000D02*
X138340000Y-96413449D01*
X132320000Y-95365000D02*
X132460000Y-95365000D01*
X167460000Y-95365000D02*
X172710000Y-95365000D01*
X160040000Y-96413450D02*
X160040000Y-95645000D01*
X126440000Y-96413451D02*
X126440000Y-95645000D01*
X130220000Y-96693451D02*
X130360000Y-96693451D01*
X166340000Y-95645000D02*
X166340000Y-96413445D01*
X158920000Y-95365000D02*
X159060000Y-95365000D01*
X156540000Y-95645000D02*
X156540000Y-96413449D01*
X137640000Y-96413450D02*
X137640000Y-95645000D01*
X164940000Y-95645000D02*
X164940000Y-96413454D01*
X136520000Y-95365000D02*
X136660000Y-95365000D01*
X148140000Y-95645000D02*
X148140000Y-96413449D01*
X141420000Y-96693449D02*
X141560000Y-96693449D01*
X152340000Y-95645000D02*
X152340000Y-96413451D01*
X143940000Y-95645000D02*
X143940000Y-96413450D01*
X157240000Y-96413449D02*
X157240000Y-95645000D01*
X156120000Y-95365000D02*
X156260000Y-95365000D01*
X136940000Y-95645000D02*
X136940000Y-96413450D01*
X154720000Y-95365000D02*
X154860000Y-95365000D01*
X126720000Y-95365000D02*
X126860000Y-95365000D01*
X133720000Y-95365000D02*
X133860000Y-95365000D01*
X154020000Y-96693449D02*
X154160000Y-96693449D01*
X147020000Y-96693450D02*
X147160000Y-96693450D01*
X164520000Y-95365000D02*
X164660000Y-95365000D01*
X160740000Y-95645000D02*
X160740000Y-96413449D01*
X164240000Y-96413449D02*
X164240000Y-95645000D01*
X149820000Y-96693450D02*
X149960000Y-96693450D01*
X139320000Y-95365000D02*
X139460000Y-95365000D01*
X149540000Y-95645000D02*
X149540000Y-96413450D01*
X149120000Y-95365000D02*
X149260000Y-95365000D01*
X127140000Y-95645000D02*
X127140000Y-96413451D01*
X128120000Y-95365000D02*
X128260000Y-95365000D01*
X132740000Y-95645000D02*
X132740000Y-96413451D01*
X145340000Y-95645000D02*
X145340000Y-96413449D01*
X144220000Y-96693450D02*
X144360000Y-96693450D01*
X147720000Y-95365000D02*
X147860000Y-95365000D01*
X146040000Y-96413449D02*
X146040000Y-95645000D01*
X163120000Y-95365000D02*
X163260000Y-95365000D01*
X146740000Y-95645000D02*
X146740000Y-96413450D01*
X116785000Y-96115000D02*
X117535000Y-95365000D01*
X152620000Y-96693451D02*
X152760000Y-96693451D01*
X148420000Y-96693449D02*
X148560000Y-96693449D01*
X137220000Y-96693450D02*
X137360000Y-96693450D01*
X157520000Y-95365000D02*
X157660000Y-95365000D01*
X135540000Y-95645000D02*
X135540000Y-96413449D01*
X155420000Y-96543450D02*
X155560000Y-96543450D01*
X163820000Y-96693449D02*
X163960000Y-96693449D01*
X138620000Y-96693449D02*
X138760000Y-96693449D01*
X141840000Y-96413449D02*
X141840000Y-95645000D01*
X158220000Y-96693451D02*
X158360000Y-96693451D01*
X131620000Y-96693451D02*
X131760000Y-96693451D01*
X135820000Y-96693449D02*
X135960000Y-96693449D01*
X137920000Y-95365000D02*
X138060000Y-95365000D01*
X165920000Y-95365000D02*
X166060000Y-95365000D01*
X132040000Y-96413451D02*
X132040000Y-95645000D01*
X151640000Y-96413449D02*
X151640000Y-95645000D01*
X129940000Y-95645000D02*
X129940000Y-96413451D01*
X153040000Y-96413451D02*
X153040000Y-95645000D01*
X141140000Y-95645000D02*
X141140000Y-96413449D01*
X156820000Y-96693449D02*
X156960000Y-96693449D01*
X144640000Y-96413450D02*
X144640000Y-95645000D01*
X129520000Y-95365000D02*
X129660000Y-95365000D01*
X161720000Y-95365000D02*
X161860000Y-95365000D01*
X129240000Y-95645000D02*
G75*
G02*
X129520000Y-95365000I280000J0D01*
G01*
X135260000Y-95365000D02*
G75*
G02*
X135540000Y-95645000I0J-280000D01*
G01*
X164240000Y-95645000D02*
G75*
G02*
X164520000Y-95365000I280000J0D01*
G01*
X155560000Y-96543450D02*
G75*
G03*
X155839950Y-96263450I0J279950D01*
G01*
X162840000Y-95645000D02*
G75*
G02*
X163120000Y-95365000I280000J0D01*
G01*
X152060000Y-95365000D02*
G75*
G02*
X152340000Y-95645000I0J-280000D01*
G01*
X141140000Y-96413449D02*
G75*
G03*
X141420000Y-96693400I280000J49D01*
G01*
X140860000Y-95365000D02*
G75*
G02*
X141140000Y-95645000I0J-280000D01*
G01*
X145060000Y-95365000D02*
G75*
G02*
X145340000Y-95645000I0J-280000D01*
G01*
X151640000Y-95645000D02*
G75*
G02*
X151920000Y-95365000I280000J0D01*
G01*
X133160000Y-96693451D02*
G75*
G03*
X133439951Y-96413451I0J279951D01*
G01*
X143240000Y-95645000D02*
G75*
G02*
X143520000Y-95365000I280000J0D01*
G01*
X145340000Y-96413449D02*
G75*
G03*
X145620000Y-96693400I280000J49D01*
G01*
X142960000Y-96693451D02*
G75*
G03*
X143239951Y-96413451I0J279951D01*
G01*
X137640000Y-95645000D02*
G75*
G02*
X137920000Y-95365000I280000J0D01*
G01*
X143660000Y-95365000D02*
G75*
G02*
X143940000Y-95645000I0J-280000D01*
G01*
X161160000Y-96693449D02*
G75*
G03*
X161440049Y-96413449I0J280049D01*
G01*
X158360000Y-96693451D02*
G75*
G03*
X158639951Y-96413451I0J279951D01*
G01*
X147440000Y-95645000D02*
G75*
G02*
X147720000Y-95365000I280000J0D01*
G01*
X157240000Y-95645000D02*
G75*
G02*
X157520000Y-95365000I280000J0D01*
G01*
X162140000Y-96413451D02*
G75*
G03*
X162420000Y-96693500I280000J-49D01*
G01*
X163540000Y-96413449D02*
G75*
G03*
X163820000Y-96693400I280000J49D01*
G01*
X159340000Y-96413450D02*
G75*
G03*
X159620000Y-96693500I280000J-50D01*
G01*
X152340000Y-96413451D02*
G75*
G03*
X152620000Y-96693500I280000J-49D01*
G01*
X165360000Y-96693454D02*
G75*
G03*
X165639954Y-96413454I0J279954D01*
G01*
X149540000Y-96413450D02*
G75*
G03*
X149820000Y-96693500I280000J-50D01*
G01*
X126860000Y-95365000D02*
G75*
G02*
X127140000Y-95645000I0J-280000D01*
G01*
X159760000Y-96693450D02*
G75*
G03*
X160039950Y-96413450I0J279950D01*
G01*
X137360000Y-96693450D02*
G75*
G03*
X137639950Y-96413450I0J279950D01*
G01*
X139460000Y-95365000D02*
G75*
G02*
X139740000Y-95645000I0J-280000D01*
G01*
X157660000Y-95365000D02*
G75*
G02*
X157940000Y-95645000I0J-280000D01*
G01*
X142260000Y-95365000D02*
G75*
G02*
X142540000Y-95645000I0J-280000D01*
G01*
X163260000Y-95365000D02*
G75*
G02*
X163540000Y-95645000I0J-280000D01*
G01*
X139740000Y-96413450D02*
G75*
G03*
X140020000Y-96693500I280000J-50D01*
G01*
X142540000Y-96413451D02*
G75*
G03*
X142820000Y-96693500I280000J-49D01*
G01*
X158640000Y-95645000D02*
G75*
G02*
X158920000Y-95365000I280000J0D01*
G01*
X131760000Y-96693451D02*
G75*
G03*
X132039951Y-96413451I0J279951D01*
G01*
X125460000Y-95365000D02*
G75*
G02*
X125740000Y-95645000I0J-280000D01*
G01*
X127140000Y-96413451D02*
G75*
G03*
X127420000Y-96693500I280000J-49D01*
G01*
X144640000Y-95645000D02*
G75*
G02*
X144920000Y-95365000I280000J0D01*
G01*
X160460000Y-95365000D02*
G75*
G02*
X160740000Y-95645000I0J-280000D01*
G01*
X128260000Y-95365000D02*
G75*
G02*
X128540000Y-95645000I0J-280000D01*
G01*
X162560000Y-96693451D02*
G75*
G03*
X162839951Y-96413451I0J279951D01*
G01*
X150660000Y-95365000D02*
G75*
G02*
X150940000Y-95645000I0J-280000D01*
G01*
X154160000Y-96693449D02*
G75*
G03*
X154440049Y-96413449I0J280049D01*
G01*
X136940000Y-96413450D02*
G75*
G03*
X137220000Y-96693500I280000J-50D01*
G01*
X150240000Y-95645000D02*
G75*
G02*
X150520000Y-95365000I280000J0D01*
G01*
X129660000Y-95365000D02*
G75*
G02*
X129940000Y-95645000I0J-280000D01*
G01*
X150940000Y-96413449D02*
G75*
G03*
X151220000Y-96693400I280000J49D01*
G01*
X146740000Y-96413450D02*
G75*
G03*
X147020000Y-96693500I280000J-50D01*
G01*
X138060000Y-95365000D02*
G75*
G02*
X138340000Y-95645000I0J-280000D01*
G01*
X126440000Y-95645000D02*
G75*
G02*
X126720000Y-95365000I280000J0D01*
G01*
X156540000Y-96413449D02*
G75*
G03*
X156820000Y-96693400I280000J49D01*
G01*
X141560000Y-96693449D02*
G75*
G03*
X141840049Y-96413449I0J280049D01*
G01*
X140440000Y-95645000D02*
G75*
G02*
X140720000Y-95365000I280000J0D01*
G01*
X161440000Y-95645000D02*
G75*
G02*
X161720000Y-95365000I280000J0D01*
G01*
X144360000Y-96693450D02*
G75*
G03*
X144639950Y-96413450I0J279950D01*
G01*
X140160000Y-96693450D02*
G75*
G03*
X140439950Y-96413450I0J279950D01*
G01*
X138760000Y-96693449D02*
G75*
G03*
X139040049Y-96413449I0J280049D01*
G01*
X136240000Y-95645000D02*
G75*
G02*
X136520000Y-95365000I280000J0D01*
G01*
X167040000Y-95645000D02*
G75*
G02*
X167320000Y-95365000I280000J0D01*
G01*
X166340000Y-96413445D02*
G75*
G03*
X166620000Y-96693400I280000J45D01*
G01*
X133860000Y-95365000D02*
G75*
G02*
X134140000Y-95645000I0J-280000D01*
G01*
X153460000Y-95365000D02*
G75*
G02*
X153740000Y-95645000I0J-280000D01*
G01*
X131340000Y-96413451D02*
G75*
G03*
X131620000Y-96693500I280000J-49D01*
G01*
X154440000Y-95645000D02*
G75*
G02*
X154720000Y-95365000I280000J0D01*
G01*
X155840000Y-95645000D02*
G75*
G02*
X156120000Y-95365000I280000J0D01*
G01*
X161860000Y-95365000D02*
G75*
G02*
X162140000Y-95645000I0J-280000D01*
G01*
X134840000Y-95645000D02*
G75*
G02*
X135120000Y-95365000I280000J0D01*
G01*
X141840000Y-95645000D02*
G75*
G02*
X142120000Y-95365000I280000J0D01*
G01*
X143940000Y-96413450D02*
G75*
G03*
X144220000Y-96693500I280000J-50D01*
G01*
X145760000Y-96693449D02*
G75*
G03*
X146040049Y-96413449I0J280049D01*
G01*
X131060000Y-95365000D02*
G75*
G02*
X131340000Y-95645000I0J-280000D01*
G01*
X152760000Y-96693451D02*
G75*
G03*
X153039951Y-96413451I0J279951D01*
G01*
X163960000Y-96693449D02*
G75*
G03*
X164240049Y-96413449I0J280049D01*
G01*
X148840000Y-95645000D02*
G75*
G02*
X149120000Y-95365000I280000J0D01*
G01*
X159060000Y-95365000D02*
G75*
G02*
X159340000Y-95645000I0J-280000D01*
G01*
X132040000Y-95645000D02*
G75*
G02*
X132320000Y-95365000I280000J0D01*
G01*
X156260000Y-95365000D02*
G75*
G02*
X156540000Y-95645000I0J-280000D01*
G01*
X146460000Y-95365000D02*
G75*
G02*
X146740000Y-95645000I0J-280000D01*
G01*
X136660000Y-95365000D02*
G75*
G02*
X136940000Y-95645000I0J-280000D01*
G01*
X127840000Y-95645000D02*
G75*
G02*
X128120000Y-95365000I280000J0D01*
G01*
X153040000Y-95645000D02*
G75*
G02*
X153320000Y-95365000I280000J0D01*
G01*
X135960000Y-96693449D02*
G75*
G03*
X136240049Y-96413449I0J280049D01*
G01*
X155140000Y-96263450D02*
G75*
G03*
X155420000Y-96543500I280000J-50D01*
G01*
X127560000Y-96693451D02*
G75*
G03*
X127839951Y-96413451I0J279951D01*
G01*
X125740000Y-96413451D02*
G75*
G03*
X126020000Y-96693500I280000J-49D01*
G01*
X126160000Y-96693451D02*
G75*
G03*
X126439951Y-96413451I0J279951D01*
G01*
X166060000Y-95365000D02*
G75*
G02*
X166340000Y-95645000I0J-280000D01*
G01*
X154860000Y-95365000D02*
G75*
G02*
X155140000Y-95645000I0J-280000D01*
G01*
X134140000Y-96413450D02*
G75*
G03*
X134420000Y-96693500I280000J-50D01*
G01*
X165640000Y-95645000D02*
G75*
G02*
X165920000Y-95365000I280000J0D01*
G01*
X149260000Y-95365000D02*
G75*
G02*
X149540000Y-95645000I0J-280000D01*
G01*
X148140000Y-96413449D02*
G75*
G03*
X148420000Y-96693400I280000J49D01*
G01*
X149960000Y-96693450D02*
G75*
G03*
X150239950Y-96413450I0J279950D01*
G01*
X139040000Y-95645000D02*
G75*
G02*
X139320000Y-95365000I280000J0D01*
G01*
X133440000Y-95645000D02*
G75*
G02*
X133720000Y-95365000I280000J0D01*
G01*
X164940000Y-96413454D02*
G75*
G03*
X165220000Y-96693500I280000J-46D01*
G01*
X151360000Y-96693449D02*
G75*
G03*
X151640049Y-96413449I0J280049D01*
G01*
X132740000Y-96413451D02*
G75*
G03*
X133020000Y-96693500I280000J-49D01*
G01*
X147160000Y-96693450D02*
G75*
G03*
X147439950Y-96413450I0J279950D01*
G01*
X130640000Y-95645000D02*
G75*
G02*
X130920000Y-95365000I280000J0D01*
G01*
X138340000Y-96413449D02*
G75*
G03*
X138620000Y-96693400I280000J49D01*
G01*
X135540000Y-96413449D02*
G75*
G03*
X135820000Y-96693400I280000J49D01*
G01*
X130360000Y-96693451D02*
G75*
G03*
X130639951Y-96413451I0J279951D01*
G01*
X147860000Y-95365000D02*
G75*
G02*
X148140000Y-95645000I0J-280000D01*
G01*
X148560000Y-96693449D02*
G75*
G03*
X148840049Y-96413449I0J280049D01*
G01*
X166760000Y-96693445D02*
G75*
G03*
X167040045Y-96413445I0J280045D01*
G01*
X128960000Y-96693451D02*
G75*
G03*
X129239951Y-96413451I0J279951D01*
G01*
X160740000Y-96413449D02*
G75*
G03*
X161020000Y-96693400I280000J49D01*
G01*
X153740000Y-96413449D02*
G75*
G03*
X154020000Y-96693400I280000J49D01*
G01*
X134560000Y-96693450D02*
G75*
G03*
X134839950Y-96413450I0J279950D01*
G01*
X129940000Y-96413451D02*
G75*
G03*
X130220000Y-96693500I280000J-49D01*
G01*
X128540000Y-96413451D02*
G75*
G03*
X128820000Y-96693500I280000J-49D01*
G01*
X160040000Y-95645000D02*
G75*
G02*
X160320000Y-95365000I280000J0D01*
G01*
X156960000Y-96693449D02*
G75*
G03*
X157240049Y-96413449I0J280049D01*
G01*
X132460000Y-95365000D02*
G75*
G02*
X132740000Y-95645000I0J-280000D01*
G01*
X164660000Y-95365000D02*
G75*
G02*
X164940000Y-95645000I0J-280000D01*
G01*
X157940000Y-96413451D02*
G75*
G03*
X158220000Y-96693500I280000J-49D01*
G01*
X146040000Y-95645000D02*
G75*
G02*
X146320000Y-95365000I280000J0D01*
G01*
%TO.N,/SOM1/SE37*%
X140859343Y-90365000D02*
X140859343Y-90692533D01*
X127559343Y-90692521D02*
X127559343Y-90365000D01*
X132739343Y-90972521D02*
X132879343Y-90972521D01*
X134559343Y-90365000D02*
X134559343Y-90037479D01*
X140859343Y-90037467D02*
X140859343Y-90365000D01*
X124059343Y-90037479D02*
X124059343Y-90365000D01*
X129659343Y-90365000D02*
X129659343Y-90692521D01*
X131759343Y-90365000D02*
X131759343Y-90037479D01*
X141139343Y-90972533D02*
X141279343Y-90972533D01*
X172210000Y-90365000D02*
X177935000Y-96090000D01*
X138759343Y-90692521D02*
X138759343Y-90365000D01*
X143239343Y-89757467D02*
X143379343Y-89757467D01*
X120559343Y-90365000D02*
X120559343Y-90037479D01*
X147859343Y-90037479D02*
X147859343Y-90365000D01*
X142539343Y-90972533D02*
X142679343Y-90972533D01*
X122939343Y-90972521D02*
X123079343Y-90972521D01*
X127139343Y-90972521D02*
X127279343Y-90972521D01*
X133159343Y-90692521D02*
X133159343Y-90365000D01*
X133859343Y-90037479D02*
X133859343Y-90365000D01*
X147859343Y-90365000D02*
X147859343Y-90692546D01*
X132039343Y-89757479D02*
X132179343Y-89757479D01*
X131059343Y-90037479D02*
X131059343Y-90365000D01*
X130359343Y-90365000D02*
X130359343Y-90037479D01*
X128259343Y-90365000D02*
X128259343Y-90692521D01*
X145759343Y-90692533D02*
X145759343Y-90365000D01*
X126159343Y-90365000D02*
X126159343Y-90037479D01*
X148139343Y-90972546D02*
X148279343Y-90972546D01*
X148559343Y-90085000D02*
X148559343Y-90037479D01*
X150185000Y-90365000D02*
X172210000Y-90365000D01*
X133159343Y-90365000D02*
X133159343Y-90037479D01*
X122239343Y-89757479D02*
X122379343Y-89757479D01*
X131059343Y-90365000D02*
X131059343Y-90692521D01*
X141559343Y-90692533D02*
X141559343Y-90365000D01*
X138339343Y-90972521D02*
X138479343Y-90972521D01*
X136939343Y-90972521D02*
X137079343Y-90972521D01*
X124339343Y-90972521D02*
X124479343Y-90972521D01*
X131339343Y-90972521D02*
X131479343Y-90972521D01*
X133439343Y-89757479D02*
X133579343Y-89757479D01*
X143659343Y-90365000D02*
X143659343Y-90692533D01*
X135959343Y-90365000D02*
X135959343Y-90037479D01*
X125459343Y-90037479D02*
X125459343Y-90365000D01*
X135539343Y-90972521D02*
X135679343Y-90972521D01*
X125459343Y-90365000D02*
X125459343Y-90692521D01*
X134559343Y-90692521D02*
X134559343Y-90365000D01*
X119859343Y-90037479D02*
X119859343Y-90085000D01*
X134139343Y-90972521D02*
X134279343Y-90972521D01*
X140159343Y-90692533D02*
X140159343Y-90365000D01*
X128959343Y-90365000D02*
X128959343Y-90037479D01*
X146459343Y-90365000D02*
X146459343Y-90692546D01*
X143659343Y-90037467D02*
X143659343Y-90365000D01*
X139459343Y-90365000D02*
X139459343Y-90692533D01*
X144359343Y-90692533D02*
X144359343Y-90365000D01*
X123359343Y-90365000D02*
X123359343Y-90037479D01*
X126439343Y-89757479D02*
X126579343Y-89757479D01*
X148839343Y-89757479D02*
X148979343Y-89757479D01*
X145059343Y-90037467D02*
X145059343Y-90365000D01*
X147159343Y-90692546D02*
X147159343Y-90365000D01*
X138759343Y-90365000D02*
X138759343Y-90037467D01*
X137639343Y-89757479D02*
X137779343Y-89757479D01*
X142259343Y-90037467D02*
X142259343Y-90365000D01*
X140159343Y-90365000D02*
X140159343Y-90037467D01*
X130639343Y-89757479D02*
X130779343Y-89757479D01*
X128959343Y-90692521D02*
X128959343Y-90365000D01*
X149679343Y-90365000D02*
X150185000Y-90365000D01*
X135259343Y-90037479D02*
X135259343Y-90365000D01*
X119859343Y-90085000D02*
X119859343Y-90365000D01*
X120839343Y-89757479D02*
X120979343Y-89757479D01*
X148559343Y-90365000D02*
X148559343Y-90085000D01*
X127839343Y-89757479D02*
X127979343Y-89757479D01*
X141839343Y-89757467D02*
X141979343Y-89757467D01*
X144639343Y-89757467D02*
X144779343Y-89757467D01*
X149539343Y-90365000D02*
X149679343Y-90365000D01*
X148559343Y-90692546D02*
X148559343Y-90365000D01*
X119159343Y-90085000D02*
X119159343Y-90037479D01*
X112285000Y-96115000D02*
X118035000Y-90365000D01*
X146739343Y-90972546D02*
X146879343Y-90972546D01*
X124059343Y-90365000D02*
X124059343Y-90692521D01*
X141559343Y-90365000D02*
X141559343Y-90037467D01*
X139739343Y-90972533D02*
X139879343Y-90972533D01*
X119859343Y-90365000D02*
X119859343Y-90692521D01*
X120559343Y-90692521D02*
X120559343Y-90365000D01*
X129939343Y-90972521D02*
X130079343Y-90972521D01*
X136659343Y-90037479D02*
X136659343Y-90365000D01*
X136659343Y-90365000D02*
X136659343Y-90692521D01*
X129659343Y-90037479D02*
X129659343Y-90365000D01*
X122659343Y-90037479D02*
X122659343Y-90365000D01*
X135959343Y-90692521D02*
X135959343Y-90365000D01*
X133859343Y-90365000D02*
X133859343Y-90692521D01*
X142959343Y-90365000D02*
X142959343Y-90037467D01*
X132459343Y-90365000D02*
X132459343Y-90692521D01*
X132459343Y-90037479D02*
X132459343Y-90365000D01*
X145339343Y-90972533D02*
X145479343Y-90972533D01*
X145759343Y-90365000D02*
X145759343Y-90037467D01*
X134839343Y-89757479D02*
X134979343Y-89757479D01*
X124759343Y-90365000D02*
X124759343Y-90037479D01*
X143939343Y-90972533D02*
X144079343Y-90972533D01*
X126159343Y-90692521D02*
X126159343Y-90365000D01*
X137359343Y-90365000D02*
X137359343Y-90037479D01*
X120139343Y-90972521D02*
X120279343Y-90972521D01*
X146459343Y-90037467D02*
X146459343Y-90365000D01*
X136239343Y-89757479D02*
X136379343Y-89757479D01*
X125739343Y-90972521D02*
X125879343Y-90972521D01*
X149259343Y-90037479D02*
X149259343Y-90085000D01*
X138059343Y-90037479D02*
X138059343Y-90365000D01*
X121959343Y-90692521D02*
X121959343Y-90365000D01*
X130359343Y-90692521D02*
X130359343Y-90365000D01*
X122659343Y-90365000D02*
X122659343Y-90692521D01*
X139459343Y-90037467D02*
X139459343Y-90365000D01*
X126859343Y-90365000D02*
X126859343Y-90692521D01*
X142959343Y-90692533D02*
X142959343Y-90365000D01*
X147159343Y-90365000D02*
X147159343Y-90037479D01*
X144359343Y-90365000D02*
X144359343Y-90037467D01*
X124759343Y-90692521D02*
X124759343Y-90365000D01*
X142259343Y-90365000D02*
X142259343Y-90692533D01*
X121539343Y-90972521D02*
X121679343Y-90972521D01*
X121959343Y-90365000D02*
X121959343Y-90037479D01*
X139039343Y-89757467D02*
X139179343Y-89757467D01*
X135259343Y-90365000D02*
X135259343Y-90692521D01*
X121259343Y-90037479D02*
X121259343Y-90365000D01*
X145059343Y-90365000D02*
X145059343Y-90692533D01*
X118035000Y-90365000D02*
X118879343Y-90365000D01*
X128539343Y-90972521D02*
X128679343Y-90972521D01*
X140439343Y-89757467D02*
X140579343Y-89757467D01*
X127559343Y-90365000D02*
X127559343Y-90037479D01*
X125039343Y-89757479D02*
X125179343Y-89757479D01*
X146039343Y-89757467D02*
X146179343Y-89757467D01*
X123639343Y-89757479D02*
X123779343Y-89757479D01*
X123359343Y-90692521D02*
X123359343Y-90365000D01*
X129239343Y-89757479D02*
X129379343Y-89757479D01*
X137359343Y-90692521D02*
X137359343Y-90365000D01*
X119439343Y-89757479D02*
X119579343Y-89757479D01*
X128259343Y-90037479D02*
X128259343Y-90365000D01*
X121259343Y-90365000D02*
X121259343Y-90692521D01*
X126859343Y-90037479D02*
X126859343Y-90365000D01*
X131759343Y-90692521D02*
X131759343Y-90365000D01*
X147439343Y-89757479D02*
X147579343Y-89757479D01*
X138059343Y-90365000D02*
X138059343Y-90692521D01*
X146879343Y-90972546D02*
G75*
G03*
X147159346Y-90692546I-43J280046D01*
G01*
X137079343Y-90972521D02*
G75*
G03*
X137359321Y-90692521I-43J280021D01*
G01*
X143379343Y-89757467D02*
G75*
G02*
X143659333Y-90037467I-43J-280033D01*
G01*
X134979343Y-89757479D02*
G75*
G02*
X135259321Y-90037479I-43J-280021D01*
G01*
X133859343Y-90692521D02*
G75*
G03*
X134139343Y-90972457I279957J21D01*
G01*
X124479343Y-90972521D02*
G75*
G03*
X124759321Y-90692521I-43J280021D01*
G01*
X145059343Y-90692533D02*
G75*
G03*
X145339343Y-90972457I279957J33D01*
G01*
X149259343Y-90085000D02*
G75*
G03*
X149539343Y-90364957I279957J0D01*
G01*
X124059343Y-90692521D02*
G75*
G03*
X124339343Y-90972457I279957J21D01*
G01*
X145479343Y-90972533D02*
G75*
G03*
X145759333Y-90692533I-43J280033D01*
G01*
X129659343Y-90692521D02*
G75*
G03*
X129939343Y-90972457I279957J21D01*
G01*
X120279343Y-90972521D02*
G75*
G03*
X120559321Y-90692521I-43J280021D01*
G01*
X131479343Y-90972521D02*
G75*
G03*
X131759321Y-90692521I-43J280021D01*
G01*
X134559343Y-90037479D02*
G75*
G02*
X134839343Y-89757543I279957J-21D01*
G01*
X144359343Y-90037467D02*
G75*
G02*
X144639343Y-89757543I279957J-33D01*
G01*
X135259343Y-90692521D02*
G75*
G03*
X135539343Y-90972457I279957J21D01*
G01*
X138479343Y-90972521D02*
G75*
G03*
X138759321Y-90692521I-43J280021D01*
G01*
X132879343Y-90972521D02*
G75*
G03*
X133159321Y-90692521I-43J280021D01*
G01*
X148279343Y-90972546D02*
G75*
G03*
X148559346Y-90692546I-43J280046D01*
G01*
X140579343Y-89757467D02*
G75*
G02*
X140859333Y-90037467I-43J-280033D01*
G01*
X118879343Y-90365000D02*
G75*
G03*
X119159300Y-90085000I-43J280000D01*
G01*
X138759343Y-90037467D02*
G75*
G02*
X139039343Y-89757543I279957J-33D01*
G01*
X131759343Y-90037479D02*
G75*
G02*
X132039343Y-89757543I279957J-21D01*
G01*
X133579343Y-89757479D02*
G75*
G02*
X133859321Y-90037479I-43J-280021D01*
G01*
X119159343Y-90037479D02*
G75*
G02*
X119439343Y-89757543I279957J-21D01*
G01*
X126859343Y-90692521D02*
G75*
G03*
X127139343Y-90972457I279957J21D01*
G01*
X137779343Y-89757479D02*
G75*
G02*
X138059321Y-90037479I-43J-280021D01*
G01*
X127559343Y-90037479D02*
G75*
G02*
X127839343Y-89757543I279957J-21D01*
G01*
X140859343Y-90692533D02*
G75*
G03*
X141139343Y-90972457I279957J33D01*
G01*
X144779343Y-89757467D02*
G75*
G02*
X145059333Y-90037467I-43J-280033D01*
G01*
X122659343Y-90692521D02*
G75*
G03*
X122939343Y-90972457I279957J21D01*
G01*
X124759343Y-90037479D02*
G75*
G02*
X125039343Y-89757543I279957J-21D01*
G01*
X142959343Y-90037467D02*
G75*
G02*
X143239343Y-89757543I279957J-33D01*
G01*
X131059343Y-90692521D02*
G75*
G03*
X131339343Y-90972457I279957J21D01*
G01*
X135959343Y-90037479D02*
G75*
G02*
X136239343Y-89757543I279957J-21D01*
G01*
X128259343Y-90692521D02*
G75*
G03*
X128539343Y-90972457I279957J21D01*
G01*
X147159343Y-90037479D02*
G75*
G02*
X147439343Y-89757543I279957J-21D01*
G01*
X129379343Y-89757479D02*
G75*
G02*
X129659321Y-90037479I-43J-280021D01*
G01*
X139179343Y-89757467D02*
G75*
G02*
X139459333Y-90037467I-43J-280033D01*
G01*
X123779343Y-89757479D02*
G75*
G02*
X124059321Y-90037479I-43J-280021D01*
G01*
X148559343Y-90037479D02*
G75*
G02*
X148839343Y-89757543I279957J-21D01*
G01*
X121959343Y-90037479D02*
G75*
G02*
X122239343Y-89757543I279957J-21D01*
G01*
X142679343Y-90972533D02*
G75*
G03*
X142959333Y-90692533I-43J280033D01*
G01*
X128959343Y-90037479D02*
G75*
G02*
X129239343Y-89757543I279957J-21D01*
G01*
X144079343Y-90972533D02*
G75*
G03*
X144359333Y-90692533I-43J280033D01*
G01*
X121679343Y-90972521D02*
G75*
G03*
X121959321Y-90692521I-43J280021D01*
G01*
X143659343Y-90692533D02*
G75*
G03*
X143939343Y-90972457I279957J33D01*
G01*
X141979343Y-89757467D02*
G75*
G02*
X142259333Y-90037467I-43J-280033D01*
G01*
X141559343Y-90037467D02*
G75*
G02*
X141839343Y-89757543I279957J-33D01*
G01*
X142259343Y-90692533D02*
G75*
G03*
X142539343Y-90972457I279957J33D01*
G01*
X140159343Y-90037467D02*
G75*
G02*
X140439343Y-89757543I279957J-33D01*
G01*
X123359343Y-90037479D02*
G75*
G02*
X123639343Y-89757543I279957J-21D01*
G01*
X119859343Y-90692521D02*
G75*
G03*
X120139343Y-90972457I279957J21D01*
G01*
X125459343Y-90692521D02*
G75*
G03*
X125739343Y-90972457I279957J21D01*
G01*
X122379343Y-89757479D02*
G75*
G02*
X122659321Y-90037479I-43J-280021D01*
G01*
X137359343Y-90037479D02*
G75*
G02*
X137639343Y-89757543I279957J-21D01*
G01*
X121259343Y-90692521D02*
G75*
G03*
X121539343Y-90972457I279957J21D01*
G01*
X128679343Y-90972521D02*
G75*
G03*
X128959321Y-90692521I-43J280021D01*
G01*
X135679343Y-90972521D02*
G75*
G03*
X135959321Y-90692521I-43J280021D01*
G01*
X120559343Y-90037479D02*
G75*
G02*
X120839343Y-89757543I279957J-21D01*
G01*
X138059343Y-90692521D02*
G75*
G03*
X138339343Y-90972457I279957J21D01*
G01*
X133159343Y-90037479D02*
G75*
G02*
X133439343Y-89757543I279957J-21D01*
G01*
X120979343Y-89757479D02*
G75*
G02*
X121259321Y-90037479I-43J-280021D01*
G01*
X146179343Y-89757467D02*
G75*
G02*
X146459333Y-90037467I-43J-280033D01*
G01*
X127979343Y-89757479D02*
G75*
G02*
X128259321Y-90037479I-43J-280021D01*
G01*
X136379343Y-89757479D02*
G75*
G02*
X136659321Y-90037479I-43J-280021D01*
G01*
X139879343Y-90972533D02*
G75*
G03*
X140159333Y-90692533I-43J280033D01*
G01*
X132179343Y-89757479D02*
G75*
G02*
X132459321Y-90037479I-43J-280021D01*
G01*
X147579343Y-89757479D02*
G75*
G02*
X147859321Y-90037479I-43J-280021D01*
G01*
X127279343Y-90972521D02*
G75*
G03*
X127559321Y-90692521I-43J280021D01*
G01*
X123079343Y-90972521D02*
G75*
G03*
X123359321Y-90692521I-43J280021D01*
G01*
X119579343Y-89757479D02*
G75*
G02*
X119859321Y-90037479I-43J-280021D01*
G01*
X136659343Y-90692521D02*
G75*
G03*
X136939343Y-90972457I279957J21D01*
G01*
X148979343Y-89757479D02*
G75*
G02*
X149259321Y-90037479I-43J-280021D01*
G01*
X130079343Y-90972521D02*
G75*
G03*
X130359321Y-90692521I-43J280021D01*
G01*
X139459343Y-90692533D02*
G75*
G03*
X139739343Y-90972457I279957J33D01*
G01*
X145759343Y-90037467D02*
G75*
G02*
X146039343Y-89757543I279957J-33D01*
G01*
X134279343Y-90972521D02*
G75*
G03*
X134559321Y-90692521I-43J280021D01*
G01*
X125879343Y-90972521D02*
G75*
G03*
X126159321Y-90692521I-43J280021D01*
G01*
X130359343Y-90037479D02*
G75*
G02*
X130639343Y-89757543I279957J-21D01*
G01*
X146459343Y-90692546D02*
G75*
G03*
X146739343Y-90972457I279957J46D01*
G01*
X141279343Y-90972533D02*
G75*
G03*
X141559333Y-90692533I-43J280033D01*
G01*
X132459343Y-90692521D02*
G75*
G03*
X132739343Y-90972457I279957J21D01*
G01*
X147859343Y-90692546D02*
G75*
G03*
X148139343Y-90972457I279957J46D01*
G01*
X126159343Y-90037479D02*
G75*
G02*
X126439343Y-89757543I279957J-21D01*
G01*
X126579343Y-89757479D02*
G75*
G02*
X126859321Y-90037479I-43J-280021D01*
G01*
X130779343Y-89757479D02*
G75*
G02*
X131059321Y-90037479I-43J-280021D01*
G01*
X125179343Y-89757479D02*
G75*
G02*
X125459321Y-90037479I-43J-280021D01*
G01*
%TO.N,/SOM1/SE21*%
X135059114Y-77016498D02*
X135207616Y-77016498D01*
X131983365Y-76465000D02*
X131983365Y-76740748D01*
X136883365Y-76465000D02*
X136883365Y-76189251D01*
X134083365Y-76465000D02*
X134083365Y-76189252D01*
X133383365Y-76465000D02*
X133383365Y-76740748D01*
X139403365Y-76465000D02*
X143158771Y-76465000D01*
X134083365Y-76740748D02*
X134083365Y-76465000D01*
X134783365Y-76189252D02*
X134783365Y-76465000D01*
X170310000Y-76465000D02*
X189935000Y-96090000D01*
X130859113Y-77016496D02*
X131007617Y-77016496D01*
X130583365Y-76465000D02*
X130583365Y-76740748D01*
X135483365Y-76740749D02*
X135483365Y-76465000D01*
X119935000Y-76465000D02*
X129603365Y-76465000D01*
X136183365Y-76465000D02*
X136183365Y-76740750D01*
X131283365Y-76740748D02*
X131283365Y-76465000D01*
X135483365Y-76465000D02*
X135483365Y-76189251D01*
X135759114Y-75913502D02*
X135907616Y-75913502D01*
X130153467Y-75914898D02*
X130308314Y-75914898D01*
X133383365Y-76189252D02*
X133383365Y-76465000D01*
X132259113Y-77016496D02*
X132407617Y-77016496D01*
X138558448Y-75914834D02*
X138708282Y-75914834D01*
X131983365Y-76189252D02*
X131983365Y-76465000D01*
X136883365Y-76740750D02*
X136883365Y-76465000D01*
X131559113Y-75913504D02*
X131707617Y-75913504D01*
X137583365Y-76465000D02*
X137583365Y-76740751D01*
X137583365Y-76189251D02*
X137583365Y-76465000D01*
X136459114Y-77016499D02*
X136607616Y-77016499D01*
X132683365Y-76465000D02*
X132683365Y-76189252D01*
X137159114Y-75913502D02*
X137307616Y-75913502D01*
X100285000Y-96115000D02*
X119935000Y-76465000D01*
X132683365Y-76740748D02*
X132683365Y-76465000D01*
X130583365Y-76189949D02*
X130583365Y-76465000D01*
X143158771Y-76465000D02*
X170310000Y-76465000D01*
X139258448Y-76465000D02*
X139403365Y-76465000D01*
X138283365Y-76740751D02*
X138283365Y-76465000D01*
X133659113Y-77016496D02*
X133807617Y-77016496D01*
X134783365Y-76465000D02*
X134783365Y-76740749D01*
X136183365Y-76189251D02*
X136183365Y-76465000D01*
X132959113Y-75913504D02*
X133107617Y-75913504D01*
X138283365Y-76465000D02*
X138283365Y-76189917D01*
X134359113Y-75913504D02*
X134507617Y-75913504D01*
X131283365Y-76465000D02*
X131283365Y-76189252D01*
X137859115Y-77016501D02*
X138007615Y-77016501D01*
X131707617Y-75913504D02*
G75*
G02*
X131983396Y-76189252I-17J-275796D01*
G01*
X135207616Y-77016498D02*
G75*
G03*
X135483398Y-76740749I-16J275798D01*
G01*
X135483365Y-76189251D02*
G75*
G02*
X135759114Y-75913565I275735J-49D01*
G01*
X131983365Y-76740748D02*
G75*
G03*
X132259113Y-77016435I275735J48D01*
G01*
X138007615Y-77016501D02*
G75*
G03*
X138283301Y-76740751I-15J275701D01*
G01*
X133807617Y-77016496D02*
G75*
G03*
X134083396Y-76740748I-17J275796D01*
G01*
X131007617Y-77016496D02*
G75*
G03*
X131283396Y-76740748I-17J275796D01*
G01*
X136607616Y-77016499D02*
G75*
G03*
X136883299Y-76740750I-16J275699D01*
G01*
X132683365Y-76189252D02*
G75*
G02*
X132959113Y-75913565I275735J-48D01*
G01*
X138983365Y-76189917D02*
G75*
G03*
X139258448Y-76464935I275035J17D01*
G01*
X135907616Y-75913502D02*
G75*
G02*
X136183398Y-76189251I-16J-275798D01*
G01*
X138283365Y-76189917D02*
G75*
G02*
X138558448Y-75914865I275035J17D01*
G01*
X133107617Y-75913504D02*
G75*
G02*
X133383396Y-76189252I-17J-275796D01*
G01*
X136183365Y-76740750D02*
G75*
G03*
X136459114Y-77016535I275735J-50D01*
G01*
X136883365Y-76189251D02*
G75*
G02*
X137159114Y-75913565I275735J-49D01*
G01*
X132407617Y-77016496D02*
G75*
G03*
X132683396Y-76740748I-17J275796D01*
G01*
X137583365Y-76740751D02*
G75*
G03*
X137859115Y-77016535I275735J-49D01*
G01*
X133383365Y-76740748D02*
G75*
G03*
X133659113Y-77016435I275735J48D01*
G01*
X131283365Y-76189252D02*
G75*
G02*
X131559113Y-75913565I275735J-48D01*
G01*
X130583365Y-76740748D02*
G75*
G03*
X130859113Y-77016435I275735J48D01*
G01*
X130308314Y-75914898D02*
G75*
G02*
X130583402Y-76189949I-14J-275102D01*
G01*
X137307616Y-75913502D02*
G75*
G02*
X137583398Y-76189251I-16J-275798D01*
G01*
X134083365Y-76189252D02*
G75*
G02*
X134359113Y-75913565I275735J-48D01*
G01*
X138708282Y-75914834D02*
G75*
G02*
X138983366Y-76189917I18J-275066D01*
G01*
X134507617Y-75913504D02*
G75*
G02*
X134783396Y-76189252I-17J-275796D01*
G01*
X134783365Y-76740749D02*
G75*
G03*
X135059114Y-77016435I275735J49D01*
G01*
X129878416Y-76189949D02*
G75*
G02*
X130153467Y-75914916I275084J-51D01*
G01*
X129603365Y-76465000D02*
G75*
G03*
X129878500Y-76189949I35J275100D01*
G01*
%TO.N,/SOM1/SE25*%
X139855539Y-79880916D02*
X139855539Y-79615000D01*
X145719235Y-79087608D02*
X145891843Y-79087608D01*
X136355539Y-79349084D02*
X136355539Y-79615000D01*
X140121454Y-79083169D02*
X140289624Y-79083169D01*
X143355539Y-79615000D02*
X143355539Y-79880916D01*
X136621454Y-80146831D02*
X136789624Y-80146831D01*
X133555539Y-79615000D02*
X133555539Y-79880916D01*
X142921454Y-79083169D02*
X143089624Y-79083169D01*
X145455539Y-79880916D02*
X145455539Y-79615000D01*
X144055539Y-79880916D02*
X144055539Y-79615000D01*
X145455539Y-79615000D02*
X145455539Y-79351304D01*
X139421454Y-80146831D02*
X139589624Y-80146831D01*
X119785000Y-79615000D02*
X132575539Y-79615000D01*
X133102941Y-79087598D02*
X133291838Y-79087598D01*
X138021454Y-80146831D02*
X138189624Y-80146831D01*
X137055539Y-79880916D02*
X137055539Y-79615000D01*
X138721454Y-79083169D02*
X138889624Y-79083169D01*
X137321454Y-79083169D02*
X137489624Y-79083169D01*
X145021454Y-80146831D02*
X145189624Y-80146831D01*
X135921454Y-79083169D02*
X136089624Y-79083169D01*
X141955539Y-79615000D02*
X141955539Y-79880916D01*
X144055539Y-79615000D02*
X144055539Y-79349084D01*
X134955539Y-79349084D02*
X134955539Y-79615000D01*
X134521454Y-79083169D02*
X134689624Y-79083169D01*
X134955539Y-79615000D02*
X134955539Y-79880916D01*
X142655539Y-79615000D02*
X142655539Y-79349084D01*
X140555539Y-79615000D02*
X140555539Y-79880916D01*
X142221454Y-80146831D02*
X142389624Y-80146831D01*
X133555539Y-79351299D02*
X133555539Y-79615000D01*
X136355539Y-79615000D02*
X136355539Y-79880916D01*
X142655539Y-79880916D02*
X142655539Y-79615000D01*
X134255539Y-79615000D02*
X134255539Y-79349084D01*
X138455539Y-79615000D02*
X138455539Y-79349084D01*
X138455539Y-79880916D02*
X138455539Y-79615000D01*
X146575539Y-79615000D02*
X149229323Y-79615000D01*
X143355539Y-79349084D02*
X143355539Y-79615000D01*
X141955539Y-79349084D02*
X141955539Y-79615000D01*
X135221454Y-80146831D02*
X135389624Y-80146831D01*
X103285000Y-96115000D02*
X119785000Y-79615000D01*
X137755539Y-79615000D02*
X137755539Y-79880916D01*
X135655539Y-79880916D02*
X135655539Y-79615000D01*
X140821454Y-80146831D02*
X140989624Y-80146831D01*
X137755539Y-79349084D02*
X137755539Y-79615000D01*
X143621454Y-80146831D02*
X143789624Y-80146831D01*
X141255539Y-79880916D02*
X141255539Y-79615000D01*
X141521454Y-79083169D02*
X141689624Y-79083169D01*
X135655539Y-79615000D02*
X135655539Y-79349084D01*
X133821454Y-80146831D02*
X133989624Y-80146831D01*
X139855539Y-79615000D02*
X139855539Y-79349084D01*
X139155539Y-79349084D02*
X139155539Y-79615000D01*
X149229323Y-79615000D02*
X170460000Y-79615000D01*
X139155539Y-79615000D02*
X139155539Y-79880916D01*
X170460000Y-79615000D02*
X186935000Y-96090000D01*
X140555539Y-79349084D02*
X140555539Y-79615000D01*
X144321454Y-79083169D02*
X144489624Y-79083169D01*
X146419235Y-79615000D02*
X146575539Y-79615000D01*
X144755539Y-79349084D02*
X144755539Y-79615000D01*
X144755539Y-79615000D02*
X144755539Y-79880916D01*
X134255539Y-79880916D02*
X134255539Y-79615000D01*
X141255539Y-79615000D02*
X141255539Y-79349084D01*
X137055539Y-79615000D02*
X137055539Y-79349084D01*
X145891843Y-79087608D02*
G75*
G02*
X146155492Y-79351304I-43J-263692D01*
G01*
X145455539Y-79351304D02*
G75*
G02*
X145719235Y-79087639I263661J4D01*
G01*
X140289624Y-79083169D02*
G75*
G02*
X140555531Y-79349084I-24J-265931D01*
G01*
X145189624Y-80146831D02*
G75*
G03*
X145455531Y-79880916I-24J265931D01*
G01*
X139589624Y-80146831D02*
G75*
G03*
X139855531Y-79880916I-24J265931D01*
G01*
X136355539Y-79880916D02*
G75*
G03*
X136621454Y-80146861I265961J16D01*
G01*
X132839240Y-79351299D02*
G75*
G02*
X133102941Y-79087640I263660J-1D01*
G01*
X142655539Y-79349084D02*
G75*
G02*
X142921454Y-79083139I265961J-16D01*
G01*
X142389624Y-80146831D02*
G75*
G03*
X142655531Y-79880916I-24J265931D01*
G01*
X132575539Y-79615000D02*
G75*
G03*
X132839200Y-79351299I-39J263700D01*
G01*
X141955539Y-79880916D02*
G75*
G03*
X142221454Y-80146861I265961J16D01*
G01*
X133291838Y-79087598D02*
G75*
G02*
X133555502Y-79351299I-38J-263702D01*
G01*
X139155539Y-79880916D02*
G75*
G03*
X139421454Y-80146861I265961J16D01*
G01*
X138889624Y-79083169D02*
G75*
G02*
X139155531Y-79349084I-24J-265931D01*
G01*
X135389624Y-80146831D02*
G75*
G03*
X135655531Y-79880916I-24J265931D01*
G01*
X136789624Y-80146831D02*
G75*
G03*
X137055531Y-79880916I-24J265931D01*
G01*
X139855539Y-79349084D02*
G75*
G02*
X140121454Y-79083139I265961J-16D01*
G01*
X133989624Y-80146831D02*
G75*
G03*
X134255531Y-79880916I-24J265931D01*
G01*
X133555539Y-79880916D02*
G75*
G03*
X133821454Y-80146861I265961J16D01*
G01*
X137055539Y-79349084D02*
G75*
G02*
X137321454Y-79083139I265961J-16D01*
G01*
X140555539Y-79880916D02*
G75*
G03*
X140821454Y-80146861I265961J16D01*
G01*
X134689624Y-79083169D02*
G75*
G02*
X134955531Y-79349084I-24J-265931D01*
G01*
X144489624Y-79083169D02*
G75*
G02*
X144755531Y-79349084I-24J-265931D01*
G01*
X138189624Y-80146831D02*
G75*
G03*
X138455531Y-79880916I-24J265931D01*
G01*
X137755539Y-79880916D02*
G75*
G03*
X138021454Y-80146861I265961J16D01*
G01*
X141689624Y-79083169D02*
G75*
G02*
X141955531Y-79349084I-24J-265931D01*
G01*
X134255539Y-79349084D02*
G75*
G02*
X134521454Y-79083139I265961J-16D01*
G01*
X134955539Y-79880916D02*
G75*
G03*
X135221454Y-80146861I265961J16D01*
G01*
X140989624Y-80146831D02*
G75*
G03*
X141255531Y-79880916I-24J265931D01*
G01*
X143089624Y-79083169D02*
G75*
G02*
X143355531Y-79349084I-24J-265931D01*
G01*
X144055539Y-79349084D02*
G75*
G02*
X144321454Y-79083139I265961J-16D01*
G01*
X143355539Y-79880916D02*
G75*
G03*
X143621454Y-80146861I265961J16D01*
G01*
X144755539Y-79880916D02*
G75*
G03*
X145021454Y-80146861I265961J16D01*
G01*
X137489624Y-79083169D02*
G75*
G02*
X137755531Y-79349084I-24J-265931D01*
G01*
X146155539Y-79351304D02*
G75*
G03*
X146419235Y-79614961I263661J4D01*
G01*
X143789624Y-80146831D02*
G75*
G03*
X144055531Y-79880916I-24J265931D01*
G01*
X135655539Y-79349084D02*
G75*
G02*
X135921454Y-79083139I265961J-16D01*
G01*
X136089624Y-79083169D02*
G75*
G02*
X136355531Y-79349084I-24J-265931D01*
G01*
X138455539Y-79349084D02*
G75*
G02*
X138721454Y-79083139I265961J-16D01*
G01*
X141255539Y-79349084D02*
G75*
G02*
X141521454Y-79083139I265961J-16D01*
G01*
%TO.N,/SOM1/SE19*%
X121431844Y-74744975D02*
X121431844Y-74965000D01*
X121660033Y-75421378D02*
X121903655Y-75421378D01*
X98785000Y-96115000D02*
X119935000Y-74965000D01*
X123251844Y-74965000D02*
X128391439Y-74965000D01*
X122131844Y-74965000D02*
X122131844Y-74744994D01*
X120891894Y-74524950D02*
X121211819Y-74524950D01*
X123051850Y-74965000D02*
X123251844Y-74965000D01*
X121431844Y-74965000D02*
X121431844Y-75193189D01*
X119935000Y-74965000D02*
X120451844Y-74965000D01*
X122131844Y-75193189D02*
X122131844Y-74965000D01*
X122351850Y-74524988D02*
X122611838Y-74524988D01*
X170310000Y-74965000D02*
X191435000Y-96090000D01*
X128391439Y-74965000D02*
X170310000Y-74965000D01*
X121211819Y-74524950D02*
G75*
G02*
X121431850Y-74744975I-19J-220050D01*
G01*
X121903655Y-75421378D02*
G75*
G03*
X122131878Y-75193189I45J228178D01*
G01*
X120451844Y-74965000D02*
G75*
G03*
X120671800Y-74744975I-44J220000D01*
G01*
X122611838Y-74524988D02*
G75*
G02*
X122831812Y-74744994I-38J-220012D01*
G01*
X121431844Y-75193189D02*
G75*
G03*
X121660033Y-75421356I228156J-11D01*
G01*
X122131844Y-74744994D02*
G75*
G02*
X122351850Y-74525044I219956J-6D01*
G01*
X120671869Y-74744975D02*
G75*
G02*
X120891894Y-74524969I220031J-25D01*
G01*
X122831844Y-74744994D02*
G75*
G03*
X123051850Y-74964956I219956J-6D01*
G01*
%TO.N,/SOM1/SE13*%
X119160000Y-71240000D02*
X171085000Y-71240000D01*
X94285000Y-96115000D02*
X119160000Y-71240000D01*
X171085000Y-71240000D02*
X195935000Y-96090000D01*
%TO.N,/SOM1/SE29*%
X136093309Y-83637149D02*
X136093309Y-83290000D01*
X134693309Y-83290000D02*
X134693309Y-82942849D01*
X138893309Y-83290000D02*
X138893309Y-82942851D01*
X134973309Y-82662849D02*
X135113309Y-82662849D01*
X119110000Y-83290000D02*
X132313309Y-83290000D01*
X137493309Y-83637150D02*
X137493309Y-83290000D01*
X141973309Y-82662851D02*
X142113309Y-82662851D01*
X134273309Y-83917149D02*
X134413309Y-83917149D01*
X133293309Y-83290000D02*
X133293309Y-82942850D01*
X140993309Y-83290000D02*
X140993309Y-83637151D01*
X142393309Y-82942851D02*
X142393309Y-83290000D01*
X133573309Y-82662850D02*
X133713309Y-82662850D01*
X133293309Y-83637151D02*
X133293309Y-83570000D01*
X133993309Y-82942850D02*
X133993309Y-83290000D01*
X139173309Y-82662851D02*
X139313309Y-82662851D01*
X138473309Y-83917150D02*
X138613309Y-83917150D01*
X171135000Y-83290000D02*
X183935000Y-96090000D01*
X139593309Y-82942851D02*
X139593309Y-83290000D01*
X144073309Y-83917149D02*
X144213309Y-83917149D01*
X135393309Y-82942849D02*
X135393309Y-83290000D01*
X138193309Y-83290000D02*
X138193309Y-83637150D01*
X133293309Y-83570000D02*
X133293309Y-83290000D01*
X143373309Y-82662850D02*
X143513309Y-82662850D01*
X145473309Y-83917144D02*
X145613309Y-83917144D01*
X139593309Y-83290000D02*
X139593309Y-83637151D01*
X143793309Y-83290000D02*
X143793309Y-83637149D01*
X136093309Y-83290000D02*
X136093309Y-82942849D01*
X146313309Y-83290000D02*
X154679729Y-83290000D01*
X144493309Y-83290000D02*
X144493309Y-82942849D01*
X134693309Y-83637149D02*
X134693309Y-83290000D01*
X137073309Y-83917150D02*
X137213309Y-83917150D01*
X138193309Y-82942851D02*
X138193309Y-83290000D01*
X136793309Y-83290000D02*
X136793309Y-83637150D01*
X144493309Y-83637149D02*
X144493309Y-83290000D01*
X141273309Y-83917151D02*
X141413309Y-83917151D01*
X154679729Y-83290000D02*
X171135000Y-83290000D01*
X138893309Y-83637150D02*
X138893309Y-83290000D01*
X140293309Y-83637151D02*
X140293309Y-83290000D01*
X139873309Y-83917151D02*
X140013309Y-83917151D01*
X143793309Y-82942850D02*
X143793309Y-83290000D01*
X140573309Y-82662851D02*
X140713309Y-82662851D01*
X145193309Y-83570000D02*
X145193309Y-83637144D01*
X136373309Y-82662849D02*
X136513309Y-82662849D01*
X142393309Y-83290000D02*
X142393309Y-83637151D01*
X145193309Y-82942849D02*
X145193309Y-83290000D01*
X145193309Y-83290000D02*
X145193309Y-83570000D01*
X140293309Y-83290000D02*
X140293309Y-82942851D01*
X132593309Y-83570000D02*
X132593309Y-83637151D01*
X136793309Y-82942849D02*
X136793309Y-83290000D01*
X141693309Y-83637151D02*
X141693309Y-83290000D01*
X141693309Y-83290000D02*
X141693309Y-82942851D01*
X146173309Y-83290000D02*
X146313309Y-83290000D01*
X106285000Y-96115000D02*
X119110000Y-83290000D01*
X144773309Y-82662849D02*
X144913309Y-82662849D01*
X137493309Y-83290000D02*
X137493309Y-82942851D01*
X145893309Y-83637144D02*
X145893309Y-83570000D01*
X143093309Y-83290000D02*
X143093309Y-82942850D01*
X140993309Y-82942851D02*
X140993309Y-83290000D01*
X135673309Y-83917149D02*
X135813309Y-83917149D01*
X132873309Y-83917151D02*
X133013309Y-83917151D01*
X143093309Y-83637151D02*
X143093309Y-83290000D01*
X137773309Y-82662851D02*
X137913309Y-82662851D01*
X133993309Y-83290000D02*
X133993309Y-83637149D01*
X135393309Y-83290000D02*
X135393309Y-83637149D01*
X142673309Y-83917151D02*
X142813309Y-83917151D01*
X136513309Y-82662849D02*
G75*
G02*
X136793251Y-82942849I-9J-279951D01*
G01*
X135393309Y-83637149D02*
G75*
G03*
X135673309Y-83917091I279991J49D01*
G01*
X135113309Y-82662849D02*
G75*
G02*
X135393251Y-82942849I-9J-279951D01*
G01*
X142393309Y-83637151D02*
G75*
G03*
X142673309Y-83917191I279991J-49D01*
G01*
X134693309Y-82942849D02*
G75*
G02*
X134973309Y-82662809I279991J49D01*
G01*
X135813309Y-83917149D02*
G75*
G03*
X136093349Y-83637149I-9J280049D01*
G01*
X133293309Y-82942850D02*
G75*
G02*
X133573309Y-82662809I279991J50D01*
G01*
X141693309Y-82942851D02*
G75*
G02*
X141973309Y-82662909I279991J-49D01*
G01*
X140993309Y-83637151D02*
G75*
G03*
X141273309Y-83917191I279991J-49D01*
G01*
X144493309Y-82942849D02*
G75*
G02*
X144773309Y-82662809I279991J49D01*
G01*
X139593309Y-83637151D02*
G75*
G03*
X139873309Y-83917191I279991J-49D01*
G01*
X134413309Y-83917149D02*
G75*
G03*
X134693349Y-83637149I-9J280049D01*
G01*
X145193309Y-83637144D02*
G75*
G03*
X145473309Y-83917091I279991J44D01*
G01*
X133993309Y-83637149D02*
G75*
G03*
X134273309Y-83917091I279991J49D01*
G01*
X137213309Y-83917150D02*
G75*
G03*
X137493250Y-83637150I-9J279950D01*
G01*
X144213309Y-83917149D02*
G75*
G03*
X144493349Y-83637149I-9J280049D01*
G01*
X133013309Y-83917151D02*
G75*
G03*
X133293251Y-83637151I-9J279951D01*
G01*
X142113309Y-82662851D02*
G75*
G02*
X142393349Y-82942851I-9J-280049D01*
G01*
X140293309Y-82942851D02*
G75*
G02*
X140573309Y-82662909I279991J-49D01*
G01*
X136793309Y-83637150D02*
G75*
G03*
X137073309Y-83917191I279991J-50D01*
G01*
X145613309Y-83917144D02*
G75*
G03*
X145893344Y-83637144I-9J280044D01*
G01*
X139313309Y-82662851D02*
G75*
G02*
X139593349Y-82942851I-9J-280049D01*
G01*
X137493309Y-82942851D02*
G75*
G02*
X137773309Y-82662909I279991J-49D01*
G01*
X132593309Y-83637151D02*
G75*
G03*
X132873309Y-83917191I279991J-49D01*
G01*
X132313309Y-83290000D02*
G75*
G02*
X132593300Y-83570000I-9J-280000D01*
G01*
X144913309Y-82662849D02*
G75*
G02*
X145193251Y-82942849I-9J-279951D01*
G01*
X143793309Y-83637149D02*
G75*
G03*
X144073309Y-83917091I279991J49D01*
G01*
X143513309Y-82662850D02*
G75*
G02*
X143793250Y-82942850I-9J-279950D01*
G01*
X138193309Y-83637150D02*
G75*
G03*
X138473309Y-83917191I279991J-50D01*
G01*
X145893309Y-83570000D02*
G75*
G02*
X146173309Y-83290009I279991J0D01*
G01*
X141413309Y-83917151D02*
G75*
G03*
X141693251Y-83637151I-9J279951D01*
G01*
X140713309Y-82662851D02*
G75*
G02*
X140993349Y-82942851I-9J-280049D01*
G01*
X138893309Y-82942851D02*
G75*
G02*
X139173309Y-82662909I279991J-49D01*
G01*
X133713309Y-82662850D02*
G75*
G02*
X133993250Y-82942850I-9J-279950D01*
G01*
X138613309Y-83917150D02*
G75*
G03*
X138893250Y-83637150I-9J279950D01*
G01*
X143093309Y-82942850D02*
G75*
G02*
X143373309Y-82662809I279991J50D01*
G01*
X140013309Y-83917151D02*
G75*
G03*
X140293251Y-83637151I-9J279951D01*
G01*
X142813309Y-83917151D02*
G75*
G03*
X143093251Y-83637151I-9J279951D01*
G01*
X137913309Y-82662851D02*
G75*
G02*
X138193349Y-82942851I-9J-280049D01*
G01*
X136093309Y-82942849D02*
G75*
G02*
X136373309Y-82662809I279991J49D01*
G01*
%TO.N,/SOM1/SE31*%
X121416685Y-85607582D02*
X121624103Y-85607582D01*
X143816694Y-85607601D02*
X144024094Y-85607601D01*
X145670394Y-85115000D02*
X145670394Y-84869244D01*
X140316685Y-84622418D02*
X140524103Y-84622418D01*
X137270394Y-85115000D02*
X137270394Y-84868699D01*
X140070394Y-85361301D02*
X140070394Y-85115000D01*
X122570394Y-85115000D02*
X122570394Y-85361291D01*
X146820394Y-85115000D02*
X149135000Y-85115000D01*
X136116685Y-84622418D02*
X136324103Y-84622418D01*
X136816685Y-85607582D02*
X137024103Y-85607582D01*
X120470394Y-85115000D02*
X120470394Y-84868709D01*
X144970394Y-85115000D02*
X144970394Y-85361291D01*
X124916685Y-84622418D02*
X125124103Y-84622418D01*
X140770394Y-85115000D02*
X140770394Y-85361291D01*
X135170394Y-85115000D02*
X135170394Y-85361301D01*
X123516685Y-84622418D02*
X123724103Y-84622418D01*
X133316694Y-84622399D02*
X133524094Y-84622399D01*
X129570394Y-84868699D02*
X129570394Y-85115000D01*
X131670394Y-85115000D02*
X131670394Y-84868709D01*
X134470394Y-85361291D02*
X134470394Y-85115000D01*
X134016685Y-85607582D02*
X134224103Y-85607582D01*
X139616694Y-85607601D02*
X139824094Y-85607601D01*
X133770394Y-85115000D02*
X133770394Y-85361291D01*
X133070394Y-85361291D02*
X133070394Y-85115000D01*
X126316685Y-84622418D02*
X126524103Y-84622418D01*
X130516685Y-84622418D02*
X130724103Y-84622418D01*
X135170394Y-84868709D02*
X135170394Y-85115000D01*
X130970394Y-85115000D02*
X130970394Y-85361301D01*
X137970394Y-84868699D02*
X137970394Y-85115000D01*
X123970394Y-84868709D02*
X123970394Y-85115000D01*
X138216685Y-85607582D02*
X138424103Y-85607582D01*
X123970394Y-85115000D02*
X123970394Y-85361291D01*
X146616150Y-85115000D02*
X146820394Y-85115000D01*
X121870394Y-85115000D02*
X121870394Y-84868709D01*
X126070394Y-85115000D02*
X126070394Y-84868709D01*
X136570394Y-85115000D02*
X136570394Y-85361291D01*
X121870394Y-85361291D02*
X121870394Y-85115000D01*
X132370394Y-85115000D02*
X132370394Y-85361291D01*
X171460000Y-85115000D02*
X182435000Y-96090000D01*
X142870394Y-85115000D02*
X142870394Y-84868709D01*
X131670394Y-85361301D02*
X131670394Y-85115000D01*
X133070394Y-85115000D02*
X133070394Y-84868699D01*
X133770394Y-84868699D02*
X133770394Y-85115000D01*
X135870394Y-85115000D02*
X135870394Y-84868709D01*
X140070394Y-85115000D02*
X140070394Y-84868709D01*
X122816685Y-85607582D02*
X123024103Y-85607582D01*
X121170394Y-84868709D02*
X121170394Y-85115000D01*
X120716685Y-84622418D02*
X120924103Y-84622418D01*
X131216694Y-85607601D02*
X131424094Y-85607601D01*
X144516685Y-84622418D02*
X144724103Y-84622418D01*
X126770394Y-84868709D02*
X126770394Y-85115000D01*
X144270394Y-85115000D02*
X144270394Y-84868709D01*
X136570394Y-84868709D02*
X136570394Y-85115000D01*
X128416685Y-85607582D02*
X128624103Y-85607582D01*
X122116685Y-84622418D02*
X122324103Y-84622418D01*
X141716694Y-84622399D02*
X141924094Y-84622399D01*
X141016685Y-85607582D02*
X141224103Y-85607582D01*
X143570394Y-84868709D02*
X143570394Y-85115000D01*
X123270394Y-85115000D02*
X123270394Y-84868709D01*
X129570394Y-85115000D02*
X129570394Y-85361291D01*
X129816685Y-85607582D02*
X130024103Y-85607582D01*
X134716685Y-84622418D02*
X134924103Y-84622418D01*
X121170394Y-85115000D02*
X121170394Y-85361291D01*
X142416685Y-85607582D02*
X142624103Y-85607582D01*
X126070394Y-85361291D02*
X126070394Y-85115000D01*
X132616685Y-85607582D02*
X132824103Y-85607582D01*
X139370394Y-85115000D02*
X139370394Y-85361301D01*
X141470394Y-85115000D02*
X141470394Y-84868699D01*
X127016694Y-85607601D02*
X127224094Y-85607601D01*
X145670394Y-85361291D02*
X145670394Y-85115000D01*
X143116685Y-84622418D02*
X143324103Y-84622418D01*
X135416694Y-85607601D02*
X135624094Y-85607601D01*
X129116694Y-84622399D02*
X129324094Y-84622399D01*
X142870394Y-85361291D02*
X142870394Y-85115000D01*
X134470394Y-85115000D02*
X134470394Y-84868709D01*
X131916685Y-84622418D02*
X132124103Y-84622418D01*
X130270394Y-85361291D02*
X130270394Y-85115000D01*
X143570394Y-85115000D02*
X143570394Y-85361301D01*
X145916150Y-84623488D02*
X146124638Y-84623488D01*
X130970394Y-84868709D02*
X130970394Y-85115000D01*
X128170394Y-85115000D02*
X128170394Y-85361291D01*
X125370394Y-84868709D02*
X125370394Y-85115000D01*
X144270394Y-85361301D02*
X144270394Y-85115000D01*
X124670394Y-85115000D02*
X124670394Y-84868709D01*
X137270394Y-85361291D02*
X137270394Y-85115000D01*
X127716685Y-84622418D02*
X127924103Y-84622418D01*
X144970394Y-84868709D02*
X144970394Y-85115000D01*
X127470394Y-85361301D02*
X127470394Y-85115000D01*
X118785000Y-85115000D02*
X119520394Y-85115000D01*
X120011822Y-85606428D02*
X120224680Y-85606428D01*
X128870394Y-85115000D02*
X128870394Y-84868699D01*
X142170394Y-85115000D02*
X142170394Y-85361291D01*
X122570394Y-84868709D02*
X122570394Y-85115000D01*
X135870394Y-85361301D02*
X135870394Y-85115000D01*
X139370394Y-84868709D02*
X139370394Y-85115000D01*
X126770394Y-85115000D02*
X126770394Y-85361301D01*
X145216685Y-85607582D02*
X145424103Y-85607582D01*
X125616685Y-85607582D02*
X125824103Y-85607582D01*
X137970394Y-85115000D02*
X137970394Y-85361291D01*
X130270394Y-85115000D02*
X130270394Y-84868709D01*
X149135000Y-85115000D02*
X171460000Y-85115000D01*
X120470394Y-85360714D02*
X120470394Y-85115000D01*
X128170394Y-84868709D02*
X128170394Y-85115000D01*
X142170394Y-84868699D02*
X142170394Y-85115000D01*
X107785000Y-96115000D02*
X118785000Y-85115000D01*
X138670394Y-85361291D02*
X138670394Y-85115000D01*
X140770394Y-84868709D02*
X140770394Y-85115000D01*
X127470394Y-85115000D02*
X127470394Y-84868709D01*
X128870394Y-85361291D02*
X128870394Y-85115000D01*
X132370394Y-84868709D02*
X132370394Y-85115000D01*
X125370394Y-85115000D02*
X125370394Y-85361291D01*
X138916685Y-84622418D02*
X139124103Y-84622418D01*
X124216685Y-85607582D02*
X124424103Y-85607582D01*
X124670394Y-85361291D02*
X124670394Y-85115000D01*
X141470394Y-85361291D02*
X141470394Y-85115000D01*
X137516694Y-84622399D02*
X137724094Y-84622399D01*
X123270394Y-85361291D02*
X123270394Y-85115000D01*
X138670394Y-85115000D02*
X138670394Y-84868709D01*
X130270394Y-84868709D02*
G75*
G02*
X130516685Y-84622394I246306J9D01*
G01*
X121870394Y-84868709D02*
G75*
G02*
X122116685Y-84622394I246306J9D01*
G01*
X139370394Y-85361301D02*
G75*
G03*
X139616694Y-85607606I246306J1D01*
G01*
X140524103Y-84622418D02*
G75*
G02*
X140770382Y-84868709I-3J-246282D01*
G01*
X133770394Y-85361291D02*
G75*
G03*
X134016685Y-85607606I246306J-9D01*
G01*
X123724103Y-84622418D02*
G75*
G02*
X123970382Y-84868709I-3J-246282D01*
G01*
X137270394Y-84868699D02*
G75*
G02*
X137516694Y-84622394I246306J-1D01*
G01*
X124670394Y-84868709D02*
G75*
G02*
X124916685Y-84622394I246306J9D01*
G01*
X141924094Y-84622399D02*
G75*
G02*
X142170401Y-84868699I6J-246301D01*
G01*
X146124638Y-84623488D02*
G75*
G02*
X146370312Y-84869244I-38J-245712D01*
G01*
X123024103Y-85607582D02*
G75*
G03*
X123270382Y-85361291I-3J246282D01*
G01*
X141224103Y-85607582D02*
G75*
G03*
X141470382Y-85361291I-3J246282D01*
G01*
X127224094Y-85607601D02*
G75*
G03*
X127470401Y-85361301I6J246301D01*
G01*
X124424103Y-85607582D02*
G75*
G03*
X124670382Y-85361291I-3J246282D01*
G01*
X123970394Y-85361291D02*
G75*
G03*
X124216685Y-85607606I246306J-9D01*
G01*
X120924103Y-84622418D02*
G75*
G02*
X121170382Y-84868709I-3J-246282D01*
G01*
X139124103Y-84622418D02*
G75*
G02*
X139370382Y-84868709I-3J-246282D01*
G01*
X136570394Y-85361291D02*
G75*
G03*
X136816685Y-85607606I246306J-9D01*
G01*
X144024094Y-85607601D02*
G75*
G03*
X144270401Y-85361301I6J246301D01*
G01*
X122570394Y-85361291D02*
G75*
G03*
X122816685Y-85607606I246306J-9D01*
G01*
X137724094Y-84622399D02*
G75*
G02*
X137970401Y-84868699I6J-246301D01*
G01*
X137024103Y-85607582D02*
G75*
G03*
X137270382Y-85361291I-3J246282D01*
G01*
X139824094Y-85607601D02*
G75*
G03*
X140070401Y-85361301I6J246301D01*
G01*
X135170394Y-85361301D02*
G75*
G03*
X135416694Y-85607606I246306J1D01*
G01*
X121170394Y-85361291D02*
G75*
G03*
X121416685Y-85607606I246306J-9D01*
G01*
X119520394Y-85115000D02*
G75*
G02*
X119766100Y-85360714I6J-245700D01*
G01*
X130724103Y-84622418D02*
G75*
G02*
X130970382Y-84868709I-3J-246282D01*
G01*
X145670394Y-84869244D02*
G75*
G02*
X145916150Y-84623494I245706J44D01*
G01*
X120224680Y-85606428D02*
G75*
G03*
X120470428Y-85360714I20J245728D01*
G01*
X140770394Y-85361291D02*
G75*
G03*
X141016685Y-85607606I246306J-9D01*
G01*
X132824103Y-85607582D02*
G75*
G03*
X133070382Y-85361291I-3J246282D01*
G01*
X145424103Y-85607582D02*
G75*
G03*
X145670382Y-85361291I-3J246282D01*
G01*
X128870394Y-84868699D02*
G75*
G02*
X129116694Y-84622394I246306J-1D01*
G01*
X134470394Y-84868709D02*
G75*
G02*
X134716685Y-84622394I246306J9D01*
G01*
X131670394Y-84868709D02*
G75*
G02*
X131916685Y-84622394I246306J9D01*
G01*
X141470394Y-84868699D02*
G75*
G02*
X141716694Y-84622394I246306J-1D01*
G01*
X126770394Y-85361301D02*
G75*
G03*
X127016694Y-85607606I246306J1D01*
G01*
X126524103Y-84622418D02*
G75*
G02*
X126770382Y-84868709I-3J-246282D01*
G01*
X142170394Y-85361291D02*
G75*
G03*
X142416685Y-85607606I246306J-9D01*
G01*
X129324094Y-84622399D02*
G75*
G02*
X129570401Y-84868699I6J-246301D01*
G01*
X142624103Y-85607582D02*
G75*
G03*
X142870382Y-85361291I-3J246282D01*
G01*
X135624094Y-85607601D02*
G75*
G03*
X135870401Y-85361301I6J246301D01*
G01*
X132124103Y-84622418D02*
G75*
G02*
X132370382Y-84868709I-3J-246282D01*
G01*
X144970394Y-85361291D02*
G75*
G03*
X145216685Y-85607606I246306J-9D01*
G01*
X138670394Y-84868709D02*
G75*
G02*
X138916685Y-84622394I246306J9D01*
G01*
X125370394Y-85361291D02*
G75*
G03*
X125616685Y-85607606I246306J-9D01*
G01*
X134924103Y-84622418D02*
G75*
G02*
X135170382Y-84868709I-3J-246282D01*
G01*
X133524094Y-84622399D02*
G75*
G02*
X133770401Y-84868699I6J-246301D01*
G01*
X133070394Y-84868699D02*
G75*
G02*
X133316694Y-84622394I246306J-1D01*
G01*
X137970394Y-85361291D02*
G75*
G03*
X138216685Y-85607606I246306J-9D01*
G01*
X123270394Y-84868709D02*
G75*
G02*
X123516685Y-84622394I246306J9D01*
G01*
X128624103Y-85607582D02*
G75*
G03*
X128870382Y-85361291I-3J246282D01*
G01*
X138424103Y-85607582D02*
G75*
G03*
X138670382Y-85361291I-3J246282D01*
G01*
X146370394Y-84869244D02*
G75*
G03*
X146616150Y-85114906I245706J44D01*
G01*
X136324103Y-84622418D02*
G75*
G02*
X136570382Y-84868709I-3J-246282D01*
G01*
X130024103Y-85607582D02*
G75*
G03*
X130270382Y-85361291I-3J246282D01*
G01*
X121624103Y-85607582D02*
G75*
G03*
X121870382Y-85361291I-3J246282D01*
G01*
X130970394Y-85361301D02*
G75*
G03*
X131216694Y-85607606I246306J1D01*
G01*
X122324103Y-84622418D02*
G75*
G02*
X122570382Y-84868709I-3J-246282D01*
G01*
X120470394Y-84868709D02*
G75*
G02*
X120716685Y-84622394I246306J9D01*
G01*
X127470394Y-84868709D02*
G75*
G02*
X127716685Y-84622394I246306J9D01*
G01*
X127924103Y-84622418D02*
G75*
G02*
X128170382Y-84868709I-3J-246282D01*
G01*
X132370394Y-85361291D02*
G75*
G03*
X132616685Y-85607606I246306J-9D01*
G01*
X135870394Y-84868709D02*
G75*
G02*
X136116685Y-84622394I246306J9D01*
G01*
X144724103Y-84622418D02*
G75*
G02*
X144970382Y-84868709I-3J-246282D01*
G01*
X129570394Y-85361291D02*
G75*
G03*
X129816685Y-85607606I246306J-9D01*
G01*
X134224103Y-85607582D02*
G75*
G03*
X134470382Y-85361291I-3J246282D01*
G01*
X125124103Y-84622418D02*
G75*
G02*
X125370382Y-84868709I-3J-246282D01*
G01*
X140070394Y-84868709D02*
G75*
G02*
X140316685Y-84622394I246306J9D01*
G01*
X143324103Y-84622418D02*
G75*
G02*
X143570382Y-84868709I-3J-246282D01*
G01*
X142870394Y-84868709D02*
G75*
G02*
X143116685Y-84622394I246306J9D01*
G01*
X119766108Y-85360714D02*
G75*
G03*
X120011822Y-85606392I245692J14D01*
G01*
X128170394Y-85361291D02*
G75*
G03*
X128416685Y-85607606I246306J-9D01*
G01*
X131424094Y-85607601D02*
G75*
G03*
X131670401Y-85361301I6J246301D01*
G01*
X144270394Y-84868709D02*
G75*
G02*
X144516685Y-84622394I246306J9D01*
G01*
X126070394Y-84868709D02*
G75*
G02*
X126316685Y-84622394I246306J9D01*
G01*
X143570394Y-85361301D02*
G75*
G03*
X143816694Y-85607606I246306J1D01*
G01*
X125824103Y-85607582D02*
G75*
G03*
X126070382Y-85361291I-3J246282D01*
G01*
%TO.N,/SOM1/SE33*%
X162684272Y-86840000D02*
X162684272Y-86576402D01*
X161984272Y-86576392D02*
X161984272Y-86840000D01*
X145184272Y-86840000D02*
X145184272Y-87103608D01*
X141684272Y-87102591D02*
X141684272Y-86840000D01*
X154547880Y-86312784D02*
X154720664Y-86312784D01*
X166184272Y-86576402D02*
X166184272Y-86840000D01*
X164784272Y-86840000D02*
X164784272Y-87103608D01*
X150084272Y-86840000D02*
X150084272Y-86576392D01*
X152447880Y-87367216D02*
X152620664Y-87367216D01*
X146847880Y-87367216D02*
X147020664Y-87367216D01*
X168714272Y-86840000D02*
X170760000Y-86840000D01*
X164084272Y-87103608D02*
X164084272Y-86840000D01*
X157084272Y-86840000D02*
X157084272Y-86576392D01*
X160584272Y-86576392D02*
X160584272Y-86840000D01*
X143784272Y-86840000D02*
X143784272Y-87103608D01*
X155684272Y-87103608D02*
X155684272Y-86840000D01*
X151047880Y-87367216D02*
X151220664Y-87367216D01*
X163384272Y-86840000D02*
X163384272Y-87103608D01*
X167846863Y-87365182D02*
X168021681Y-87365182D01*
X143084272Y-86840000D02*
X143084272Y-86576392D01*
X157784272Y-86840000D02*
X157784272Y-87103608D01*
X146584272Y-86576392D02*
X146584272Y-86840000D01*
X148684272Y-86840000D02*
X148684272Y-86576392D01*
X159884272Y-87103608D02*
X159884272Y-86840000D01*
X161547880Y-86312784D02*
X161720664Y-86312784D01*
X143084272Y-87103608D02*
X143084272Y-86840000D01*
X163384272Y-86576402D02*
X163384272Y-86840000D01*
X164084272Y-86840000D02*
X164084272Y-86576402D01*
X148947880Y-86312784D02*
X149120664Y-86312784D01*
X161984272Y-86840000D02*
X161984272Y-87103608D01*
X146584272Y-86840000D02*
X146584272Y-87103608D01*
X150347880Y-86312784D02*
X150520664Y-86312784D01*
X151484272Y-86840000D02*
X151484272Y-86576392D01*
X147984272Y-86840000D02*
X147984272Y-87103608D01*
X147984272Y-86576392D02*
X147984272Y-86840000D01*
X167584272Y-86840000D02*
X167584272Y-87102591D01*
X164784272Y-86576402D02*
X164784272Y-86840000D01*
X151747880Y-86312784D02*
X151920664Y-86312784D01*
X165047880Y-87367216D02*
X165220664Y-87367216D01*
X158484272Y-87103608D02*
X158484272Y-86840000D01*
X161284272Y-87103608D02*
X161284272Y-86840000D01*
X154984272Y-86840000D02*
X154984272Y-87103608D01*
X144047880Y-87367216D02*
X144220664Y-87367216D01*
X156384272Y-86576392D02*
X156384272Y-86840000D01*
X150784272Y-86576392D02*
X150784272Y-86840000D01*
X142384272Y-86576392D02*
X142384272Y-86840000D01*
X143347880Y-86312784D02*
X143520664Y-86312784D01*
X160147880Y-86312784D02*
X160320664Y-86312784D01*
X145884272Y-87103608D02*
X145884272Y-86840000D01*
X159184272Y-86840000D02*
X159184272Y-87103608D01*
X159447880Y-87367216D02*
X159620664Y-87367216D01*
X156647880Y-87367216D02*
X156820664Y-87367216D01*
X159884272Y-86840000D02*
X159884272Y-86576392D01*
X166447869Y-87367195D02*
X166620675Y-87367195D01*
X170760000Y-86840000D02*
X171685000Y-86840000D01*
X152184272Y-86840000D02*
X152184272Y-87103608D01*
X162947869Y-86312805D02*
X163120675Y-86312805D01*
X147284272Y-86840000D02*
X147284272Y-86576392D01*
X141684272Y-86840000D02*
X141684272Y-86576392D01*
X166884272Y-86840000D02*
X166884272Y-86576392D01*
X162247880Y-87367216D02*
X162420664Y-87367216D01*
X147284272Y-87103608D02*
X147284272Y-86840000D01*
X149384272Y-86840000D02*
X149384272Y-87103608D01*
X152884272Y-87103608D02*
X152884272Y-86840000D01*
X171685000Y-86840000D02*
X180935000Y-96090000D01*
X154984272Y-86576392D02*
X154984272Y-86840000D01*
X150784272Y-86840000D02*
X150784272Y-87103608D01*
X158047880Y-87367216D02*
X158220664Y-87367216D01*
X144747880Y-86312784D02*
X144920664Y-86312784D01*
X118560000Y-86840000D02*
X140714272Y-86840000D01*
X150084272Y-87103608D02*
X150084272Y-86840000D01*
X143784272Y-86576392D02*
X143784272Y-86840000D01*
X153584272Y-86840000D02*
X153584272Y-87103608D01*
X109285000Y-96115000D02*
X118560000Y-86840000D01*
X148684272Y-87103608D02*
X148684272Y-86840000D01*
X160584272Y-86840000D02*
X160584272Y-87103608D01*
X155247880Y-87367216D02*
X155420664Y-87367216D01*
X148247880Y-87367216D02*
X148420664Y-87367216D01*
X142384272Y-86840000D02*
X142384272Y-87103608D01*
X144484272Y-87103608D02*
X144484272Y-86840000D01*
X158484272Y-86840000D02*
X158484272Y-86576392D01*
X149384272Y-86576392D02*
X149384272Y-86840000D01*
X153147880Y-86312784D02*
X153320664Y-86312784D01*
X166884272Y-87103598D02*
X166884272Y-86840000D01*
X149647880Y-87367216D02*
X149820664Y-87367216D01*
X153584272Y-86576392D02*
X153584272Y-86840000D01*
X147547880Y-86312784D02*
X147720664Y-86312784D01*
X141947880Y-86312784D02*
X142120664Y-86312784D01*
X151484272Y-87103608D02*
X151484272Y-86840000D01*
X154284272Y-86840000D02*
X154284272Y-86576392D01*
X152184272Y-86576392D02*
X152184272Y-86840000D01*
X142647880Y-87367216D02*
X142820664Y-87367216D01*
X154284272Y-87103608D02*
X154284272Y-86840000D01*
X167147880Y-86312784D02*
X167320664Y-86312784D01*
X145447880Y-87367216D02*
X145620664Y-87367216D01*
X152884272Y-86840000D02*
X152884272Y-86576392D01*
X167584272Y-86576392D02*
X167584272Y-86840000D01*
X157784272Y-86576392D02*
X157784272Y-86840000D01*
X155684272Y-86840000D02*
X155684272Y-86576392D01*
X146147880Y-86312784D02*
X146320664Y-86312784D01*
X158747880Y-86312784D02*
X158920664Y-86312784D01*
X141239454Y-87365182D02*
X141421681Y-87365182D01*
X145184272Y-86576392D02*
X145184272Y-86840000D01*
X166184272Y-86840000D02*
X166184272Y-87103598D01*
X164347869Y-86312805D02*
X164520675Y-86312805D01*
X165484272Y-87103608D02*
X165484272Y-86840000D01*
X160847880Y-87367216D02*
X161020664Y-87367216D01*
X155947880Y-86312784D02*
X156120664Y-86312784D01*
X153847880Y-87367216D02*
X154020664Y-87367216D01*
X156384272Y-86840000D02*
X156384272Y-87103608D01*
X165484272Y-86840000D02*
X165484272Y-86576402D01*
X157347880Y-86312784D02*
X157520664Y-86312784D01*
X144484272Y-86840000D02*
X144484272Y-86576392D01*
X168546863Y-86840000D02*
X168714272Y-86840000D01*
X163647880Y-87367216D02*
X163820664Y-87367216D01*
X157084272Y-87103608D02*
X157084272Y-86840000D01*
X159184272Y-86576392D02*
X159184272Y-86840000D01*
X161284272Y-86840000D02*
X161284272Y-86576392D01*
X165747869Y-86312805D02*
X165920675Y-86312805D01*
X162684272Y-87103608D02*
X162684272Y-86840000D01*
X145884272Y-86840000D02*
X145884272Y-86576392D01*
X166184272Y-87103598D02*
G75*
G03*
X166447869Y-87367228I263628J-2D01*
G01*
X147284272Y-86576392D02*
G75*
G02*
X147547880Y-86312772I263628J-8D01*
G01*
X162420664Y-87367216D02*
G75*
G03*
X162684316Y-87103608I36J263616D01*
G01*
X147020664Y-87367216D02*
G75*
G03*
X147284316Y-87103608I36J263616D01*
G01*
X157784272Y-87103608D02*
G75*
G03*
X158047880Y-87367228I263628J8D01*
G01*
X161984272Y-87103608D02*
G75*
G03*
X162247880Y-87367228I263628J8D01*
G01*
X156384272Y-87103608D02*
G75*
G03*
X156647880Y-87367228I263628J8D01*
G01*
X154284272Y-86576392D02*
G75*
G02*
X154547880Y-86312772I263628J-8D01*
G01*
X167320664Y-86312784D02*
G75*
G02*
X167584316Y-86576392I36J-263616D01*
G01*
X155420664Y-87367216D02*
G75*
G03*
X155684316Y-87103608I36J263616D01*
G01*
X154720664Y-86312784D02*
G75*
G02*
X154984316Y-86576392I36J-263616D01*
G01*
X151920664Y-86312784D02*
G75*
G02*
X152184316Y-86576392I36J-263616D01*
G01*
X158220664Y-87367216D02*
G75*
G03*
X158484316Y-87103608I36J263616D01*
G01*
X158484272Y-86576392D02*
G75*
G02*
X158747880Y-86312772I263628J-8D01*
G01*
X164084272Y-86576402D02*
G75*
G02*
X164347869Y-86312772I263628J2D01*
G01*
X156120664Y-86312784D02*
G75*
G02*
X156384316Y-86576392I36J-263616D01*
G01*
X145884272Y-86576392D02*
G75*
G02*
X146147880Y-86312772I263628J-8D01*
G01*
X141421681Y-87365182D02*
G75*
G03*
X141684282Y-87102591I19J262582D01*
G01*
X145620664Y-87367216D02*
G75*
G03*
X145884316Y-87103608I36J263616D01*
G01*
X143784272Y-87103608D02*
G75*
G03*
X144047880Y-87367228I263628J8D01*
G01*
X152184272Y-87103608D02*
G75*
G03*
X152447880Y-87367228I263628J8D01*
G01*
X160584272Y-87103608D02*
G75*
G03*
X160847880Y-87367228I263628J8D01*
G01*
X152884272Y-86576392D02*
G75*
G02*
X153147880Y-86312772I263628J-8D01*
G01*
X163820664Y-87367216D02*
G75*
G03*
X164084316Y-87103608I36J263616D01*
G01*
X143520664Y-86312784D02*
G75*
G02*
X143784316Y-86576392I36J-263616D01*
G01*
X150784272Y-87103608D02*
G75*
G03*
X151047880Y-87367228I263628J8D01*
G01*
X142384272Y-87103608D02*
G75*
G03*
X142647880Y-87367228I263628J8D01*
G01*
X164520675Y-86312805D02*
G75*
G02*
X164784295Y-86576402I25J-263595D01*
G01*
X152620664Y-87367216D02*
G75*
G03*
X152884316Y-87103608I36J263616D01*
G01*
X148420664Y-87367216D02*
G75*
G03*
X148684316Y-87103608I36J263616D01*
G01*
X141684272Y-86576392D02*
G75*
G02*
X141947880Y-86312772I263628J-8D01*
G01*
X147720664Y-86312784D02*
G75*
G02*
X147984316Y-86576392I36J-263616D01*
G01*
X146320664Y-86312784D02*
G75*
G02*
X146584316Y-86576392I36J-263616D01*
G01*
X159184272Y-87103608D02*
G75*
G03*
X159447880Y-87367228I263628J8D01*
G01*
X165220664Y-87367216D02*
G75*
G03*
X165484316Y-87103608I36J263616D01*
G01*
X150084272Y-86576392D02*
G75*
G02*
X150347880Y-86312772I263628J-8D01*
G01*
X146584272Y-87103608D02*
G75*
G03*
X146847880Y-87367228I263628J8D01*
G01*
X151220664Y-87367216D02*
G75*
G03*
X151484316Y-87103608I36J263616D01*
G01*
X142120664Y-86312784D02*
G75*
G02*
X142384316Y-86576392I36J-263616D01*
G01*
X140976863Y-87102591D02*
G75*
G03*
X141239454Y-87365237I262637J-9D01*
G01*
X153584272Y-87103608D02*
G75*
G03*
X153847880Y-87367228I263628J8D01*
G01*
X161020664Y-87367216D02*
G75*
G03*
X161284316Y-87103608I36J263616D01*
G01*
X168284272Y-87102591D02*
G75*
G02*
X168546863Y-86839972I262628J-9D01*
G01*
X163384272Y-87103608D02*
G75*
G03*
X163647880Y-87367228I263628J8D01*
G01*
X149120664Y-86312784D02*
G75*
G02*
X149384316Y-86576392I36J-263616D01*
G01*
X144920664Y-86312784D02*
G75*
G02*
X145184316Y-86576392I36J-263616D01*
G01*
X167584272Y-87102591D02*
G75*
G03*
X167846863Y-87365228I262628J-9D01*
G01*
X162684272Y-86576402D02*
G75*
G02*
X162947869Y-86312772I263628J2D01*
G01*
X168021681Y-87365182D02*
G75*
G03*
X168284282Y-87102591I19J262582D01*
G01*
X143084272Y-86576392D02*
G75*
G02*
X143347880Y-86312772I263628J-8D01*
G01*
X165484272Y-86576402D02*
G75*
G02*
X165747869Y-86312772I263628J2D01*
G01*
X144484272Y-86576392D02*
G75*
G02*
X144747880Y-86312772I263628J-8D01*
G01*
X161720664Y-86312784D02*
G75*
G02*
X161984316Y-86576392I36J-263616D01*
G01*
X160320664Y-86312784D02*
G75*
G02*
X160584316Y-86576392I36J-263616D01*
G01*
X157520664Y-86312784D02*
G75*
G02*
X157784316Y-86576392I36J-263616D01*
G01*
X145184272Y-87103608D02*
G75*
G03*
X145447880Y-87367228I263628J8D01*
G01*
X144220664Y-87367216D02*
G75*
G03*
X144484316Y-87103608I36J263616D01*
G01*
X149820664Y-87367216D02*
G75*
G03*
X150084316Y-87103608I36J263616D01*
G01*
X163120675Y-86312805D02*
G75*
G02*
X163384295Y-86576402I25J-263595D01*
G01*
X156820664Y-87367216D02*
G75*
G03*
X157084316Y-87103608I36J263616D01*
G01*
X161284272Y-86576392D02*
G75*
G02*
X161547880Y-86312772I263628J-8D01*
G01*
X149384272Y-87103608D02*
G75*
G03*
X149647880Y-87367228I263628J8D01*
G01*
X155684272Y-86576392D02*
G75*
G02*
X155947880Y-86312772I263628J-8D01*
G01*
X150520664Y-86312784D02*
G75*
G02*
X150784316Y-86576392I36J-263616D01*
G01*
X166620675Y-87367195D02*
G75*
G03*
X166884295Y-87103598I25J263595D01*
G01*
X164784272Y-87103608D02*
G75*
G03*
X165047880Y-87367228I263628J8D01*
G01*
X157084272Y-86576392D02*
G75*
G02*
X157347880Y-86312772I263628J-8D01*
G01*
X140714272Y-86840000D02*
G75*
G02*
X140976900Y-87102591I28J-262600D01*
G01*
X159620664Y-87367216D02*
G75*
G03*
X159884316Y-87103608I36J263616D01*
G01*
X165920675Y-86312805D02*
G75*
G02*
X166184295Y-86576402I25J-263595D01*
G01*
X147984272Y-87103608D02*
G75*
G03*
X148247880Y-87367228I263628J8D01*
G01*
X166884272Y-86576392D02*
G75*
G02*
X167147880Y-86312772I263628J-8D01*
G01*
X159884272Y-86576392D02*
G75*
G02*
X160147880Y-86312772I263628J-8D01*
G01*
X151484272Y-86576392D02*
G75*
G02*
X151747880Y-86312772I263628J-8D01*
G01*
X142820664Y-87367216D02*
G75*
G03*
X143084316Y-87103608I36J263616D01*
G01*
X154020664Y-87367216D02*
G75*
G03*
X154284316Y-87103608I36J263616D01*
G01*
X158920664Y-86312784D02*
G75*
G02*
X159184316Y-86576392I36J-263616D01*
G01*
X153320664Y-86312784D02*
G75*
G02*
X153584316Y-86576392I36J-263616D01*
G01*
X148684272Y-86576392D02*
G75*
G02*
X148947880Y-86312772I263628J-8D01*
G01*
X154984272Y-87103608D02*
G75*
G03*
X155247880Y-87367228I263628J8D01*
G01*
%TO.N,/SOM1/SE15*%
X95785000Y-96115000D02*
X119485000Y-72415000D01*
X121734547Y-72659603D02*
X121734547Y-72415000D01*
X124075120Y-72415000D02*
X124264547Y-72415000D01*
X124264547Y-72415000D02*
X130521574Y-72415000D01*
X120545649Y-71933898D02*
X120793996Y-71933898D01*
X122679149Y-72904205D02*
X122889945Y-72904205D01*
X121279149Y-72904205D02*
X121489945Y-72904205D01*
X121979151Y-71925791D02*
X122189943Y-71925791D01*
X121734547Y-72415000D02*
X121734547Y-72170395D01*
X121034547Y-72415000D02*
X121034547Y-72659603D01*
X122434547Y-72415000D02*
X122434547Y-72659603D01*
X123134547Y-72415000D02*
X123134547Y-72174427D01*
X122434547Y-72170395D02*
X122434547Y-72415000D01*
X123134547Y-72659603D02*
X123134547Y-72415000D01*
X119485000Y-72415000D02*
X120064547Y-72415000D01*
X121034547Y-72174449D02*
X121034547Y-72415000D01*
X170760000Y-72415000D02*
X194435000Y-96090000D01*
X130521574Y-72415000D02*
X170760000Y-72415000D01*
X123375120Y-71933854D02*
X123593974Y-71933854D01*
X122189943Y-71925791D02*
G75*
G02*
X122434509Y-72170395I-43J-244609D01*
G01*
X121034547Y-72659603D02*
G75*
G03*
X121279149Y-72904153I244553J3D01*
G01*
X123134547Y-72174427D02*
G75*
G02*
X123375120Y-71933847I240553J27D01*
G01*
X120305098Y-72174449D02*
G75*
G02*
X120545649Y-71933898I240502J49D01*
G01*
X120793996Y-71933898D02*
G75*
G02*
X121034502Y-72174449I4J-240502D01*
G01*
X123834547Y-72174427D02*
G75*
G03*
X124075120Y-72414953I240553J27D01*
G01*
X122434547Y-72659603D02*
G75*
G03*
X122679149Y-72904153I244553J3D01*
G01*
X121734547Y-72170395D02*
G75*
G02*
X121979151Y-71925747I244653J-5D01*
G01*
X122889945Y-72904205D02*
G75*
G03*
X123134505Y-72659603I-45J244605D01*
G01*
X121489945Y-72904205D02*
G75*
G03*
X121734505Y-72659603I-45J244605D01*
G01*
X120064547Y-72415000D02*
G75*
G03*
X120305100Y-72174449I-47J240600D01*
G01*
X123593974Y-71933854D02*
G75*
G02*
X123834546Y-72174427I26J-240546D01*
G01*
%TO.N,/SOM1/SE35*%
X119610796Y-87847582D02*
X119750796Y-87847582D01*
X145510796Y-89132404D02*
X145650796Y-89132404D01*
X129130796Y-88490000D02*
X129130796Y-88127582D01*
X125910796Y-89132418D02*
X126050796Y-89132418D01*
X130810796Y-87847596D02*
X130950796Y-87847596D01*
X123110796Y-89132418D02*
X123250796Y-89132418D01*
X137110796Y-89132404D02*
X137250796Y-89132404D01*
X129830796Y-88127582D02*
X129830796Y-88490000D01*
X144530796Y-88490000D02*
X144530796Y-88177594D01*
X131230796Y-88127596D02*
X131230796Y-88490000D01*
X128430796Y-88490000D02*
X128430796Y-88852418D01*
X152265898Y-88490000D02*
X171835000Y-88490000D01*
X127030796Y-88490000D02*
X127030796Y-88852418D01*
X141730796Y-88852404D02*
X141730796Y-88490000D01*
X142430796Y-88177594D02*
X142430796Y-88490000D01*
X138230796Y-88127596D02*
X138230796Y-88490000D01*
X132630796Y-88490000D02*
X132630796Y-88852404D01*
X124510796Y-89132418D02*
X124650796Y-89132418D01*
X137530796Y-88490000D02*
X137530796Y-88127596D01*
X121010796Y-87847582D02*
X121150796Y-87847582D01*
X127310796Y-89132418D02*
X127450796Y-89132418D01*
X120730796Y-88490000D02*
X120730796Y-88127582D01*
X133610796Y-87847596D02*
X133750796Y-87847596D01*
X133330796Y-88490000D02*
X133330796Y-88127596D01*
X141730796Y-88490000D02*
X141730796Y-88177594D01*
X138230796Y-88490000D02*
X138230796Y-88852404D01*
X137810796Y-87847596D02*
X137950796Y-87847596D01*
X139630796Y-88490000D02*
X139630796Y-88852404D01*
X146910796Y-89132404D02*
X147050796Y-89132404D01*
X132910796Y-89132404D02*
X133050796Y-89132404D01*
X126330796Y-88852418D02*
X126330796Y-88490000D01*
X122130796Y-88490000D02*
X122130796Y-88127582D01*
X136830796Y-88490000D02*
X136830796Y-88852404D01*
X128430796Y-88127582D02*
X128430796Y-88490000D01*
X124230796Y-88490000D02*
X124230796Y-88852418D01*
X136830796Y-88127596D02*
X136830796Y-88490000D01*
X138930796Y-88852404D02*
X138930796Y-88490000D01*
X138510796Y-89132404D02*
X138650796Y-89132404D01*
X147610796Y-87897594D02*
X147750796Y-87897594D01*
X143130796Y-88490000D02*
X143130796Y-88177594D01*
X121710796Y-89132418D02*
X121850796Y-89132418D01*
X142710796Y-89132404D02*
X142850796Y-89132404D01*
X143830796Y-88177594D02*
X143830796Y-88490000D01*
X171835000Y-88490000D02*
X179435000Y-96090000D01*
X145930796Y-88852404D02*
X145930796Y-88490000D01*
X148310796Y-88490000D02*
X148450796Y-88490000D01*
X141030796Y-88177594D02*
X141030796Y-88490000D01*
X143130796Y-88852404D02*
X143130796Y-88490000D01*
X148450796Y-88490000D02*
X152265898Y-88490000D01*
X148030796Y-88177594D02*
X148030796Y-88210000D01*
X128010796Y-87847582D02*
X128150796Y-87847582D01*
X147330796Y-88490000D02*
X147330796Y-88210000D01*
X140330796Y-88852404D02*
X140330796Y-88490000D01*
X130530796Y-88490000D02*
X130530796Y-88127596D01*
X142010796Y-87897594D02*
X142150796Y-87897594D01*
X141310796Y-89132404D02*
X141450796Y-89132404D01*
X137530796Y-88852404D02*
X137530796Y-88490000D01*
X134310796Y-89132404D02*
X134450796Y-89132404D01*
X131230796Y-88490000D02*
X131230796Y-88852404D01*
X147330796Y-88852404D02*
X147330796Y-88490000D01*
X146630796Y-88490000D02*
X146630796Y-88852404D01*
X135430796Y-88490000D02*
X135430796Y-88852418D01*
X139210796Y-87847596D02*
X139350796Y-87847596D01*
X142430796Y-88490000D02*
X142430796Y-88852404D01*
X129410796Y-87847582D02*
X129550796Y-87847582D01*
X120730796Y-88852418D02*
X120730796Y-88490000D01*
X141030796Y-88490000D02*
X141030796Y-88852404D01*
X126330796Y-88490000D02*
X126330796Y-88127582D01*
X129830796Y-88490000D02*
X129830796Y-88852404D01*
X136130796Y-88490000D02*
X136130796Y-88127596D01*
X147330796Y-88210000D02*
X147330796Y-88177594D01*
X136130796Y-88852418D02*
X136130796Y-88490000D01*
X125630796Y-88127582D02*
X125630796Y-88490000D01*
X125630796Y-88490000D02*
X125630796Y-88852418D01*
X119330796Y-88210000D02*
X119330796Y-88127582D01*
X145230796Y-88177594D02*
X145230796Y-88490000D01*
X132630796Y-88127596D02*
X132630796Y-88490000D01*
X126610796Y-87847582D02*
X126750796Y-87847582D01*
X134730796Y-88490000D02*
X134730796Y-88127596D01*
X122130796Y-88852418D02*
X122130796Y-88490000D01*
X123810796Y-87847582D02*
X123950796Y-87847582D01*
X118410000Y-88490000D02*
X119050796Y-88490000D01*
X132210796Y-87847596D02*
X132350796Y-87847596D01*
X138930796Y-88490000D02*
X138930796Y-88127596D01*
X120030796Y-88490000D02*
X120030796Y-88852418D01*
X124930796Y-88852418D02*
X124930796Y-88490000D01*
X145930796Y-88490000D02*
X145930796Y-88177594D01*
X120310796Y-89132418D02*
X120450796Y-89132418D01*
X139630796Y-88127596D02*
X139630796Y-88490000D01*
X130530796Y-88852404D02*
X130530796Y-88490000D01*
X125210796Y-87847582D02*
X125350796Y-87847582D01*
X127030796Y-88127582D02*
X127030796Y-88490000D01*
X134030796Y-88127596D02*
X134030796Y-88490000D01*
X136410796Y-87847596D02*
X136550796Y-87847596D01*
X122410796Y-87847582D02*
X122550796Y-87847582D01*
X145230796Y-88490000D02*
X145230796Y-88852404D01*
X144530796Y-88852404D02*
X144530796Y-88490000D01*
X144810796Y-87897594D02*
X144950796Y-87897594D01*
X131930796Y-88852404D02*
X131930796Y-88490000D01*
X134030796Y-88490000D02*
X134030796Y-88852404D01*
X123530796Y-88852418D02*
X123530796Y-88490000D01*
X120030796Y-88127582D02*
X120030796Y-88210000D01*
X130110796Y-89132404D02*
X130250796Y-89132404D01*
X120030796Y-88210000D02*
X120030796Y-88490000D01*
X144110796Y-89132404D02*
X144250796Y-89132404D01*
X143410796Y-87897594D02*
X143550796Y-87897594D01*
X124230796Y-88127582D02*
X124230796Y-88490000D01*
X135430796Y-88127596D02*
X135430796Y-88490000D01*
X122830796Y-88127582D02*
X122830796Y-88490000D01*
X123530796Y-88490000D02*
X123530796Y-88127582D01*
X146210796Y-87897594D02*
X146350796Y-87897594D01*
X110785000Y-96115000D02*
X118410000Y-88490000D01*
X135710796Y-89132418D02*
X135850796Y-89132418D01*
X140610796Y-87897594D02*
X140750796Y-87897594D01*
X122830796Y-88490000D02*
X122830796Y-88852418D01*
X127730796Y-88852418D02*
X127730796Y-88490000D01*
X143830796Y-88490000D02*
X143830796Y-88852404D01*
X131930796Y-88490000D02*
X131930796Y-88127596D01*
X134730796Y-88852404D02*
X134730796Y-88490000D01*
X139910796Y-89132404D02*
X140050796Y-89132404D01*
X146630796Y-88177594D02*
X146630796Y-88490000D01*
X129130796Y-88852418D02*
X129130796Y-88490000D01*
X131510796Y-89132404D02*
X131650796Y-89132404D01*
X127730796Y-88490000D02*
X127730796Y-88127582D01*
X140330796Y-88490000D02*
X140330796Y-88177594D01*
X128710796Y-89132418D02*
X128850796Y-89132418D01*
X124930796Y-88490000D02*
X124930796Y-88127582D01*
X121430796Y-88490000D02*
X121430796Y-88852418D01*
X121430796Y-88127582D02*
X121430796Y-88490000D01*
X133330796Y-88852404D02*
X133330796Y-88490000D01*
X135010796Y-87847596D02*
X135150796Y-87847596D01*
X146350796Y-87897594D02*
G75*
G02*
X146630806Y-88177594I4J-280006D01*
G01*
X141730796Y-88177594D02*
G75*
G02*
X142010796Y-87897596I280004J-6D01*
G01*
X134730796Y-88127596D02*
G75*
G02*
X135010796Y-87847596I280004J-4D01*
G01*
X144250796Y-89132404D02*
G75*
G03*
X144530804Y-88852404I4J280004D01*
G01*
X124650796Y-89132418D02*
G75*
G03*
X124930818Y-88852418I4J280018D01*
G01*
X134030796Y-88852404D02*
G75*
G03*
X134310796Y-89132404I280004J4D01*
G01*
X128430796Y-88852418D02*
G75*
G03*
X128710796Y-89132404I280004J18D01*
G01*
X145650796Y-89132404D02*
G75*
G03*
X145930804Y-88852404I4J280004D01*
G01*
X125630796Y-88852418D02*
G75*
G03*
X125910796Y-89132404I280004J18D01*
G01*
X121430796Y-88852418D02*
G75*
G03*
X121710796Y-89132404I280004J18D01*
G01*
X138650796Y-89132404D02*
G75*
G03*
X138930804Y-88852404I4J280004D01*
G01*
X131650796Y-89132404D02*
G75*
G03*
X131930804Y-88852404I4J280004D01*
G01*
X126330796Y-88127582D02*
G75*
G02*
X126610796Y-87847596I280004J-18D01*
G01*
X120450796Y-89132418D02*
G75*
G03*
X120730818Y-88852418I4J280018D01*
G01*
X140330796Y-88177594D02*
G75*
G02*
X140610796Y-87897596I280004J-6D01*
G01*
X126750796Y-87847582D02*
G75*
G02*
X127030818Y-88127582I4J-280018D01*
G01*
X136130796Y-88127596D02*
G75*
G02*
X136410796Y-87847596I280004J-4D01*
G01*
X147050796Y-89132404D02*
G75*
G03*
X147330804Y-88852404I4J280004D01*
G01*
X142150796Y-87897594D02*
G75*
G02*
X142430806Y-88177594I4J-280006D01*
G01*
X123950796Y-87847582D02*
G75*
G02*
X124230818Y-88127582I4J-280018D01*
G01*
X141450796Y-89132404D02*
G75*
G03*
X141730804Y-88852404I4J280004D01*
G01*
X142850796Y-89132404D02*
G75*
G03*
X143130804Y-88852404I4J280004D01*
G01*
X121850796Y-89132418D02*
G75*
G03*
X122130818Y-88852418I4J280018D01*
G01*
X138930796Y-88127596D02*
G75*
G02*
X139210796Y-87847596I280004J-4D01*
G01*
X125350796Y-87847582D02*
G75*
G02*
X125630818Y-88127582I4J-280018D01*
G01*
X147330796Y-88177594D02*
G75*
G02*
X147610796Y-87897596I280004J-6D01*
G01*
X124930796Y-88127582D02*
G75*
G02*
X125210796Y-87847596I280004J-18D01*
G01*
X120730796Y-88127582D02*
G75*
G02*
X121010796Y-87847596I280004J-18D01*
G01*
X123530796Y-88127582D02*
G75*
G02*
X123810796Y-87847596I280004J-18D01*
G01*
X136550796Y-87847596D02*
G75*
G02*
X136830804Y-88127596I4J-280004D01*
G01*
X145230796Y-88852404D02*
G75*
G03*
X145510796Y-89132404I280004J4D01*
G01*
X119050796Y-88490000D02*
G75*
G03*
X119330800Y-88210000I4J280000D01*
G01*
X139350796Y-87847596D02*
G75*
G02*
X139630804Y-88127596I4J-280004D01*
G01*
X119330796Y-88127582D02*
G75*
G02*
X119610796Y-87847596I280004J-18D01*
G01*
X139630796Y-88852404D02*
G75*
G03*
X139910796Y-89132404I280004J4D01*
G01*
X145930796Y-88177594D02*
G75*
G02*
X146210796Y-87897596I280004J-6D01*
G01*
X122550796Y-87847582D02*
G75*
G02*
X122830818Y-88127582I4J-280018D01*
G01*
X137250796Y-89132404D02*
G75*
G03*
X137530804Y-88852404I4J280004D01*
G01*
X133330796Y-88127596D02*
G75*
G02*
X133610796Y-87847596I280004J-4D01*
G01*
X130250796Y-89132404D02*
G75*
G03*
X130530804Y-88852404I4J280004D01*
G01*
X148030796Y-88210000D02*
G75*
G03*
X148310796Y-88490004I280004J0D01*
G01*
X135430796Y-88852418D02*
G75*
G03*
X135710796Y-89132404I280004J18D01*
G01*
X124230796Y-88852418D02*
G75*
G03*
X124510796Y-89132404I280004J18D01*
G01*
X134450796Y-89132404D02*
G75*
G03*
X134730804Y-88852404I4J280004D01*
G01*
X131230796Y-88852404D02*
G75*
G03*
X131510796Y-89132404I280004J4D01*
G01*
X141030796Y-88852404D02*
G75*
G03*
X141310796Y-89132404I280004J4D01*
G01*
X133050796Y-89132404D02*
G75*
G03*
X133330804Y-88852404I4J280004D01*
G01*
X135850796Y-89132418D02*
G75*
G03*
X136130818Y-88852418I4J280018D01*
G01*
X130530796Y-88127596D02*
G75*
G02*
X130810796Y-87847596I280004J-4D01*
G01*
X129130796Y-88127582D02*
G75*
G02*
X129410796Y-87847596I280004J-18D01*
G01*
X132630796Y-88852404D02*
G75*
G03*
X132910796Y-89132404I280004J4D01*
G01*
X138230796Y-88852404D02*
G75*
G03*
X138510796Y-89132404I280004J4D01*
G01*
X144530796Y-88177594D02*
G75*
G02*
X144810796Y-87897596I280004J-6D01*
G01*
X132350796Y-87847596D02*
G75*
G02*
X132630804Y-88127596I4J-280004D01*
G01*
X127030796Y-88852418D02*
G75*
G03*
X127310796Y-89132404I280004J18D01*
G01*
X129550796Y-87847582D02*
G75*
G02*
X129830818Y-88127582I4J-280018D01*
G01*
X137950796Y-87847596D02*
G75*
G02*
X138230804Y-88127596I4J-280004D01*
G01*
X129830796Y-88852404D02*
G75*
G03*
X130110796Y-89132404I280004J4D01*
G01*
X133750796Y-87847596D02*
G75*
G02*
X134030804Y-88127596I4J-280004D01*
G01*
X121150796Y-87847582D02*
G75*
G02*
X121430818Y-88127582I4J-280018D01*
G01*
X131930796Y-88127596D02*
G75*
G02*
X132210796Y-87847596I280004J-4D01*
G01*
X142430796Y-88852404D02*
G75*
G03*
X142710796Y-89132404I280004J4D01*
G01*
X123250796Y-89132418D02*
G75*
G03*
X123530818Y-88852418I4J280018D01*
G01*
X140050796Y-89132404D02*
G75*
G03*
X140330804Y-88852404I4J280004D01*
G01*
X143830796Y-88852404D02*
G75*
G03*
X144110796Y-89132404I280004J4D01*
G01*
X128150796Y-87847582D02*
G75*
G02*
X128430818Y-88127582I4J-280018D01*
G01*
X122830796Y-88852418D02*
G75*
G03*
X123110796Y-89132404I280004J18D01*
G01*
X127730796Y-88127582D02*
G75*
G02*
X128010796Y-87847596I280004J-18D01*
G01*
X143130796Y-88177594D02*
G75*
G02*
X143410796Y-87897596I280004J-6D01*
G01*
X127450796Y-89132418D02*
G75*
G03*
X127730818Y-88852418I4J280018D01*
G01*
X122130796Y-88127582D02*
G75*
G02*
X122410796Y-87847596I280004J-18D01*
G01*
X119750796Y-87847582D02*
G75*
G02*
X120030818Y-88127582I4J-280018D01*
G01*
X144950796Y-87897594D02*
G75*
G02*
X145230806Y-88177594I4J-280006D01*
G01*
X136830796Y-88852404D02*
G75*
G03*
X137110796Y-89132404I280004J4D01*
G01*
X140750796Y-87897594D02*
G75*
G02*
X141030806Y-88177594I4J-280006D01*
G01*
X120030796Y-88852418D02*
G75*
G03*
X120310796Y-89132404I280004J18D01*
G01*
X130950796Y-87847596D02*
G75*
G02*
X131230804Y-88127596I4J-280004D01*
G01*
X146630796Y-88852404D02*
G75*
G03*
X146910796Y-89132404I280004J4D01*
G01*
X128850796Y-89132418D02*
G75*
G03*
X129130818Y-88852418I4J280018D01*
G01*
X147750796Y-87897594D02*
G75*
G02*
X148030806Y-88177594I4J-280006D01*
G01*
X143550796Y-87897594D02*
G75*
G02*
X143830806Y-88177594I4J-280006D01*
G01*
X126050796Y-89132418D02*
G75*
G03*
X126330818Y-88852418I4J280018D01*
G01*
X137530796Y-88127596D02*
G75*
G02*
X137810796Y-87847596I280004J-4D01*
G01*
X135150796Y-87847596D02*
G75*
G02*
X135430804Y-88127596I4J-280004D01*
G01*
%TO.N,/SOM1/SE23*%
X127929750Y-77437521D02*
X128102272Y-77437521D01*
X125566011Y-77701259D02*
X125566011Y-77965000D01*
X127666011Y-78228741D02*
X127666011Y-77965000D01*
X125129751Y-77437519D02*
X125302271Y-77437519D01*
X120928109Y-77437902D02*
X121102462Y-77437902D01*
X128629549Y-78492076D02*
X128802473Y-78492076D01*
X126529751Y-77437519D02*
X126702271Y-77437519D01*
X126966011Y-77965000D02*
X126966011Y-78228741D01*
X129501011Y-77965000D02*
X130858039Y-77965000D01*
X126966011Y-77701259D02*
X126966011Y-77965000D01*
X122329750Y-77437521D02*
X122502272Y-77437521D01*
X122766011Y-77965000D02*
X122766011Y-78228740D01*
X170310000Y-77965000D02*
X188435000Y-96090000D01*
X125566011Y-77965000D02*
X125566011Y-78228740D01*
X123029750Y-78492479D02*
X123202272Y-78492479D01*
X123729750Y-77437521D02*
X123902272Y-77437521D01*
X119935000Y-77965000D02*
X120401011Y-77965000D01*
X101785000Y-96115000D02*
X119935000Y-77965000D01*
X121366011Y-77965000D02*
X121366011Y-78228740D01*
X128366011Y-77701260D02*
X128366011Y-77965000D01*
X122066011Y-77965000D02*
X122066011Y-77701260D01*
X124166011Y-77965000D02*
X124166011Y-78228740D01*
X127666011Y-77965000D02*
X127666011Y-77701260D01*
X124429750Y-78492479D02*
X124602272Y-78492479D01*
X130858039Y-77965000D02*
X170310000Y-77965000D01*
X122766011Y-77701260D02*
X122766011Y-77965000D01*
X121366011Y-77701451D02*
X121366011Y-77965000D01*
X124866011Y-78228740D02*
X124866011Y-77965000D01*
X127229751Y-78492481D02*
X127402271Y-78492481D01*
X126266011Y-78228740D02*
X126266011Y-77965000D01*
X128366011Y-77965000D02*
X128366011Y-78228538D01*
X123466011Y-77965000D02*
X123466011Y-77701260D01*
X124866011Y-77965000D02*
X124866011Y-77701259D01*
X123466011Y-78228740D02*
X123466011Y-77965000D01*
X125829750Y-78492479D02*
X126002272Y-78492479D01*
X122066011Y-78228740D02*
X122066011Y-77965000D01*
X129329549Y-77965000D02*
X129501011Y-77965000D01*
X121629750Y-78492479D02*
X121802272Y-78492479D01*
X126266011Y-77965000D02*
X126266011Y-77701259D01*
X124166011Y-77701260D02*
X124166011Y-77965000D01*
X123202272Y-78492479D02*
G75*
G03*
X123466079Y-78228740I28J263779D01*
G01*
X120401011Y-77965000D02*
G75*
G03*
X120664500Y-77701451I-11J263500D01*
G01*
X126266011Y-77701259D02*
G75*
G02*
X126529751Y-77437511I263789J-41D01*
G01*
X126702271Y-77437519D02*
G75*
G02*
X126966081Y-77701259I29J-263781D01*
G01*
X122766011Y-78228740D02*
G75*
G03*
X123029750Y-78492389I263689J40D01*
G01*
X128802473Y-78492076D02*
G75*
G03*
X129066076Y-78228538I27J263576D01*
G01*
X126002272Y-78492479D02*
G75*
G03*
X126266079Y-78228740I28J263779D01*
G01*
X121366011Y-78228740D02*
G75*
G03*
X121629750Y-78492389I263689J40D01*
G01*
X120664560Y-77701451D02*
G75*
G02*
X120928109Y-77437960I263540J-49D01*
G01*
X124866011Y-77701259D02*
G75*
G02*
X125129751Y-77437511I263789J-41D01*
G01*
X128102272Y-77437521D02*
G75*
G02*
X128366079Y-77701260I28J-263779D01*
G01*
X123466011Y-77701260D02*
G75*
G02*
X123729750Y-77437611I263689J-40D01*
G01*
X123902272Y-77437521D02*
G75*
G02*
X124166079Y-77701260I28J-263779D01*
G01*
X127666011Y-77701260D02*
G75*
G02*
X127929750Y-77437611I263689J-40D01*
G01*
X124166011Y-78228740D02*
G75*
G03*
X124429750Y-78492389I263689J40D01*
G01*
X126966011Y-78228741D02*
G75*
G03*
X127229751Y-78492489I263789J41D01*
G01*
X124602272Y-78492479D02*
G75*
G03*
X124866079Y-78228740I28J263779D01*
G01*
X121802272Y-78492479D02*
G75*
G03*
X122066079Y-78228740I28J263779D01*
G01*
X121102462Y-77437902D02*
G75*
G02*
X121366098Y-77701451I38J-263598D01*
G01*
X122502272Y-77437521D02*
G75*
G02*
X122766079Y-77701260I28J-263779D01*
G01*
X127402271Y-78492481D02*
G75*
G03*
X127666081Y-78228741I29J263781D01*
G01*
X125302271Y-77437519D02*
G75*
G02*
X125566081Y-77701259I29J-263781D01*
G01*
X128366011Y-78228538D02*
G75*
G03*
X128629549Y-78491989I263489J38D01*
G01*
X122066011Y-77701260D02*
G75*
G02*
X122329750Y-77437611I263689J-40D01*
G01*
X129066011Y-78228538D02*
G75*
G02*
X129329549Y-77965011I263489J38D01*
G01*
X125566011Y-78228740D02*
G75*
G03*
X125829750Y-78492389I263689J40D01*
G01*
%TO.N,/SOM1/SE41*%
X151617844Y-94020000D02*
X151617844Y-94210583D01*
X144617844Y-93740000D02*
X144617844Y-94210583D01*
X118717844Y-93460000D02*
X118717844Y-93269400D01*
X120117844Y-94210600D02*
X120117844Y-93740000D01*
X146297844Y-94490600D02*
X146437844Y-94490600D01*
X131317844Y-94210600D02*
X131317844Y-93740000D01*
X127817844Y-93740000D02*
X127817844Y-94210600D01*
X136217844Y-93269400D02*
X136217844Y-93740000D01*
X149517844Y-93740000D02*
X149517844Y-93269417D01*
X146717844Y-94210600D02*
X146717844Y-93740000D01*
X139717844Y-94210583D02*
X139717844Y-93740000D01*
X115285000Y-96115000D02*
X117660000Y-93740000D01*
X146017844Y-93740000D02*
X146017844Y-94210600D01*
X122917844Y-93740000D02*
X122917844Y-93269400D01*
X148817844Y-93740000D02*
X148817844Y-94210600D01*
X143917844Y-94210600D02*
X143917844Y-93740000D01*
X153310000Y-93740000D02*
X153710000Y-94140000D01*
X145597844Y-92989417D02*
X145737844Y-92989417D01*
X121517844Y-94210600D02*
X121517844Y-93740000D01*
X134117844Y-94210600D02*
X134117844Y-93740000D01*
X120817844Y-93740000D02*
X120817844Y-94210600D01*
X141117844Y-93740000D02*
X141117844Y-93269417D01*
X136917844Y-93740000D02*
X136917844Y-93269400D01*
X140417844Y-93740000D02*
X140417844Y-94210583D01*
X128517844Y-94210600D02*
X128517844Y-93740000D01*
X129217844Y-93269400D02*
X129217844Y-93740000D01*
X127397844Y-92989400D02*
X127537844Y-92989400D01*
X139997844Y-92989400D02*
X140137844Y-92989400D01*
X129217844Y-93740000D02*
X129217844Y-94210600D01*
X123617844Y-93269400D02*
X123617844Y-93740000D01*
X139297844Y-94490583D02*
X139437844Y-94490583D01*
X145317844Y-94210583D02*
X145317844Y-93740000D01*
X152597844Y-93740000D02*
X152737844Y-93740000D01*
X141397844Y-92989417D02*
X141537844Y-92989417D01*
X132297844Y-94490600D02*
X132437844Y-94490600D01*
X150917844Y-94210583D02*
X150917844Y-93740000D01*
X134817844Y-93269400D02*
X134817844Y-93740000D01*
X137897844Y-94490583D02*
X138037844Y-94490583D01*
X127117844Y-94210600D02*
X127117844Y-93740000D01*
X123897844Y-94490600D02*
X124037844Y-94490600D01*
X137617844Y-93740000D02*
X137617844Y-94210583D01*
X136917844Y-94210600D02*
X136917844Y-93740000D01*
X119697844Y-94490600D02*
X119837844Y-94490600D01*
X140417844Y-93269400D02*
X140417844Y-93740000D01*
X129497844Y-94490600D02*
X129637844Y-94490600D01*
X152317844Y-94210583D02*
X152317844Y-94020000D01*
X128797844Y-92989400D02*
X128937844Y-92989400D01*
X132017844Y-93269400D02*
X132017844Y-93740000D01*
X143217844Y-93269417D02*
X143217844Y-93740000D01*
X142517844Y-93740000D02*
X142517844Y-93269417D01*
X122217844Y-93269400D02*
X122217844Y-93740000D01*
X138317844Y-94210583D02*
X138317844Y-93740000D01*
X148117844Y-94210583D02*
X148117844Y-93740000D01*
X131317844Y-93740000D02*
X131317844Y-93269400D01*
X127117844Y-93740000D02*
X127117844Y-93269400D01*
X134397844Y-92989400D02*
X134537844Y-92989400D01*
X122917844Y-94210600D02*
X122917844Y-93740000D01*
X133697844Y-94490600D02*
X133837844Y-94490600D01*
X142097844Y-94490583D02*
X142237844Y-94490583D01*
X140697844Y-94490583D02*
X140837844Y-94490583D01*
X120397844Y-92989400D02*
X120537844Y-92989400D01*
X149517844Y-94210600D02*
X149517844Y-93740000D01*
X121517844Y-93740000D02*
X121517844Y-93269400D01*
X126417844Y-93740000D02*
X126417844Y-94210600D01*
X122217844Y-93740000D02*
X122217844Y-94210600D01*
X120117844Y-93740000D02*
X120117844Y-93269400D01*
X141117844Y-94210583D02*
X141117844Y-93740000D01*
X143497844Y-94490600D02*
X143637844Y-94490600D01*
X134117844Y-93740000D02*
X134117844Y-93269400D01*
X141817844Y-93740000D02*
X141817844Y-94210583D01*
X128097844Y-94490600D02*
X128237844Y-94490600D01*
X136217844Y-93740000D02*
X136217844Y-94210600D01*
X152737844Y-93740000D02*
X153310000Y-93740000D01*
X136497844Y-94490600D02*
X136637844Y-94490600D01*
X130897844Y-94490600D02*
X131037844Y-94490600D01*
X145317844Y-93740000D02*
X145317844Y-93269417D01*
X138597844Y-92989417D02*
X138737844Y-92989417D01*
X138317844Y-93740000D02*
X138317844Y-93269417D01*
X126417844Y-93269400D02*
X126417844Y-93740000D01*
X150917844Y-93740000D02*
X150917844Y-93269417D01*
X130197844Y-92989400D02*
X130337844Y-92989400D01*
X151197844Y-92989417D02*
X151337844Y-92989417D01*
X135097844Y-94490600D02*
X135237844Y-94490600D01*
X150217844Y-93269417D02*
X150217844Y-93740000D01*
X139017844Y-93740000D02*
X139017844Y-94210583D01*
X133417844Y-93740000D02*
X133417844Y-94210600D01*
X130617844Y-93740000D02*
X130617844Y-94210600D01*
X137197844Y-92989400D02*
X137337844Y-92989400D01*
X129917844Y-94210600D02*
X129917844Y-93740000D01*
X125717844Y-94210600D02*
X125717844Y-93740000D01*
X148397844Y-92989417D02*
X148537844Y-92989417D01*
X135517844Y-94210600D02*
X135517844Y-93740000D01*
X124317844Y-93740000D02*
X124317844Y-93269400D01*
X133417844Y-93269400D02*
X133417844Y-93740000D01*
X134817844Y-93740000D02*
X134817844Y-94210600D01*
X141817844Y-93269417D02*
X141817844Y-93740000D01*
X147417844Y-93740000D02*
X147417844Y-94210583D01*
X119417844Y-93460000D02*
X119417844Y-93740000D01*
X149797844Y-92989417D02*
X149937844Y-92989417D01*
X146717844Y-93740000D02*
X146717844Y-93269417D01*
X119417844Y-93740000D02*
X119417844Y-94210600D01*
X146017844Y-93269417D02*
X146017844Y-93740000D01*
X142797844Y-92989417D02*
X142937844Y-92989417D01*
X144197844Y-92989417D02*
X144337844Y-92989417D01*
X135797844Y-92989400D02*
X135937844Y-92989400D01*
X126697844Y-94490600D02*
X126837844Y-94490600D01*
X151897844Y-94490583D02*
X152037844Y-94490583D01*
X128517844Y-93740000D02*
X128517844Y-93269400D01*
X132717844Y-94210600D02*
X132717844Y-93740000D01*
X124317844Y-94210600D02*
X124317844Y-93740000D01*
X137617844Y-93269400D02*
X137617844Y-93740000D01*
X123617844Y-93740000D02*
X123617844Y-94210600D01*
X130617844Y-93269400D02*
X130617844Y-93740000D01*
X147697844Y-94490583D02*
X147837844Y-94490583D01*
X121797844Y-92989400D02*
X121937844Y-92989400D01*
X125717844Y-93740000D02*
X125717844Y-93269400D01*
X150217844Y-93740000D02*
X150217844Y-94210583D01*
X132017844Y-93740000D02*
X132017844Y-94210600D01*
X135517844Y-93740000D02*
X135517844Y-93269400D01*
X125017844Y-93740000D02*
X125017844Y-94210600D01*
X144617844Y-93269417D02*
X144617844Y-93740000D01*
X144897844Y-94490583D02*
X145037844Y-94490583D01*
X149097844Y-94490600D02*
X149237844Y-94490600D01*
X129917844Y-93740000D02*
X129917844Y-93269400D01*
X172985000Y-94140000D02*
X174935000Y-96090000D01*
X125997844Y-92989400D02*
X126137844Y-92989400D01*
X117660000Y-93740000D02*
X118437844Y-93740000D01*
X150497844Y-94490583D02*
X150637844Y-94490583D01*
X151617844Y-93269417D02*
X151617844Y-93740000D01*
X143917844Y-93740000D02*
X143917844Y-93269417D01*
X143217844Y-93740000D02*
X143217844Y-94210600D01*
X118997844Y-92989400D02*
X119137844Y-92989400D01*
X147417844Y-93269417D02*
X147417844Y-93740000D01*
X148117844Y-93740000D02*
X148117844Y-93269417D01*
X120817844Y-93269400D02*
X120817844Y-93740000D01*
X127817844Y-93269400D02*
X127817844Y-93740000D01*
X119417844Y-93269400D02*
X119417844Y-93460000D01*
X121097844Y-94490600D02*
X121237844Y-94490600D01*
X153710000Y-94140000D02*
X172985000Y-94140000D01*
X131597844Y-92989400D02*
X131737844Y-92989400D01*
X132717844Y-93740000D02*
X132717844Y-93269400D01*
X146997844Y-92989417D02*
X147137844Y-92989417D01*
X148817844Y-93269417D02*
X148817844Y-93740000D01*
X139717844Y-93740000D02*
X139717844Y-93269400D01*
X132997844Y-92989400D02*
X133137844Y-92989400D01*
X124597844Y-92989400D02*
X124737844Y-92989400D01*
X125297844Y-94490600D02*
X125437844Y-94490600D01*
X122497844Y-94490600D02*
X122637844Y-94490600D01*
X151617844Y-93740000D02*
X151617844Y-94020000D01*
X125017844Y-93269400D02*
X125017844Y-93740000D01*
X142517844Y-94210583D02*
X142517844Y-93740000D01*
X123197844Y-92989400D02*
X123337844Y-92989400D01*
X139017844Y-93269417D02*
X139017844Y-93740000D01*
X147417844Y-94210583D02*
G75*
G03*
X147697844Y-94490556I279956J-17D01*
G01*
X146717844Y-93269417D02*
G75*
G02*
X146997844Y-92989444I279956J17D01*
G01*
X146437844Y-94490600D02*
G75*
G03*
X146717800Y-94210600I-44J280000D01*
G01*
X130617844Y-94210600D02*
G75*
G03*
X130897844Y-94490556I279956J0D01*
G01*
X118717844Y-93269400D02*
G75*
G02*
X118997844Y-92989444I279956J0D01*
G01*
X125017844Y-94210600D02*
G75*
G03*
X125297844Y-94490556I279956J0D01*
G01*
X137337844Y-92989400D02*
G75*
G02*
X137617800Y-93269400I-44J-280000D01*
G01*
X131317844Y-93269400D02*
G75*
G02*
X131597844Y-92989444I279956J0D01*
G01*
X150637844Y-94490583D02*
G75*
G03*
X150917783Y-94210583I-44J279983D01*
G01*
X130337844Y-92989400D02*
G75*
G02*
X130617800Y-93269400I-44J-280000D01*
G01*
X132437844Y-94490600D02*
G75*
G03*
X132717800Y-94210600I-44J280000D01*
G01*
X127537844Y-92989400D02*
G75*
G02*
X127817800Y-93269400I-44J-280000D01*
G01*
X118437844Y-93740000D02*
G75*
G03*
X118717800Y-93460000I-44J280000D01*
G01*
X149517844Y-93269417D02*
G75*
G02*
X149797844Y-92989444I279956J17D01*
G01*
X127117844Y-93269400D02*
G75*
G02*
X127397844Y-92989444I279956J0D01*
G01*
X151617844Y-94210583D02*
G75*
G03*
X151897844Y-94490556I279956J-17D01*
G01*
X124317844Y-93269400D02*
G75*
G02*
X124597844Y-92989444I279956J0D01*
G01*
X132017844Y-94210600D02*
G75*
G03*
X132297844Y-94490556I279956J0D01*
G01*
X143917844Y-93269417D02*
G75*
G02*
X144197844Y-92989444I279956J17D01*
G01*
X131737844Y-92989400D02*
G75*
G02*
X132017800Y-93269400I-44J-280000D01*
G01*
X128937844Y-92989400D02*
G75*
G02*
X129217800Y-93269400I-44J-280000D01*
G01*
X125717844Y-93269400D02*
G75*
G02*
X125997844Y-92989444I279956J0D01*
G01*
X136217844Y-94210600D02*
G75*
G03*
X136497844Y-94490556I279956J0D01*
G01*
X123617844Y-94210600D02*
G75*
G03*
X123897844Y-94490556I279956J0D01*
G01*
X150917844Y-93269417D02*
G75*
G02*
X151197844Y-92989444I279956J17D01*
G01*
X145037844Y-94490583D02*
G75*
G03*
X145317783Y-94210583I-44J279983D01*
G01*
X150217844Y-94210583D02*
G75*
G03*
X150497844Y-94490556I279956J-17D01*
G01*
X145317844Y-93269417D02*
G75*
G02*
X145597844Y-92989444I279956J17D01*
G01*
X119137844Y-92989400D02*
G75*
G02*
X119417800Y-93269400I-44J-280000D01*
G01*
X148117844Y-93269417D02*
G75*
G02*
X148397844Y-92989444I279956J17D01*
G01*
X121517844Y-93269400D02*
G75*
G02*
X121797844Y-92989444I279956J0D01*
G01*
X135937844Y-92989400D02*
G75*
G02*
X136217800Y-93269400I-44J-280000D01*
G01*
X135517844Y-93269400D02*
G75*
G02*
X135797844Y-92989444I279956J0D01*
G01*
X145737844Y-92989417D02*
G75*
G02*
X146017783Y-93269417I-44J-279983D01*
G01*
X139717844Y-93269400D02*
G75*
G02*
X139997844Y-92989444I279956J0D01*
G01*
X144337844Y-92989417D02*
G75*
G02*
X144617783Y-93269417I-44J-279983D01*
G01*
X120817844Y-94210600D02*
G75*
G03*
X121097844Y-94490556I279956J0D01*
G01*
X139437844Y-94490583D02*
G75*
G03*
X139717783Y-94210583I-44J279983D01*
G01*
X146017844Y-94210600D02*
G75*
G03*
X146297844Y-94490556I279956J0D01*
G01*
X133417844Y-94210600D02*
G75*
G03*
X133697844Y-94490556I279956J0D01*
G01*
X132717844Y-93269400D02*
G75*
G02*
X132997844Y-92989444I279956J0D01*
G01*
X141117844Y-93269417D02*
G75*
G02*
X141397844Y-92989444I279956J17D01*
G01*
X143637844Y-94490600D02*
G75*
G03*
X143917800Y-94210600I-44J280000D01*
G01*
X119837844Y-94490600D02*
G75*
G03*
X120117800Y-94210600I-44J280000D01*
G01*
X120117844Y-93269400D02*
G75*
G02*
X120397844Y-92989444I279956J0D01*
G01*
X126137844Y-92989400D02*
G75*
G02*
X126417800Y-93269400I-44J-280000D01*
G01*
X122217844Y-94210600D02*
G75*
G03*
X122497844Y-94490556I279956J0D01*
G01*
X129917844Y-93269400D02*
G75*
G02*
X130197844Y-92989444I279956J0D01*
G01*
X140417844Y-94210583D02*
G75*
G03*
X140697844Y-94490556I279956J-17D01*
G01*
X120537844Y-92989400D02*
G75*
G02*
X120817800Y-93269400I-44J-280000D01*
G01*
X134817844Y-94210600D02*
G75*
G03*
X135097844Y-94490556I279956J0D01*
G01*
X152317844Y-94020000D02*
G75*
G02*
X152597844Y-93740044I279956J0D01*
G01*
X129637844Y-94490600D02*
G75*
G03*
X129917800Y-94210600I-44J280000D01*
G01*
X141537844Y-92989417D02*
G75*
G02*
X141817783Y-93269417I-44J-279983D01*
G01*
X131037844Y-94490600D02*
G75*
G03*
X131317800Y-94210600I-44J280000D01*
G01*
X119417844Y-94210600D02*
G75*
G03*
X119697844Y-94490556I279956J0D01*
G01*
X126417844Y-94210600D02*
G75*
G03*
X126697844Y-94490556I279956J0D01*
G01*
X122637844Y-94490600D02*
G75*
G03*
X122917800Y-94210600I-44J280000D01*
G01*
X126837844Y-94490600D02*
G75*
G03*
X127117800Y-94210600I-44J280000D01*
G01*
X135237844Y-94490600D02*
G75*
G03*
X135517800Y-94210600I-44J280000D01*
G01*
X127817844Y-94210600D02*
G75*
G03*
X128097844Y-94490556I279956J0D01*
G01*
X128237844Y-94490600D02*
G75*
G03*
X128517800Y-94210600I-44J280000D01*
G01*
X137617844Y-94210583D02*
G75*
G03*
X137897844Y-94490556I279956J-17D01*
G01*
X148817844Y-94210600D02*
G75*
G03*
X149097844Y-94490556I279956J0D01*
G01*
X143217844Y-94210600D02*
G75*
G03*
X143497844Y-94490556I279956J0D01*
G01*
X148537844Y-92989417D02*
G75*
G02*
X148817783Y-93269417I-44J-279983D01*
G01*
X133137844Y-92989400D02*
G75*
G02*
X133417800Y-93269400I-44J-280000D01*
G01*
X142517844Y-93269417D02*
G75*
G02*
X142797844Y-92989444I279956J17D01*
G01*
X136917844Y-93269400D02*
G75*
G02*
X137197844Y-92989444I279956J0D01*
G01*
X134117844Y-93269400D02*
G75*
G02*
X134397844Y-92989444I279956J0D01*
G01*
X140137844Y-92989400D02*
G75*
G02*
X140417800Y-93269400I-44J-280000D01*
G01*
X152037844Y-94490583D02*
G75*
G03*
X152317783Y-94210583I-44J279983D01*
G01*
X124037844Y-94490600D02*
G75*
G03*
X124317800Y-94210600I-44J280000D01*
G01*
X121937844Y-92989400D02*
G75*
G02*
X122217800Y-93269400I-44J-280000D01*
G01*
X151337844Y-92989417D02*
G75*
G02*
X151617783Y-93269417I-44J-279983D01*
G01*
X147837844Y-94490583D02*
G75*
G03*
X148117783Y-94210583I-44J279983D01*
G01*
X140837844Y-94490583D02*
G75*
G03*
X141117783Y-94210583I-44J279983D01*
G01*
X138037844Y-94490583D02*
G75*
G03*
X138317783Y-94210583I-44J279983D01*
G01*
X123337844Y-92989400D02*
G75*
G02*
X123617800Y-93269400I-44J-280000D01*
G01*
X141817844Y-94210583D02*
G75*
G03*
X142097844Y-94490556I279956J-17D01*
G01*
X125437844Y-94490600D02*
G75*
G03*
X125717800Y-94210600I-44J280000D01*
G01*
X124737844Y-92989400D02*
G75*
G02*
X125017800Y-93269400I-44J-280000D01*
G01*
X144617844Y-94210583D02*
G75*
G03*
X144897844Y-94490556I279956J-17D01*
G01*
X138317844Y-93269417D02*
G75*
G02*
X138597844Y-92989444I279956J17D01*
G01*
X138737844Y-92989417D02*
G75*
G02*
X139017783Y-93269417I-44J-279983D01*
G01*
X133837844Y-94490600D02*
G75*
G03*
X134117800Y-94210600I-44J280000D01*
G01*
X139017844Y-94210583D02*
G75*
G03*
X139297844Y-94490556I279956J-17D01*
G01*
X142237844Y-94490583D02*
G75*
G03*
X142517783Y-94210583I-44J279983D01*
G01*
X136637844Y-94490600D02*
G75*
G03*
X136917800Y-94210600I-44J280000D01*
G01*
X128517844Y-93269400D02*
G75*
G02*
X128797844Y-92989444I279956J0D01*
G01*
X134537844Y-92989400D02*
G75*
G02*
X134817800Y-93269400I-44J-280000D01*
G01*
X129217844Y-94210600D02*
G75*
G03*
X129497844Y-94490556I279956J0D01*
G01*
X147137844Y-92989417D02*
G75*
G02*
X147417783Y-93269417I-44J-279983D01*
G01*
X142937844Y-92989417D02*
G75*
G02*
X143217783Y-93269417I-44J-279983D01*
G01*
X149237844Y-94490600D02*
G75*
G03*
X149517800Y-94210600I-44J280000D01*
G01*
X122917844Y-93269400D02*
G75*
G02*
X123197844Y-92989444I279956J0D01*
G01*
X149937844Y-92989417D02*
G75*
G02*
X150217783Y-93269417I-44J-279983D01*
G01*
X121237844Y-94490600D02*
G75*
G03*
X121517800Y-94210600I-44J280000D01*
G01*
D17*
%TO.N,/LED1*%
X122035000Y-99090000D02*
X126285000Y-103340000D01*
X131295000Y-110200000D02*
X152320000Y-110200000D01*
X166730000Y-109990000D02*
X198735000Y-109990000D01*
X126285000Y-103340000D02*
X126285000Y-105190000D01*
X153080000Y-110960000D02*
X165760000Y-110960000D01*
X152320000Y-110200000D02*
X153080000Y-110960000D01*
X198735000Y-109990000D02*
X200660000Y-111915000D01*
X126285000Y-105190000D02*
X131295000Y-110200000D01*
X165760000Y-110960000D02*
X166730000Y-109990000D01*
%TO.N,/LED2*%
X192260000Y-113090000D02*
X132560000Y-113090000D01*
X124810000Y-103490000D02*
X120684000Y-99364000D01*
X120684000Y-99364000D02*
X120684000Y-97291000D01*
X196160000Y-111165000D02*
X194185000Y-111165000D01*
X132560000Y-113090000D02*
X124810000Y-105340000D01*
X196910000Y-111915000D02*
X196160000Y-111165000D01*
X120684000Y-97291000D02*
X121785000Y-96190000D01*
X194185000Y-111165000D02*
X192260000Y-113090000D01*
X124810000Y-105340000D02*
X124810000Y-103490000D01*
%TO.N,/BUTTON1*%
X129310000Y-103490000D02*
X124985000Y-99165000D01*
X160060000Y-108915000D02*
X159960000Y-108815000D01*
X129310000Y-104965000D02*
X129310000Y-103490000D01*
X132775000Y-108430000D02*
X129310000Y-104965000D01*
X160060000Y-108915000D02*
X159575000Y-108430000D01*
X159575000Y-108430000D02*
X132775000Y-108430000D01*
X124985000Y-97865000D02*
X123285000Y-96165000D01*
X124985000Y-99165000D02*
X124985000Y-97865000D01*
%TO.N,/BUTTON2*%
X132020000Y-109300000D02*
X153500000Y-109300000D01*
X154060000Y-109860000D02*
X164860000Y-109860000D01*
X123569456Y-99097772D02*
X123569456Y-99194330D01*
X177040000Y-108960000D02*
X177060000Y-108940000D01*
X153500000Y-109300000D02*
X154060000Y-109860000D01*
X164860000Y-109860000D02*
X165760000Y-108960000D01*
X127860000Y-105140000D02*
X132020000Y-109300000D01*
X123569456Y-99194330D02*
X127860000Y-103484874D01*
X165760000Y-108960000D02*
X177040000Y-108960000D01*
X127860000Y-103484874D02*
X127860000Y-105140000D01*
D19*
%TO.N,/SOM1.RESET_IN*%
X83959000Y-107889000D02*
X83959000Y-99341000D01*
X85135000Y-109065000D02*
X83959000Y-107889000D01*
X83959000Y-99341000D02*
X84035000Y-99265000D01*
X123435000Y-113540000D02*
X124485000Y-113540000D01*
X118960000Y-109065000D02*
X85135000Y-109065000D01*
X123435000Y-113540000D02*
X118960000Y-109065000D01*
D17*
%TO.N,/UART.RX*%
X205985000Y-118790000D02*
X205985000Y-117240000D01*
X207285000Y-120090000D02*
X205985000Y-118790000D01*
X215210000Y-120090000D02*
X207285000Y-120090000D01*
%TO.N,/UART.TX*%
X213235000Y-119040000D02*
X207860000Y-119040000D01*
X214860000Y-117415000D02*
X213235000Y-119040000D01*
X207860000Y-119040000D02*
X207235000Y-118415000D01*
X207235000Y-118415000D02*
X207235000Y-114945000D01*
X207235000Y-114945000D02*
X205995000Y-113705000D01*
%TO.N,/SOM1.UART_TX*%
X119610000Y-97490000D02*
X119610000Y-99915000D01*
X131885000Y-114190000D02*
X202970000Y-114190000D01*
X123360000Y-103665000D02*
X123360000Y-105665000D01*
X202970000Y-114190000D02*
X203455000Y-113705000D01*
X118285000Y-96165000D02*
X119610000Y-97490000D01*
X123360000Y-105665000D02*
X131885000Y-114190000D01*
X119610000Y-99915000D02*
X123360000Y-103665000D01*
%TO.N,/SOM1.UART_RX*%
X117035000Y-99115000D02*
X117310000Y-99115000D01*
X201470000Y-115265000D02*
X203445000Y-117240000D01*
X131385000Y-115265000D02*
X201470000Y-115265000D01*
X121785000Y-105665000D02*
X131385000Y-115265000D01*
X117310000Y-99115000D02*
X121785000Y-103590000D01*
X121785000Y-103590000D02*
X121785000Y-105665000D01*
%TO.N,/SOM2.UART_RX*%
X202935000Y-96190000D02*
X204160000Y-97415000D01*
X204160000Y-100715000D02*
X206935000Y-103490000D01*
X210235000Y-115530000D02*
X208525000Y-117240000D01*
X206935000Y-104815000D02*
X210235000Y-108115000D01*
X210235000Y-108115000D02*
X210235000Y-115530000D01*
X204160000Y-97415000D02*
X204160000Y-100715000D01*
X206935000Y-103490000D02*
X206935000Y-104815000D01*
%TO.N,/SOM2.UART_TX*%
X202685000Y-101265000D02*
X205460000Y-104040000D01*
X208535000Y-108015000D02*
X208535000Y-113705000D01*
X205460000Y-104940000D02*
X208535000Y-108015000D01*
X205460000Y-104040000D02*
X205460000Y-104940000D01*
X202685000Y-99340000D02*
X202685000Y-101265000D01*
%TD*%
M02*
