%TF.GenerationSoftware,KiCad,Pcbnew,9.0.0*%
%TF.CreationDate,2025-09-20T16:19:00+02:00*%
%TF.ProjectId,ecap5-bcarrier-xlite,65636170-352d-4626-9361-72726965722d,rev?*%
%TF.SameCoordinates,Original*%
%TF.FileFunction,Drillmap*%
%TF.FilePolarity,Positive*%
%FSLAX45Y45*%
G04 Gerber Fmt 4.5, Leading zero omitted, Abs format (unit mm)*
G04 Created by KiCad (PCBNEW 9.0.0) date 2025-09-20 16:19:00*
%MOMM*%
%LPD*%
G01*
G04 APERTURE LIST*
%ADD10C,0.050000*%
%ADD11C,0.200000*%
%ADD12C,0.100000*%
%ADD13C,0.130000*%
G04 APERTURE END LIST*
D10*
X7501000Y-6989000D02*
X23631000Y-6989000D01*
X23631000Y-12509000D01*
X7501000Y-12509000D01*
X7501000Y-6989000D01*
D11*
D12*
X7538500Y-7024000D02*
X7568500Y-7054000D01*
X7568500Y-7024000D02*
X7538500Y-7054000D01*
X7538500Y-7327333D02*
X7568500Y-7357333D01*
X7568500Y-7327333D02*
X7538500Y-7357333D01*
X7538500Y-7583167D02*
X7568500Y-7613167D01*
X7568500Y-7583167D02*
X7538500Y-7613167D01*
X7538500Y-7839000D02*
X7568500Y-7869000D01*
X7568500Y-7839000D02*
X7538500Y-7869000D01*
X7538500Y-8094833D02*
X7568500Y-8124833D01*
X7568500Y-8094833D02*
X7538500Y-8124833D01*
X7538500Y-8350667D02*
X7568500Y-8380667D01*
X7568500Y-8350667D02*
X7538500Y-8380667D01*
X7538500Y-8606500D02*
X7568500Y-8636500D01*
X7568500Y-8606500D02*
X7538500Y-8636500D01*
X7538500Y-8862333D02*
X7568500Y-8892333D01*
X7568500Y-8862333D02*
X7538500Y-8892333D01*
X7538500Y-9118167D02*
X7568500Y-9148167D01*
X7568500Y-9118167D02*
X7538500Y-9148167D01*
X7538500Y-9374000D02*
X7568500Y-9404000D01*
X7568500Y-9374000D02*
X7538500Y-9404000D01*
X7538500Y-9629833D02*
X7568500Y-9659833D01*
X7568500Y-9629833D02*
X7538500Y-9659833D01*
X7538500Y-9885667D02*
X7568500Y-9915667D01*
X7568500Y-9885667D02*
X7538500Y-9915667D01*
X7538500Y-10141500D02*
X7568500Y-10171500D01*
X7568500Y-10141500D02*
X7538500Y-10171500D01*
X7538500Y-10397333D02*
X7568500Y-10427333D01*
X7568500Y-10397333D02*
X7538500Y-10427333D01*
X7538500Y-10653167D02*
X7568500Y-10683167D01*
X7568500Y-10653167D02*
X7538500Y-10683167D01*
X7538500Y-10909000D02*
X7568500Y-10939000D01*
X7568500Y-10909000D02*
X7538500Y-10939000D01*
X7538500Y-11164833D02*
X7568500Y-11194833D01*
X7568500Y-11164833D02*
X7538500Y-11194833D01*
X7538500Y-11420667D02*
X7568500Y-11450667D01*
X7568500Y-11420667D02*
X7538500Y-11450667D01*
X7538500Y-11676500D02*
X7568500Y-11706500D01*
X7568500Y-11676500D02*
X7538500Y-11706500D01*
X7538500Y-11932333D02*
X7568500Y-11962333D01*
X7568500Y-11932333D02*
X7538500Y-11962333D01*
X7538500Y-12188167D02*
X7568500Y-12218167D01*
X7568500Y-12188167D02*
X7538500Y-12218167D01*
X7538500Y-12444000D02*
X7568500Y-12474000D01*
X7568500Y-12444000D02*
X7538500Y-12474000D01*
X7792905Y-7024000D02*
X7822905Y-7054000D01*
X7822905Y-7024000D02*
X7792905Y-7054000D01*
X7792905Y-12444000D02*
X7822905Y-12474000D01*
X7822905Y-12444000D02*
X7792905Y-12474000D01*
X8047309Y-7024000D02*
X8077309Y-7054000D01*
X8077309Y-7024000D02*
X8047309Y-7054000D01*
X8047309Y-7584000D02*
X8077309Y-7614000D01*
X8077309Y-7584000D02*
X8047309Y-7614000D01*
X8047309Y-8351500D02*
X8077309Y-8381500D01*
X8077309Y-8351500D02*
X8047309Y-8381500D01*
X8047309Y-10159000D02*
X8077309Y-10189000D01*
X8077309Y-10159000D02*
X8047309Y-10189000D01*
X8047309Y-12444000D02*
X8077309Y-12474000D01*
X8077309Y-12444000D02*
X8047309Y-12474000D01*
X8288500Y-10439000D02*
X8318500Y-10469000D01*
X8318500Y-10439000D02*
X8288500Y-10469000D01*
X8301714Y-7024000D02*
X8331714Y-7054000D01*
X8331714Y-7024000D02*
X8301714Y-7054000D01*
X8301714Y-12444000D02*
X8331714Y-12474000D01*
X8331714Y-12444000D02*
X8301714Y-12474000D01*
X8313500Y-9859000D02*
X8343500Y-9889000D01*
X8343500Y-9859000D02*
X8313500Y-9889000D01*
X8388500Y-9911500D02*
X8418500Y-9941500D01*
X8418500Y-9911500D02*
X8388500Y-9941500D01*
X8438500Y-10439000D02*
X8468500Y-10469000D01*
X8468500Y-10439000D02*
X8438500Y-10469000D01*
X8463500Y-9859000D02*
X8493500Y-9889000D01*
X8493500Y-9859000D02*
X8463500Y-9889000D01*
X8556119Y-7024000D02*
X8586119Y-7054000D01*
X8586119Y-7024000D02*
X8556119Y-7054000D01*
X8556119Y-12444000D02*
X8586119Y-12474000D01*
X8586119Y-12444000D02*
X8556119Y-12474000D01*
X8588500Y-10439000D02*
X8618500Y-10469000D01*
X8618500Y-10439000D02*
X8588500Y-10469000D01*
X8613500Y-9859000D02*
X8643500Y-9889000D01*
X8643500Y-9859000D02*
X8613500Y-9889000D01*
X8738500Y-10439000D02*
X8768500Y-10469000D01*
X8768500Y-10439000D02*
X8738500Y-10469000D01*
X8763500Y-9859000D02*
X8793500Y-9889000D01*
X8793500Y-9859000D02*
X8763500Y-9889000D01*
X8810524Y-7024000D02*
X8840524Y-7054000D01*
X8840524Y-7024000D02*
X8810524Y-7054000D01*
X8810524Y-7584000D02*
X8840524Y-7614000D01*
X8840524Y-7584000D02*
X8810524Y-7614000D01*
X8810524Y-8351500D02*
X8840524Y-8381500D01*
X8840524Y-8351500D02*
X8810524Y-8381500D01*
X8810524Y-9116500D02*
X8840524Y-9146500D01*
X8840524Y-9116500D02*
X8810524Y-9146500D01*
X8810524Y-10159000D02*
X8840524Y-10189000D01*
X8840524Y-10159000D02*
X8810524Y-10189000D01*
X8810524Y-12444000D02*
X8840524Y-12474000D01*
X8840524Y-12444000D02*
X8810524Y-12474000D01*
X8888500Y-10439000D02*
X8918500Y-10469000D01*
X8918500Y-10439000D02*
X8888500Y-10469000D01*
X8913500Y-9859000D02*
X8943500Y-9889000D01*
X8943500Y-9859000D02*
X8913500Y-9889000D01*
X9038500Y-10439000D02*
X9068500Y-10469000D01*
X9068500Y-10439000D02*
X9038500Y-10469000D01*
X9063500Y-9859000D02*
X9093500Y-9889000D01*
X9093500Y-9859000D02*
X9063500Y-9889000D01*
X9064929Y-7024000D02*
X9094929Y-7054000D01*
X9094929Y-7024000D02*
X9064929Y-7054000D01*
X9064929Y-12444000D02*
X9094929Y-12474000D01*
X9094929Y-12444000D02*
X9064929Y-12474000D01*
X9188500Y-10439000D02*
X9218500Y-10469000D01*
X9218500Y-10439000D02*
X9188500Y-10469000D01*
X9213500Y-9859000D02*
X9243500Y-9889000D01*
X9243500Y-9859000D02*
X9213500Y-9889000D01*
X9319333Y-7024000D02*
X9349333Y-7054000D01*
X9349333Y-7024000D02*
X9319333Y-7054000D01*
X9319333Y-12444000D02*
X9349333Y-12474000D01*
X9349333Y-12444000D02*
X9319333Y-12474000D01*
X9338500Y-10439000D02*
X9368500Y-10469000D01*
X9368500Y-10439000D02*
X9338500Y-10469000D01*
X9363500Y-9859000D02*
X9393500Y-9889000D01*
X9393500Y-9859000D02*
X9363500Y-9889000D01*
X9413500Y-9596500D02*
X9443500Y-9626500D01*
X9443500Y-9596500D02*
X9413500Y-9626500D01*
X9488500Y-10439000D02*
X9518500Y-10469000D01*
X9518500Y-10439000D02*
X9488500Y-10469000D01*
X9513500Y-9859000D02*
X9543500Y-9889000D01*
X9543500Y-9859000D02*
X9513500Y-9889000D01*
X9563500Y-9596500D02*
X9593500Y-9626500D01*
X9593500Y-9596500D02*
X9563500Y-9626500D01*
X9572786Y-10159000D02*
X9602786Y-10189000D01*
X9602786Y-10159000D02*
X9572786Y-10189000D01*
X9573738Y-7024000D02*
X9603738Y-7054000D01*
X9603738Y-7024000D02*
X9573738Y-7054000D01*
X9573738Y-7584000D02*
X9603738Y-7614000D01*
X9603738Y-7584000D02*
X9573738Y-7614000D01*
X9573738Y-8351500D02*
X9603738Y-8381500D01*
X9603738Y-8351500D02*
X9573738Y-8381500D01*
X9573738Y-9116500D02*
X9603738Y-9146500D01*
X9603738Y-9116500D02*
X9573738Y-9146500D01*
X9573738Y-12444000D02*
X9603738Y-12474000D01*
X9603738Y-12444000D02*
X9573738Y-12474000D01*
X9588500Y-11094000D02*
X9618500Y-11124000D01*
X9618500Y-11094000D02*
X9588500Y-11124000D01*
X9588500Y-11168167D02*
X9618500Y-11198167D01*
X9618500Y-11168167D02*
X9588500Y-11198167D01*
X9588500Y-11242333D02*
X9618500Y-11272333D01*
X9618500Y-11242333D02*
X9588500Y-11272333D01*
X9588500Y-11316500D02*
X9618500Y-11346500D01*
X9618500Y-11316500D02*
X9588500Y-11346500D01*
X9588500Y-11544000D02*
X9618500Y-11574000D01*
X9618500Y-11544000D02*
X9588500Y-11574000D01*
X9588500Y-11618167D02*
X9618500Y-11648167D01*
X9618500Y-11618167D02*
X9588500Y-11648167D01*
X9588500Y-11692333D02*
X9618500Y-11722333D01*
X9618500Y-11692333D02*
X9588500Y-11722333D01*
X9588500Y-11766500D02*
X9618500Y-11796500D01*
X9618500Y-11766500D02*
X9588500Y-11796500D01*
X9638500Y-10439000D02*
X9668500Y-10469000D01*
X9668500Y-10439000D02*
X9638500Y-10469000D01*
X9663500Y-9859000D02*
X9693500Y-9889000D01*
X9693500Y-9859000D02*
X9663500Y-9889000D01*
X9663500Y-11094000D02*
X9693500Y-11124000D01*
X9693500Y-11094000D02*
X9663500Y-11124000D01*
X9663500Y-11168167D02*
X9693500Y-11198167D01*
X9693500Y-11168167D02*
X9663500Y-11198167D01*
X9663500Y-11242333D02*
X9693500Y-11272333D01*
X9693500Y-11242333D02*
X9663500Y-11272333D01*
X9663500Y-11316500D02*
X9693500Y-11346500D01*
X9693500Y-11316500D02*
X9663500Y-11346500D01*
X9663500Y-11544000D02*
X9693500Y-11574000D01*
X9693500Y-11544000D02*
X9663500Y-11574000D01*
X9663500Y-11618167D02*
X9693500Y-11648167D01*
X9693500Y-11618167D02*
X9663500Y-11648167D01*
X9663500Y-11692333D02*
X9693500Y-11722333D01*
X9693500Y-11692333D02*
X9663500Y-11722333D01*
X9663500Y-11766500D02*
X9693500Y-11796500D01*
X9693500Y-11766500D02*
X9663500Y-11796500D01*
X9713500Y-9596500D02*
X9743500Y-9626500D01*
X9743500Y-9596500D02*
X9713500Y-9626500D01*
X9788500Y-10439000D02*
X9818500Y-10469000D01*
X9818500Y-10439000D02*
X9788500Y-10469000D01*
X9813500Y-9859000D02*
X9843500Y-9889000D01*
X9843500Y-9859000D02*
X9813500Y-9889000D01*
X9828143Y-7024000D02*
X9858143Y-7054000D01*
X9858143Y-7024000D02*
X9828143Y-7054000D01*
X9828143Y-12444000D02*
X9858143Y-12474000D01*
X9858143Y-12444000D02*
X9828143Y-12474000D01*
X9863500Y-9596500D02*
X9893500Y-9626500D01*
X9893500Y-9596500D02*
X9863500Y-9626500D01*
X9946000Y-11401500D02*
X9976000Y-11431500D01*
X9976000Y-11401500D02*
X9946000Y-11431500D01*
X9946500Y-11804000D02*
X9976500Y-11834000D01*
X9976500Y-11804000D02*
X9946500Y-11834000D01*
X9948500Y-12196500D02*
X9978500Y-12226500D01*
X9978500Y-12196500D02*
X9948500Y-12226500D01*
X9963500Y-9859000D02*
X9993500Y-9889000D01*
X9993500Y-9859000D02*
X9963500Y-9889000D01*
X9988500Y-10439000D02*
X10018500Y-10469000D01*
X10018500Y-10439000D02*
X9988500Y-10469000D01*
X10013500Y-9596500D02*
X10043500Y-9626500D01*
X10043500Y-9596500D02*
X10013500Y-9626500D01*
X10082548Y-7024000D02*
X10112548Y-7054000D01*
X10112548Y-7024000D02*
X10082548Y-7054000D01*
X10082548Y-12444000D02*
X10112548Y-12474000D01*
X10112548Y-12444000D02*
X10082548Y-12474000D01*
X10113500Y-9859000D02*
X10143500Y-9889000D01*
X10143500Y-9859000D02*
X10113500Y-9889000D01*
X10163500Y-9596500D02*
X10193500Y-9626500D01*
X10193500Y-9596500D02*
X10163500Y-9626500D01*
X10188500Y-10439000D02*
X10218500Y-10469000D01*
X10218500Y-10439000D02*
X10188500Y-10469000D01*
X10263500Y-9859000D02*
X10293500Y-9889000D01*
X10293500Y-9859000D02*
X10263500Y-9889000D01*
X10313500Y-9596500D02*
X10343500Y-9626500D01*
X10343500Y-9596500D02*
X10313500Y-9626500D01*
X10336952Y-7024000D02*
X10366952Y-7054000D01*
X10366952Y-7024000D02*
X10336952Y-7054000D01*
X10336952Y-7584000D02*
X10366952Y-7614000D01*
X10366952Y-7584000D02*
X10336952Y-7614000D01*
X10336952Y-8351500D02*
X10366952Y-8381500D01*
X10366952Y-8351500D02*
X10336952Y-8381500D01*
X10336952Y-10159000D02*
X10366952Y-10189000D01*
X10366952Y-10159000D02*
X10336952Y-10189000D01*
X10336952Y-12444000D02*
X10366952Y-12474000D01*
X10366952Y-12444000D02*
X10336952Y-12474000D01*
X10388500Y-10439000D02*
X10418500Y-10469000D01*
X10418500Y-10439000D02*
X10388500Y-10469000D01*
X10413500Y-9859000D02*
X10443500Y-9889000D01*
X10443500Y-9859000D02*
X10413500Y-9889000D01*
X10463500Y-9596500D02*
X10493500Y-9626500D01*
X10493500Y-9596500D02*
X10463500Y-9626500D01*
X10506000Y-11401500D02*
X10536000Y-11431500D01*
X10536000Y-11401500D02*
X10506000Y-11431500D01*
X10506000Y-12196500D02*
X10536000Y-12226500D01*
X10536000Y-12196500D02*
X10506000Y-12226500D01*
X10506500Y-11804000D02*
X10536500Y-11834000D01*
X10536500Y-11804000D02*
X10506500Y-11834000D01*
X10563500Y-9859000D02*
X10593500Y-9889000D01*
X10593500Y-9859000D02*
X10563500Y-9889000D01*
X10588500Y-10439000D02*
X10618500Y-10469000D01*
X10618500Y-10439000D02*
X10588500Y-10469000D01*
X10591357Y-7024000D02*
X10621357Y-7054000D01*
X10621357Y-7024000D02*
X10591357Y-7054000D01*
X10591357Y-12444000D02*
X10621357Y-12474000D01*
X10621357Y-12444000D02*
X10591357Y-12474000D01*
X10613500Y-9596500D02*
X10643500Y-9626500D01*
X10643500Y-9596500D02*
X10613500Y-9626500D01*
X10713500Y-9859000D02*
X10743500Y-9889000D01*
X10743500Y-9859000D02*
X10713500Y-9889000D01*
X10756500Y-11531000D02*
X10786500Y-11561000D01*
X10786500Y-11531000D02*
X10756500Y-11561000D01*
X10756500Y-12088500D02*
X10786500Y-12118500D01*
X10786500Y-12088500D02*
X10756500Y-12118500D01*
X10763500Y-9596500D02*
X10793500Y-9626500D01*
X10793500Y-9596500D02*
X10763500Y-9626500D01*
X10788500Y-10439000D02*
X10818500Y-10469000D01*
X10818500Y-10439000D02*
X10788500Y-10469000D01*
X10845762Y-7024000D02*
X10875762Y-7054000D01*
X10875762Y-7024000D02*
X10845762Y-7054000D01*
X10845762Y-12444000D02*
X10875762Y-12474000D01*
X10875762Y-12444000D02*
X10845762Y-12474000D01*
X10863500Y-9859000D02*
X10893500Y-9889000D01*
X10893500Y-9859000D02*
X10863500Y-9889000D01*
X10913500Y-9596500D02*
X10943500Y-9626500D01*
X10943500Y-9596500D02*
X10913500Y-9626500D01*
X10988500Y-10439000D02*
X11018500Y-10469000D01*
X11018500Y-10439000D02*
X10988500Y-10469000D01*
X11013500Y-9859000D02*
X11043500Y-9889000D01*
X11043500Y-9859000D02*
X11013500Y-9889000D01*
X11063500Y-9596500D02*
X11093500Y-9626500D01*
X11093500Y-9596500D02*
X11063500Y-9626500D01*
X11099214Y-10159000D02*
X11129214Y-10189000D01*
X11129214Y-10159000D02*
X11099214Y-10189000D01*
X11100167Y-7024000D02*
X11130167Y-7054000D01*
X11130167Y-7024000D02*
X11100167Y-7054000D01*
X11100167Y-7584000D02*
X11130167Y-7614000D01*
X11130167Y-7584000D02*
X11100167Y-7614000D01*
X11100167Y-12444000D02*
X11130167Y-12474000D01*
X11130167Y-12444000D02*
X11100167Y-12474000D01*
X11146500Y-11529000D02*
X11176500Y-11559000D01*
X11176500Y-11529000D02*
X11146500Y-11559000D01*
X11146500Y-12089000D02*
X11176500Y-12119000D01*
X11176500Y-12089000D02*
X11146500Y-12119000D01*
X11163500Y-9859000D02*
X11193500Y-9889000D01*
X11193500Y-9859000D02*
X11163500Y-9889000D01*
X11188500Y-10439000D02*
X11218500Y-10469000D01*
X11218500Y-10439000D02*
X11188500Y-10469000D01*
X11213500Y-9596500D02*
X11243500Y-9626500D01*
X11243500Y-9596500D02*
X11213500Y-9626500D01*
X11313500Y-9859000D02*
X11343500Y-9889000D01*
X11343500Y-9859000D02*
X11313500Y-9889000D01*
X11354571Y-7024000D02*
X11384571Y-7054000D01*
X11384571Y-7024000D02*
X11354571Y-7054000D01*
X11354571Y-12444000D02*
X11384571Y-12474000D01*
X11384571Y-12444000D02*
X11354571Y-12474000D01*
X11363500Y-9596500D02*
X11393500Y-9626500D01*
X11393500Y-9596500D02*
X11363500Y-9626500D01*
X11388500Y-10439000D02*
X11418500Y-10469000D01*
X11418500Y-10439000D02*
X11388500Y-10469000D01*
X11456000Y-11416500D02*
X11486000Y-11446500D01*
X11486000Y-11416500D02*
X11456000Y-11446500D01*
X11456000Y-12206500D02*
X11486000Y-12236500D01*
X11486000Y-12206500D02*
X11456000Y-12236500D01*
X11463500Y-9859000D02*
X11493500Y-9889000D01*
X11493500Y-9859000D02*
X11463500Y-9889000D01*
X11513500Y-9596500D02*
X11543500Y-9626500D01*
X11543500Y-9596500D02*
X11513500Y-9626500D01*
X11588500Y-10439000D02*
X11618500Y-10469000D01*
X11618500Y-10439000D02*
X11588500Y-10469000D01*
X11608976Y-7024000D02*
X11638976Y-7054000D01*
X11638976Y-7024000D02*
X11608976Y-7054000D01*
X11608976Y-12444000D02*
X11638976Y-12474000D01*
X11638976Y-12444000D02*
X11608976Y-12474000D01*
X11613500Y-9859000D02*
X11643500Y-9889000D01*
X11643500Y-9859000D02*
X11613500Y-9889000D01*
X11663500Y-9596500D02*
X11693500Y-9626500D01*
X11693500Y-9596500D02*
X11663500Y-9626500D01*
X11688500Y-9896500D02*
X11718500Y-9926500D01*
X11718500Y-9896500D02*
X11688500Y-9926500D01*
X11753500Y-11416500D02*
X11783500Y-11446500D01*
X11783500Y-11416500D02*
X11753500Y-11446500D01*
X11753500Y-12206500D02*
X11783500Y-12236500D01*
X11783500Y-12206500D02*
X11753500Y-12236500D01*
X11763500Y-9859000D02*
X11793500Y-9889000D01*
X11793500Y-9859000D02*
X11763500Y-9889000D01*
X11788500Y-10439000D02*
X11818500Y-10469000D01*
X11818500Y-10439000D02*
X11788500Y-10469000D01*
X11813500Y-9601500D02*
X11843500Y-9631500D01*
X11843500Y-9601500D02*
X11813500Y-9631500D01*
X11862429Y-10159000D02*
X11892429Y-10189000D01*
X11892429Y-10159000D02*
X11862429Y-10189000D01*
X11863381Y-7024000D02*
X11893381Y-7054000D01*
X11893381Y-7024000D02*
X11863381Y-7054000D01*
X11863381Y-12444000D02*
X11893381Y-12474000D01*
X11893381Y-12444000D02*
X11863381Y-12474000D01*
X11863500Y-9859000D02*
X11893500Y-9889000D01*
X11893500Y-9859000D02*
X11863500Y-9889000D01*
X12063500Y-11529000D02*
X12093500Y-11559000D01*
X12093500Y-11529000D02*
X12063500Y-11559000D01*
X12063500Y-12089000D02*
X12093500Y-12119000D01*
X12093500Y-12089000D02*
X12063500Y-12119000D01*
X12088500Y-10439000D02*
X12118500Y-10469000D01*
X12118500Y-10439000D02*
X12088500Y-10469000D01*
X12113500Y-9859000D02*
X12143500Y-9889000D01*
X12143500Y-9859000D02*
X12113500Y-9889000D01*
X12117786Y-7024000D02*
X12147786Y-7054000D01*
X12147786Y-7024000D02*
X12117786Y-7054000D01*
X12117786Y-12444000D02*
X12147786Y-12474000D01*
X12147786Y-12444000D02*
X12117786Y-12474000D01*
X12163500Y-9604000D02*
X12193500Y-9634000D01*
X12193500Y-9604000D02*
X12163500Y-9634000D01*
X12188500Y-9894000D02*
X12218500Y-9924000D01*
X12218500Y-9894000D02*
X12188500Y-9924000D01*
X12238500Y-10439000D02*
X12268500Y-10469000D01*
X12268500Y-10439000D02*
X12238500Y-10469000D01*
X12263500Y-9859000D02*
X12293500Y-9889000D01*
X12293500Y-9859000D02*
X12263500Y-9889000D01*
X12313500Y-9601500D02*
X12343500Y-9631500D01*
X12343500Y-9601500D02*
X12313500Y-9631500D01*
X12341946Y-9894777D02*
X12371946Y-9924777D01*
X12371946Y-9894777D02*
X12341946Y-9924777D01*
X12372190Y-7024000D02*
X12402190Y-7054000D01*
X12402190Y-7024000D02*
X12372190Y-7054000D01*
X12372190Y-12444000D02*
X12402190Y-12474000D01*
X12402190Y-12444000D02*
X12372190Y-12474000D01*
X12388500Y-10439000D02*
X12418500Y-10469000D01*
X12418500Y-10439000D02*
X12388500Y-10469000D01*
X12413500Y-9859000D02*
X12443500Y-9889000D01*
X12443500Y-9859000D02*
X12413500Y-9889000D01*
X12433500Y-11339000D02*
X12463500Y-11369000D01*
X12463500Y-11339000D02*
X12433500Y-11369000D01*
X12453500Y-12089000D02*
X12483500Y-12119000D01*
X12483500Y-12089000D02*
X12453500Y-12119000D01*
X12456000Y-11529000D02*
X12486000Y-11559000D01*
X12486000Y-11529000D02*
X12456000Y-11559000D01*
X12538500Y-10439000D02*
X12568500Y-10469000D01*
X12568500Y-10439000D02*
X12538500Y-10469000D01*
X12563500Y-9859000D02*
X12593500Y-9889000D01*
X12593500Y-9859000D02*
X12563500Y-9889000D01*
X12626595Y-7024000D02*
X12656595Y-7054000D01*
X12656595Y-7024000D02*
X12626595Y-7054000D01*
X12626595Y-12444000D02*
X12656595Y-12474000D01*
X12656595Y-12444000D02*
X12626595Y-12474000D01*
X12653500Y-11964000D02*
X12683500Y-11994000D01*
X12683500Y-11964000D02*
X12653500Y-11994000D01*
X12688500Y-10439000D02*
X12718500Y-10469000D01*
X12718500Y-10439000D02*
X12688500Y-10469000D01*
X12713500Y-9859000D02*
X12743500Y-9889000D01*
X12743500Y-9859000D02*
X12713500Y-9889000D01*
X12838500Y-10439000D02*
X12868500Y-10469000D01*
X12868500Y-10439000D02*
X12838500Y-10469000D01*
X12863500Y-9859000D02*
X12893500Y-9889000D01*
X12893500Y-9859000D02*
X12863500Y-9889000D01*
X12881000Y-7024000D02*
X12911000Y-7054000D01*
X12911000Y-7024000D02*
X12881000Y-7054000D01*
X12881000Y-12444000D02*
X12911000Y-12474000D01*
X12911000Y-12444000D02*
X12881000Y-12474000D01*
X12903500Y-10159000D02*
X12933500Y-10189000D01*
X12933500Y-10159000D02*
X12903500Y-10189000D01*
X12988500Y-10439000D02*
X13018500Y-10469000D01*
X13018500Y-10439000D02*
X12988500Y-10469000D01*
X13013500Y-9859000D02*
X13043500Y-9889000D01*
X13043500Y-9859000D02*
X13013500Y-9889000D01*
X13135405Y-7024000D02*
X13165405Y-7054000D01*
X13165405Y-7024000D02*
X13135405Y-7054000D01*
X13135405Y-12444000D02*
X13165405Y-12474000D01*
X13165405Y-12444000D02*
X13135405Y-12474000D01*
X13138500Y-10439000D02*
X13168500Y-10469000D01*
X13168500Y-10439000D02*
X13138500Y-10469000D01*
X13163500Y-9859000D02*
X13193500Y-9889000D01*
X13193500Y-9859000D02*
X13163500Y-9889000D01*
X13288500Y-10439000D02*
X13318500Y-10469000D01*
X13318500Y-10439000D02*
X13288500Y-10469000D01*
X13313500Y-9859000D02*
X13343500Y-9889000D01*
X13343500Y-9859000D02*
X13313500Y-9889000D01*
X13389809Y-7024000D02*
X13419809Y-7054000D01*
X13419809Y-7024000D02*
X13389809Y-7054000D01*
X13389809Y-12444000D02*
X13419809Y-12474000D01*
X13419809Y-12444000D02*
X13389809Y-12474000D01*
X13438500Y-10439000D02*
X13468500Y-10469000D01*
X13468500Y-10439000D02*
X13438500Y-10469000D01*
X13463500Y-9859000D02*
X13493500Y-9889000D01*
X13493500Y-9859000D02*
X13463500Y-9889000D01*
X13588500Y-10439000D02*
X13618500Y-10469000D01*
X13618500Y-10439000D02*
X13588500Y-10469000D01*
X13613500Y-9859000D02*
X13643500Y-9889000D01*
X13643500Y-9859000D02*
X13613500Y-9889000D01*
X13644214Y-7024000D02*
X13674214Y-7054000D01*
X13674214Y-7024000D02*
X13644214Y-7054000D01*
X13644214Y-12444000D02*
X13674214Y-12474000D01*
X13674214Y-12444000D02*
X13644214Y-12474000D01*
X13665762Y-10159000D02*
X13695762Y-10189000D01*
X13695762Y-10159000D02*
X13665762Y-10189000D01*
X13738500Y-10439000D02*
X13768500Y-10469000D01*
X13768500Y-10439000D02*
X13738500Y-10469000D01*
X13763500Y-9859000D02*
X13793500Y-9889000D01*
X13793500Y-9859000D02*
X13763500Y-9889000D01*
X13888500Y-10439000D02*
X13918500Y-10469000D01*
X13918500Y-10439000D02*
X13888500Y-10469000D01*
X13898619Y-7024000D02*
X13928619Y-7054000D01*
X13928619Y-7024000D02*
X13898619Y-7054000D01*
X13898619Y-12444000D02*
X13928619Y-12474000D01*
X13928619Y-12444000D02*
X13898619Y-12474000D01*
X13913500Y-9859000D02*
X13943500Y-9889000D01*
X13943500Y-9859000D02*
X13913500Y-9889000D01*
X14038500Y-10439000D02*
X14068500Y-10469000D01*
X14068500Y-10439000D02*
X14038500Y-10469000D01*
X14063500Y-9859000D02*
X14093500Y-9889000D01*
X14093500Y-9859000D02*
X14063500Y-9889000D01*
X14083500Y-11964000D02*
X14113500Y-11994000D01*
X14113500Y-11964000D02*
X14083500Y-11994000D01*
X14153024Y-7024000D02*
X14183024Y-7054000D01*
X14183024Y-7024000D02*
X14153024Y-7054000D01*
X14153024Y-12444000D02*
X14183024Y-12474000D01*
X14183024Y-12444000D02*
X14153024Y-12474000D01*
X14188500Y-10439000D02*
X14218500Y-10469000D01*
X14218500Y-10439000D02*
X14188500Y-10469000D01*
X14213500Y-9859000D02*
X14243500Y-9889000D01*
X14243500Y-9859000D02*
X14213500Y-9889000D01*
X14338500Y-10439000D02*
X14368500Y-10469000D01*
X14368500Y-10439000D02*
X14338500Y-10469000D01*
X14363500Y-9859000D02*
X14393500Y-9889000D01*
X14393500Y-9859000D02*
X14363500Y-9889000D01*
X14371000Y-11949000D02*
X14401000Y-11979000D01*
X14401000Y-11949000D02*
X14371000Y-11979000D01*
X14407429Y-7024000D02*
X14437429Y-7054000D01*
X14437429Y-7024000D02*
X14407429Y-7054000D01*
X14407429Y-12444000D02*
X14437429Y-12474000D01*
X14437429Y-12444000D02*
X14407429Y-12474000D01*
X14429929Y-10159000D02*
X14459929Y-10189000D01*
X14459929Y-10159000D02*
X14429929Y-10189000D01*
X14488500Y-10439000D02*
X14518500Y-10469000D01*
X14518500Y-10439000D02*
X14488500Y-10469000D01*
X14513500Y-9859000D02*
X14543500Y-9889000D01*
X14543500Y-9859000D02*
X14513500Y-9889000D01*
X14638500Y-10439000D02*
X14668500Y-10469000D01*
X14668500Y-10439000D02*
X14638500Y-10469000D01*
X14661833Y-7024000D02*
X14691833Y-7054000D01*
X14691833Y-7024000D02*
X14661833Y-7054000D01*
X14661833Y-12444000D02*
X14691833Y-12474000D01*
X14691833Y-12444000D02*
X14661833Y-12474000D01*
X14663500Y-9859000D02*
X14693500Y-9889000D01*
X14693500Y-9859000D02*
X14663500Y-9889000D01*
X14746000Y-10679000D02*
X14776000Y-10709000D01*
X14776000Y-10679000D02*
X14746000Y-10709000D01*
X14746000Y-10754000D02*
X14776000Y-10784000D01*
X14776000Y-10754000D02*
X14746000Y-10784000D01*
X14820167Y-10679000D02*
X14850167Y-10709000D01*
X14850167Y-10679000D02*
X14820167Y-10709000D01*
X14820167Y-10754000D02*
X14850167Y-10784000D01*
X14850167Y-10754000D02*
X14820167Y-10784000D01*
X14894333Y-10679000D02*
X14924333Y-10709000D01*
X14924333Y-10679000D02*
X14894333Y-10709000D01*
X14894333Y-10754000D02*
X14924333Y-10784000D01*
X14924333Y-10754000D02*
X14894333Y-10784000D01*
X14916238Y-7024000D02*
X14946238Y-7054000D01*
X14946238Y-7024000D02*
X14916238Y-7054000D01*
X14916238Y-12444000D02*
X14946238Y-12474000D01*
X14946238Y-12444000D02*
X14916238Y-12474000D01*
X14968500Y-10679000D02*
X14998500Y-10709000D01*
X14998500Y-10679000D02*
X14968500Y-10709000D01*
X14968500Y-10754000D02*
X14998500Y-10784000D01*
X14998500Y-10754000D02*
X14968500Y-10784000D01*
X15170643Y-7024000D02*
X15200643Y-7054000D01*
X15200643Y-7024000D02*
X15170643Y-7054000D01*
X15170643Y-12444000D02*
X15200643Y-12474000D01*
X15200643Y-12444000D02*
X15170643Y-12474000D01*
X15192190Y-10159000D02*
X15222190Y-10189000D01*
X15222190Y-10159000D02*
X15192190Y-10189000D01*
X15425048Y-7024000D02*
X15455048Y-7054000D01*
X15455048Y-7024000D02*
X15425048Y-7054000D01*
X15425048Y-12444000D02*
X15455048Y-12474000D01*
X15455048Y-12444000D02*
X15425048Y-12474000D01*
X15679452Y-7024000D02*
X15709452Y-7054000D01*
X15709452Y-7024000D02*
X15679452Y-7054000D01*
X15679452Y-12444000D02*
X15709452Y-12474000D01*
X15709452Y-12444000D02*
X15679452Y-12474000D01*
X15801000Y-11969000D02*
X15831000Y-11999000D01*
X15831000Y-11969000D02*
X15801000Y-11999000D01*
X15933857Y-7024000D02*
X15963857Y-7054000D01*
X15963857Y-7024000D02*
X15933857Y-7054000D01*
X15933857Y-12444000D02*
X15963857Y-12474000D01*
X15963857Y-12444000D02*
X15933857Y-12474000D01*
X15955405Y-10159000D02*
X15985405Y-10189000D01*
X15985405Y-10159000D02*
X15955405Y-10189000D01*
X15991000Y-10876500D02*
X16021000Y-10906500D01*
X16021000Y-10876500D02*
X15991000Y-10906500D01*
X16093500Y-11961500D02*
X16123500Y-11991500D01*
X16123500Y-11961500D02*
X16093500Y-11991500D01*
X16188262Y-7024000D02*
X16218262Y-7054000D01*
X16218262Y-7024000D02*
X16188262Y-7054000D01*
X16188262Y-12444000D02*
X16218262Y-12474000D01*
X16218262Y-12444000D02*
X16188262Y-12474000D01*
X16203500Y-10439000D02*
X16233500Y-10469000D01*
X16233500Y-10439000D02*
X16203500Y-10469000D01*
X16228500Y-9859000D02*
X16258500Y-9889000D01*
X16258500Y-9859000D02*
X16228500Y-9889000D01*
X16333500Y-10876500D02*
X16363500Y-10906500D01*
X16363500Y-10876500D02*
X16333500Y-10906500D01*
X16353500Y-10439000D02*
X16383500Y-10469000D01*
X16383500Y-10439000D02*
X16353500Y-10469000D01*
X16378500Y-9859000D02*
X16408500Y-9889000D01*
X16408500Y-9859000D02*
X16378500Y-9889000D01*
X16442667Y-7024000D02*
X16472667Y-7054000D01*
X16472667Y-7024000D02*
X16442667Y-7054000D01*
X16442667Y-12444000D02*
X16472667Y-12474000D01*
X16472667Y-12444000D02*
X16442667Y-12474000D01*
X16503500Y-10439000D02*
X16533500Y-10469000D01*
X16533500Y-10439000D02*
X16503500Y-10469000D01*
X16528500Y-9859000D02*
X16558500Y-9889000D01*
X16558500Y-9859000D02*
X16528500Y-9889000D01*
X16653500Y-10439000D02*
X16683500Y-10469000D01*
X16683500Y-10439000D02*
X16653500Y-10469000D01*
X16678500Y-9859000D02*
X16708500Y-9889000D01*
X16708500Y-9859000D02*
X16678500Y-9889000D01*
X16697071Y-7024000D02*
X16727071Y-7054000D01*
X16727071Y-7024000D02*
X16697071Y-7054000D01*
X16697071Y-12444000D02*
X16727071Y-12474000D01*
X16727071Y-12444000D02*
X16697071Y-12474000D01*
X16719214Y-10159000D02*
X16749214Y-10189000D01*
X16749214Y-10159000D02*
X16719214Y-10189000D01*
X16803500Y-10439000D02*
X16833500Y-10469000D01*
X16833500Y-10439000D02*
X16803500Y-10469000D01*
X16828500Y-9859000D02*
X16858500Y-9889000D01*
X16858500Y-9859000D02*
X16828500Y-9889000D01*
X16951476Y-7024000D02*
X16981476Y-7054000D01*
X16981476Y-7024000D02*
X16951476Y-7054000D01*
X16951476Y-12444000D02*
X16981476Y-12474000D01*
X16981476Y-12444000D02*
X16951476Y-12474000D01*
X16953500Y-10439000D02*
X16983500Y-10469000D01*
X16983500Y-10439000D02*
X16953500Y-10469000D01*
X16978500Y-9859000D02*
X17008500Y-9889000D01*
X17008500Y-9859000D02*
X16978500Y-9889000D01*
X17103500Y-10439000D02*
X17133500Y-10469000D01*
X17133500Y-10439000D02*
X17103500Y-10469000D01*
X17128500Y-9859000D02*
X17158500Y-9889000D01*
X17158500Y-9859000D02*
X17128500Y-9889000D01*
X17205881Y-7024000D02*
X17235881Y-7054000D01*
X17235881Y-7024000D02*
X17205881Y-7054000D01*
X17205881Y-12444000D02*
X17235881Y-12474000D01*
X17235881Y-12444000D02*
X17205881Y-12474000D01*
X17253500Y-10439000D02*
X17283500Y-10469000D01*
X17283500Y-10439000D02*
X17253500Y-10469000D01*
X17278500Y-9859000D02*
X17308500Y-9889000D01*
X17308500Y-9859000D02*
X17278500Y-9889000D01*
X17328500Y-9594000D02*
X17358500Y-9624000D01*
X17358500Y-9594000D02*
X17328500Y-9624000D01*
X17403500Y-10439000D02*
X17433500Y-10469000D01*
X17433500Y-10439000D02*
X17403500Y-10469000D01*
X17428500Y-9859000D02*
X17458500Y-9889000D01*
X17458500Y-9859000D02*
X17428500Y-9889000D01*
X17460286Y-7024000D02*
X17490286Y-7054000D01*
X17490286Y-7024000D02*
X17460286Y-7054000D01*
X17460286Y-12444000D02*
X17490286Y-12474000D01*
X17490286Y-12444000D02*
X17460286Y-12474000D01*
X17478500Y-9594000D02*
X17508500Y-9624000D01*
X17508500Y-9594000D02*
X17478500Y-9624000D01*
X17482429Y-10159000D02*
X17512429Y-10189000D01*
X17512429Y-10159000D02*
X17482429Y-10189000D01*
X17523500Y-11961500D02*
X17553500Y-11991500D01*
X17553500Y-11961500D02*
X17523500Y-11991500D01*
X17553500Y-10439000D02*
X17583500Y-10469000D01*
X17583500Y-10439000D02*
X17553500Y-10469000D01*
X17578500Y-9859000D02*
X17608500Y-9889000D01*
X17608500Y-9859000D02*
X17578500Y-9889000D01*
X17628500Y-9594000D02*
X17658500Y-9624000D01*
X17658500Y-9594000D02*
X17628500Y-9624000D01*
X17691000Y-10879000D02*
X17721000Y-10909000D01*
X17721000Y-10879000D02*
X17691000Y-10909000D01*
X17703500Y-10439000D02*
X17733500Y-10469000D01*
X17733500Y-10439000D02*
X17703500Y-10469000D01*
X17714691Y-7024000D02*
X17744691Y-7054000D01*
X17744691Y-7024000D02*
X17714691Y-7054000D01*
X17714691Y-12444000D02*
X17744691Y-12474000D01*
X17744691Y-12444000D02*
X17714691Y-12474000D01*
X17728500Y-9859000D02*
X17758500Y-9889000D01*
X17758500Y-9859000D02*
X17728500Y-9889000D01*
X17778500Y-9594000D02*
X17808500Y-9624000D01*
X17808500Y-9594000D02*
X17778500Y-9624000D01*
X17811000Y-11969000D02*
X17841000Y-11999000D01*
X17841000Y-11969000D02*
X17811000Y-11999000D01*
X17878500Y-9859000D02*
X17908500Y-9889000D01*
X17908500Y-9859000D02*
X17878500Y-9889000D01*
X17903500Y-10439000D02*
X17933500Y-10469000D01*
X17933500Y-10439000D02*
X17903500Y-10469000D01*
X17928500Y-9594000D02*
X17958500Y-9624000D01*
X17958500Y-9594000D02*
X17928500Y-9624000D01*
X17969095Y-7024000D02*
X17999095Y-7054000D01*
X17999095Y-7024000D02*
X17969095Y-7054000D01*
X17969095Y-12444000D02*
X17999095Y-12474000D01*
X17999095Y-12444000D02*
X17969095Y-12474000D01*
X18028500Y-9859000D02*
X18058500Y-9889000D01*
X18058500Y-9859000D02*
X18028500Y-9889000D01*
X18048500Y-10879000D02*
X18078500Y-10909000D01*
X18078500Y-10879000D02*
X18048500Y-10909000D01*
X18078500Y-9594000D02*
X18108500Y-9624000D01*
X18108500Y-9594000D02*
X18078500Y-9624000D01*
X18103500Y-10439000D02*
X18133500Y-10469000D01*
X18133500Y-10439000D02*
X18103500Y-10469000D01*
X18178500Y-9859000D02*
X18208500Y-9889000D01*
X18208500Y-9859000D02*
X18178500Y-9889000D01*
X18223500Y-7024000D02*
X18253500Y-7054000D01*
X18253500Y-7024000D02*
X18223500Y-7054000D01*
X18223500Y-12444000D02*
X18253500Y-12474000D01*
X18253500Y-12444000D02*
X18223500Y-12474000D01*
X18228500Y-9594000D02*
X18258500Y-9624000D01*
X18258500Y-9594000D02*
X18228500Y-9624000D01*
X18244691Y-10159000D02*
X18274691Y-10189000D01*
X18274691Y-10159000D02*
X18244691Y-10189000D01*
X18303500Y-10439000D02*
X18333500Y-10469000D01*
X18333500Y-10439000D02*
X18303500Y-10469000D01*
X18328500Y-9859000D02*
X18358500Y-9889000D01*
X18358500Y-9859000D02*
X18328500Y-9889000D01*
X18378500Y-9594000D02*
X18408500Y-9624000D01*
X18408500Y-9594000D02*
X18378500Y-9624000D01*
X18477905Y-7024000D02*
X18507905Y-7054000D01*
X18507905Y-7024000D02*
X18477905Y-7054000D01*
X18477905Y-12444000D02*
X18507905Y-12474000D01*
X18507905Y-12444000D02*
X18477905Y-12474000D01*
X18478500Y-9859000D02*
X18508500Y-9889000D01*
X18508500Y-9859000D02*
X18478500Y-9889000D01*
X18503500Y-10439000D02*
X18533500Y-10469000D01*
X18533500Y-10439000D02*
X18503500Y-10469000D01*
X18528500Y-9594000D02*
X18558500Y-9624000D01*
X18558500Y-9594000D02*
X18528500Y-9624000D01*
X18628500Y-9859000D02*
X18658500Y-9889000D01*
X18658500Y-9859000D02*
X18628500Y-9889000D01*
X18678500Y-9594000D02*
X18708500Y-9624000D01*
X18708500Y-9594000D02*
X18678500Y-9624000D01*
X18703500Y-10439000D02*
X18733500Y-10469000D01*
X18733500Y-10439000D02*
X18703500Y-10469000D01*
X18732310Y-7024000D02*
X18762310Y-7054000D01*
X18762310Y-7024000D02*
X18732310Y-7054000D01*
X18732310Y-12444000D02*
X18762310Y-12474000D01*
X18762310Y-12444000D02*
X18732310Y-12474000D01*
X18778500Y-9859000D02*
X18808500Y-9889000D01*
X18808500Y-9859000D02*
X18778500Y-9889000D01*
X18828500Y-9594000D02*
X18858500Y-9624000D01*
X18858500Y-9594000D02*
X18828500Y-9624000D01*
X18903500Y-10439000D02*
X18933500Y-10469000D01*
X18933500Y-10439000D02*
X18903500Y-10469000D01*
X18928500Y-9859000D02*
X18958500Y-9889000D01*
X18958500Y-9859000D02*
X18928500Y-9889000D01*
X18978500Y-9594000D02*
X19008500Y-9624000D01*
X19008500Y-9594000D02*
X18978500Y-9624000D01*
X18986714Y-7024000D02*
X19016714Y-7054000D01*
X19016714Y-7024000D02*
X18986714Y-7054000D01*
X18986714Y-12444000D02*
X19016714Y-12474000D01*
X19016714Y-12444000D02*
X18986714Y-12474000D01*
X19007905Y-10159000D02*
X19037905Y-10189000D01*
X19037905Y-10159000D02*
X19007905Y-10189000D01*
X19078500Y-9859000D02*
X19108500Y-9889000D01*
X19108500Y-9859000D02*
X19078500Y-9889000D01*
X19103500Y-10439000D02*
X19133500Y-10469000D01*
X19133500Y-10439000D02*
X19103500Y-10469000D01*
X19128500Y-9594000D02*
X19158500Y-9624000D01*
X19158500Y-9594000D02*
X19128500Y-9624000D01*
X19228500Y-9859000D02*
X19258500Y-9889000D01*
X19258500Y-9859000D02*
X19228500Y-9889000D01*
X19241000Y-11964000D02*
X19271000Y-11994000D01*
X19271000Y-11964000D02*
X19241000Y-11994000D01*
X19241119Y-7024000D02*
X19271119Y-7054000D01*
X19271119Y-7024000D02*
X19241119Y-7054000D01*
X19241119Y-12444000D02*
X19271119Y-12474000D01*
X19271119Y-12444000D02*
X19241119Y-12474000D01*
X19278500Y-9594000D02*
X19308500Y-9624000D01*
X19308500Y-9594000D02*
X19278500Y-9624000D01*
X19303500Y-10439000D02*
X19333500Y-10469000D01*
X19333500Y-10439000D02*
X19303500Y-10469000D01*
X19378500Y-9859000D02*
X19408500Y-9889000D01*
X19408500Y-9859000D02*
X19378500Y-9889000D01*
X19428500Y-9594000D02*
X19458500Y-9624000D01*
X19458500Y-9594000D02*
X19428500Y-9624000D01*
X19477750Y-11734000D02*
X19507750Y-11764000D01*
X19507750Y-11734000D02*
X19477750Y-11764000D01*
X19480250Y-11176500D02*
X19510250Y-11206500D01*
X19510250Y-11176500D02*
X19480250Y-11206500D01*
X19495524Y-7024000D02*
X19525524Y-7054000D01*
X19525524Y-7024000D02*
X19495524Y-7054000D01*
X19495524Y-12444000D02*
X19525524Y-12474000D01*
X19525524Y-12444000D02*
X19495524Y-12474000D01*
X19503500Y-10439000D02*
X19533500Y-10469000D01*
X19533500Y-10439000D02*
X19503500Y-10469000D01*
X19528500Y-9859000D02*
X19558500Y-9889000D01*
X19558500Y-9859000D02*
X19528500Y-9889000D01*
X19578500Y-9594000D02*
X19608500Y-9624000D01*
X19608500Y-9594000D02*
X19578500Y-9624000D01*
X19665250Y-11176500D02*
X19695250Y-11206500D01*
X19695250Y-11176500D02*
X19665250Y-11206500D01*
X19678500Y-9859000D02*
X19708500Y-9889000D01*
X19708500Y-9859000D02*
X19678500Y-9889000D01*
X19703500Y-10439000D02*
X19733500Y-10469000D01*
X19733500Y-10439000D02*
X19703500Y-10469000D01*
X19749929Y-7024000D02*
X19779929Y-7054000D01*
X19779929Y-7024000D02*
X19749929Y-7054000D01*
X19749929Y-12444000D02*
X19779929Y-12474000D01*
X19779929Y-12444000D02*
X19749929Y-12474000D01*
X19772667Y-10159000D02*
X19802667Y-10189000D01*
X19802667Y-10159000D02*
X19772667Y-10189000D01*
X19778500Y-9859000D02*
X19808500Y-9889000D01*
X19808500Y-9859000D02*
X19778500Y-9889000D01*
X19844000Y-11734000D02*
X19874000Y-11764000D01*
X19874000Y-11734000D02*
X19844000Y-11764000D01*
X19855250Y-11176500D02*
X19885250Y-11206500D01*
X19885250Y-11176500D02*
X19855250Y-11206500D01*
X20003500Y-10439000D02*
X20033500Y-10469000D01*
X20033500Y-10439000D02*
X20003500Y-10469000D01*
X20004333Y-7024000D02*
X20034333Y-7054000D01*
X20034333Y-7024000D02*
X20004333Y-7054000D01*
X20004333Y-12444000D02*
X20034333Y-12474000D01*
X20034333Y-12444000D02*
X20004333Y-12474000D01*
X20028500Y-9859000D02*
X20058500Y-9889000D01*
X20058500Y-9859000D02*
X20028500Y-9889000D01*
X20040250Y-11176500D02*
X20070250Y-11206500D01*
X20070250Y-11176500D02*
X20040250Y-11206500D01*
X20153500Y-10439000D02*
X20183500Y-10469000D01*
X20183500Y-10439000D02*
X20153500Y-10469000D01*
X20178500Y-9859000D02*
X20208500Y-9889000D01*
X20208500Y-9859000D02*
X20178500Y-9889000D01*
X20253500Y-9919000D02*
X20283500Y-9949000D01*
X20283500Y-9919000D02*
X20253500Y-9949000D01*
X20258738Y-7024000D02*
X20288738Y-7054000D01*
X20288738Y-7024000D02*
X20258738Y-7054000D01*
X20258738Y-12444000D02*
X20288738Y-12474000D01*
X20288738Y-12444000D02*
X20258738Y-12474000D01*
X20278500Y-9604000D02*
X20308500Y-9634000D01*
X20308500Y-9604000D02*
X20278500Y-9634000D01*
X20303500Y-10439000D02*
X20333500Y-10469000D01*
X20333500Y-10439000D02*
X20303500Y-10469000D01*
X20328500Y-9859000D02*
X20358500Y-9889000D01*
X20358500Y-9859000D02*
X20328500Y-9889000D01*
X20453500Y-10439000D02*
X20483500Y-10469000D01*
X20483500Y-10439000D02*
X20453500Y-10469000D01*
X20478500Y-9859000D02*
X20508500Y-9889000D01*
X20508500Y-9859000D02*
X20478500Y-9889000D01*
X20513143Y-7024000D02*
X20543143Y-7054000D01*
X20543143Y-7024000D02*
X20513143Y-7054000D01*
X20513143Y-12444000D02*
X20543143Y-12474000D01*
X20543143Y-12444000D02*
X20513143Y-12474000D01*
X20603500Y-10439000D02*
X20633500Y-10469000D01*
X20633500Y-10439000D02*
X20603500Y-10469000D01*
X20628500Y-9859000D02*
X20658500Y-9889000D01*
X20658500Y-9859000D02*
X20628500Y-9889000D01*
X20753500Y-10439000D02*
X20783500Y-10469000D01*
X20783500Y-10439000D02*
X20753500Y-10469000D01*
X20767548Y-7024000D02*
X20797548Y-7054000D01*
X20797548Y-7024000D02*
X20767548Y-7054000D01*
X20767548Y-12444000D02*
X20797548Y-12474000D01*
X20797548Y-12444000D02*
X20767548Y-12474000D01*
X20778500Y-9859000D02*
X20808500Y-9889000D01*
X20808500Y-9859000D02*
X20778500Y-9889000D01*
X20903500Y-10439000D02*
X20933500Y-10469000D01*
X20933500Y-10439000D02*
X20903500Y-10469000D01*
X20928500Y-9859000D02*
X20958500Y-9889000D01*
X20958500Y-9859000D02*
X20928500Y-9889000D01*
X21021952Y-7024000D02*
X21051952Y-7054000D01*
X21051952Y-7024000D02*
X21021952Y-7054000D01*
X21021952Y-12444000D02*
X21051952Y-12474000D01*
X21051952Y-12444000D02*
X21021952Y-12474000D01*
X21053500Y-10439000D02*
X21083500Y-10469000D01*
X21083500Y-10439000D02*
X21053500Y-10469000D01*
X21078500Y-9859000D02*
X21108500Y-9889000D01*
X21108500Y-9859000D02*
X21078500Y-9889000D01*
X21095500Y-10871500D02*
X21125500Y-10901500D01*
X21125500Y-10871500D02*
X21095500Y-10901500D01*
X21095500Y-10949000D02*
X21125500Y-10979000D01*
X21125500Y-10949000D02*
X21095500Y-10979000D01*
X21095500Y-11026500D02*
X21125500Y-11056500D01*
X21125500Y-11026500D02*
X21095500Y-11056500D01*
X21095500Y-11214000D02*
X21125500Y-11244000D01*
X21125500Y-11214000D02*
X21095500Y-11244000D01*
X21095500Y-11291500D02*
X21125500Y-11321500D01*
X21125500Y-11291500D02*
X21095500Y-11321500D01*
X21095500Y-11369000D02*
X21125500Y-11399000D01*
X21125500Y-11369000D02*
X21095500Y-11399000D01*
X21146000Y-11643000D02*
X21176000Y-11673000D01*
X21176000Y-11643000D02*
X21146000Y-11673000D01*
X21203500Y-10439000D02*
X21233500Y-10469000D01*
X21233500Y-10439000D02*
X21203500Y-10469000D01*
X21221000Y-11643000D02*
X21251000Y-11673000D01*
X21251000Y-11643000D02*
X21221000Y-11673000D01*
X21228500Y-9859000D02*
X21258500Y-9889000D01*
X21258500Y-9859000D02*
X21228500Y-9889000D01*
X21276357Y-7024000D02*
X21306357Y-7054000D01*
X21306357Y-7024000D02*
X21276357Y-7054000D01*
X21276357Y-12444000D02*
X21306357Y-12474000D01*
X21306357Y-12444000D02*
X21276357Y-12474000D01*
X21298143Y-10159000D02*
X21328143Y-10189000D01*
X21328143Y-10159000D02*
X21298143Y-10189000D01*
X21303500Y-11644000D02*
X21333500Y-11674000D01*
X21333500Y-11644000D02*
X21303500Y-11674000D01*
X21343500Y-12076500D02*
X21373500Y-12106500D01*
X21373500Y-12076500D02*
X21343500Y-12106500D01*
X21353500Y-10439000D02*
X21383500Y-10469000D01*
X21383500Y-10439000D02*
X21353500Y-10469000D01*
X21378500Y-9859000D02*
X21408500Y-9889000D01*
X21408500Y-9859000D02*
X21378500Y-9889000D01*
X21378500Y-11644000D02*
X21408500Y-11674000D01*
X21408500Y-11644000D02*
X21378500Y-11674000D01*
X21438000Y-10874000D02*
X21468000Y-10904000D01*
X21468000Y-10874000D02*
X21438000Y-10904000D01*
X21438000Y-11366500D02*
X21468000Y-11396500D01*
X21468000Y-11366500D02*
X21438000Y-11396500D01*
X21471000Y-11726500D02*
X21501000Y-11756500D01*
X21501000Y-11726500D02*
X21471000Y-11756500D01*
X21503500Y-10439000D02*
X21533500Y-10469000D01*
X21533500Y-10439000D02*
X21503500Y-10469000D01*
X21506000Y-11994000D02*
X21536000Y-12024000D01*
X21536000Y-11994000D02*
X21506000Y-12024000D01*
X21528500Y-9859000D02*
X21558500Y-9889000D01*
X21558500Y-9859000D02*
X21528500Y-9889000D01*
X21530762Y-7024000D02*
X21560762Y-7054000D01*
X21560762Y-7024000D02*
X21530762Y-7054000D01*
X21530762Y-12444000D02*
X21560762Y-12474000D01*
X21560762Y-12444000D02*
X21530762Y-12474000D01*
X21540500Y-11119000D02*
X21570500Y-11149000D01*
X21570500Y-11119000D02*
X21540500Y-11149000D01*
X21638500Y-11149000D02*
X21668500Y-11179000D01*
X21668500Y-11149000D02*
X21638500Y-11179000D01*
X21638500Y-11221500D02*
X21668500Y-11251500D01*
X21668500Y-11221500D02*
X21638500Y-11251500D01*
X21653500Y-10439000D02*
X21683500Y-10469000D01*
X21683500Y-10439000D02*
X21653500Y-10469000D01*
X21656000Y-11311500D02*
X21686000Y-11341500D01*
X21686000Y-11311500D02*
X21656000Y-11341500D01*
X21678500Y-9859000D02*
X21708500Y-9889000D01*
X21708500Y-9859000D02*
X21678500Y-9889000D01*
X21701000Y-11551500D02*
X21731000Y-11581500D01*
X21731000Y-11551500D02*
X21701000Y-11581500D01*
X21701000Y-11751500D02*
X21731000Y-11781500D01*
X21731000Y-11751500D02*
X21701000Y-11781500D01*
X21726000Y-12389000D02*
X21756000Y-12419000D01*
X21756000Y-12389000D02*
X21726000Y-12419000D01*
X21728500Y-10944000D02*
X21758500Y-10974000D01*
X21758500Y-10944000D02*
X21728500Y-10974000D01*
X21746841Y-11300659D02*
X21776841Y-11330659D01*
X21776841Y-11300659D02*
X21746841Y-11330659D01*
X21785167Y-7024000D02*
X21815167Y-7054000D01*
X21815167Y-7024000D02*
X21785167Y-7054000D01*
X21785167Y-12444000D02*
X21815167Y-12474000D01*
X21815167Y-12444000D02*
X21785167Y-12474000D01*
X21801000Y-11654000D02*
X21831000Y-11684000D01*
X21831000Y-11654000D02*
X21801000Y-11684000D01*
X21803500Y-10439000D02*
X21833500Y-10469000D01*
X21833500Y-10439000D02*
X21803500Y-10469000D01*
X21828500Y-9859000D02*
X21858500Y-9889000D01*
X21858500Y-9859000D02*
X21828500Y-9889000D01*
X21873500Y-12389000D02*
X21903500Y-12419000D01*
X21903500Y-12389000D02*
X21873500Y-12419000D01*
X21876000Y-10944000D02*
X21906000Y-10974000D01*
X21906000Y-10944000D02*
X21876000Y-10974000D01*
X21901000Y-11551500D02*
X21931000Y-11581500D01*
X21931000Y-11551500D02*
X21901000Y-11581500D01*
X21901000Y-11751500D02*
X21931000Y-11781500D01*
X21931000Y-11751500D02*
X21901000Y-11781500D01*
X21953500Y-10439000D02*
X21983500Y-10469000D01*
X21983500Y-10439000D02*
X21953500Y-10469000D01*
X21978500Y-9859000D02*
X22008500Y-9889000D01*
X22008500Y-9859000D02*
X21978500Y-9889000D01*
X22039571Y-7024000D02*
X22069571Y-7054000D01*
X22069571Y-7024000D02*
X22039571Y-7054000D01*
X22039571Y-12444000D02*
X22069571Y-12474000D01*
X22069571Y-12444000D02*
X22039571Y-12474000D01*
X22051000Y-10944000D02*
X22081000Y-10974000D01*
X22081000Y-10944000D02*
X22051000Y-10974000D01*
X22061714Y-10159000D02*
X22091714Y-10189000D01*
X22091714Y-10159000D02*
X22061714Y-10189000D01*
X22103500Y-10439000D02*
X22133500Y-10469000D01*
X22133500Y-10439000D02*
X22103500Y-10469000D01*
X22128500Y-9859000D02*
X22158500Y-9889000D01*
X22158500Y-9859000D02*
X22128500Y-9889000D01*
X22198500Y-10944000D02*
X22228500Y-10974000D01*
X22228500Y-10944000D02*
X22198500Y-10974000D01*
X22253500Y-10439000D02*
X22283500Y-10469000D01*
X22283500Y-10439000D02*
X22253500Y-10469000D01*
X22253500Y-12079000D02*
X22283500Y-12109000D01*
X22283500Y-12079000D02*
X22253500Y-12109000D01*
X22278500Y-9859000D02*
X22308500Y-9889000D01*
X22308500Y-9859000D02*
X22278500Y-9889000D01*
X22293976Y-7024000D02*
X22323976Y-7054000D01*
X22323976Y-7024000D02*
X22293976Y-7054000D01*
X22293976Y-12444000D02*
X22323976Y-12474000D01*
X22323976Y-12444000D02*
X22293976Y-12474000D01*
X22346000Y-11859000D02*
X22376000Y-11889000D01*
X22376000Y-11859000D02*
X22346000Y-11889000D01*
X22403500Y-10439000D02*
X22433500Y-10469000D01*
X22433500Y-10439000D02*
X22403500Y-10469000D01*
X22428500Y-9859000D02*
X22458500Y-9889000D01*
X22458500Y-9859000D02*
X22428500Y-9889000D01*
X22433500Y-11301500D02*
X22463500Y-11331500D01*
X22463500Y-11301500D02*
X22433500Y-11331500D01*
X22461000Y-11371500D02*
X22491000Y-11401500D01*
X22491000Y-11371500D02*
X22461000Y-11401500D01*
X22498500Y-11959000D02*
X22528500Y-11989000D01*
X22528500Y-11959000D02*
X22498500Y-11989000D01*
X22506000Y-11746500D02*
X22536000Y-11776500D01*
X22536000Y-11746500D02*
X22506000Y-11776500D01*
X22511000Y-11319000D02*
X22541000Y-11349000D01*
X22541000Y-11319000D02*
X22511000Y-11349000D01*
X22548381Y-7024000D02*
X22578381Y-7054000D01*
X22578381Y-7024000D02*
X22548381Y-7054000D01*
X22548381Y-12444000D02*
X22578381Y-12474000D01*
X22578381Y-12444000D02*
X22548381Y-12474000D01*
X22550286Y-7584000D02*
X22580286Y-7614000D01*
X22580286Y-7584000D02*
X22550286Y-7614000D01*
X22550286Y-8351500D02*
X22580286Y-8381500D01*
X22580286Y-8351500D02*
X22550286Y-8381500D01*
X22550286Y-9119000D02*
X22580286Y-9149000D01*
X22580286Y-9119000D02*
X22550286Y-9149000D01*
X22553500Y-10439000D02*
X22583500Y-10469000D01*
X22583500Y-10439000D02*
X22553500Y-10469000D01*
X22578500Y-9859000D02*
X22608500Y-9889000D01*
X22608500Y-9859000D02*
X22578500Y-9889000D01*
X22603500Y-12374000D02*
X22633500Y-12404000D01*
X22633500Y-12374000D02*
X22603500Y-12404000D01*
X22661000Y-10679000D02*
X22691000Y-10709000D01*
X22691000Y-10679000D02*
X22661000Y-10709000D01*
X22661000Y-10754000D02*
X22691000Y-10784000D01*
X22691000Y-10754000D02*
X22661000Y-10784000D01*
X22735167Y-10679000D02*
X22765167Y-10709000D01*
X22765167Y-10679000D02*
X22735167Y-10709000D01*
X22735167Y-10754000D02*
X22765167Y-10784000D01*
X22765167Y-10754000D02*
X22735167Y-10784000D01*
X22778500Y-11771500D02*
X22808500Y-11801500D01*
X22808500Y-11771500D02*
X22778500Y-11801500D01*
X22801000Y-11086500D02*
X22831000Y-11116500D01*
X22831000Y-11086500D02*
X22801000Y-11116500D01*
X22802786Y-7024000D02*
X22832786Y-7054000D01*
X22832786Y-7024000D02*
X22802786Y-7054000D01*
X22802786Y-12444000D02*
X22832786Y-12474000D01*
X22832786Y-12444000D02*
X22802786Y-12474000D01*
X22809333Y-10679000D02*
X22839333Y-10709000D01*
X22839333Y-10679000D02*
X22809333Y-10709000D01*
X22809333Y-10754000D02*
X22839333Y-10784000D01*
X22839333Y-10754000D02*
X22809333Y-10784000D01*
X22883500Y-10679000D02*
X22913500Y-10709000D01*
X22913500Y-10679000D02*
X22883500Y-10709000D01*
X22883500Y-10754000D02*
X22913500Y-10784000D01*
X22913500Y-10754000D02*
X22883500Y-10784000D01*
X22973500Y-10439000D02*
X23003500Y-10469000D01*
X23003500Y-10439000D02*
X22973500Y-10469000D01*
X22986000Y-12139000D02*
X23016000Y-12169000D01*
X23016000Y-12139000D02*
X22986000Y-12169000D01*
X23057190Y-7024000D02*
X23087190Y-7054000D01*
X23087190Y-7024000D02*
X23057190Y-7054000D01*
X23057190Y-12444000D02*
X23087190Y-12474000D01*
X23087190Y-12444000D02*
X23057190Y-12474000D01*
X23311595Y-7024000D02*
X23341595Y-7054000D01*
X23341595Y-7024000D02*
X23311595Y-7054000D01*
X23311595Y-12444000D02*
X23341595Y-12474000D01*
X23341595Y-12444000D02*
X23311595Y-12474000D01*
X23313500Y-7584000D02*
X23343500Y-7614000D01*
X23343500Y-7584000D02*
X23313500Y-7614000D01*
X23313500Y-8351500D02*
X23343500Y-8381500D01*
X23343500Y-8351500D02*
X23313500Y-8381500D01*
X23313500Y-9119000D02*
X23343500Y-9149000D01*
X23343500Y-9119000D02*
X23313500Y-9149000D01*
X23313500Y-9886500D02*
X23343500Y-9916500D01*
X23343500Y-9886500D02*
X23313500Y-9916500D01*
X23313500Y-10439000D02*
X23343500Y-10469000D01*
X23343500Y-10439000D02*
X23313500Y-10469000D01*
X23566000Y-7024000D02*
X23596000Y-7054000D01*
X23596000Y-7024000D02*
X23566000Y-7054000D01*
X23566000Y-7327333D02*
X23596000Y-7357333D01*
X23596000Y-7327333D02*
X23566000Y-7357333D01*
X23566000Y-7583167D02*
X23596000Y-7613167D01*
X23596000Y-7583167D02*
X23566000Y-7613167D01*
X23566000Y-7839000D02*
X23596000Y-7869000D01*
X23596000Y-7839000D02*
X23566000Y-7869000D01*
X23566000Y-8094833D02*
X23596000Y-8124833D01*
X23596000Y-8094833D02*
X23566000Y-8124833D01*
X23566000Y-8350667D02*
X23596000Y-8380667D01*
X23596000Y-8350667D02*
X23566000Y-8380667D01*
X23566000Y-8606500D02*
X23596000Y-8636500D01*
X23596000Y-8606500D02*
X23566000Y-8636500D01*
X23566000Y-8862333D02*
X23596000Y-8892333D01*
X23596000Y-8862333D02*
X23566000Y-8892333D01*
X23566000Y-9118167D02*
X23596000Y-9148167D01*
X23596000Y-9118167D02*
X23566000Y-9148167D01*
X23566000Y-9374000D02*
X23596000Y-9404000D01*
X23596000Y-9374000D02*
X23566000Y-9404000D01*
X23566000Y-9629833D02*
X23596000Y-9659833D01*
X23596000Y-9629833D02*
X23566000Y-9659833D01*
X23566000Y-9885667D02*
X23596000Y-9915667D01*
X23596000Y-9885667D02*
X23566000Y-9915667D01*
X23566000Y-10142000D02*
X23596000Y-10172000D01*
X23596000Y-10142000D02*
X23566000Y-10172000D01*
X23566000Y-10397333D02*
X23596000Y-10427333D01*
X23596000Y-10397333D02*
X23566000Y-10427333D01*
X23566000Y-10653167D02*
X23596000Y-10683167D01*
X23596000Y-10653167D02*
X23566000Y-10683167D01*
X23566000Y-10909000D02*
X23596000Y-10939000D01*
X23596000Y-10909000D02*
X23566000Y-10939000D01*
X23566000Y-11164833D02*
X23596000Y-11194833D01*
X23596000Y-11164833D02*
X23566000Y-11194833D01*
X23566000Y-11420667D02*
X23596000Y-11450667D01*
X23596000Y-11420667D02*
X23566000Y-11450667D01*
X23566000Y-11676500D02*
X23596000Y-11706500D01*
X23596000Y-11676500D02*
X23566000Y-11706500D01*
X23566000Y-11932333D02*
X23596000Y-11962333D01*
X23596000Y-11932333D02*
X23566000Y-11962333D01*
X23566000Y-12188167D02*
X23596000Y-12218167D01*
X23596000Y-12188167D02*
X23566000Y-12218167D01*
X23566000Y-12444000D02*
X23596000Y-12474000D01*
X23596000Y-12444000D02*
X23566000Y-12474000D01*
X22983000Y-11034500D02*
G75*
G02*
X22923000Y-11034500I-30000J0D01*
G01*
X22923000Y-11034500D02*
G75*
G02*
X22983000Y-11034500I30000J0D01*
G01*
X22898000Y-11064500D02*
X23008000Y-11064500D01*
X23008000Y-11004500D02*
G75*
G02*
X23008000Y-11064500I0J-30000D01*
G01*
X23008000Y-11004500D02*
X22898000Y-11004500D01*
X22898000Y-11004500D02*
G75*
G03*
X22898000Y-11064500I0J-30000D01*
G01*
X22983000Y-11898500D02*
G75*
G02*
X22923000Y-11898500I-30000J0D01*
G01*
X22923000Y-11898500D02*
G75*
G02*
X22983000Y-11898500I30000J0D01*
G01*
X22898000Y-11928500D02*
X23008000Y-11928500D01*
X23008000Y-11868500D02*
G75*
G02*
X23008000Y-11928500I0J-30000D01*
G01*
X23008000Y-11868500D02*
X22898000Y-11868500D01*
X22898000Y-11868500D02*
G75*
G03*
X22898000Y-11928500I0J-30000D01*
G01*
X23401000Y-11034500D02*
G75*
G02*
X23341000Y-11034500I-30000J0D01*
G01*
X23341000Y-11034500D02*
G75*
G02*
X23401000Y-11034500I30000J0D01*
G01*
X23331000Y-11064500D02*
X23411000Y-11064500D01*
X23411000Y-11004500D02*
G75*
G02*
X23411000Y-11064500I0J-30000D01*
G01*
X23411000Y-11004500D02*
X23331000Y-11004500D01*
X23331000Y-11004500D02*
G75*
G03*
X23331000Y-11064500I0J-30000D01*
G01*
X23401000Y-11898500D02*
G75*
G02*
X23341000Y-11898500I-30000J0D01*
G01*
X23341000Y-11898500D02*
G75*
G02*
X23401000Y-11898500I30000J0D01*
G01*
X23331000Y-11928500D02*
X23411000Y-11928500D01*
X23411000Y-11868500D02*
G75*
G02*
X23411000Y-11928500I0J-30000D01*
G01*
X23411000Y-11868500D02*
X23331000Y-11868500D01*
X23331000Y-11868500D02*
G75*
G03*
X23331000Y-11928500I0J-30000D01*
G01*
X7726000Y-9728000D02*
X7726000Y-9828000D01*
X7676000Y-9778000D02*
X7776000Y-9778000D01*
X7726000Y-9982000D02*
X7726000Y-10082000D01*
X7676000Y-10032000D02*
X7776000Y-10032000D01*
X7726000Y-10236000D02*
X7726000Y-10336000D01*
X7676000Y-10286000D02*
X7776000Y-10286000D01*
X7726000Y-10490000D02*
X7726000Y-10590000D01*
X7676000Y-10540000D02*
X7776000Y-10540000D01*
X15596000Y-9725500D02*
X15596000Y-9825500D01*
X15546000Y-9775500D02*
X15646000Y-9775500D01*
X15596000Y-9979500D02*
X15596000Y-10079500D01*
X15546000Y-10029500D02*
X15646000Y-10029500D01*
X15596000Y-10233500D02*
X15596000Y-10333500D01*
X15546000Y-10283500D02*
X15646000Y-10283500D01*
X15596000Y-10487500D02*
X15596000Y-10587500D01*
X15546000Y-10537500D02*
X15646000Y-10537500D01*
X20344500Y-11674000D02*
X20344500Y-11774000D01*
X20294500Y-11724000D02*
X20394500Y-11724000D01*
X20345500Y-11320500D02*
X20345500Y-11420500D01*
X20295500Y-11370500D02*
X20395500Y-11370500D01*
X20598500Y-11674000D02*
X20598500Y-11774000D01*
X20548500Y-11724000D02*
X20648500Y-11724000D01*
X20599500Y-11320500D02*
X20599500Y-11420500D01*
X20549500Y-11370500D02*
X20649500Y-11370500D01*
X20852500Y-11674000D02*
X20852500Y-11774000D01*
X20802500Y-11724000D02*
X20902500Y-11724000D01*
X20853500Y-11320500D02*
X20853500Y-11420500D01*
X20803500Y-11370500D02*
X20903500Y-11370500D01*
D13*
X8134962Y-11242462D02*
X8134962Y-11150538D01*
X8043038Y-11150538D01*
X8043038Y-11242462D01*
X8134962Y-11242462D01*
X8134962Y-11742462D02*
X8134962Y-11650538D01*
X8043038Y-11650538D01*
X8043038Y-11742462D01*
X8134962Y-11742462D01*
D11*
X7759277Y-12822984D02*
X7759277Y-12622984D01*
X7759277Y-12622984D02*
X7806896Y-12622984D01*
X7806896Y-12622984D02*
X7835467Y-12632508D01*
X7835467Y-12632508D02*
X7854515Y-12651555D01*
X7854515Y-12651555D02*
X7864039Y-12670603D01*
X7864039Y-12670603D02*
X7873562Y-12708698D01*
X7873562Y-12708698D02*
X7873562Y-12737269D01*
X7873562Y-12737269D02*
X7864039Y-12775365D01*
X7864039Y-12775365D02*
X7854515Y-12794412D01*
X7854515Y-12794412D02*
X7835467Y-12813460D01*
X7835467Y-12813460D02*
X7806896Y-12822984D01*
X7806896Y-12822984D02*
X7759277Y-12822984D01*
X7959277Y-12822984D02*
X7959277Y-12689650D01*
X7959277Y-12727746D02*
X7968801Y-12708698D01*
X7968801Y-12708698D02*
X7978324Y-12699174D01*
X7978324Y-12699174D02*
X7997372Y-12689650D01*
X7997372Y-12689650D02*
X8016420Y-12689650D01*
X8083086Y-12822984D02*
X8083086Y-12689650D01*
X8083086Y-12622984D02*
X8073562Y-12632508D01*
X8073562Y-12632508D02*
X8083086Y-12642031D01*
X8083086Y-12642031D02*
X8092610Y-12632508D01*
X8092610Y-12632508D02*
X8083086Y-12622984D01*
X8083086Y-12622984D02*
X8083086Y-12642031D01*
X8206896Y-12822984D02*
X8187848Y-12813460D01*
X8187848Y-12813460D02*
X8178324Y-12794412D01*
X8178324Y-12794412D02*
X8178324Y-12622984D01*
X8311658Y-12822984D02*
X8292610Y-12813460D01*
X8292610Y-12813460D02*
X8283086Y-12794412D01*
X8283086Y-12794412D02*
X8283086Y-12622984D01*
X8540229Y-12822984D02*
X8540229Y-12622984D01*
X8540229Y-12622984D02*
X8606896Y-12765841D01*
X8606896Y-12765841D02*
X8673563Y-12622984D01*
X8673563Y-12622984D02*
X8673563Y-12822984D01*
X8854515Y-12822984D02*
X8854515Y-12718222D01*
X8854515Y-12718222D02*
X8844991Y-12699174D01*
X8844991Y-12699174D02*
X8825944Y-12689650D01*
X8825944Y-12689650D02*
X8787848Y-12689650D01*
X8787848Y-12689650D02*
X8768801Y-12699174D01*
X8854515Y-12813460D02*
X8835467Y-12822984D01*
X8835467Y-12822984D02*
X8787848Y-12822984D01*
X8787848Y-12822984D02*
X8768801Y-12813460D01*
X8768801Y-12813460D02*
X8759277Y-12794412D01*
X8759277Y-12794412D02*
X8759277Y-12775365D01*
X8759277Y-12775365D02*
X8768801Y-12756317D01*
X8768801Y-12756317D02*
X8787848Y-12746793D01*
X8787848Y-12746793D02*
X8835467Y-12746793D01*
X8835467Y-12746793D02*
X8854515Y-12737269D01*
X8949753Y-12689650D02*
X8949753Y-12889650D01*
X8949753Y-12699174D02*
X8968801Y-12689650D01*
X8968801Y-12689650D02*
X9006896Y-12689650D01*
X9006896Y-12689650D02*
X9025944Y-12699174D01*
X9025944Y-12699174D02*
X9035467Y-12708698D01*
X9035467Y-12708698D02*
X9044991Y-12727746D01*
X9044991Y-12727746D02*
X9044991Y-12784888D01*
X9044991Y-12784888D02*
X9035467Y-12803936D01*
X9035467Y-12803936D02*
X9025944Y-12813460D01*
X9025944Y-12813460D02*
X9006896Y-12822984D01*
X9006896Y-12822984D02*
X8968801Y-12822984D01*
X8968801Y-12822984D02*
X8949753Y-12813460D01*
X9130705Y-12803936D02*
X9140229Y-12813460D01*
X9140229Y-12813460D02*
X9130705Y-12822984D01*
X9130705Y-12822984D02*
X9121182Y-12813460D01*
X9121182Y-12813460D02*
X9130705Y-12803936D01*
X9130705Y-12803936D02*
X9130705Y-12822984D01*
X9130705Y-12699174D02*
X9140229Y-12708698D01*
X9140229Y-12708698D02*
X9130705Y-12718222D01*
X9130705Y-12718222D02*
X9121182Y-12708698D01*
X9121182Y-12708698D02*
X9130705Y-12699174D01*
X9130705Y-12699174D02*
X9130705Y-12718222D01*
D12*
X7468500Y-13136500D02*
X7498500Y-13166500D01*
X7498500Y-13136500D02*
X7468500Y-13166500D01*
D11*
X7797372Y-13042984D02*
X7816420Y-13042984D01*
X7816420Y-13042984D02*
X7835467Y-13052508D01*
X7835467Y-13052508D02*
X7844991Y-13062031D01*
X7844991Y-13062031D02*
X7854515Y-13081079D01*
X7854515Y-13081079D02*
X7864039Y-13119174D01*
X7864039Y-13119174D02*
X7864039Y-13166793D01*
X7864039Y-13166793D02*
X7854515Y-13204888D01*
X7854515Y-13204888D02*
X7844991Y-13223936D01*
X7844991Y-13223936D02*
X7835467Y-13233460D01*
X7835467Y-13233460D02*
X7816420Y-13242984D01*
X7816420Y-13242984D02*
X7797372Y-13242984D01*
X7797372Y-13242984D02*
X7778324Y-13233460D01*
X7778324Y-13233460D02*
X7768801Y-13223936D01*
X7768801Y-13223936D02*
X7759277Y-13204888D01*
X7759277Y-13204888D02*
X7749753Y-13166793D01*
X7749753Y-13166793D02*
X7749753Y-13119174D01*
X7749753Y-13119174D02*
X7759277Y-13081079D01*
X7759277Y-13081079D02*
X7768801Y-13062031D01*
X7768801Y-13062031D02*
X7778324Y-13052508D01*
X7778324Y-13052508D02*
X7797372Y-13042984D01*
X7949753Y-13223936D02*
X7959277Y-13233460D01*
X7959277Y-13233460D02*
X7949753Y-13242984D01*
X7949753Y-13242984D02*
X7940229Y-13233460D01*
X7940229Y-13233460D02*
X7949753Y-13223936D01*
X7949753Y-13223936D02*
X7949753Y-13242984D01*
X8025943Y-13042984D02*
X8149753Y-13042984D01*
X8149753Y-13042984D02*
X8083086Y-13119174D01*
X8083086Y-13119174D02*
X8111658Y-13119174D01*
X8111658Y-13119174D02*
X8130705Y-13128698D01*
X8130705Y-13128698D02*
X8140229Y-13138222D01*
X8140229Y-13138222D02*
X8149753Y-13157269D01*
X8149753Y-13157269D02*
X8149753Y-13204888D01*
X8149753Y-13204888D02*
X8140229Y-13223936D01*
X8140229Y-13223936D02*
X8130705Y-13233460D01*
X8130705Y-13233460D02*
X8111658Y-13242984D01*
X8111658Y-13242984D02*
X8054515Y-13242984D01*
X8054515Y-13242984D02*
X8035467Y-13233460D01*
X8035467Y-13233460D02*
X8025943Y-13223936D01*
X8273562Y-13042984D02*
X8292610Y-13042984D01*
X8292610Y-13042984D02*
X8311658Y-13052508D01*
X8311658Y-13052508D02*
X8321182Y-13062031D01*
X8321182Y-13062031D02*
X8330705Y-13081079D01*
X8330705Y-13081079D02*
X8340229Y-13119174D01*
X8340229Y-13119174D02*
X8340229Y-13166793D01*
X8340229Y-13166793D02*
X8330705Y-13204888D01*
X8330705Y-13204888D02*
X8321182Y-13223936D01*
X8321182Y-13223936D02*
X8311658Y-13233460D01*
X8311658Y-13233460D02*
X8292610Y-13242984D01*
X8292610Y-13242984D02*
X8273562Y-13242984D01*
X8273562Y-13242984D02*
X8254515Y-13233460D01*
X8254515Y-13233460D02*
X8244991Y-13223936D01*
X8244991Y-13223936D02*
X8235467Y-13204888D01*
X8235467Y-13204888D02*
X8225943Y-13166793D01*
X8225943Y-13166793D02*
X8225943Y-13119174D01*
X8225943Y-13119174D02*
X8235467Y-13081079D01*
X8235467Y-13081079D02*
X8244991Y-13062031D01*
X8244991Y-13062031D02*
X8254515Y-13052508D01*
X8254515Y-13052508D02*
X8273562Y-13042984D01*
X8464039Y-13042984D02*
X8483086Y-13042984D01*
X8483086Y-13042984D02*
X8502134Y-13052508D01*
X8502134Y-13052508D02*
X8511658Y-13062031D01*
X8511658Y-13062031D02*
X8521182Y-13081079D01*
X8521182Y-13081079D02*
X8530705Y-13119174D01*
X8530705Y-13119174D02*
X8530705Y-13166793D01*
X8530705Y-13166793D02*
X8521182Y-13204888D01*
X8521182Y-13204888D02*
X8511658Y-13223936D01*
X8511658Y-13223936D02*
X8502134Y-13233460D01*
X8502134Y-13233460D02*
X8483086Y-13242984D01*
X8483086Y-13242984D02*
X8464039Y-13242984D01*
X8464039Y-13242984D02*
X8444991Y-13233460D01*
X8444991Y-13233460D02*
X8435467Y-13223936D01*
X8435467Y-13223936D02*
X8425944Y-13204888D01*
X8425944Y-13204888D02*
X8416420Y-13166793D01*
X8416420Y-13166793D02*
X8416420Y-13119174D01*
X8416420Y-13119174D02*
X8425944Y-13081079D01*
X8425944Y-13081079D02*
X8435467Y-13062031D01*
X8435467Y-13062031D02*
X8444991Y-13052508D01*
X8444991Y-13052508D02*
X8464039Y-13042984D01*
X8616420Y-13242984D02*
X8616420Y-13109650D01*
X8616420Y-13128698D02*
X8625944Y-13119174D01*
X8625944Y-13119174D02*
X8644991Y-13109650D01*
X8644991Y-13109650D02*
X8673563Y-13109650D01*
X8673563Y-13109650D02*
X8692610Y-13119174D01*
X8692610Y-13119174D02*
X8702134Y-13138222D01*
X8702134Y-13138222D02*
X8702134Y-13242984D01*
X8702134Y-13138222D02*
X8711658Y-13119174D01*
X8711658Y-13119174D02*
X8730705Y-13109650D01*
X8730705Y-13109650D02*
X8759277Y-13109650D01*
X8759277Y-13109650D02*
X8778325Y-13119174D01*
X8778325Y-13119174D02*
X8787848Y-13138222D01*
X8787848Y-13138222D02*
X8787848Y-13242984D01*
X8883086Y-13242984D02*
X8883086Y-13109650D01*
X8883086Y-13128698D02*
X8892610Y-13119174D01*
X8892610Y-13119174D02*
X8911658Y-13109650D01*
X8911658Y-13109650D02*
X8940229Y-13109650D01*
X8940229Y-13109650D02*
X8959277Y-13119174D01*
X8959277Y-13119174D02*
X8968801Y-13138222D01*
X8968801Y-13138222D02*
X8968801Y-13242984D01*
X8968801Y-13138222D02*
X8978325Y-13119174D01*
X8978325Y-13119174D02*
X8997372Y-13109650D01*
X8997372Y-13109650D02*
X9025944Y-13109650D01*
X9025944Y-13109650D02*
X9044991Y-13119174D01*
X9044991Y-13119174D02*
X9054515Y-13138222D01*
X9054515Y-13138222D02*
X9054515Y-13242984D01*
X9444991Y-13033460D02*
X9273563Y-13290603D01*
X9702134Y-13042984D02*
X9721182Y-13042984D01*
X9721182Y-13042984D02*
X9740229Y-13052508D01*
X9740229Y-13052508D02*
X9749753Y-13062031D01*
X9749753Y-13062031D02*
X9759277Y-13081079D01*
X9759277Y-13081079D02*
X9768801Y-13119174D01*
X9768801Y-13119174D02*
X9768801Y-13166793D01*
X9768801Y-13166793D02*
X9759277Y-13204888D01*
X9759277Y-13204888D02*
X9749753Y-13223936D01*
X9749753Y-13223936D02*
X9740229Y-13233460D01*
X9740229Y-13233460D02*
X9721182Y-13242984D01*
X9721182Y-13242984D02*
X9702134Y-13242984D01*
X9702134Y-13242984D02*
X9683087Y-13233460D01*
X9683087Y-13233460D02*
X9673563Y-13223936D01*
X9673563Y-13223936D02*
X9664039Y-13204888D01*
X9664039Y-13204888D02*
X9654515Y-13166793D01*
X9654515Y-13166793D02*
X9654515Y-13119174D01*
X9654515Y-13119174D02*
X9664039Y-13081079D01*
X9664039Y-13081079D02*
X9673563Y-13062031D01*
X9673563Y-13062031D02*
X9683087Y-13052508D01*
X9683087Y-13052508D02*
X9702134Y-13042984D01*
X9854515Y-13223936D02*
X9864039Y-13233460D01*
X9864039Y-13233460D02*
X9854515Y-13242984D01*
X9854515Y-13242984D02*
X9844991Y-13233460D01*
X9844991Y-13233460D02*
X9854515Y-13223936D01*
X9854515Y-13223936D02*
X9854515Y-13242984D01*
X9987848Y-13042984D02*
X10006896Y-13042984D01*
X10006896Y-13042984D02*
X10025944Y-13052508D01*
X10025944Y-13052508D02*
X10035468Y-13062031D01*
X10035468Y-13062031D02*
X10044991Y-13081079D01*
X10044991Y-13081079D02*
X10054515Y-13119174D01*
X10054515Y-13119174D02*
X10054515Y-13166793D01*
X10054515Y-13166793D02*
X10044991Y-13204888D01*
X10044991Y-13204888D02*
X10035468Y-13223936D01*
X10035468Y-13223936D02*
X10025944Y-13233460D01*
X10025944Y-13233460D02*
X10006896Y-13242984D01*
X10006896Y-13242984D02*
X9987848Y-13242984D01*
X9987848Y-13242984D02*
X9968801Y-13233460D01*
X9968801Y-13233460D02*
X9959277Y-13223936D01*
X9959277Y-13223936D02*
X9949753Y-13204888D01*
X9949753Y-13204888D02*
X9940229Y-13166793D01*
X9940229Y-13166793D02*
X9940229Y-13119174D01*
X9940229Y-13119174D02*
X9949753Y-13081079D01*
X9949753Y-13081079D02*
X9959277Y-13062031D01*
X9959277Y-13062031D02*
X9968801Y-13052508D01*
X9968801Y-13052508D02*
X9987848Y-13042984D01*
X10244991Y-13242984D02*
X10130706Y-13242984D01*
X10187848Y-13242984D02*
X10187848Y-13042984D01*
X10187848Y-13042984D02*
X10168801Y-13071555D01*
X10168801Y-13071555D02*
X10149753Y-13090603D01*
X10149753Y-13090603D02*
X10130706Y-13100127D01*
X10435468Y-13242984D02*
X10321182Y-13242984D01*
X10378325Y-13242984D02*
X10378325Y-13042984D01*
X10378325Y-13042984D02*
X10359277Y-13071555D01*
X10359277Y-13071555D02*
X10340229Y-13090603D01*
X10340229Y-13090603D02*
X10321182Y-13100127D01*
X10549753Y-13128698D02*
X10530706Y-13119174D01*
X10530706Y-13119174D02*
X10521182Y-13109650D01*
X10521182Y-13109650D02*
X10511658Y-13090603D01*
X10511658Y-13090603D02*
X10511658Y-13081079D01*
X10511658Y-13081079D02*
X10521182Y-13062031D01*
X10521182Y-13062031D02*
X10530706Y-13052508D01*
X10530706Y-13052508D02*
X10549753Y-13042984D01*
X10549753Y-13042984D02*
X10587849Y-13042984D01*
X10587849Y-13042984D02*
X10606896Y-13052508D01*
X10606896Y-13052508D02*
X10616420Y-13062031D01*
X10616420Y-13062031D02*
X10625944Y-13081079D01*
X10625944Y-13081079D02*
X10625944Y-13090603D01*
X10625944Y-13090603D02*
X10616420Y-13109650D01*
X10616420Y-13109650D02*
X10606896Y-13119174D01*
X10606896Y-13119174D02*
X10587849Y-13128698D01*
X10587849Y-13128698D02*
X10549753Y-13128698D01*
X10549753Y-13128698D02*
X10530706Y-13138222D01*
X10530706Y-13138222D02*
X10521182Y-13147746D01*
X10521182Y-13147746D02*
X10511658Y-13166793D01*
X10511658Y-13166793D02*
X10511658Y-13204888D01*
X10511658Y-13204888D02*
X10521182Y-13223936D01*
X10521182Y-13223936D02*
X10530706Y-13233460D01*
X10530706Y-13233460D02*
X10549753Y-13242984D01*
X10549753Y-13242984D02*
X10587849Y-13242984D01*
X10587849Y-13242984D02*
X10606896Y-13233460D01*
X10606896Y-13233460D02*
X10616420Y-13223936D01*
X10616420Y-13223936D02*
X10625944Y-13204888D01*
X10625944Y-13204888D02*
X10625944Y-13166793D01*
X10625944Y-13166793D02*
X10616420Y-13147746D01*
X10616420Y-13147746D02*
X10606896Y-13138222D01*
X10606896Y-13138222D02*
X10587849Y-13128698D01*
X10702134Y-13042984D02*
X10702134Y-13081079D01*
X10778325Y-13042984D02*
X10778325Y-13081079D01*
X11073563Y-13319174D02*
X11064039Y-13309650D01*
X11064039Y-13309650D02*
X11044991Y-13281079D01*
X11044991Y-13281079D02*
X11035468Y-13262031D01*
X11035468Y-13262031D02*
X11025944Y-13233460D01*
X11025944Y-13233460D02*
X11016420Y-13185841D01*
X11016420Y-13185841D02*
X11016420Y-13147746D01*
X11016420Y-13147746D02*
X11025944Y-13100127D01*
X11025944Y-13100127D02*
X11035468Y-13071555D01*
X11035468Y-13071555D02*
X11044991Y-13052508D01*
X11044991Y-13052508D02*
X11064039Y-13023936D01*
X11064039Y-13023936D02*
X11073563Y-13014412D01*
X11244991Y-13042984D02*
X11149753Y-13042984D01*
X11149753Y-13042984D02*
X11140230Y-13138222D01*
X11140230Y-13138222D02*
X11149753Y-13128698D01*
X11149753Y-13128698D02*
X11168801Y-13119174D01*
X11168801Y-13119174D02*
X11216420Y-13119174D01*
X11216420Y-13119174D02*
X11235468Y-13128698D01*
X11235468Y-13128698D02*
X11244991Y-13138222D01*
X11244991Y-13138222D02*
X11254515Y-13157269D01*
X11254515Y-13157269D02*
X11254515Y-13204888D01*
X11254515Y-13204888D02*
X11244991Y-13223936D01*
X11244991Y-13223936D02*
X11235468Y-13233460D01*
X11235468Y-13233460D02*
X11216420Y-13242984D01*
X11216420Y-13242984D02*
X11168801Y-13242984D01*
X11168801Y-13242984D02*
X11149753Y-13233460D01*
X11149753Y-13233460D02*
X11140230Y-13223936D01*
X11330706Y-13062031D02*
X11340229Y-13052508D01*
X11340229Y-13052508D02*
X11359277Y-13042984D01*
X11359277Y-13042984D02*
X11406896Y-13042984D01*
X11406896Y-13042984D02*
X11425944Y-13052508D01*
X11425944Y-13052508D02*
X11435468Y-13062031D01*
X11435468Y-13062031D02*
X11444991Y-13081079D01*
X11444991Y-13081079D02*
X11444991Y-13100127D01*
X11444991Y-13100127D02*
X11435468Y-13128698D01*
X11435468Y-13128698D02*
X11321182Y-13242984D01*
X11321182Y-13242984D02*
X11444991Y-13242984D01*
X11521182Y-13062031D02*
X11530706Y-13052508D01*
X11530706Y-13052508D02*
X11549753Y-13042984D01*
X11549753Y-13042984D02*
X11597372Y-13042984D01*
X11597372Y-13042984D02*
X11616420Y-13052508D01*
X11616420Y-13052508D02*
X11625944Y-13062031D01*
X11625944Y-13062031D02*
X11635468Y-13081079D01*
X11635468Y-13081079D02*
X11635468Y-13100127D01*
X11635468Y-13100127D02*
X11625944Y-13128698D01*
X11625944Y-13128698D02*
X11511658Y-13242984D01*
X11511658Y-13242984D02*
X11635468Y-13242984D01*
X11873563Y-13242984D02*
X11873563Y-13042984D01*
X11959277Y-13242984D02*
X11959277Y-13138222D01*
X11959277Y-13138222D02*
X11949753Y-13119174D01*
X11949753Y-13119174D02*
X11930706Y-13109650D01*
X11930706Y-13109650D02*
X11902134Y-13109650D01*
X11902134Y-13109650D02*
X11883087Y-13119174D01*
X11883087Y-13119174D02*
X11873563Y-13128698D01*
X12083087Y-13242984D02*
X12064039Y-13233460D01*
X12064039Y-13233460D02*
X12054515Y-13223936D01*
X12054515Y-13223936D02*
X12044991Y-13204888D01*
X12044991Y-13204888D02*
X12044991Y-13147746D01*
X12044991Y-13147746D02*
X12054515Y-13128698D01*
X12054515Y-13128698D02*
X12064039Y-13119174D01*
X12064039Y-13119174D02*
X12083087Y-13109650D01*
X12083087Y-13109650D02*
X12111658Y-13109650D01*
X12111658Y-13109650D02*
X12130706Y-13119174D01*
X12130706Y-13119174D02*
X12140230Y-13128698D01*
X12140230Y-13128698D02*
X12149753Y-13147746D01*
X12149753Y-13147746D02*
X12149753Y-13204888D01*
X12149753Y-13204888D02*
X12140230Y-13223936D01*
X12140230Y-13223936D02*
X12130706Y-13233460D01*
X12130706Y-13233460D02*
X12111658Y-13242984D01*
X12111658Y-13242984D02*
X12083087Y-13242984D01*
X12264039Y-13242984D02*
X12244991Y-13233460D01*
X12244991Y-13233460D02*
X12235468Y-13214412D01*
X12235468Y-13214412D02*
X12235468Y-13042984D01*
X12416420Y-13233460D02*
X12397372Y-13242984D01*
X12397372Y-13242984D02*
X12359277Y-13242984D01*
X12359277Y-13242984D02*
X12340230Y-13233460D01*
X12340230Y-13233460D02*
X12330706Y-13214412D01*
X12330706Y-13214412D02*
X12330706Y-13138222D01*
X12330706Y-13138222D02*
X12340230Y-13119174D01*
X12340230Y-13119174D02*
X12359277Y-13109650D01*
X12359277Y-13109650D02*
X12397372Y-13109650D01*
X12397372Y-13109650D02*
X12416420Y-13119174D01*
X12416420Y-13119174D02*
X12425944Y-13138222D01*
X12425944Y-13138222D02*
X12425944Y-13157269D01*
X12425944Y-13157269D02*
X12330706Y-13176317D01*
X12502134Y-13233460D02*
X12521182Y-13242984D01*
X12521182Y-13242984D02*
X12559277Y-13242984D01*
X12559277Y-13242984D02*
X12578325Y-13233460D01*
X12578325Y-13233460D02*
X12587849Y-13214412D01*
X12587849Y-13214412D02*
X12587849Y-13204888D01*
X12587849Y-13204888D02*
X12578325Y-13185841D01*
X12578325Y-13185841D02*
X12559277Y-13176317D01*
X12559277Y-13176317D02*
X12530706Y-13176317D01*
X12530706Y-13176317D02*
X12511658Y-13166793D01*
X12511658Y-13166793D02*
X12502134Y-13147746D01*
X12502134Y-13147746D02*
X12502134Y-13138222D01*
X12502134Y-13138222D02*
X12511658Y-13119174D01*
X12511658Y-13119174D02*
X12530706Y-13109650D01*
X12530706Y-13109650D02*
X12559277Y-13109650D01*
X12559277Y-13109650D02*
X12578325Y-13119174D01*
X12654515Y-13319174D02*
X12664039Y-13309650D01*
X12664039Y-13309650D02*
X12683087Y-13281079D01*
X12683087Y-13281079D02*
X12692611Y-13262031D01*
X12692611Y-13262031D02*
X12702134Y-13233460D01*
X12702134Y-13233460D02*
X12711658Y-13185841D01*
X12711658Y-13185841D02*
X12711658Y-13147746D01*
X12711658Y-13147746D02*
X12702134Y-13100127D01*
X12702134Y-13100127D02*
X12692611Y-13071555D01*
X12692611Y-13071555D02*
X12683087Y-13052508D01*
X12683087Y-13052508D02*
X12664039Y-13023936D01*
X12664039Y-13023936D02*
X12654515Y-13014412D01*
D12*
X7498500Y-13415500D02*
G75*
G02*
X7438500Y-13415500I-30000J0D01*
G01*
X7438500Y-13415500D02*
G75*
G02*
X7498500Y-13415500I30000J0D01*
G01*
D11*
X7797372Y-13306984D02*
X7816420Y-13306984D01*
X7816420Y-13306984D02*
X7835467Y-13316508D01*
X7835467Y-13316508D02*
X7844991Y-13326031D01*
X7844991Y-13326031D02*
X7854515Y-13345079D01*
X7854515Y-13345079D02*
X7864039Y-13383174D01*
X7864039Y-13383174D02*
X7864039Y-13430793D01*
X7864039Y-13430793D02*
X7854515Y-13468888D01*
X7854515Y-13468888D02*
X7844991Y-13487936D01*
X7844991Y-13487936D02*
X7835467Y-13497460D01*
X7835467Y-13497460D02*
X7816420Y-13506984D01*
X7816420Y-13506984D02*
X7797372Y-13506984D01*
X7797372Y-13506984D02*
X7778324Y-13497460D01*
X7778324Y-13497460D02*
X7768801Y-13487936D01*
X7768801Y-13487936D02*
X7759277Y-13468888D01*
X7759277Y-13468888D02*
X7749753Y-13430793D01*
X7749753Y-13430793D02*
X7749753Y-13383174D01*
X7749753Y-13383174D02*
X7759277Y-13345079D01*
X7759277Y-13345079D02*
X7768801Y-13326031D01*
X7768801Y-13326031D02*
X7778324Y-13316508D01*
X7778324Y-13316508D02*
X7797372Y-13306984D01*
X7949753Y-13487936D02*
X7959277Y-13497460D01*
X7959277Y-13497460D02*
X7949753Y-13506984D01*
X7949753Y-13506984D02*
X7940229Y-13497460D01*
X7940229Y-13497460D02*
X7949753Y-13487936D01*
X7949753Y-13487936D02*
X7949753Y-13506984D01*
X8130705Y-13306984D02*
X8092610Y-13306984D01*
X8092610Y-13306984D02*
X8073562Y-13316508D01*
X8073562Y-13316508D02*
X8064039Y-13326031D01*
X8064039Y-13326031D02*
X8044991Y-13354603D01*
X8044991Y-13354603D02*
X8035467Y-13392698D01*
X8035467Y-13392698D02*
X8035467Y-13468888D01*
X8035467Y-13468888D02*
X8044991Y-13487936D01*
X8044991Y-13487936D02*
X8054515Y-13497460D01*
X8054515Y-13497460D02*
X8073562Y-13506984D01*
X8073562Y-13506984D02*
X8111658Y-13506984D01*
X8111658Y-13506984D02*
X8130705Y-13497460D01*
X8130705Y-13497460D02*
X8140229Y-13487936D01*
X8140229Y-13487936D02*
X8149753Y-13468888D01*
X8149753Y-13468888D02*
X8149753Y-13421269D01*
X8149753Y-13421269D02*
X8140229Y-13402222D01*
X8140229Y-13402222D02*
X8130705Y-13392698D01*
X8130705Y-13392698D02*
X8111658Y-13383174D01*
X8111658Y-13383174D02*
X8073562Y-13383174D01*
X8073562Y-13383174D02*
X8054515Y-13392698D01*
X8054515Y-13392698D02*
X8044991Y-13402222D01*
X8044991Y-13402222D02*
X8035467Y-13421269D01*
X8273562Y-13306984D02*
X8292610Y-13306984D01*
X8292610Y-13306984D02*
X8311658Y-13316508D01*
X8311658Y-13316508D02*
X8321182Y-13326031D01*
X8321182Y-13326031D02*
X8330705Y-13345079D01*
X8330705Y-13345079D02*
X8340229Y-13383174D01*
X8340229Y-13383174D02*
X8340229Y-13430793D01*
X8340229Y-13430793D02*
X8330705Y-13468888D01*
X8330705Y-13468888D02*
X8321182Y-13487936D01*
X8321182Y-13487936D02*
X8311658Y-13497460D01*
X8311658Y-13497460D02*
X8292610Y-13506984D01*
X8292610Y-13506984D02*
X8273562Y-13506984D01*
X8273562Y-13506984D02*
X8254515Y-13497460D01*
X8254515Y-13497460D02*
X8244991Y-13487936D01*
X8244991Y-13487936D02*
X8235467Y-13468888D01*
X8235467Y-13468888D02*
X8225943Y-13430793D01*
X8225943Y-13430793D02*
X8225943Y-13383174D01*
X8225943Y-13383174D02*
X8235467Y-13345079D01*
X8235467Y-13345079D02*
X8244991Y-13326031D01*
X8244991Y-13326031D02*
X8254515Y-13316508D01*
X8254515Y-13316508D02*
X8273562Y-13306984D01*
X8464039Y-13306984D02*
X8483086Y-13306984D01*
X8483086Y-13306984D02*
X8502134Y-13316508D01*
X8502134Y-13316508D02*
X8511658Y-13326031D01*
X8511658Y-13326031D02*
X8521182Y-13345079D01*
X8521182Y-13345079D02*
X8530705Y-13383174D01*
X8530705Y-13383174D02*
X8530705Y-13430793D01*
X8530705Y-13430793D02*
X8521182Y-13468888D01*
X8521182Y-13468888D02*
X8511658Y-13487936D01*
X8511658Y-13487936D02*
X8502134Y-13497460D01*
X8502134Y-13497460D02*
X8483086Y-13506984D01*
X8483086Y-13506984D02*
X8464039Y-13506984D01*
X8464039Y-13506984D02*
X8444991Y-13497460D01*
X8444991Y-13497460D02*
X8435467Y-13487936D01*
X8435467Y-13487936D02*
X8425944Y-13468888D01*
X8425944Y-13468888D02*
X8416420Y-13430793D01*
X8416420Y-13430793D02*
X8416420Y-13383174D01*
X8416420Y-13383174D02*
X8425944Y-13345079D01*
X8425944Y-13345079D02*
X8435467Y-13326031D01*
X8435467Y-13326031D02*
X8444991Y-13316508D01*
X8444991Y-13316508D02*
X8464039Y-13306984D01*
X8616420Y-13506984D02*
X8616420Y-13373650D01*
X8616420Y-13392698D02*
X8625944Y-13383174D01*
X8625944Y-13383174D02*
X8644991Y-13373650D01*
X8644991Y-13373650D02*
X8673563Y-13373650D01*
X8673563Y-13373650D02*
X8692610Y-13383174D01*
X8692610Y-13383174D02*
X8702134Y-13402222D01*
X8702134Y-13402222D02*
X8702134Y-13506984D01*
X8702134Y-13402222D02*
X8711658Y-13383174D01*
X8711658Y-13383174D02*
X8730705Y-13373650D01*
X8730705Y-13373650D02*
X8759277Y-13373650D01*
X8759277Y-13373650D02*
X8778325Y-13383174D01*
X8778325Y-13383174D02*
X8787848Y-13402222D01*
X8787848Y-13402222D02*
X8787848Y-13506984D01*
X8883086Y-13506984D02*
X8883086Y-13373650D01*
X8883086Y-13392698D02*
X8892610Y-13383174D01*
X8892610Y-13383174D02*
X8911658Y-13373650D01*
X8911658Y-13373650D02*
X8940229Y-13373650D01*
X8940229Y-13373650D02*
X8959277Y-13383174D01*
X8959277Y-13383174D02*
X8968801Y-13402222D01*
X8968801Y-13402222D02*
X8968801Y-13506984D01*
X8968801Y-13402222D02*
X8978325Y-13383174D01*
X8978325Y-13383174D02*
X8997372Y-13373650D01*
X8997372Y-13373650D02*
X9025944Y-13373650D01*
X9025944Y-13373650D02*
X9044991Y-13383174D01*
X9044991Y-13383174D02*
X9054515Y-13402222D01*
X9054515Y-13402222D02*
X9054515Y-13506984D01*
X9444991Y-13297460D02*
X9273563Y-13554603D01*
X9702134Y-13306984D02*
X9721182Y-13306984D01*
X9721182Y-13306984D02*
X9740229Y-13316508D01*
X9740229Y-13316508D02*
X9749753Y-13326031D01*
X9749753Y-13326031D02*
X9759277Y-13345079D01*
X9759277Y-13345079D02*
X9768801Y-13383174D01*
X9768801Y-13383174D02*
X9768801Y-13430793D01*
X9768801Y-13430793D02*
X9759277Y-13468888D01*
X9759277Y-13468888D02*
X9749753Y-13487936D01*
X9749753Y-13487936D02*
X9740229Y-13497460D01*
X9740229Y-13497460D02*
X9721182Y-13506984D01*
X9721182Y-13506984D02*
X9702134Y-13506984D01*
X9702134Y-13506984D02*
X9683087Y-13497460D01*
X9683087Y-13497460D02*
X9673563Y-13487936D01*
X9673563Y-13487936D02*
X9664039Y-13468888D01*
X9664039Y-13468888D02*
X9654515Y-13430793D01*
X9654515Y-13430793D02*
X9654515Y-13383174D01*
X9654515Y-13383174D02*
X9664039Y-13345079D01*
X9664039Y-13345079D02*
X9673563Y-13326031D01*
X9673563Y-13326031D02*
X9683087Y-13316508D01*
X9683087Y-13316508D02*
X9702134Y-13306984D01*
X9854515Y-13487936D02*
X9864039Y-13497460D01*
X9864039Y-13497460D02*
X9854515Y-13506984D01*
X9854515Y-13506984D02*
X9844991Y-13497460D01*
X9844991Y-13497460D02*
X9854515Y-13487936D01*
X9854515Y-13487936D02*
X9854515Y-13506984D01*
X9987848Y-13306984D02*
X10006896Y-13306984D01*
X10006896Y-13306984D02*
X10025944Y-13316508D01*
X10025944Y-13316508D02*
X10035468Y-13326031D01*
X10035468Y-13326031D02*
X10044991Y-13345079D01*
X10044991Y-13345079D02*
X10054515Y-13383174D01*
X10054515Y-13383174D02*
X10054515Y-13430793D01*
X10054515Y-13430793D02*
X10044991Y-13468888D01*
X10044991Y-13468888D02*
X10035468Y-13487936D01*
X10035468Y-13487936D02*
X10025944Y-13497460D01*
X10025944Y-13497460D02*
X10006896Y-13506984D01*
X10006896Y-13506984D02*
X9987848Y-13506984D01*
X9987848Y-13506984D02*
X9968801Y-13497460D01*
X9968801Y-13497460D02*
X9959277Y-13487936D01*
X9959277Y-13487936D02*
X9949753Y-13468888D01*
X9949753Y-13468888D02*
X9940229Y-13430793D01*
X9940229Y-13430793D02*
X9940229Y-13383174D01*
X9940229Y-13383174D02*
X9949753Y-13345079D01*
X9949753Y-13345079D02*
X9959277Y-13326031D01*
X9959277Y-13326031D02*
X9968801Y-13316508D01*
X9968801Y-13316508D02*
X9987848Y-13306984D01*
X10130706Y-13326031D02*
X10140229Y-13316508D01*
X10140229Y-13316508D02*
X10159277Y-13306984D01*
X10159277Y-13306984D02*
X10206896Y-13306984D01*
X10206896Y-13306984D02*
X10225944Y-13316508D01*
X10225944Y-13316508D02*
X10235468Y-13326031D01*
X10235468Y-13326031D02*
X10244991Y-13345079D01*
X10244991Y-13345079D02*
X10244991Y-13364127D01*
X10244991Y-13364127D02*
X10235468Y-13392698D01*
X10235468Y-13392698D02*
X10121182Y-13506984D01*
X10121182Y-13506984D02*
X10244991Y-13506984D01*
X10311658Y-13306984D02*
X10435468Y-13306984D01*
X10435468Y-13306984D02*
X10368801Y-13383174D01*
X10368801Y-13383174D02*
X10397372Y-13383174D01*
X10397372Y-13383174D02*
X10416420Y-13392698D01*
X10416420Y-13392698D02*
X10425944Y-13402222D01*
X10425944Y-13402222D02*
X10435468Y-13421269D01*
X10435468Y-13421269D02*
X10435468Y-13468888D01*
X10435468Y-13468888D02*
X10425944Y-13487936D01*
X10425944Y-13487936D02*
X10416420Y-13497460D01*
X10416420Y-13497460D02*
X10397372Y-13506984D01*
X10397372Y-13506984D02*
X10340229Y-13506984D01*
X10340229Y-13506984D02*
X10321182Y-13497460D01*
X10321182Y-13497460D02*
X10311658Y-13487936D01*
X10606896Y-13306984D02*
X10568801Y-13306984D01*
X10568801Y-13306984D02*
X10549753Y-13316508D01*
X10549753Y-13316508D02*
X10540229Y-13326031D01*
X10540229Y-13326031D02*
X10521182Y-13354603D01*
X10521182Y-13354603D02*
X10511658Y-13392698D01*
X10511658Y-13392698D02*
X10511658Y-13468888D01*
X10511658Y-13468888D02*
X10521182Y-13487936D01*
X10521182Y-13487936D02*
X10530706Y-13497460D01*
X10530706Y-13497460D02*
X10549753Y-13506984D01*
X10549753Y-13506984D02*
X10587849Y-13506984D01*
X10587849Y-13506984D02*
X10606896Y-13497460D01*
X10606896Y-13497460D02*
X10616420Y-13487936D01*
X10616420Y-13487936D02*
X10625944Y-13468888D01*
X10625944Y-13468888D02*
X10625944Y-13421269D01*
X10625944Y-13421269D02*
X10616420Y-13402222D01*
X10616420Y-13402222D02*
X10606896Y-13392698D01*
X10606896Y-13392698D02*
X10587849Y-13383174D01*
X10587849Y-13383174D02*
X10549753Y-13383174D01*
X10549753Y-13383174D02*
X10530706Y-13392698D01*
X10530706Y-13392698D02*
X10521182Y-13402222D01*
X10521182Y-13402222D02*
X10511658Y-13421269D01*
X10702134Y-13306984D02*
X10702134Y-13345079D01*
X10778325Y-13306984D02*
X10778325Y-13345079D01*
X11073563Y-13583174D02*
X11064039Y-13573650D01*
X11064039Y-13573650D02*
X11044991Y-13545079D01*
X11044991Y-13545079D02*
X11035468Y-13526031D01*
X11035468Y-13526031D02*
X11025944Y-13497460D01*
X11025944Y-13497460D02*
X11016420Y-13449841D01*
X11016420Y-13449841D02*
X11016420Y-13411746D01*
X11016420Y-13411746D02*
X11025944Y-13364127D01*
X11025944Y-13364127D02*
X11035468Y-13335555D01*
X11035468Y-13335555D02*
X11044991Y-13316508D01*
X11044991Y-13316508D02*
X11064039Y-13287936D01*
X11064039Y-13287936D02*
X11073563Y-13278412D01*
X11187848Y-13306984D02*
X11206896Y-13306984D01*
X11206896Y-13306984D02*
X11225944Y-13316508D01*
X11225944Y-13316508D02*
X11235468Y-13326031D01*
X11235468Y-13326031D02*
X11244991Y-13345079D01*
X11244991Y-13345079D02*
X11254515Y-13383174D01*
X11254515Y-13383174D02*
X11254515Y-13430793D01*
X11254515Y-13430793D02*
X11244991Y-13468888D01*
X11244991Y-13468888D02*
X11235468Y-13487936D01*
X11235468Y-13487936D02*
X11225944Y-13497460D01*
X11225944Y-13497460D02*
X11206896Y-13506984D01*
X11206896Y-13506984D02*
X11187848Y-13506984D01*
X11187848Y-13506984D02*
X11168801Y-13497460D01*
X11168801Y-13497460D02*
X11159277Y-13487936D01*
X11159277Y-13487936D02*
X11149753Y-13468888D01*
X11149753Y-13468888D02*
X11140230Y-13430793D01*
X11140230Y-13430793D02*
X11140230Y-13383174D01*
X11140230Y-13383174D02*
X11149753Y-13345079D01*
X11149753Y-13345079D02*
X11159277Y-13326031D01*
X11159277Y-13326031D02*
X11168801Y-13316508D01*
X11168801Y-13316508D02*
X11187848Y-13306984D01*
X11492610Y-13506984D02*
X11492610Y-13306984D01*
X11578325Y-13506984D02*
X11578325Y-13402222D01*
X11578325Y-13402222D02*
X11568801Y-13383174D01*
X11568801Y-13383174D02*
X11549753Y-13373650D01*
X11549753Y-13373650D02*
X11521182Y-13373650D01*
X11521182Y-13373650D02*
X11502134Y-13383174D01*
X11502134Y-13383174D02*
X11492610Y-13392698D01*
X11702134Y-13506984D02*
X11683087Y-13497460D01*
X11683087Y-13497460D02*
X11673563Y-13487936D01*
X11673563Y-13487936D02*
X11664039Y-13468888D01*
X11664039Y-13468888D02*
X11664039Y-13411746D01*
X11664039Y-13411746D02*
X11673563Y-13392698D01*
X11673563Y-13392698D02*
X11683087Y-13383174D01*
X11683087Y-13383174D02*
X11702134Y-13373650D01*
X11702134Y-13373650D02*
X11730706Y-13373650D01*
X11730706Y-13373650D02*
X11749753Y-13383174D01*
X11749753Y-13383174D02*
X11759277Y-13392698D01*
X11759277Y-13392698D02*
X11768801Y-13411746D01*
X11768801Y-13411746D02*
X11768801Y-13468888D01*
X11768801Y-13468888D02*
X11759277Y-13487936D01*
X11759277Y-13487936D02*
X11749753Y-13497460D01*
X11749753Y-13497460D02*
X11730706Y-13506984D01*
X11730706Y-13506984D02*
X11702134Y-13506984D01*
X11883087Y-13506984D02*
X11864039Y-13497460D01*
X11864039Y-13497460D02*
X11854515Y-13478412D01*
X11854515Y-13478412D02*
X11854515Y-13306984D01*
X12035468Y-13497460D02*
X12016420Y-13506984D01*
X12016420Y-13506984D02*
X11978325Y-13506984D01*
X11978325Y-13506984D02*
X11959277Y-13497460D01*
X11959277Y-13497460D02*
X11949753Y-13478412D01*
X11949753Y-13478412D02*
X11949753Y-13402222D01*
X11949753Y-13402222D02*
X11959277Y-13383174D01*
X11959277Y-13383174D02*
X11978325Y-13373650D01*
X11978325Y-13373650D02*
X12016420Y-13373650D01*
X12016420Y-13373650D02*
X12035468Y-13383174D01*
X12035468Y-13383174D02*
X12044991Y-13402222D01*
X12044991Y-13402222D02*
X12044991Y-13421269D01*
X12044991Y-13421269D02*
X11949753Y-13440317D01*
X12121182Y-13497460D02*
X12140230Y-13506984D01*
X12140230Y-13506984D02*
X12178325Y-13506984D01*
X12178325Y-13506984D02*
X12197372Y-13497460D01*
X12197372Y-13497460D02*
X12206896Y-13478412D01*
X12206896Y-13478412D02*
X12206896Y-13468888D01*
X12206896Y-13468888D02*
X12197372Y-13449841D01*
X12197372Y-13449841D02*
X12178325Y-13440317D01*
X12178325Y-13440317D02*
X12149753Y-13440317D01*
X12149753Y-13440317D02*
X12130706Y-13430793D01*
X12130706Y-13430793D02*
X12121182Y-13411746D01*
X12121182Y-13411746D02*
X12121182Y-13402222D01*
X12121182Y-13402222D02*
X12130706Y-13383174D01*
X12130706Y-13383174D02*
X12149753Y-13373650D01*
X12149753Y-13373650D02*
X12178325Y-13373650D01*
X12178325Y-13373650D02*
X12197372Y-13383174D01*
X12444992Y-13430793D02*
X12597373Y-13430793D01*
X12521182Y-13506984D02*
X12521182Y-13354603D01*
X12930706Y-13373650D02*
X12930706Y-13506984D01*
X12883087Y-13297460D02*
X12835468Y-13440317D01*
X12835468Y-13440317D02*
X12959277Y-13440317D01*
X13178325Y-13497460D02*
X13197373Y-13506984D01*
X13197373Y-13506984D02*
X13235468Y-13506984D01*
X13235468Y-13506984D02*
X13254515Y-13497460D01*
X13254515Y-13497460D02*
X13264039Y-13478412D01*
X13264039Y-13478412D02*
X13264039Y-13468888D01*
X13264039Y-13468888D02*
X13254515Y-13449841D01*
X13254515Y-13449841D02*
X13235468Y-13440317D01*
X13235468Y-13440317D02*
X13206896Y-13440317D01*
X13206896Y-13440317D02*
X13187849Y-13430793D01*
X13187849Y-13430793D02*
X13178325Y-13411746D01*
X13178325Y-13411746D02*
X13178325Y-13402222D01*
X13178325Y-13402222D02*
X13187849Y-13383174D01*
X13187849Y-13383174D02*
X13206896Y-13373650D01*
X13206896Y-13373650D02*
X13235468Y-13373650D01*
X13235468Y-13373650D02*
X13254515Y-13383174D01*
X13378325Y-13506984D02*
X13359277Y-13497460D01*
X13359277Y-13497460D02*
X13349754Y-13478412D01*
X13349754Y-13478412D02*
X13349754Y-13306984D01*
X13483087Y-13506984D02*
X13464039Y-13497460D01*
X13464039Y-13497460D02*
X13454515Y-13487936D01*
X13454515Y-13487936D02*
X13444992Y-13468888D01*
X13444992Y-13468888D02*
X13444992Y-13411746D01*
X13444992Y-13411746D02*
X13454515Y-13392698D01*
X13454515Y-13392698D02*
X13464039Y-13383174D01*
X13464039Y-13383174D02*
X13483087Y-13373650D01*
X13483087Y-13373650D02*
X13511658Y-13373650D01*
X13511658Y-13373650D02*
X13530706Y-13383174D01*
X13530706Y-13383174D02*
X13540230Y-13392698D01*
X13540230Y-13392698D02*
X13549754Y-13411746D01*
X13549754Y-13411746D02*
X13549754Y-13468888D01*
X13549754Y-13468888D02*
X13540230Y-13487936D01*
X13540230Y-13487936D02*
X13530706Y-13497460D01*
X13530706Y-13497460D02*
X13511658Y-13506984D01*
X13511658Y-13506984D02*
X13483087Y-13506984D01*
X13606896Y-13373650D02*
X13683087Y-13373650D01*
X13635468Y-13306984D02*
X13635468Y-13478412D01*
X13635468Y-13478412D02*
X13644992Y-13497460D01*
X13644992Y-13497460D02*
X13664039Y-13506984D01*
X13664039Y-13506984D02*
X13683087Y-13506984D01*
X13740230Y-13497460D02*
X13759277Y-13506984D01*
X13759277Y-13506984D02*
X13797373Y-13506984D01*
X13797373Y-13506984D02*
X13816420Y-13497460D01*
X13816420Y-13497460D02*
X13825944Y-13478412D01*
X13825944Y-13478412D02*
X13825944Y-13468888D01*
X13825944Y-13468888D02*
X13816420Y-13449841D01*
X13816420Y-13449841D02*
X13797373Y-13440317D01*
X13797373Y-13440317D02*
X13768801Y-13440317D01*
X13768801Y-13440317D02*
X13749754Y-13430793D01*
X13749754Y-13430793D02*
X13740230Y-13411746D01*
X13740230Y-13411746D02*
X13740230Y-13402222D01*
X13740230Y-13402222D02*
X13749754Y-13383174D01*
X13749754Y-13383174D02*
X13768801Y-13373650D01*
X13768801Y-13373650D02*
X13797373Y-13373650D01*
X13797373Y-13373650D02*
X13816420Y-13383174D01*
X13892611Y-13583174D02*
X13902135Y-13573650D01*
X13902135Y-13573650D02*
X13921182Y-13545079D01*
X13921182Y-13545079D02*
X13930706Y-13526031D01*
X13930706Y-13526031D02*
X13940230Y-13497460D01*
X13940230Y-13497460D02*
X13949754Y-13449841D01*
X13949754Y-13449841D02*
X13949754Y-13411746D01*
X13949754Y-13411746D02*
X13940230Y-13364127D01*
X13940230Y-13364127D02*
X13930706Y-13335555D01*
X13930706Y-13335555D02*
X13921182Y-13316508D01*
X13921182Y-13316508D02*
X13902135Y-13287936D01*
X13902135Y-13287936D02*
X13892611Y-13278412D01*
D12*
X7448500Y-13629500D02*
X7448500Y-13729500D01*
X7398500Y-13679500D02*
X7498500Y-13679500D01*
D11*
X7864039Y-13770984D02*
X7749753Y-13770984D01*
X7806896Y-13770984D02*
X7806896Y-13570984D01*
X7806896Y-13570984D02*
X7787848Y-13599555D01*
X7787848Y-13599555D02*
X7768801Y-13618603D01*
X7768801Y-13618603D02*
X7749753Y-13628127D01*
X7949753Y-13751936D02*
X7959277Y-13761460D01*
X7959277Y-13761460D02*
X7949753Y-13770984D01*
X7949753Y-13770984D02*
X7940229Y-13761460D01*
X7940229Y-13761460D02*
X7949753Y-13751936D01*
X7949753Y-13751936D02*
X7949753Y-13770984D01*
X8083086Y-13570984D02*
X8102134Y-13570984D01*
X8102134Y-13570984D02*
X8121182Y-13580508D01*
X8121182Y-13580508D02*
X8130705Y-13590031D01*
X8130705Y-13590031D02*
X8140229Y-13609079D01*
X8140229Y-13609079D02*
X8149753Y-13647174D01*
X8149753Y-13647174D02*
X8149753Y-13694793D01*
X8149753Y-13694793D02*
X8140229Y-13732888D01*
X8140229Y-13732888D02*
X8130705Y-13751936D01*
X8130705Y-13751936D02*
X8121182Y-13761460D01*
X8121182Y-13761460D02*
X8102134Y-13770984D01*
X8102134Y-13770984D02*
X8083086Y-13770984D01*
X8083086Y-13770984D02*
X8064039Y-13761460D01*
X8064039Y-13761460D02*
X8054515Y-13751936D01*
X8054515Y-13751936D02*
X8044991Y-13732888D01*
X8044991Y-13732888D02*
X8035467Y-13694793D01*
X8035467Y-13694793D02*
X8035467Y-13647174D01*
X8035467Y-13647174D02*
X8044991Y-13609079D01*
X8044991Y-13609079D02*
X8054515Y-13590031D01*
X8054515Y-13590031D02*
X8064039Y-13580508D01*
X8064039Y-13580508D02*
X8083086Y-13570984D01*
X8273562Y-13570984D02*
X8292610Y-13570984D01*
X8292610Y-13570984D02*
X8311658Y-13580508D01*
X8311658Y-13580508D02*
X8321182Y-13590031D01*
X8321182Y-13590031D02*
X8330705Y-13609079D01*
X8330705Y-13609079D02*
X8340229Y-13647174D01*
X8340229Y-13647174D02*
X8340229Y-13694793D01*
X8340229Y-13694793D02*
X8330705Y-13732888D01*
X8330705Y-13732888D02*
X8321182Y-13751936D01*
X8321182Y-13751936D02*
X8311658Y-13761460D01*
X8311658Y-13761460D02*
X8292610Y-13770984D01*
X8292610Y-13770984D02*
X8273562Y-13770984D01*
X8273562Y-13770984D02*
X8254515Y-13761460D01*
X8254515Y-13761460D02*
X8244991Y-13751936D01*
X8244991Y-13751936D02*
X8235467Y-13732888D01*
X8235467Y-13732888D02*
X8225943Y-13694793D01*
X8225943Y-13694793D02*
X8225943Y-13647174D01*
X8225943Y-13647174D02*
X8235467Y-13609079D01*
X8235467Y-13609079D02*
X8244991Y-13590031D01*
X8244991Y-13590031D02*
X8254515Y-13580508D01*
X8254515Y-13580508D02*
X8273562Y-13570984D01*
X8464039Y-13570984D02*
X8483086Y-13570984D01*
X8483086Y-13570984D02*
X8502134Y-13580508D01*
X8502134Y-13580508D02*
X8511658Y-13590031D01*
X8511658Y-13590031D02*
X8521182Y-13609079D01*
X8521182Y-13609079D02*
X8530705Y-13647174D01*
X8530705Y-13647174D02*
X8530705Y-13694793D01*
X8530705Y-13694793D02*
X8521182Y-13732888D01*
X8521182Y-13732888D02*
X8511658Y-13751936D01*
X8511658Y-13751936D02*
X8502134Y-13761460D01*
X8502134Y-13761460D02*
X8483086Y-13770984D01*
X8483086Y-13770984D02*
X8464039Y-13770984D01*
X8464039Y-13770984D02*
X8444991Y-13761460D01*
X8444991Y-13761460D02*
X8435467Y-13751936D01*
X8435467Y-13751936D02*
X8425944Y-13732888D01*
X8425944Y-13732888D02*
X8416420Y-13694793D01*
X8416420Y-13694793D02*
X8416420Y-13647174D01*
X8416420Y-13647174D02*
X8425944Y-13609079D01*
X8425944Y-13609079D02*
X8435467Y-13590031D01*
X8435467Y-13590031D02*
X8444991Y-13580508D01*
X8444991Y-13580508D02*
X8464039Y-13570984D01*
X8616420Y-13770984D02*
X8616420Y-13637650D01*
X8616420Y-13656698D02*
X8625944Y-13647174D01*
X8625944Y-13647174D02*
X8644991Y-13637650D01*
X8644991Y-13637650D02*
X8673563Y-13637650D01*
X8673563Y-13637650D02*
X8692610Y-13647174D01*
X8692610Y-13647174D02*
X8702134Y-13666222D01*
X8702134Y-13666222D02*
X8702134Y-13770984D01*
X8702134Y-13666222D02*
X8711658Y-13647174D01*
X8711658Y-13647174D02*
X8730705Y-13637650D01*
X8730705Y-13637650D02*
X8759277Y-13637650D01*
X8759277Y-13637650D02*
X8778325Y-13647174D01*
X8778325Y-13647174D02*
X8787848Y-13666222D01*
X8787848Y-13666222D02*
X8787848Y-13770984D01*
X8883086Y-13770984D02*
X8883086Y-13637650D01*
X8883086Y-13656698D02*
X8892610Y-13647174D01*
X8892610Y-13647174D02*
X8911658Y-13637650D01*
X8911658Y-13637650D02*
X8940229Y-13637650D01*
X8940229Y-13637650D02*
X8959277Y-13647174D01*
X8959277Y-13647174D02*
X8968801Y-13666222D01*
X8968801Y-13666222D02*
X8968801Y-13770984D01*
X8968801Y-13666222D02*
X8978325Y-13647174D01*
X8978325Y-13647174D02*
X8997372Y-13637650D01*
X8997372Y-13637650D02*
X9025944Y-13637650D01*
X9025944Y-13637650D02*
X9044991Y-13647174D01*
X9044991Y-13647174D02*
X9054515Y-13666222D01*
X9054515Y-13666222D02*
X9054515Y-13770984D01*
X9444991Y-13561460D02*
X9273563Y-13818603D01*
X9702134Y-13570984D02*
X9721182Y-13570984D01*
X9721182Y-13570984D02*
X9740229Y-13580508D01*
X9740229Y-13580508D02*
X9749753Y-13590031D01*
X9749753Y-13590031D02*
X9759277Y-13609079D01*
X9759277Y-13609079D02*
X9768801Y-13647174D01*
X9768801Y-13647174D02*
X9768801Y-13694793D01*
X9768801Y-13694793D02*
X9759277Y-13732888D01*
X9759277Y-13732888D02*
X9749753Y-13751936D01*
X9749753Y-13751936D02*
X9740229Y-13761460D01*
X9740229Y-13761460D02*
X9721182Y-13770984D01*
X9721182Y-13770984D02*
X9702134Y-13770984D01*
X9702134Y-13770984D02*
X9683087Y-13761460D01*
X9683087Y-13761460D02*
X9673563Y-13751936D01*
X9673563Y-13751936D02*
X9664039Y-13732888D01*
X9664039Y-13732888D02*
X9654515Y-13694793D01*
X9654515Y-13694793D02*
X9654515Y-13647174D01*
X9654515Y-13647174D02*
X9664039Y-13609079D01*
X9664039Y-13609079D02*
X9673563Y-13590031D01*
X9673563Y-13590031D02*
X9683087Y-13580508D01*
X9683087Y-13580508D02*
X9702134Y-13570984D01*
X9854515Y-13751936D02*
X9864039Y-13761460D01*
X9864039Y-13761460D02*
X9854515Y-13770984D01*
X9854515Y-13770984D02*
X9844991Y-13761460D01*
X9844991Y-13761460D02*
X9854515Y-13751936D01*
X9854515Y-13751936D02*
X9854515Y-13770984D01*
X9987848Y-13570984D02*
X10006896Y-13570984D01*
X10006896Y-13570984D02*
X10025944Y-13580508D01*
X10025944Y-13580508D02*
X10035468Y-13590031D01*
X10035468Y-13590031D02*
X10044991Y-13609079D01*
X10044991Y-13609079D02*
X10054515Y-13647174D01*
X10054515Y-13647174D02*
X10054515Y-13694793D01*
X10054515Y-13694793D02*
X10044991Y-13732888D01*
X10044991Y-13732888D02*
X10035468Y-13751936D01*
X10035468Y-13751936D02*
X10025944Y-13761460D01*
X10025944Y-13761460D02*
X10006896Y-13770984D01*
X10006896Y-13770984D02*
X9987848Y-13770984D01*
X9987848Y-13770984D02*
X9968801Y-13761460D01*
X9968801Y-13761460D02*
X9959277Y-13751936D01*
X9959277Y-13751936D02*
X9949753Y-13732888D01*
X9949753Y-13732888D02*
X9940229Y-13694793D01*
X9940229Y-13694793D02*
X9940229Y-13647174D01*
X9940229Y-13647174D02*
X9949753Y-13609079D01*
X9949753Y-13609079D02*
X9959277Y-13590031D01*
X9959277Y-13590031D02*
X9968801Y-13580508D01*
X9968801Y-13580508D02*
X9987848Y-13570984D01*
X10121182Y-13570984D02*
X10244991Y-13570984D01*
X10244991Y-13570984D02*
X10178325Y-13647174D01*
X10178325Y-13647174D02*
X10206896Y-13647174D01*
X10206896Y-13647174D02*
X10225944Y-13656698D01*
X10225944Y-13656698D02*
X10235468Y-13666222D01*
X10235468Y-13666222D02*
X10244991Y-13685269D01*
X10244991Y-13685269D02*
X10244991Y-13732888D01*
X10244991Y-13732888D02*
X10235468Y-13751936D01*
X10235468Y-13751936D02*
X10225944Y-13761460D01*
X10225944Y-13761460D02*
X10206896Y-13770984D01*
X10206896Y-13770984D02*
X10149753Y-13770984D01*
X10149753Y-13770984D02*
X10130706Y-13761460D01*
X10130706Y-13761460D02*
X10121182Y-13751936D01*
X10340229Y-13770984D02*
X10378325Y-13770984D01*
X10378325Y-13770984D02*
X10397372Y-13761460D01*
X10397372Y-13761460D02*
X10406896Y-13751936D01*
X10406896Y-13751936D02*
X10425944Y-13723365D01*
X10425944Y-13723365D02*
X10435468Y-13685269D01*
X10435468Y-13685269D02*
X10435468Y-13609079D01*
X10435468Y-13609079D02*
X10425944Y-13590031D01*
X10425944Y-13590031D02*
X10416420Y-13580508D01*
X10416420Y-13580508D02*
X10397372Y-13570984D01*
X10397372Y-13570984D02*
X10359277Y-13570984D01*
X10359277Y-13570984D02*
X10340229Y-13580508D01*
X10340229Y-13580508D02*
X10330706Y-13590031D01*
X10330706Y-13590031D02*
X10321182Y-13609079D01*
X10321182Y-13609079D02*
X10321182Y-13656698D01*
X10321182Y-13656698D02*
X10330706Y-13675746D01*
X10330706Y-13675746D02*
X10340229Y-13685269D01*
X10340229Y-13685269D02*
X10359277Y-13694793D01*
X10359277Y-13694793D02*
X10397372Y-13694793D01*
X10397372Y-13694793D02*
X10416420Y-13685269D01*
X10416420Y-13685269D02*
X10425944Y-13675746D01*
X10425944Y-13675746D02*
X10435468Y-13656698D01*
X10606896Y-13637650D02*
X10606896Y-13770984D01*
X10559277Y-13561460D02*
X10511658Y-13704317D01*
X10511658Y-13704317D02*
X10635468Y-13704317D01*
X10702134Y-13570984D02*
X10702134Y-13609079D01*
X10778325Y-13570984D02*
X10778325Y-13609079D01*
X11073563Y-13847174D02*
X11064039Y-13837650D01*
X11064039Y-13837650D02*
X11044991Y-13809079D01*
X11044991Y-13809079D02*
X11035468Y-13790031D01*
X11035468Y-13790031D02*
X11025944Y-13761460D01*
X11025944Y-13761460D02*
X11016420Y-13713841D01*
X11016420Y-13713841D02*
X11016420Y-13675746D01*
X11016420Y-13675746D02*
X11025944Y-13628127D01*
X11025944Y-13628127D02*
X11035468Y-13599555D01*
X11035468Y-13599555D02*
X11044991Y-13580508D01*
X11044991Y-13580508D02*
X11064039Y-13551936D01*
X11064039Y-13551936D02*
X11073563Y-13542412D01*
X11254515Y-13770984D02*
X11140230Y-13770984D01*
X11197372Y-13770984D02*
X11197372Y-13570984D01*
X11197372Y-13570984D02*
X11178325Y-13599555D01*
X11178325Y-13599555D02*
X11159277Y-13618603D01*
X11159277Y-13618603D02*
X11140230Y-13628127D01*
X11425944Y-13637650D02*
X11425944Y-13770984D01*
X11378325Y-13561460D02*
X11330706Y-13704317D01*
X11330706Y-13704317D02*
X11454515Y-13704317D01*
X11683087Y-13770984D02*
X11683087Y-13570984D01*
X11768801Y-13770984D02*
X11768801Y-13666222D01*
X11768801Y-13666222D02*
X11759277Y-13647174D01*
X11759277Y-13647174D02*
X11740230Y-13637650D01*
X11740230Y-13637650D02*
X11711658Y-13637650D01*
X11711658Y-13637650D02*
X11692610Y-13647174D01*
X11692610Y-13647174D02*
X11683087Y-13656698D01*
X11892610Y-13770984D02*
X11873563Y-13761460D01*
X11873563Y-13761460D02*
X11864039Y-13751936D01*
X11864039Y-13751936D02*
X11854515Y-13732888D01*
X11854515Y-13732888D02*
X11854515Y-13675746D01*
X11854515Y-13675746D02*
X11864039Y-13656698D01*
X11864039Y-13656698D02*
X11873563Y-13647174D01*
X11873563Y-13647174D02*
X11892610Y-13637650D01*
X11892610Y-13637650D02*
X11921182Y-13637650D01*
X11921182Y-13637650D02*
X11940230Y-13647174D01*
X11940230Y-13647174D02*
X11949753Y-13656698D01*
X11949753Y-13656698D02*
X11959277Y-13675746D01*
X11959277Y-13675746D02*
X11959277Y-13732888D01*
X11959277Y-13732888D02*
X11949753Y-13751936D01*
X11949753Y-13751936D02*
X11940230Y-13761460D01*
X11940230Y-13761460D02*
X11921182Y-13770984D01*
X11921182Y-13770984D02*
X11892610Y-13770984D01*
X12073563Y-13770984D02*
X12054515Y-13761460D01*
X12054515Y-13761460D02*
X12044991Y-13742412D01*
X12044991Y-13742412D02*
X12044991Y-13570984D01*
X12225944Y-13761460D02*
X12206896Y-13770984D01*
X12206896Y-13770984D02*
X12168801Y-13770984D01*
X12168801Y-13770984D02*
X12149753Y-13761460D01*
X12149753Y-13761460D02*
X12140230Y-13742412D01*
X12140230Y-13742412D02*
X12140230Y-13666222D01*
X12140230Y-13666222D02*
X12149753Y-13647174D01*
X12149753Y-13647174D02*
X12168801Y-13637650D01*
X12168801Y-13637650D02*
X12206896Y-13637650D01*
X12206896Y-13637650D02*
X12225944Y-13647174D01*
X12225944Y-13647174D02*
X12235468Y-13666222D01*
X12235468Y-13666222D02*
X12235468Y-13685269D01*
X12235468Y-13685269D02*
X12140230Y-13704317D01*
X12311658Y-13761460D02*
X12330706Y-13770984D01*
X12330706Y-13770984D02*
X12368801Y-13770984D01*
X12368801Y-13770984D02*
X12387849Y-13761460D01*
X12387849Y-13761460D02*
X12397372Y-13742412D01*
X12397372Y-13742412D02*
X12397372Y-13732888D01*
X12397372Y-13732888D02*
X12387849Y-13713841D01*
X12387849Y-13713841D02*
X12368801Y-13704317D01*
X12368801Y-13704317D02*
X12340230Y-13704317D01*
X12340230Y-13704317D02*
X12321182Y-13694793D01*
X12321182Y-13694793D02*
X12311658Y-13675746D01*
X12311658Y-13675746D02*
X12311658Y-13666222D01*
X12311658Y-13666222D02*
X12321182Y-13647174D01*
X12321182Y-13647174D02*
X12340230Y-13637650D01*
X12340230Y-13637650D02*
X12368801Y-13637650D01*
X12368801Y-13637650D02*
X12387849Y-13647174D01*
X12464039Y-13847174D02*
X12473563Y-13837650D01*
X12473563Y-13837650D02*
X12492611Y-13809079D01*
X12492611Y-13809079D02*
X12502134Y-13790031D01*
X12502134Y-13790031D02*
X12511658Y-13761460D01*
X12511658Y-13761460D02*
X12521182Y-13713841D01*
X12521182Y-13713841D02*
X12521182Y-13675746D01*
X12521182Y-13675746D02*
X12511658Y-13628127D01*
X12511658Y-13628127D02*
X12502134Y-13599555D01*
X12502134Y-13599555D02*
X12492611Y-13580508D01*
X12492611Y-13580508D02*
X12473563Y-13551936D01*
X12473563Y-13551936D02*
X12464039Y-13542412D01*
D13*
X7479462Y-13989462D02*
X7479462Y-13897538D01*
X7387538Y-13897538D01*
X7387538Y-13989462D01*
X7479462Y-13989462D01*
D11*
X7864039Y-14034984D02*
X7749753Y-14034984D01*
X7806896Y-14034984D02*
X7806896Y-13834984D01*
X7806896Y-13834984D02*
X7787848Y-13863555D01*
X7787848Y-13863555D02*
X7768801Y-13882603D01*
X7768801Y-13882603D02*
X7749753Y-13892127D01*
X7949753Y-14015936D02*
X7959277Y-14025460D01*
X7959277Y-14025460D02*
X7949753Y-14034984D01*
X7949753Y-14034984D02*
X7940229Y-14025460D01*
X7940229Y-14025460D02*
X7949753Y-14015936D01*
X7949753Y-14015936D02*
X7949753Y-14034984D01*
X8025943Y-13834984D02*
X8149753Y-13834984D01*
X8149753Y-13834984D02*
X8083086Y-13911174D01*
X8083086Y-13911174D02*
X8111658Y-13911174D01*
X8111658Y-13911174D02*
X8130705Y-13920698D01*
X8130705Y-13920698D02*
X8140229Y-13930222D01*
X8140229Y-13930222D02*
X8149753Y-13949269D01*
X8149753Y-13949269D02*
X8149753Y-13996888D01*
X8149753Y-13996888D02*
X8140229Y-14015936D01*
X8140229Y-14015936D02*
X8130705Y-14025460D01*
X8130705Y-14025460D02*
X8111658Y-14034984D01*
X8111658Y-14034984D02*
X8054515Y-14034984D01*
X8054515Y-14034984D02*
X8035467Y-14025460D01*
X8035467Y-14025460D02*
X8025943Y-14015936D01*
X8273562Y-13834984D02*
X8292610Y-13834984D01*
X8292610Y-13834984D02*
X8311658Y-13844508D01*
X8311658Y-13844508D02*
X8321182Y-13854031D01*
X8321182Y-13854031D02*
X8330705Y-13873079D01*
X8330705Y-13873079D02*
X8340229Y-13911174D01*
X8340229Y-13911174D02*
X8340229Y-13958793D01*
X8340229Y-13958793D02*
X8330705Y-13996888D01*
X8330705Y-13996888D02*
X8321182Y-14015936D01*
X8321182Y-14015936D02*
X8311658Y-14025460D01*
X8311658Y-14025460D02*
X8292610Y-14034984D01*
X8292610Y-14034984D02*
X8273562Y-14034984D01*
X8273562Y-14034984D02*
X8254515Y-14025460D01*
X8254515Y-14025460D02*
X8244991Y-14015936D01*
X8244991Y-14015936D02*
X8235467Y-13996888D01*
X8235467Y-13996888D02*
X8225943Y-13958793D01*
X8225943Y-13958793D02*
X8225943Y-13911174D01*
X8225943Y-13911174D02*
X8235467Y-13873079D01*
X8235467Y-13873079D02*
X8244991Y-13854031D01*
X8244991Y-13854031D02*
X8254515Y-13844508D01*
X8254515Y-13844508D02*
X8273562Y-13834984D01*
X8464039Y-13834984D02*
X8483086Y-13834984D01*
X8483086Y-13834984D02*
X8502134Y-13844508D01*
X8502134Y-13844508D02*
X8511658Y-13854031D01*
X8511658Y-13854031D02*
X8521182Y-13873079D01*
X8521182Y-13873079D02*
X8530705Y-13911174D01*
X8530705Y-13911174D02*
X8530705Y-13958793D01*
X8530705Y-13958793D02*
X8521182Y-13996888D01*
X8521182Y-13996888D02*
X8511658Y-14015936D01*
X8511658Y-14015936D02*
X8502134Y-14025460D01*
X8502134Y-14025460D02*
X8483086Y-14034984D01*
X8483086Y-14034984D02*
X8464039Y-14034984D01*
X8464039Y-14034984D02*
X8444991Y-14025460D01*
X8444991Y-14025460D02*
X8435467Y-14015936D01*
X8435467Y-14015936D02*
X8425944Y-13996888D01*
X8425944Y-13996888D02*
X8416420Y-13958793D01*
X8416420Y-13958793D02*
X8416420Y-13911174D01*
X8416420Y-13911174D02*
X8425944Y-13873079D01*
X8425944Y-13873079D02*
X8435467Y-13854031D01*
X8435467Y-13854031D02*
X8444991Y-13844508D01*
X8444991Y-13844508D02*
X8464039Y-13834984D01*
X8616420Y-14034984D02*
X8616420Y-13901650D01*
X8616420Y-13920698D02*
X8625944Y-13911174D01*
X8625944Y-13911174D02*
X8644991Y-13901650D01*
X8644991Y-13901650D02*
X8673563Y-13901650D01*
X8673563Y-13901650D02*
X8692610Y-13911174D01*
X8692610Y-13911174D02*
X8702134Y-13930222D01*
X8702134Y-13930222D02*
X8702134Y-14034984D01*
X8702134Y-13930222D02*
X8711658Y-13911174D01*
X8711658Y-13911174D02*
X8730705Y-13901650D01*
X8730705Y-13901650D02*
X8759277Y-13901650D01*
X8759277Y-13901650D02*
X8778325Y-13911174D01*
X8778325Y-13911174D02*
X8787848Y-13930222D01*
X8787848Y-13930222D02*
X8787848Y-14034984D01*
X8883086Y-14034984D02*
X8883086Y-13901650D01*
X8883086Y-13920698D02*
X8892610Y-13911174D01*
X8892610Y-13911174D02*
X8911658Y-13901650D01*
X8911658Y-13901650D02*
X8940229Y-13901650D01*
X8940229Y-13901650D02*
X8959277Y-13911174D01*
X8959277Y-13911174D02*
X8968801Y-13930222D01*
X8968801Y-13930222D02*
X8968801Y-14034984D01*
X8968801Y-13930222D02*
X8978325Y-13911174D01*
X8978325Y-13911174D02*
X8997372Y-13901650D01*
X8997372Y-13901650D02*
X9025944Y-13901650D01*
X9025944Y-13901650D02*
X9044991Y-13911174D01*
X9044991Y-13911174D02*
X9054515Y-13930222D01*
X9054515Y-13930222D02*
X9054515Y-14034984D01*
X9444991Y-13825460D02*
X9273563Y-14082603D01*
X9702134Y-13834984D02*
X9721182Y-13834984D01*
X9721182Y-13834984D02*
X9740229Y-13844508D01*
X9740229Y-13844508D02*
X9749753Y-13854031D01*
X9749753Y-13854031D02*
X9759277Y-13873079D01*
X9759277Y-13873079D02*
X9768801Y-13911174D01*
X9768801Y-13911174D02*
X9768801Y-13958793D01*
X9768801Y-13958793D02*
X9759277Y-13996888D01*
X9759277Y-13996888D02*
X9749753Y-14015936D01*
X9749753Y-14015936D02*
X9740229Y-14025460D01*
X9740229Y-14025460D02*
X9721182Y-14034984D01*
X9721182Y-14034984D02*
X9702134Y-14034984D01*
X9702134Y-14034984D02*
X9683087Y-14025460D01*
X9683087Y-14025460D02*
X9673563Y-14015936D01*
X9673563Y-14015936D02*
X9664039Y-13996888D01*
X9664039Y-13996888D02*
X9654515Y-13958793D01*
X9654515Y-13958793D02*
X9654515Y-13911174D01*
X9654515Y-13911174D02*
X9664039Y-13873079D01*
X9664039Y-13873079D02*
X9673563Y-13854031D01*
X9673563Y-13854031D02*
X9683087Y-13844508D01*
X9683087Y-13844508D02*
X9702134Y-13834984D01*
X9854515Y-14015936D02*
X9864039Y-14025460D01*
X9864039Y-14025460D02*
X9854515Y-14034984D01*
X9854515Y-14034984D02*
X9844991Y-14025460D01*
X9844991Y-14025460D02*
X9854515Y-14015936D01*
X9854515Y-14015936D02*
X9854515Y-14034984D01*
X9987848Y-13834984D02*
X10006896Y-13834984D01*
X10006896Y-13834984D02*
X10025944Y-13844508D01*
X10025944Y-13844508D02*
X10035468Y-13854031D01*
X10035468Y-13854031D02*
X10044991Y-13873079D01*
X10044991Y-13873079D02*
X10054515Y-13911174D01*
X10054515Y-13911174D02*
X10054515Y-13958793D01*
X10054515Y-13958793D02*
X10044991Y-13996888D01*
X10044991Y-13996888D02*
X10035468Y-14015936D01*
X10035468Y-14015936D02*
X10025944Y-14025460D01*
X10025944Y-14025460D02*
X10006896Y-14034984D01*
X10006896Y-14034984D02*
X9987848Y-14034984D01*
X9987848Y-14034984D02*
X9968801Y-14025460D01*
X9968801Y-14025460D02*
X9959277Y-14015936D01*
X9959277Y-14015936D02*
X9949753Y-13996888D01*
X9949753Y-13996888D02*
X9940229Y-13958793D01*
X9940229Y-13958793D02*
X9940229Y-13911174D01*
X9940229Y-13911174D02*
X9949753Y-13873079D01*
X9949753Y-13873079D02*
X9959277Y-13854031D01*
X9959277Y-13854031D02*
X9968801Y-13844508D01*
X9968801Y-13844508D02*
X9987848Y-13834984D01*
X10235468Y-13834984D02*
X10140229Y-13834984D01*
X10140229Y-13834984D02*
X10130706Y-13930222D01*
X10130706Y-13930222D02*
X10140229Y-13920698D01*
X10140229Y-13920698D02*
X10159277Y-13911174D01*
X10159277Y-13911174D02*
X10206896Y-13911174D01*
X10206896Y-13911174D02*
X10225944Y-13920698D01*
X10225944Y-13920698D02*
X10235468Y-13930222D01*
X10235468Y-13930222D02*
X10244991Y-13949269D01*
X10244991Y-13949269D02*
X10244991Y-13996888D01*
X10244991Y-13996888D02*
X10235468Y-14015936D01*
X10235468Y-14015936D02*
X10225944Y-14025460D01*
X10225944Y-14025460D02*
X10206896Y-14034984D01*
X10206896Y-14034984D02*
X10159277Y-14034984D01*
X10159277Y-14034984D02*
X10140229Y-14025460D01*
X10140229Y-14025460D02*
X10130706Y-14015936D01*
X10435468Y-14034984D02*
X10321182Y-14034984D01*
X10378325Y-14034984D02*
X10378325Y-13834984D01*
X10378325Y-13834984D02*
X10359277Y-13863555D01*
X10359277Y-13863555D02*
X10340229Y-13882603D01*
X10340229Y-13882603D02*
X10321182Y-13892127D01*
X10511658Y-13854031D02*
X10521182Y-13844508D01*
X10521182Y-13844508D02*
X10540229Y-13834984D01*
X10540229Y-13834984D02*
X10587849Y-13834984D01*
X10587849Y-13834984D02*
X10606896Y-13844508D01*
X10606896Y-13844508D02*
X10616420Y-13854031D01*
X10616420Y-13854031D02*
X10625944Y-13873079D01*
X10625944Y-13873079D02*
X10625944Y-13892127D01*
X10625944Y-13892127D02*
X10616420Y-13920698D01*
X10616420Y-13920698D02*
X10502134Y-14034984D01*
X10502134Y-14034984D02*
X10625944Y-14034984D01*
X10702134Y-13834984D02*
X10702134Y-13873079D01*
X10778325Y-13834984D02*
X10778325Y-13873079D01*
X11073563Y-14111174D02*
X11064039Y-14101650D01*
X11064039Y-14101650D02*
X11044991Y-14073079D01*
X11044991Y-14073079D02*
X11035468Y-14054031D01*
X11035468Y-14054031D02*
X11025944Y-14025460D01*
X11025944Y-14025460D02*
X11016420Y-13977841D01*
X11016420Y-13977841D02*
X11016420Y-13939746D01*
X11016420Y-13939746D02*
X11025944Y-13892127D01*
X11025944Y-13892127D02*
X11035468Y-13863555D01*
X11035468Y-13863555D02*
X11044991Y-13844508D01*
X11044991Y-13844508D02*
X11064039Y-13815936D01*
X11064039Y-13815936D02*
X11073563Y-13806412D01*
X11140230Y-13854031D02*
X11149753Y-13844508D01*
X11149753Y-13844508D02*
X11168801Y-13834984D01*
X11168801Y-13834984D02*
X11216420Y-13834984D01*
X11216420Y-13834984D02*
X11235468Y-13844508D01*
X11235468Y-13844508D02*
X11244991Y-13854031D01*
X11244991Y-13854031D02*
X11254515Y-13873079D01*
X11254515Y-13873079D02*
X11254515Y-13892127D01*
X11254515Y-13892127D02*
X11244991Y-13920698D01*
X11244991Y-13920698D02*
X11130706Y-14034984D01*
X11130706Y-14034984D02*
X11254515Y-14034984D01*
X11492610Y-14034984D02*
X11492610Y-13834984D01*
X11578325Y-14034984D02*
X11578325Y-13930222D01*
X11578325Y-13930222D02*
X11568801Y-13911174D01*
X11568801Y-13911174D02*
X11549753Y-13901650D01*
X11549753Y-13901650D02*
X11521182Y-13901650D01*
X11521182Y-13901650D02*
X11502134Y-13911174D01*
X11502134Y-13911174D02*
X11492610Y-13920698D01*
X11702134Y-14034984D02*
X11683087Y-14025460D01*
X11683087Y-14025460D02*
X11673563Y-14015936D01*
X11673563Y-14015936D02*
X11664039Y-13996888D01*
X11664039Y-13996888D02*
X11664039Y-13939746D01*
X11664039Y-13939746D02*
X11673563Y-13920698D01*
X11673563Y-13920698D02*
X11683087Y-13911174D01*
X11683087Y-13911174D02*
X11702134Y-13901650D01*
X11702134Y-13901650D02*
X11730706Y-13901650D01*
X11730706Y-13901650D02*
X11749753Y-13911174D01*
X11749753Y-13911174D02*
X11759277Y-13920698D01*
X11759277Y-13920698D02*
X11768801Y-13939746D01*
X11768801Y-13939746D02*
X11768801Y-13996888D01*
X11768801Y-13996888D02*
X11759277Y-14015936D01*
X11759277Y-14015936D02*
X11749753Y-14025460D01*
X11749753Y-14025460D02*
X11730706Y-14034984D01*
X11730706Y-14034984D02*
X11702134Y-14034984D01*
X11883087Y-14034984D02*
X11864039Y-14025460D01*
X11864039Y-14025460D02*
X11854515Y-14006412D01*
X11854515Y-14006412D02*
X11854515Y-13834984D01*
X12035468Y-14025460D02*
X12016420Y-14034984D01*
X12016420Y-14034984D02*
X11978325Y-14034984D01*
X11978325Y-14034984D02*
X11959277Y-14025460D01*
X11959277Y-14025460D02*
X11949753Y-14006412D01*
X11949753Y-14006412D02*
X11949753Y-13930222D01*
X11949753Y-13930222D02*
X11959277Y-13911174D01*
X11959277Y-13911174D02*
X11978325Y-13901650D01*
X11978325Y-13901650D02*
X12016420Y-13901650D01*
X12016420Y-13901650D02*
X12035468Y-13911174D01*
X12035468Y-13911174D02*
X12044991Y-13930222D01*
X12044991Y-13930222D02*
X12044991Y-13949269D01*
X12044991Y-13949269D02*
X11949753Y-13968317D01*
X12121182Y-14025460D02*
X12140230Y-14034984D01*
X12140230Y-14034984D02*
X12178325Y-14034984D01*
X12178325Y-14034984D02*
X12197372Y-14025460D01*
X12197372Y-14025460D02*
X12206896Y-14006412D01*
X12206896Y-14006412D02*
X12206896Y-13996888D01*
X12206896Y-13996888D02*
X12197372Y-13977841D01*
X12197372Y-13977841D02*
X12178325Y-13968317D01*
X12178325Y-13968317D02*
X12149753Y-13968317D01*
X12149753Y-13968317D02*
X12130706Y-13958793D01*
X12130706Y-13958793D02*
X12121182Y-13939746D01*
X12121182Y-13939746D02*
X12121182Y-13930222D01*
X12121182Y-13930222D02*
X12130706Y-13911174D01*
X12130706Y-13911174D02*
X12149753Y-13901650D01*
X12149753Y-13901650D02*
X12178325Y-13901650D01*
X12178325Y-13901650D02*
X12197372Y-13911174D01*
X12273563Y-14111174D02*
X12283087Y-14101650D01*
X12283087Y-14101650D02*
X12302134Y-14073079D01*
X12302134Y-14073079D02*
X12311658Y-14054031D01*
X12311658Y-14054031D02*
X12321182Y-14025460D01*
X12321182Y-14025460D02*
X12330706Y-13977841D01*
X12330706Y-13977841D02*
X12330706Y-13939746D01*
X12330706Y-13939746D02*
X12321182Y-13892127D01*
X12321182Y-13892127D02*
X12311658Y-13863555D01*
X12311658Y-13863555D02*
X12302134Y-13844508D01*
X12302134Y-13844508D02*
X12283087Y-13815936D01*
X12283087Y-13815936D02*
X12273563Y-13806412D01*
M02*
