%TF.GenerationSoftware,KiCad,Pcbnew,9.0.0*%
%TF.CreationDate,2025-09-20T16:18:58+02:00*%
%TF.ProjectId,ecap5-bcarrier-xlite,65636170-352d-4626-9361-72726965722d,rev?*%
%TF.SameCoordinates,Original*%
%TF.FileFunction,Legend,Bot*%
%TF.FilePolarity,Positive*%
%FSLAX46Y46*%
G04 Gerber Fmt 4.6, Leading zero omitted, Abs format (unit mm)*
G04 Created by KiCad (PCBNEW 9.0.0) date 2025-09-20 16:18:58*
%MOMM*%
%LPD*%
G01*
G04 APERTURE LIST*
G04 Aperture macros list*
%AMRoundRect*
0 Rectangle with rounded corners*
0 $1 Rounding radius*
0 $2 $3 $4 $5 $6 $7 $8 $9 X,Y pos of 4 corners*
0 Add a 4 corners polygon primitive as box body*
4,1,4,$2,$3,$4,$5,$6,$7,$8,$9,$2,$3,0*
0 Add four circle primitives for the rounded corners*
1,1,$1+$1,$2,$3*
1,1,$1+$1,$4,$5*
1,1,$1+$1,$6,$7*
1,1,$1+$1,$8,$9*
0 Add four rect primitives between the rounded corners*
20,1,$1+$1,$2,$3,$4,$5,0*
20,1,$1+$1,$4,$5,$6,$7,0*
20,1,$1+$1,$6,$7,$8,$9,0*
20,1,$1+$1,$8,$9,$2,$3,0*%
G04 Aperture macros list end*
%ADD10C,0.010000*%
%ADD11R,1.700000X1.700000*%
%ADD12C,1.700000*%
%ADD13C,2.000000*%
%ADD14C,2.200000*%
%ADD15C,0.650000*%
%ADD16O,2.100000X1.000000*%
%ADD17O,1.800000X1.000000*%
%ADD18C,1.600000*%
%ADD19C,1.100000*%
%ADD20RoundRect,0.250000X-1.050000X1.050000X-1.050000X-1.050000X1.050000X-1.050000X1.050000X1.050000X0*%
%ADD21C,2.600000*%
G04 APERTURE END LIST*
G36*
X135660000Y-113050000D02*
G01*
X175660000Y-113050000D01*
X175660000Y-119130000D01*
X135660000Y-119130000D01*
X135660000Y-113050000D01*
G37*
D10*
%TO.C,REF\u002A\u002A*%
X226317279Y-123410526D02*
X221638332Y-123410526D01*
X221638332Y-122257500D01*
X226317279Y-122257500D01*
X226317279Y-123410526D01*
G36*
X226317279Y-123410526D02*
G01*
X221638332Y-123410526D01*
X221638332Y-122257500D01*
X226317279Y-122257500D01*
X226317279Y-123410526D01*
G37*
X224947033Y-116045362D02*
X224947690Y-116062572D01*
X224956236Y-116091467D01*
X224980561Y-116115972D01*
X225028013Y-116145143D01*
X225069668Y-116171793D01*
X225133084Y-116222960D01*
X225190555Y-116280400D01*
X225234517Y-116336279D01*
X225257406Y-116382762D01*
X225263014Y-116400674D01*
X225273404Y-116412970D01*
X225276907Y-116417116D01*
X225305540Y-116424083D01*
X225358236Y-116425526D01*
X225448332Y-116425526D01*
X225448332Y-116575921D01*
X225236323Y-116575921D01*
X225216528Y-116812183D01*
X225213870Y-116844483D01*
X225207678Y-116925340D01*
X225203303Y-116991135D01*
X225201125Y-117035791D01*
X225201521Y-117053233D01*
X225207280Y-117048219D01*
X225233557Y-117022083D01*
X225278983Y-116975758D01*
X225341261Y-116911647D01*
X225418092Y-116832150D01*
X225507175Y-116739669D01*
X225606214Y-116636606D01*
X225712909Y-116525362D01*
X225824960Y-116408338D01*
X225940070Y-116287936D01*
X226055939Y-116166558D01*
X226170269Y-116046604D01*
X226280761Y-115930476D01*
X226385116Y-115820575D01*
X226481035Y-115719304D01*
X226566219Y-115629063D01*
X226638370Y-115552253D01*
X226767289Y-115414539D01*
X226767876Y-115531852D01*
X226768463Y-115649164D01*
X225970381Y-116488485D01*
X225172299Y-117327807D01*
X225156345Y-117519106D01*
X225092514Y-118284528D01*
X225081233Y-118420287D01*
X225067235Y-118590154D01*
X225054315Y-118748505D01*
X225042722Y-118892228D01*
X225032702Y-119018210D01*
X225024502Y-119123338D01*
X225018369Y-119204501D01*
X225014551Y-119258586D01*
X225013294Y-119282480D01*
X225016612Y-119293429D01*
X225031524Y-119317071D01*
X225059804Y-119352703D01*
X225073453Y-119368277D01*
X225102959Y-119401948D01*
X225162494Y-119466428D01*
X225239915Y-119547768D01*
X225336727Y-119647591D01*
X225454437Y-119767520D01*
X225594549Y-119909179D01*
X225686723Y-120002136D01*
X225815214Y-120131795D01*
X225943254Y-120261079D01*
X226066995Y-120386097D01*
X226182587Y-120502959D01*
X226286180Y-120607774D01*
X226373926Y-120696652D01*
X226441976Y-120765702D01*
X226708712Y-121036757D01*
X226660264Y-121087326D01*
X226648838Y-121098719D01*
X226615130Y-121126697D01*
X226592005Y-121137895D01*
X226573900Y-121128335D01*
X226540240Y-121099649D01*
X226499887Y-121058520D01*
X226475325Y-121032542D01*
X226429518Y-120985104D01*
X226364778Y-120918566D01*
X226283390Y-120835263D01*
X226187640Y-120737528D01*
X226079816Y-120627695D01*
X225962203Y-120508096D01*
X225837087Y-120381066D01*
X225706754Y-120248938D01*
X224985926Y-119518732D01*
X224956564Y-119898017D01*
X224950163Y-119978972D01*
X224940816Y-120087793D01*
X224932385Y-120170217D01*
X224924246Y-120230575D01*
X224915774Y-120273200D01*
X224906345Y-120302424D01*
X224895332Y-120322580D01*
X224879920Y-120350750D01*
X224867238Y-120402539D01*
X224863463Y-120477152D01*
X224863463Y-120586447D01*
X224562674Y-120586447D01*
X224562674Y-120352500D01*
X223438927Y-120352500D01*
X223373970Y-120426295D01*
X223356205Y-120445511D01*
X223259926Y-120522712D01*
X223151144Y-120570239D01*
X223033357Y-120586447D01*
X222929422Y-120577854D01*
X222811865Y-120541628D01*
X222711229Y-120476882D01*
X222691615Y-120458378D01*
X222642598Y-120398475D01*
X222599592Y-120328693D01*
X222568753Y-120259909D01*
X222556236Y-120203002D01*
X222555994Y-120194741D01*
X222554194Y-120164471D01*
X222549487Y-120143563D01*
X222539639Y-120133669D01*
X222522418Y-120136444D01*
X222495589Y-120153540D01*
X222456919Y-120186610D01*
X222404175Y-120237307D01*
X222335123Y-120307285D01*
X222247529Y-120398197D01*
X222139160Y-120511695D01*
X222081437Y-120572280D01*
X221984950Y-120673718D01*
X221893663Y-120769889D01*
X221811154Y-120857013D01*
X221741001Y-120931311D01*
X221686780Y-120989003D01*
X221652069Y-121026310D01*
X221557187Y-121129539D01*
X221498544Y-121071052D01*
X221439900Y-121012566D01*
X222165274Y-120252237D01*
X222211011Y-120204263D01*
X222373728Y-120032940D01*
X222513408Y-119884738D01*
X222630468Y-119759198D01*
X222725328Y-119655861D01*
X222792404Y-119580967D01*
X223067042Y-119580967D01*
X223069201Y-119598589D01*
X223069578Y-119600430D01*
X223087575Y-119642171D01*
X223123523Y-119661620D01*
X223234332Y-119703083D01*
X223333058Y-119772156D01*
X223410706Y-119863524D01*
X223463923Y-119973195D01*
X223489353Y-120097173D01*
X223497776Y-120202105D01*
X224759577Y-120202105D01*
X224768375Y-120164506D01*
X224769931Y-120155279D01*
X224774767Y-120114018D01*
X224781366Y-120047304D01*
X224789237Y-119960453D01*
X224797892Y-119858777D01*
X224806838Y-119747592D01*
X224836504Y-119368277D01*
X224436627Y-118962198D01*
X224363282Y-118887961D01*
X224273542Y-118797837D01*
X224193035Y-118717775D01*
X224124583Y-118650542D01*
X224071012Y-118598910D01*
X224035147Y-118565646D01*
X224019810Y-118553521D01*
X224009526Y-118559314D01*
X223978896Y-118585675D01*
X223932800Y-118629709D01*
X223875360Y-118687444D01*
X223810700Y-118754911D01*
X223793833Y-118772804D01*
X223718202Y-118852839D01*
X223628079Y-118947977D01*
X223530250Y-119051067D01*
X223431500Y-119154956D01*
X223338615Y-119252493D01*
X223333035Y-119258346D01*
X223246679Y-119349214D01*
X223180785Y-119419577D01*
X223132746Y-119472783D01*
X223099958Y-119512177D01*
X223079815Y-119541108D01*
X223069711Y-119562922D01*
X223067042Y-119580967D01*
X222792404Y-119580967D01*
X222798406Y-119574266D01*
X222850121Y-119513955D01*
X222880891Y-119474466D01*
X222891135Y-119455342D01*
X222891136Y-119455229D01*
X222889731Y-119431394D01*
X222885626Y-119377967D01*
X222879143Y-119298584D01*
X222870603Y-119196880D01*
X222860328Y-119076493D01*
X222848639Y-118941057D01*
X222835858Y-118794211D01*
X222822307Y-118639590D01*
X222808307Y-118480830D01*
X222794180Y-118321568D01*
X222780248Y-118165441D01*
X222766831Y-118016083D01*
X222754252Y-117877133D01*
X222742833Y-117752226D01*
X222732894Y-117644998D01*
X222724757Y-117559087D01*
X222718745Y-117498127D01*
X222715178Y-117465756D01*
X222707986Y-117411538D01*
X222879668Y-117411538D01*
X222881867Y-117452630D01*
X222886706Y-117521735D01*
X222893943Y-117615870D01*
X222903336Y-117732053D01*
X222914642Y-117867299D01*
X222927618Y-118018627D01*
X222942024Y-118183054D01*
X222957616Y-118357597D01*
X222969805Y-118492206D01*
X222985071Y-118659145D01*
X222999364Y-118813618D01*
X223012400Y-118952649D01*
X223023895Y-119073264D01*
X223033565Y-119172489D01*
X223041125Y-119247348D01*
X223046292Y-119294867D01*
X223048781Y-119312072D01*
X223056331Y-119306742D01*
X223084017Y-119280578D01*
X223129004Y-119235637D01*
X223188195Y-119175191D01*
X223258494Y-119102509D01*
X223336803Y-119020864D01*
X223420025Y-118933526D01*
X223505064Y-118843767D01*
X223588822Y-118754858D01*
X223668202Y-118670070D01*
X223740108Y-118592673D01*
X223801442Y-118525941D01*
X223849108Y-118473142D01*
X223880008Y-118437550D01*
X223889036Y-118425186D01*
X224130669Y-118425186D01*
X224497066Y-118791299D01*
X224586664Y-118880679D01*
X224671108Y-118964320D01*
X224736522Y-119028027D01*
X224785303Y-119073868D01*
X224819848Y-119103909D01*
X224842554Y-119120218D01*
X224855817Y-119124862D01*
X224862035Y-119119908D01*
X224863604Y-119107423D01*
X224864610Y-119087363D01*
X224868235Y-119035712D01*
X224874225Y-118957320D01*
X224882293Y-118855759D01*
X224892150Y-118734602D01*
X224903508Y-118597421D01*
X224916079Y-118447787D01*
X224929575Y-118289271D01*
X224941490Y-118149563D01*
X224953906Y-118002414D01*
X224965038Y-117868805D01*
X224974621Y-117752028D01*
X224982385Y-117655378D01*
X224988064Y-117582145D01*
X224991392Y-117535624D01*
X224992099Y-117519106D01*
X224991539Y-117519416D01*
X224975758Y-117534623D01*
X224940701Y-117570303D01*
X224889458Y-117623220D01*
X224825114Y-117690139D01*
X224750759Y-117767823D01*
X224669480Y-117853036D01*
X224584365Y-117942541D01*
X224498501Y-118033102D01*
X224414976Y-118121483D01*
X224336879Y-118204448D01*
X224267297Y-118278760D01*
X224133236Y-118422434D01*
X224130669Y-118425186D01*
X223889036Y-118425186D01*
X223891046Y-118422434D01*
X223880226Y-118407785D01*
X223848769Y-118372722D01*
X223799598Y-118320265D01*
X223735639Y-118253372D01*
X223659818Y-118174999D01*
X223575062Y-118088103D01*
X223484297Y-117995641D01*
X223390451Y-117900569D01*
X223296449Y-117805845D01*
X223205219Y-117714424D01*
X223119686Y-117629265D01*
X223042778Y-117553323D01*
X222977421Y-117489556D01*
X222926541Y-117440920D01*
X222893065Y-117410372D01*
X222879919Y-117400868D01*
X222879668Y-117411538D01*
X222707986Y-117411538D01*
X222705758Y-117394737D01*
X222340174Y-117394737D01*
X222339736Y-117114835D01*
X222339509Y-116969584D01*
X222473858Y-116969584D01*
X222473858Y-117261052D01*
X222582477Y-117261052D01*
X222592140Y-117261044D01*
X222646699Y-117259880D01*
X222676371Y-117254902D01*
X222688666Y-117243477D01*
X222691095Y-117222971D01*
X222680396Y-117192829D01*
X222643749Y-117142687D01*
X222582477Y-117077237D01*
X222473858Y-116969584D01*
X222339509Y-116969584D01*
X222339299Y-116834934D01*
X221738980Y-116225000D01*
X221138662Y-115615066D01*
X221137839Y-115499337D01*
X221137016Y-115383610D01*
X221857064Y-116113449D01*
X221926659Y-116183944D01*
X222071070Y-116329828D01*
X222194537Y-116453875D01*
X222298655Y-116557611D01*
X222385020Y-116642562D01*
X222455227Y-116710256D01*
X222510871Y-116762219D01*
X222553547Y-116799977D01*
X222584851Y-116825057D01*
X222606377Y-116838986D01*
X222619720Y-116843289D01*
X222642220Y-116841986D01*
X222654851Y-116832468D01*
X222657029Y-116806427D01*
X222651792Y-116755559D01*
X222648181Y-116723533D01*
X222643156Y-116670002D01*
X222641132Y-116634408D01*
X222640140Y-116622138D01*
X222630481Y-116608996D01*
X222603798Y-116604641D01*
X222551997Y-116606542D01*
X222538771Y-116607287D01*
X222485828Y-116606447D01*
X222448168Y-116594813D01*
X222421624Y-116575921D01*
X222798069Y-116575921D01*
X222803599Y-116638585D01*
X222806153Y-116667017D01*
X222814113Y-116744642D01*
X222821956Y-116795769D01*
X222831126Y-116825711D01*
X222843068Y-116839780D01*
X222859224Y-116843289D01*
X222873751Y-116845679D01*
X222883384Y-116857098D01*
X222888767Y-116883645D01*
X222891110Y-116931414D01*
X222891621Y-117006502D01*
X222891621Y-117169715D01*
X222945043Y-117222971D01*
X223075437Y-117352960D01*
X223259253Y-117536206D01*
X223259253Y-117394737D01*
X224261885Y-117394737D01*
X224261885Y-117712237D01*
X223439922Y-117712237D01*
X223718684Y-118000493D01*
X223772079Y-118055548D01*
X223845912Y-118131120D01*
X223910024Y-118196082D01*
X223961056Y-118247060D01*
X223995652Y-118280681D01*
X224010452Y-118293574D01*
X224016078Y-118290018D01*
X224042458Y-118266118D01*
X224087944Y-118221862D01*
X224150107Y-118159708D01*
X224226517Y-118082115D01*
X224314744Y-117991540D01*
X224412357Y-117890441D01*
X224516928Y-117781275D01*
X224622035Y-117670964D01*
X224725069Y-117562246D01*
X224808625Y-117473136D01*
X224874749Y-117401271D01*
X224925482Y-117344289D01*
X224962870Y-117299828D01*
X224988955Y-117265525D01*
X225005782Y-117239017D01*
X225015393Y-117217942D01*
X225019834Y-117199939D01*
X225021011Y-117191169D01*
X225026231Y-117142847D01*
X225032837Y-117071707D01*
X225040103Y-116985861D01*
X225047302Y-116893421D01*
X225049743Y-116861225D01*
X225056796Y-116774236D01*
X225063520Y-116699203D01*
X225069255Y-116643255D01*
X225073335Y-116613520D01*
X225081337Y-116575921D01*
X222798069Y-116575921D01*
X222421624Y-116575921D01*
X222411051Y-116568396D01*
X222404658Y-116562835D01*
X222352380Y-116495487D01*
X222331676Y-116425526D01*
X222784576Y-116425526D01*
X224664401Y-116425526D01*
X224661678Y-116358684D01*
X224947016Y-116358684D01*
X224947016Y-116425526D01*
X225022801Y-116425526D01*
X225045507Y-116425366D01*
X225079149Y-116422442D01*
X225088861Y-116412970D01*
X225081322Y-116393267D01*
X225079094Y-116389511D01*
X225054085Y-116360623D01*
X225017852Y-116328563D01*
X224981708Y-116302560D01*
X224956969Y-116291842D01*
X224954745Y-116293536D01*
X224949226Y-116316810D01*
X224947016Y-116358684D01*
X224661678Y-116358684D01*
X224659492Y-116305007D01*
X224654582Y-116184488D01*
X224554319Y-116164348D01*
X224504038Y-116155214D01*
X224420070Y-116142425D01*
X224341260Y-116132776D01*
X224228463Y-116121345D01*
X224228463Y-116258421D01*
X223459779Y-116258421D01*
X223459779Y-116137596D01*
X223363694Y-116149065D01*
X223216882Y-116173646D01*
X223069127Y-116218089D01*
X222946909Y-116280062D01*
X222848157Y-116360413D01*
X222784576Y-116425526D01*
X222331676Y-116425526D01*
X222329376Y-116417754D01*
X222336423Y-116336211D01*
X222374298Y-116257434D01*
X222377963Y-116252529D01*
X222428581Y-116210327D01*
X222494569Y-116185365D01*
X222565702Y-116178725D01*
X222631759Y-116191492D01*
X222682514Y-116224750D01*
X222699699Y-116241729D01*
X222716440Y-116245844D01*
X222740413Y-116233115D01*
X222780894Y-116201332D01*
X222793314Y-116191564D01*
X222889206Y-116129911D01*
X223002810Y-116075084D01*
X223095725Y-116041184D01*
X223593463Y-116041184D01*
X223593463Y-116124737D01*
X224094779Y-116124737D01*
X224094779Y-116041184D01*
X223593463Y-116041184D01*
X223095725Y-116041184D01*
X223123548Y-116031033D01*
X223240841Y-116001706D01*
X223344112Y-115991052D01*
X223355083Y-115990968D01*
X223416065Y-115985031D01*
X223449555Y-115968385D01*
X223459779Y-115939133D01*
X223460980Y-115929917D01*
X223467544Y-115921991D01*
X223483486Y-115916189D01*
X223512814Y-115912181D01*
X223559535Y-115909639D01*
X223627654Y-115908230D01*
X223721181Y-115907628D01*
X223844121Y-115907500D01*
X223959314Y-115907725D01*
X224057221Y-115908635D01*
X224128895Y-115910469D01*
X224178096Y-115913466D01*
X224208585Y-115917863D01*
X224224120Y-115923898D01*
X224228463Y-115931808D01*
X224242748Y-115951232D01*
X224282773Y-115963627D01*
X224298092Y-115965796D01*
X224350325Y-115973430D01*
X224419832Y-115983778D01*
X224495832Y-115995240D01*
X224537746Y-116001075D01*
X224599087Y-116007394D01*
X224642368Y-116008918D01*
X224660152Y-116005197D01*
X224663189Y-116002773D01*
X224691225Y-115996785D01*
X224741659Y-115992617D01*
X224806369Y-115991052D01*
X224947016Y-115991052D01*
X224947032Y-116041184D01*
X224947033Y-116045362D01*
G36*
X224947033Y-116045362D02*
G01*
X224947690Y-116062572D01*
X224956236Y-116091467D01*
X224980561Y-116115972D01*
X225028013Y-116145143D01*
X225069668Y-116171793D01*
X225133084Y-116222960D01*
X225190555Y-116280400D01*
X225234517Y-116336279D01*
X225257406Y-116382762D01*
X225263014Y-116400674D01*
X225273404Y-116412970D01*
X225276907Y-116417116D01*
X225305540Y-116424083D01*
X225358236Y-116425526D01*
X225448332Y-116425526D01*
X225448332Y-116575921D01*
X225236323Y-116575921D01*
X225216528Y-116812183D01*
X225213870Y-116844483D01*
X225207678Y-116925340D01*
X225203303Y-116991135D01*
X225201125Y-117035791D01*
X225201521Y-117053233D01*
X225207280Y-117048219D01*
X225233557Y-117022083D01*
X225278983Y-116975758D01*
X225341261Y-116911647D01*
X225418092Y-116832150D01*
X225507175Y-116739669D01*
X225606214Y-116636606D01*
X225712909Y-116525362D01*
X225824960Y-116408338D01*
X225940070Y-116287936D01*
X226055939Y-116166558D01*
X226170269Y-116046604D01*
X226280761Y-115930476D01*
X226385116Y-115820575D01*
X226481035Y-115719304D01*
X226566219Y-115629063D01*
X226638370Y-115552253D01*
X226767289Y-115414539D01*
X226767876Y-115531852D01*
X226768463Y-115649164D01*
X225970381Y-116488485D01*
X225172299Y-117327807D01*
X225156345Y-117519106D01*
X225092514Y-118284528D01*
X225081233Y-118420287D01*
X225067235Y-118590154D01*
X225054315Y-118748505D01*
X225042722Y-118892228D01*
X225032702Y-119018210D01*
X225024502Y-119123338D01*
X225018369Y-119204501D01*
X225014551Y-119258586D01*
X225013294Y-119282480D01*
X225016612Y-119293429D01*
X225031524Y-119317071D01*
X225059804Y-119352703D01*
X225073453Y-119368277D01*
X225102959Y-119401948D01*
X225162494Y-119466428D01*
X225239915Y-119547768D01*
X225336727Y-119647591D01*
X225454437Y-119767520D01*
X225594549Y-119909179D01*
X225686723Y-120002136D01*
X225815214Y-120131795D01*
X225943254Y-120261079D01*
X226066995Y-120386097D01*
X226182587Y-120502959D01*
X226286180Y-120607774D01*
X226373926Y-120696652D01*
X226441976Y-120765702D01*
X226708712Y-121036757D01*
X226660264Y-121087326D01*
X226648838Y-121098719D01*
X226615130Y-121126697D01*
X226592005Y-121137895D01*
X226573900Y-121128335D01*
X226540240Y-121099649D01*
X226499887Y-121058520D01*
X226475325Y-121032542D01*
X226429518Y-120985104D01*
X226364778Y-120918566D01*
X226283390Y-120835263D01*
X226187640Y-120737528D01*
X226079816Y-120627695D01*
X225962203Y-120508096D01*
X225837087Y-120381066D01*
X225706754Y-120248938D01*
X224985926Y-119518732D01*
X224956564Y-119898017D01*
X224950163Y-119978972D01*
X224940816Y-120087793D01*
X224932385Y-120170217D01*
X224924246Y-120230575D01*
X224915774Y-120273200D01*
X224906345Y-120302424D01*
X224895332Y-120322580D01*
X224879920Y-120350750D01*
X224867238Y-120402539D01*
X224863463Y-120477152D01*
X224863463Y-120586447D01*
X224562674Y-120586447D01*
X224562674Y-120352500D01*
X223438927Y-120352500D01*
X223373970Y-120426295D01*
X223356205Y-120445511D01*
X223259926Y-120522712D01*
X223151144Y-120570239D01*
X223033357Y-120586447D01*
X222929422Y-120577854D01*
X222811865Y-120541628D01*
X222711229Y-120476882D01*
X222691615Y-120458378D01*
X222642598Y-120398475D01*
X222599592Y-120328693D01*
X222568753Y-120259909D01*
X222556236Y-120203002D01*
X222555994Y-120194741D01*
X222554194Y-120164471D01*
X222549487Y-120143563D01*
X222539639Y-120133669D01*
X222522418Y-120136444D01*
X222495589Y-120153540D01*
X222456919Y-120186610D01*
X222404175Y-120237307D01*
X222335123Y-120307285D01*
X222247529Y-120398197D01*
X222139160Y-120511695D01*
X222081437Y-120572280D01*
X221984950Y-120673718D01*
X221893663Y-120769889D01*
X221811154Y-120857013D01*
X221741001Y-120931311D01*
X221686780Y-120989003D01*
X221652069Y-121026310D01*
X221557187Y-121129539D01*
X221498544Y-121071052D01*
X221439900Y-121012566D01*
X222165274Y-120252237D01*
X222211011Y-120204263D01*
X222373728Y-120032940D01*
X222513408Y-119884738D01*
X222630468Y-119759198D01*
X222725328Y-119655861D01*
X222792404Y-119580967D01*
X223067042Y-119580967D01*
X223069201Y-119598589D01*
X223069578Y-119600430D01*
X223087575Y-119642171D01*
X223123523Y-119661620D01*
X223234332Y-119703083D01*
X223333058Y-119772156D01*
X223410706Y-119863524D01*
X223463923Y-119973195D01*
X223489353Y-120097173D01*
X223497776Y-120202105D01*
X224759577Y-120202105D01*
X224768375Y-120164506D01*
X224769931Y-120155279D01*
X224774767Y-120114018D01*
X224781366Y-120047304D01*
X224789237Y-119960453D01*
X224797892Y-119858777D01*
X224806838Y-119747592D01*
X224836504Y-119368277D01*
X224436627Y-118962198D01*
X224363282Y-118887961D01*
X224273542Y-118797837D01*
X224193035Y-118717775D01*
X224124583Y-118650542D01*
X224071012Y-118598910D01*
X224035147Y-118565646D01*
X224019810Y-118553521D01*
X224009526Y-118559314D01*
X223978896Y-118585675D01*
X223932800Y-118629709D01*
X223875360Y-118687444D01*
X223810700Y-118754911D01*
X223793833Y-118772804D01*
X223718202Y-118852839D01*
X223628079Y-118947977D01*
X223530250Y-119051067D01*
X223431500Y-119154956D01*
X223338615Y-119252493D01*
X223333035Y-119258346D01*
X223246679Y-119349214D01*
X223180785Y-119419577D01*
X223132746Y-119472783D01*
X223099958Y-119512177D01*
X223079815Y-119541108D01*
X223069711Y-119562922D01*
X223067042Y-119580967D01*
X222792404Y-119580967D01*
X222798406Y-119574266D01*
X222850121Y-119513955D01*
X222880891Y-119474466D01*
X222891135Y-119455342D01*
X222891136Y-119455229D01*
X222889731Y-119431394D01*
X222885626Y-119377967D01*
X222879143Y-119298584D01*
X222870603Y-119196880D01*
X222860328Y-119076493D01*
X222848639Y-118941057D01*
X222835858Y-118794211D01*
X222822307Y-118639590D01*
X222808307Y-118480830D01*
X222794180Y-118321568D01*
X222780248Y-118165441D01*
X222766831Y-118016083D01*
X222754252Y-117877133D01*
X222742833Y-117752226D01*
X222732894Y-117644998D01*
X222724757Y-117559087D01*
X222718745Y-117498127D01*
X222715178Y-117465756D01*
X222707986Y-117411538D01*
X222879668Y-117411538D01*
X222881867Y-117452630D01*
X222886706Y-117521735D01*
X222893943Y-117615870D01*
X222903336Y-117732053D01*
X222914642Y-117867299D01*
X222927618Y-118018627D01*
X222942024Y-118183054D01*
X222957616Y-118357597D01*
X222969805Y-118492206D01*
X222985071Y-118659145D01*
X222999364Y-118813618D01*
X223012400Y-118952649D01*
X223023895Y-119073264D01*
X223033565Y-119172489D01*
X223041125Y-119247348D01*
X223046292Y-119294867D01*
X223048781Y-119312072D01*
X223056331Y-119306742D01*
X223084017Y-119280578D01*
X223129004Y-119235637D01*
X223188195Y-119175191D01*
X223258494Y-119102509D01*
X223336803Y-119020864D01*
X223420025Y-118933526D01*
X223505064Y-118843767D01*
X223588822Y-118754858D01*
X223668202Y-118670070D01*
X223740108Y-118592673D01*
X223801442Y-118525941D01*
X223849108Y-118473142D01*
X223880008Y-118437550D01*
X223889036Y-118425186D01*
X224130669Y-118425186D01*
X224497066Y-118791299D01*
X224586664Y-118880679D01*
X224671108Y-118964320D01*
X224736522Y-119028027D01*
X224785303Y-119073868D01*
X224819848Y-119103909D01*
X224842554Y-119120218D01*
X224855817Y-119124862D01*
X224862035Y-119119908D01*
X224863604Y-119107423D01*
X224864610Y-119087363D01*
X224868235Y-119035712D01*
X224874225Y-118957320D01*
X224882293Y-118855759D01*
X224892150Y-118734602D01*
X224903508Y-118597421D01*
X224916079Y-118447787D01*
X224929575Y-118289271D01*
X224941490Y-118149563D01*
X224953906Y-118002414D01*
X224965038Y-117868805D01*
X224974621Y-117752028D01*
X224982385Y-117655378D01*
X224988064Y-117582145D01*
X224991392Y-117535624D01*
X224992099Y-117519106D01*
X224991539Y-117519416D01*
X224975758Y-117534623D01*
X224940701Y-117570303D01*
X224889458Y-117623220D01*
X224825114Y-117690139D01*
X224750759Y-117767823D01*
X224669480Y-117853036D01*
X224584365Y-117942541D01*
X224498501Y-118033102D01*
X224414976Y-118121483D01*
X224336879Y-118204448D01*
X224267297Y-118278760D01*
X224133236Y-118422434D01*
X224130669Y-118425186D01*
X223889036Y-118425186D01*
X223891046Y-118422434D01*
X223880226Y-118407785D01*
X223848769Y-118372722D01*
X223799598Y-118320265D01*
X223735639Y-118253372D01*
X223659818Y-118174999D01*
X223575062Y-118088103D01*
X223484297Y-117995641D01*
X223390451Y-117900569D01*
X223296449Y-117805845D01*
X223205219Y-117714424D01*
X223119686Y-117629265D01*
X223042778Y-117553323D01*
X222977421Y-117489556D01*
X222926541Y-117440920D01*
X222893065Y-117410372D01*
X222879919Y-117400868D01*
X222879668Y-117411538D01*
X222707986Y-117411538D01*
X222705758Y-117394737D01*
X222340174Y-117394737D01*
X222339736Y-117114835D01*
X222339509Y-116969584D01*
X222473858Y-116969584D01*
X222473858Y-117261052D01*
X222582477Y-117261052D01*
X222592140Y-117261044D01*
X222646699Y-117259880D01*
X222676371Y-117254902D01*
X222688666Y-117243477D01*
X222691095Y-117222971D01*
X222680396Y-117192829D01*
X222643749Y-117142687D01*
X222582477Y-117077237D01*
X222473858Y-116969584D01*
X222339509Y-116969584D01*
X222339299Y-116834934D01*
X221738980Y-116225000D01*
X221138662Y-115615066D01*
X221137839Y-115499337D01*
X221137016Y-115383610D01*
X221857064Y-116113449D01*
X221926659Y-116183944D01*
X222071070Y-116329828D01*
X222194537Y-116453875D01*
X222298655Y-116557611D01*
X222385020Y-116642562D01*
X222455227Y-116710256D01*
X222510871Y-116762219D01*
X222553547Y-116799977D01*
X222584851Y-116825057D01*
X222606377Y-116838986D01*
X222619720Y-116843289D01*
X222642220Y-116841986D01*
X222654851Y-116832468D01*
X222657029Y-116806427D01*
X222651792Y-116755559D01*
X222648181Y-116723533D01*
X222643156Y-116670002D01*
X222641132Y-116634408D01*
X222640140Y-116622138D01*
X222630481Y-116608996D01*
X222603798Y-116604641D01*
X222551997Y-116606542D01*
X222538771Y-116607287D01*
X222485828Y-116606447D01*
X222448168Y-116594813D01*
X222421624Y-116575921D01*
X222798069Y-116575921D01*
X222803599Y-116638585D01*
X222806153Y-116667017D01*
X222814113Y-116744642D01*
X222821956Y-116795769D01*
X222831126Y-116825711D01*
X222843068Y-116839780D01*
X222859224Y-116843289D01*
X222873751Y-116845679D01*
X222883384Y-116857098D01*
X222888767Y-116883645D01*
X222891110Y-116931414D01*
X222891621Y-117006502D01*
X222891621Y-117169715D01*
X222945043Y-117222971D01*
X223075437Y-117352960D01*
X223259253Y-117536206D01*
X223259253Y-117394737D01*
X224261885Y-117394737D01*
X224261885Y-117712237D01*
X223439922Y-117712237D01*
X223718684Y-118000493D01*
X223772079Y-118055548D01*
X223845912Y-118131120D01*
X223910024Y-118196082D01*
X223961056Y-118247060D01*
X223995652Y-118280681D01*
X224010452Y-118293574D01*
X224016078Y-118290018D01*
X224042458Y-118266118D01*
X224087944Y-118221862D01*
X224150107Y-118159708D01*
X224226517Y-118082115D01*
X224314744Y-117991540D01*
X224412357Y-117890441D01*
X224516928Y-117781275D01*
X224622035Y-117670964D01*
X224725069Y-117562246D01*
X224808625Y-117473136D01*
X224874749Y-117401271D01*
X224925482Y-117344289D01*
X224962870Y-117299828D01*
X224988955Y-117265525D01*
X225005782Y-117239017D01*
X225015393Y-117217942D01*
X225019834Y-117199939D01*
X225021011Y-117191169D01*
X225026231Y-117142847D01*
X225032837Y-117071707D01*
X225040103Y-116985861D01*
X225047302Y-116893421D01*
X225049743Y-116861225D01*
X225056796Y-116774236D01*
X225063520Y-116699203D01*
X225069255Y-116643255D01*
X225073335Y-116613520D01*
X225081337Y-116575921D01*
X222798069Y-116575921D01*
X222421624Y-116575921D01*
X222411051Y-116568396D01*
X222404658Y-116562835D01*
X222352380Y-116495487D01*
X222331676Y-116425526D01*
X222784576Y-116425526D01*
X224664401Y-116425526D01*
X224661678Y-116358684D01*
X224947016Y-116358684D01*
X224947016Y-116425526D01*
X225022801Y-116425526D01*
X225045507Y-116425366D01*
X225079149Y-116422442D01*
X225088861Y-116412970D01*
X225081322Y-116393267D01*
X225079094Y-116389511D01*
X225054085Y-116360623D01*
X225017852Y-116328563D01*
X224981708Y-116302560D01*
X224956969Y-116291842D01*
X224954745Y-116293536D01*
X224949226Y-116316810D01*
X224947016Y-116358684D01*
X224661678Y-116358684D01*
X224659492Y-116305007D01*
X224654582Y-116184488D01*
X224554319Y-116164348D01*
X224504038Y-116155214D01*
X224420070Y-116142425D01*
X224341260Y-116132776D01*
X224228463Y-116121345D01*
X224228463Y-116258421D01*
X223459779Y-116258421D01*
X223459779Y-116137596D01*
X223363694Y-116149065D01*
X223216882Y-116173646D01*
X223069127Y-116218089D01*
X222946909Y-116280062D01*
X222848157Y-116360413D01*
X222784576Y-116425526D01*
X222331676Y-116425526D01*
X222329376Y-116417754D01*
X222336423Y-116336211D01*
X222374298Y-116257434D01*
X222377963Y-116252529D01*
X222428581Y-116210327D01*
X222494569Y-116185365D01*
X222565702Y-116178725D01*
X222631759Y-116191492D01*
X222682514Y-116224750D01*
X222699699Y-116241729D01*
X222716440Y-116245844D01*
X222740413Y-116233115D01*
X222780894Y-116201332D01*
X222793314Y-116191564D01*
X222889206Y-116129911D01*
X223002810Y-116075084D01*
X223095725Y-116041184D01*
X223593463Y-116041184D01*
X223593463Y-116124737D01*
X224094779Y-116124737D01*
X224094779Y-116041184D01*
X223593463Y-116041184D01*
X223095725Y-116041184D01*
X223123548Y-116031033D01*
X223240841Y-116001706D01*
X223344112Y-115991052D01*
X223355083Y-115990968D01*
X223416065Y-115985031D01*
X223449555Y-115968385D01*
X223459779Y-115939133D01*
X223460980Y-115929917D01*
X223467544Y-115921991D01*
X223483486Y-115916189D01*
X223512814Y-115912181D01*
X223559535Y-115909639D01*
X223627654Y-115908230D01*
X223721181Y-115907628D01*
X223844121Y-115907500D01*
X223959314Y-115907725D01*
X224057221Y-115908635D01*
X224128895Y-115910469D01*
X224178096Y-115913466D01*
X224208585Y-115917863D01*
X224224120Y-115923898D01*
X224228463Y-115931808D01*
X224242748Y-115951232D01*
X224282773Y-115963627D01*
X224298092Y-115965796D01*
X224350325Y-115973430D01*
X224419832Y-115983778D01*
X224495832Y-115995240D01*
X224537746Y-116001075D01*
X224599087Y-116007394D01*
X224642368Y-116008918D01*
X224660152Y-116005197D01*
X224663189Y-116002773D01*
X224691225Y-115996785D01*
X224741659Y-115992617D01*
X224806369Y-115991052D01*
X224947016Y-115991052D01*
X224947032Y-116041184D01*
X224947033Y-116045362D01*
G37*
X97993684Y-121332216D02*
X98034650Y-121345005D01*
X98085099Y-121366261D01*
X98109526Y-121377684D01*
X98127155Y-121379749D01*
X98131053Y-121363916D01*
X98131057Y-121363468D01*
X98139312Y-121348351D01*
X98167781Y-121340603D01*
X98222961Y-121338421D01*
X98314869Y-121338421D01*
X98314869Y-122140526D01*
X98131053Y-122140526D01*
X98131053Y-121587483D01*
X98085358Y-121545134D01*
X98071082Y-121533098D01*
X98028558Y-121512534D01*
X97976192Y-121511710D01*
X97904889Y-121529856D01*
X97880852Y-121531005D01*
X97852656Y-121513402D01*
X97815126Y-121471562D01*
X97796921Y-121448419D01*
X97775391Y-121415742D01*
X97772073Y-121394942D01*
X97784128Y-121377395D01*
X97821135Y-121355206D01*
X97878612Y-121337645D01*
X97940972Y-121328938D01*
X97993684Y-121332216D01*
G36*
X97993684Y-121332216D02*
G01*
X98034650Y-121345005D01*
X98085099Y-121366261D01*
X98109526Y-121377684D01*
X98127155Y-121379749D01*
X98131053Y-121363916D01*
X98131057Y-121363468D01*
X98139312Y-121348351D01*
X98167781Y-121340603D01*
X98222961Y-121338421D01*
X98314869Y-121338421D01*
X98314869Y-122140526D01*
X98131053Y-122140526D01*
X98131053Y-121587483D01*
X98085358Y-121545134D01*
X98071082Y-121533098D01*
X98028558Y-121512534D01*
X97976192Y-121511710D01*
X97904889Y-121529856D01*
X97880852Y-121531005D01*
X97852656Y-121513402D01*
X97815126Y-121471562D01*
X97796921Y-121448419D01*
X97775391Y-121415742D01*
X97772073Y-121394942D01*
X97784128Y-121377395D01*
X97821135Y-121355206D01*
X97878612Y-121337645D01*
X97940972Y-121328938D01*
X97993684Y-121332216D01*
G37*
X98237063Y-122602716D02*
X98287550Y-122626344D01*
X98331579Y-122660978D01*
X98331579Y-122626344D01*
X98332676Y-122613194D01*
X98342885Y-122599252D01*
X98370493Y-122593094D01*
X98423487Y-122591710D01*
X98515395Y-122591710D01*
X98515395Y-123410526D01*
X98331579Y-123410526D01*
X98331579Y-123143944D01*
X98331557Y-123128640D01*
X98329989Y-123021060D01*
X98326141Y-122933427D01*
X98320287Y-122870224D01*
X98312701Y-122835929D01*
X98305736Y-122822982D01*
X98262860Y-122782378D01*
X98204458Y-122764404D01*
X98140686Y-122772789D01*
X98125044Y-122778472D01*
X98091721Y-122788517D01*
X98068947Y-122785398D01*
X98046031Y-122764979D01*
X98012283Y-122723127D01*
X97957547Y-122654017D01*
X97996020Y-122622864D01*
X98032592Y-122604112D01*
X98096833Y-122591447D01*
X98169240Y-122591033D01*
X98237063Y-122602716D01*
G36*
X98237063Y-122602716D02*
G01*
X98287550Y-122626344D01*
X98331579Y-122660978D01*
X98331579Y-122626344D01*
X98332676Y-122613194D01*
X98342885Y-122599252D01*
X98370493Y-122593094D01*
X98423487Y-122591710D01*
X98515395Y-122591710D01*
X98515395Y-123410526D01*
X98331579Y-123410526D01*
X98331579Y-123143944D01*
X98331557Y-123128640D01*
X98329989Y-123021060D01*
X98326141Y-122933427D01*
X98320287Y-122870224D01*
X98312701Y-122835929D01*
X98305736Y-122822982D01*
X98262860Y-122782378D01*
X98204458Y-122764404D01*
X98140686Y-122772789D01*
X98125044Y-122778472D01*
X98091721Y-122788517D01*
X98068947Y-122785398D01*
X98046031Y-122764979D01*
X98012283Y-122723127D01*
X97957547Y-122654017D01*
X97996020Y-122622864D01*
X98032592Y-122604112D01*
X98096833Y-122591447D01*
X98169240Y-122591033D01*
X98237063Y-122602716D01*
G37*
X101723816Y-123410526D02*
X101556711Y-123410526D01*
X101556711Y-123152601D01*
X101556526Y-123092605D01*
X101554626Y-122993237D01*
X101549816Y-122919673D01*
X101541052Y-122866827D01*
X101527290Y-122829614D01*
X101507487Y-122802949D01*
X101480600Y-122781746D01*
X101451248Y-122765947D01*
X101416491Y-122761467D01*
X101367058Y-122771429D01*
X101351173Y-122775576D01*
X101311520Y-122781818D01*
X101283167Y-122772875D01*
X101250306Y-122745195D01*
X101244070Y-122739175D01*
X101209594Y-122701937D01*
X101187361Y-122671660D01*
X101184311Y-122664366D01*
X101190354Y-122637432D01*
X101220998Y-122615898D01*
X101269363Y-122600786D01*
X101328566Y-122593114D01*
X101391728Y-122593904D01*
X101451967Y-122604175D01*
X101502402Y-122624948D01*
X101518388Y-122634648D01*
X101545302Y-122648845D01*
X101555264Y-122645594D01*
X101556711Y-122624886D01*
X101557050Y-122617451D01*
X101565112Y-122600982D01*
X101590119Y-122593486D01*
X101640264Y-122591710D01*
X101723816Y-122591710D01*
X101723816Y-123410526D01*
G36*
X101723816Y-123410526D02*
G01*
X101556711Y-123410526D01*
X101556711Y-123152601D01*
X101556526Y-123092605D01*
X101554626Y-122993237D01*
X101549816Y-122919673D01*
X101541052Y-122866827D01*
X101527290Y-122829614D01*
X101507487Y-122802949D01*
X101480600Y-122781746D01*
X101451248Y-122765947D01*
X101416491Y-122761467D01*
X101367058Y-122771429D01*
X101351173Y-122775576D01*
X101311520Y-122781818D01*
X101283167Y-122772875D01*
X101250306Y-122745195D01*
X101244070Y-122739175D01*
X101209594Y-122701937D01*
X101187361Y-122671660D01*
X101184311Y-122664366D01*
X101190354Y-122637432D01*
X101220998Y-122615898D01*
X101269363Y-122600786D01*
X101328566Y-122593114D01*
X101391728Y-122593904D01*
X101451967Y-122604175D01*
X101502402Y-122624948D01*
X101518388Y-122634648D01*
X101545302Y-122648845D01*
X101555264Y-122645594D01*
X101556711Y-122624886D01*
X101557050Y-122617451D01*
X101565112Y-122600982D01*
X101590119Y-122593486D01*
X101640264Y-122591710D01*
X101723816Y-122591710D01*
X101723816Y-123410526D01*
G37*
X98649079Y-121598533D02*
X98650489Y-121715550D01*
X98656007Y-121810058D01*
X98667185Y-121878751D01*
X98685572Y-121925478D01*
X98712717Y-121954089D01*
X98750168Y-121968432D01*
X98799474Y-121972358D01*
X98846552Y-121968854D01*
X98884574Y-121955139D01*
X98912210Y-121927355D01*
X98931009Y-121881651D01*
X98942519Y-121814179D01*
X98948290Y-121721089D01*
X98949869Y-121598533D01*
X98949869Y-121338421D01*
X99116974Y-121338421D01*
X99116974Y-121652004D01*
X99116688Y-121735705D01*
X99114459Y-121843943D01*
X99108869Y-121926489D01*
X99098561Y-121988068D01*
X99082183Y-122033405D01*
X99058379Y-122067226D01*
X99025796Y-122094257D01*
X98983079Y-122119221D01*
X98893377Y-122150825D01*
X98799761Y-122152887D01*
X98711496Y-122123783D01*
X98672986Y-122104917D01*
X98653880Y-122102097D01*
X98649079Y-122115428D01*
X98641109Y-122130396D01*
X98612578Y-122138281D01*
X98557172Y-122140526D01*
X98465264Y-122140526D01*
X98465264Y-121338421D01*
X98649079Y-121338421D01*
X98649079Y-121598533D01*
G36*
X98649079Y-121598533D02*
G01*
X98650489Y-121715550D01*
X98656007Y-121810058D01*
X98667185Y-121878751D01*
X98685572Y-121925478D01*
X98712717Y-121954089D01*
X98750168Y-121968432D01*
X98799474Y-121972358D01*
X98846552Y-121968854D01*
X98884574Y-121955139D01*
X98912210Y-121927355D01*
X98931009Y-121881651D01*
X98942519Y-121814179D01*
X98948290Y-121721089D01*
X98949869Y-121598533D01*
X98949869Y-121338421D01*
X99116974Y-121338421D01*
X99116974Y-121652004D01*
X99116688Y-121735705D01*
X99114459Y-121843943D01*
X99108869Y-121926489D01*
X99098561Y-121988068D01*
X99082183Y-122033405D01*
X99058379Y-122067226D01*
X99025796Y-122094257D01*
X98983079Y-122119221D01*
X98893377Y-122150825D01*
X98799761Y-122152887D01*
X98711496Y-122123783D01*
X98672986Y-122104917D01*
X98653880Y-122102097D01*
X98649079Y-122115428D01*
X98641109Y-122130396D01*
X98612578Y-122138281D01*
X98557172Y-122140526D01*
X98465264Y-122140526D01*
X98465264Y-121338421D01*
X98649079Y-121338421D01*
X98649079Y-121598533D01*
G37*
X101442937Y-121336840D02*
X101519112Y-121360773D01*
X101552699Y-121377040D01*
X101569592Y-121378720D01*
X101573422Y-121363916D01*
X101573425Y-121363468D01*
X101581680Y-121348351D01*
X101610149Y-121340603D01*
X101665329Y-121338421D01*
X101757237Y-121338421D01*
X101757237Y-122140526D01*
X101573422Y-122140526D01*
X101573422Y-121864043D01*
X101573296Y-121770680D01*
X101572436Y-121693988D01*
X101570137Y-121640322D01*
X101565690Y-121604212D01*
X101558390Y-121580191D01*
X101547530Y-121562791D01*
X101532405Y-121546543D01*
X101511801Y-121529261D01*
X101452555Y-121506042D01*
X101390366Y-121512857D01*
X101333398Y-121549581D01*
X101317115Y-121566673D01*
X101305426Y-121583971D01*
X101297586Y-121606990D01*
X101292827Y-121641271D01*
X101290379Y-121692353D01*
X101289473Y-121765777D01*
X101289343Y-121867081D01*
X101289343Y-122140526D01*
X101105527Y-122140526D01*
X101105894Y-121843914D01*
X101105919Y-121830702D01*
X101107513Y-121704535D01*
X101112408Y-121606528D01*
X101121864Y-121531915D01*
X101137139Y-121475931D01*
X101159490Y-121433809D01*
X101190175Y-121400784D01*
X101230454Y-121372090D01*
X101272043Y-121352226D01*
X101355800Y-121334178D01*
X101442937Y-121336840D01*
G36*
X101442937Y-121336840D02*
G01*
X101519112Y-121360773D01*
X101552699Y-121377040D01*
X101569592Y-121378720D01*
X101573422Y-121363916D01*
X101573425Y-121363468D01*
X101581680Y-121348351D01*
X101610149Y-121340603D01*
X101665329Y-121338421D01*
X101757237Y-121338421D01*
X101757237Y-122140526D01*
X101573422Y-122140526D01*
X101573422Y-121864043D01*
X101573296Y-121770680D01*
X101572436Y-121693988D01*
X101570137Y-121640322D01*
X101565690Y-121604212D01*
X101558390Y-121580191D01*
X101547530Y-121562791D01*
X101532405Y-121546543D01*
X101511801Y-121529261D01*
X101452555Y-121506042D01*
X101390366Y-121512857D01*
X101333398Y-121549581D01*
X101317115Y-121566673D01*
X101305426Y-121583971D01*
X101297586Y-121606990D01*
X101292827Y-121641271D01*
X101290379Y-121692353D01*
X101289473Y-121765777D01*
X101289343Y-121867081D01*
X101289343Y-122140526D01*
X101105527Y-122140526D01*
X101105894Y-121843914D01*
X101105919Y-121830702D01*
X101107513Y-121704535D01*
X101112408Y-121606528D01*
X101121864Y-121531915D01*
X101137139Y-121475931D01*
X101159490Y-121433809D01*
X101190175Y-121400784D01*
X101230454Y-121372090D01*
X101272043Y-121352226D01*
X101355800Y-121334178D01*
X101442937Y-121336840D01*
G37*
X97523610Y-121342247D02*
X97614791Y-121377771D01*
X97691907Y-121436413D01*
X97748864Y-121516956D01*
X97752710Y-121525169D01*
X97777130Y-121605267D01*
X97789330Y-121700948D01*
X97789234Y-121800569D01*
X97776764Y-121892488D01*
X97751843Y-121965066D01*
X97721073Y-122015650D01*
X97653344Y-122087310D01*
X97568657Y-122132862D01*
X97496202Y-122151282D01*
X97385875Y-122153293D01*
X97280302Y-122125513D01*
X97186682Y-122069142D01*
X97126088Y-122019196D01*
X97180664Y-121962887D01*
X97215144Y-121929530D01*
X97246332Y-121910958D01*
X97275250Y-121915047D01*
X97312237Y-121940000D01*
X97326985Y-121949768D01*
X97389291Y-121969762D01*
X97460903Y-121969749D01*
X97527950Y-121949143D01*
X97553196Y-121932595D01*
X97590228Y-121883730D01*
X97608792Y-121811958D01*
X97609987Y-121714136D01*
X97609983Y-121714081D01*
X97596171Y-121626562D01*
X97565744Y-121565881D01*
X97515676Y-121528345D01*
X97442941Y-121510261D01*
X97397137Y-121507829D01*
X97357116Y-121517789D01*
X97316070Y-121546642D01*
X97262954Y-121591336D01*
X97195688Y-121537279D01*
X97171113Y-121516570D01*
X97140416Y-121486899D01*
X97128422Y-121469413D01*
X97132669Y-121461533D01*
X97157135Y-121437340D01*
X97196110Y-121406571D01*
X97226605Y-121386549D01*
X97323424Y-121345419D01*
X97424457Y-121331057D01*
X97523610Y-121342247D01*
G36*
X97523610Y-121342247D02*
G01*
X97614791Y-121377771D01*
X97691907Y-121436413D01*
X97748864Y-121516956D01*
X97752710Y-121525169D01*
X97777130Y-121605267D01*
X97789330Y-121700948D01*
X97789234Y-121800569D01*
X97776764Y-121892488D01*
X97751843Y-121965066D01*
X97721073Y-122015650D01*
X97653344Y-122087310D01*
X97568657Y-122132862D01*
X97496202Y-122151282D01*
X97385875Y-122153293D01*
X97280302Y-122125513D01*
X97186682Y-122069142D01*
X97126088Y-122019196D01*
X97180664Y-121962887D01*
X97215144Y-121929530D01*
X97246332Y-121910958D01*
X97275250Y-121915047D01*
X97312237Y-121940000D01*
X97326985Y-121949768D01*
X97389291Y-121969762D01*
X97460903Y-121969749D01*
X97527950Y-121949143D01*
X97553196Y-121932595D01*
X97590228Y-121883730D01*
X97608792Y-121811958D01*
X97609987Y-121714136D01*
X97609983Y-121714081D01*
X97596171Y-121626562D01*
X97565744Y-121565881D01*
X97515676Y-121528345D01*
X97442941Y-121510261D01*
X97397137Y-121507829D01*
X97357116Y-121517789D01*
X97316070Y-121546642D01*
X97262954Y-121591336D01*
X97195688Y-121537279D01*
X97171113Y-121516570D01*
X97140416Y-121486899D01*
X97128422Y-121469413D01*
X97132669Y-121461533D01*
X97157135Y-121437340D01*
X97196110Y-121406571D01*
X97226605Y-121386549D01*
X97323424Y-121345419D01*
X97424457Y-121331057D01*
X97523610Y-121342247D01*
G37*
X99914982Y-121797116D02*
X99910320Y-121850001D01*
X99889714Y-121950965D01*
X99852857Y-122028007D01*
X99796761Y-122086201D01*
X99718434Y-122130617D01*
X99688023Y-122141188D01*
X99609263Y-122154377D01*
X99526384Y-122154018D01*
X99456450Y-122139531D01*
X99455076Y-122139005D01*
X99398718Y-122105852D01*
X99341780Y-122054530D01*
X99294535Y-121995840D01*
X99267255Y-121940584D01*
X99259169Y-121900193D01*
X99252246Y-121824569D01*
X99251085Y-121757161D01*
X99419442Y-121757161D01*
X99429507Y-121838014D01*
X99453151Y-121904451D01*
X99488973Y-121947862D01*
X99502551Y-121955316D01*
X99554327Y-121968864D01*
X99614213Y-121971651D01*
X99664596Y-121962237D01*
X99684260Y-121948736D01*
X99711862Y-121901523D01*
X99729230Y-121827630D01*
X99735264Y-121730663D01*
X99735167Y-121702750D01*
X99733071Y-121646190D01*
X99726100Y-121609294D01*
X99711475Y-121582031D01*
X99686418Y-121554372D01*
X99638736Y-121520849D01*
X99576663Y-121507143D01*
X99516689Y-121520197D01*
X99466891Y-121557951D01*
X99435345Y-121618349D01*
X99424358Y-121670502D01*
X99419442Y-121757161D01*
X99251085Y-121757161D01*
X99250763Y-121738442D01*
X99254478Y-121652719D01*
X99263145Y-121578305D01*
X99276522Y-121526106D01*
X99307679Y-121467006D01*
X99373808Y-121394340D01*
X99458331Y-121348310D01*
X99558734Y-121330090D01*
X99672505Y-121340858D01*
X99691435Y-121345445D01*
X99779595Y-121385000D01*
X99846028Y-121449941D01*
X99890735Y-121540271D01*
X99913718Y-121655994D01*
X99914387Y-121730663D01*
X99914982Y-121797116D01*
G36*
X99914982Y-121797116D02*
G01*
X99910320Y-121850001D01*
X99889714Y-121950965D01*
X99852857Y-122028007D01*
X99796761Y-122086201D01*
X99718434Y-122130617D01*
X99688023Y-122141188D01*
X99609263Y-122154377D01*
X99526384Y-122154018D01*
X99456450Y-122139531D01*
X99455076Y-122139005D01*
X99398718Y-122105852D01*
X99341780Y-122054530D01*
X99294535Y-121995840D01*
X99267255Y-121940584D01*
X99259169Y-121900193D01*
X99252246Y-121824569D01*
X99251085Y-121757161D01*
X99419442Y-121757161D01*
X99429507Y-121838014D01*
X99453151Y-121904451D01*
X99488973Y-121947862D01*
X99502551Y-121955316D01*
X99554327Y-121968864D01*
X99614213Y-121971651D01*
X99664596Y-121962237D01*
X99684260Y-121948736D01*
X99711862Y-121901523D01*
X99729230Y-121827630D01*
X99735264Y-121730663D01*
X99735167Y-121702750D01*
X99733071Y-121646190D01*
X99726100Y-121609294D01*
X99711475Y-121582031D01*
X99686418Y-121554372D01*
X99638736Y-121520849D01*
X99576663Y-121507143D01*
X99516689Y-121520197D01*
X99466891Y-121557951D01*
X99435345Y-121618349D01*
X99424358Y-121670502D01*
X99419442Y-121757161D01*
X99251085Y-121757161D01*
X99250763Y-121738442D01*
X99254478Y-121652719D01*
X99263145Y-121578305D01*
X99276522Y-121526106D01*
X99307679Y-121467006D01*
X99373808Y-121394340D01*
X99458331Y-121348310D01*
X99558734Y-121330090D01*
X99672505Y-121340858D01*
X99691435Y-121345445D01*
X99779595Y-121385000D01*
X99846028Y-121449941D01*
X99890735Y-121540271D01*
X99913718Y-121655994D01*
X99914387Y-121730663D01*
X99914982Y-121797116D01*
G37*
X100048063Y-122854107D02*
X100070655Y-122921510D01*
X100097379Y-122996127D01*
X100119696Y-123052654D01*
X100135759Y-123086486D01*
X100143724Y-123093016D01*
X100145646Y-123087337D01*
X100156049Y-123052507D01*
X100172619Y-122994335D01*
X100193516Y-122919333D01*
X100216900Y-122834013D01*
X100280518Y-122600066D01*
X100377655Y-122594990D01*
X100385854Y-122594584D01*
X100438235Y-122594046D01*
X100463406Y-122599423D01*
X100466612Y-122611701D01*
X100462562Y-122623692D01*
X100449241Y-122664734D01*
X100428384Y-122729736D01*
X100401479Y-122814048D01*
X100370012Y-122913022D01*
X100335469Y-123022006D01*
X100212505Y-123410526D01*
X100058689Y-123410526D01*
X99986213Y-123164046D01*
X99972830Y-123118785D01*
X99948096Y-123036502D01*
X99926962Y-122967940D01*
X99911329Y-122919225D01*
X99903102Y-122896483D01*
X99900758Y-122894787D01*
X99889351Y-122909456D01*
X99873065Y-122948248D01*
X99854606Y-123005102D01*
X99853631Y-123008441D01*
X99828917Y-123092347D01*
X99800641Y-123187351D01*
X99774730Y-123273528D01*
X99732714Y-123412253D01*
X99577750Y-123402171D01*
X99505987Y-123176579D01*
X99474480Y-123077454D01*
X99439187Y-122966281D01*
X99405393Y-122859704D01*
X99377418Y-122771349D01*
X99320613Y-122591710D01*
X99510656Y-122591710D01*
X99556720Y-122762993D01*
X99568965Y-122808251D01*
X99592125Y-122892625D01*
X99613572Y-122969384D01*
X99629876Y-123026184D01*
X99656969Y-123118092D01*
X99743374Y-122859079D01*
X99829780Y-122600066D01*
X99895870Y-122595104D01*
X99961959Y-122590143D01*
X100048063Y-122854107D01*
G36*
X100048063Y-122854107D02*
G01*
X100070655Y-122921510D01*
X100097379Y-122996127D01*
X100119696Y-123052654D01*
X100135759Y-123086486D01*
X100143724Y-123093016D01*
X100145646Y-123087337D01*
X100156049Y-123052507D01*
X100172619Y-122994335D01*
X100193516Y-122919333D01*
X100216900Y-122834013D01*
X100280518Y-122600066D01*
X100377655Y-122594990D01*
X100385854Y-122594584D01*
X100438235Y-122594046D01*
X100463406Y-122599423D01*
X100466612Y-122611701D01*
X100462562Y-122623692D01*
X100449241Y-122664734D01*
X100428384Y-122729736D01*
X100401479Y-122814048D01*
X100370012Y-122913022D01*
X100335469Y-123022006D01*
X100212505Y-123410526D01*
X100058689Y-123410526D01*
X99986213Y-123164046D01*
X99972830Y-123118785D01*
X99948096Y-123036502D01*
X99926962Y-122967940D01*
X99911329Y-122919225D01*
X99903102Y-122896483D01*
X99900758Y-122894787D01*
X99889351Y-122909456D01*
X99873065Y-122948248D01*
X99854606Y-123005102D01*
X99853631Y-123008441D01*
X99828917Y-123092347D01*
X99800641Y-123187351D01*
X99774730Y-123273528D01*
X99732714Y-123412253D01*
X99577750Y-123402171D01*
X99505987Y-123176579D01*
X99474480Y-123077454D01*
X99439187Y-122966281D01*
X99405393Y-122859704D01*
X99377418Y-122771349D01*
X99320613Y-122591710D01*
X99510656Y-122591710D01*
X99556720Y-122762993D01*
X99568965Y-122808251D01*
X99592125Y-122892625D01*
X99613572Y-122969384D01*
X99629876Y-123026184D01*
X99656969Y-123118092D01*
X99743374Y-122859079D01*
X99829780Y-122600066D01*
X99895870Y-122595104D01*
X99961959Y-122590143D01*
X100048063Y-122854107D01*
G37*
X104077431Y-121785368D02*
X104075273Y-121837701D01*
X104070376Y-121901519D01*
X104062033Y-121946752D01*
X104048256Y-121982593D01*
X104027057Y-122018236D01*
X104026154Y-122019587D01*
X103973953Y-122077335D01*
X103910083Y-122121380D01*
X103835813Y-122147517D01*
X103738110Y-122156003D01*
X103642350Y-122139316D01*
X103556755Y-122099106D01*
X103489545Y-122037022D01*
X103470250Y-122007688D01*
X103434216Y-121916496D01*
X103416344Y-121803984D01*
X103416650Y-121775524D01*
X103596249Y-121775524D01*
X103596588Y-121828750D01*
X103602231Y-121864284D01*
X103615089Y-121891589D01*
X103637072Y-121920124D01*
X103667579Y-121948440D01*
X103728592Y-121973710D01*
X103794106Y-121969016D01*
X103856719Y-121933896D01*
X103874381Y-121917122D01*
X103893239Y-121888407D01*
X103903696Y-121848046D01*
X103909624Y-121785154D01*
X103911257Y-121737910D01*
X103902311Y-121641428D01*
X103874860Y-121572352D01*
X103828781Y-121530301D01*
X103774766Y-121510165D01*
X103710349Y-121511860D01*
X103650637Y-121545855D01*
X103636361Y-121558797D01*
X103618347Y-121581440D01*
X103607659Y-121611064D01*
X103601729Y-121656482D01*
X103597988Y-121726506D01*
X103596249Y-121775524D01*
X103416650Y-121775524D01*
X103417723Y-121675624D01*
X103419482Y-121657418D01*
X103444024Y-121540812D01*
X103489430Y-121450290D01*
X103555795Y-121385754D01*
X103643216Y-121347104D01*
X103751791Y-121334243D01*
X103792811Y-121335450D01*
X103876934Y-121350220D01*
X103945722Y-121385474D01*
X104009854Y-121445828D01*
X104020110Y-121457942D01*
X104047774Y-121498737D01*
X104065955Y-121544930D01*
X104076036Y-121603468D01*
X104079401Y-121681299D01*
X104078329Y-121737910D01*
X104077431Y-121785368D01*
G36*
X104077431Y-121785368D02*
G01*
X104075273Y-121837701D01*
X104070376Y-121901519D01*
X104062033Y-121946752D01*
X104048256Y-121982593D01*
X104027057Y-122018236D01*
X104026154Y-122019587D01*
X103973953Y-122077335D01*
X103910083Y-122121380D01*
X103835813Y-122147517D01*
X103738110Y-122156003D01*
X103642350Y-122139316D01*
X103556755Y-122099106D01*
X103489545Y-122037022D01*
X103470250Y-122007688D01*
X103434216Y-121916496D01*
X103416344Y-121803984D01*
X103416650Y-121775524D01*
X103596249Y-121775524D01*
X103596588Y-121828750D01*
X103602231Y-121864284D01*
X103615089Y-121891589D01*
X103637072Y-121920124D01*
X103667579Y-121948440D01*
X103728592Y-121973710D01*
X103794106Y-121969016D01*
X103856719Y-121933896D01*
X103874381Y-121917122D01*
X103893239Y-121888407D01*
X103903696Y-121848046D01*
X103909624Y-121785154D01*
X103911257Y-121737910D01*
X103902311Y-121641428D01*
X103874860Y-121572352D01*
X103828781Y-121530301D01*
X103774766Y-121510165D01*
X103710349Y-121511860D01*
X103650637Y-121545855D01*
X103636361Y-121558797D01*
X103618347Y-121581440D01*
X103607659Y-121611064D01*
X103601729Y-121656482D01*
X103597988Y-121726506D01*
X103596249Y-121775524D01*
X103416650Y-121775524D01*
X103417723Y-121675624D01*
X103419482Y-121657418D01*
X103444024Y-121540812D01*
X103489430Y-121450290D01*
X103555795Y-121385754D01*
X103643216Y-121347104D01*
X103751791Y-121334243D01*
X103792811Y-121335450D01*
X103876934Y-121350220D01*
X103945722Y-121385474D01*
X104009854Y-121445828D01*
X104020110Y-121457942D01*
X104047774Y-121498737D01*
X104065955Y-121544930D01*
X104076036Y-121603468D01*
X104079401Y-121681299D01*
X104078329Y-121737910D01*
X104077431Y-121785368D01*
G37*
X101187986Y-123063659D02*
X101185868Y-123135101D01*
X101181608Y-123184866D01*
X101180878Y-123189427D01*
X101152206Y-123271004D01*
X101099846Y-123340165D01*
X101031158Y-123387021D01*
X100957396Y-123406416D01*
X100866668Y-123404911D01*
X100783205Y-123378906D01*
X100761465Y-123367932D01*
X100733510Y-123356174D01*
X100722872Y-123359832D01*
X100721185Y-123378906D01*
X100720410Y-123388418D01*
X100710407Y-123402485D01*
X100682623Y-123408962D01*
X100629277Y-123410526D01*
X100537369Y-123410526D01*
X100537369Y-123009328D01*
X100721185Y-123009328D01*
X100722502Y-123078832D01*
X100727848Y-123125106D01*
X100739262Y-123156807D01*
X100758783Y-123183373D01*
X100810329Y-123222873D01*
X100870650Y-123236115D01*
X100929144Y-123219740D01*
X100978410Y-123174060D01*
X100991432Y-123140634D01*
X101001051Y-123081441D01*
X101005280Y-123009626D01*
X101003948Y-122935967D01*
X100996884Y-122871239D01*
X100983917Y-122826222D01*
X100979774Y-122818840D01*
X100939840Y-122781738D01*
X100885722Y-122765301D01*
X100827600Y-122769124D01*
X100775653Y-122792802D01*
X100740063Y-122835929D01*
X100738592Y-122839556D01*
X100729767Y-122880026D01*
X100723542Y-122940499D01*
X100721185Y-123009328D01*
X100537369Y-123009328D01*
X100537369Y-122274210D01*
X100721185Y-122274210D01*
X100721185Y-122663732D01*
X100755232Y-122632920D01*
X100788014Y-122613769D01*
X100850059Y-122597760D01*
X100922589Y-122592602D01*
X100993419Y-122598935D01*
X101050368Y-122617400D01*
X101091128Y-122643666D01*
X101133113Y-122688412D01*
X101161370Y-122748588D01*
X101178355Y-122829988D01*
X101186528Y-122938405D01*
X101187729Y-122982230D01*
X101187816Y-123009626D01*
X101187986Y-123063659D01*
G36*
X101187986Y-123063659D02*
G01*
X101185868Y-123135101D01*
X101181608Y-123184866D01*
X101180878Y-123189427D01*
X101152206Y-123271004D01*
X101099846Y-123340165D01*
X101031158Y-123387021D01*
X100957396Y-123406416D01*
X100866668Y-123404911D01*
X100783205Y-123378906D01*
X100761465Y-123367932D01*
X100733510Y-123356174D01*
X100722872Y-123359832D01*
X100721185Y-123378906D01*
X100720410Y-123388418D01*
X100710407Y-123402485D01*
X100682623Y-123408962D01*
X100629277Y-123410526D01*
X100537369Y-123410526D01*
X100537369Y-123009328D01*
X100721185Y-123009328D01*
X100722502Y-123078832D01*
X100727848Y-123125106D01*
X100739262Y-123156807D01*
X100758783Y-123183373D01*
X100810329Y-123222873D01*
X100870650Y-123236115D01*
X100929144Y-123219740D01*
X100978410Y-123174060D01*
X100991432Y-123140634D01*
X101001051Y-123081441D01*
X101005280Y-123009626D01*
X101003948Y-122935967D01*
X100996884Y-122871239D01*
X100983917Y-122826222D01*
X100979774Y-122818840D01*
X100939840Y-122781738D01*
X100885722Y-122765301D01*
X100827600Y-122769124D01*
X100775653Y-122792802D01*
X100740063Y-122835929D01*
X100738592Y-122839556D01*
X100729767Y-122880026D01*
X100723542Y-122940499D01*
X100721185Y-123009328D01*
X100537369Y-123009328D01*
X100537369Y-122274210D01*
X100721185Y-122274210D01*
X100721185Y-122663732D01*
X100755232Y-122632920D01*
X100788014Y-122613769D01*
X100850059Y-122597760D01*
X100922589Y-122592602D01*
X100993419Y-122598935D01*
X101050368Y-122617400D01*
X101091128Y-122643666D01*
X101133113Y-122688412D01*
X101161370Y-122748588D01*
X101178355Y-122829988D01*
X101186528Y-122938405D01*
X101187729Y-122982230D01*
X101187816Y-123009626D01*
X101187986Y-123063659D01*
G37*
X97106367Y-121685627D02*
X97104216Y-121813529D01*
X97103936Y-121816044D01*
X97079909Y-121933405D01*
X97036499Y-122024652D01*
X96972353Y-122091791D01*
X96886119Y-122136824D01*
X96870289Y-122141974D01*
X96772173Y-122157151D01*
X96670698Y-122148688D01*
X96576359Y-122118445D01*
X96499649Y-122068285D01*
X96442190Y-122015197D01*
X96503266Y-121966904D01*
X96564341Y-121918611D01*
X96637947Y-121954371D01*
X96723115Y-121983347D01*
X96798301Y-121984215D01*
X96859816Y-121957592D01*
X96904083Y-121904155D01*
X96919952Y-121872136D01*
X96928811Y-121844771D01*
X96923685Y-121826285D01*
X96900687Y-121814938D01*
X96855931Y-121808987D01*
X96785529Y-121806693D01*
X96685593Y-121806316D01*
X96443290Y-121806316D01*
X96443290Y-121690430D01*
X96445100Y-121639555D01*
X96615706Y-121639555D01*
X96623900Y-121648912D01*
X96648160Y-121653783D01*
X96694272Y-121655630D01*
X96768019Y-121655921D01*
X96807566Y-121655457D01*
X96869971Y-121652388D01*
X96912303Y-121647013D01*
X96927895Y-121639997D01*
X96923906Y-121614108D01*
X96895788Y-121564570D01*
X96848932Y-121523875D01*
X96793074Y-121499295D01*
X96737951Y-121498105D01*
X96696458Y-121517815D01*
X96649440Y-121562668D01*
X96619545Y-121618322D01*
X96617794Y-121624245D01*
X96615706Y-121639555D01*
X96445100Y-121639555D01*
X96445471Y-121629138D01*
X96451876Y-121568496D01*
X96461025Y-121527502D01*
X96467695Y-121511852D01*
X96516243Y-121442149D01*
X96586391Y-121384013D01*
X96668426Y-121345949D01*
X96711216Y-121335554D01*
X96813170Y-121330822D01*
X96904015Y-121354893D01*
X96981253Y-121405088D01*
X97042389Y-121478727D01*
X97084926Y-121573133D01*
X97097671Y-121639997D01*
X97106367Y-121685627D01*
G36*
X97106367Y-121685627D02*
G01*
X97104216Y-121813529D01*
X97103936Y-121816044D01*
X97079909Y-121933405D01*
X97036499Y-122024652D01*
X96972353Y-122091791D01*
X96886119Y-122136824D01*
X96870289Y-122141974D01*
X96772173Y-122157151D01*
X96670698Y-122148688D01*
X96576359Y-122118445D01*
X96499649Y-122068285D01*
X96442190Y-122015197D01*
X96503266Y-121966904D01*
X96564341Y-121918611D01*
X96637947Y-121954371D01*
X96723115Y-121983347D01*
X96798301Y-121984215D01*
X96859816Y-121957592D01*
X96904083Y-121904155D01*
X96919952Y-121872136D01*
X96928811Y-121844771D01*
X96923685Y-121826285D01*
X96900687Y-121814938D01*
X96855931Y-121808987D01*
X96785529Y-121806693D01*
X96685593Y-121806316D01*
X96443290Y-121806316D01*
X96443290Y-121690430D01*
X96445100Y-121639555D01*
X96615706Y-121639555D01*
X96623900Y-121648912D01*
X96648160Y-121653783D01*
X96694272Y-121655630D01*
X96768019Y-121655921D01*
X96807566Y-121655457D01*
X96869971Y-121652388D01*
X96912303Y-121647013D01*
X96927895Y-121639997D01*
X96923906Y-121614108D01*
X96895788Y-121564570D01*
X96848932Y-121523875D01*
X96793074Y-121499295D01*
X96737951Y-121498105D01*
X96696458Y-121517815D01*
X96649440Y-121562668D01*
X96619545Y-121618322D01*
X96617794Y-121624245D01*
X96615706Y-121639555D01*
X96445100Y-121639555D01*
X96445471Y-121629138D01*
X96451876Y-121568496D01*
X96461025Y-121527502D01*
X96467695Y-121511852D01*
X96516243Y-121442149D01*
X96586391Y-121384013D01*
X96668426Y-121345949D01*
X96711216Y-121335554D01*
X96813170Y-121330822D01*
X96904015Y-121354893D01*
X96981253Y-121405088D01*
X97042389Y-121478727D01*
X97084926Y-121573133D01*
X97097671Y-121639997D01*
X97106367Y-121685627D01*
G37*
X100401399Y-121337879D02*
X100497909Y-121362068D01*
X100568411Y-121406902D01*
X100613307Y-121472681D01*
X100632999Y-121559707D01*
X100629012Y-121643023D01*
X100600235Y-121713297D01*
X100545048Y-121765254D01*
X100462348Y-121799910D01*
X100351026Y-121818279D01*
X100278692Y-121827906D01*
X100212670Y-121848737D01*
X100178583Y-121878904D01*
X100176526Y-121918352D01*
X100190243Y-121942949D01*
X100232726Y-121972101D01*
X100293117Y-121985889D01*
X100363889Y-121984004D01*
X100437512Y-121966133D01*
X100506457Y-121931967D01*
X100575197Y-121886477D01*
X100696119Y-122008835D01*
X100645987Y-122049755D01*
X100626494Y-122063973D01*
X100571650Y-122096275D01*
X100512303Y-122124109D01*
X100465335Y-122140083D01*
X100396562Y-122151654D01*
X100311777Y-122151807D01*
X100207806Y-122139067D01*
X100114145Y-122106777D01*
X100047849Y-122055486D01*
X100008760Y-121985065D01*
X99996722Y-121895387D01*
X100005436Y-121816497D01*
X100033408Y-121751907D01*
X100083768Y-121705651D01*
X100159703Y-121674888D01*
X100264400Y-121656778D01*
X100276425Y-121655467D01*
X100341611Y-121647106D01*
X100394490Y-121638357D01*
X100424573Y-121630913D01*
X100434612Y-121624920D01*
X100451584Y-121594013D01*
X100448828Y-121554450D01*
X100426146Y-121520105D01*
X100414236Y-121512615D01*
X100364606Y-121500613D01*
X100300500Y-121501420D01*
X100233653Y-121514192D01*
X100175799Y-121538086D01*
X100115008Y-121573954D01*
X100067854Y-121518852D01*
X100056412Y-121504853D01*
X100030634Y-121467353D01*
X100020022Y-121441937D01*
X100031166Y-121426353D01*
X100065644Y-121402026D01*
X100115428Y-121375848D01*
X100122443Y-121372648D01*
X100188092Y-121347548D01*
X100251372Y-121335547D01*
X100329900Y-121333137D01*
X100401399Y-121337879D01*
G36*
X100401399Y-121337879D02*
G01*
X100497909Y-121362068D01*
X100568411Y-121406902D01*
X100613307Y-121472681D01*
X100632999Y-121559707D01*
X100629012Y-121643023D01*
X100600235Y-121713297D01*
X100545048Y-121765254D01*
X100462348Y-121799910D01*
X100351026Y-121818279D01*
X100278692Y-121827906D01*
X100212670Y-121848737D01*
X100178583Y-121878904D01*
X100176526Y-121918352D01*
X100190243Y-121942949D01*
X100232726Y-121972101D01*
X100293117Y-121985889D01*
X100363889Y-121984004D01*
X100437512Y-121966133D01*
X100506457Y-121931967D01*
X100575197Y-121886477D01*
X100696119Y-122008835D01*
X100645987Y-122049755D01*
X100626494Y-122063973D01*
X100571650Y-122096275D01*
X100512303Y-122124109D01*
X100465335Y-122140083D01*
X100396562Y-122151654D01*
X100311777Y-122151807D01*
X100207806Y-122139067D01*
X100114145Y-122106777D01*
X100047849Y-122055486D01*
X100008760Y-121985065D01*
X99996722Y-121895387D01*
X100005436Y-121816497D01*
X100033408Y-121751907D01*
X100083768Y-121705651D01*
X100159703Y-121674888D01*
X100264400Y-121656778D01*
X100276425Y-121655467D01*
X100341611Y-121647106D01*
X100394490Y-121638357D01*
X100424573Y-121630913D01*
X100434612Y-121624920D01*
X100451584Y-121594013D01*
X100448828Y-121554450D01*
X100426146Y-121520105D01*
X100414236Y-121512615D01*
X100364606Y-121500613D01*
X100300500Y-121501420D01*
X100233653Y-121514192D01*
X100175799Y-121538086D01*
X100115008Y-121573954D01*
X100067854Y-121518852D01*
X100056412Y-121504853D01*
X100030634Y-121467353D01*
X100020022Y-121441937D01*
X100031166Y-121426353D01*
X100065644Y-121402026D01*
X100115428Y-121375848D01*
X100122443Y-121372648D01*
X100188092Y-121347548D01*
X100251372Y-121335547D01*
X100329900Y-121333137D01*
X100401399Y-121337879D01*
G37*
X97963418Y-123001118D02*
X97961245Y-123063498D01*
X97941455Y-123182794D01*
X97900734Y-123276598D01*
X97838724Y-123345581D01*
X97755066Y-123390412D01*
X97728037Y-123398332D01*
X97631524Y-123409395D01*
X97529615Y-123400059D01*
X97437566Y-123371246D01*
X97405138Y-123354892D01*
X97358643Y-123326878D01*
X97330465Y-123303827D01*
X97326305Y-123298560D01*
X97318522Y-123279299D01*
X97329736Y-123258361D01*
X97363886Y-123226650D01*
X97380367Y-123212845D01*
X97412832Y-123187583D01*
X97429855Y-123177258D01*
X97434732Y-123178321D01*
X97462681Y-123189819D01*
X97504408Y-123210000D01*
X97518013Y-123216638D01*
X97598271Y-123241289D01*
X97667997Y-123234935D01*
X97729140Y-123197467D01*
X97736255Y-123190544D01*
X97770268Y-123147178D01*
X97789702Y-123105559D01*
X97800466Y-123059605D01*
X97295527Y-123059605D01*
X97295620Y-122971875D01*
X97295673Y-122963150D01*
X97302490Y-122892763D01*
X97479343Y-122892763D01*
X97481431Y-122907361D01*
X97492152Y-122917422D01*
X97517707Y-122923006D01*
X97564289Y-122925408D01*
X97638093Y-122925921D01*
X97679124Y-122925389D01*
X97739688Y-122922280D01*
X97781345Y-122917012D01*
X97796843Y-122910298D01*
X97783626Y-122855033D01*
X97744930Y-122803452D01*
X97689121Y-122767666D01*
X97624651Y-122755288D01*
X97577185Y-122769242D01*
X97529738Y-122803353D01*
X97493669Y-122847796D01*
X97479343Y-122892763D01*
X97302490Y-122892763D01*
X97306127Y-122855216D01*
X97336555Y-122767413D01*
X97389649Y-122691723D01*
X97422038Y-122659705D01*
X97488932Y-122616845D01*
X97568807Y-122596078D01*
X97669700Y-122594618D01*
X97718435Y-122600343D01*
X97808396Y-122630071D01*
X97877271Y-122684178D01*
X97925664Y-122763498D01*
X97954179Y-122868866D01*
X97957074Y-122910298D01*
X97963418Y-123001118D01*
G36*
X97963418Y-123001118D02*
G01*
X97961245Y-123063498D01*
X97941455Y-123182794D01*
X97900734Y-123276598D01*
X97838724Y-123345581D01*
X97755066Y-123390412D01*
X97728037Y-123398332D01*
X97631524Y-123409395D01*
X97529615Y-123400059D01*
X97437566Y-123371246D01*
X97405138Y-123354892D01*
X97358643Y-123326878D01*
X97330465Y-123303827D01*
X97326305Y-123298560D01*
X97318522Y-123279299D01*
X97329736Y-123258361D01*
X97363886Y-123226650D01*
X97380367Y-123212845D01*
X97412832Y-123187583D01*
X97429855Y-123177258D01*
X97434732Y-123178321D01*
X97462681Y-123189819D01*
X97504408Y-123210000D01*
X97518013Y-123216638D01*
X97598271Y-123241289D01*
X97667997Y-123234935D01*
X97729140Y-123197467D01*
X97736255Y-123190544D01*
X97770268Y-123147178D01*
X97789702Y-123105559D01*
X97800466Y-123059605D01*
X97295527Y-123059605D01*
X97295620Y-122971875D01*
X97295673Y-122963150D01*
X97302490Y-122892763D01*
X97479343Y-122892763D01*
X97481431Y-122907361D01*
X97492152Y-122917422D01*
X97517707Y-122923006D01*
X97564289Y-122925408D01*
X97638093Y-122925921D01*
X97679124Y-122925389D01*
X97739688Y-122922280D01*
X97781345Y-122917012D01*
X97796843Y-122910298D01*
X97783626Y-122855033D01*
X97744930Y-122803452D01*
X97689121Y-122767666D01*
X97624651Y-122755288D01*
X97577185Y-122769242D01*
X97529738Y-122803353D01*
X97493669Y-122847796D01*
X97479343Y-122892763D01*
X97302490Y-122892763D01*
X97306127Y-122855216D01*
X97336555Y-122767413D01*
X97389649Y-122691723D01*
X97422038Y-122659705D01*
X97488932Y-122616845D01*
X97568807Y-122596078D01*
X97669700Y-122594618D01*
X97718435Y-122600343D01*
X97808396Y-122630071D01*
X97877271Y-122684178D01*
X97925664Y-122763498D01*
X97954179Y-122868866D01*
X97957074Y-122910298D01*
X97963418Y-123001118D01*
G37*
X102538543Y-121639091D02*
X102544389Y-121756138D01*
X102542928Y-121807216D01*
X102526454Y-121918843D01*
X102490151Y-122006856D01*
X102432120Y-122074884D01*
X102350461Y-122126551D01*
X102271246Y-122150670D01*
X102171871Y-122155285D01*
X102071607Y-122137537D01*
X101982172Y-122098327D01*
X101949030Y-122076515D01*
X101912515Y-122048556D01*
X101895853Y-122030158D01*
X101896798Y-122022567D01*
X101915448Y-121996703D01*
X101950498Y-121965367D01*
X102011241Y-121919036D01*
X102082418Y-121954584D01*
X102101665Y-121963383D01*
X102158323Y-121982506D01*
X102205811Y-121990131D01*
X102240828Y-121983848D01*
X102295778Y-121953591D01*
X102341967Y-121906620D01*
X102368387Y-121852270D01*
X102379150Y-121806316D01*
X101874211Y-121806316D01*
X101874304Y-121718585D01*
X101875069Y-121690781D01*
X101880649Y-121631119D01*
X102058027Y-121631119D01*
X102058352Y-121634537D01*
X102067540Y-121645181D01*
X102093504Y-121651720D01*
X102141779Y-121655014D01*
X102217903Y-121655921D01*
X102242923Y-121655910D01*
X102307902Y-121655310D01*
X102346964Y-121652715D01*
X102365903Y-121646662D01*
X102370511Y-121635686D01*
X102366581Y-121618322D01*
X102365981Y-121616353D01*
X102332127Y-121555930D01*
X102278757Y-121514329D01*
X102215115Y-121498842D01*
X102191591Y-121500080D01*
X102147928Y-121514896D01*
X102106041Y-121552579D01*
X102094758Y-121565903D01*
X102068513Y-121603956D01*
X102058027Y-121631119D01*
X101880649Y-121631119D01*
X101881366Y-121623449D01*
X101891926Y-121567734D01*
X101903501Y-121536543D01*
X101944195Y-121468700D01*
X101998695Y-121407086D01*
X102056330Y-121364866D01*
X102072982Y-121357027D01*
X102169945Y-121331021D01*
X102268960Y-121333762D01*
X102362052Y-121364092D01*
X102441244Y-121420848D01*
X102484078Y-121473190D01*
X102519101Y-121546928D01*
X102537825Y-121635686D01*
X102538543Y-121639091D01*
G36*
X102538543Y-121639091D02*
G01*
X102544389Y-121756138D01*
X102542928Y-121807216D01*
X102526454Y-121918843D01*
X102490151Y-122006856D01*
X102432120Y-122074884D01*
X102350461Y-122126551D01*
X102271246Y-122150670D01*
X102171871Y-122155285D01*
X102071607Y-122137537D01*
X101982172Y-122098327D01*
X101949030Y-122076515D01*
X101912515Y-122048556D01*
X101895853Y-122030158D01*
X101896798Y-122022567D01*
X101915448Y-121996703D01*
X101950498Y-121965367D01*
X102011241Y-121919036D01*
X102082418Y-121954584D01*
X102101665Y-121963383D01*
X102158323Y-121982506D01*
X102205811Y-121990131D01*
X102240828Y-121983848D01*
X102295778Y-121953591D01*
X102341967Y-121906620D01*
X102368387Y-121852270D01*
X102379150Y-121806316D01*
X101874211Y-121806316D01*
X101874304Y-121718585D01*
X101875069Y-121690781D01*
X101880649Y-121631119D01*
X102058027Y-121631119D01*
X102058352Y-121634537D01*
X102067540Y-121645181D01*
X102093504Y-121651720D01*
X102141779Y-121655014D01*
X102217903Y-121655921D01*
X102242923Y-121655910D01*
X102307902Y-121655310D01*
X102346964Y-121652715D01*
X102365903Y-121646662D01*
X102370511Y-121635686D01*
X102366581Y-121618322D01*
X102365981Y-121616353D01*
X102332127Y-121555930D01*
X102278757Y-121514329D01*
X102215115Y-121498842D01*
X102191591Y-121500080D01*
X102147928Y-121514896D01*
X102106041Y-121552579D01*
X102094758Y-121565903D01*
X102068513Y-121603956D01*
X102058027Y-121631119D01*
X101880649Y-121631119D01*
X101881366Y-121623449D01*
X101891926Y-121567734D01*
X101903501Y-121536543D01*
X101944195Y-121468700D01*
X101998695Y-121407086D01*
X102056330Y-121364866D01*
X102072982Y-121357027D01*
X102169945Y-121331021D01*
X102268960Y-121333762D01*
X102362052Y-121364092D01*
X102441244Y-121420848D01*
X102484078Y-121473190D01*
X102519101Y-121546928D01*
X102537825Y-121635686D01*
X102538543Y-121639091D01*
G37*
X99325668Y-123190600D02*
X99305509Y-123266464D01*
X99261698Y-123331365D01*
X99195241Y-123378051D01*
X99188719Y-123380889D01*
X99116005Y-123401330D01*
X99034071Y-123409299D01*
X98956172Y-123404427D01*
X98895560Y-123386348D01*
X98871348Y-123374554D01*
X98853580Y-123371741D01*
X98849606Y-123386451D01*
X98842078Y-123400055D01*
X98812953Y-123408156D01*
X98756420Y-123410526D01*
X98663235Y-123410526D01*
X98668690Y-123088849D01*
X98669273Y-123059605D01*
X98849606Y-123059605D01*
X98849606Y-123118092D01*
X98855900Y-123161806D01*
X98883027Y-123210000D01*
X98893040Y-123218858D01*
X98934081Y-123237494D01*
X98995823Y-123242290D01*
X99032871Y-123240417D01*
X99102195Y-123226309D01*
X99145163Y-123200024D01*
X99159655Y-123163344D01*
X99143551Y-123118052D01*
X99134154Y-123106200D01*
X99092187Y-123079613D01*
X99025766Y-123064432D01*
X98931070Y-123059605D01*
X98849606Y-123059605D01*
X98669273Y-123059605D01*
X98670172Y-123014462D01*
X98674076Y-122903099D01*
X98680657Y-122817946D01*
X98691214Y-122754360D01*
X98707048Y-122707699D01*
X98729459Y-122673321D01*
X98759747Y-122646583D01*
X98799213Y-122622844D01*
X98819573Y-122613780D01*
X98890008Y-122596673D01*
X98974959Y-122589600D01*
X99062788Y-122592432D01*
X99141857Y-122605041D01*
X99200527Y-122627297D01*
X99220935Y-122640219D01*
X99267921Y-122678519D01*
X99283824Y-122710589D01*
X99279962Y-122716786D01*
X99255894Y-122738432D01*
X99217039Y-122767308D01*
X99197174Y-122780824D01*
X99163346Y-122799974D01*
X99141363Y-122801803D01*
X99120953Y-122788585D01*
X99070086Y-122761816D01*
X99001640Y-122750808D01*
X98931694Y-122759236D01*
X98930370Y-122759618D01*
X98881036Y-122781052D01*
X98856616Y-122814603D01*
X98849862Y-122870091D01*
X98849606Y-122922879D01*
X99024010Y-122928577D01*
X99051796Y-122929515D01*
X99121848Y-122932775D01*
X99168809Y-122937897D01*
X99200552Y-122946798D01*
X99224948Y-122961397D01*
X99249869Y-122983612D01*
X99291015Y-123034995D01*
X99321171Y-123111026D01*
X99324128Y-123163344D01*
X99325668Y-123190600D01*
G36*
X99325668Y-123190600D02*
G01*
X99305509Y-123266464D01*
X99261698Y-123331365D01*
X99195241Y-123378051D01*
X99188719Y-123380889D01*
X99116005Y-123401330D01*
X99034071Y-123409299D01*
X98956172Y-123404427D01*
X98895560Y-123386348D01*
X98871348Y-123374554D01*
X98853580Y-123371741D01*
X98849606Y-123386451D01*
X98842078Y-123400055D01*
X98812953Y-123408156D01*
X98756420Y-123410526D01*
X98663235Y-123410526D01*
X98668690Y-123088849D01*
X98669273Y-123059605D01*
X98849606Y-123059605D01*
X98849606Y-123118092D01*
X98855900Y-123161806D01*
X98883027Y-123210000D01*
X98893040Y-123218858D01*
X98934081Y-123237494D01*
X98995823Y-123242290D01*
X99032871Y-123240417D01*
X99102195Y-123226309D01*
X99145163Y-123200024D01*
X99159655Y-123163344D01*
X99143551Y-123118052D01*
X99134154Y-123106200D01*
X99092187Y-123079613D01*
X99025766Y-123064432D01*
X98931070Y-123059605D01*
X98849606Y-123059605D01*
X98669273Y-123059605D01*
X98670172Y-123014462D01*
X98674076Y-122903099D01*
X98680657Y-122817946D01*
X98691214Y-122754360D01*
X98707048Y-122707699D01*
X98729459Y-122673321D01*
X98759747Y-122646583D01*
X98799213Y-122622844D01*
X98819573Y-122613780D01*
X98890008Y-122596673D01*
X98974959Y-122589600D01*
X99062788Y-122592432D01*
X99141857Y-122605041D01*
X99200527Y-122627297D01*
X99220935Y-122640219D01*
X99267921Y-122678519D01*
X99283824Y-122710589D01*
X99279962Y-122716786D01*
X99255894Y-122738432D01*
X99217039Y-122767308D01*
X99197174Y-122780824D01*
X99163346Y-122799974D01*
X99141363Y-122801803D01*
X99120953Y-122788585D01*
X99070086Y-122761816D01*
X99001640Y-122750808D01*
X98931694Y-122759236D01*
X98930370Y-122759618D01*
X98881036Y-122781052D01*
X98856616Y-122814603D01*
X98849862Y-122870091D01*
X98849606Y-122922879D01*
X99024010Y-122928577D01*
X99051796Y-122929515D01*
X99121848Y-122932775D01*
X99168809Y-122937897D01*
X99200552Y-122946798D01*
X99224948Y-122961397D01*
X99249869Y-122983612D01*
X99291015Y-123034995D01*
X99321171Y-123111026D01*
X99324128Y-123163344D01*
X99325668Y-123190600D01*
G37*
X102538912Y-123187796D02*
X102538722Y-123190000D01*
X102518360Y-123275846D01*
X102473067Y-123340412D01*
X102400593Y-123386937D01*
X102363140Y-123398256D01*
X102298990Y-123407078D01*
X102228840Y-123409185D01*
X102165548Y-123404330D01*
X102121976Y-123392268D01*
X102095512Y-123382606D01*
X102069601Y-123392268D01*
X102060123Y-123397866D01*
X102022294Y-123406943D01*
X101971132Y-123410526D01*
X101890922Y-123410526D01*
X101890922Y-123087142D01*
X101890928Y-123059605D01*
X102074737Y-123059605D01*
X102074737Y-123123857D01*
X102080915Y-123172753D01*
X102105297Y-123215765D01*
X102119249Y-123225074D01*
X102169051Y-123239583D01*
X102231225Y-123243205D01*
X102292196Y-123235845D01*
X102338388Y-123217408D01*
X102361399Y-123193030D01*
X102375527Y-123149713D01*
X102362998Y-123115376D01*
X102321582Y-123085520D01*
X102255005Y-123066366D01*
X102167182Y-123059605D01*
X102074737Y-123059605D01*
X101890928Y-123059605D01*
X101890928Y-123059176D01*
X101891232Y-122953767D01*
X101892376Y-122875401D01*
X101894877Y-122818871D01*
X101899256Y-122778970D01*
X101906032Y-122750492D01*
X101915725Y-122728230D01*
X101928853Y-122706978D01*
X101971084Y-122657180D01*
X102030930Y-122619160D01*
X102109543Y-122598184D01*
X102213136Y-122591736D01*
X102216503Y-122591743D01*
X102288513Y-122594995D01*
X102352966Y-122603103D01*
X102396952Y-122614470D01*
X102409010Y-122620166D01*
X102447391Y-122644289D01*
X102482124Y-122672960D01*
X102504977Y-122698760D01*
X102507716Y-122714273D01*
X102502370Y-122718465D01*
X102444127Y-122763218D01*
X102405181Y-122789613D01*
X102379431Y-122800262D01*
X102360772Y-122797780D01*
X102343101Y-122784782D01*
X102310490Y-122768556D01*
X102255533Y-122757737D01*
X102193420Y-122754931D01*
X102137217Y-122760642D01*
X102099984Y-122775376D01*
X102098025Y-122777169D01*
X102081294Y-122810850D01*
X102074737Y-122861125D01*
X102074737Y-122925921D01*
X102229310Y-122925983D01*
X102300314Y-122927107D01*
X102360082Y-122931996D01*
X102402837Y-122942055D01*
X102437380Y-122958665D01*
X102445419Y-122963767D01*
X102503576Y-123019847D01*
X102534510Y-123094004D01*
X102537125Y-123149713D01*
X102538912Y-123187796D01*
G36*
X102538912Y-123187796D02*
G01*
X102538722Y-123190000D01*
X102518360Y-123275846D01*
X102473067Y-123340412D01*
X102400593Y-123386937D01*
X102363140Y-123398256D01*
X102298990Y-123407078D01*
X102228840Y-123409185D01*
X102165548Y-123404330D01*
X102121976Y-123392268D01*
X102095512Y-123382606D01*
X102069601Y-123392268D01*
X102060123Y-123397866D01*
X102022294Y-123406943D01*
X101971132Y-123410526D01*
X101890922Y-123410526D01*
X101890922Y-123087142D01*
X101890928Y-123059605D01*
X102074737Y-123059605D01*
X102074737Y-123123857D01*
X102080915Y-123172753D01*
X102105297Y-123215765D01*
X102119249Y-123225074D01*
X102169051Y-123239583D01*
X102231225Y-123243205D01*
X102292196Y-123235845D01*
X102338388Y-123217408D01*
X102361399Y-123193030D01*
X102375527Y-123149713D01*
X102362998Y-123115376D01*
X102321582Y-123085520D01*
X102255005Y-123066366D01*
X102167182Y-123059605D01*
X102074737Y-123059605D01*
X101890928Y-123059605D01*
X101890928Y-123059176D01*
X101891232Y-122953767D01*
X101892376Y-122875401D01*
X101894877Y-122818871D01*
X101899256Y-122778970D01*
X101906032Y-122750492D01*
X101915725Y-122728230D01*
X101928853Y-122706978D01*
X101971084Y-122657180D01*
X102030930Y-122619160D01*
X102109543Y-122598184D01*
X102213136Y-122591736D01*
X102216503Y-122591743D01*
X102288513Y-122594995D01*
X102352966Y-122603103D01*
X102396952Y-122614470D01*
X102409010Y-122620166D01*
X102447391Y-122644289D01*
X102482124Y-122672960D01*
X102504977Y-122698760D01*
X102507716Y-122714273D01*
X102502370Y-122718465D01*
X102444127Y-122763218D01*
X102405181Y-122789613D01*
X102379431Y-122800262D01*
X102360772Y-122797780D01*
X102343101Y-122784782D01*
X102310490Y-122768556D01*
X102255533Y-122757737D01*
X102193420Y-122754931D01*
X102137217Y-122760642D01*
X102099984Y-122775376D01*
X102098025Y-122777169D01*
X102081294Y-122810850D01*
X102074737Y-122861125D01*
X102074737Y-122925921D01*
X102229310Y-122925983D01*
X102300314Y-122927107D01*
X102360082Y-122931996D01*
X102402837Y-122942055D01*
X102437380Y-122958665D01*
X102445419Y-122963767D01*
X102503576Y-123019847D01*
X102534510Y-123094004D01*
X102537125Y-123149713D01*
X102538912Y-123187796D01*
G37*
X103294606Y-123412273D02*
X103206875Y-123407222D01*
X103119145Y-123402171D01*
X103114974Y-123134802D01*
X103113740Y-123069788D01*
X103110237Y-122972111D01*
X103104224Y-122900434D01*
X103094597Y-122849940D01*
X103080249Y-122815810D01*
X103060075Y-122793227D01*
X103032970Y-122777372D01*
X102982112Y-122761180D01*
X102931534Y-122767472D01*
X102878125Y-122802077D01*
X102826711Y-122845339D01*
X102826711Y-123410526D01*
X102642895Y-123410526D01*
X102642895Y-123104010D01*
X102643072Y-123007935D01*
X102644049Y-122922562D01*
X102646399Y-122860071D01*
X102650691Y-122814794D01*
X102657495Y-122781068D01*
X102667378Y-122753227D01*
X102680910Y-122725605D01*
X102684119Y-122719741D01*
X102726792Y-122662627D01*
X102776735Y-122622714D01*
X102836948Y-122601756D01*
X102916680Y-122592427D01*
X102996527Y-122597480D01*
X103061488Y-122617205D01*
X103110790Y-122642700D01*
X103110790Y-122090931D01*
X103043237Y-122126142D01*
X103015019Y-122138934D01*
X102925950Y-122157023D01*
X102837434Y-122144521D01*
X102755381Y-122102952D01*
X102685704Y-122033843D01*
X102674789Y-122017600D01*
X102664298Y-121993790D01*
X102657455Y-121961418D01*
X102653504Y-121914271D01*
X102651688Y-121846135D01*
X102651362Y-121775142D01*
X102827891Y-121775142D01*
X102828040Y-121834431D01*
X102832573Y-121873969D01*
X102842760Y-121902189D01*
X102859872Y-121927519D01*
X102881610Y-121951069D01*
X102916372Y-121968892D01*
X102968750Y-121973421D01*
X103015020Y-121969480D01*
X103060817Y-121949759D01*
X103090312Y-121909809D01*
X103106104Y-121845600D01*
X103110790Y-121753101D01*
X103109578Y-121703894D01*
X103097481Y-121611006D01*
X103072523Y-121548196D01*
X103034844Y-121515906D01*
X102996789Y-121506822D01*
X102930513Y-121511081D01*
X102874516Y-121537452D01*
X102861114Y-121549545D01*
X102846913Y-121570467D01*
X102838133Y-121601611D01*
X102832919Y-121650710D01*
X102829416Y-121725498D01*
X102827891Y-121775142D01*
X102651362Y-121775142D01*
X102651250Y-121750797D01*
X102651400Y-121707296D01*
X102653962Y-121606111D01*
X102661097Y-121530522D01*
X102674606Y-121474817D01*
X102696294Y-121433283D01*
X102727960Y-121400206D01*
X102771408Y-121369874D01*
X102806640Y-121352468D01*
X102890173Y-121333271D01*
X102978222Y-121335887D01*
X103056481Y-121360772D01*
X103090067Y-121377039D01*
X103106960Y-121378720D01*
X103110790Y-121363916D01*
X103110794Y-121363468D01*
X103119048Y-121348351D01*
X103147517Y-121340603D01*
X103202698Y-121338421D01*
X103294606Y-121338421D01*
X103294606Y-121753101D01*
X103294606Y-123412273D01*
G36*
X103294606Y-123412273D02*
G01*
X103206875Y-123407222D01*
X103119145Y-123402171D01*
X103114974Y-123134802D01*
X103113740Y-123069788D01*
X103110237Y-122972111D01*
X103104224Y-122900434D01*
X103094597Y-122849940D01*
X103080249Y-122815810D01*
X103060075Y-122793227D01*
X103032970Y-122777372D01*
X102982112Y-122761180D01*
X102931534Y-122767472D01*
X102878125Y-122802077D01*
X102826711Y-122845339D01*
X102826711Y-123410526D01*
X102642895Y-123410526D01*
X102642895Y-123104010D01*
X102643072Y-123007935D01*
X102644049Y-122922562D01*
X102646399Y-122860071D01*
X102650691Y-122814794D01*
X102657495Y-122781068D01*
X102667378Y-122753227D01*
X102680910Y-122725605D01*
X102684119Y-122719741D01*
X102726792Y-122662627D01*
X102776735Y-122622714D01*
X102836948Y-122601756D01*
X102916680Y-122592427D01*
X102996527Y-122597480D01*
X103061488Y-122617205D01*
X103110790Y-122642700D01*
X103110790Y-122090931D01*
X103043237Y-122126142D01*
X103015019Y-122138934D01*
X102925950Y-122157023D01*
X102837434Y-122144521D01*
X102755381Y-122102952D01*
X102685704Y-122033843D01*
X102674789Y-122017600D01*
X102664298Y-121993790D01*
X102657455Y-121961418D01*
X102653504Y-121914271D01*
X102651688Y-121846135D01*
X102651362Y-121775142D01*
X102827891Y-121775142D01*
X102828040Y-121834431D01*
X102832573Y-121873969D01*
X102842760Y-121902189D01*
X102859872Y-121927519D01*
X102881610Y-121951069D01*
X102916372Y-121968892D01*
X102968750Y-121973421D01*
X103015020Y-121969480D01*
X103060817Y-121949759D01*
X103090312Y-121909809D01*
X103106104Y-121845600D01*
X103110790Y-121753101D01*
X103109578Y-121703894D01*
X103097481Y-121611006D01*
X103072523Y-121548196D01*
X103034844Y-121515906D01*
X102996789Y-121506822D01*
X102930513Y-121511081D01*
X102874516Y-121537452D01*
X102861114Y-121549545D01*
X102846913Y-121570467D01*
X102838133Y-121601611D01*
X102832919Y-121650710D01*
X102829416Y-121725498D01*
X102827891Y-121775142D01*
X102651362Y-121775142D01*
X102651250Y-121750797D01*
X102651400Y-121707296D01*
X102653962Y-121606111D01*
X102661097Y-121530522D01*
X102674606Y-121474817D01*
X102696294Y-121433283D01*
X102727960Y-121400206D01*
X102771408Y-121369874D01*
X102806640Y-121352468D01*
X102890173Y-121333271D01*
X102978222Y-121335887D01*
X103056481Y-121360772D01*
X103090067Y-121377039D01*
X103106960Y-121378720D01*
X103110790Y-121363916D01*
X103110794Y-121363468D01*
X103119048Y-121348351D01*
X103147517Y-121340603D01*
X103202698Y-121338421D01*
X103294606Y-121338421D01*
X103294606Y-121753101D01*
X103294606Y-123412273D01*
G37*
X100754254Y-115798576D02*
X100829803Y-116199322D01*
X101108567Y-116314238D01*
X101387332Y-116429154D01*
X101721756Y-116201748D01*
X101787946Y-116156917D01*
X101875693Y-116098071D01*
X101951663Y-116047810D01*
X102011911Y-116008715D01*
X102052491Y-115983365D01*
X102069457Y-115974342D01*
X102079877Y-115980759D01*
X102111025Y-116007647D01*
X102158161Y-116051774D01*
X102217293Y-116109087D01*
X102284426Y-116175535D01*
X102355566Y-116247065D01*
X102426719Y-116319626D01*
X102493892Y-116389167D01*
X102553090Y-116451635D01*
X102600319Y-116502978D01*
X102631586Y-116539145D01*
X102642895Y-116556083D01*
X102640264Y-116563361D01*
X102622048Y-116595824D01*
X102588782Y-116649249D01*
X102543164Y-116719449D01*
X102487890Y-116802236D01*
X102425658Y-116893421D01*
X102391506Y-116943152D01*
X102332757Y-117029731D01*
X102282388Y-117105291D01*
X102243086Y-117165733D01*
X102217535Y-117206961D01*
X102208422Y-117224876D01*
X102208571Y-117225869D01*
X102216611Y-117248580D01*
X102235054Y-117294955D01*
X102261331Y-117358937D01*
X102292871Y-117434468D01*
X102327102Y-117515489D01*
X102361454Y-117595943D01*
X102393355Y-117669772D01*
X102420235Y-117730918D01*
X102439522Y-117773322D01*
X102448646Y-117790926D01*
X102454045Y-117792488D01*
X102486846Y-117799531D01*
X102545306Y-117811199D01*
X102624746Y-117826580D01*
X102720486Y-117844760D01*
X102827846Y-117864830D01*
X102884431Y-117875471D01*
X102988289Y-117895773D01*
X103079097Y-117914522D01*
X103151891Y-117930642D01*
X103201708Y-117943056D01*
X103223586Y-117950686D01*
X103227516Y-117958250D01*
X103234034Y-117995209D01*
X103239156Y-118056765D01*
X103242884Y-118137127D01*
X103245223Y-118230503D01*
X103246177Y-118331101D01*
X103245749Y-118433128D01*
X103243945Y-118530793D01*
X103240766Y-118618304D01*
X103236219Y-118689869D01*
X103230306Y-118739696D01*
X103223031Y-118761993D01*
X103218617Y-118764508D01*
X103185694Y-118775296D01*
X103128582Y-118789569D01*
X103053882Y-118805764D01*
X102968196Y-118822319D01*
X102939285Y-118827592D01*
X102805755Y-118852113D01*
X102700813Y-118871821D01*
X102620820Y-118887531D01*
X102562139Y-118900062D01*
X102521132Y-118910229D01*
X102494161Y-118918851D01*
X102477588Y-118926745D01*
X102467775Y-118934727D01*
X102466635Y-118936067D01*
X102450588Y-118963997D01*
X102426843Y-119015104D01*
X102397701Y-119083392D01*
X102365463Y-119162866D01*
X102332430Y-119247529D01*
X102300904Y-119331387D01*
X102273186Y-119408444D01*
X102251577Y-119472704D01*
X102238379Y-119518172D01*
X102235893Y-119538852D01*
X102237555Y-119541535D01*
X102254765Y-119567484D01*
X102287130Y-119615345D01*
X102331650Y-119680710D01*
X102385323Y-119759170D01*
X102445149Y-119846315D01*
X102461567Y-119870292D01*
X102519303Y-119956295D01*
X102569200Y-120033211D01*
X102608409Y-120096477D01*
X102634083Y-120141532D01*
X102643374Y-120163815D01*
X102641372Y-120169673D01*
X102620503Y-120198541D01*
X102579331Y-120245680D01*
X102520803Y-120307920D01*
X102447867Y-120382087D01*
X102363473Y-120465008D01*
X102315234Y-120511421D01*
X102238962Y-120583708D01*
X102172205Y-120645624D01*
X102118546Y-120693911D01*
X102081570Y-120725307D01*
X102064863Y-120736554D01*
X102053385Y-120732384D01*
X102018045Y-120712663D01*
X101966723Y-120680410D01*
X101906113Y-120639711D01*
X101863020Y-120610011D01*
X101776987Y-120551030D01*
X101685179Y-120488390D01*
X101601323Y-120431469D01*
X101437053Y-120320359D01*
X101299160Y-120394916D01*
X101266690Y-120412125D01*
X101207642Y-120441560D01*
X101161979Y-120461883D01*
X101137574Y-120469460D01*
X101129588Y-120459730D01*
X101109756Y-120422679D01*
X101080462Y-120361593D01*
X101043338Y-120280349D01*
X101000013Y-120182823D01*
X100952118Y-120072891D01*
X100901281Y-119954432D01*
X100849133Y-119831321D01*
X100797304Y-119707435D01*
X100747424Y-119586650D01*
X100701123Y-119472844D01*
X100660031Y-119369893D01*
X100625778Y-119281673D01*
X100599993Y-119212062D01*
X100584308Y-119164936D01*
X100580351Y-119144172D01*
X100580619Y-119143565D01*
X100599050Y-119124370D01*
X100637602Y-119094306D01*
X100688316Y-119059609D01*
X100704324Y-119049014D01*
X100826125Y-118948498D01*
X100926929Y-118828777D01*
X101004351Y-118694834D01*
X101056004Y-118551653D01*
X101079500Y-118404216D01*
X101072454Y-118257507D01*
X101043910Y-118127020D01*
X100992659Y-117995257D01*
X100917945Y-117877706D01*
X100815414Y-117766042D01*
X100775127Y-117730369D01*
X100644889Y-117642480D01*
X100504197Y-117583288D01*
X100357127Y-117552265D01*
X100207758Y-117548879D01*
X100060167Y-117572602D01*
X99918429Y-117622904D01*
X99786623Y-117699255D01*
X99668826Y-117801125D01*
X99569114Y-117927984D01*
X99549943Y-117959400D01*
X99484783Y-118102992D01*
X99450177Y-118252517D01*
X99445218Y-118404105D01*
X99469001Y-118553882D01*
X99520619Y-118697976D01*
X99599166Y-118832515D01*
X99703736Y-118953625D01*
X99833422Y-119057434D01*
X99837634Y-119060232D01*
X99887810Y-119095590D01*
X99925417Y-119125653D01*
X99942594Y-119144172D01*
X99940426Y-119158690D01*
X99926951Y-119200965D01*
X99903058Y-119266486D01*
X99870375Y-119351377D01*
X99830533Y-119451759D01*
X99785160Y-119563757D01*
X99735887Y-119683491D01*
X99684341Y-119807084D01*
X99632154Y-119930659D01*
X99580953Y-120050339D01*
X99532368Y-120162245D01*
X99488030Y-120262500D01*
X99449566Y-120347227D01*
X99418606Y-120412547D01*
X99396779Y-120454584D01*
X99385716Y-120469460D01*
X99376516Y-120467446D01*
X99340371Y-120452966D01*
X99286951Y-120427578D01*
X99224131Y-120394916D01*
X99086238Y-120320359D01*
X98921968Y-120431469D01*
X98873436Y-120464370D01*
X98783166Y-120525845D01*
X98693171Y-120587418D01*
X98617177Y-120639711D01*
X98575237Y-120668209D01*
X98520726Y-120703616D01*
X98480309Y-120727855D01*
X98460568Y-120736842D01*
X98452087Y-120733026D01*
X98421429Y-120709656D01*
X98374168Y-120668510D01*
X98314416Y-120613635D01*
X98246288Y-120549077D01*
X98173896Y-120478885D01*
X98101356Y-120407106D01*
X98032780Y-120337786D01*
X97972282Y-120274973D01*
X97923976Y-120222714D01*
X97891976Y-120185057D01*
X97880395Y-120166048D01*
X97881063Y-120162431D01*
X97894847Y-120132993D01*
X97924292Y-120082062D01*
X97966553Y-120014238D01*
X98018785Y-119934123D01*
X98078142Y-119846315D01*
X98094789Y-119822096D01*
X98153244Y-119736868D01*
X98204733Y-119661521D01*
X98246256Y-119600463D01*
X98274811Y-119558104D01*
X98287398Y-119538852D01*
X98287707Y-119538027D01*
X98283993Y-119514473D01*
X98269807Y-119466759D01*
X98247451Y-119400879D01*
X98219227Y-119322830D01*
X98187435Y-119238607D01*
X98154378Y-119154205D01*
X98122356Y-119075621D01*
X98093671Y-119008850D01*
X98070623Y-118959886D01*
X98055515Y-118934727D01*
X98054002Y-118933165D01*
X98043185Y-118925263D01*
X98024915Y-118917294D01*
X97995556Y-118908441D01*
X97951470Y-118897887D01*
X97889018Y-118884815D01*
X97804564Y-118868408D01*
X97694469Y-118847848D01*
X97555095Y-118822319D01*
X97526187Y-118816946D01*
X97443377Y-118800337D01*
X97373718Y-118784600D01*
X97323812Y-118771298D01*
X97300259Y-118761993D01*
X97296319Y-118754230D01*
X97289750Y-118716942D01*
X97284544Y-118655125D01*
X97280706Y-118574572D01*
X97278239Y-118481075D01*
X97277147Y-118380426D01*
X97277435Y-118278417D01*
X97279107Y-118180839D01*
X97282165Y-118093485D01*
X97286615Y-118022147D01*
X97292460Y-117972617D01*
X97299704Y-117950686D01*
X97307101Y-117947446D01*
X97343896Y-117937233D01*
X97406091Y-117922789D01*
X97488723Y-117905189D01*
X97586828Y-117885510D01*
X97695444Y-117864830D01*
X97754750Y-117853781D01*
X97856398Y-117834621D01*
X97943890Y-117817844D01*
X98012549Y-117804361D01*
X98057693Y-117795084D01*
X98074644Y-117790926D01*
X98075281Y-117790069D01*
X98086077Y-117768293D01*
X98106657Y-117722671D01*
X98134449Y-117659258D01*
X98166882Y-117584107D01*
X98201382Y-117503270D01*
X98235378Y-117422799D01*
X98266297Y-117348749D01*
X98291566Y-117287172D01*
X98308615Y-117244121D01*
X98314869Y-117225650D01*
X98312110Y-117219150D01*
X98293750Y-117188222D01*
X98260446Y-117136163D01*
X98214874Y-117067059D01*
X98159711Y-116984993D01*
X98097632Y-116894052D01*
X98063573Y-116844248D01*
X98004797Y-116756931D01*
X97954403Y-116680298D01*
X97915080Y-116618531D01*
X97889514Y-116575806D01*
X97880395Y-116556305D01*
X97886732Y-116545727D01*
X97913237Y-116514119D01*
X97956720Y-116466283D01*
X98013189Y-116406273D01*
X98078653Y-116338142D01*
X98149121Y-116265945D01*
X98220601Y-116193733D01*
X98289100Y-116125562D01*
X98350629Y-116065483D01*
X98401194Y-116017551D01*
X98436805Y-115985820D01*
X98453470Y-115974342D01*
X98462720Y-115978805D01*
X98496689Y-115999502D01*
X98551505Y-116034727D01*
X98623218Y-116081896D01*
X98707878Y-116138431D01*
X98801535Y-116201748D01*
X99135959Y-116429154D01*
X99693487Y-116199322D01*
X99769036Y-115798576D01*
X99844585Y-115397829D01*
X100678706Y-115397829D01*
X100754254Y-115798576D01*
G36*
X100754254Y-115798576D02*
G01*
X100829803Y-116199322D01*
X101108567Y-116314238D01*
X101387332Y-116429154D01*
X101721756Y-116201748D01*
X101787946Y-116156917D01*
X101875693Y-116098071D01*
X101951663Y-116047810D01*
X102011911Y-116008715D01*
X102052491Y-115983365D01*
X102069457Y-115974342D01*
X102079877Y-115980759D01*
X102111025Y-116007647D01*
X102158161Y-116051774D01*
X102217293Y-116109087D01*
X102284426Y-116175535D01*
X102355566Y-116247065D01*
X102426719Y-116319626D01*
X102493892Y-116389167D01*
X102553090Y-116451635D01*
X102600319Y-116502978D01*
X102631586Y-116539145D01*
X102642895Y-116556083D01*
X102640264Y-116563361D01*
X102622048Y-116595824D01*
X102588782Y-116649249D01*
X102543164Y-116719449D01*
X102487890Y-116802236D01*
X102425658Y-116893421D01*
X102391506Y-116943152D01*
X102332757Y-117029731D01*
X102282388Y-117105291D01*
X102243086Y-117165733D01*
X102217535Y-117206961D01*
X102208422Y-117224876D01*
X102208571Y-117225869D01*
X102216611Y-117248580D01*
X102235054Y-117294955D01*
X102261331Y-117358937D01*
X102292871Y-117434468D01*
X102327102Y-117515489D01*
X102361454Y-117595943D01*
X102393355Y-117669772D01*
X102420235Y-117730918D01*
X102439522Y-117773322D01*
X102448646Y-117790926D01*
X102454045Y-117792488D01*
X102486846Y-117799531D01*
X102545306Y-117811199D01*
X102624746Y-117826580D01*
X102720486Y-117844760D01*
X102827846Y-117864830D01*
X102884431Y-117875471D01*
X102988289Y-117895773D01*
X103079097Y-117914522D01*
X103151891Y-117930642D01*
X103201708Y-117943056D01*
X103223586Y-117950686D01*
X103227516Y-117958250D01*
X103234034Y-117995209D01*
X103239156Y-118056765D01*
X103242884Y-118137127D01*
X103245223Y-118230503D01*
X103246177Y-118331101D01*
X103245749Y-118433128D01*
X103243945Y-118530793D01*
X103240766Y-118618304D01*
X103236219Y-118689869D01*
X103230306Y-118739696D01*
X103223031Y-118761993D01*
X103218617Y-118764508D01*
X103185694Y-118775296D01*
X103128582Y-118789569D01*
X103053882Y-118805764D01*
X102968196Y-118822319D01*
X102939285Y-118827592D01*
X102805755Y-118852113D01*
X102700813Y-118871821D01*
X102620820Y-118887531D01*
X102562139Y-118900062D01*
X102521132Y-118910229D01*
X102494161Y-118918851D01*
X102477588Y-118926745D01*
X102467775Y-118934727D01*
X102466635Y-118936067D01*
X102450588Y-118963997D01*
X102426843Y-119015104D01*
X102397701Y-119083392D01*
X102365463Y-119162866D01*
X102332430Y-119247529D01*
X102300904Y-119331387D01*
X102273186Y-119408444D01*
X102251577Y-119472704D01*
X102238379Y-119518172D01*
X102235893Y-119538852D01*
X102237555Y-119541535D01*
X102254765Y-119567484D01*
X102287130Y-119615345D01*
X102331650Y-119680710D01*
X102385323Y-119759170D01*
X102445149Y-119846315D01*
X102461567Y-119870292D01*
X102519303Y-119956295D01*
X102569200Y-120033211D01*
X102608409Y-120096477D01*
X102634083Y-120141532D01*
X102643374Y-120163815D01*
X102641372Y-120169673D01*
X102620503Y-120198541D01*
X102579331Y-120245680D01*
X102520803Y-120307920D01*
X102447867Y-120382087D01*
X102363473Y-120465008D01*
X102315234Y-120511421D01*
X102238962Y-120583708D01*
X102172205Y-120645624D01*
X102118546Y-120693911D01*
X102081570Y-120725307D01*
X102064863Y-120736554D01*
X102053385Y-120732384D01*
X102018045Y-120712663D01*
X101966723Y-120680410D01*
X101906113Y-120639711D01*
X101863020Y-120610011D01*
X101776987Y-120551030D01*
X101685179Y-120488390D01*
X101601323Y-120431469D01*
X101437053Y-120320359D01*
X101299160Y-120394916D01*
X101266690Y-120412125D01*
X101207642Y-120441560D01*
X101161979Y-120461883D01*
X101137574Y-120469460D01*
X101129588Y-120459730D01*
X101109756Y-120422679D01*
X101080462Y-120361593D01*
X101043338Y-120280349D01*
X101000013Y-120182823D01*
X100952118Y-120072891D01*
X100901281Y-119954432D01*
X100849133Y-119831321D01*
X100797304Y-119707435D01*
X100747424Y-119586650D01*
X100701123Y-119472844D01*
X100660031Y-119369893D01*
X100625778Y-119281673D01*
X100599993Y-119212062D01*
X100584308Y-119164936D01*
X100580351Y-119144172D01*
X100580619Y-119143565D01*
X100599050Y-119124370D01*
X100637602Y-119094306D01*
X100688316Y-119059609D01*
X100704324Y-119049014D01*
X100826125Y-118948498D01*
X100926929Y-118828777D01*
X101004351Y-118694834D01*
X101056004Y-118551653D01*
X101079500Y-118404216D01*
X101072454Y-118257507D01*
X101043910Y-118127020D01*
X100992659Y-117995257D01*
X100917945Y-117877706D01*
X100815414Y-117766042D01*
X100775127Y-117730369D01*
X100644889Y-117642480D01*
X100504197Y-117583288D01*
X100357127Y-117552265D01*
X100207758Y-117548879D01*
X100060167Y-117572602D01*
X99918429Y-117622904D01*
X99786623Y-117699255D01*
X99668826Y-117801125D01*
X99569114Y-117927984D01*
X99549943Y-117959400D01*
X99484783Y-118102992D01*
X99450177Y-118252517D01*
X99445218Y-118404105D01*
X99469001Y-118553882D01*
X99520619Y-118697976D01*
X99599166Y-118832515D01*
X99703736Y-118953625D01*
X99833422Y-119057434D01*
X99837634Y-119060232D01*
X99887810Y-119095590D01*
X99925417Y-119125653D01*
X99942594Y-119144172D01*
X99940426Y-119158690D01*
X99926951Y-119200965D01*
X99903058Y-119266486D01*
X99870375Y-119351377D01*
X99830533Y-119451759D01*
X99785160Y-119563757D01*
X99735887Y-119683491D01*
X99684341Y-119807084D01*
X99632154Y-119930659D01*
X99580953Y-120050339D01*
X99532368Y-120162245D01*
X99488030Y-120262500D01*
X99449566Y-120347227D01*
X99418606Y-120412547D01*
X99396779Y-120454584D01*
X99385716Y-120469460D01*
X99376516Y-120467446D01*
X99340371Y-120452966D01*
X99286951Y-120427578D01*
X99224131Y-120394916D01*
X99086238Y-120320359D01*
X98921968Y-120431469D01*
X98873436Y-120464370D01*
X98783166Y-120525845D01*
X98693171Y-120587418D01*
X98617177Y-120639711D01*
X98575237Y-120668209D01*
X98520726Y-120703616D01*
X98480309Y-120727855D01*
X98460568Y-120736842D01*
X98452087Y-120733026D01*
X98421429Y-120709656D01*
X98374168Y-120668510D01*
X98314416Y-120613635D01*
X98246288Y-120549077D01*
X98173896Y-120478885D01*
X98101356Y-120407106D01*
X98032780Y-120337786D01*
X97972282Y-120274973D01*
X97923976Y-120222714D01*
X97891976Y-120185057D01*
X97880395Y-120166048D01*
X97881063Y-120162431D01*
X97894847Y-120132993D01*
X97924292Y-120082062D01*
X97966553Y-120014238D01*
X98018785Y-119934123D01*
X98078142Y-119846315D01*
X98094789Y-119822096D01*
X98153244Y-119736868D01*
X98204733Y-119661521D01*
X98246256Y-119600463D01*
X98274811Y-119558104D01*
X98287398Y-119538852D01*
X98287707Y-119538027D01*
X98283993Y-119514473D01*
X98269807Y-119466759D01*
X98247451Y-119400879D01*
X98219227Y-119322830D01*
X98187435Y-119238607D01*
X98154378Y-119154205D01*
X98122356Y-119075621D01*
X98093671Y-119008850D01*
X98070623Y-118959886D01*
X98055515Y-118934727D01*
X98054002Y-118933165D01*
X98043185Y-118925263D01*
X98024915Y-118917294D01*
X97995556Y-118908441D01*
X97951470Y-118897887D01*
X97889018Y-118884815D01*
X97804564Y-118868408D01*
X97694469Y-118847848D01*
X97555095Y-118822319D01*
X97526187Y-118816946D01*
X97443377Y-118800337D01*
X97373718Y-118784600D01*
X97323812Y-118771298D01*
X97300259Y-118761993D01*
X97296319Y-118754230D01*
X97289750Y-118716942D01*
X97284544Y-118655125D01*
X97280706Y-118574572D01*
X97278239Y-118481075D01*
X97277147Y-118380426D01*
X97277435Y-118278417D01*
X97279107Y-118180839D01*
X97282165Y-118093485D01*
X97286615Y-118022147D01*
X97292460Y-117972617D01*
X97299704Y-117950686D01*
X97307101Y-117947446D01*
X97343896Y-117937233D01*
X97406091Y-117922789D01*
X97488723Y-117905189D01*
X97586828Y-117885510D01*
X97695444Y-117864830D01*
X97754750Y-117853781D01*
X97856398Y-117834621D01*
X97943890Y-117817844D01*
X98012549Y-117804361D01*
X98057693Y-117795084D01*
X98074644Y-117790926D01*
X98075281Y-117790069D01*
X98086077Y-117768293D01*
X98106657Y-117722671D01*
X98134449Y-117659258D01*
X98166882Y-117584107D01*
X98201382Y-117503270D01*
X98235378Y-117422799D01*
X98266297Y-117348749D01*
X98291566Y-117287172D01*
X98308615Y-117244121D01*
X98314869Y-117225650D01*
X98312110Y-117219150D01*
X98293750Y-117188222D01*
X98260446Y-117136163D01*
X98214874Y-117067059D01*
X98159711Y-116984993D01*
X98097632Y-116894052D01*
X98063573Y-116844248D01*
X98004797Y-116756931D01*
X97954403Y-116680298D01*
X97915080Y-116618531D01*
X97889514Y-116575806D01*
X97880395Y-116556305D01*
X97886732Y-116545727D01*
X97913237Y-116514119D01*
X97956720Y-116466283D01*
X98013189Y-116406273D01*
X98078653Y-116338142D01*
X98149121Y-116265945D01*
X98220601Y-116193733D01*
X98289100Y-116125562D01*
X98350629Y-116065483D01*
X98401194Y-116017551D01*
X98436805Y-115985820D01*
X98453470Y-115974342D01*
X98462720Y-115978805D01*
X98496689Y-115999502D01*
X98551505Y-116034727D01*
X98623218Y-116081896D01*
X98707878Y-116138431D01*
X98801535Y-116201748D01*
X99135959Y-116429154D01*
X99693487Y-116199322D01*
X99769036Y-115798576D01*
X99844585Y-115397829D01*
X100678706Y-115397829D01*
X100754254Y-115798576D01*
G37*
X212788597Y-119726335D02*
X212807700Y-119744740D01*
X212863401Y-119800870D01*
X212937074Y-119877287D01*
X213025138Y-119970092D01*
X213124012Y-120075388D01*
X213230118Y-120189277D01*
X213339875Y-120307862D01*
X213449702Y-120427244D01*
X213556020Y-120543525D01*
X213655248Y-120652809D01*
X213743807Y-120751196D01*
X213818115Y-120834790D01*
X213874593Y-120899692D01*
X213909661Y-120942005D01*
X213919738Y-120957830D01*
X213916280Y-120959578D01*
X213883208Y-120978034D01*
X213817796Y-121015243D01*
X213722799Y-121069620D01*
X213600973Y-121139578D01*
X213455072Y-121223531D01*
X213287852Y-121319893D01*
X213102068Y-121427077D01*
X212900476Y-121543497D01*
X212685830Y-121667567D01*
X212460887Y-121797702D01*
X212376809Y-121846357D01*
X212155820Y-121974189D01*
X211946410Y-122095247D01*
X211751302Y-122207960D01*
X211573219Y-122310759D01*
X211414886Y-122402074D01*
X211279025Y-122480333D01*
X211168360Y-122543968D01*
X211085614Y-122591407D01*
X211033512Y-122621082D01*
X211014776Y-122631420D01*
X211015618Y-122625914D01*
X211030993Y-122594271D01*
X211059269Y-122543719D01*
X211076615Y-122513797D01*
X211113504Y-122449988D01*
X211167786Y-122356009D01*
X211237698Y-122234917D01*
X211321477Y-122089765D01*
X211417362Y-121923607D01*
X211523588Y-121739499D01*
X211638392Y-121540495D01*
X211760013Y-121329649D01*
X211886687Y-121110017D01*
X212010722Y-120895016D01*
X212131310Y-120686130D01*
X212244701Y-120489849D01*
X212349191Y-120309114D01*
X212443079Y-120146867D01*
X212524660Y-120006049D01*
X212592231Y-119889602D01*
X212644089Y-119800469D01*
X212678531Y-119741590D01*
X212693854Y-119715908D01*
X212725292Y-119666872D01*
X212788597Y-119726335D01*
G36*
X212788597Y-119726335D02*
G01*
X212807700Y-119744740D01*
X212863401Y-119800870D01*
X212937074Y-119877287D01*
X213025138Y-119970092D01*
X213124012Y-120075388D01*
X213230118Y-120189277D01*
X213339875Y-120307862D01*
X213449702Y-120427244D01*
X213556020Y-120543525D01*
X213655248Y-120652809D01*
X213743807Y-120751196D01*
X213818115Y-120834790D01*
X213874593Y-120899692D01*
X213909661Y-120942005D01*
X213919738Y-120957830D01*
X213916280Y-120959578D01*
X213883208Y-120978034D01*
X213817796Y-121015243D01*
X213722799Y-121069620D01*
X213600973Y-121139578D01*
X213455072Y-121223531D01*
X213287852Y-121319893D01*
X213102068Y-121427077D01*
X212900476Y-121543497D01*
X212685830Y-121667567D01*
X212460887Y-121797702D01*
X212376809Y-121846357D01*
X212155820Y-121974189D01*
X211946410Y-122095247D01*
X211751302Y-122207960D01*
X211573219Y-122310759D01*
X211414886Y-122402074D01*
X211279025Y-122480333D01*
X211168360Y-122543968D01*
X211085614Y-122591407D01*
X211033512Y-122621082D01*
X211014776Y-122631420D01*
X211015618Y-122625914D01*
X211030993Y-122594271D01*
X211059269Y-122543719D01*
X211076615Y-122513797D01*
X211113504Y-122449988D01*
X211167786Y-122356009D01*
X211237698Y-122234917D01*
X211321477Y-122089765D01*
X211417362Y-121923607D01*
X211523588Y-121739499D01*
X211638392Y-121540495D01*
X211760013Y-121329649D01*
X211886687Y-121110017D01*
X212010722Y-120895016D01*
X212131310Y-120686130D01*
X212244701Y-120489849D01*
X212349191Y-120309114D01*
X212443079Y-120146867D01*
X212524660Y-120006049D01*
X212592231Y-119889602D01*
X212644089Y-119800469D01*
X212678531Y-119741590D01*
X212693854Y-119715908D01*
X212725292Y-119666872D01*
X212788597Y-119726335D01*
G37*
X215162052Y-115459119D02*
X215177580Y-115482462D01*
X215211791Y-115538543D01*
X215262966Y-115624380D01*
X215329387Y-115736991D01*
X215409335Y-115873394D01*
X215501092Y-116030606D01*
X215602940Y-116205647D01*
X215713161Y-116395532D01*
X215830035Y-116597281D01*
X215951845Y-116807912D01*
X216076873Y-117024442D01*
X216203399Y-117243889D01*
X216329706Y-117463271D01*
X216454076Y-117679605D01*
X216574789Y-117889911D01*
X216690128Y-118091206D01*
X216798374Y-118280507D01*
X216897809Y-118454833D01*
X216986714Y-118611201D01*
X217063371Y-118746629D01*
X217126062Y-118858136D01*
X217173069Y-118942739D01*
X217202672Y-118997456D01*
X217213155Y-119019305D01*
X217213165Y-119019472D01*
X217196261Y-119042399D01*
X217147688Y-119081263D01*
X217072499Y-119132385D01*
X216975748Y-119192088D01*
X216910863Y-119230281D01*
X216817499Y-119283391D01*
X216752467Y-119316861D01*
X216711410Y-119332575D01*
X216689972Y-119332416D01*
X216683794Y-119318265D01*
X216683323Y-119315958D01*
X216665666Y-119287815D01*
X216627603Y-119239958D01*
X216576149Y-119181312D01*
X216552410Y-119156120D01*
X216478794Y-119088309D01*
X216397386Y-119030348D01*
X216303350Y-118980539D01*
X216191845Y-118937182D01*
X216058036Y-118898577D01*
X215897083Y-118863026D01*
X215704148Y-118828828D01*
X215474394Y-118794284D01*
X215209952Y-118755347D01*
X214954311Y-118713534D01*
X214730778Y-118671620D01*
X214534357Y-118628395D01*
X214360050Y-118582651D01*
X214202858Y-118533179D01*
X214057785Y-118478769D01*
X213919833Y-118418213D01*
X213818448Y-118368274D01*
X213721605Y-118315722D01*
X213645020Y-118268807D01*
X213594679Y-118231217D01*
X213576569Y-118206644D01*
X213577103Y-118204833D01*
X213591691Y-118175874D01*
X213624767Y-118115229D01*
X213674372Y-118026294D01*
X213738547Y-117912465D01*
X213815335Y-117777137D01*
X213902777Y-117623705D01*
X213998916Y-117455565D01*
X214101793Y-117276111D01*
X214209450Y-117088741D01*
X214319929Y-116896847D01*
X214431271Y-116703827D01*
X214541519Y-116513075D01*
X214648715Y-116327987D01*
X214750899Y-116151958D01*
X214846115Y-115988384D01*
X214932403Y-115840659D01*
X215007806Y-115712180D01*
X215070366Y-115606341D01*
X215118124Y-115526538D01*
X215149122Y-115476166D01*
X215161402Y-115458621D01*
X215162052Y-115459119D01*
G36*
X215162052Y-115459119D02*
G01*
X215177580Y-115482462D01*
X215211791Y-115538543D01*
X215262966Y-115624380D01*
X215329387Y-115736991D01*
X215409335Y-115873394D01*
X215501092Y-116030606D01*
X215602940Y-116205647D01*
X215713161Y-116395532D01*
X215830035Y-116597281D01*
X215951845Y-116807912D01*
X216076873Y-117024442D01*
X216203399Y-117243889D01*
X216329706Y-117463271D01*
X216454076Y-117679605D01*
X216574789Y-117889911D01*
X216690128Y-118091206D01*
X216798374Y-118280507D01*
X216897809Y-118454833D01*
X216986714Y-118611201D01*
X217063371Y-118746629D01*
X217126062Y-118858136D01*
X217173069Y-118942739D01*
X217202672Y-118997456D01*
X217213155Y-119019305D01*
X217213165Y-119019472D01*
X217196261Y-119042399D01*
X217147688Y-119081263D01*
X217072499Y-119132385D01*
X216975748Y-119192088D01*
X216910863Y-119230281D01*
X216817499Y-119283391D01*
X216752467Y-119316861D01*
X216711410Y-119332575D01*
X216689972Y-119332416D01*
X216683794Y-119318265D01*
X216683323Y-119315958D01*
X216665666Y-119287815D01*
X216627603Y-119239958D01*
X216576149Y-119181312D01*
X216552410Y-119156120D01*
X216478794Y-119088309D01*
X216397386Y-119030348D01*
X216303350Y-118980539D01*
X216191845Y-118937182D01*
X216058036Y-118898577D01*
X215897083Y-118863026D01*
X215704148Y-118828828D01*
X215474394Y-118794284D01*
X215209952Y-118755347D01*
X214954311Y-118713534D01*
X214730778Y-118671620D01*
X214534357Y-118628395D01*
X214360050Y-118582651D01*
X214202858Y-118533179D01*
X214057785Y-118478769D01*
X213919833Y-118418213D01*
X213818448Y-118368274D01*
X213721605Y-118315722D01*
X213645020Y-118268807D01*
X213594679Y-118231217D01*
X213576569Y-118206644D01*
X213577103Y-118204833D01*
X213591691Y-118175874D01*
X213624767Y-118115229D01*
X213674372Y-118026294D01*
X213738547Y-117912465D01*
X213815335Y-117777137D01*
X213902777Y-117623705D01*
X213998916Y-117455565D01*
X214101793Y-117276111D01*
X214209450Y-117088741D01*
X214319929Y-116896847D01*
X214431271Y-116703827D01*
X214541519Y-116513075D01*
X214648715Y-116327987D01*
X214750899Y-116151958D01*
X214846115Y-115988384D01*
X214932403Y-115840659D01*
X215007806Y-115712180D01*
X215070366Y-115606341D01*
X215118124Y-115526538D01*
X215149122Y-115476166D01*
X215161402Y-115458621D01*
X215162052Y-115459119D01*
G37*
X217672528Y-119798609D02*
X217680275Y-119810169D01*
X217707963Y-119855573D01*
X217753493Y-119932125D01*
X217815122Y-120036838D01*
X217891108Y-120166723D01*
X217979706Y-120318792D01*
X218079175Y-120490059D01*
X218187772Y-120677535D01*
X218303753Y-120878232D01*
X218425376Y-121089163D01*
X218458731Y-121147073D01*
X218590621Y-121376046D01*
X218723395Y-121606533D01*
X218854340Y-121833828D01*
X218980745Y-122053223D01*
X219099897Y-122260012D01*
X219209084Y-122449486D01*
X219305594Y-122616940D01*
X219386714Y-122757665D01*
X219449732Y-122866954D01*
X219747414Y-123383087D01*
X215573420Y-123383087D01*
X215400863Y-123383072D01*
X214989623Y-123382914D01*
X214590976Y-123382590D01*
X214206865Y-123382109D01*
X213839231Y-123381479D01*
X213490013Y-123380708D01*
X213161153Y-123379804D01*
X212854592Y-123378776D01*
X212572271Y-123377632D01*
X212316130Y-123376380D01*
X212088111Y-123375029D01*
X211890154Y-123373587D01*
X211724201Y-123372063D01*
X211592191Y-123370464D01*
X211496067Y-123368799D01*
X211437769Y-123367076D01*
X211419237Y-123365304D01*
X211432996Y-123356337D01*
X211480468Y-123327764D01*
X211558443Y-123281765D01*
X211663749Y-123220165D01*
X211793215Y-123144788D01*
X211943670Y-123057460D01*
X212111942Y-122960004D01*
X212294860Y-122854246D01*
X212489253Y-122742011D01*
X212691948Y-122625123D01*
X212899775Y-122505407D01*
X213109561Y-122384687D01*
X213318137Y-122264789D01*
X213522330Y-122147537D01*
X213718968Y-122034756D01*
X213904881Y-121928270D01*
X214076897Y-121829905D01*
X214231844Y-121741485D01*
X214366552Y-121664835D01*
X214477848Y-121601780D01*
X214562562Y-121554144D01*
X214617521Y-121523752D01*
X214639555Y-121512429D01*
X214653934Y-121515235D01*
X214697247Y-121540763D01*
X214759001Y-121588057D01*
X214832409Y-121652198D01*
X214898527Y-121716408D01*
X214982741Y-121803875D01*
X215076966Y-121905990D01*
X215176373Y-122017130D01*
X215276132Y-122131675D01*
X215371412Y-122244000D01*
X215457384Y-122348485D01*
X215529217Y-122439506D01*
X215582081Y-122511441D01*
X215611147Y-122558668D01*
X215630550Y-122593159D01*
X215683248Y-122664537D01*
X215750995Y-122740474D01*
X215824133Y-122811230D01*
X215893001Y-122867066D01*
X215947942Y-122898244D01*
X216008620Y-122905450D01*
X216089589Y-122885532D01*
X216166544Y-122839862D01*
X216226265Y-122774324D01*
X216236606Y-122757321D01*
X216249773Y-122729474D01*
X216258354Y-122695961D01*
X216262901Y-122649583D01*
X216263964Y-122583138D01*
X216262092Y-122489427D01*
X216257837Y-122361248D01*
X216254788Y-122287103D01*
X216248309Y-122169846D01*
X216240662Y-122067221D01*
X216232560Y-121988250D01*
X216224716Y-121941954D01*
X216205726Y-121889068D01*
X216149427Y-121784921D01*
X216061944Y-121661519D01*
X215942210Y-121517414D01*
X215789156Y-121351156D01*
X215722738Y-121281107D01*
X215645943Y-121198475D01*
X215582560Y-121128416D01*
X215537803Y-121076714D01*
X215516885Y-121049152D01*
X215514735Y-121044775D01*
X215512156Y-121025934D01*
X215525039Y-121005044D01*
X215558661Y-120977604D01*
X215618298Y-120939111D01*
X215709227Y-120885065D01*
X215786527Y-120839944D01*
X215928774Y-120757407D01*
X216040772Y-120693296D01*
X216126282Y-120645529D01*
X216189066Y-120612024D01*
X216232886Y-120590700D01*
X216261503Y-120579476D01*
X216291116Y-120567023D01*
X216308424Y-120550299D01*
X216310043Y-120546354D01*
X216335367Y-120524415D01*
X216381650Y-120496158D01*
X216454876Y-120456723D01*
X216508944Y-120507056D01*
X216528041Y-120527448D01*
X216572472Y-120582865D01*
X216626723Y-120656856D01*
X216683054Y-120739106D01*
X216803097Y-120920822D01*
X216798386Y-121391916D01*
X216793675Y-121863009D01*
X216725079Y-121929657D01*
X216702028Y-121953418D01*
X216628110Y-122060166D01*
X216584961Y-122187105D01*
X216570259Y-122340394D01*
X216573910Y-122422527D01*
X216599678Y-122567405D01*
X216646644Y-122699636D01*
X216710736Y-122805736D01*
X216755242Y-122844423D01*
X216834352Y-122873807D01*
X216923908Y-122877197D01*
X217012446Y-122856156D01*
X217088502Y-122812250D01*
X217140613Y-122747045D01*
X217142318Y-122743511D01*
X217173817Y-122678957D01*
X217207177Y-122611494D01*
X217235497Y-122548163D01*
X217276122Y-122441420D01*
X217320943Y-122309818D01*
X217368403Y-122159224D01*
X217416943Y-121995501D01*
X217465006Y-121824514D01*
X217511035Y-121652126D01*
X217553472Y-121484203D01*
X217590760Y-121326609D01*
X217621340Y-121185208D01*
X217643657Y-121065865D01*
X217656152Y-120974443D01*
X217657267Y-120916807D01*
X217654754Y-120903714D01*
X217630263Y-120837432D01*
X217584817Y-120748757D01*
X217522406Y-120645707D01*
X217498452Y-120608571D01*
X217402203Y-120457144D01*
X217320389Y-120324717D01*
X217254812Y-120214389D01*
X217207277Y-120129255D01*
X217179591Y-120072414D01*
X217173555Y-120046962D01*
X217174254Y-120046064D01*
X217199240Y-120027731D01*
X217252637Y-119994223D01*
X217327129Y-119950001D01*
X217415401Y-119899525D01*
X217422863Y-119895334D01*
X217518707Y-119842601D01*
X217585456Y-119808972D01*
X217629251Y-119792036D01*
X217656228Y-119789385D01*
X217672528Y-119798609D01*
G36*
X217672528Y-119798609D02*
G01*
X217680275Y-119810169D01*
X217707963Y-119855573D01*
X217753493Y-119932125D01*
X217815122Y-120036838D01*
X217891108Y-120166723D01*
X217979706Y-120318792D01*
X218079175Y-120490059D01*
X218187772Y-120677535D01*
X218303753Y-120878232D01*
X218425376Y-121089163D01*
X218458731Y-121147073D01*
X218590621Y-121376046D01*
X218723395Y-121606533D01*
X218854340Y-121833828D01*
X218980745Y-122053223D01*
X219099897Y-122260012D01*
X219209084Y-122449486D01*
X219305594Y-122616940D01*
X219386714Y-122757665D01*
X219449732Y-122866954D01*
X219747414Y-123383087D01*
X215573420Y-123383087D01*
X215400863Y-123383072D01*
X214989623Y-123382914D01*
X214590976Y-123382590D01*
X214206865Y-123382109D01*
X213839231Y-123381479D01*
X213490013Y-123380708D01*
X213161153Y-123379804D01*
X212854592Y-123378776D01*
X212572271Y-123377632D01*
X212316130Y-123376380D01*
X212088111Y-123375029D01*
X211890154Y-123373587D01*
X211724201Y-123372063D01*
X211592191Y-123370464D01*
X211496067Y-123368799D01*
X211437769Y-123367076D01*
X211419237Y-123365304D01*
X211432996Y-123356337D01*
X211480468Y-123327764D01*
X211558443Y-123281765D01*
X211663749Y-123220165D01*
X211793215Y-123144788D01*
X211943670Y-123057460D01*
X212111942Y-122960004D01*
X212294860Y-122854246D01*
X212489253Y-122742011D01*
X212691948Y-122625123D01*
X212899775Y-122505407D01*
X213109561Y-122384687D01*
X213318137Y-122264789D01*
X213522330Y-122147537D01*
X213718968Y-122034756D01*
X213904881Y-121928270D01*
X214076897Y-121829905D01*
X214231844Y-121741485D01*
X214366552Y-121664835D01*
X214477848Y-121601780D01*
X214562562Y-121554144D01*
X214617521Y-121523752D01*
X214639555Y-121512429D01*
X214653934Y-121515235D01*
X214697247Y-121540763D01*
X214759001Y-121588057D01*
X214832409Y-121652198D01*
X214898527Y-121716408D01*
X214982741Y-121803875D01*
X215076966Y-121905990D01*
X215176373Y-122017130D01*
X215276132Y-122131675D01*
X215371412Y-122244000D01*
X215457384Y-122348485D01*
X215529217Y-122439506D01*
X215582081Y-122511441D01*
X215611147Y-122558668D01*
X215630550Y-122593159D01*
X215683248Y-122664537D01*
X215750995Y-122740474D01*
X215824133Y-122811230D01*
X215893001Y-122867066D01*
X215947942Y-122898244D01*
X216008620Y-122905450D01*
X216089589Y-122885532D01*
X216166544Y-122839862D01*
X216226265Y-122774324D01*
X216236606Y-122757321D01*
X216249773Y-122729474D01*
X216258354Y-122695961D01*
X216262901Y-122649583D01*
X216263964Y-122583138D01*
X216262092Y-122489427D01*
X216257837Y-122361248D01*
X216254788Y-122287103D01*
X216248309Y-122169846D01*
X216240662Y-122067221D01*
X216232560Y-121988250D01*
X216224716Y-121941954D01*
X216205726Y-121889068D01*
X216149427Y-121784921D01*
X216061944Y-121661519D01*
X215942210Y-121517414D01*
X215789156Y-121351156D01*
X215722738Y-121281107D01*
X215645943Y-121198475D01*
X215582560Y-121128416D01*
X215537803Y-121076714D01*
X215516885Y-121049152D01*
X215514735Y-121044775D01*
X215512156Y-121025934D01*
X215525039Y-121005044D01*
X215558661Y-120977604D01*
X215618298Y-120939111D01*
X215709227Y-120885065D01*
X215786527Y-120839944D01*
X215928774Y-120757407D01*
X216040772Y-120693296D01*
X216126282Y-120645529D01*
X216189066Y-120612024D01*
X216232886Y-120590700D01*
X216261503Y-120579476D01*
X216291116Y-120567023D01*
X216308424Y-120550299D01*
X216310043Y-120546354D01*
X216335367Y-120524415D01*
X216381650Y-120496158D01*
X216454876Y-120456723D01*
X216508944Y-120507056D01*
X216528041Y-120527448D01*
X216572472Y-120582865D01*
X216626723Y-120656856D01*
X216683054Y-120739106D01*
X216803097Y-120920822D01*
X216798386Y-121391916D01*
X216793675Y-121863009D01*
X216725079Y-121929657D01*
X216702028Y-121953418D01*
X216628110Y-122060166D01*
X216584961Y-122187105D01*
X216570259Y-122340394D01*
X216573910Y-122422527D01*
X216599678Y-122567405D01*
X216646644Y-122699636D01*
X216710736Y-122805736D01*
X216755242Y-122844423D01*
X216834352Y-122873807D01*
X216923908Y-122877197D01*
X217012446Y-122856156D01*
X217088502Y-122812250D01*
X217140613Y-122747045D01*
X217142318Y-122743511D01*
X217173817Y-122678957D01*
X217207177Y-122611494D01*
X217235497Y-122548163D01*
X217276122Y-122441420D01*
X217320943Y-122309818D01*
X217368403Y-122159224D01*
X217416943Y-121995501D01*
X217465006Y-121824514D01*
X217511035Y-121652126D01*
X217553472Y-121484203D01*
X217590760Y-121326609D01*
X217621340Y-121185208D01*
X217643657Y-121065865D01*
X217656152Y-120974443D01*
X217657267Y-120916807D01*
X217654754Y-120903714D01*
X217630263Y-120837432D01*
X217584817Y-120748757D01*
X217522406Y-120645707D01*
X217498452Y-120608571D01*
X217402203Y-120457144D01*
X217320389Y-120324717D01*
X217254812Y-120214389D01*
X217207277Y-120129255D01*
X217179591Y-120072414D01*
X217173555Y-120046962D01*
X217174254Y-120046064D01*
X217199240Y-120027731D01*
X217252637Y-119994223D01*
X217327129Y-119950001D01*
X217415401Y-119899525D01*
X217422863Y-119895334D01*
X217518707Y-119842601D01*
X217585456Y-119808972D01*
X217629251Y-119792036D01*
X217656228Y-119789385D01*
X217672528Y-119798609D01*
G37*
%TO.C,QR\u002A\u002A\u002A\u002A\u002A*%
G36*
X94780000Y-114400000D02*
G01*
X94380000Y-114400000D01*
X94380000Y-114800000D01*
X94780000Y-114800000D01*
X94780000Y-114400000D01*
G37*
G36*
X94780000Y-114800000D02*
G01*
X94380000Y-114800000D01*
X94380000Y-115200000D01*
X94780000Y-115200000D01*
X94780000Y-114800000D01*
G37*
G36*
X94780000Y-115200000D02*
G01*
X94380000Y-115200000D01*
X94380000Y-115600000D01*
X94780000Y-115600000D01*
X94780000Y-115200000D01*
G37*
G36*
X94780000Y-115600000D02*
G01*
X94380000Y-115600000D01*
X94380000Y-116000000D01*
X94780000Y-116000000D01*
X94780000Y-115600000D01*
G37*
G36*
X94780000Y-116000000D02*
G01*
X94380000Y-116000000D01*
X94380000Y-116400000D01*
X94780000Y-116400000D01*
X94780000Y-116000000D01*
G37*
G36*
X94780000Y-116400000D02*
G01*
X94380000Y-116400000D01*
X94380000Y-116800000D01*
X94780000Y-116800000D01*
X94780000Y-116400000D01*
G37*
G36*
X94780000Y-116800000D02*
G01*
X94380000Y-116800000D01*
X94380000Y-117200000D01*
X94780000Y-117200000D01*
X94780000Y-116800000D01*
G37*
G36*
X94780000Y-117600000D02*
G01*
X94380000Y-117600000D01*
X94380000Y-118000000D01*
X94780000Y-118000000D01*
X94780000Y-117600000D01*
G37*
G36*
X94780000Y-118000000D02*
G01*
X94380000Y-118000000D01*
X94380000Y-118400000D01*
X94780000Y-118400000D01*
X94780000Y-118000000D01*
G37*
G36*
X94780000Y-118800000D02*
G01*
X94380000Y-118800000D01*
X94380000Y-119200000D01*
X94780000Y-119200000D01*
X94780000Y-118800000D01*
G37*
G36*
X94780000Y-119200000D02*
G01*
X94380000Y-119200000D01*
X94380000Y-119600000D01*
X94780000Y-119600000D01*
X94780000Y-119200000D01*
G37*
G36*
X94780000Y-120400000D02*
G01*
X94380000Y-120400000D01*
X94380000Y-120800000D01*
X94780000Y-120800000D01*
X94780000Y-120400000D01*
G37*
G36*
X94780000Y-121600000D02*
G01*
X94380000Y-121600000D01*
X94380000Y-122000000D01*
X94780000Y-122000000D01*
X94780000Y-121600000D01*
G37*
G36*
X94780000Y-122000000D02*
G01*
X94380000Y-122000000D01*
X94380000Y-122400000D01*
X94780000Y-122400000D01*
X94780000Y-122000000D01*
G37*
G36*
X94780000Y-122400000D02*
G01*
X94380000Y-122400000D01*
X94380000Y-122800000D01*
X94780000Y-122800000D01*
X94780000Y-122400000D01*
G37*
G36*
X94780000Y-122800000D02*
G01*
X94380000Y-122800000D01*
X94380000Y-123200000D01*
X94780000Y-123200000D01*
X94780000Y-122800000D01*
G37*
G36*
X94780000Y-123200000D02*
G01*
X94380000Y-123200000D01*
X94380000Y-123600000D01*
X94780000Y-123600000D01*
X94780000Y-123200000D01*
G37*
G36*
X94780000Y-123600000D02*
G01*
X94380000Y-123600000D01*
X94380000Y-124000000D01*
X94780000Y-124000000D01*
X94780000Y-123600000D01*
G37*
G36*
X94780000Y-124000000D02*
G01*
X94380000Y-124000000D01*
X94380000Y-124400000D01*
X94780000Y-124400000D01*
X94780000Y-124000000D01*
G37*
G36*
X94380000Y-114400000D02*
G01*
X93980000Y-114400000D01*
X93980000Y-114800000D01*
X94380000Y-114800000D01*
X94380000Y-114400000D01*
G37*
G36*
X94380000Y-116800000D02*
G01*
X93980000Y-116800000D01*
X93980000Y-117200000D01*
X94380000Y-117200000D01*
X94380000Y-116800000D01*
G37*
G36*
X94380000Y-117600000D02*
G01*
X93980000Y-117600000D01*
X93980000Y-118000000D01*
X94380000Y-118000000D01*
X94380000Y-117600000D01*
G37*
G36*
X94380000Y-118000000D02*
G01*
X93980000Y-118000000D01*
X93980000Y-118400000D01*
X94380000Y-118400000D01*
X94380000Y-118000000D01*
G37*
G36*
X94380000Y-118400000D02*
G01*
X93980000Y-118400000D01*
X93980000Y-118800000D01*
X94380000Y-118800000D01*
X94380000Y-118400000D01*
G37*
G36*
X94380000Y-118800000D02*
G01*
X93980000Y-118800000D01*
X93980000Y-119200000D01*
X94380000Y-119200000D01*
X94380000Y-118800000D01*
G37*
G36*
X94380000Y-119600000D02*
G01*
X93980000Y-119600000D01*
X93980000Y-120000000D01*
X94380000Y-120000000D01*
X94380000Y-119600000D01*
G37*
G36*
X94380000Y-120000000D02*
G01*
X93980000Y-120000000D01*
X93980000Y-120400000D01*
X94380000Y-120400000D01*
X94380000Y-120000000D01*
G37*
G36*
X94380000Y-121600000D02*
G01*
X93980000Y-121600000D01*
X93980000Y-122000000D01*
X94380000Y-122000000D01*
X94380000Y-121600000D01*
G37*
G36*
X94380000Y-124000000D02*
G01*
X93980000Y-124000000D01*
X93980000Y-124400000D01*
X94380000Y-124400000D01*
X94380000Y-124000000D01*
G37*
G36*
X93980000Y-114400000D02*
G01*
X93580000Y-114400000D01*
X93580000Y-114800000D01*
X93980000Y-114800000D01*
X93980000Y-114400000D01*
G37*
G36*
X93980000Y-115200000D02*
G01*
X93580000Y-115200000D01*
X93580000Y-115600000D01*
X93980000Y-115600000D01*
X93980000Y-115200000D01*
G37*
G36*
X93980000Y-115600000D02*
G01*
X93580000Y-115600000D01*
X93580000Y-116000000D01*
X93980000Y-116000000D01*
X93980000Y-115600000D01*
G37*
G36*
X93980000Y-116000000D02*
G01*
X93580000Y-116000000D01*
X93580000Y-116400000D01*
X93980000Y-116400000D01*
X93980000Y-116000000D01*
G37*
G36*
X93980000Y-116800000D02*
G01*
X93580000Y-116800000D01*
X93580000Y-117200000D01*
X93980000Y-117200000D01*
X93980000Y-116800000D01*
G37*
G36*
X93980000Y-117600000D02*
G01*
X93580000Y-117600000D01*
X93580000Y-118000000D01*
X93980000Y-118000000D01*
X93980000Y-117600000D01*
G37*
G36*
X93980000Y-118000000D02*
G01*
X93580000Y-118000000D01*
X93580000Y-118400000D01*
X93980000Y-118400000D01*
X93980000Y-118000000D01*
G37*
G36*
X93980000Y-120400000D02*
G01*
X93580000Y-120400000D01*
X93580000Y-120800000D01*
X93980000Y-120800000D01*
X93980000Y-120400000D01*
G37*
G36*
X93980000Y-120800000D02*
G01*
X93580000Y-120800000D01*
X93580000Y-121200000D01*
X93980000Y-121200000D01*
X93980000Y-120800000D01*
G37*
G36*
X93980000Y-121600000D02*
G01*
X93580000Y-121600000D01*
X93580000Y-122000000D01*
X93980000Y-122000000D01*
X93980000Y-121600000D01*
G37*
G36*
X93980000Y-122400000D02*
G01*
X93580000Y-122400000D01*
X93580000Y-122800000D01*
X93980000Y-122800000D01*
X93980000Y-122400000D01*
G37*
G36*
X93980000Y-122800000D02*
G01*
X93580000Y-122800000D01*
X93580000Y-123200000D01*
X93980000Y-123200000D01*
X93980000Y-122800000D01*
G37*
G36*
X93980000Y-123200000D02*
G01*
X93580000Y-123200000D01*
X93580000Y-123600000D01*
X93980000Y-123600000D01*
X93980000Y-123200000D01*
G37*
G36*
X93980000Y-124000000D02*
G01*
X93580000Y-124000000D01*
X93580000Y-124400000D01*
X93980000Y-124400000D01*
X93980000Y-124000000D01*
G37*
G36*
X93580000Y-114400000D02*
G01*
X93180000Y-114400000D01*
X93180000Y-114800000D01*
X93580000Y-114800000D01*
X93580000Y-114400000D01*
G37*
G36*
X93580000Y-115200000D02*
G01*
X93180000Y-115200000D01*
X93180000Y-115600000D01*
X93580000Y-115600000D01*
X93580000Y-115200000D01*
G37*
G36*
X93580000Y-115600000D02*
G01*
X93180000Y-115600000D01*
X93180000Y-116000000D01*
X93580000Y-116000000D01*
X93580000Y-115600000D01*
G37*
G36*
X93580000Y-116000000D02*
G01*
X93180000Y-116000000D01*
X93180000Y-116400000D01*
X93580000Y-116400000D01*
X93580000Y-116000000D01*
G37*
G36*
X93580000Y-116800000D02*
G01*
X93180000Y-116800000D01*
X93180000Y-117200000D01*
X93580000Y-117200000D01*
X93580000Y-116800000D01*
G37*
G36*
X93580000Y-117600000D02*
G01*
X93180000Y-117600000D01*
X93180000Y-118000000D01*
X93580000Y-118000000D01*
X93580000Y-117600000D01*
G37*
G36*
X93580000Y-120000000D02*
G01*
X93180000Y-120000000D01*
X93180000Y-120400000D01*
X93580000Y-120400000D01*
X93580000Y-120000000D01*
G37*
G36*
X93580000Y-121600000D02*
G01*
X93180000Y-121600000D01*
X93180000Y-122000000D01*
X93580000Y-122000000D01*
X93580000Y-121600000D01*
G37*
G36*
X93580000Y-122400000D02*
G01*
X93180000Y-122400000D01*
X93180000Y-122800000D01*
X93580000Y-122800000D01*
X93580000Y-122400000D01*
G37*
G36*
X93580000Y-122800000D02*
G01*
X93180000Y-122800000D01*
X93180000Y-123200000D01*
X93580000Y-123200000D01*
X93580000Y-122800000D01*
G37*
G36*
X93580000Y-123200000D02*
G01*
X93180000Y-123200000D01*
X93180000Y-123600000D01*
X93580000Y-123600000D01*
X93580000Y-123200000D01*
G37*
G36*
X93580000Y-124000000D02*
G01*
X93180000Y-124000000D01*
X93180000Y-124400000D01*
X93580000Y-124400000D01*
X93580000Y-124000000D01*
G37*
G36*
X93180000Y-114400000D02*
G01*
X92780000Y-114400000D01*
X92780000Y-114800000D01*
X93180000Y-114800000D01*
X93180000Y-114400000D01*
G37*
G36*
X93180000Y-115200000D02*
G01*
X92780000Y-115200000D01*
X92780000Y-115600000D01*
X93180000Y-115600000D01*
X93180000Y-115200000D01*
G37*
G36*
X93180000Y-115600000D02*
G01*
X92780000Y-115600000D01*
X92780000Y-116000000D01*
X93180000Y-116000000D01*
X93180000Y-115600000D01*
G37*
G36*
X93180000Y-116000000D02*
G01*
X92780000Y-116000000D01*
X92780000Y-116400000D01*
X93180000Y-116400000D01*
X93180000Y-116000000D01*
G37*
G36*
X93180000Y-116800000D02*
G01*
X92780000Y-116800000D01*
X92780000Y-117200000D01*
X93180000Y-117200000D01*
X93180000Y-116800000D01*
G37*
G36*
X93180000Y-118400000D02*
G01*
X92780000Y-118400000D01*
X92780000Y-118800000D01*
X93180000Y-118800000D01*
X93180000Y-118400000D01*
G37*
G36*
X93180000Y-119200000D02*
G01*
X92780000Y-119200000D01*
X92780000Y-119600000D01*
X93180000Y-119600000D01*
X93180000Y-119200000D01*
G37*
G36*
X93180000Y-119600000D02*
G01*
X92780000Y-119600000D01*
X92780000Y-120000000D01*
X93180000Y-120000000D01*
X93180000Y-119600000D01*
G37*
G36*
X93180000Y-120000000D02*
G01*
X92780000Y-120000000D01*
X92780000Y-120400000D01*
X93180000Y-120400000D01*
X93180000Y-120000000D01*
G37*
G36*
X93180000Y-120400000D02*
G01*
X92780000Y-120400000D01*
X92780000Y-120800000D01*
X93180000Y-120800000D01*
X93180000Y-120400000D01*
G37*
G36*
X93180000Y-120800000D02*
G01*
X92780000Y-120800000D01*
X92780000Y-121200000D01*
X93180000Y-121200000D01*
X93180000Y-120800000D01*
G37*
G36*
X93180000Y-121600000D02*
G01*
X92780000Y-121600000D01*
X92780000Y-122000000D01*
X93180000Y-122000000D01*
X93180000Y-121600000D01*
G37*
G36*
X93180000Y-122400000D02*
G01*
X92780000Y-122400000D01*
X92780000Y-122800000D01*
X93180000Y-122800000D01*
X93180000Y-122400000D01*
G37*
G36*
X93180000Y-122800000D02*
G01*
X92780000Y-122800000D01*
X92780000Y-123200000D01*
X93180000Y-123200000D01*
X93180000Y-122800000D01*
G37*
G36*
X93180000Y-123200000D02*
G01*
X92780000Y-123200000D01*
X92780000Y-123600000D01*
X93180000Y-123600000D01*
X93180000Y-123200000D01*
G37*
G36*
X93180000Y-124000000D02*
G01*
X92780000Y-124000000D01*
X92780000Y-124400000D01*
X93180000Y-124400000D01*
X93180000Y-124000000D01*
G37*
G36*
X92780000Y-114400000D02*
G01*
X92380000Y-114400000D01*
X92380000Y-114800000D01*
X92780000Y-114800000D01*
X92780000Y-114400000D01*
G37*
G36*
X92780000Y-116800000D02*
G01*
X92380000Y-116800000D01*
X92380000Y-117200000D01*
X92780000Y-117200000D01*
X92780000Y-116800000D01*
G37*
G36*
X92780000Y-118800000D02*
G01*
X92380000Y-118800000D01*
X92380000Y-119200000D01*
X92780000Y-119200000D01*
X92780000Y-118800000D01*
G37*
G36*
X92780000Y-119200000D02*
G01*
X92380000Y-119200000D01*
X92380000Y-119600000D01*
X92780000Y-119600000D01*
X92780000Y-119200000D01*
G37*
G36*
X92780000Y-119600000D02*
G01*
X92380000Y-119600000D01*
X92380000Y-120000000D01*
X92780000Y-120000000D01*
X92780000Y-119600000D01*
G37*
G36*
X92780000Y-120000000D02*
G01*
X92380000Y-120000000D01*
X92380000Y-120400000D01*
X92780000Y-120400000D01*
X92780000Y-120000000D01*
G37*
G36*
X92780000Y-121600000D02*
G01*
X92380000Y-121600000D01*
X92380000Y-122000000D01*
X92780000Y-122000000D01*
X92780000Y-121600000D01*
G37*
G36*
X92780000Y-124000000D02*
G01*
X92380000Y-124000000D01*
X92380000Y-124400000D01*
X92780000Y-124400000D01*
X92780000Y-124000000D01*
G37*
G36*
X92380000Y-114400000D02*
G01*
X91980000Y-114400000D01*
X91980000Y-114800000D01*
X92380000Y-114800000D01*
X92380000Y-114400000D01*
G37*
G36*
X92380000Y-114800000D02*
G01*
X91980000Y-114800000D01*
X91980000Y-115200000D01*
X92380000Y-115200000D01*
X92380000Y-114800000D01*
G37*
G36*
X92380000Y-115200000D02*
G01*
X91980000Y-115200000D01*
X91980000Y-115600000D01*
X92380000Y-115600000D01*
X92380000Y-115200000D01*
G37*
G36*
X92380000Y-115600000D02*
G01*
X91980000Y-115600000D01*
X91980000Y-116000000D01*
X92380000Y-116000000D01*
X92380000Y-115600000D01*
G37*
G36*
X92380000Y-116000000D02*
G01*
X91980000Y-116000000D01*
X91980000Y-116400000D01*
X92380000Y-116400000D01*
X92380000Y-116000000D01*
G37*
G36*
X92380000Y-116400000D02*
G01*
X91980000Y-116400000D01*
X91980000Y-116800000D01*
X92380000Y-116800000D01*
X92380000Y-116400000D01*
G37*
G36*
X92380000Y-116800000D02*
G01*
X91980000Y-116800000D01*
X91980000Y-117200000D01*
X92380000Y-117200000D01*
X92380000Y-116800000D01*
G37*
G36*
X92380000Y-117600000D02*
G01*
X91980000Y-117600000D01*
X91980000Y-118000000D01*
X92380000Y-118000000D01*
X92380000Y-117600000D01*
G37*
G36*
X92380000Y-118400000D02*
G01*
X91980000Y-118400000D01*
X91980000Y-118800000D01*
X92380000Y-118800000D01*
X92380000Y-118400000D01*
G37*
G36*
X92380000Y-119200000D02*
G01*
X91980000Y-119200000D01*
X91980000Y-119600000D01*
X92380000Y-119600000D01*
X92380000Y-119200000D01*
G37*
G36*
X92380000Y-120000000D02*
G01*
X91980000Y-120000000D01*
X91980000Y-120400000D01*
X92380000Y-120400000D01*
X92380000Y-120000000D01*
G37*
G36*
X92380000Y-120800000D02*
G01*
X91980000Y-120800000D01*
X91980000Y-121200000D01*
X92380000Y-121200000D01*
X92380000Y-120800000D01*
G37*
G36*
X92380000Y-121600000D02*
G01*
X91980000Y-121600000D01*
X91980000Y-122000000D01*
X92380000Y-122000000D01*
X92380000Y-121600000D01*
G37*
G36*
X92380000Y-122000000D02*
G01*
X91980000Y-122000000D01*
X91980000Y-122400000D01*
X92380000Y-122400000D01*
X92380000Y-122000000D01*
G37*
G36*
X92380000Y-122400000D02*
G01*
X91980000Y-122400000D01*
X91980000Y-122800000D01*
X92380000Y-122800000D01*
X92380000Y-122400000D01*
G37*
G36*
X92380000Y-122800000D02*
G01*
X91980000Y-122800000D01*
X91980000Y-123200000D01*
X92380000Y-123200000D01*
X92380000Y-122800000D01*
G37*
G36*
X92380000Y-123200000D02*
G01*
X91980000Y-123200000D01*
X91980000Y-123600000D01*
X92380000Y-123600000D01*
X92380000Y-123200000D01*
G37*
G36*
X92380000Y-123600000D02*
G01*
X91980000Y-123600000D01*
X91980000Y-124000000D01*
X92380000Y-124000000D01*
X92380000Y-123600000D01*
G37*
G36*
X92380000Y-124000000D02*
G01*
X91980000Y-124000000D01*
X91980000Y-124400000D01*
X92380000Y-124400000D01*
X92380000Y-124000000D01*
G37*
G36*
X91980000Y-118400000D02*
G01*
X91580000Y-118400000D01*
X91580000Y-118800000D01*
X91980000Y-118800000D01*
X91980000Y-118400000D01*
G37*
G36*
X91980000Y-119600000D02*
G01*
X91580000Y-119600000D01*
X91580000Y-120000000D01*
X91980000Y-120000000D01*
X91980000Y-119600000D01*
G37*
G36*
X91980000Y-120400000D02*
G01*
X91580000Y-120400000D01*
X91580000Y-120800000D01*
X91980000Y-120800000D01*
X91980000Y-120400000D01*
G37*
G36*
X91580000Y-114400000D02*
G01*
X91180000Y-114400000D01*
X91180000Y-114800000D01*
X91580000Y-114800000D01*
X91580000Y-114400000D01*
G37*
G36*
X91580000Y-115200000D02*
G01*
X91180000Y-115200000D01*
X91180000Y-115600000D01*
X91580000Y-115600000D01*
X91580000Y-115200000D01*
G37*
G36*
X91580000Y-115600000D02*
G01*
X91180000Y-115600000D01*
X91180000Y-116000000D01*
X91580000Y-116000000D01*
X91580000Y-115600000D01*
G37*
G36*
X91580000Y-116000000D02*
G01*
X91180000Y-116000000D01*
X91180000Y-116400000D01*
X91580000Y-116400000D01*
X91580000Y-116000000D01*
G37*
G36*
X91580000Y-116800000D02*
G01*
X91180000Y-116800000D01*
X91180000Y-117200000D01*
X91580000Y-117200000D01*
X91580000Y-116800000D01*
G37*
G36*
X91580000Y-117600000D02*
G01*
X91180000Y-117600000D01*
X91180000Y-118000000D01*
X91580000Y-118000000D01*
X91580000Y-117600000D01*
G37*
G36*
X91580000Y-118000000D02*
G01*
X91180000Y-118000000D01*
X91180000Y-118400000D01*
X91580000Y-118400000D01*
X91580000Y-118000000D01*
G37*
G36*
X91580000Y-118400000D02*
G01*
X91180000Y-118400000D01*
X91180000Y-118800000D01*
X91580000Y-118800000D01*
X91580000Y-118400000D01*
G37*
G36*
X91580000Y-118800000D02*
G01*
X91180000Y-118800000D01*
X91180000Y-119200000D01*
X91580000Y-119200000D01*
X91580000Y-118800000D01*
G37*
G36*
X91580000Y-119600000D02*
G01*
X91180000Y-119600000D01*
X91180000Y-120000000D01*
X91580000Y-120000000D01*
X91580000Y-119600000D01*
G37*
G36*
X91580000Y-121200000D02*
G01*
X91180000Y-121200000D01*
X91180000Y-121600000D01*
X91580000Y-121600000D01*
X91580000Y-121200000D01*
G37*
G36*
X91580000Y-122800000D02*
G01*
X91180000Y-122800000D01*
X91180000Y-123200000D01*
X91580000Y-123200000D01*
X91580000Y-122800000D01*
G37*
G36*
X91580000Y-123200000D02*
G01*
X91180000Y-123200000D01*
X91180000Y-123600000D01*
X91580000Y-123600000D01*
X91580000Y-123200000D01*
G37*
G36*
X91580000Y-123600000D02*
G01*
X91180000Y-123600000D01*
X91180000Y-124000000D01*
X91580000Y-124000000D01*
X91580000Y-123600000D01*
G37*
G36*
X91580000Y-124000000D02*
G01*
X91180000Y-124000000D01*
X91180000Y-124400000D01*
X91580000Y-124400000D01*
X91580000Y-124000000D01*
G37*
G36*
X91180000Y-114400000D02*
G01*
X90780000Y-114400000D01*
X90780000Y-114800000D01*
X91180000Y-114800000D01*
X91180000Y-114400000D01*
G37*
G36*
X91180000Y-115600000D02*
G01*
X90780000Y-115600000D01*
X90780000Y-116000000D01*
X91180000Y-116000000D01*
X91180000Y-115600000D01*
G37*
G36*
X91180000Y-116000000D02*
G01*
X90780000Y-116000000D01*
X90780000Y-116400000D01*
X91180000Y-116400000D01*
X91180000Y-116000000D01*
G37*
G36*
X91180000Y-116400000D02*
G01*
X90780000Y-116400000D01*
X90780000Y-116800000D01*
X91180000Y-116800000D01*
X91180000Y-116400000D01*
G37*
G36*
X91180000Y-117200000D02*
G01*
X90780000Y-117200000D01*
X90780000Y-117600000D01*
X91180000Y-117600000D01*
X91180000Y-117200000D01*
G37*
G36*
X91180000Y-118000000D02*
G01*
X90780000Y-118000000D01*
X90780000Y-118400000D01*
X91180000Y-118400000D01*
X91180000Y-118000000D01*
G37*
G36*
X91180000Y-119200000D02*
G01*
X90780000Y-119200000D01*
X90780000Y-119600000D01*
X91180000Y-119600000D01*
X91180000Y-119200000D01*
G37*
G36*
X91180000Y-120000000D02*
G01*
X90780000Y-120000000D01*
X90780000Y-120400000D01*
X91180000Y-120400000D01*
X91180000Y-120000000D01*
G37*
G36*
X91180000Y-121200000D02*
G01*
X90780000Y-121200000D01*
X90780000Y-121600000D01*
X91180000Y-121600000D01*
X91180000Y-121200000D01*
G37*
G36*
X91180000Y-122000000D02*
G01*
X90780000Y-122000000D01*
X90780000Y-122400000D01*
X91180000Y-122400000D01*
X91180000Y-122000000D01*
G37*
G36*
X91180000Y-122400000D02*
G01*
X90780000Y-122400000D01*
X90780000Y-122800000D01*
X91180000Y-122800000D01*
X91180000Y-122400000D01*
G37*
G36*
X91180000Y-123200000D02*
G01*
X90780000Y-123200000D01*
X90780000Y-123600000D01*
X91180000Y-123600000D01*
X91180000Y-123200000D01*
G37*
G36*
X91180000Y-123600000D02*
G01*
X90780000Y-123600000D01*
X90780000Y-124000000D01*
X91180000Y-124000000D01*
X91180000Y-123600000D01*
G37*
G36*
X91180000Y-124000000D02*
G01*
X90780000Y-124000000D01*
X90780000Y-124400000D01*
X91180000Y-124400000D01*
X91180000Y-124000000D01*
G37*
G36*
X90780000Y-114400000D02*
G01*
X90380000Y-114400000D01*
X90380000Y-114800000D01*
X90780000Y-114800000D01*
X90780000Y-114400000D01*
G37*
G36*
X90780000Y-114800000D02*
G01*
X90380000Y-114800000D01*
X90380000Y-115200000D01*
X90780000Y-115200000D01*
X90780000Y-114800000D01*
G37*
G36*
X90780000Y-116800000D02*
G01*
X90380000Y-116800000D01*
X90380000Y-117200000D01*
X90780000Y-117200000D01*
X90780000Y-116800000D01*
G37*
G36*
X90780000Y-119600000D02*
G01*
X90380000Y-119600000D01*
X90380000Y-120000000D01*
X90780000Y-120000000D01*
X90780000Y-119600000D01*
G37*
G36*
X90780000Y-120000000D02*
G01*
X90380000Y-120000000D01*
X90380000Y-120400000D01*
X90780000Y-120400000D01*
X90780000Y-120000000D01*
G37*
G36*
X90780000Y-121200000D02*
G01*
X90380000Y-121200000D01*
X90380000Y-121600000D01*
X90780000Y-121600000D01*
X90780000Y-121200000D01*
G37*
G36*
X90780000Y-122800000D02*
G01*
X90380000Y-122800000D01*
X90380000Y-123200000D01*
X90780000Y-123200000D01*
X90780000Y-122800000D01*
G37*
G36*
X90780000Y-123600000D02*
G01*
X90380000Y-123600000D01*
X90380000Y-124000000D01*
X90780000Y-124000000D01*
X90780000Y-123600000D01*
G37*
G36*
X90380000Y-114400000D02*
G01*
X89980000Y-114400000D01*
X89980000Y-114800000D01*
X90380000Y-114800000D01*
X90380000Y-114400000D01*
G37*
G36*
X90380000Y-114800000D02*
G01*
X89980000Y-114800000D01*
X89980000Y-115200000D01*
X90380000Y-115200000D01*
X90380000Y-114800000D01*
G37*
G36*
X90380000Y-116000000D02*
G01*
X89980000Y-116000000D01*
X89980000Y-116400000D01*
X90380000Y-116400000D01*
X90380000Y-116000000D01*
G37*
G36*
X90380000Y-117200000D02*
G01*
X89980000Y-117200000D01*
X89980000Y-117600000D01*
X90380000Y-117600000D01*
X90380000Y-117200000D01*
G37*
G36*
X90380000Y-118400000D02*
G01*
X89980000Y-118400000D01*
X89980000Y-118800000D01*
X90380000Y-118800000D01*
X90380000Y-118400000D01*
G37*
G36*
X90380000Y-118800000D02*
G01*
X89980000Y-118800000D01*
X89980000Y-119200000D01*
X90380000Y-119200000D01*
X90380000Y-118800000D01*
G37*
G36*
X90380000Y-119600000D02*
G01*
X89980000Y-119600000D01*
X89980000Y-120000000D01*
X90380000Y-120000000D01*
X90380000Y-119600000D01*
G37*
G36*
X90380000Y-120800000D02*
G01*
X89980000Y-120800000D01*
X89980000Y-121200000D01*
X90380000Y-121200000D01*
X90380000Y-120800000D01*
G37*
G36*
X90380000Y-122400000D02*
G01*
X89980000Y-122400000D01*
X89980000Y-122800000D01*
X90380000Y-122800000D01*
X90380000Y-122400000D01*
G37*
G36*
X90380000Y-122800000D02*
G01*
X89980000Y-122800000D01*
X89980000Y-123200000D01*
X90380000Y-123200000D01*
X90380000Y-122800000D01*
G37*
G36*
X90380000Y-123200000D02*
G01*
X89980000Y-123200000D01*
X89980000Y-123600000D01*
X90380000Y-123600000D01*
X90380000Y-123200000D01*
G37*
G36*
X89980000Y-114400000D02*
G01*
X89580000Y-114400000D01*
X89580000Y-114800000D01*
X89980000Y-114800000D01*
X89980000Y-114400000D01*
G37*
G36*
X89980000Y-116000000D02*
G01*
X89580000Y-116000000D01*
X89580000Y-116400000D01*
X89980000Y-116400000D01*
X89980000Y-116000000D01*
G37*
G36*
X89980000Y-116400000D02*
G01*
X89580000Y-116400000D01*
X89580000Y-116800000D01*
X89980000Y-116800000D01*
X89980000Y-116400000D01*
G37*
G36*
X89980000Y-116800000D02*
G01*
X89580000Y-116800000D01*
X89580000Y-117200000D01*
X89980000Y-117200000D01*
X89980000Y-116800000D01*
G37*
G36*
X89980000Y-118400000D02*
G01*
X89580000Y-118400000D01*
X89580000Y-118800000D01*
X89980000Y-118800000D01*
X89980000Y-118400000D01*
G37*
G36*
X89980000Y-119200000D02*
G01*
X89580000Y-119200000D01*
X89580000Y-119600000D01*
X89980000Y-119600000D01*
X89980000Y-119200000D01*
G37*
G36*
X89980000Y-119600000D02*
G01*
X89580000Y-119600000D01*
X89580000Y-120000000D01*
X89980000Y-120000000D01*
X89980000Y-119600000D01*
G37*
G36*
X89980000Y-120000000D02*
G01*
X89580000Y-120000000D01*
X89580000Y-120400000D01*
X89980000Y-120400000D01*
X89980000Y-120000000D01*
G37*
G36*
X89980000Y-121200000D02*
G01*
X89580000Y-121200000D01*
X89580000Y-121600000D01*
X89980000Y-121600000D01*
X89980000Y-121200000D01*
G37*
G36*
X89980000Y-122000000D02*
G01*
X89580000Y-122000000D01*
X89580000Y-122400000D01*
X89980000Y-122400000D01*
X89980000Y-122000000D01*
G37*
G36*
X89980000Y-122800000D02*
G01*
X89580000Y-122800000D01*
X89580000Y-123200000D01*
X89980000Y-123200000D01*
X89980000Y-122800000D01*
G37*
G36*
X89980000Y-123200000D02*
G01*
X89580000Y-123200000D01*
X89580000Y-123600000D01*
X89980000Y-123600000D01*
X89980000Y-123200000D01*
G37*
G36*
X89980000Y-123600000D02*
G01*
X89580000Y-123600000D01*
X89580000Y-124000000D01*
X89980000Y-124000000D01*
X89980000Y-123600000D01*
G37*
G36*
X89580000Y-114400000D02*
G01*
X89180000Y-114400000D01*
X89180000Y-114800000D01*
X89580000Y-114800000D01*
X89580000Y-114400000D01*
G37*
G36*
X89580000Y-115200000D02*
G01*
X89180000Y-115200000D01*
X89180000Y-115600000D01*
X89580000Y-115600000D01*
X89580000Y-115200000D01*
G37*
G36*
X89580000Y-115600000D02*
G01*
X89180000Y-115600000D01*
X89180000Y-116000000D01*
X89580000Y-116000000D01*
X89580000Y-115600000D01*
G37*
G36*
X89580000Y-116000000D02*
G01*
X89180000Y-116000000D01*
X89180000Y-116400000D01*
X89580000Y-116400000D01*
X89580000Y-116000000D01*
G37*
G36*
X89580000Y-117600000D02*
G01*
X89180000Y-117600000D01*
X89180000Y-118000000D01*
X89580000Y-118000000D01*
X89580000Y-117600000D01*
G37*
G36*
X89580000Y-118800000D02*
G01*
X89180000Y-118800000D01*
X89180000Y-119200000D01*
X89580000Y-119200000D01*
X89580000Y-118800000D01*
G37*
G36*
X89580000Y-121200000D02*
G01*
X89180000Y-121200000D01*
X89180000Y-121600000D01*
X89580000Y-121600000D01*
X89580000Y-121200000D01*
G37*
G36*
X89580000Y-122400000D02*
G01*
X89180000Y-122400000D01*
X89180000Y-122800000D01*
X89580000Y-122800000D01*
X89580000Y-122400000D01*
G37*
G36*
X89580000Y-123600000D02*
G01*
X89180000Y-123600000D01*
X89180000Y-124000000D01*
X89580000Y-124000000D01*
X89580000Y-123600000D01*
G37*
G36*
X89580000Y-124000000D02*
G01*
X89180000Y-124000000D01*
X89180000Y-124400000D01*
X89580000Y-124400000D01*
X89580000Y-124000000D01*
G37*
G36*
X89180000Y-115200000D02*
G01*
X88780000Y-115200000D01*
X88780000Y-115600000D01*
X89180000Y-115600000D01*
X89180000Y-115200000D01*
G37*
G36*
X89180000Y-116000000D02*
G01*
X88780000Y-116000000D01*
X88780000Y-116400000D01*
X89180000Y-116400000D01*
X89180000Y-116000000D01*
G37*
G36*
X89180000Y-116400000D02*
G01*
X88780000Y-116400000D01*
X88780000Y-116800000D01*
X89180000Y-116800000D01*
X89180000Y-116400000D01*
G37*
G36*
X89180000Y-116800000D02*
G01*
X88780000Y-116800000D01*
X88780000Y-117200000D01*
X89180000Y-117200000D01*
X89180000Y-116800000D01*
G37*
G36*
X89180000Y-117600000D02*
G01*
X88780000Y-117600000D01*
X88780000Y-118000000D01*
X89180000Y-118000000D01*
X89180000Y-117600000D01*
G37*
G36*
X89180000Y-118800000D02*
G01*
X88780000Y-118800000D01*
X88780000Y-119200000D01*
X89180000Y-119200000D01*
X89180000Y-118800000D01*
G37*
G36*
X89180000Y-119200000D02*
G01*
X88780000Y-119200000D01*
X88780000Y-119600000D01*
X89180000Y-119600000D01*
X89180000Y-119200000D01*
G37*
G36*
X89180000Y-119600000D02*
G01*
X88780000Y-119600000D01*
X88780000Y-120000000D01*
X89180000Y-120000000D01*
X89180000Y-119600000D01*
G37*
G36*
X89180000Y-120400000D02*
G01*
X88780000Y-120400000D01*
X88780000Y-120800000D01*
X89180000Y-120800000D01*
X89180000Y-120400000D01*
G37*
G36*
X89180000Y-122400000D02*
G01*
X88780000Y-122400000D01*
X88780000Y-122800000D01*
X89180000Y-122800000D01*
X89180000Y-122400000D01*
G37*
G36*
X89180000Y-122800000D02*
G01*
X88780000Y-122800000D01*
X88780000Y-123200000D01*
X89180000Y-123200000D01*
X89180000Y-122800000D01*
G37*
G36*
X89180000Y-123200000D02*
G01*
X88780000Y-123200000D01*
X88780000Y-123600000D01*
X89180000Y-123600000D01*
X89180000Y-123200000D01*
G37*
G36*
X88780000Y-115200000D02*
G01*
X88380000Y-115200000D01*
X88380000Y-115600000D01*
X88780000Y-115600000D01*
X88780000Y-115200000D01*
G37*
G36*
X88780000Y-116000000D02*
G01*
X88380000Y-116000000D01*
X88380000Y-116400000D01*
X88780000Y-116400000D01*
X88780000Y-116000000D01*
G37*
G36*
X88780000Y-117200000D02*
G01*
X88380000Y-117200000D01*
X88380000Y-117600000D01*
X88780000Y-117600000D01*
X88780000Y-117200000D01*
G37*
G36*
X88780000Y-118800000D02*
G01*
X88380000Y-118800000D01*
X88380000Y-119200000D01*
X88780000Y-119200000D01*
X88780000Y-118800000D01*
G37*
G36*
X88780000Y-119600000D02*
G01*
X88380000Y-119600000D01*
X88380000Y-120000000D01*
X88780000Y-120000000D01*
X88780000Y-119600000D01*
G37*
G36*
X88780000Y-122000000D02*
G01*
X88380000Y-122000000D01*
X88380000Y-122400000D01*
X88780000Y-122400000D01*
X88780000Y-122000000D01*
G37*
G36*
X88780000Y-123200000D02*
G01*
X88380000Y-123200000D01*
X88380000Y-123600000D01*
X88780000Y-123600000D01*
X88780000Y-123200000D01*
G37*
G36*
X88780000Y-123600000D02*
G01*
X88380000Y-123600000D01*
X88380000Y-124000000D01*
X88780000Y-124000000D01*
X88780000Y-123600000D01*
G37*
G36*
X88380000Y-114400000D02*
G01*
X87980000Y-114400000D01*
X87980000Y-114800000D01*
X88380000Y-114800000D01*
X88380000Y-114400000D01*
G37*
G36*
X88380000Y-114800000D02*
G01*
X87980000Y-114800000D01*
X87980000Y-115200000D01*
X88380000Y-115200000D01*
X88380000Y-114800000D01*
G37*
G36*
X88380000Y-116000000D02*
G01*
X87980000Y-116000000D01*
X87980000Y-116400000D01*
X88380000Y-116400000D01*
X88380000Y-116000000D01*
G37*
G36*
X88380000Y-116800000D02*
G01*
X87980000Y-116800000D01*
X87980000Y-117200000D01*
X88380000Y-117200000D01*
X88380000Y-116800000D01*
G37*
G36*
X88380000Y-117600000D02*
G01*
X87980000Y-117600000D01*
X87980000Y-118000000D01*
X88380000Y-118000000D01*
X88380000Y-117600000D01*
G37*
G36*
X88380000Y-118000000D02*
G01*
X87980000Y-118000000D01*
X87980000Y-118400000D01*
X88380000Y-118400000D01*
X88380000Y-118000000D01*
G37*
G36*
X88380000Y-120000000D02*
G01*
X87980000Y-120000000D01*
X87980000Y-120400000D01*
X88380000Y-120400000D01*
X88380000Y-120000000D01*
G37*
G36*
X88380000Y-120800000D02*
G01*
X87980000Y-120800000D01*
X87980000Y-121200000D01*
X88380000Y-121200000D01*
X88380000Y-120800000D01*
G37*
G36*
X88380000Y-121200000D02*
G01*
X87980000Y-121200000D01*
X87980000Y-121600000D01*
X88380000Y-121600000D01*
X88380000Y-121200000D01*
G37*
G36*
X88380000Y-121600000D02*
G01*
X87980000Y-121600000D01*
X87980000Y-122000000D01*
X88380000Y-122000000D01*
X88380000Y-121600000D01*
G37*
G36*
X88380000Y-122000000D02*
G01*
X87980000Y-122000000D01*
X87980000Y-122400000D01*
X88380000Y-122400000D01*
X88380000Y-122000000D01*
G37*
G36*
X88380000Y-122400000D02*
G01*
X87980000Y-122400000D01*
X87980000Y-122800000D01*
X88380000Y-122800000D01*
X88380000Y-122400000D01*
G37*
G36*
X87980000Y-117600000D02*
G01*
X87580000Y-117600000D01*
X87580000Y-118000000D01*
X87980000Y-118000000D01*
X87980000Y-117600000D01*
G37*
G36*
X87980000Y-118400000D02*
G01*
X87580000Y-118400000D01*
X87580000Y-118800000D01*
X87980000Y-118800000D01*
X87980000Y-118400000D01*
G37*
G36*
X87980000Y-118800000D02*
G01*
X87580000Y-118800000D01*
X87580000Y-119200000D01*
X87980000Y-119200000D01*
X87980000Y-118800000D01*
G37*
G36*
X87980000Y-119200000D02*
G01*
X87580000Y-119200000D01*
X87580000Y-119600000D01*
X87980000Y-119600000D01*
X87980000Y-119200000D01*
G37*
G36*
X87980000Y-120000000D02*
G01*
X87580000Y-120000000D01*
X87580000Y-120400000D01*
X87980000Y-120400000D01*
X87980000Y-120000000D01*
G37*
G36*
X87980000Y-120800000D02*
G01*
X87580000Y-120800000D01*
X87580000Y-121200000D01*
X87980000Y-121200000D01*
X87980000Y-120800000D01*
G37*
G36*
X87980000Y-122400000D02*
G01*
X87580000Y-122400000D01*
X87580000Y-122800000D01*
X87980000Y-122800000D01*
X87980000Y-122400000D01*
G37*
G36*
X87980000Y-122800000D02*
G01*
X87580000Y-122800000D01*
X87580000Y-123200000D01*
X87980000Y-123200000D01*
X87980000Y-122800000D01*
G37*
G36*
X87980000Y-123200000D02*
G01*
X87580000Y-123200000D01*
X87580000Y-123600000D01*
X87980000Y-123600000D01*
X87980000Y-123200000D01*
G37*
G36*
X87580000Y-114400000D02*
G01*
X87180000Y-114400000D01*
X87180000Y-114800000D01*
X87580000Y-114800000D01*
X87580000Y-114400000D01*
G37*
G36*
X87580000Y-114800000D02*
G01*
X87180000Y-114800000D01*
X87180000Y-115200000D01*
X87580000Y-115200000D01*
X87580000Y-114800000D01*
G37*
G36*
X87580000Y-115200000D02*
G01*
X87180000Y-115200000D01*
X87180000Y-115600000D01*
X87580000Y-115600000D01*
X87580000Y-115200000D01*
G37*
G36*
X87580000Y-115600000D02*
G01*
X87180000Y-115600000D01*
X87180000Y-116000000D01*
X87580000Y-116000000D01*
X87580000Y-115600000D01*
G37*
G36*
X87580000Y-116000000D02*
G01*
X87180000Y-116000000D01*
X87180000Y-116400000D01*
X87580000Y-116400000D01*
X87580000Y-116000000D01*
G37*
G36*
X87580000Y-116400000D02*
G01*
X87180000Y-116400000D01*
X87180000Y-116800000D01*
X87580000Y-116800000D01*
X87580000Y-116400000D01*
G37*
G36*
X87580000Y-116800000D02*
G01*
X87180000Y-116800000D01*
X87180000Y-117200000D01*
X87580000Y-117200000D01*
X87580000Y-116800000D01*
G37*
G36*
X87580000Y-118400000D02*
G01*
X87180000Y-118400000D01*
X87180000Y-118800000D01*
X87580000Y-118800000D01*
X87580000Y-118400000D01*
G37*
G36*
X87580000Y-119200000D02*
G01*
X87180000Y-119200000D01*
X87180000Y-119600000D01*
X87580000Y-119600000D01*
X87580000Y-119200000D01*
G37*
G36*
X87580000Y-119600000D02*
G01*
X87180000Y-119600000D01*
X87180000Y-120000000D01*
X87580000Y-120000000D01*
X87580000Y-119600000D01*
G37*
G36*
X87580000Y-120400000D02*
G01*
X87180000Y-120400000D01*
X87180000Y-120800000D01*
X87580000Y-120800000D01*
X87580000Y-120400000D01*
G37*
G36*
X87580000Y-120800000D02*
G01*
X87180000Y-120800000D01*
X87180000Y-121200000D01*
X87580000Y-121200000D01*
X87580000Y-120800000D01*
G37*
G36*
X87580000Y-121600000D02*
G01*
X87180000Y-121600000D01*
X87180000Y-122000000D01*
X87580000Y-122000000D01*
X87580000Y-121600000D01*
G37*
G36*
X87580000Y-122400000D02*
G01*
X87180000Y-122400000D01*
X87180000Y-122800000D01*
X87580000Y-122800000D01*
X87580000Y-122400000D01*
G37*
G36*
X87580000Y-122800000D02*
G01*
X87180000Y-122800000D01*
X87180000Y-123200000D01*
X87580000Y-123200000D01*
X87580000Y-122800000D01*
G37*
G36*
X87580000Y-123200000D02*
G01*
X87180000Y-123200000D01*
X87180000Y-123600000D01*
X87580000Y-123600000D01*
X87580000Y-123200000D01*
G37*
G36*
X87580000Y-123600000D02*
G01*
X87180000Y-123600000D01*
X87180000Y-124000000D01*
X87580000Y-124000000D01*
X87580000Y-123600000D01*
G37*
G36*
X87580000Y-124000000D02*
G01*
X87180000Y-124000000D01*
X87180000Y-124400000D01*
X87580000Y-124400000D01*
X87580000Y-124000000D01*
G37*
G36*
X87180000Y-114400000D02*
G01*
X86780000Y-114400000D01*
X86780000Y-114800000D01*
X87180000Y-114800000D01*
X87180000Y-114400000D01*
G37*
G36*
X87180000Y-116800000D02*
G01*
X86780000Y-116800000D01*
X86780000Y-117200000D01*
X87180000Y-117200000D01*
X87180000Y-116800000D01*
G37*
G36*
X87180000Y-118000000D02*
G01*
X86780000Y-118000000D01*
X86780000Y-118400000D01*
X87180000Y-118400000D01*
X87180000Y-118000000D01*
G37*
G36*
X87180000Y-118400000D02*
G01*
X86780000Y-118400000D01*
X86780000Y-118800000D01*
X87180000Y-118800000D01*
X87180000Y-118400000D01*
G37*
G36*
X87180000Y-119600000D02*
G01*
X86780000Y-119600000D01*
X86780000Y-120000000D01*
X87180000Y-120000000D01*
X87180000Y-119600000D01*
G37*
G36*
X87180000Y-120400000D02*
G01*
X86780000Y-120400000D01*
X86780000Y-120800000D01*
X87180000Y-120800000D01*
X87180000Y-120400000D01*
G37*
G36*
X87180000Y-120800000D02*
G01*
X86780000Y-120800000D01*
X86780000Y-121200000D01*
X87180000Y-121200000D01*
X87180000Y-120800000D01*
G37*
G36*
X87180000Y-122400000D02*
G01*
X86780000Y-122400000D01*
X86780000Y-122800000D01*
X87180000Y-122800000D01*
X87180000Y-122400000D01*
G37*
G36*
X87180000Y-124000000D02*
G01*
X86780000Y-124000000D01*
X86780000Y-124400000D01*
X87180000Y-124400000D01*
X87180000Y-124000000D01*
G37*
G36*
X86780000Y-114400000D02*
G01*
X86380000Y-114400000D01*
X86380000Y-114800000D01*
X86780000Y-114800000D01*
X86780000Y-114400000D01*
G37*
G36*
X86780000Y-115200000D02*
G01*
X86380000Y-115200000D01*
X86380000Y-115600000D01*
X86780000Y-115600000D01*
X86780000Y-115200000D01*
G37*
G36*
X86780000Y-115600000D02*
G01*
X86380000Y-115600000D01*
X86380000Y-116000000D01*
X86780000Y-116000000D01*
X86780000Y-115600000D01*
G37*
G36*
X86780000Y-116000000D02*
G01*
X86380000Y-116000000D01*
X86380000Y-116400000D01*
X86780000Y-116400000D01*
X86780000Y-116000000D01*
G37*
G36*
X86780000Y-116800000D02*
G01*
X86380000Y-116800000D01*
X86380000Y-117200000D01*
X86780000Y-117200000D01*
X86780000Y-116800000D01*
G37*
G36*
X86780000Y-117600000D02*
G01*
X86380000Y-117600000D01*
X86380000Y-118000000D01*
X86780000Y-118000000D01*
X86780000Y-117600000D01*
G37*
G36*
X86780000Y-119200000D02*
G01*
X86380000Y-119200000D01*
X86380000Y-119600000D01*
X86780000Y-119600000D01*
X86780000Y-119200000D01*
G37*
G36*
X86780000Y-119600000D02*
G01*
X86380000Y-119600000D01*
X86380000Y-120000000D01*
X86780000Y-120000000D01*
X86780000Y-119600000D01*
G37*
G36*
X86780000Y-120000000D02*
G01*
X86380000Y-120000000D01*
X86380000Y-120400000D01*
X86780000Y-120400000D01*
X86780000Y-120000000D01*
G37*
G36*
X86780000Y-120400000D02*
G01*
X86380000Y-120400000D01*
X86380000Y-120800000D01*
X86780000Y-120800000D01*
X86780000Y-120400000D01*
G37*
G36*
X86780000Y-120800000D02*
G01*
X86380000Y-120800000D01*
X86380000Y-121200000D01*
X86780000Y-121200000D01*
X86780000Y-120800000D01*
G37*
G36*
X86780000Y-121200000D02*
G01*
X86380000Y-121200000D01*
X86380000Y-121600000D01*
X86780000Y-121600000D01*
X86780000Y-121200000D01*
G37*
G36*
X86780000Y-121600000D02*
G01*
X86380000Y-121600000D01*
X86380000Y-122000000D01*
X86780000Y-122000000D01*
X86780000Y-121600000D01*
G37*
G36*
X86780000Y-122000000D02*
G01*
X86380000Y-122000000D01*
X86380000Y-122400000D01*
X86780000Y-122400000D01*
X86780000Y-122000000D01*
G37*
G36*
X86780000Y-122400000D02*
G01*
X86380000Y-122400000D01*
X86380000Y-122800000D01*
X86780000Y-122800000D01*
X86780000Y-122400000D01*
G37*
G36*
X86780000Y-122800000D02*
G01*
X86380000Y-122800000D01*
X86380000Y-123200000D01*
X86780000Y-123200000D01*
X86780000Y-122800000D01*
G37*
G36*
X86780000Y-123200000D02*
G01*
X86380000Y-123200000D01*
X86380000Y-123600000D01*
X86780000Y-123600000D01*
X86780000Y-123200000D01*
G37*
G36*
X86780000Y-123600000D02*
G01*
X86380000Y-123600000D01*
X86380000Y-124000000D01*
X86780000Y-124000000D01*
X86780000Y-123600000D01*
G37*
G36*
X86780000Y-124000000D02*
G01*
X86380000Y-124000000D01*
X86380000Y-124400000D01*
X86780000Y-124400000D01*
X86780000Y-124000000D01*
G37*
G36*
X86380000Y-114400000D02*
G01*
X85980000Y-114400000D01*
X85980000Y-114800000D01*
X86380000Y-114800000D01*
X86380000Y-114400000D01*
G37*
G36*
X86380000Y-115200000D02*
G01*
X85980000Y-115200000D01*
X85980000Y-115600000D01*
X86380000Y-115600000D01*
X86380000Y-115200000D01*
G37*
G36*
X86380000Y-115600000D02*
G01*
X85980000Y-115600000D01*
X85980000Y-116000000D01*
X86380000Y-116000000D01*
X86380000Y-115600000D01*
G37*
G36*
X86380000Y-116000000D02*
G01*
X85980000Y-116000000D01*
X85980000Y-116400000D01*
X86380000Y-116400000D01*
X86380000Y-116000000D01*
G37*
G36*
X86380000Y-116800000D02*
G01*
X85980000Y-116800000D01*
X85980000Y-117200000D01*
X86380000Y-117200000D01*
X86380000Y-116800000D01*
G37*
G36*
X86380000Y-117600000D02*
G01*
X85980000Y-117600000D01*
X85980000Y-118000000D01*
X86380000Y-118000000D01*
X86380000Y-117600000D01*
G37*
G36*
X86380000Y-118800000D02*
G01*
X85980000Y-118800000D01*
X85980000Y-119200000D01*
X86380000Y-119200000D01*
X86380000Y-118800000D01*
G37*
G36*
X86380000Y-120800000D02*
G01*
X85980000Y-120800000D01*
X85980000Y-121200000D01*
X86380000Y-121200000D01*
X86380000Y-120800000D01*
G37*
G36*
X86380000Y-122400000D02*
G01*
X85980000Y-122400000D01*
X85980000Y-122800000D01*
X86380000Y-122800000D01*
X86380000Y-122400000D01*
G37*
G36*
X86380000Y-122800000D02*
G01*
X85980000Y-122800000D01*
X85980000Y-123200000D01*
X86380000Y-123200000D01*
X86380000Y-122800000D01*
G37*
G36*
X86380000Y-124000000D02*
G01*
X85980000Y-124000000D01*
X85980000Y-124400000D01*
X86380000Y-124400000D01*
X86380000Y-124000000D01*
G37*
G36*
X85980000Y-114400000D02*
G01*
X85580000Y-114400000D01*
X85580000Y-114800000D01*
X85980000Y-114800000D01*
X85980000Y-114400000D01*
G37*
G36*
X85980000Y-115200000D02*
G01*
X85580000Y-115200000D01*
X85580000Y-115600000D01*
X85980000Y-115600000D01*
X85980000Y-115200000D01*
G37*
G36*
X85980000Y-115600000D02*
G01*
X85580000Y-115600000D01*
X85580000Y-116000000D01*
X85980000Y-116000000D01*
X85980000Y-115600000D01*
G37*
G36*
X85980000Y-116000000D02*
G01*
X85580000Y-116000000D01*
X85580000Y-116400000D01*
X85980000Y-116400000D01*
X85980000Y-116000000D01*
G37*
G36*
X85980000Y-116800000D02*
G01*
X85580000Y-116800000D01*
X85580000Y-117200000D01*
X85980000Y-117200000D01*
X85980000Y-116800000D01*
G37*
G36*
X85980000Y-117600000D02*
G01*
X85580000Y-117600000D01*
X85580000Y-118000000D01*
X85980000Y-118000000D01*
X85980000Y-117600000D01*
G37*
G36*
X85980000Y-118800000D02*
G01*
X85580000Y-118800000D01*
X85580000Y-119200000D01*
X85980000Y-119200000D01*
X85980000Y-118800000D01*
G37*
G36*
X85980000Y-119200000D02*
G01*
X85580000Y-119200000D01*
X85580000Y-119600000D01*
X85980000Y-119600000D01*
X85980000Y-119200000D01*
G37*
G36*
X85980000Y-120000000D02*
G01*
X85580000Y-120000000D01*
X85580000Y-120400000D01*
X85980000Y-120400000D01*
X85980000Y-120000000D01*
G37*
G36*
X85980000Y-120800000D02*
G01*
X85580000Y-120800000D01*
X85580000Y-121200000D01*
X85980000Y-121200000D01*
X85980000Y-120800000D01*
G37*
G36*
X85980000Y-121200000D02*
G01*
X85580000Y-121200000D01*
X85580000Y-121600000D01*
X85980000Y-121600000D01*
X85980000Y-121200000D01*
G37*
G36*
X85980000Y-121600000D02*
G01*
X85580000Y-121600000D01*
X85580000Y-122000000D01*
X85980000Y-122000000D01*
X85980000Y-121600000D01*
G37*
G36*
X85980000Y-122800000D02*
G01*
X85580000Y-122800000D01*
X85580000Y-123200000D01*
X85980000Y-123200000D01*
X85980000Y-122800000D01*
G37*
G36*
X85980000Y-123200000D02*
G01*
X85580000Y-123200000D01*
X85580000Y-123600000D01*
X85980000Y-123600000D01*
X85980000Y-123200000D01*
G37*
G36*
X85980000Y-123600000D02*
G01*
X85580000Y-123600000D01*
X85580000Y-124000000D01*
X85980000Y-124000000D01*
X85980000Y-123600000D01*
G37*
G36*
X85980000Y-124000000D02*
G01*
X85580000Y-124000000D01*
X85580000Y-124400000D01*
X85980000Y-124400000D01*
X85980000Y-124000000D01*
G37*
G36*
X85580000Y-114400000D02*
G01*
X85180000Y-114400000D01*
X85180000Y-114800000D01*
X85580000Y-114800000D01*
X85580000Y-114400000D01*
G37*
G36*
X85580000Y-116800000D02*
G01*
X85180000Y-116800000D01*
X85180000Y-117200000D01*
X85580000Y-117200000D01*
X85580000Y-116800000D01*
G37*
G36*
X85580000Y-118000000D02*
G01*
X85180000Y-118000000D01*
X85180000Y-118400000D01*
X85580000Y-118400000D01*
X85580000Y-118000000D01*
G37*
G36*
X85580000Y-119200000D02*
G01*
X85180000Y-119200000D01*
X85180000Y-119600000D01*
X85580000Y-119600000D01*
X85580000Y-119200000D01*
G37*
G36*
X85580000Y-120000000D02*
G01*
X85180000Y-120000000D01*
X85180000Y-120400000D01*
X85580000Y-120400000D01*
X85580000Y-120000000D01*
G37*
G36*
X85580000Y-120800000D02*
G01*
X85180000Y-120800000D01*
X85180000Y-121200000D01*
X85580000Y-121200000D01*
X85580000Y-120800000D01*
G37*
G36*
X85580000Y-121600000D02*
G01*
X85180000Y-121600000D01*
X85180000Y-122000000D01*
X85580000Y-122000000D01*
X85580000Y-121600000D01*
G37*
G36*
X85580000Y-122000000D02*
G01*
X85180000Y-122000000D01*
X85180000Y-122400000D01*
X85580000Y-122400000D01*
X85580000Y-122000000D01*
G37*
G36*
X85580000Y-122400000D02*
G01*
X85180000Y-122400000D01*
X85180000Y-122800000D01*
X85580000Y-122800000D01*
X85580000Y-122400000D01*
G37*
G36*
X85580000Y-122800000D02*
G01*
X85180000Y-122800000D01*
X85180000Y-123200000D01*
X85580000Y-123200000D01*
X85580000Y-122800000D01*
G37*
G36*
X85580000Y-123200000D02*
G01*
X85180000Y-123200000D01*
X85180000Y-123600000D01*
X85580000Y-123600000D01*
X85580000Y-123200000D01*
G37*
G36*
X85580000Y-124000000D02*
G01*
X85180000Y-124000000D01*
X85180000Y-124400000D01*
X85580000Y-124400000D01*
X85580000Y-124000000D01*
G37*
G36*
X85180000Y-114400000D02*
G01*
X84780000Y-114400000D01*
X84780000Y-114800000D01*
X85180000Y-114800000D01*
X85180000Y-114400000D01*
G37*
G36*
X85180000Y-114800000D02*
G01*
X84780000Y-114800000D01*
X84780000Y-115200000D01*
X85180000Y-115200000D01*
X85180000Y-114800000D01*
G37*
G36*
X85180000Y-115200000D02*
G01*
X84780000Y-115200000D01*
X84780000Y-115600000D01*
X85180000Y-115600000D01*
X85180000Y-115200000D01*
G37*
G36*
X85180000Y-115600000D02*
G01*
X84780000Y-115600000D01*
X84780000Y-116000000D01*
X85180000Y-116000000D01*
X85180000Y-115600000D01*
G37*
G36*
X85180000Y-116000000D02*
G01*
X84780000Y-116000000D01*
X84780000Y-116400000D01*
X85180000Y-116400000D01*
X85180000Y-116000000D01*
G37*
G36*
X85180000Y-116400000D02*
G01*
X84780000Y-116400000D01*
X84780000Y-116800000D01*
X85180000Y-116800000D01*
X85180000Y-116400000D01*
G37*
G36*
X85180000Y-116800000D02*
G01*
X84780000Y-116800000D01*
X84780000Y-117200000D01*
X85180000Y-117200000D01*
X85180000Y-116800000D01*
G37*
G36*
X85180000Y-117600000D02*
G01*
X84780000Y-117600000D01*
X84780000Y-118000000D01*
X85180000Y-118000000D01*
X85180000Y-117600000D01*
G37*
G36*
X85180000Y-119200000D02*
G01*
X84780000Y-119200000D01*
X84780000Y-119600000D01*
X85180000Y-119600000D01*
X85180000Y-119200000D01*
G37*
G36*
X85180000Y-119600000D02*
G01*
X84780000Y-119600000D01*
X84780000Y-120000000D01*
X85180000Y-120000000D01*
X85180000Y-119600000D01*
G37*
G36*
X85180000Y-120400000D02*
G01*
X84780000Y-120400000D01*
X84780000Y-120800000D01*
X85180000Y-120800000D01*
X85180000Y-120400000D01*
G37*
G36*
X85180000Y-120800000D02*
G01*
X84780000Y-120800000D01*
X84780000Y-121200000D01*
X85180000Y-121200000D01*
X85180000Y-120800000D01*
G37*
G36*
X85180000Y-121200000D02*
G01*
X84780000Y-121200000D01*
X84780000Y-121600000D01*
X85180000Y-121600000D01*
X85180000Y-121200000D01*
G37*
G36*
X85180000Y-121600000D02*
G01*
X84780000Y-121600000D01*
X84780000Y-122000000D01*
X85180000Y-122000000D01*
X85180000Y-121600000D01*
G37*
G36*
X85180000Y-122000000D02*
G01*
X84780000Y-122000000D01*
X84780000Y-122400000D01*
X85180000Y-122400000D01*
X85180000Y-122000000D01*
G37*
G36*
X85180000Y-122400000D02*
G01*
X84780000Y-122400000D01*
X84780000Y-122800000D01*
X85180000Y-122800000D01*
X85180000Y-122400000D01*
G37*
G36*
X85180000Y-122800000D02*
G01*
X84780000Y-122800000D01*
X84780000Y-123200000D01*
X85180000Y-123200000D01*
X85180000Y-122800000D01*
G37*
G36*
X85180000Y-124000000D02*
G01*
X84780000Y-124000000D01*
X84780000Y-124400000D01*
X85180000Y-124400000D01*
X85180000Y-124000000D01*
G37*
%TD*%
%LPC*%
D11*
%TO.C,J3*%
X155960000Y-105375000D03*
D12*
X155960000Y-102835000D03*
X155960000Y-100295000D03*
X155960000Y-97755000D03*
%TD*%
D13*
%TO.C,SW3*%
X168235000Y-120540000D03*
X168235000Y-111540000D03*
%TD*%
D14*
%TO.C,H4*%
X77485000Y-122615000D03*
%TD*%
%TO.C,H1*%
X77510000Y-72390000D03*
%TD*%
%TO.C,H2*%
X233835000Y-72365000D03*
%TD*%
D13*
%TO.C,SW4*%
X185410000Y-120565000D03*
X185410000Y-111565000D03*
%TD*%
D15*
%TO.C,J5*%
X230030000Y-117555000D03*
X230030000Y-111775000D03*
D16*
X229530000Y-118985000D03*
D17*
X233710000Y-118985000D03*
D16*
X229530000Y-110345000D03*
D17*
X233710000Y-110345000D03*
%TD*%
D13*
%TO.C,SW2*%
X151010000Y-120540000D03*
X151010000Y-111540000D03*
%TD*%
D11*
%TO.C,J4*%
X77260000Y-105400000D03*
D12*
X77260000Y-102860000D03*
X77260000Y-100320000D03*
X77260000Y-97780000D03*
%TD*%
D18*
%TO.C,J2*%
X161160000Y-101640000D03*
D19*
X229960000Y-101640000D03*
%TD*%
D18*
%TO.C,J1*%
X82010000Y-101640000D03*
D19*
X150810000Y-101640000D03*
%TD*%
D11*
%TO.C,JP2*%
X208535000Y-113705000D03*
D12*
X205995000Y-113705000D03*
X203455000Y-113705000D03*
%TD*%
D20*
%TO.C,J9*%
X80890000Y-111965000D03*
D21*
X80890000Y-116965000D03*
%TD*%
D13*
%TO.C,SW1*%
X133835000Y-120540000D03*
X133835000Y-111540000D03*
%TD*%
D14*
%TO.C,H3*%
X233835000Y-122615000D03*
%TD*%
D11*
%TO.C,JP1*%
X208525000Y-117240000D03*
D12*
X205985000Y-117240000D03*
X203445000Y-117240000D03*
%TD*%
%LPD*%
M02*
