M48
; DRILL file {KiCad 9.0.0} date 2025-09-20T16:19:00+0200
; FORMAT={-:-/ absolute / metric / decimal}
; #@! TF.CreationDate,2025-09-20T16:19:00+02:00
; #@! TF.GenerationSoftware,Kicad,Pcbnew,9.0.0
; #@! TF.FileFunction,Plated,1,4,PTH
FMAT,2
METRIC
; #@! TA.AperFunction,Plated,PTH,ViaDrill
T1C0.300
; #@! TA.AperFunction,Plated,PTH,ComponentDrill
T2C0.600
; #@! TA.AperFunction,Plated,PTH,ComponentDrill
T3C1.000
; #@! TA.AperFunction,Plated,PTH,ComponentDrill
T4C1.300
%
G90
G05
T1
X75.535Y-70.39
X75.535Y-73.423
X75.535Y-75.982
X75.535Y-78.54
X75.535Y-81.098
X75.535Y-83.657
X75.535Y-86.215
X75.535Y-88.773
X75.535Y-91.332
X75.535Y-93.89
X75.535Y-96.448
X75.535Y-99.007
X75.535Y-101.565
X75.535Y-104.123
X75.535Y-106.682
X75.535Y-109.24
X75.535Y-111.798
X75.535Y-114.357
X75.535Y-116.915
X75.535Y-119.473
X75.535Y-122.032
X75.535Y-124.59
X78.079Y-70.39
X78.079Y-124.59
X80.623Y-70.39
X80.623Y-75.99
X80.623Y-83.665
X80.623Y-101.74
X80.623Y-124.59
X83.035Y-104.54
X83.167Y-70.39
X83.167Y-124.59
X83.285Y-98.74
X84.035Y-99.265
X84.535Y-104.54
X84.785Y-98.74
X85.711Y-70.39
X85.711Y-124.59
X86.035Y-104.54
X86.285Y-98.74
X87.535Y-104.54
X87.785Y-98.74
X88.255Y-70.39
X88.255Y-75.99
X88.255Y-83.665
X88.255Y-91.315
X88.255Y-101.74
X88.255Y-124.59
X89.035Y-104.54
X89.285Y-98.74
X90.535Y-104.54
X90.785Y-98.74
X90.799Y-70.39
X90.799Y-124.59
X92.035Y-104.54
X92.285Y-98.74
X93.343Y-70.39
X93.343Y-124.59
X93.535Y-104.54
X93.785Y-98.74
X94.285Y-96.115
X95.035Y-104.54
X95.285Y-98.74
X95.785Y-96.115
X95.878Y-101.74
X95.887Y-70.39
X95.887Y-75.99
X95.887Y-83.665
X95.887Y-91.315
X95.887Y-124.59
X96.035Y-111.09
X96.035Y-111.832
X96.035Y-112.573
X96.035Y-113.315
X96.035Y-115.59
X96.035Y-116.332
X96.035Y-117.073
X96.035Y-117.815
X96.535Y-104.54
X96.785Y-98.74
X96.785Y-111.09
X96.785Y-111.832
X96.785Y-112.573
X96.785Y-113.315
X96.785Y-115.59
X96.785Y-116.332
X96.785Y-117.073
X96.785Y-117.815
X97.285Y-96.115
X98.035Y-104.54
X98.285Y-98.74
X98.431Y-70.39
X98.431Y-124.59
X98.785Y-96.115
X99.61Y-114.165
X99.615Y-118.19
X99.635Y-122.115
X99.785Y-98.74
X100.035Y-104.54
X100.285Y-96.115
X100.975Y-70.39
X100.975Y-124.59
X101.285Y-98.74
X101.785Y-96.115
X102.035Y-104.54
X102.785Y-98.74
X103.285Y-96.115
X103.52Y-70.39
X103.52Y-75.99
X103.52Y-83.665
X103.52Y-101.74
X103.52Y-124.59
X104.035Y-104.54
X104.285Y-98.74
X104.785Y-96.115
X105.21Y-114.165
X105.21Y-122.115
X105.215Y-118.19
X105.785Y-98.74
X106.035Y-104.54
X106.064Y-70.39
X106.064Y-124.59
X106.285Y-96.115
X107.285Y-98.74
X107.715Y-115.46
X107.715Y-121.035
X107.785Y-96.115
X108.035Y-104.54
X108.608Y-70.39
X108.608Y-124.59
X108.785Y-98.74
X109.285Y-96.115
X110.035Y-104.54
X110.285Y-98.74
X110.785Y-96.115
X111.142Y-101.74
X111.152Y-70.39
X111.152Y-75.99
X111.152Y-124.59
X111.615Y-115.44
X111.615Y-121.04
X111.785Y-98.74
X112.035Y-104.54
X112.285Y-96.115
X113.285Y-98.74
X113.696Y-70.39
X113.696Y-124.59
X113.785Y-96.115
X114.035Y-104.54
X114.71Y-114.315
X114.71Y-122.215
X114.785Y-98.74
X115.285Y-96.115
X116.035Y-104.54
X116.24Y-70.39
X116.24Y-124.59
X116.285Y-98.74
X116.785Y-96.115
X117.035Y-99.115
X117.685Y-114.315
X117.685Y-122.215
X117.785Y-98.74
X118.035Y-104.54
X118.285Y-96.165
X118.774Y-101.74
X118.784Y-70.39
X118.784Y-124.59
X118.785Y-98.74
X120.785Y-115.44
X120.785Y-121.04
X121.035Y-104.54
X121.285Y-98.74
X121.328Y-70.39
X121.328Y-124.59
X121.785Y-96.19
X122.035Y-99.09
X122.535Y-104.54
X122.785Y-98.74
X123.285Y-96.165
X123.569Y-99.098
X123.872Y-70.39
X123.872Y-124.59
X124.035Y-104.54
X124.285Y-98.74
X124.485Y-113.54
X124.685Y-121.04
X124.71Y-115.44
X125.535Y-104.54
X125.785Y-98.74
X126.416Y-70.39
X126.416Y-124.59
X126.685Y-119.79
X127.035Y-104.54
X127.285Y-98.74
X128.535Y-104.54
X128.785Y-98.74
X128.96Y-70.39
X128.96Y-124.59
X129.185Y-101.74
X130.035Y-104.54
X130.285Y-98.74
X131.504Y-70.39
X131.504Y-124.59
X131.535Y-104.54
X131.785Y-98.74
X133.035Y-104.54
X133.285Y-98.74
X134.048Y-70.39
X134.048Y-124.59
X134.535Y-104.54
X134.785Y-98.74
X136.035Y-104.54
X136.285Y-98.74
X136.592Y-70.39
X136.592Y-124.59
X136.808Y-101.74
X137.535Y-104.54
X137.785Y-98.74
X139.035Y-104.54
X139.136Y-70.39
X139.136Y-124.59
X139.285Y-98.74
X140.535Y-104.54
X140.785Y-98.74
X140.985Y-119.79
X141.68Y-70.39
X141.68Y-124.59
X142.035Y-104.54
X142.285Y-98.74
X143.535Y-104.54
X143.785Y-98.74
X143.86Y-119.64
X144.224Y-70.39
X144.224Y-124.59
X144.449Y-101.74
X145.035Y-104.54
X145.285Y-98.74
X146.535Y-104.54
X146.768Y-70.39
X146.768Y-124.59
X146.785Y-98.74
X147.61Y-106.94
X147.61Y-107.69
X148.352Y-106.94
X148.352Y-107.69
X149.093Y-106.94
X149.093Y-107.69
X149.312Y-70.39
X149.312Y-124.59
X149.835Y-106.94
X149.835Y-107.69
X151.856Y-70.39
X151.856Y-124.59
X152.072Y-101.74
X154.4Y-70.39
X154.4Y-124.59
X156.945Y-70.39
X156.945Y-124.59
X158.16Y-119.84
X159.489Y-70.39
X159.489Y-124.59
X159.704Y-101.74
X160.06Y-108.915
X161.085Y-119.765
X162.033Y-70.39
X162.033Y-124.59
X162.185Y-104.54
X162.435Y-98.74
X163.485Y-108.915
X163.685Y-104.54
X163.935Y-98.74
X164.577Y-70.39
X164.577Y-124.59
X165.185Y-104.54
X165.435Y-98.74
X166.685Y-104.54
X166.935Y-98.74
X167.121Y-70.39
X167.121Y-124.59
X167.342Y-101.74
X168.185Y-104.54
X168.435Y-98.74
X169.665Y-70.39
X169.665Y-124.59
X169.685Y-104.54
X169.935Y-98.74
X171.185Y-104.54
X171.435Y-98.74
X172.209Y-70.39
X172.209Y-124.59
X172.685Y-104.54
X172.935Y-98.74
X173.435Y-96.09
X174.185Y-104.54
X174.435Y-98.74
X174.753Y-70.39
X174.753Y-124.59
X174.935Y-96.09
X174.974Y-101.74
X175.385Y-119.765
X175.685Y-104.54
X175.935Y-98.74
X176.435Y-96.09
X177.06Y-108.94
X177.185Y-104.54
X177.297Y-70.39
X177.297Y-124.59
X177.435Y-98.74
X177.935Y-96.09
X178.26Y-119.84
X178.935Y-98.74
X179.185Y-104.54
X179.435Y-96.09
X179.841Y-70.39
X179.841Y-124.59
X180.435Y-98.74
X180.635Y-108.94
X180.935Y-96.09
X181.185Y-104.54
X181.935Y-98.74
X182.385Y-70.39
X182.385Y-124.59
X182.435Y-96.09
X182.597Y-101.74
X183.185Y-104.54
X183.435Y-98.74
X183.935Y-96.09
X184.929Y-70.39
X184.929Y-124.59
X184.935Y-98.74
X185.185Y-104.54
X185.435Y-96.09
X186.435Y-98.74
X186.935Y-96.09
X187.185Y-104.54
X187.473Y-70.39
X187.473Y-124.59
X187.935Y-98.74
X188.435Y-96.09
X189.185Y-104.54
X189.435Y-98.74
X189.935Y-96.09
X190.017Y-70.39
X190.017Y-124.59
X190.229Y-101.74
X190.935Y-98.74
X191.185Y-104.54
X191.435Y-96.09
X192.435Y-98.74
X192.56Y-119.79
X192.561Y-70.39
X192.561Y-124.59
X192.935Y-96.09
X193.185Y-104.54
X193.935Y-98.74
X194.435Y-96.09
X194.927Y-117.49
X194.952Y-111.915
X195.105Y-70.39
X195.105Y-124.59
X195.185Y-104.54
X195.435Y-98.74
X195.935Y-96.09
X196.802Y-111.915
X196.935Y-98.74
X197.185Y-104.54
X197.649Y-70.39
X197.649Y-124.59
X197.877Y-101.74
X197.935Y-98.74
X198.59Y-117.49
X198.702Y-111.915
X200.185Y-104.54
X200.193Y-70.39
X200.193Y-124.59
X200.435Y-98.74
X200.552Y-111.915
X201.685Y-104.54
X201.935Y-98.74
X202.685Y-99.34
X202.737Y-70.39
X202.737Y-124.59
X202.935Y-96.19
X203.185Y-104.54
X203.435Y-98.74
X204.685Y-104.54
X204.935Y-98.74
X205.281Y-70.39
X205.281Y-124.59
X206.185Y-104.54
X206.435Y-98.74
X207.685Y-104.54
X207.825Y-70.39
X207.825Y-124.59
X207.935Y-98.74
X209.185Y-104.54
X209.435Y-98.74
X210.37Y-70.39
X210.37Y-124.59
X210.685Y-104.54
X210.935Y-98.74
X211.105Y-108.865
X211.105Y-109.64
X211.105Y-110.415
X211.105Y-112.29
X211.105Y-113.065
X211.105Y-113.84
X211.61Y-116.58
X212.185Y-104.54
X212.36Y-116.58
X212.435Y-98.74
X212.914Y-70.39
X212.914Y-124.59
X213.131Y-101.74
X213.185Y-116.59
X213.585Y-120.915
X213.685Y-104.54
X213.935Y-98.74
X213.935Y-116.59
X214.53Y-108.89
X214.53Y-113.815
X214.86Y-117.415
X215.185Y-104.54
X215.21Y-120.09
X215.435Y-98.74
X215.458Y-70.39
X215.458Y-124.59
X215.555Y-111.34
X216.535Y-111.64
X216.535Y-112.365
X216.685Y-104.54
X216.71Y-113.265
X216.935Y-98.74
X217.16Y-115.665
X217.16Y-117.665
X217.41Y-124.04
X217.435Y-109.59
X217.618Y-113.157
X218.002Y-70.39
X218.002Y-124.59
X218.16Y-116.69
X218.185Y-104.54
X218.435Y-98.74
X218.885Y-124.04
X218.91Y-109.59
X219.16Y-115.665
X219.16Y-117.665
X219.685Y-104.54
X219.935Y-98.74
X220.546Y-70.39
X220.546Y-124.59
X220.66Y-109.59
X220.767Y-101.74
X221.185Y-104.54
X221.435Y-98.74
X222.135Y-109.59
X222.685Y-104.54
X222.685Y-120.94
X222.935Y-98.74
X223.09Y-70.39
X223.09Y-124.59
X223.61Y-118.74
X224.185Y-104.54
X224.435Y-98.74
X224.485Y-113.165
X224.76Y-113.865
X225.135Y-119.74
X225.21Y-117.615
X225.26Y-113.34
X225.634Y-70.39
X225.634Y-124.59
X225.653Y-75.99
X225.653Y-83.665
X225.653Y-91.34
X225.685Y-104.54
X225.935Y-98.74
X226.185Y-123.89
X226.76Y-106.94
X226.76Y-107.69
X227.502Y-106.94
X227.502Y-107.69
X227.935Y-117.865
X228.16Y-111.015
X228.178Y-70.39
X228.178Y-124.59
X228.243Y-106.94
X228.243Y-107.69
X228.985Y-106.94
X228.985Y-107.69
X229.885Y-104.54
X230.01Y-121.54
X230.722Y-70.39
X230.722Y-124.59
X233.266Y-70.39
X233.266Y-124.59
X233.285Y-75.99
X233.285Y-83.665
X233.285Y-91.34
X233.285Y-99.015
X233.285Y-104.54
X235.81Y-70.39
X235.81Y-73.423
X235.81Y-75.982
X235.81Y-78.54
X235.81Y-81.098
X235.81Y-83.657
X235.81Y-86.215
X235.81Y-88.773
X235.81Y-91.332
X235.81Y-93.89
X235.81Y-96.448
X235.81Y-99.007
X235.81Y-101.57
X235.81Y-104.123
X235.81Y-106.682
X235.81Y-109.24
X235.81Y-111.798
X235.81Y-114.357
X235.81Y-116.915
X235.81Y-119.473
X235.81Y-122.032
X235.81Y-124.59
T3
X77.26Y-97.78
X77.26Y-100.32
X77.26Y-102.86
X77.26Y-105.4
X155.96Y-97.755
X155.96Y-100.295
X155.96Y-102.835
X155.96Y-105.375
X203.445Y-117.24
X203.455Y-113.705
X205.985Y-117.24
X205.995Y-113.705
X208.525Y-117.24
X208.535Y-113.705
T4
X80.89Y-111.965
X80.89Y-116.965
T2
X228.98Y-110.345G85X230.08Y-110.345
G05
X228.98Y-118.985G85X230.08Y-118.985
G05
X233.31Y-110.345G85X234.11Y-110.345
G05
X233.31Y-118.985G85X234.11Y-118.985
G05
M30
