%TF.GenerationSoftware,KiCad,Pcbnew,9.0.0*%
%TF.CreationDate,2025-09-20T16:19:00+02:00*%
%TF.ProjectId,ecap5-bcarrier-xlite,65636170-352d-4626-9361-72726965722d,rev?*%
%TF.SameCoordinates,Original*%
%TF.FileFunction,Drillmap*%
%TF.FilePolarity,Positive*%
%FSLAX45Y45*%
G04 Gerber Fmt 4.5, Leading zero omitted, Abs format (unit mm)*
G04 Created by KiCad (PCBNEW 9.0.0) date 2025-09-20 16:19:00*
%MOMM*%
%LPD*%
G01*
G04 APERTURE LIST*
%ADD10C,0.050000*%
%ADD11C,0.200000*%
%ADD12C,0.100000*%
%ADD13C,0.110000*%
%ADD14C,0.160000*%
%ADD15C,0.220000*%
G04 APERTURE END LIST*
D10*
X7501000Y-6989000D02*
X23631000Y-6989000D01*
X23631000Y-12509000D01*
X7501000Y-12509000D01*
X7501000Y-6989000D01*
D11*
D12*
X22970500Y-11145000D02*
X23035500Y-11210000D01*
X23035500Y-11145000D02*
X22970500Y-11210000D01*
X22970500Y-11723000D02*
X23035500Y-11788000D01*
X23035500Y-11723000D02*
X22970500Y-11788000D01*
D13*
X15136000Y-10164000D02*
G75*
G02*
X15026000Y-10164000I-55000J0D01*
G01*
X15026000Y-10164000D02*
G75*
G02*
X15136000Y-10164000I55000J0D01*
G01*
X23051000Y-10164000D02*
G75*
G02*
X22941000Y-10164000I-55000J0D01*
G01*
X22941000Y-10164000D02*
G75*
G02*
X23051000Y-10164000I55000J0D01*
G01*
D14*
X8201000Y-10084000D02*
X8201000Y-10244000D01*
X8121000Y-10164000D02*
X8281000Y-10164000D01*
X16116000Y-10084000D02*
X16116000Y-10244000D01*
X16036000Y-10164000D02*
X16196000Y-10164000D01*
D11*
X13454211Y-11224711D02*
X13454211Y-11083289D01*
X13312789Y-11083289D01*
X13312789Y-11224711D01*
X13454211Y-11224711D01*
X13454211Y-12124711D02*
X13454211Y-11983289D01*
X13312789Y-11983289D01*
X13312789Y-12124711D01*
X13454211Y-12124711D01*
X15171711Y-11224711D02*
X15171711Y-11083289D01*
X15030289Y-11083289D01*
X15030289Y-11224711D01*
X15171711Y-11224711D01*
X15171711Y-12124711D02*
X15171711Y-11983289D01*
X15030289Y-11983289D01*
X15030289Y-12124711D01*
X15171711Y-12124711D01*
X16894211Y-11224711D02*
X16894211Y-11083289D01*
X16752789Y-11083289D01*
X16752789Y-11224711D01*
X16894211Y-11224711D01*
X16894211Y-12124711D02*
X16894211Y-11983289D01*
X16752789Y-11983289D01*
X16752789Y-12124711D01*
X16894211Y-12124711D01*
X18611711Y-11227211D02*
X18611711Y-11085789D01*
X18470289Y-11085789D01*
X18470289Y-11227211D01*
X18611711Y-11227211D01*
X18611711Y-12127211D02*
X18611711Y-11985789D01*
X18470289Y-11985789D01*
X18470289Y-12127211D01*
X18611711Y-12127211D01*
D15*
X7748500Y-12371500D02*
X7858500Y-12261500D01*
X7748500Y-12151500D01*
X7638500Y-12261500D01*
X7748500Y-12371500D01*
X7751000Y-7349000D02*
X7861000Y-7239000D01*
X7751000Y-7129000D01*
X7641000Y-7239000D01*
X7751000Y-7349000D01*
X23383500Y-7346500D02*
X23493500Y-7236500D01*
X23383500Y-7126500D01*
X23273500Y-7236500D01*
X23383500Y-7346500D01*
X23383500Y-12371500D02*
X23493500Y-12261500D01*
X23383500Y-12151500D01*
X23273500Y-12261500D01*
X23383500Y-12371500D01*
D11*
X7759277Y-12822984D02*
X7759277Y-12622984D01*
X7759277Y-12622984D02*
X7806896Y-12622984D01*
X7806896Y-12622984D02*
X7835467Y-12632508D01*
X7835467Y-12632508D02*
X7854515Y-12651555D01*
X7854515Y-12651555D02*
X7864039Y-12670603D01*
X7864039Y-12670603D02*
X7873562Y-12708698D01*
X7873562Y-12708698D02*
X7873562Y-12737269D01*
X7873562Y-12737269D02*
X7864039Y-12775365D01*
X7864039Y-12775365D02*
X7854515Y-12794412D01*
X7854515Y-12794412D02*
X7835467Y-12813460D01*
X7835467Y-12813460D02*
X7806896Y-12822984D01*
X7806896Y-12822984D02*
X7759277Y-12822984D01*
X7959277Y-12822984D02*
X7959277Y-12689650D01*
X7959277Y-12727746D02*
X7968801Y-12708698D01*
X7968801Y-12708698D02*
X7978324Y-12699174D01*
X7978324Y-12699174D02*
X7997372Y-12689650D01*
X7997372Y-12689650D02*
X8016420Y-12689650D01*
X8083086Y-12822984D02*
X8083086Y-12689650D01*
X8083086Y-12622984D02*
X8073562Y-12632508D01*
X8073562Y-12632508D02*
X8083086Y-12642031D01*
X8083086Y-12642031D02*
X8092610Y-12632508D01*
X8092610Y-12632508D02*
X8083086Y-12622984D01*
X8083086Y-12622984D02*
X8083086Y-12642031D01*
X8206896Y-12822984D02*
X8187848Y-12813460D01*
X8187848Y-12813460D02*
X8178324Y-12794412D01*
X8178324Y-12794412D02*
X8178324Y-12622984D01*
X8311658Y-12822984D02*
X8292610Y-12813460D01*
X8292610Y-12813460D02*
X8283086Y-12794412D01*
X8283086Y-12794412D02*
X8283086Y-12622984D01*
X8540229Y-12822984D02*
X8540229Y-12622984D01*
X8540229Y-12622984D02*
X8606896Y-12765841D01*
X8606896Y-12765841D02*
X8673563Y-12622984D01*
X8673563Y-12622984D02*
X8673563Y-12822984D01*
X8854515Y-12822984D02*
X8854515Y-12718222D01*
X8854515Y-12718222D02*
X8844991Y-12699174D01*
X8844991Y-12699174D02*
X8825944Y-12689650D01*
X8825944Y-12689650D02*
X8787848Y-12689650D01*
X8787848Y-12689650D02*
X8768801Y-12699174D01*
X8854515Y-12813460D02*
X8835467Y-12822984D01*
X8835467Y-12822984D02*
X8787848Y-12822984D01*
X8787848Y-12822984D02*
X8768801Y-12813460D01*
X8768801Y-12813460D02*
X8759277Y-12794412D01*
X8759277Y-12794412D02*
X8759277Y-12775365D01*
X8759277Y-12775365D02*
X8768801Y-12756317D01*
X8768801Y-12756317D02*
X8787848Y-12746793D01*
X8787848Y-12746793D02*
X8835467Y-12746793D01*
X8835467Y-12746793D02*
X8854515Y-12737269D01*
X8949753Y-12689650D02*
X8949753Y-12889650D01*
X8949753Y-12699174D02*
X8968801Y-12689650D01*
X8968801Y-12689650D02*
X9006896Y-12689650D01*
X9006896Y-12689650D02*
X9025944Y-12699174D01*
X9025944Y-12699174D02*
X9035467Y-12708698D01*
X9035467Y-12708698D02*
X9044991Y-12727746D01*
X9044991Y-12727746D02*
X9044991Y-12784888D01*
X9044991Y-12784888D02*
X9035467Y-12803936D01*
X9035467Y-12803936D02*
X9025944Y-12813460D01*
X9025944Y-12813460D02*
X9006896Y-12822984D01*
X9006896Y-12822984D02*
X8968801Y-12822984D01*
X8968801Y-12822984D02*
X8949753Y-12813460D01*
X9130705Y-12803936D02*
X9140229Y-12813460D01*
X9140229Y-12813460D02*
X9130705Y-12822984D01*
X9130705Y-12822984D02*
X9121182Y-12813460D01*
X9121182Y-12813460D02*
X9130705Y-12803936D01*
X9130705Y-12803936D02*
X9130705Y-12822984D01*
X9130705Y-12699174D02*
X9140229Y-12708698D01*
X9140229Y-12708698D02*
X9130705Y-12718222D01*
X9130705Y-12718222D02*
X9121182Y-12708698D01*
X9121182Y-12708698D02*
X9130705Y-12699174D01*
X9130705Y-12699174D02*
X9130705Y-12718222D01*
D12*
X7433500Y-13119000D02*
X7498500Y-13184000D01*
X7498500Y-13119000D02*
X7433500Y-13184000D01*
D11*
X7797372Y-13042984D02*
X7816420Y-13042984D01*
X7816420Y-13042984D02*
X7835467Y-13052508D01*
X7835467Y-13052508D02*
X7844991Y-13062031D01*
X7844991Y-13062031D02*
X7854515Y-13081079D01*
X7854515Y-13081079D02*
X7864039Y-13119174D01*
X7864039Y-13119174D02*
X7864039Y-13166793D01*
X7864039Y-13166793D02*
X7854515Y-13204888D01*
X7854515Y-13204888D02*
X7844991Y-13223936D01*
X7844991Y-13223936D02*
X7835467Y-13233460D01*
X7835467Y-13233460D02*
X7816420Y-13242984D01*
X7816420Y-13242984D02*
X7797372Y-13242984D01*
X7797372Y-13242984D02*
X7778324Y-13233460D01*
X7778324Y-13233460D02*
X7768801Y-13223936D01*
X7768801Y-13223936D02*
X7759277Y-13204888D01*
X7759277Y-13204888D02*
X7749753Y-13166793D01*
X7749753Y-13166793D02*
X7749753Y-13119174D01*
X7749753Y-13119174D02*
X7759277Y-13081079D01*
X7759277Y-13081079D02*
X7768801Y-13062031D01*
X7768801Y-13062031D02*
X7778324Y-13052508D01*
X7778324Y-13052508D02*
X7797372Y-13042984D01*
X7949753Y-13223936D02*
X7959277Y-13233460D01*
X7959277Y-13233460D02*
X7949753Y-13242984D01*
X7949753Y-13242984D02*
X7940229Y-13233460D01*
X7940229Y-13233460D02*
X7949753Y-13223936D01*
X7949753Y-13223936D02*
X7949753Y-13242984D01*
X8130705Y-13042984D02*
X8092610Y-13042984D01*
X8092610Y-13042984D02*
X8073562Y-13052508D01*
X8073562Y-13052508D02*
X8064039Y-13062031D01*
X8064039Y-13062031D02*
X8044991Y-13090603D01*
X8044991Y-13090603D02*
X8035467Y-13128698D01*
X8035467Y-13128698D02*
X8035467Y-13204888D01*
X8035467Y-13204888D02*
X8044991Y-13223936D01*
X8044991Y-13223936D02*
X8054515Y-13233460D01*
X8054515Y-13233460D02*
X8073562Y-13242984D01*
X8073562Y-13242984D02*
X8111658Y-13242984D01*
X8111658Y-13242984D02*
X8130705Y-13233460D01*
X8130705Y-13233460D02*
X8140229Y-13223936D01*
X8140229Y-13223936D02*
X8149753Y-13204888D01*
X8149753Y-13204888D02*
X8149753Y-13157269D01*
X8149753Y-13157269D02*
X8140229Y-13138222D01*
X8140229Y-13138222D02*
X8130705Y-13128698D01*
X8130705Y-13128698D02*
X8111658Y-13119174D01*
X8111658Y-13119174D02*
X8073562Y-13119174D01*
X8073562Y-13119174D02*
X8054515Y-13128698D01*
X8054515Y-13128698D02*
X8044991Y-13138222D01*
X8044991Y-13138222D02*
X8035467Y-13157269D01*
X8330705Y-13042984D02*
X8235467Y-13042984D01*
X8235467Y-13042984D02*
X8225943Y-13138222D01*
X8225943Y-13138222D02*
X8235467Y-13128698D01*
X8235467Y-13128698D02*
X8254515Y-13119174D01*
X8254515Y-13119174D02*
X8302134Y-13119174D01*
X8302134Y-13119174D02*
X8321182Y-13128698D01*
X8321182Y-13128698D02*
X8330705Y-13138222D01*
X8330705Y-13138222D02*
X8340229Y-13157269D01*
X8340229Y-13157269D02*
X8340229Y-13204888D01*
X8340229Y-13204888D02*
X8330705Y-13223936D01*
X8330705Y-13223936D02*
X8321182Y-13233460D01*
X8321182Y-13233460D02*
X8302134Y-13242984D01*
X8302134Y-13242984D02*
X8254515Y-13242984D01*
X8254515Y-13242984D02*
X8235467Y-13233460D01*
X8235467Y-13233460D02*
X8225943Y-13223936D01*
X8464039Y-13042984D02*
X8483086Y-13042984D01*
X8483086Y-13042984D02*
X8502134Y-13052508D01*
X8502134Y-13052508D02*
X8511658Y-13062031D01*
X8511658Y-13062031D02*
X8521182Y-13081079D01*
X8521182Y-13081079D02*
X8530705Y-13119174D01*
X8530705Y-13119174D02*
X8530705Y-13166793D01*
X8530705Y-13166793D02*
X8521182Y-13204888D01*
X8521182Y-13204888D02*
X8511658Y-13223936D01*
X8511658Y-13223936D02*
X8502134Y-13233460D01*
X8502134Y-13233460D02*
X8483086Y-13242984D01*
X8483086Y-13242984D02*
X8464039Y-13242984D01*
X8464039Y-13242984D02*
X8444991Y-13233460D01*
X8444991Y-13233460D02*
X8435467Y-13223936D01*
X8435467Y-13223936D02*
X8425944Y-13204888D01*
X8425944Y-13204888D02*
X8416420Y-13166793D01*
X8416420Y-13166793D02*
X8416420Y-13119174D01*
X8416420Y-13119174D02*
X8425944Y-13081079D01*
X8425944Y-13081079D02*
X8435467Y-13062031D01*
X8435467Y-13062031D02*
X8444991Y-13052508D01*
X8444991Y-13052508D02*
X8464039Y-13042984D01*
X8616420Y-13242984D02*
X8616420Y-13109650D01*
X8616420Y-13128698D02*
X8625944Y-13119174D01*
X8625944Y-13119174D02*
X8644991Y-13109650D01*
X8644991Y-13109650D02*
X8673563Y-13109650D01*
X8673563Y-13109650D02*
X8692610Y-13119174D01*
X8692610Y-13119174D02*
X8702134Y-13138222D01*
X8702134Y-13138222D02*
X8702134Y-13242984D01*
X8702134Y-13138222D02*
X8711658Y-13119174D01*
X8711658Y-13119174D02*
X8730705Y-13109650D01*
X8730705Y-13109650D02*
X8759277Y-13109650D01*
X8759277Y-13109650D02*
X8778325Y-13119174D01*
X8778325Y-13119174D02*
X8787848Y-13138222D01*
X8787848Y-13138222D02*
X8787848Y-13242984D01*
X8883086Y-13242984D02*
X8883086Y-13109650D01*
X8883086Y-13128698D02*
X8892610Y-13119174D01*
X8892610Y-13119174D02*
X8911658Y-13109650D01*
X8911658Y-13109650D02*
X8940229Y-13109650D01*
X8940229Y-13109650D02*
X8959277Y-13119174D01*
X8959277Y-13119174D02*
X8968801Y-13138222D01*
X8968801Y-13138222D02*
X8968801Y-13242984D01*
X8968801Y-13138222D02*
X8978325Y-13119174D01*
X8978325Y-13119174D02*
X8997372Y-13109650D01*
X8997372Y-13109650D02*
X9025944Y-13109650D01*
X9025944Y-13109650D02*
X9044991Y-13119174D01*
X9044991Y-13119174D02*
X9054515Y-13138222D01*
X9054515Y-13138222D02*
X9054515Y-13242984D01*
X9444991Y-13033460D02*
X9273563Y-13290603D01*
X9702134Y-13042984D02*
X9721182Y-13042984D01*
X9721182Y-13042984D02*
X9740229Y-13052508D01*
X9740229Y-13052508D02*
X9749753Y-13062031D01*
X9749753Y-13062031D02*
X9759277Y-13081079D01*
X9759277Y-13081079D02*
X9768801Y-13119174D01*
X9768801Y-13119174D02*
X9768801Y-13166793D01*
X9768801Y-13166793D02*
X9759277Y-13204888D01*
X9759277Y-13204888D02*
X9749753Y-13223936D01*
X9749753Y-13223936D02*
X9740229Y-13233460D01*
X9740229Y-13233460D02*
X9721182Y-13242984D01*
X9721182Y-13242984D02*
X9702134Y-13242984D01*
X9702134Y-13242984D02*
X9683087Y-13233460D01*
X9683087Y-13233460D02*
X9673563Y-13223936D01*
X9673563Y-13223936D02*
X9664039Y-13204888D01*
X9664039Y-13204888D02*
X9654515Y-13166793D01*
X9654515Y-13166793D02*
X9654515Y-13119174D01*
X9654515Y-13119174D02*
X9664039Y-13081079D01*
X9664039Y-13081079D02*
X9673563Y-13062031D01*
X9673563Y-13062031D02*
X9683087Y-13052508D01*
X9683087Y-13052508D02*
X9702134Y-13042984D01*
X9854515Y-13223936D02*
X9864039Y-13233460D01*
X9864039Y-13233460D02*
X9854515Y-13242984D01*
X9854515Y-13242984D02*
X9844991Y-13233460D01*
X9844991Y-13233460D02*
X9854515Y-13223936D01*
X9854515Y-13223936D02*
X9854515Y-13242984D01*
X9987848Y-13042984D02*
X10006896Y-13042984D01*
X10006896Y-13042984D02*
X10025944Y-13052508D01*
X10025944Y-13052508D02*
X10035468Y-13062031D01*
X10035468Y-13062031D02*
X10044991Y-13081079D01*
X10044991Y-13081079D02*
X10054515Y-13119174D01*
X10054515Y-13119174D02*
X10054515Y-13166793D01*
X10054515Y-13166793D02*
X10044991Y-13204888D01*
X10044991Y-13204888D02*
X10035468Y-13223936D01*
X10035468Y-13223936D02*
X10025944Y-13233460D01*
X10025944Y-13233460D02*
X10006896Y-13242984D01*
X10006896Y-13242984D02*
X9987848Y-13242984D01*
X9987848Y-13242984D02*
X9968801Y-13233460D01*
X9968801Y-13233460D02*
X9959277Y-13223936D01*
X9959277Y-13223936D02*
X9949753Y-13204888D01*
X9949753Y-13204888D02*
X9940229Y-13166793D01*
X9940229Y-13166793D02*
X9940229Y-13119174D01*
X9940229Y-13119174D02*
X9949753Y-13081079D01*
X9949753Y-13081079D02*
X9959277Y-13062031D01*
X9959277Y-13062031D02*
X9968801Y-13052508D01*
X9968801Y-13052508D02*
X9987848Y-13042984D01*
X10130706Y-13062031D02*
X10140229Y-13052508D01*
X10140229Y-13052508D02*
X10159277Y-13042984D01*
X10159277Y-13042984D02*
X10206896Y-13042984D01*
X10206896Y-13042984D02*
X10225944Y-13052508D01*
X10225944Y-13052508D02*
X10235468Y-13062031D01*
X10235468Y-13062031D02*
X10244991Y-13081079D01*
X10244991Y-13081079D02*
X10244991Y-13100127D01*
X10244991Y-13100127D02*
X10235468Y-13128698D01*
X10235468Y-13128698D02*
X10121182Y-13242984D01*
X10121182Y-13242984D02*
X10244991Y-13242984D01*
X10425944Y-13042984D02*
X10330706Y-13042984D01*
X10330706Y-13042984D02*
X10321182Y-13138222D01*
X10321182Y-13138222D02*
X10330706Y-13128698D01*
X10330706Y-13128698D02*
X10349753Y-13119174D01*
X10349753Y-13119174D02*
X10397372Y-13119174D01*
X10397372Y-13119174D02*
X10416420Y-13128698D01*
X10416420Y-13128698D02*
X10425944Y-13138222D01*
X10425944Y-13138222D02*
X10435468Y-13157269D01*
X10435468Y-13157269D02*
X10435468Y-13204888D01*
X10435468Y-13204888D02*
X10425944Y-13223936D01*
X10425944Y-13223936D02*
X10416420Y-13233460D01*
X10416420Y-13233460D02*
X10397372Y-13242984D01*
X10397372Y-13242984D02*
X10349753Y-13242984D01*
X10349753Y-13242984D02*
X10330706Y-13233460D01*
X10330706Y-13233460D02*
X10321182Y-13223936D01*
X10606896Y-13042984D02*
X10568801Y-13042984D01*
X10568801Y-13042984D02*
X10549753Y-13052508D01*
X10549753Y-13052508D02*
X10540229Y-13062031D01*
X10540229Y-13062031D02*
X10521182Y-13090603D01*
X10521182Y-13090603D02*
X10511658Y-13128698D01*
X10511658Y-13128698D02*
X10511658Y-13204888D01*
X10511658Y-13204888D02*
X10521182Y-13223936D01*
X10521182Y-13223936D02*
X10530706Y-13233460D01*
X10530706Y-13233460D02*
X10549753Y-13242984D01*
X10549753Y-13242984D02*
X10587849Y-13242984D01*
X10587849Y-13242984D02*
X10606896Y-13233460D01*
X10606896Y-13233460D02*
X10616420Y-13223936D01*
X10616420Y-13223936D02*
X10625944Y-13204888D01*
X10625944Y-13204888D02*
X10625944Y-13157269D01*
X10625944Y-13157269D02*
X10616420Y-13138222D01*
X10616420Y-13138222D02*
X10606896Y-13128698D01*
X10606896Y-13128698D02*
X10587849Y-13119174D01*
X10587849Y-13119174D02*
X10549753Y-13119174D01*
X10549753Y-13119174D02*
X10530706Y-13128698D01*
X10530706Y-13128698D02*
X10521182Y-13138222D01*
X10521182Y-13138222D02*
X10511658Y-13157269D01*
X10702134Y-13042984D02*
X10702134Y-13081079D01*
X10778325Y-13042984D02*
X10778325Y-13081079D01*
X11073563Y-13319174D02*
X11064039Y-13309650D01*
X11064039Y-13309650D02*
X11044991Y-13281079D01*
X11044991Y-13281079D02*
X11035468Y-13262031D01*
X11035468Y-13262031D02*
X11025944Y-13233460D01*
X11025944Y-13233460D02*
X11016420Y-13185841D01*
X11016420Y-13185841D02*
X11016420Y-13147746D01*
X11016420Y-13147746D02*
X11025944Y-13100127D01*
X11025944Y-13100127D02*
X11035468Y-13071555D01*
X11035468Y-13071555D02*
X11044991Y-13052508D01*
X11044991Y-13052508D02*
X11064039Y-13023936D01*
X11064039Y-13023936D02*
X11073563Y-13014412D01*
X11140230Y-13062031D02*
X11149753Y-13052508D01*
X11149753Y-13052508D02*
X11168801Y-13042984D01*
X11168801Y-13042984D02*
X11216420Y-13042984D01*
X11216420Y-13042984D02*
X11235468Y-13052508D01*
X11235468Y-13052508D02*
X11244991Y-13062031D01*
X11244991Y-13062031D02*
X11254515Y-13081079D01*
X11254515Y-13081079D02*
X11254515Y-13100127D01*
X11254515Y-13100127D02*
X11244991Y-13128698D01*
X11244991Y-13128698D02*
X11130706Y-13242984D01*
X11130706Y-13242984D02*
X11254515Y-13242984D01*
X11492610Y-13242984D02*
X11492610Y-13042984D01*
X11578325Y-13242984D02*
X11578325Y-13138222D01*
X11578325Y-13138222D02*
X11568801Y-13119174D01*
X11568801Y-13119174D02*
X11549753Y-13109650D01*
X11549753Y-13109650D02*
X11521182Y-13109650D01*
X11521182Y-13109650D02*
X11502134Y-13119174D01*
X11502134Y-13119174D02*
X11492610Y-13128698D01*
X11702134Y-13242984D02*
X11683087Y-13233460D01*
X11683087Y-13233460D02*
X11673563Y-13223936D01*
X11673563Y-13223936D02*
X11664039Y-13204888D01*
X11664039Y-13204888D02*
X11664039Y-13147746D01*
X11664039Y-13147746D02*
X11673563Y-13128698D01*
X11673563Y-13128698D02*
X11683087Y-13119174D01*
X11683087Y-13119174D02*
X11702134Y-13109650D01*
X11702134Y-13109650D02*
X11730706Y-13109650D01*
X11730706Y-13109650D02*
X11749753Y-13119174D01*
X11749753Y-13119174D02*
X11759277Y-13128698D01*
X11759277Y-13128698D02*
X11768801Y-13147746D01*
X11768801Y-13147746D02*
X11768801Y-13204888D01*
X11768801Y-13204888D02*
X11759277Y-13223936D01*
X11759277Y-13223936D02*
X11749753Y-13233460D01*
X11749753Y-13233460D02*
X11730706Y-13242984D01*
X11730706Y-13242984D02*
X11702134Y-13242984D01*
X11883087Y-13242984D02*
X11864039Y-13233460D01*
X11864039Y-13233460D02*
X11854515Y-13214412D01*
X11854515Y-13214412D02*
X11854515Y-13042984D01*
X12035468Y-13233460D02*
X12016420Y-13242984D01*
X12016420Y-13242984D02*
X11978325Y-13242984D01*
X11978325Y-13242984D02*
X11959277Y-13233460D01*
X11959277Y-13233460D02*
X11949753Y-13214412D01*
X11949753Y-13214412D02*
X11949753Y-13138222D01*
X11949753Y-13138222D02*
X11959277Y-13119174D01*
X11959277Y-13119174D02*
X11978325Y-13109650D01*
X11978325Y-13109650D02*
X12016420Y-13109650D01*
X12016420Y-13109650D02*
X12035468Y-13119174D01*
X12035468Y-13119174D02*
X12044991Y-13138222D01*
X12044991Y-13138222D02*
X12044991Y-13157269D01*
X12044991Y-13157269D02*
X11949753Y-13176317D01*
X12121182Y-13233460D02*
X12140230Y-13242984D01*
X12140230Y-13242984D02*
X12178325Y-13242984D01*
X12178325Y-13242984D02*
X12197372Y-13233460D01*
X12197372Y-13233460D02*
X12206896Y-13214412D01*
X12206896Y-13214412D02*
X12206896Y-13204888D01*
X12206896Y-13204888D02*
X12197372Y-13185841D01*
X12197372Y-13185841D02*
X12178325Y-13176317D01*
X12178325Y-13176317D02*
X12149753Y-13176317D01*
X12149753Y-13176317D02*
X12130706Y-13166793D01*
X12130706Y-13166793D02*
X12121182Y-13147746D01*
X12121182Y-13147746D02*
X12121182Y-13138222D01*
X12121182Y-13138222D02*
X12130706Y-13119174D01*
X12130706Y-13119174D02*
X12149753Y-13109650D01*
X12149753Y-13109650D02*
X12178325Y-13109650D01*
X12178325Y-13109650D02*
X12197372Y-13119174D01*
X12273563Y-13319174D02*
X12283087Y-13309650D01*
X12283087Y-13309650D02*
X12302134Y-13281079D01*
X12302134Y-13281079D02*
X12311658Y-13262031D01*
X12311658Y-13262031D02*
X12321182Y-13233460D01*
X12321182Y-13233460D02*
X12330706Y-13185841D01*
X12330706Y-13185841D02*
X12330706Y-13147746D01*
X12330706Y-13147746D02*
X12321182Y-13100127D01*
X12321182Y-13100127D02*
X12311658Y-13071555D01*
X12311658Y-13071555D02*
X12302134Y-13052508D01*
X12302134Y-13052508D02*
X12283087Y-13023936D01*
X12283087Y-13023936D02*
X12273563Y-13014412D01*
X12635468Y-13319174D02*
X12625944Y-13309650D01*
X12625944Y-13309650D02*
X12606896Y-13281079D01*
X12606896Y-13281079D02*
X12597372Y-13262031D01*
X12597372Y-13262031D02*
X12587849Y-13233460D01*
X12587849Y-13233460D02*
X12578325Y-13185841D01*
X12578325Y-13185841D02*
X12578325Y-13147746D01*
X12578325Y-13147746D02*
X12587849Y-13100127D01*
X12587849Y-13100127D02*
X12597372Y-13071555D01*
X12597372Y-13071555D02*
X12606896Y-13052508D01*
X12606896Y-13052508D02*
X12625944Y-13023936D01*
X12625944Y-13023936D02*
X12635468Y-13014412D01*
X12711658Y-13109650D02*
X12711658Y-13242984D01*
X12711658Y-13128698D02*
X12721182Y-13119174D01*
X12721182Y-13119174D02*
X12740230Y-13109650D01*
X12740230Y-13109650D02*
X12768801Y-13109650D01*
X12768801Y-13109650D02*
X12787849Y-13119174D01*
X12787849Y-13119174D02*
X12797372Y-13138222D01*
X12797372Y-13138222D02*
X12797372Y-13242984D01*
X12921182Y-13242984D02*
X12902134Y-13233460D01*
X12902134Y-13233460D02*
X12892611Y-13223936D01*
X12892611Y-13223936D02*
X12883087Y-13204888D01*
X12883087Y-13204888D02*
X12883087Y-13147746D01*
X12883087Y-13147746D02*
X12892611Y-13128698D01*
X12892611Y-13128698D02*
X12902134Y-13119174D01*
X12902134Y-13119174D02*
X12921182Y-13109650D01*
X12921182Y-13109650D02*
X12949753Y-13109650D01*
X12949753Y-13109650D02*
X12968801Y-13119174D01*
X12968801Y-13119174D02*
X12978325Y-13128698D01*
X12978325Y-13128698D02*
X12987849Y-13147746D01*
X12987849Y-13147746D02*
X12987849Y-13204888D01*
X12987849Y-13204888D02*
X12978325Y-13223936D01*
X12978325Y-13223936D02*
X12968801Y-13233460D01*
X12968801Y-13233460D02*
X12949753Y-13242984D01*
X12949753Y-13242984D02*
X12921182Y-13242984D01*
X13044992Y-13109650D02*
X13121182Y-13109650D01*
X13073563Y-13042984D02*
X13073563Y-13214412D01*
X13073563Y-13214412D02*
X13083087Y-13233460D01*
X13083087Y-13233460D02*
X13102134Y-13242984D01*
X13102134Y-13242984D02*
X13121182Y-13242984D01*
X13340230Y-13109650D02*
X13340230Y-13309650D01*
X13340230Y-13119174D02*
X13359277Y-13109650D01*
X13359277Y-13109650D02*
X13397373Y-13109650D01*
X13397373Y-13109650D02*
X13416420Y-13119174D01*
X13416420Y-13119174D02*
X13425944Y-13128698D01*
X13425944Y-13128698D02*
X13435468Y-13147746D01*
X13435468Y-13147746D02*
X13435468Y-13204888D01*
X13435468Y-13204888D02*
X13425944Y-13223936D01*
X13425944Y-13223936D02*
X13416420Y-13233460D01*
X13416420Y-13233460D02*
X13397373Y-13242984D01*
X13397373Y-13242984D02*
X13359277Y-13242984D01*
X13359277Y-13242984D02*
X13340230Y-13233460D01*
X13549753Y-13242984D02*
X13530706Y-13233460D01*
X13530706Y-13233460D02*
X13521182Y-13214412D01*
X13521182Y-13214412D02*
X13521182Y-13042984D01*
X13711658Y-13242984D02*
X13711658Y-13138222D01*
X13711658Y-13138222D02*
X13702134Y-13119174D01*
X13702134Y-13119174D02*
X13683087Y-13109650D01*
X13683087Y-13109650D02*
X13644992Y-13109650D01*
X13644992Y-13109650D02*
X13625944Y-13119174D01*
X13711658Y-13233460D02*
X13692611Y-13242984D01*
X13692611Y-13242984D02*
X13644992Y-13242984D01*
X13644992Y-13242984D02*
X13625944Y-13233460D01*
X13625944Y-13233460D02*
X13616420Y-13214412D01*
X13616420Y-13214412D02*
X13616420Y-13195365D01*
X13616420Y-13195365D02*
X13625944Y-13176317D01*
X13625944Y-13176317D02*
X13644992Y-13166793D01*
X13644992Y-13166793D02*
X13692611Y-13166793D01*
X13692611Y-13166793D02*
X13711658Y-13157269D01*
X13778325Y-13109650D02*
X13854515Y-13109650D01*
X13806896Y-13042984D02*
X13806896Y-13214412D01*
X13806896Y-13214412D02*
X13816420Y-13233460D01*
X13816420Y-13233460D02*
X13835468Y-13242984D01*
X13835468Y-13242984D02*
X13854515Y-13242984D01*
X13997373Y-13233460D02*
X13978325Y-13242984D01*
X13978325Y-13242984D02*
X13940230Y-13242984D01*
X13940230Y-13242984D02*
X13921182Y-13233460D01*
X13921182Y-13233460D02*
X13911658Y-13214412D01*
X13911658Y-13214412D02*
X13911658Y-13138222D01*
X13911658Y-13138222D02*
X13921182Y-13119174D01*
X13921182Y-13119174D02*
X13940230Y-13109650D01*
X13940230Y-13109650D02*
X13978325Y-13109650D01*
X13978325Y-13109650D02*
X13997373Y-13119174D01*
X13997373Y-13119174D02*
X14006896Y-13138222D01*
X14006896Y-13138222D02*
X14006896Y-13157269D01*
X14006896Y-13157269D02*
X13911658Y-13176317D01*
X14178325Y-13242984D02*
X14178325Y-13042984D01*
X14178325Y-13233460D02*
X14159277Y-13242984D01*
X14159277Y-13242984D02*
X14121182Y-13242984D01*
X14121182Y-13242984D02*
X14102134Y-13233460D01*
X14102134Y-13233460D02*
X14092611Y-13223936D01*
X14092611Y-13223936D02*
X14083087Y-13204888D01*
X14083087Y-13204888D02*
X14083087Y-13147746D01*
X14083087Y-13147746D02*
X14092611Y-13128698D01*
X14092611Y-13128698D02*
X14102134Y-13119174D01*
X14102134Y-13119174D02*
X14121182Y-13109650D01*
X14121182Y-13109650D02*
X14159277Y-13109650D01*
X14159277Y-13109650D02*
X14178325Y-13119174D01*
X14254515Y-13319174D02*
X14264039Y-13309650D01*
X14264039Y-13309650D02*
X14283087Y-13281079D01*
X14283087Y-13281079D02*
X14292611Y-13262031D01*
X14292611Y-13262031D02*
X14302134Y-13233460D01*
X14302134Y-13233460D02*
X14311658Y-13185841D01*
X14311658Y-13185841D02*
X14311658Y-13147746D01*
X14311658Y-13147746D02*
X14302134Y-13100127D01*
X14302134Y-13100127D02*
X14292611Y-13071555D01*
X14292611Y-13071555D02*
X14283087Y-13052508D01*
X14283087Y-13052508D02*
X14264039Y-13023936D01*
X14264039Y-13023936D02*
X14254515Y-13014412D01*
D13*
X7498500Y-13415500D02*
G75*
G02*
X7388500Y-13415500I-55000J0D01*
G01*
X7388500Y-13415500D02*
G75*
G02*
X7498500Y-13415500I55000J0D01*
G01*
D11*
X7864039Y-13506984D02*
X7749753Y-13506984D01*
X7806896Y-13506984D02*
X7806896Y-13306984D01*
X7806896Y-13306984D02*
X7787848Y-13335555D01*
X7787848Y-13335555D02*
X7768801Y-13354603D01*
X7768801Y-13354603D02*
X7749753Y-13364127D01*
X7949753Y-13487936D02*
X7959277Y-13497460D01*
X7959277Y-13497460D02*
X7949753Y-13506984D01*
X7949753Y-13506984D02*
X7940229Y-13497460D01*
X7940229Y-13497460D02*
X7949753Y-13487936D01*
X7949753Y-13487936D02*
X7949753Y-13506984D01*
X8149753Y-13506984D02*
X8035467Y-13506984D01*
X8092610Y-13506984D02*
X8092610Y-13306984D01*
X8092610Y-13306984D02*
X8073562Y-13335555D01*
X8073562Y-13335555D02*
X8054515Y-13354603D01*
X8054515Y-13354603D02*
X8035467Y-13364127D01*
X8273562Y-13306984D02*
X8292610Y-13306984D01*
X8292610Y-13306984D02*
X8311658Y-13316508D01*
X8311658Y-13316508D02*
X8321182Y-13326031D01*
X8321182Y-13326031D02*
X8330705Y-13345079D01*
X8330705Y-13345079D02*
X8340229Y-13383174D01*
X8340229Y-13383174D02*
X8340229Y-13430793D01*
X8340229Y-13430793D02*
X8330705Y-13468888D01*
X8330705Y-13468888D02*
X8321182Y-13487936D01*
X8321182Y-13487936D02*
X8311658Y-13497460D01*
X8311658Y-13497460D02*
X8292610Y-13506984D01*
X8292610Y-13506984D02*
X8273562Y-13506984D01*
X8273562Y-13506984D02*
X8254515Y-13497460D01*
X8254515Y-13497460D02*
X8244991Y-13487936D01*
X8244991Y-13487936D02*
X8235467Y-13468888D01*
X8235467Y-13468888D02*
X8225943Y-13430793D01*
X8225943Y-13430793D02*
X8225943Y-13383174D01*
X8225943Y-13383174D02*
X8235467Y-13345079D01*
X8235467Y-13345079D02*
X8244991Y-13326031D01*
X8244991Y-13326031D02*
X8254515Y-13316508D01*
X8254515Y-13316508D02*
X8273562Y-13306984D01*
X8464039Y-13306984D02*
X8483086Y-13306984D01*
X8483086Y-13306984D02*
X8502134Y-13316508D01*
X8502134Y-13316508D02*
X8511658Y-13326031D01*
X8511658Y-13326031D02*
X8521182Y-13345079D01*
X8521182Y-13345079D02*
X8530705Y-13383174D01*
X8530705Y-13383174D02*
X8530705Y-13430793D01*
X8530705Y-13430793D02*
X8521182Y-13468888D01*
X8521182Y-13468888D02*
X8511658Y-13487936D01*
X8511658Y-13487936D02*
X8502134Y-13497460D01*
X8502134Y-13497460D02*
X8483086Y-13506984D01*
X8483086Y-13506984D02*
X8464039Y-13506984D01*
X8464039Y-13506984D02*
X8444991Y-13497460D01*
X8444991Y-13497460D02*
X8435467Y-13487936D01*
X8435467Y-13487936D02*
X8425944Y-13468888D01*
X8425944Y-13468888D02*
X8416420Y-13430793D01*
X8416420Y-13430793D02*
X8416420Y-13383174D01*
X8416420Y-13383174D02*
X8425944Y-13345079D01*
X8425944Y-13345079D02*
X8435467Y-13326031D01*
X8435467Y-13326031D02*
X8444991Y-13316508D01*
X8444991Y-13316508D02*
X8464039Y-13306984D01*
X8616420Y-13506984D02*
X8616420Y-13373650D01*
X8616420Y-13392698D02*
X8625944Y-13383174D01*
X8625944Y-13383174D02*
X8644991Y-13373650D01*
X8644991Y-13373650D02*
X8673563Y-13373650D01*
X8673563Y-13373650D02*
X8692610Y-13383174D01*
X8692610Y-13383174D02*
X8702134Y-13402222D01*
X8702134Y-13402222D02*
X8702134Y-13506984D01*
X8702134Y-13402222D02*
X8711658Y-13383174D01*
X8711658Y-13383174D02*
X8730705Y-13373650D01*
X8730705Y-13373650D02*
X8759277Y-13373650D01*
X8759277Y-13373650D02*
X8778325Y-13383174D01*
X8778325Y-13383174D02*
X8787848Y-13402222D01*
X8787848Y-13402222D02*
X8787848Y-13506984D01*
X8883086Y-13506984D02*
X8883086Y-13373650D01*
X8883086Y-13392698D02*
X8892610Y-13383174D01*
X8892610Y-13383174D02*
X8911658Y-13373650D01*
X8911658Y-13373650D02*
X8940229Y-13373650D01*
X8940229Y-13373650D02*
X8959277Y-13383174D01*
X8959277Y-13383174D02*
X8968801Y-13402222D01*
X8968801Y-13402222D02*
X8968801Y-13506984D01*
X8968801Y-13402222D02*
X8978325Y-13383174D01*
X8978325Y-13383174D02*
X8997372Y-13373650D01*
X8997372Y-13373650D02*
X9025944Y-13373650D01*
X9025944Y-13373650D02*
X9044991Y-13383174D01*
X9044991Y-13383174D02*
X9054515Y-13402222D01*
X9054515Y-13402222D02*
X9054515Y-13506984D01*
X9444991Y-13297460D02*
X9273563Y-13554603D01*
X9702134Y-13306984D02*
X9721182Y-13306984D01*
X9721182Y-13306984D02*
X9740229Y-13316508D01*
X9740229Y-13316508D02*
X9749753Y-13326031D01*
X9749753Y-13326031D02*
X9759277Y-13345079D01*
X9759277Y-13345079D02*
X9768801Y-13383174D01*
X9768801Y-13383174D02*
X9768801Y-13430793D01*
X9768801Y-13430793D02*
X9759277Y-13468888D01*
X9759277Y-13468888D02*
X9749753Y-13487936D01*
X9749753Y-13487936D02*
X9740229Y-13497460D01*
X9740229Y-13497460D02*
X9721182Y-13506984D01*
X9721182Y-13506984D02*
X9702134Y-13506984D01*
X9702134Y-13506984D02*
X9683087Y-13497460D01*
X9683087Y-13497460D02*
X9673563Y-13487936D01*
X9673563Y-13487936D02*
X9664039Y-13468888D01*
X9664039Y-13468888D02*
X9654515Y-13430793D01*
X9654515Y-13430793D02*
X9654515Y-13383174D01*
X9654515Y-13383174D02*
X9664039Y-13345079D01*
X9664039Y-13345079D02*
X9673563Y-13326031D01*
X9673563Y-13326031D02*
X9683087Y-13316508D01*
X9683087Y-13316508D02*
X9702134Y-13306984D01*
X9854515Y-13487936D02*
X9864039Y-13497460D01*
X9864039Y-13497460D02*
X9854515Y-13506984D01*
X9854515Y-13506984D02*
X9844991Y-13497460D01*
X9844991Y-13497460D02*
X9854515Y-13487936D01*
X9854515Y-13487936D02*
X9854515Y-13506984D01*
X9987848Y-13306984D02*
X10006896Y-13306984D01*
X10006896Y-13306984D02*
X10025944Y-13316508D01*
X10025944Y-13316508D02*
X10035468Y-13326031D01*
X10035468Y-13326031D02*
X10044991Y-13345079D01*
X10044991Y-13345079D02*
X10054515Y-13383174D01*
X10054515Y-13383174D02*
X10054515Y-13430793D01*
X10054515Y-13430793D02*
X10044991Y-13468888D01*
X10044991Y-13468888D02*
X10035468Y-13487936D01*
X10035468Y-13487936D02*
X10025944Y-13497460D01*
X10025944Y-13497460D02*
X10006896Y-13506984D01*
X10006896Y-13506984D02*
X9987848Y-13506984D01*
X9987848Y-13506984D02*
X9968801Y-13497460D01*
X9968801Y-13497460D02*
X9959277Y-13487936D01*
X9959277Y-13487936D02*
X9949753Y-13468888D01*
X9949753Y-13468888D02*
X9940229Y-13430793D01*
X9940229Y-13430793D02*
X9940229Y-13383174D01*
X9940229Y-13383174D02*
X9949753Y-13345079D01*
X9949753Y-13345079D02*
X9959277Y-13326031D01*
X9959277Y-13326031D02*
X9968801Y-13316508D01*
X9968801Y-13316508D02*
X9987848Y-13306984D01*
X10225944Y-13373650D02*
X10225944Y-13506984D01*
X10178325Y-13297460D02*
X10130706Y-13440317D01*
X10130706Y-13440317D02*
X10254515Y-13440317D01*
X10311658Y-13306984D02*
X10435468Y-13306984D01*
X10435468Y-13306984D02*
X10368801Y-13383174D01*
X10368801Y-13383174D02*
X10397372Y-13383174D01*
X10397372Y-13383174D02*
X10416420Y-13392698D01*
X10416420Y-13392698D02*
X10425944Y-13402222D01*
X10425944Y-13402222D02*
X10435468Y-13421269D01*
X10435468Y-13421269D02*
X10435468Y-13468888D01*
X10435468Y-13468888D02*
X10425944Y-13487936D01*
X10425944Y-13487936D02*
X10416420Y-13497460D01*
X10416420Y-13497460D02*
X10397372Y-13506984D01*
X10397372Y-13506984D02*
X10340229Y-13506984D01*
X10340229Y-13506984D02*
X10321182Y-13497460D01*
X10321182Y-13497460D02*
X10311658Y-13487936D01*
X10502134Y-13306984D02*
X10625944Y-13306984D01*
X10625944Y-13306984D02*
X10559277Y-13383174D01*
X10559277Y-13383174D02*
X10587849Y-13383174D01*
X10587849Y-13383174D02*
X10606896Y-13392698D01*
X10606896Y-13392698D02*
X10616420Y-13402222D01*
X10616420Y-13402222D02*
X10625944Y-13421269D01*
X10625944Y-13421269D02*
X10625944Y-13468888D01*
X10625944Y-13468888D02*
X10616420Y-13487936D01*
X10616420Y-13487936D02*
X10606896Y-13497460D01*
X10606896Y-13497460D02*
X10587849Y-13506984D01*
X10587849Y-13506984D02*
X10530706Y-13506984D01*
X10530706Y-13506984D02*
X10511658Y-13497460D01*
X10511658Y-13497460D02*
X10502134Y-13487936D01*
X10702134Y-13306984D02*
X10702134Y-13345079D01*
X10778325Y-13306984D02*
X10778325Y-13345079D01*
X11073563Y-13583174D02*
X11064039Y-13573650D01*
X11064039Y-13573650D02*
X11044991Y-13545079D01*
X11044991Y-13545079D02*
X11035468Y-13526031D01*
X11035468Y-13526031D02*
X11025944Y-13497460D01*
X11025944Y-13497460D02*
X11016420Y-13449841D01*
X11016420Y-13449841D02*
X11016420Y-13411746D01*
X11016420Y-13411746D02*
X11025944Y-13364127D01*
X11025944Y-13364127D02*
X11035468Y-13335555D01*
X11035468Y-13335555D02*
X11044991Y-13316508D01*
X11044991Y-13316508D02*
X11064039Y-13287936D01*
X11064039Y-13287936D02*
X11073563Y-13278412D01*
X11140230Y-13326031D02*
X11149753Y-13316508D01*
X11149753Y-13316508D02*
X11168801Y-13306984D01*
X11168801Y-13306984D02*
X11216420Y-13306984D01*
X11216420Y-13306984D02*
X11235468Y-13316508D01*
X11235468Y-13316508D02*
X11244991Y-13326031D01*
X11244991Y-13326031D02*
X11254515Y-13345079D01*
X11254515Y-13345079D02*
X11254515Y-13364127D01*
X11254515Y-13364127D02*
X11244991Y-13392698D01*
X11244991Y-13392698D02*
X11130706Y-13506984D01*
X11130706Y-13506984D02*
X11254515Y-13506984D01*
X11492610Y-13506984D02*
X11492610Y-13306984D01*
X11578325Y-13506984D02*
X11578325Y-13402222D01*
X11578325Y-13402222D02*
X11568801Y-13383174D01*
X11568801Y-13383174D02*
X11549753Y-13373650D01*
X11549753Y-13373650D02*
X11521182Y-13373650D01*
X11521182Y-13373650D02*
X11502134Y-13383174D01*
X11502134Y-13383174D02*
X11492610Y-13392698D01*
X11702134Y-13506984D02*
X11683087Y-13497460D01*
X11683087Y-13497460D02*
X11673563Y-13487936D01*
X11673563Y-13487936D02*
X11664039Y-13468888D01*
X11664039Y-13468888D02*
X11664039Y-13411746D01*
X11664039Y-13411746D02*
X11673563Y-13392698D01*
X11673563Y-13392698D02*
X11683087Y-13383174D01*
X11683087Y-13383174D02*
X11702134Y-13373650D01*
X11702134Y-13373650D02*
X11730706Y-13373650D01*
X11730706Y-13373650D02*
X11749753Y-13383174D01*
X11749753Y-13383174D02*
X11759277Y-13392698D01*
X11759277Y-13392698D02*
X11768801Y-13411746D01*
X11768801Y-13411746D02*
X11768801Y-13468888D01*
X11768801Y-13468888D02*
X11759277Y-13487936D01*
X11759277Y-13487936D02*
X11749753Y-13497460D01*
X11749753Y-13497460D02*
X11730706Y-13506984D01*
X11730706Y-13506984D02*
X11702134Y-13506984D01*
X11883087Y-13506984D02*
X11864039Y-13497460D01*
X11864039Y-13497460D02*
X11854515Y-13478412D01*
X11854515Y-13478412D02*
X11854515Y-13306984D01*
X12035468Y-13497460D02*
X12016420Y-13506984D01*
X12016420Y-13506984D02*
X11978325Y-13506984D01*
X11978325Y-13506984D02*
X11959277Y-13497460D01*
X11959277Y-13497460D02*
X11949753Y-13478412D01*
X11949753Y-13478412D02*
X11949753Y-13402222D01*
X11949753Y-13402222D02*
X11959277Y-13383174D01*
X11959277Y-13383174D02*
X11978325Y-13373650D01*
X11978325Y-13373650D02*
X12016420Y-13373650D01*
X12016420Y-13373650D02*
X12035468Y-13383174D01*
X12035468Y-13383174D02*
X12044991Y-13402222D01*
X12044991Y-13402222D02*
X12044991Y-13421269D01*
X12044991Y-13421269D02*
X11949753Y-13440317D01*
X12121182Y-13497460D02*
X12140230Y-13506984D01*
X12140230Y-13506984D02*
X12178325Y-13506984D01*
X12178325Y-13506984D02*
X12197372Y-13497460D01*
X12197372Y-13497460D02*
X12206896Y-13478412D01*
X12206896Y-13478412D02*
X12206896Y-13468888D01*
X12206896Y-13468888D02*
X12197372Y-13449841D01*
X12197372Y-13449841D02*
X12178325Y-13440317D01*
X12178325Y-13440317D02*
X12149753Y-13440317D01*
X12149753Y-13440317D02*
X12130706Y-13430793D01*
X12130706Y-13430793D02*
X12121182Y-13411746D01*
X12121182Y-13411746D02*
X12121182Y-13402222D01*
X12121182Y-13402222D02*
X12130706Y-13383174D01*
X12130706Y-13383174D02*
X12149753Y-13373650D01*
X12149753Y-13373650D02*
X12178325Y-13373650D01*
X12178325Y-13373650D02*
X12197372Y-13383174D01*
X12273563Y-13583174D02*
X12283087Y-13573650D01*
X12283087Y-13573650D02*
X12302134Y-13545079D01*
X12302134Y-13545079D02*
X12311658Y-13526031D01*
X12311658Y-13526031D02*
X12321182Y-13497460D01*
X12321182Y-13497460D02*
X12330706Y-13449841D01*
X12330706Y-13449841D02*
X12330706Y-13411746D01*
X12330706Y-13411746D02*
X12321182Y-13364127D01*
X12321182Y-13364127D02*
X12311658Y-13335555D01*
X12311658Y-13335555D02*
X12302134Y-13316508D01*
X12302134Y-13316508D02*
X12283087Y-13287936D01*
X12283087Y-13287936D02*
X12273563Y-13278412D01*
X12635468Y-13583174D02*
X12625944Y-13573650D01*
X12625944Y-13573650D02*
X12606896Y-13545079D01*
X12606896Y-13545079D02*
X12597372Y-13526031D01*
X12597372Y-13526031D02*
X12587849Y-13497460D01*
X12587849Y-13497460D02*
X12578325Y-13449841D01*
X12578325Y-13449841D02*
X12578325Y-13411746D01*
X12578325Y-13411746D02*
X12587849Y-13364127D01*
X12587849Y-13364127D02*
X12597372Y-13335555D01*
X12597372Y-13335555D02*
X12606896Y-13316508D01*
X12606896Y-13316508D02*
X12625944Y-13287936D01*
X12625944Y-13287936D02*
X12635468Y-13278412D01*
X12711658Y-13373650D02*
X12711658Y-13506984D01*
X12711658Y-13392698D02*
X12721182Y-13383174D01*
X12721182Y-13383174D02*
X12740230Y-13373650D01*
X12740230Y-13373650D02*
X12768801Y-13373650D01*
X12768801Y-13373650D02*
X12787849Y-13383174D01*
X12787849Y-13383174D02*
X12797372Y-13402222D01*
X12797372Y-13402222D02*
X12797372Y-13506984D01*
X12921182Y-13506984D02*
X12902134Y-13497460D01*
X12902134Y-13497460D02*
X12892611Y-13487936D01*
X12892611Y-13487936D02*
X12883087Y-13468888D01*
X12883087Y-13468888D02*
X12883087Y-13411746D01*
X12883087Y-13411746D02*
X12892611Y-13392698D01*
X12892611Y-13392698D02*
X12902134Y-13383174D01*
X12902134Y-13383174D02*
X12921182Y-13373650D01*
X12921182Y-13373650D02*
X12949753Y-13373650D01*
X12949753Y-13373650D02*
X12968801Y-13383174D01*
X12968801Y-13383174D02*
X12978325Y-13392698D01*
X12978325Y-13392698D02*
X12987849Y-13411746D01*
X12987849Y-13411746D02*
X12987849Y-13468888D01*
X12987849Y-13468888D02*
X12978325Y-13487936D01*
X12978325Y-13487936D02*
X12968801Y-13497460D01*
X12968801Y-13497460D02*
X12949753Y-13506984D01*
X12949753Y-13506984D02*
X12921182Y-13506984D01*
X13044992Y-13373650D02*
X13121182Y-13373650D01*
X13073563Y-13306984D02*
X13073563Y-13478412D01*
X13073563Y-13478412D02*
X13083087Y-13497460D01*
X13083087Y-13497460D02*
X13102134Y-13506984D01*
X13102134Y-13506984D02*
X13121182Y-13506984D01*
X13340230Y-13373650D02*
X13340230Y-13573650D01*
X13340230Y-13383174D02*
X13359277Y-13373650D01*
X13359277Y-13373650D02*
X13397373Y-13373650D01*
X13397373Y-13373650D02*
X13416420Y-13383174D01*
X13416420Y-13383174D02*
X13425944Y-13392698D01*
X13425944Y-13392698D02*
X13435468Y-13411746D01*
X13435468Y-13411746D02*
X13435468Y-13468888D01*
X13435468Y-13468888D02*
X13425944Y-13487936D01*
X13425944Y-13487936D02*
X13416420Y-13497460D01*
X13416420Y-13497460D02*
X13397373Y-13506984D01*
X13397373Y-13506984D02*
X13359277Y-13506984D01*
X13359277Y-13506984D02*
X13340230Y-13497460D01*
X13549753Y-13506984D02*
X13530706Y-13497460D01*
X13530706Y-13497460D02*
X13521182Y-13478412D01*
X13521182Y-13478412D02*
X13521182Y-13306984D01*
X13711658Y-13506984D02*
X13711658Y-13402222D01*
X13711658Y-13402222D02*
X13702134Y-13383174D01*
X13702134Y-13383174D02*
X13683087Y-13373650D01*
X13683087Y-13373650D02*
X13644992Y-13373650D01*
X13644992Y-13373650D02*
X13625944Y-13383174D01*
X13711658Y-13497460D02*
X13692611Y-13506984D01*
X13692611Y-13506984D02*
X13644992Y-13506984D01*
X13644992Y-13506984D02*
X13625944Y-13497460D01*
X13625944Y-13497460D02*
X13616420Y-13478412D01*
X13616420Y-13478412D02*
X13616420Y-13459365D01*
X13616420Y-13459365D02*
X13625944Y-13440317D01*
X13625944Y-13440317D02*
X13644992Y-13430793D01*
X13644992Y-13430793D02*
X13692611Y-13430793D01*
X13692611Y-13430793D02*
X13711658Y-13421269D01*
X13778325Y-13373650D02*
X13854515Y-13373650D01*
X13806896Y-13306984D02*
X13806896Y-13478412D01*
X13806896Y-13478412D02*
X13816420Y-13497460D01*
X13816420Y-13497460D02*
X13835468Y-13506984D01*
X13835468Y-13506984D02*
X13854515Y-13506984D01*
X13997373Y-13497460D02*
X13978325Y-13506984D01*
X13978325Y-13506984D02*
X13940230Y-13506984D01*
X13940230Y-13506984D02*
X13921182Y-13497460D01*
X13921182Y-13497460D02*
X13911658Y-13478412D01*
X13911658Y-13478412D02*
X13911658Y-13402222D01*
X13911658Y-13402222D02*
X13921182Y-13383174D01*
X13921182Y-13383174D02*
X13940230Y-13373650D01*
X13940230Y-13373650D02*
X13978325Y-13373650D01*
X13978325Y-13373650D02*
X13997373Y-13383174D01*
X13997373Y-13383174D02*
X14006896Y-13402222D01*
X14006896Y-13402222D02*
X14006896Y-13421269D01*
X14006896Y-13421269D02*
X13911658Y-13440317D01*
X14178325Y-13506984D02*
X14178325Y-13306984D01*
X14178325Y-13497460D02*
X14159277Y-13506984D01*
X14159277Y-13506984D02*
X14121182Y-13506984D01*
X14121182Y-13506984D02*
X14102134Y-13497460D01*
X14102134Y-13497460D02*
X14092611Y-13487936D01*
X14092611Y-13487936D02*
X14083087Y-13468888D01*
X14083087Y-13468888D02*
X14083087Y-13411746D01*
X14083087Y-13411746D02*
X14092611Y-13392698D01*
X14092611Y-13392698D02*
X14102134Y-13383174D01*
X14102134Y-13383174D02*
X14121182Y-13373650D01*
X14121182Y-13373650D02*
X14159277Y-13373650D01*
X14159277Y-13373650D02*
X14178325Y-13383174D01*
X14254515Y-13583174D02*
X14264039Y-13573650D01*
X14264039Y-13573650D02*
X14283087Y-13545079D01*
X14283087Y-13545079D02*
X14292611Y-13526031D01*
X14292611Y-13526031D02*
X14302134Y-13497460D01*
X14302134Y-13497460D02*
X14311658Y-13449841D01*
X14311658Y-13449841D02*
X14311658Y-13411746D01*
X14311658Y-13411746D02*
X14302134Y-13364127D01*
X14302134Y-13364127D02*
X14292611Y-13335555D01*
X14292611Y-13335555D02*
X14283087Y-13316508D01*
X14283087Y-13316508D02*
X14264039Y-13287936D01*
X14264039Y-13287936D02*
X14254515Y-13278412D01*
D14*
X7418500Y-13599500D02*
X7418500Y-13759500D01*
X7338500Y-13679500D02*
X7498500Y-13679500D01*
D11*
X7864039Y-13770984D02*
X7749753Y-13770984D01*
X7806896Y-13770984D02*
X7806896Y-13570984D01*
X7806896Y-13570984D02*
X7787848Y-13599555D01*
X7787848Y-13599555D02*
X7768801Y-13618603D01*
X7768801Y-13618603D02*
X7749753Y-13628127D01*
X7949753Y-13751936D02*
X7959277Y-13761460D01*
X7959277Y-13761460D02*
X7949753Y-13770984D01*
X7949753Y-13770984D02*
X7940229Y-13761460D01*
X7940229Y-13761460D02*
X7949753Y-13751936D01*
X7949753Y-13751936D02*
X7949753Y-13770984D01*
X8130705Y-13570984D02*
X8092610Y-13570984D01*
X8092610Y-13570984D02*
X8073562Y-13580508D01*
X8073562Y-13580508D02*
X8064039Y-13590031D01*
X8064039Y-13590031D02*
X8044991Y-13618603D01*
X8044991Y-13618603D02*
X8035467Y-13656698D01*
X8035467Y-13656698D02*
X8035467Y-13732888D01*
X8035467Y-13732888D02*
X8044991Y-13751936D01*
X8044991Y-13751936D02*
X8054515Y-13761460D01*
X8054515Y-13761460D02*
X8073562Y-13770984D01*
X8073562Y-13770984D02*
X8111658Y-13770984D01*
X8111658Y-13770984D02*
X8130705Y-13761460D01*
X8130705Y-13761460D02*
X8140229Y-13751936D01*
X8140229Y-13751936D02*
X8149753Y-13732888D01*
X8149753Y-13732888D02*
X8149753Y-13685269D01*
X8149753Y-13685269D02*
X8140229Y-13666222D01*
X8140229Y-13666222D02*
X8130705Y-13656698D01*
X8130705Y-13656698D02*
X8111658Y-13647174D01*
X8111658Y-13647174D02*
X8073562Y-13647174D01*
X8073562Y-13647174D02*
X8054515Y-13656698D01*
X8054515Y-13656698D02*
X8044991Y-13666222D01*
X8044991Y-13666222D02*
X8035467Y-13685269D01*
X8273562Y-13570984D02*
X8292610Y-13570984D01*
X8292610Y-13570984D02*
X8311658Y-13580508D01*
X8311658Y-13580508D02*
X8321182Y-13590031D01*
X8321182Y-13590031D02*
X8330705Y-13609079D01*
X8330705Y-13609079D02*
X8340229Y-13647174D01*
X8340229Y-13647174D02*
X8340229Y-13694793D01*
X8340229Y-13694793D02*
X8330705Y-13732888D01*
X8330705Y-13732888D02*
X8321182Y-13751936D01*
X8321182Y-13751936D02*
X8311658Y-13761460D01*
X8311658Y-13761460D02*
X8292610Y-13770984D01*
X8292610Y-13770984D02*
X8273562Y-13770984D01*
X8273562Y-13770984D02*
X8254515Y-13761460D01*
X8254515Y-13761460D02*
X8244991Y-13751936D01*
X8244991Y-13751936D02*
X8235467Y-13732888D01*
X8235467Y-13732888D02*
X8225943Y-13694793D01*
X8225943Y-13694793D02*
X8225943Y-13647174D01*
X8225943Y-13647174D02*
X8235467Y-13609079D01*
X8235467Y-13609079D02*
X8244991Y-13590031D01*
X8244991Y-13590031D02*
X8254515Y-13580508D01*
X8254515Y-13580508D02*
X8273562Y-13570984D01*
X8464039Y-13570984D02*
X8483086Y-13570984D01*
X8483086Y-13570984D02*
X8502134Y-13580508D01*
X8502134Y-13580508D02*
X8511658Y-13590031D01*
X8511658Y-13590031D02*
X8521182Y-13609079D01*
X8521182Y-13609079D02*
X8530705Y-13647174D01*
X8530705Y-13647174D02*
X8530705Y-13694793D01*
X8530705Y-13694793D02*
X8521182Y-13732888D01*
X8521182Y-13732888D02*
X8511658Y-13751936D01*
X8511658Y-13751936D02*
X8502134Y-13761460D01*
X8502134Y-13761460D02*
X8483086Y-13770984D01*
X8483086Y-13770984D02*
X8464039Y-13770984D01*
X8464039Y-13770984D02*
X8444991Y-13761460D01*
X8444991Y-13761460D02*
X8435467Y-13751936D01*
X8435467Y-13751936D02*
X8425944Y-13732888D01*
X8425944Y-13732888D02*
X8416420Y-13694793D01*
X8416420Y-13694793D02*
X8416420Y-13647174D01*
X8416420Y-13647174D02*
X8425944Y-13609079D01*
X8425944Y-13609079D02*
X8435467Y-13590031D01*
X8435467Y-13590031D02*
X8444991Y-13580508D01*
X8444991Y-13580508D02*
X8464039Y-13570984D01*
X8616420Y-13770984D02*
X8616420Y-13637650D01*
X8616420Y-13656698D02*
X8625944Y-13647174D01*
X8625944Y-13647174D02*
X8644991Y-13637650D01*
X8644991Y-13637650D02*
X8673563Y-13637650D01*
X8673563Y-13637650D02*
X8692610Y-13647174D01*
X8692610Y-13647174D02*
X8702134Y-13666222D01*
X8702134Y-13666222D02*
X8702134Y-13770984D01*
X8702134Y-13666222D02*
X8711658Y-13647174D01*
X8711658Y-13647174D02*
X8730705Y-13637650D01*
X8730705Y-13637650D02*
X8759277Y-13637650D01*
X8759277Y-13637650D02*
X8778325Y-13647174D01*
X8778325Y-13647174D02*
X8787848Y-13666222D01*
X8787848Y-13666222D02*
X8787848Y-13770984D01*
X8883086Y-13770984D02*
X8883086Y-13637650D01*
X8883086Y-13656698D02*
X8892610Y-13647174D01*
X8892610Y-13647174D02*
X8911658Y-13637650D01*
X8911658Y-13637650D02*
X8940229Y-13637650D01*
X8940229Y-13637650D02*
X8959277Y-13647174D01*
X8959277Y-13647174D02*
X8968801Y-13666222D01*
X8968801Y-13666222D02*
X8968801Y-13770984D01*
X8968801Y-13666222D02*
X8978325Y-13647174D01*
X8978325Y-13647174D02*
X8997372Y-13637650D01*
X8997372Y-13637650D02*
X9025944Y-13637650D01*
X9025944Y-13637650D02*
X9044991Y-13647174D01*
X9044991Y-13647174D02*
X9054515Y-13666222D01*
X9054515Y-13666222D02*
X9054515Y-13770984D01*
X9444991Y-13561460D02*
X9273563Y-13818603D01*
X9702134Y-13570984D02*
X9721182Y-13570984D01*
X9721182Y-13570984D02*
X9740229Y-13580508D01*
X9740229Y-13580508D02*
X9749753Y-13590031D01*
X9749753Y-13590031D02*
X9759277Y-13609079D01*
X9759277Y-13609079D02*
X9768801Y-13647174D01*
X9768801Y-13647174D02*
X9768801Y-13694793D01*
X9768801Y-13694793D02*
X9759277Y-13732888D01*
X9759277Y-13732888D02*
X9749753Y-13751936D01*
X9749753Y-13751936D02*
X9740229Y-13761460D01*
X9740229Y-13761460D02*
X9721182Y-13770984D01*
X9721182Y-13770984D02*
X9702134Y-13770984D01*
X9702134Y-13770984D02*
X9683087Y-13761460D01*
X9683087Y-13761460D02*
X9673563Y-13751936D01*
X9673563Y-13751936D02*
X9664039Y-13732888D01*
X9664039Y-13732888D02*
X9654515Y-13694793D01*
X9654515Y-13694793D02*
X9654515Y-13647174D01*
X9654515Y-13647174D02*
X9664039Y-13609079D01*
X9664039Y-13609079D02*
X9673563Y-13590031D01*
X9673563Y-13590031D02*
X9683087Y-13580508D01*
X9683087Y-13580508D02*
X9702134Y-13570984D01*
X9854515Y-13751936D02*
X9864039Y-13761460D01*
X9864039Y-13761460D02*
X9854515Y-13770984D01*
X9854515Y-13770984D02*
X9844991Y-13761460D01*
X9844991Y-13761460D02*
X9854515Y-13751936D01*
X9854515Y-13751936D02*
X9854515Y-13770984D01*
X9987848Y-13570984D02*
X10006896Y-13570984D01*
X10006896Y-13570984D02*
X10025944Y-13580508D01*
X10025944Y-13580508D02*
X10035468Y-13590031D01*
X10035468Y-13590031D02*
X10044991Y-13609079D01*
X10044991Y-13609079D02*
X10054515Y-13647174D01*
X10054515Y-13647174D02*
X10054515Y-13694793D01*
X10054515Y-13694793D02*
X10044991Y-13732888D01*
X10044991Y-13732888D02*
X10035468Y-13751936D01*
X10035468Y-13751936D02*
X10025944Y-13761460D01*
X10025944Y-13761460D02*
X10006896Y-13770984D01*
X10006896Y-13770984D02*
X9987848Y-13770984D01*
X9987848Y-13770984D02*
X9968801Y-13761460D01*
X9968801Y-13761460D02*
X9959277Y-13751936D01*
X9959277Y-13751936D02*
X9949753Y-13732888D01*
X9949753Y-13732888D02*
X9940229Y-13694793D01*
X9940229Y-13694793D02*
X9940229Y-13647174D01*
X9940229Y-13647174D02*
X9949753Y-13609079D01*
X9949753Y-13609079D02*
X9959277Y-13590031D01*
X9959277Y-13590031D02*
X9968801Y-13580508D01*
X9968801Y-13580508D02*
X9987848Y-13570984D01*
X10225944Y-13570984D02*
X10187848Y-13570984D01*
X10187848Y-13570984D02*
X10168801Y-13580508D01*
X10168801Y-13580508D02*
X10159277Y-13590031D01*
X10159277Y-13590031D02*
X10140229Y-13618603D01*
X10140229Y-13618603D02*
X10130706Y-13656698D01*
X10130706Y-13656698D02*
X10130706Y-13732888D01*
X10130706Y-13732888D02*
X10140229Y-13751936D01*
X10140229Y-13751936D02*
X10149753Y-13761460D01*
X10149753Y-13761460D02*
X10168801Y-13770984D01*
X10168801Y-13770984D02*
X10206896Y-13770984D01*
X10206896Y-13770984D02*
X10225944Y-13761460D01*
X10225944Y-13761460D02*
X10235468Y-13751936D01*
X10235468Y-13751936D02*
X10244991Y-13732888D01*
X10244991Y-13732888D02*
X10244991Y-13685269D01*
X10244991Y-13685269D02*
X10235468Y-13666222D01*
X10235468Y-13666222D02*
X10225944Y-13656698D01*
X10225944Y-13656698D02*
X10206896Y-13647174D01*
X10206896Y-13647174D02*
X10168801Y-13647174D01*
X10168801Y-13647174D02*
X10149753Y-13656698D01*
X10149753Y-13656698D02*
X10140229Y-13666222D01*
X10140229Y-13666222D02*
X10130706Y-13685269D01*
X10311658Y-13570984D02*
X10435468Y-13570984D01*
X10435468Y-13570984D02*
X10368801Y-13647174D01*
X10368801Y-13647174D02*
X10397372Y-13647174D01*
X10397372Y-13647174D02*
X10416420Y-13656698D01*
X10416420Y-13656698D02*
X10425944Y-13666222D01*
X10425944Y-13666222D02*
X10435468Y-13685269D01*
X10435468Y-13685269D02*
X10435468Y-13732888D01*
X10435468Y-13732888D02*
X10425944Y-13751936D01*
X10425944Y-13751936D02*
X10416420Y-13761460D01*
X10416420Y-13761460D02*
X10397372Y-13770984D01*
X10397372Y-13770984D02*
X10340229Y-13770984D01*
X10340229Y-13770984D02*
X10321182Y-13761460D01*
X10321182Y-13761460D02*
X10311658Y-13751936D01*
X10559277Y-13570984D02*
X10578325Y-13570984D01*
X10578325Y-13570984D02*
X10597372Y-13580508D01*
X10597372Y-13580508D02*
X10606896Y-13590031D01*
X10606896Y-13590031D02*
X10616420Y-13609079D01*
X10616420Y-13609079D02*
X10625944Y-13647174D01*
X10625944Y-13647174D02*
X10625944Y-13694793D01*
X10625944Y-13694793D02*
X10616420Y-13732888D01*
X10616420Y-13732888D02*
X10606896Y-13751936D01*
X10606896Y-13751936D02*
X10597372Y-13761460D01*
X10597372Y-13761460D02*
X10578325Y-13770984D01*
X10578325Y-13770984D02*
X10559277Y-13770984D01*
X10559277Y-13770984D02*
X10540229Y-13761460D01*
X10540229Y-13761460D02*
X10530706Y-13751936D01*
X10530706Y-13751936D02*
X10521182Y-13732888D01*
X10521182Y-13732888D02*
X10511658Y-13694793D01*
X10511658Y-13694793D02*
X10511658Y-13647174D01*
X10511658Y-13647174D02*
X10521182Y-13609079D01*
X10521182Y-13609079D02*
X10530706Y-13590031D01*
X10530706Y-13590031D02*
X10540229Y-13580508D01*
X10540229Y-13580508D02*
X10559277Y-13570984D01*
X10702134Y-13570984D02*
X10702134Y-13609079D01*
X10778325Y-13570984D02*
X10778325Y-13609079D01*
X11073563Y-13847174D02*
X11064039Y-13837650D01*
X11064039Y-13837650D02*
X11044991Y-13809079D01*
X11044991Y-13809079D02*
X11035468Y-13790031D01*
X11035468Y-13790031D02*
X11025944Y-13761460D01*
X11025944Y-13761460D02*
X11016420Y-13713841D01*
X11016420Y-13713841D02*
X11016420Y-13675746D01*
X11016420Y-13675746D02*
X11025944Y-13628127D01*
X11025944Y-13628127D02*
X11035468Y-13599555D01*
X11035468Y-13599555D02*
X11044991Y-13580508D01*
X11044991Y-13580508D02*
X11064039Y-13551936D01*
X11064039Y-13551936D02*
X11073563Y-13542412D01*
X11140230Y-13590031D02*
X11149753Y-13580508D01*
X11149753Y-13580508D02*
X11168801Y-13570984D01*
X11168801Y-13570984D02*
X11216420Y-13570984D01*
X11216420Y-13570984D02*
X11235468Y-13580508D01*
X11235468Y-13580508D02*
X11244991Y-13590031D01*
X11244991Y-13590031D02*
X11254515Y-13609079D01*
X11254515Y-13609079D02*
X11254515Y-13628127D01*
X11254515Y-13628127D02*
X11244991Y-13656698D01*
X11244991Y-13656698D02*
X11130706Y-13770984D01*
X11130706Y-13770984D02*
X11254515Y-13770984D01*
X11492610Y-13770984D02*
X11492610Y-13570984D01*
X11578325Y-13770984D02*
X11578325Y-13666222D01*
X11578325Y-13666222D02*
X11568801Y-13647174D01*
X11568801Y-13647174D02*
X11549753Y-13637650D01*
X11549753Y-13637650D02*
X11521182Y-13637650D01*
X11521182Y-13637650D02*
X11502134Y-13647174D01*
X11502134Y-13647174D02*
X11492610Y-13656698D01*
X11702134Y-13770984D02*
X11683087Y-13761460D01*
X11683087Y-13761460D02*
X11673563Y-13751936D01*
X11673563Y-13751936D02*
X11664039Y-13732888D01*
X11664039Y-13732888D02*
X11664039Y-13675746D01*
X11664039Y-13675746D02*
X11673563Y-13656698D01*
X11673563Y-13656698D02*
X11683087Y-13647174D01*
X11683087Y-13647174D02*
X11702134Y-13637650D01*
X11702134Y-13637650D02*
X11730706Y-13637650D01*
X11730706Y-13637650D02*
X11749753Y-13647174D01*
X11749753Y-13647174D02*
X11759277Y-13656698D01*
X11759277Y-13656698D02*
X11768801Y-13675746D01*
X11768801Y-13675746D02*
X11768801Y-13732888D01*
X11768801Y-13732888D02*
X11759277Y-13751936D01*
X11759277Y-13751936D02*
X11749753Y-13761460D01*
X11749753Y-13761460D02*
X11730706Y-13770984D01*
X11730706Y-13770984D02*
X11702134Y-13770984D01*
X11883087Y-13770984D02*
X11864039Y-13761460D01*
X11864039Y-13761460D02*
X11854515Y-13742412D01*
X11854515Y-13742412D02*
X11854515Y-13570984D01*
X12035468Y-13761460D02*
X12016420Y-13770984D01*
X12016420Y-13770984D02*
X11978325Y-13770984D01*
X11978325Y-13770984D02*
X11959277Y-13761460D01*
X11959277Y-13761460D02*
X11949753Y-13742412D01*
X11949753Y-13742412D02*
X11949753Y-13666222D01*
X11949753Y-13666222D02*
X11959277Y-13647174D01*
X11959277Y-13647174D02*
X11978325Y-13637650D01*
X11978325Y-13637650D02*
X12016420Y-13637650D01*
X12016420Y-13637650D02*
X12035468Y-13647174D01*
X12035468Y-13647174D02*
X12044991Y-13666222D01*
X12044991Y-13666222D02*
X12044991Y-13685269D01*
X12044991Y-13685269D02*
X11949753Y-13704317D01*
X12121182Y-13761460D02*
X12140230Y-13770984D01*
X12140230Y-13770984D02*
X12178325Y-13770984D01*
X12178325Y-13770984D02*
X12197372Y-13761460D01*
X12197372Y-13761460D02*
X12206896Y-13742412D01*
X12206896Y-13742412D02*
X12206896Y-13732888D01*
X12206896Y-13732888D02*
X12197372Y-13713841D01*
X12197372Y-13713841D02*
X12178325Y-13704317D01*
X12178325Y-13704317D02*
X12149753Y-13704317D01*
X12149753Y-13704317D02*
X12130706Y-13694793D01*
X12130706Y-13694793D02*
X12121182Y-13675746D01*
X12121182Y-13675746D02*
X12121182Y-13666222D01*
X12121182Y-13666222D02*
X12130706Y-13647174D01*
X12130706Y-13647174D02*
X12149753Y-13637650D01*
X12149753Y-13637650D02*
X12178325Y-13637650D01*
X12178325Y-13637650D02*
X12197372Y-13647174D01*
X12273563Y-13847174D02*
X12283087Y-13837650D01*
X12283087Y-13837650D02*
X12302134Y-13809079D01*
X12302134Y-13809079D02*
X12311658Y-13790031D01*
X12311658Y-13790031D02*
X12321182Y-13761460D01*
X12321182Y-13761460D02*
X12330706Y-13713841D01*
X12330706Y-13713841D02*
X12330706Y-13675746D01*
X12330706Y-13675746D02*
X12321182Y-13628127D01*
X12321182Y-13628127D02*
X12311658Y-13599555D01*
X12311658Y-13599555D02*
X12302134Y-13580508D01*
X12302134Y-13580508D02*
X12283087Y-13551936D01*
X12283087Y-13551936D02*
X12273563Y-13542412D01*
X12635468Y-13847174D02*
X12625944Y-13837650D01*
X12625944Y-13837650D02*
X12606896Y-13809079D01*
X12606896Y-13809079D02*
X12597372Y-13790031D01*
X12597372Y-13790031D02*
X12587849Y-13761460D01*
X12587849Y-13761460D02*
X12578325Y-13713841D01*
X12578325Y-13713841D02*
X12578325Y-13675746D01*
X12578325Y-13675746D02*
X12587849Y-13628127D01*
X12587849Y-13628127D02*
X12597372Y-13599555D01*
X12597372Y-13599555D02*
X12606896Y-13580508D01*
X12606896Y-13580508D02*
X12625944Y-13551936D01*
X12625944Y-13551936D02*
X12635468Y-13542412D01*
X12711658Y-13637650D02*
X12711658Y-13770984D01*
X12711658Y-13656698D02*
X12721182Y-13647174D01*
X12721182Y-13647174D02*
X12740230Y-13637650D01*
X12740230Y-13637650D02*
X12768801Y-13637650D01*
X12768801Y-13637650D02*
X12787849Y-13647174D01*
X12787849Y-13647174D02*
X12797372Y-13666222D01*
X12797372Y-13666222D02*
X12797372Y-13770984D01*
X12921182Y-13770984D02*
X12902134Y-13761460D01*
X12902134Y-13761460D02*
X12892611Y-13751936D01*
X12892611Y-13751936D02*
X12883087Y-13732888D01*
X12883087Y-13732888D02*
X12883087Y-13675746D01*
X12883087Y-13675746D02*
X12892611Y-13656698D01*
X12892611Y-13656698D02*
X12902134Y-13647174D01*
X12902134Y-13647174D02*
X12921182Y-13637650D01*
X12921182Y-13637650D02*
X12949753Y-13637650D01*
X12949753Y-13637650D02*
X12968801Y-13647174D01*
X12968801Y-13647174D02*
X12978325Y-13656698D01*
X12978325Y-13656698D02*
X12987849Y-13675746D01*
X12987849Y-13675746D02*
X12987849Y-13732888D01*
X12987849Y-13732888D02*
X12978325Y-13751936D01*
X12978325Y-13751936D02*
X12968801Y-13761460D01*
X12968801Y-13761460D02*
X12949753Y-13770984D01*
X12949753Y-13770984D02*
X12921182Y-13770984D01*
X13044992Y-13637650D02*
X13121182Y-13637650D01*
X13073563Y-13570984D02*
X13073563Y-13742412D01*
X13073563Y-13742412D02*
X13083087Y-13761460D01*
X13083087Y-13761460D02*
X13102134Y-13770984D01*
X13102134Y-13770984D02*
X13121182Y-13770984D01*
X13340230Y-13637650D02*
X13340230Y-13837650D01*
X13340230Y-13647174D02*
X13359277Y-13637650D01*
X13359277Y-13637650D02*
X13397373Y-13637650D01*
X13397373Y-13637650D02*
X13416420Y-13647174D01*
X13416420Y-13647174D02*
X13425944Y-13656698D01*
X13425944Y-13656698D02*
X13435468Y-13675746D01*
X13435468Y-13675746D02*
X13435468Y-13732888D01*
X13435468Y-13732888D02*
X13425944Y-13751936D01*
X13425944Y-13751936D02*
X13416420Y-13761460D01*
X13416420Y-13761460D02*
X13397373Y-13770984D01*
X13397373Y-13770984D02*
X13359277Y-13770984D01*
X13359277Y-13770984D02*
X13340230Y-13761460D01*
X13549753Y-13770984D02*
X13530706Y-13761460D01*
X13530706Y-13761460D02*
X13521182Y-13742412D01*
X13521182Y-13742412D02*
X13521182Y-13570984D01*
X13711658Y-13770984D02*
X13711658Y-13666222D01*
X13711658Y-13666222D02*
X13702134Y-13647174D01*
X13702134Y-13647174D02*
X13683087Y-13637650D01*
X13683087Y-13637650D02*
X13644992Y-13637650D01*
X13644992Y-13637650D02*
X13625944Y-13647174D01*
X13711658Y-13761460D02*
X13692611Y-13770984D01*
X13692611Y-13770984D02*
X13644992Y-13770984D01*
X13644992Y-13770984D02*
X13625944Y-13761460D01*
X13625944Y-13761460D02*
X13616420Y-13742412D01*
X13616420Y-13742412D02*
X13616420Y-13723365D01*
X13616420Y-13723365D02*
X13625944Y-13704317D01*
X13625944Y-13704317D02*
X13644992Y-13694793D01*
X13644992Y-13694793D02*
X13692611Y-13694793D01*
X13692611Y-13694793D02*
X13711658Y-13685269D01*
X13778325Y-13637650D02*
X13854515Y-13637650D01*
X13806896Y-13570984D02*
X13806896Y-13742412D01*
X13806896Y-13742412D02*
X13816420Y-13761460D01*
X13816420Y-13761460D02*
X13835468Y-13770984D01*
X13835468Y-13770984D02*
X13854515Y-13770984D01*
X13997373Y-13761460D02*
X13978325Y-13770984D01*
X13978325Y-13770984D02*
X13940230Y-13770984D01*
X13940230Y-13770984D02*
X13921182Y-13761460D01*
X13921182Y-13761460D02*
X13911658Y-13742412D01*
X13911658Y-13742412D02*
X13911658Y-13666222D01*
X13911658Y-13666222D02*
X13921182Y-13647174D01*
X13921182Y-13647174D02*
X13940230Y-13637650D01*
X13940230Y-13637650D02*
X13978325Y-13637650D01*
X13978325Y-13637650D02*
X13997373Y-13647174D01*
X13997373Y-13647174D02*
X14006896Y-13666222D01*
X14006896Y-13666222D02*
X14006896Y-13685269D01*
X14006896Y-13685269D02*
X13911658Y-13704317D01*
X14178325Y-13770984D02*
X14178325Y-13570984D01*
X14178325Y-13761460D02*
X14159277Y-13770984D01*
X14159277Y-13770984D02*
X14121182Y-13770984D01*
X14121182Y-13770984D02*
X14102134Y-13761460D01*
X14102134Y-13761460D02*
X14092611Y-13751936D01*
X14092611Y-13751936D02*
X14083087Y-13732888D01*
X14083087Y-13732888D02*
X14083087Y-13675746D01*
X14083087Y-13675746D02*
X14092611Y-13656698D01*
X14092611Y-13656698D02*
X14102134Y-13647174D01*
X14102134Y-13647174D02*
X14121182Y-13637650D01*
X14121182Y-13637650D02*
X14159277Y-13637650D01*
X14159277Y-13637650D02*
X14178325Y-13647174D01*
X14254515Y-13847174D02*
X14264039Y-13837650D01*
X14264039Y-13837650D02*
X14283087Y-13809079D01*
X14283087Y-13809079D02*
X14292611Y-13790031D01*
X14292611Y-13790031D02*
X14302134Y-13761460D01*
X14302134Y-13761460D02*
X14311658Y-13713841D01*
X14311658Y-13713841D02*
X14311658Y-13675746D01*
X14311658Y-13675746D02*
X14302134Y-13628127D01*
X14302134Y-13628127D02*
X14292611Y-13599555D01*
X14292611Y-13599555D02*
X14283087Y-13580508D01*
X14283087Y-13580508D02*
X14264039Y-13551936D01*
X14264039Y-13551936D02*
X14254515Y-13542412D01*
X7469211Y-14030211D02*
X7469211Y-13888789D01*
X7327789Y-13888789D01*
X7327789Y-14030211D01*
X7469211Y-14030211D01*
X7749753Y-13870031D02*
X7759277Y-13860508D01*
X7759277Y-13860508D02*
X7778324Y-13850984D01*
X7778324Y-13850984D02*
X7825943Y-13850984D01*
X7825943Y-13850984D02*
X7844991Y-13860508D01*
X7844991Y-13860508D02*
X7854515Y-13870031D01*
X7854515Y-13870031D02*
X7864039Y-13889079D01*
X7864039Y-13889079D02*
X7864039Y-13908127D01*
X7864039Y-13908127D02*
X7854515Y-13936698D01*
X7854515Y-13936698D02*
X7740229Y-14050984D01*
X7740229Y-14050984D02*
X7864039Y-14050984D01*
X7949753Y-14031936D02*
X7959277Y-14041460D01*
X7959277Y-14041460D02*
X7949753Y-14050984D01*
X7949753Y-14050984D02*
X7940229Y-14041460D01*
X7940229Y-14041460D02*
X7949753Y-14031936D01*
X7949753Y-14031936D02*
X7949753Y-14050984D01*
X8083086Y-13850984D02*
X8102134Y-13850984D01*
X8102134Y-13850984D02*
X8121182Y-13860508D01*
X8121182Y-13860508D02*
X8130705Y-13870031D01*
X8130705Y-13870031D02*
X8140229Y-13889079D01*
X8140229Y-13889079D02*
X8149753Y-13927174D01*
X8149753Y-13927174D02*
X8149753Y-13974793D01*
X8149753Y-13974793D02*
X8140229Y-14012888D01*
X8140229Y-14012888D02*
X8130705Y-14031936D01*
X8130705Y-14031936D02*
X8121182Y-14041460D01*
X8121182Y-14041460D02*
X8102134Y-14050984D01*
X8102134Y-14050984D02*
X8083086Y-14050984D01*
X8083086Y-14050984D02*
X8064039Y-14041460D01*
X8064039Y-14041460D02*
X8054515Y-14031936D01*
X8054515Y-14031936D02*
X8044991Y-14012888D01*
X8044991Y-14012888D02*
X8035467Y-13974793D01*
X8035467Y-13974793D02*
X8035467Y-13927174D01*
X8035467Y-13927174D02*
X8044991Y-13889079D01*
X8044991Y-13889079D02*
X8054515Y-13870031D01*
X8054515Y-13870031D02*
X8064039Y-13860508D01*
X8064039Y-13860508D02*
X8083086Y-13850984D01*
X8273562Y-13850984D02*
X8292610Y-13850984D01*
X8292610Y-13850984D02*
X8311658Y-13860508D01*
X8311658Y-13860508D02*
X8321182Y-13870031D01*
X8321182Y-13870031D02*
X8330705Y-13889079D01*
X8330705Y-13889079D02*
X8340229Y-13927174D01*
X8340229Y-13927174D02*
X8340229Y-13974793D01*
X8340229Y-13974793D02*
X8330705Y-14012888D01*
X8330705Y-14012888D02*
X8321182Y-14031936D01*
X8321182Y-14031936D02*
X8311658Y-14041460D01*
X8311658Y-14041460D02*
X8292610Y-14050984D01*
X8292610Y-14050984D02*
X8273562Y-14050984D01*
X8273562Y-14050984D02*
X8254515Y-14041460D01*
X8254515Y-14041460D02*
X8244991Y-14031936D01*
X8244991Y-14031936D02*
X8235467Y-14012888D01*
X8235467Y-14012888D02*
X8225943Y-13974793D01*
X8225943Y-13974793D02*
X8225943Y-13927174D01*
X8225943Y-13927174D02*
X8235467Y-13889079D01*
X8235467Y-13889079D02*
X8244991Y-13870031D01*
X8244991Y-13870031D02*
X8254515Y-13860508D01*
X8254515Y-13860508D02*
X8273562Y-13850984D01*
X8464039Y-13850984D02*
X8483086Y-13850984D01*
X8483086Y-13850984D02*
X8502134Y-13860508D01*
X8502134Y-13860508D02*
X8511658Y-13870031D01*
X8511658Y-13870031D02*
X8521182Y-13889079D01*
X8521182Y-13889079D02*
X8530705Y-13927174D01*
X8530705Y-13927174D02*
X8530705Y-13974793D01*
X8530705Y-13974793D02*
X8521182Y-14012888D01*
X8521182Y-14012888D02*
X8511658Y-14031936D01*
X8511658Y-14031936D02*
X8502134Y-14041460D01*
X8502134Y-14041460D02*
X8483086Y-14050984D01*
X8483086Y-14050984D02*
X8464039Y-14050984D01*
X8464039Y-14050984D02*
X8444991Y-14041460D01*
X8444991Y-14041460D02*
X8435467Y-14031936D01*
X8435467Y-14031936D02*
X8425944Y-14012888D01*
X8425944Y-14012888D02*
X8416420Y-13974793D01*
X8416420Y-13974793D02*
X8416420Y-13927174D01*
X8416420Y-13927174D02*
X8425944Y-13889079D01*
X8425944Y-13889079D02*
X8435467Y-13870031D01*
X8435467Y-13870031D02*
X8444991Y-13860508D01*
X8444991Y-13860508D02*
X8464039Y-13850984D01*
X8616420Y-14050984D02*
X8616420Y-13917650D01*
X8616420Y-13936698D02*
X8625944Y-13927174D01*
X8625944Y-13927174D02*
X8644991Y-13917650D01*
X8644991Y-13917650D02*
X8673563Y-13917650D01*
X8673563Y-13917650D02*
X8692610Y-13927174D01*
X8692610Y-13927174D02*
X8702134Y-13946222D01*
X8702134Y-13946222D02*
X8702134Y-14050984D01*
X8702134Y-13946222D02*
X8711658Y-13927174D01*
X8711658Y-13927174D02*
X8730705Y-13917650D01*
X8730705Y-13917650D02*
X8759277Y-13917650D01*
X8759277Y-13917650D02*
X8778325Y-13927174D01*
X8778325Y-13927174D02*
X8787848Y-13946222D01*
X8787848Y-13946222D02*
X8787848Y-14050984D01*
X8883086Y-14050984D02*
X8883086Y-13917650D01*
X8883086Y-13936698D02*
X8892610Y-13927174D01*
X8892610Y-13927174D02*
X8911658Y-13917650D01*
X8911658Y-13917650D02*
X8940229Y-13917650D01*
X8940229Y-13917650D02*
X8959277Y-13927174D01*
X8959277Y-13927174D02*
X8968801Y-13946222D01*
X8968801Y-13946222D02*
X8968801Y-14050984D01*
X8968801Y-13946222D02*
X8978325Y-13927174D01*
X8978325Y-13927174D02*
X8997372Y-13917650D01*
X8997372Y-13917650D02*
X9025944Y-13917650D01*
X9025944Y-13917650D02*
X9044991Y-13927174D01*
X9044991Y-13927174D02*
X9054515Y-13946222D01*
X9054515Y-13946222D02*
X9054515Y-14050984D01*
X9444991Y-13841460D02*
X9273563Y-14098603D01*
X9702134Y-13850984D02*
X9721182Y-13850984D01*
X9721182Y-13850984D02*
X9740229Y-13860508D01*
X9740229Y-13860508D02*
X9749753Y-13870031D01*
X9749753Y-13870031D02*
X9759277Y-13889079D01*
X9759277Y-13889079D02*
X9768801Y-13927174D01*
X9768801Y-13927174D02*
X9768801Y-13974793D01*
X9768801Y-13974793D02*
X9759277Y-14012888D01*
X9759277Y-14012888D02*
X9749753Y-14031936D01*
X9749753Y-14031936D02*
X9740229Y-14041460D01*
X9740229Y-14041460D02*
X9721182Y-14050984D01*
X9721182Y-14050984D02*
X9702134Y-14050984D01*
X9702134Y-14050984D02*
X9683087Y-14041460D01*
X9683087Y-14041460D02*
X9673563Y-14031936D01*
X9673563Y-14031936D02*
X9664039Y-14012888D01*
X9664039Y-14012888D02*
X9654515Y-13974793D01*
X9654515Y-13974793D02*
X9654515Y-13927174D01*
X9654515Y-13927174D02*
X9664039Y-13889079D01*
X9664039Y-13889079D02*
X9673563Y-13870031D01*
X9673563Y-13870031D02*
X9683087Y-13860508D01*
X9683087Y-13860508D02*
X9702134Y-13850984D01*
X9854515Y-14031936D02*
X9864039Y-14041460D01*
X9864039Y-14041460D02*
X9854515Y-14050984D01*
X9854515Y-14050984D02*
X9844991Y-14041460D01*
X9844991Y-14041460D02*
X9854515Y-14031936D01*
X9854515Y-14031936D02*
X9854515Y-14050984D01*
X9987848Y-13850984D02*
X10006896Y-13850984D01*
X10006896Y-13850984D02*
X10025944Y-13860508D01*
X10025944Y-13860508D02*
X10035468Y-13870031D01*
X10035468Y-13870031D02*
X10044991Y-13889079D01*
X10044991Y-13889079D02*
X10054515Y-13927174D01*
X10054515Y-13927174D02*
X10054515Y-13974793D01*
X10054515Y-13974793D02*
X10044991Y-14012888D01*
X10044991Y-14012888D02*
X10035468Y-14031936D01*
X10035468Y-14031936D02*
X10025944Y-14041460D01*
X10025944Y-14041460D02*
X10006896Y-14050984D01*
X10006896Y-14050984D02*
X9987848Y-14050984D01*
X9987848Y-14050984D02*
X9968801Y-14041460D01*
X9968801Y-14041460D02*
X9959277Y-14031936D01*
X9959277Y-14031936D02*
X9949753Y-14012888D01*
X9949753Y-14012888D02*
X9940229Y-13974793D01*
X9940229Y-13974793D02*
X9940229Y-13927174D01*
X9940229Y-13927174D02*
X9949753Y-13889079D01*
X9949753Y-13889079D02*
X9959277Y-13870031D01*
X9959277Y-13870031D02*
X9968801Y-13860508D01*
X9968801Y-13860508D02*
X9987848Y-13850984D01*
X10121182Y-13850984D02*
X10254515Y-13850984D01*
X10254515Y-13850984D02*
X10168801Y-14050984D01*
X10359277Y-13936698D02*
X10340229Y-13927174D01*
X10340229Y-13927174D02*
X10330706Y-13917650D01*
X10330706Y-13917650D02*
X10321182Y-13898603D01*
X10321182Y-13898603D02*
X10321182Y-13889079D01*
X10321182Y-13889079D02*
X10330706Y-13870031D01*
X10330706Y-13870031D02*
X10340229Y-13860508D01*
X10340229Y-13860508D02*
X10359277Y-13850984D01*
X10359277Y-13850984D02*
X10397372Y-13850984D01*
X10397372Y-13850984D02*
X10416420Y-13860508D01*
X10416420Y-13860508D02*
X10425944Y-13870031D01*
X10425944Y-13870031D02*
X10435468Y-13889079D01*
X10435468Y-13889079D02*
X10435468Y-13898603D01*
X10435468Y-13898603D02*
X10425944Y-13917650D01*
X10425944Y-13917650D02*
X10416420Y-13927174D01*
X10416420Y-13927174D02*
X10397372Y-13936698D01*
X10397372Y-13936698D02*
X10359277Y-13936698D01*
X10359277Y-13936698D02*
X10340229Y-13946222D01*
X10340229Y-13946222D02*
X10330706Y-13955746D01*
X10330706Y-13955746D02*
X10321182Y-13974793D01*
X10321182Y-13974793D02*
X10321182Y-14012888D01*
X10321182Y-14012888D02*
X10330706Y-14031936D01*
X10330706Y-14031936D02*
X10340229Y-14041460D01*
X10340229Y-14041460D02*
X10359277Y-14050984D01*
X10359277Y-14050984D02*
X10397372Y-14050984D01*
X10397372Y-14050984D02*
X10416420Y-14041460D01*
X10416420Y-14041460D02*
X10425944Y-14031936D01*
X10425944Y-14031936D02*
X10435468Y-14012888D01*
X10435468Y-14012888D02*
X10435468Y-13974793D01*
X10435468Y-13974793D02*
X10425944Y-13955746D01*
X10425944Y-13955746D02*
X10416420Y-13946222D01*
X10416420Y-13946222D02*
X10397372Y-13936698D01*
X10502134Y-13850984D02*
X10635468Y-13850984D01*
X10635468Y-13850984D02*
X10549753Y-14050984D01*
X10702134Y-13850984D02*
X10702134Y-13889079D01*
X10778325Y-13850984D02*
X10778325Y-13889079D01*
X11073563Y-14127174D02*
X11064039Y-14117650D01*
X11064039Y-14117650D02*
X11044991Y-14089079D01*
X11044991Y-14089079D02*
X11035468Y-14070031D01*
X11035468Y-14070031D02*
X11025944Y-14041460D01*
X11025944Y-14041460D02*
X11016420Y-13993841D01*
X11016420Y-13993841D02*
X11016420Y-13955746D01*
X11016420Y-13955746D02*
X11025944Y-13908127D01*
X11025944Y-13908127D02*
X11035468Y-13879555D01*
X11035468Y-13879555D02*
X11044991Y-13860508D01*
X11044991Y-13860508D02*
X11064039Y-13831936D01*
X11064039Y-13831936D02*
X11073563Y-13822412D01*
X11178325Y-13936698D02*
X11159277Y-13927174D01*
X11159277Y-13927174D02*
X11149753Y-13917650D01*
X11149753Y-13917650D02*
X11140230Y-13898603D01*
X11140230Y-13898603D02*
X11140230Y-13889079D01*
X11140230Y-13889079D02*
X11149753Y-13870031D01*
X11149753Y-13870031D02*
X11159277Y-13860508D01*
X11159277Y-13860508D02*
X11178325Y-13850984D01*
X11178325Y-13850984D02*
X11216420Y-13850984D01*
X11216420Y-13850984D02*
X11235468Y-13860508D01*
X11235468Y-13860508D02*
X11244991Y-13870031D01*
X11244991Y-13870031D02*
X11254515Y-13889079D01*
X11254515Y-13889079D02*
X11254515Y-13898603D01*
X11254515Y-13898603D02*
X11244991Y-13917650D01*
X11244991Y-13917650D02*
X11235468Y-13927174D01*
X11235468Y-13927174D02*
X11216420Y-13936698D01*
X11216420Y-13936698D02*
X11178325Y-13936698D01*
X11178325Y-13936698D02*
X11159277Y-13946222D01*
X11159277Y-13946222D02*
X11149753Y-13955746D01*
X11149753Y-13955746D02*
X11140230Y-13974793D01*
X11140230Y-13974793D02*
X11140230Y-14012888D01*
X11140230Y-14012888D02*
X11149753Y-14031936D01*
X11149753Y-14031936D02*
X11159277Y-14041460D01*
X11159277Y-14041460D02*
X11178325Y-14050984D01*
X11178325Y-14050984D02*
X11216420Y-14050984D01*
X11216420Y-14050984D02*
X11235468Y-14041460D01*
X11235468Y-14041460D02*
X11244991Y-14031936D01*
X11244991Y-14031936D02*
X11254515Y-14012888D01*
X11254515Y-14012888D02*
X11254515Y-13974793D01*
X11254515Y-13974793D02*
X11244991Y-13955746D01*
X11244991Y-13955746D02*
X11235468Y-13946222D01*
X11235468Y-13946222D02*
X11216420Y-13936698D01*
X11492610Y-14050984D02*
X11492610Y-13850984D01*
X11578325Y-14050984D02*
X11578325Y-13946222D01*
X11578325Y-13946222D02*
X11568801Y-13927174D01*
X11568801Y-13927174D02*
X11549753Y-13917650D01*
X11549753Y-13917650D02*
X11521182Y-13917650D01*
X11521182Y-13917650D02*
X11502134Y-13927174D01*
X11502134Y-13927174D02*
X11492610Y-13936698D01*
X11702134Y-14050984D02*
X11683087Y-14041460D01*
X11683087Y-14041460D02*
X11673563Y-14031936D01*
X11673563Y-14031936D02*
X11664039Y-14012888D01*
X11664039Y-14012888D02*
X11664039Y-13955746D01*
X11664039Y-13955746D02*
X11673563Y-13936698D01*
X11673563Y-13936698D02*
X11683087Y-13927174D01*
X11683087Y-13927174D02*
X11702134Y-13917650D01*
X11702134Y-13917650D02*
X11730706Y-13917650D01*
X11730706Y-13917650D02*
X11749753Y-13927174D01*
X11749753Y-13927174D02*
X11759277Y-13936698D01*
X11759277Y-13936698D02*
X11768801Y-13955746D01*
X11768801Y-13955746D02*
X11768801Y-14012888D01*
X11768801Y-14012888D02*
X11759277Y-14031936D01*
X11759277Y-14031936D02*
X11749753Y-14041460D01*
X11749753Y-14041460D02*
X11730706Y-14050984D01*
X11730706Y-14050984D02*
X11702134Y-14050984D01*
X11883087Y-14050984D02*
X11864039Y-14041460D01*
X11864039Y-14041460D02*
X11854515Y-14022412D01*
X11854515Y-14022412D02*
X11854515Y-13850984D01*
X12035468Y-14041460D02*
X12016420Y-14050984D01*
X12016420Y-14050984D02*
X11978325Y-14050984D01*
X11978325Y-14050984D02*
X11959277Y-14041460D01*
X11959277Y-14041460D02*
X11949753Y-14022412D01*
X11949753Y-14022412D02*
X11949753Y-13946222D01*
X11949753Y-13946222D02*
X11959277Y-13927174D01*
X11959277Y-13927174D02*
X11978325Y-13917650D01*
X11978325Y-13917650D02*
X12016420Y-13917650D01*
X12016420Y-13917650D02*
X12035468Y-13927174D01*
X12035468Y-13927174D02*
X12044991Y-13946222D01*
X12044991Y-13946222D02*
X12044991Y-13965269D01*
X12044991Y-13965269D02*
X11949753Y-13984317D01*
X12121182Y-14041460D02*
X12140230Y-14050984D01*
X12140230Y-14050984D02*
X12178325Y-14050984D01*
X12178325Y-14050984D02*
X12197372Y-14041460D01*
X12197372Y-14041460D02*
X12206896Y-14022412D01*
X12206896Y-14022412D02*
X12206896Y-14012888D01*
X12206896Y-14012888D02*
X12197372Y-13993841D01*
X12197372Y-13993841D02*
X12178325Y-13984317D01*
X12178325Y-13984317D02*
X12149753Y-13984317D01*
X12149753Y-13984317D02*
X12130706Y-13974793D01*
X12130706Y-13974793D02*
X12121182Y-13955746D01*
X12121182Y-13955746D02*
X12121182Y-13946222D01*
X12121182Y-13946222D02*
X12130706Y-13927174D01*
X12130706Y-13927174D02*
X12149753Y-13917650D01*
X12149753Y-13917650D02*
X12178325Y-13917650D01*
X12178325Y-13917650D02*
X12197372Y-13927174D01*
X12273563Y-14127174D02*
X12283087Y-14117650D01*
X12283087Y-14117650D02*
X12302134Y-14089079D01*
X12302134Y-14089079D02*
X12311658Y-14070031D01*
X12311658Y-14070031D02*
X12321182Y-14041460D01*
X12321182Y-14041460D02*
X12330706Y-13993841D01*
X12330706Y-13993841D02*
X12330706Y-13955746D01*
X12330706Y-13955746D02*
X12321182Y-13908127D01*
X12321182Y-13908127D02*
X12311658Y-13879555D01*
X12311658Y-13879555D02*
X12302134Y-13860508D01*
X12302134Y-13860508D02*
X12283087Y-13831936D01*
X12283087Y-13831936D02*
X12273563Y-13822412D01*
X12635468Y-14127174D02*
X12625944Y-14117650D01*
X12625944Y-14117650D02*
X12606896Y-14089079D01*
X12606896Y-14089079D02*
X12597372Y-14070031D01*
X12597372Y-14070031D02*
X12587849Y-14041460D01*
X12587849Y-14041460D02*
X12578325Y-13993841D01*
X12578325Y-13993841D02*
X12578325Y-13955746D01*
X12578325Y-13955746D02*
X12587849Y-13908127D01*
X12587849Y-13908127D02*
X12597372Y-13879555D01*
X12597372Y-13879555D02*
X12606896Y-13860508D01*
X12606896Y-13860508D02*
X12625944Y-13831936D01*
X12625944Y-13831936D02*
X12635468Y-13822412D01*
X12711658Y-13917650D02*
X12711658Y-14050984D01*
X12711658Y-13936698D02*
X12721182Y-13927174D01*
X12721182Y-13927174D02*
X12740230Y-13917650D01*
X12740230Y-13917650D02*
X12768801Y-13917650D01*
X12768801Y-13917650D02*
X12787849Y-13927174D01*
X12787849Y-13927174D02*
X12797372Y-13946222D01*
X12797372Y-13946222D02*
X12797372Y-14050984D01*
X12921182Y-14050984D02*
X12902134Y-14041460D01*
X12902134Y-14041460D02*
X12892611Y-14031936D01*
X12892611Y-14031936D02*
X12883087Y-14012888D01*
X12883087Y-14012888D02*
X12883087Y-13955746D01*
X12883087Y-13955746D02*
X12892611Y-13936698D01*
X12892611Y-13936698D02*
X12902134Y-13927174D01*
X12902134Y-13927174D02*
X12921182Y-13917650D01*
X12921182Y-13917650D02*
X12949753Y-13917650D01*
X12949753Y-13917650D02*
X12968801Y-13927174D01*
X12968801Y-13927174D02*
X12978325Y-13936698D01*
X12978325Y-13936698D02*
X12987849Y-13955746D01*
X12987849Y-13955746D02*
X12987849Y-14012888D01*
X12987849Y-14012888D02*
X12978325Y-14031936D01*
X12978325Y-14031936D02*
X12968801Y-14041460D01*
X12968801Y-14041460D02*
X12949753Y-14050984D01*
X12949753Y-14050984D02*
X12921182Y-14050984D01*
X13044992Y-13917650D02*
X13121182Y-13917650D01*
X13073563Y-13850984D02*
X13073563Y-14022412D01*
X13073563Y-14022412D02*
X13083087Y-14041460D01*
X13083087Y-14041460D02*
X13102134Y-14050984D01*
X13102134Y-14050984D02*
X13121182Y-14050984D01*
X13340230Y-13917650D02*
X13340230Y-14117650D01*
X13340230Y-13927174D02*
X13359277Y-13917650D01*
X13359277Y-13917650D02*
X13397373Y-13917650D01*
X13397373Y-13917650D02*
X13416420Y-13927174D01*
X13416420Y-13927174D02*
X13425944Y-13936698D01*
X13425944Y-13936698D02*
X13435468Y-13955746D01*
X13435468Y-13955746D02*
X13435468Y-14012888D01*
X13435468Y-14012888D02*
X13425944Y-14031936D01*
X13425944Y-14031936D02*
X13416420Y-14041460D01*
X13416420Y-14041460D02*
X13397373Y-14050984D01*
X13397373Y-14050984D02*
X13359277Y-14050984D01*
X13359277Y-14050984D02*
X13340230Y-14041460D01*
X13549753Y-14050984D02*
X13530706Y-14041460D01*
X13530706Y-14041460D02*
X13521182Y-14022412D01*
X13521182Y-14022412D02*
X13521182Y-13850984D01*
X13711658Y-14050984D02*
X13711658Y-13946222D01*
X13711658Y-13946222D02*
X13702134Y-13927174D01*
X13702134Y-13927174D02*
X13683087Y-13917650D01*
X13683087Y-13917650D02*
X13644992Y-13917650D01*
X13644992Y-13917650D02*
X13625944Y-13927174D01*
X13711658Y-14041460D02*
X13692611Y-14050984D01*
X13692611Y-14050984D02*
X13644992Y-14050984D01*
X13644992Y-14050984D02*
X13625944Y-14041460D01*
X13625944Y-14041460D02*
X13616420Y-14022412D01*
X13616420Y-14022412D02*
X13616420Y-14003365D01*
X13616420Y-14003365D02*
X13625944Y-13984317D01*
X13625944Y-13984317D02*
X13644992Y-13974793D01*
X13644992Y-13974793D02*
X13692611Y-13974793D01*
X13692611Y-13974793D02*
X13711658Y-13965269D01*
X13778325Y-13917650D02*
X13854515Y-13917650D01*
X13806896Y-13850984D02*
X13806896Y-14022412D01*
X13806896Y-14022412D02*
X13816420Y-14041460D01*
X13816420Y-14041460D02*
X13835468Y-14050984D01*
X13835468Y-14050984D02*
X13854515Y-14050984D01*
X13997373Y-14041460D02*
X13978325Y-14050984D01*
X13978325Y-14050984D02*
X13940230Y-14050984D01*
X13940230Y-14050984D02*
X13921182Y-14041460D01*
X13921182Y-14041460D02*
X13911658Y-14022412D01*
X13911658Y-14022412D02*
X13911658Y-13946222D01*
X13911658Y-13946222D02*
X13921182Y-13927174D01*
X13921182Y-13927174D02*
X13940230Y-13917650D01*
X13940230Y-13917650D02*
X13978325Y-13917650D01*
X13978325Y-13917650D02*
X13997373Y-13927174D01*
X13997373Y-13927174D02*
X14006896Y-13946222D01*
X14006896Y-13946222D02*
X14006896Y-13965269D01*
X14006896Y-13965269D02*
X13911658Y-13984317D01*
X14178325Y-14050984D02*
X14178325Y-13850984D01*
X14178325Y-14041460D02*
X14159277Y-14050984D01*
X14159277Y-14050984D02*
X14121182Y-14050984D01*
X14121182Y-14050984D02*
X14102134Y-14041460D01*
X14102134Y-14041460D02*
X14092611Y-14031936D01*
X14092611Y-14031936D02*
X14083087Y-14012888D01*
X14083087Y-14012888D02*
X14083087Y-13955746D01*
X14083087Y-13955746D02*
X14092611Y-13936698D01*
X14092611Y-13936698D02*
X14102134Y-13927174D01*
X14102134Y-13927174D02*
X14121182Y-13917650D01*
X14121182Y-13917650D02*
X14159277Y-13917650D01*
X14159277Y-13917650D02*
X14178325Y-13927174D01*
X14254515Y-14127174D02*
X14264039Y-14117650D01*
X14264039Y-14117650D02*
X14283087Y-14089079D01*
X14283087Y-14089079D02*
X14292611Y-14070031D01*
X14292611Y-14070031D02*
X14302134Y-14041460D01*
X14302134Y-14041460D02*
X14311658Y-13993841D01*
X14311658Y-13993841D02*
X14311658Y-13955746D01*
X14311658Y-13955746D02*
X14302134Y-13908127D01*
X14302134Y-13908127D02*
X14292611Y-13879555D01*
X14292611Y-13879555D02*
X14283087Y-13860508D01*
X14283087Y-13860508D02*
X14264039Y-13831936D01*
X14264039Y-13831936D02*
X14254515Y-13822412D01*
X7398500Y-14379500D02*
X7498500Y-14279500D01*
X7398500Y-14179500D01*
X7298500Y-14279500D01*
X7398500Y-14379500D01*
X7749753Y-14190031D02*
X7759277Y-14180508D01*
X7759277Y-14180508D02*
X7778324Y-14170984D01*
X7778324Y-14170984D02*
X7825943Y-14170984D01*
X7825943Y-14170984D02*
X7844991Y-14180508D01*
X7844991Y-14180508D02*
X7854515Y-14190031D01*
X7854515Y-14190031D02*
X7864039Y-14209079D01*
X7864039Y-14209079D02*
X7864039Y-14228127D01*
X7864039Y-14228127D02*
X7854515Y-14256698D01*
X7854515Y-14256698D02*
X7740229Y-14370984D01*
X7740229Y-14370984D02*
X7864039Y-14370984D01*
X7949753Y-14351936D02*
X7959277Y-14361460D01*
X7959277Y-14361460D02*
X7949753Y-14370984D01*
X7949753Y-14370984D02*
X7940229Y-14361460D01*
X7940229Y-14361460D02*
X7949753Y-14351936D01*
X7949753Y-14351936D02*
X7949753Y-14370984D01*
X8035467Y-14190031D02*
X8044991Y-14180508D01*
X8044991Y-14180508D02*
X8064039Y-14170984D01*
X8064039Y-14170984D02*
X8111658Y-14170984D01*
X8111658Y-14170984D02*
X8130705Y-14180508D01*
X8130705Y-14180508D02*
X8140229Y-14190031D01*
X8140229Y-14190031D02*
X8149753Y-14209079D01*
X8149753Y-14209079D02*
X8149753Y-14228127D01*
X8149753Y-14228127D02*
X8140229Y-14256698D01*
X8140229Y-14256698D02*
X8025943Y-14370984D01*
X8025943Y-14370984D02*
X8149753Y-14370984D01*
X8273562Y-14170984D02*
X8292610Y-14170984D01*
X8292610Y-14170984D02*
X8311658Y-14180508D01*
X8311658Y-14180508D02*
X8321182Y-14190031D01*
X8321182Y-14190031D02*
X8330705Y-14209079D01*
X8330705Y-14209079D02*
X8340229Y-14247174D01*
X8340229Y-14247174D02*
X8340229Y-14294793D01*
X8340229Y-14294793D02*
X8330705Y-14332888D01*
X8330705Y-14332888D02*
X8321182Y-14351936D01*
X8321182Y-14351936D02*
X8311658Y-14361460D01*
X8311658Y-14361460D02*
X8292610Y-14370984D01*
X8292610Y-14370984D02*
X8273562Y-14370984D01*
X8273562Y-14370984D02*
X8254515Y-14361460D01*
X8254515Y-14361460D02*
X8244991Y-14351936D01*
X8244991Y-14351936D02*
X8235467Y-14332888D01*
X8235467Y-14332888D02*
X8225943Y-14294793D01*
X8225943Y-14294793D02*
X8225943Y-14247174D01*
X8225943Y-14247174D02*
X8235467Y-14209079D01*
X8235467Y-14209079D02*
X8244991Y-14190031D01*
X8244991Y-14190031D02*
X8254515Y-14180508D01*
X8254515Y-14180508D02*
X8273562Y-14170984D01*
X8464039Y-14170984D02*
X8483086Y-14170984D01*
X8483086Y-14170984D02*
X8502134Y-14180508D01*
X8502134Y-14180508D02*
X8511658Y-14190031D01*
X8511658Y-14190031D02*
X8521182Y-14209079D01*
X8521182Y-14209079D02*
X8530705Y-14247174D01*
X8530705Y-14247174D02*
X8530705Y-14294793D01*
X8530705Y-14294793D02*
X8521182Y-14332888D01*
X8521182Y-14332888D02*
X8511658Y-14351936D01*
X8511658Y-14351936D02*
X8502134Y-14361460D01*
X8502134Y-14361460D02*
X8483086Y-14370984D01*
X8483086Y-14370984D02*
X8464039Y-14370984D01*
X8464039Y-14370984D02*
X8444991Y-14361460D01*
X8444991Y-14361460D02*
X8435467Y-14351936D01*
X8435467Y-14351936D02*
X8425944Y-14332888D01*
X8425944Y-14332888D02*
X8416420Y-14294793D01*
X8416420Y-14294793D02*
X8416420Y-14247174D01*
X8416420Y-14247174D02*
X8425944Y-14209079D01*
X8425944Y-14209079D02*
X8435467Y-14190031D01*
X8435467Y-14190031D02*
X8444991Y-14180508D01*
X8444991Y-14180508D02*
X8464039Y-14170984D01*
X8616420Y-14370984D02*
X8616420Y-14237650D01*
X8616420Y-14256698D02*
X8625944Y-14247174D01*
X8625944Y-14247174D02*
X8644991Y-14237650D01*
X8644991Y-14237650D02*
X8673563Y-14237650D01*
X8673563Y-14237650D02*
X8692610Y-14247174D01*
X8692610Y-14247174D02*
X8702134Y-14266222D01*
X8702134Y-14266222D02*
X8702134Y-14370984D01*
X8702134Y-14266222D02*
X8711658Y-14247174D01*
X8711658Y-14247174D02*
X8730705Y-14237650D01*
X8730705Y-14237650D02*
X8759277Y-14237650D01*
X8759277Y-14237650D02*
X8778325Y-14247174D01*
X8778325Y-14247174D02*
X8787848Y-14266222D01*
X8787848Y-14266222D02*
X8787848Y-14370984D01*
X8883086Y-14370984D02*
X8883086Y-14237650D01*
X8883086Y-14256698D02*
X8892610Y-14247174D01*
X8892610Y-14247174D02*
X8911658Y-14237650D01*
X8911658Y-14237650D02*
X8940229Y-14237650D01*
X8940229Y-14237650D02*
X8959277Y-14247174D01*
X8959277Y-14247174D02*
X8968801Y-14266222D01*
X8968801Y-14266222D02*
X8968801Y-14370984D01*
X8968801Y-14266222D02*
X8978325Y-14247174D01*
X8978325Y-14247174D02*
X8997372Y-14237650D01*
X8997372Y-14237650D02*
X9025944Y-14237650D01*
X9025944Y-14237650D02*
X9044991Y-14247174D01*
X9044991Y-14247174D02*
X9054515Y-14266222D01*
X9054515Y-14266222D02*
X9054515Y-14370984D01*
X9444991Y-14161460D02*
X9273563Y-14418603D01*
X9702134Y-14170984D02*
X9721182Y-14170984D01*
X9721182Y-14170984D02*
X9740229Y-14180508D01*
X9740229Y-14180508D02*
X9749753Y-14190031D01*
X9749753Y-14190031D02*
X9759277Y-14209079D01*
X9759277Y-14209079D02*
X9768801Y-14247174D01*
X9768801Y-14247174D02*
X9768801Y-14294793D01*
X9768801Y-14294793D02*
X9759277Y-14332888D01*
X9759277Y-14332888D02*
X9749753Y-14351936D01*
X9749753Y-14351936D02*
X9740229Y-14361460D01*
X9740229Y-14361460D02*
X9721182Y-14370984D01*
X9721182Y-14370984D02*
X9702134Y-14370984D01*
X9702134Y-14370984D02*
X9683087Y-14361460D01*
X9683087Y-14361460D02*
X9673563Y-14351936D01*
X9673563Y-14351936D02*
X9664039Y-14332888D01*
X9664039Y-14332888D02*
X9654515Y-14294793D01*
X9654515Y-14294793D02*
X9654515Y-14247174D01*
X9654515Y-14247174D02*
X9664039Y-14209079D01*
X9664039Y-14209079D02*
X9673563Y-14190031D01*
X9673563Y-14190031D02*
X9683087Y-14180508D01*
X9683087Y-14180508D02*
X9702134Y-14170984D01*
X9854515Y-14351936D02*
X9864039Y-14361460D01*
X9864039Y-14361460D02*
X9854515Y-14370984D01*
X9854515Y-14370984D02*
X9844991Y-14361460D01*
X9844991Y-14361460D02*
X9854515Y-14351936D01*
X9854515Y-14351936D02*
X9854515Y-14370984D01*
X9987848Y-14170984D02*
X10006896Y-14170984D01*
X10006896Y-14170984D02*
X10025944Y-14180508D01*
X10025944Y-14180508D02*
X10035468Y-14190031D01*
X10035468Y-14190031D02*
X10044991Y-14209079D01*
X10044991Y-14209079D02*
X10054515Y-14247174D01*
X10054515Y-14247174D02*
X10054515Y-14294793D01*
X10054515Y-14294793D02*
X10044991Y-14332888D01*
X10044991Y-14332888D02*
X10035468Y-14351936D01*
X10035468Y-14351936D02*
X10025944Y-14361460D01*
X10025944Y-14361460D02*
X10006896Y-14370984D01*
X10006896Y-14370984D02*
X9987848Y-14370984D01*
X9987848Y-14370984D02*
X9968801Y-14361460D01*
X9968801Y-14361460D02*
X9959277Y-14351936D01*
X9959277Y-14351936D02*
X9949753Y-14332888D01*
X9949753Y-14332888D02*
X9940229Y-14294793D01*
X9940229Y-14294793D02*
X9940229Y-14247174D01*
X9940229Y-14247174D02*
X9949753Y-14209079D01*
X9949753Y-14209079D02*
X9959277Y-14190031D01*
X9959277Y-14190031D02*
X9968801Y-14180508D01*
X9968801Y-14180508D02*
X9987848Y-14170984D01*
X10168801Y-14256698D02*
X10149753Y-14247174D01*
X10149753Y-14247174D02*
X10140229Y-14237650D01*
X10140229Y-14237650D02*
X10130706Y-14218603D01*
X10130706Y-14218603D02*
X10130706Y-14209079D01*
X10130706Y-14209079D02*
X10140229Y-14190031D01*
X10140229Y-14190031D02*
X10149753Y-14180508D01*
X10149753Y-14180508D02*
X10168801Y-14170984D01*
X10168801Y-14170984D02*
X10206896Y-14170984D01*
X10206896Y-14170984D02*
X10225944Y-14180508D01*
X10225944Y-14180508D02*
X10235468Y-14190031D01*
X10235468Y-14190031D02*
X10244991Y-14209079D01*
X10244991Y-14209079D02*
X10244991Y-14218603D01*
X10244991Y-14218603D02*
X10235468Y-14237650D01*
X10235468Y-14237650D02*
X10225944Y-14247174D01*
X10225944Y-14247174D02*
X10206896Y-14256698D01*
X10206896Y-14256698D02*
X10168801Y-14256698D01*
X10168801Y-14256698D02*
X10149753Y-14266222D01*
X10149753Y-14266222D02*
X10140229Y-14275746D01*
X10140229Y-14275746D02*
X10130706Y-14294793D01*
X10130706Y-14294793D02*
X10130706Y-14332888D01*
X10130706Y-14332888D02*
X10140229Y-14351936D01*
X10140229Y-14351936D02*
X10149753Y-14361460D01*
X10149753Y-14361460D02*
X10168801Y-14370984D01*
X10168801Y-14370984D02*
X10206896Y-14370984D01*
X10206896Y-14370984D02*
X10225944Y-14361460D01*
X10225944Y-14361460D02*
X10235468Y-14351936D01*
X10235468Y-14351936D02*
X10244991Y-14332888D01*
X10244991Y-14332888D02*
X10244991Y-14294793D01*
X10244991Y-14294793D02*
X10235468Y-14275746D01*
X10235468Y-14275746D02*
X10225944Y-14266222D01*
X10225944Y-14266222D02*
X10206896Y-14256698D01*
X10416420Y-14170984D02*
X10378325Y-14170984D01*
X10378325Y-14170984D02*
X10359277Y-14180508D01*
X10359277Y-14180508D02*
X10349753Y-14190031D01*
X10349753Y-14190031D02*
X10330706Y-14218603D01*
X10330706Y-14218603D02*
X10321182Y-14256698D01*
X10321182Y-14256698D02*
X10321182Y-14332888D01*
X10321182Y-14332888D02*
X10330706Y-14351936D01*
X10330706Y-14351936D02*
X10340229Y-14361460D01*
X10340229Y-14361460D02*
X10359277Y-14370984D01*
X10359277Y-14370984D02*
X10397372Y-14370984D01*
X10397372Y-14370984D02*
X10416420Y-14361460D01*
X10416420Y-14361460D02*
X10425944Y-14351936D01*
X10425944Y-14351936D02*
X10435468Y-14332888D01*
X10435468Y-14332888D02*
X10435468Y-14285269D01*
X10435468Y-14285269D02*
X10425944Y-14266222D01*
X10425944Y-14266222D02*
X10416420Y-14256698D01*
X10416420Y-14256698D02*
X10397372Y-14247174D01*
X10397372Y-14247174D02*
X10359277Y-14247174D01*
X10359277Y-14247174D02*
X10340229Y-14256698D01*
X10340229Y-14256698D02*
X10330706Y-14266222D01*
X10330706Y-14266222D02*
X10321182Y-14285269D01*
X10606896Y-14170984D02*
X10568801Y-14170984D01*
X10568801Y-14170984D02*
X10549753Y-14180508D01*
X10549753Y-14180508D02*
X10540229Y-14190031D01*
X10540229Y-14190031D02*
X10521182Y-14218603D01*
X10521182Y-14218603D02*
X10511658Y-14256698D01*
X10511658Y-14256698D02*
X10511658Y-14332888D01*
X10511658Y-14332888D02*
X10521182Y-14351936D01*
X10521182Y-14351936D02*
X10530706Y-14361460D01*
X10530706Y-14361460D02*
X10549753Y-14370984D01*
X10549753Y-14370984D02*
X10587849Y-14370984D01*
X10587849Y-14370984D02*
X10606896Y-14361460D01*
X10606896Y-14361460D02*
X10616420Y-14351936D01*
X10616420Y-14351936D02*
X10625944Y-14332888D01*
X10625944Y-14332888D02*
X10625944Y-14285269D01*
X10625944Y-14285269D02*
X10616420Y-14266222D01*
X10616420Y-14266222D02*
X10606896Y-14256698D01*
X10606896Y-14256698D02*
X10587849Y-14247174D01*
X10587849Y-14247174D02*
X10549753Y-14247174D01*
X10549753Y-14247174D02*
X10530706Y-14256698D01*
X10530706Y-14256698D02*
X10521182Y-14266222D01*
X10521182Y-14266222D02*
X10511658Y-14285269D01*
X10702134Y-14170984D02*
X10702134Y-14209079D01*
X10778325Y-14170984D02*
X10778325Y-14209079D01*
X11073563Y-14447174D02*
X11064039Y-14437650D01*
X11064039Y-14437650D02*
X11044991Y-14409079D01*
X11044991Y-14409079D02*
X11035468Y-14390031D01*
X11035468Y-14390031D02*
X11025944Y-14361460D01*
X11025944Y-14361460D02*
X11016420Y-14313841D01*
X11016420Y-14313841D02*
X11016420Y-14275746D01*
X11016420Y-14275746D02*
X11025944Y-14228127D01*
X11025944Y-14228127D02*
X11035468Y-14199555D01*
X11035468Y-14199555D02*
X11044991Y-14180508D01*
X11044991Y-14180508D02*
X11064039Y-14151936D01*
X11064039Y-14151936D02*
X11073563Y-14142412D01*
X11235468Y-14237650D02*
X11235468Y-14370984D01*
X11187848Y-14161460D02*
X11140230Y-14304317D01*
X11140230Y-14304317D02*
X11264039Y-14304317D01*
X11492610Y-14370984D02*
X11492610Y-14170984D01*
X11578325Y-14370984D02*
X11578325Y-14266222D01*
X11578325Y-14266222D02*
X11568801Y-14247174D01*
X11568801Y-14247174D02*
X11549753Y-14237650D01*
X11549753Y-14237650D02*
X11521182Y-14237650D01*
X11521182Y-14237650D02*
X11502134Y-14247174D01*
X11502134Y-14247174D02*
X11492610Y-14256698D01*
X11702134Y-14370984D02*
X11683087Y-14361460D01*
X11683087Y-14361460D02*
X11673563Y-14351936D01*
X11673563Y-14351936D02*
X11664039Y-14332888D01*
X11664039Y-14332888D02*
X11664039Y-14275746D01*
X11664039Y-14275746D02*
X11673563Y-14256698D01*
X11673563Y-14256698D02*
X11683087Y-14247174D01*
X11683087Y-14247174D02*
X11702134Y-14237650D01*
X11702134Y-14237650D02*
X11730706Y-14237650D01*
X11730706Y-14237650D02*
X11749753Y-14247174D01*
X11749753Y-14247174D02*
X11759277Y-14256698D01*
X11759277Y-14256698D02*
X11768801Y-14275746D01*
X11768801Y-14275746D02*
X11768801Y-14332888D01*
X11768801Y-14332888D02*
X11759277Y-14351936D01*
X11759277Y-14351936D02*
X11749753Y-14361460D01*
X11749753Y-14361460D02*
X11730706Y-14370984D01*
X11730706Y-14370984D02*
X11702134Y-14370984D01*
X11883087Y-14370984D02*
X11864039Y-14361460D01*
X11864039Y-14361460D02*
X11854515Y-14342412D01*
X11854515Y-14342412D02*
X11854515Y-14170984D01*
X12035468Y-14361460D02*
X12016420Y-14370984D01*
X12016420Y-14370984D02*
X11978325Y-14370984D01*
X11978325Y-14370984D02*
X11959277Y-14361460D01*
X11959277Y-14361460D02*
X11949753Y-14342412D01*
X11949753Y-14342412D02*
X11949753Y-14266222D01*
X11949753Y-14266222D02*
X11959277Y-14247174D01*
X11959277Y-14247174D02*
X11978325Y-14237650D01*
X11978325Y-14237650D02*
X12016420Y-14237650D01*
X12016420Y-14237650D02*
X12035468Y-14247174D01*
X12035468Y-14247174D02*
X12044991Y-14266222D01*
X12044991Y-14266222D02*
X12044991Y-14285269D01*
X12044991Y-14285269D02*
X11949753Y-14304317D01*
X12121182Y-14361460D02*
X12140230Y-14370984D01*
X12140230Y-14370984D02*
X12178325Y-14370984D01*
X12178325Y-14370984D02*
X12197372Y-14361460D01*
X12197372Y-14361460D02*
X12206896Y-14342412D01*
X12206896Y-14342412D02*
X12206896Y-14332888D01*
X12206896Y-14332888D02*
X12197372Y-14313841D01*
X12197372Y-14313841D02*
X12178325Y-14304317D01*
X12178325Y-14304317D02*
X12149753Y-14304317D01*
X12149753Y-14304317D02*
X12130706Y-14294793D01*
X12130706Y-14294793D02*
X12121182Y-14275746D01*
X12121182Y-14275746D02*
X12121182Y-14266222D01*
X12121182Y-14266222D02*
X12130706Y-14247174D01*
X12130706Y-14247174D02*
X12149753Y-14237650D01*
X12149753Y-14237650D02*
X12178325Y-14237650D01*
X12178325Y-14237650D02*
X12197372Y-14247174D01*
X12273563Y-14447174D02*
X12283087Y-14437650D01*
X12283087Y-14437650D02*
X12302134Y-14409079D01*
X12302134Y-14409079D02*
X12311658Y-14390031D01*
X12311658Y-14390031D02*
X12321182Y-14361460D01*
X12321182Y-14361460D02*
X12330706Y-14313841D01*
X12330706Y-14313841D02*
X12330706Y-14275746D01*
X12330706Y-14275746D02*
X12321182Y-14228127D01*
X12321182Y-14228127D02*
X12311658Y-14199555D01*
X12311658Y-14199555D02*
X12302134Y-14180508D01*
X12302134Y-14180508D02*
X12283087Y-14151936D01*
X12283087Y-14151936D02*
X12273563Y-14142412D01*
X12635468Y-14447174D02*
X12625944Y-14437650D01*
X12625944Y-14437650D02*
X12606896Y-14409079D01*
X12606896Y-14409079D02*
X12597372Y-14390031D01*
X12597372Y-14390031D02*
X12587849Y-14361460D01*
X12587849Y-14361460D02*
X12578325Y-14313841D01*
X12578325Y-14313841D02*
X12578325Y-14275746D01*
X12578325Y-14275746D02*
X12587849Y-14228127D01*
X12587849Y-14228127D02*
X12597372Y-14199555D01*
X12597372Y-14199555D02*
X12606896Y-14180508D01*
X12606896Y-14180508D02*
X12625944Y-14151936D01*
X12625944Y-14151936D02*
X12635468Y-14142412D01*
X12711658Y-14237650D02*
X12711658Y-14370984D01*
X12711658Y-14256698D02*
X12721182Y-14247174D01*
X12721182Y-14247174D02*
X12740230Y-14237650D01*
X12740230Y-14237650D02*
X12768801Y-14237650D01*
X12768801Y-14237650D02*
X12787849Y-14247174D01*
X12787849Y-14247174D02*
X12797372Y-14266222D01*
X12797372Y-14266222D02*
X12797372Y-14370984D01*
X12921182Y-14370984D02*
X12902134Y-14361460D01*
X12902134Y-14361460D02*
X12892611Y-14351936D01*
X12892611Y-14351936D02*
X12883087Y-14332888D01*
X12883087Y-14332888D02*
X12883087Y-14275746D01*
X12883087Y-14275746D02*
X12892611Y-14256698D01*
X12892611Y-14256698D02*
X12902134Y-14247174D01*
X12902134Y-14247174D02*
X12921182Y-14237650D01*
X12921182Y-14237650D02*
X12949753Y-14237650D01*
X12949753Y-14237650D02*
X12968801Y-14247174D01*
X12968801Y-14247174D02*
X12978325Y-14256698D01*
X12978325Y-14256698D02*
X12987849Y-14275746D01*
X12987849Y-14275746D02*
X12987849Y-14332888D01*
X12987849Y-14332888D02*
X12978325Y-14351936D01*
X12978325Y-14351936D02*
X12968801Y-14361460D01*
X12968801Y-14361460D02*
X12949753Y-14370984D01*
X12949753Y-14370984D02*
X12921182Y-14370984D01*
X13044992Y-14237650D02*
X13121182Y-14237650D01*
X13073563Y-14170984D02*
X13073563Y-14342412D01*
X13073563Y-14342412D02*
X13083087Y-14361460D01*
X13083087Y-14361460D02*
X13102134Y-14370984D01*
X13102134Y-14370984D02*
X13121182Y-14370984D01*
X13340230Y-14237650D02*
X13340230Y-14437650D01*
X13340230Y-14247174D02*
X13359277Y-14237650D01*
X13359277Y-14237650D02*
X13397373Y-14237650D01*
X13397373Y-14237650D02*
X13416420Y-14247174D01*
X13416420Y-14247174D02*
X13425944Y-14256698D01*
X13425944Y-14256698D02*
X13435468Y-14275746D01*
X13435468Y-14275746D02*
X13435468Y-14332888D01*
X13435468Y-14332888D02*
X13425944Y-14351936D01*
X13425944Y-14351936D02*
X13416420Y-14361460D01*
X13416420Y-14361460D02*
X13397373Y-14370984D01*
X13397373Y-14370984D02*
X13359277Y-14370984D01*
X13359277Y-14370984D02*
X13340230Y-14361460D01*
X13549753Y-14370984D02*
X13530706Y-14361460D01*
X13530706Y-14361460D02*
X13521182Y-14342412D01*
X13521182Y-14342412D02*
X13521182Y-14170984D01*
X13711658Y-14370984D02*
X13711658Y-14266222D01*
X13711658Y-14266222D02*
X13702134Y-14247174D01*
X13702134Y-14247174D02*
X13683087Y-14237650D01*
X13683087Y-14237650D02*
X13644992Y-14237650D01*
X13644992Y-14237650D02*
X13625944Y-14247174D01*
X13711658Y-14361460D02*
X13692611Y-14370984D01*
X13692611Y-14370984D02*
X13644992Y-14370984D01*
X13644992Y-14370984D02*
X13625944Y-14361460D01*
X13625944Y-14361460D02*
X13616420Y-14342412D01*
X13616420Y-14342412D02*
X13616420Y-14323365D01*
X13616420Y-14323365D02*
X13625944Y-14304317D01*
X13625944Y-14304317D02*
X13644992Y-14294793D01*
X13644992Y-14294793D02*
X13692611Y-14294793D01*
X13692611Y-14294793D02*
X13711658Y-14285269D01*
X13778325Y-14237650D02*
X13854515Y-14237650D01*
X13806896Y-14170984D02*
X13806896Y-14342412D01*
X13806896Y-14342412D02*
X13816420Y-14361460D01*
X13816420Y-14361460D02*
X13835468Y-14370984D01*
X13835468Y-14370984D02*
X13854515Y-14370984D01*
X13997373Y-14361460D02*
X13978325Y-14370984D01*
X13978325Y-14370984D02*
X13940230Y-14370984D01*
X13940230Y-14370984D02*
X13921182Y-14361460D01*
X13921182Y-14361460D02*
X13911658Y-14342412D01*
X13911658Y-14342412D02*
X13911658Y-14266222D01*
X13911658Y-14266222D02*
X13921182Y-14247174D01*
X13921182Y-14247174D02*
X13940230Y-14237650D01*
X13940230Y-14237650D02*
X13978325Y-14237650D01*
X13978325Y-14237650D02*
X13997373Y-14247174D01*
X13997373Y-14247174D02*
X14006896Y-14266222D01*
X14006896Y-14266222D02*
X14006896Y-14285269D01*
X14006896Y-14285269D02*
X13911658Y-14304317D01*
X14178325Y-14370984D02*
X14178325Y-14170984D01*
X14178325Y-14361460D02*
X14159277Y-14370984D01*
X14159277Y-14370984D02*
X14121182Y-14370984D01*
X14121182Y-14370984D02*
X14102134Y-14361460D01*
X14102134Y-14361460D02*
X14092611Y-14351936D01*
X14092611Y-14351936D02*
X14083087Y-14332888D01*
X14083087Y-14332888D02*
X14083087Y-14275746D01*
X14083087Y-14275746D02*
X14092611Y-14256698D01*
X14092611Y-14256698D02*
X14102134Y-14247174D01*
X14102134Y-14247174D02*
X14121182Y-14237650D01*
X14121182Y-14237650D02*
X14159277Y-14237650D01*
X14159277Y-14237650D02*
X14178325Y-14247174D01*
X14254515Y-14447174D02*
X14264039Y-14437650D01*
X14264039Y-14437650D02*
X14283087Y-14409079D01*
X14283087Y-14409079D02*
X14292611Y-14390031D01*
X14292611Y-14390031D02*
X14302134Y-14361460D01*
X14302134Y-14361460D02*
X14311658Y-14313841D01*
X14311658Y-14313841D02*
X14311658Y-14275746D01*
X14311658Y-14275746D02*
X14302134Y-14228127D01*
X14302134Y-14228127D02*
X14292611Y-14199555D01*
X14292611Y-14199555D02*
X14283087Y-14180508D01*
X14283087Y-14180508D02*
X14264039Y-14151936D01*
X14264039Y-14151936D02*
X14254515Y-14142412D01*
M02*
